<?xml version="1.0" standalone="no"?>
<!DOCTYPE svg PUBLIC "-//W3C//DTD SVG 20010904//EN"
 "http://www.w3.org/TR/2001/REC-SVG-20010904/DTD/svg10.dtd">
<svg version="1.0" xmlns="http://www.w3.org/2000/svg"
 width="512.000000pt" height="512.000000pt" viewBox="0 0 512.000000 512.000000"
 preserveAspectRatio="xMidYMid meet">

<g transform="translate(0.000000,512.000000) scale(0.100000,-0.100000)"
fill="#000000" stroke="none">
<path d="M2507 5113 c-35 -6 -2306 -777 -2367 -804 -57 -26 -98 -63 -121 -114
-18 -38 -19 -102 -19 -1578 0 -1368 2 -1542 16 -1575 19 -47 58 -88 108 -114
21 -11 564 -223 1205 -471 1109 -428 1169 -450 1231 -450 62 0 124 23 1253
458 1281 495 1248 480 1288 569 18 39 19 106 19 1571 0 1076 -3 1542 -11 1570
-15 56 -54 103 -102 125 -91 40 -2385 809 -2427 813 -25 3 -58 3 -73 0z m908
-714 c462 -155 843 -285 848 -289 8 -7 -1677 -650 -1703 -650 -23 0 -1711 643
-1704 649 9 9 1678 570 1699 570 11 1 398 -125 860 -280z m-1957 -989 l882
-335 0 -1274 c0 -1208 -1 -1273 -17 -1268 -10 2 -416 159 -903 347 -487 188
-909 351 -937 362 l-53 19 0 1269 0 1269 73 -27 c40 -15 470 -178 955 -362z
m3228 -2147 c-4 -4 -1863 -723 -1888 -730 -17 -5 -18 60 -18 1264 l0 1270 608
233 c334 128 762 293 952 366 l345 132 3 -1265 c1 -697 0 -1268 -2 -1270z"/>
</g>
</svg>
