<?xml version="1.0" standalone="no"?>
<!DOCTYPE svg PUBLIC "-//W3C//DTD SVG 20010904//EN"
 "http://www.w3.org/TR/2001/REC-SVG-20010904/DTD/svg10.dtd">
<svg version="1.0" xmlns="http://www.w3.org/2000/svg"
 width="512.000000pt" height="512.000000pt" viewBox="0 0 512.000000 512.000000"
 preserveAspectRatio="xMidYMid meet">

<g transform="translate(0.000000,512.000000) scale(0.100000,-0.100000)"
fill="#000000" stroke="none">
<path d="M2113 5106 c-100 -32 -170 -93 -220 -189 -21 -41 -28 -71 -32 -147
l-6 -95 -555 -5 -555 -5 -68 -33 c-167 -82 -269 -271 -238 -444 31 -176 177
-330 337 -354 l44 -6 0 -1737 c0 -1212 3 -1755 11 -1796 21 -116 95 -212 202
-261 l62 -29 1510 0 1510 0 57 27 c73 34 137 98 174 174 l29 59 5 1787 5 1787
63 32 c163 81 263 270 233 441 -25 141 -112 257 -238 320 l-68 33 -555 5 -555
5 -6 95 c-4 83 -10 103 -39 158 -39 74 -92 125 -169 161 l-56 26 -420 2 c-328
2 -429 -1 -462 -11z m858 -275 c26 -27 29 -36 29 -95 l0 -66 -440 0 -440 0 0
66 c0 59 3 68 29 95 l29 29 382 0 382 0 29 -29z m1386 -447 c92 -69 89 -207
-7 -271 l-33 -23 -1757 0 -1757 0 -34 23 c-48 31 -83 105 -74 156 9 54 42 102
85 124 33 16 134 17 1792 15 l1757 -3 28 -21z m-239 -2314 l-3 -1759 -23 -23
-23 -23 -1452 -3 c-1043 -2 -1460 1 -1479 9 -62 25 -58 -92 -58 1811 0 954 3
1738 7 1741 3 4 687 7 1520 7 l1513 0 -2 -1760z"/>
<path d="M1723 3331 c-79 -36 -73 65 -73 -1286 0 -1332 -4 -1244 63 -1285 61
-38 144 -14 179 51 17 32 18 90 18 1229 0 1118 -1 1197 -18 1229 -34 69 -101
93 -169 62z"/>
<path d="M2566 3340 c-15 -5 -37 -17 -48 -27 -50 -44 -48 -3 -48 -1275 0
-1137 1 -1195 18 -1227 35 -65 118 -89 179 -51 67 41 63 -47 63 1286 0 1193 0
1207 -20 1239 -12 20 -37 39 -60 49 -45 18 -44 18 -84 6z"/>
<path d="M3380 3337 c-19 -7 -44 -27 -57 -46 l-23 -34 0 -1217 0 -1217 21 -27
c26 -33 69 -56 106 -56 36 0 87 31 110 67 17 26 18 88 18 1238 0 1140 -1 1212
-18 1238 -34 53 -97 75 -157 54z"/>
</g>
</svg>
