<svg xmlns="http://www.w3.org/2000/svg" viewBox="0 0 18.8 24.02"><g id="Layer_2" data-name="Layer 2"><g id="Layer_1-2" data-name="Layer 1"><path d="M8.38,13.57v2.08a6.26,6.26,0,0,0-6.28,6.24H0A8.34,8.34,0,0,1,8.38,13.57Zm0-1.05a6.26,6.26,0,1,1,6.29-6.23A6.24,6.24,0,0,1,8.38,12.52Zm0-2.09A4.17,4.17,0,1,0,4.23,6.24,4.17,4.17,0,0,0,8.39,10.43ZM17.56,21l-3,3L11.66,21a4.45,4.45,0,0,1,0-6.12,4.08,4.08,0,0,1,5.91,0A4.43,4.43,0,0,1,17.56,21Zm-1.49-1.46a2.34,2.34,0,0,0,0-3.21,2,2,0,0,0-2.9,0,2.34,2.34,0,0,0,0,3.21L14.61,21Z"/></g></g></svg>