<svg xmlns="http://www.w3.org/2000/svg" viewBox="0 0 19.33 24"><g id="Layer_2" data-name="Layer 2"><g id="Layer_1-2" data-name="Layer 1"><path d="M19.33,12v9a2.79,2.79,0,0,1-3,3H3a2.8,2.8,0,0,1-3-3V3A2.8,2.8,0,0,1,3,0H16.3a2.79,2.79,0,0,1,3,3.05Zm-18,0v8.92c0,1.22.53,1.76,1.74,1.76H16.33A1.5,1.5,0,0,0,18,21q0-9,0-18a1.49,1.49,0,0,0-1.7-1.68H3.09c-1.24,0-1.77.53-1.77,1.78Z"/><path d="M9.64,7.36H5.51A2,2,0,0,1,3.39,5.24,2,2,0,0,1,5.47,3h8.39a2,2,0,0,1,2.08,2.26,1.94,1.94,0,0,1-2.1,2.07Zm0-3H5.53c-.6,0-.84.25-.85.83s.24.88.86.88q4.11,0,8.22,0c.65,0,.88-.23.89-.84s-.23-.87-.91-.87Z"/><path d="M9.68,9.63a1.76,1.76,0,0,1,1.77,1.79,1.79,1.79,0,1,1-3.57-.08A1.77,1.77,0,0,1,9.68,9.63Zm0,2.21a.45.45,0,1,0-.44-.49A.42.42,0,0,0,9.65,11.84Z"/><path d="M9.69,17.94a1.76,1.76,0,0,1,1.76,1.8,1.79,1.79,0,1,1-1.76-1.8Zm.45,1.75c-.05-.29-.21-.46-.49-.45a.43.43,0,0,0-.44.48.42.42,0,0,0,.48.44A.45.45,0,0,0,10.14,19.69Z"/><path d="M9.68,17.32a1.77,1.77,0,0,1-1.8-1.77,1.79,1.79,0,0,1,3.57,0A1.77,1.77,0,0,1,9.68,17.32Zm0-2.23c-.28,0-.47.16-.47.46a.42.42,0,0,0,.41.46.44.44,0,0,0,.51-.43C10.15,15.29,10,15.13,9.68,15.09Z"/><path d="M14,17.32a1.78,1.78,0,1,1,0-3.55,1.78,1.78,0,0,1,0,3.55Zm.44-1.77A.44.44,0,0,0,14,15.1a.42.42,0,0,0-.46.46A.43.43,0,0,0,14,16,.44.44,0,0,0,14.46,15.55Z"/><path d="M14,9.63a1.77,1.77,0,0,1,1.79,1.77,1.78,1.78,0,0,1-3.56,0A1.75,1.75,0,0,1,14,9.63Zm0,2.21a.45.45,0,0,0,0-.9.42.42,0,0,0-.48.44C13.53,11.68,13.7,11.83,14,11.84Z"/><path d="M5.34,9.62A1.76,1.76,0,0,1,7.11,11.4a1.79,1.79,0,0,1-1.74,1.78,1.81,1.81,0,0,1-1.81-1.77A1.78,1.78,0,0,1,5.34,9.62Zm0,2.23a.46.46,0,1,0-.08-.91.4.4,0,0,0-.4.46C4.89,11.71,5.08,11.83,5.37,11.85Z"/><path d="M7.11,15.54a1.75,1.75,0,0,1-1.78,1.78,1.79,1.79,0,0,1-1.78-1.79,1.81,1.81,0,0,1,1.82-1.76A1.78,1.78,0,0,1,7.11,15.54Zm-1.76-.45a.44.44,0,0,0-.47.45.43.43,0,0,0,.45.47.43.43,0,0,0,.48-.44A.45.45,0,0,0,5.35,15.09Z"/><path d="M14,17.94a1.77,1.77,0,0,1,1.75,1.76,1.78,1.78,0,1,1-3.56,0A1.76,1.76,0,0,1,14,17.94Zm0,1.29a.44.44,0,0,0-.48.45.41.41,0,0,0,.43.48.42.42,0,0,0,.48-.44A.44.44,0,0,0,14,19.23Z"/><path d="M5.35,17.94a1.75,1.75,0,0,1,1.76,1.79,1.77,1.77,0,0,1-1.75,1.75,1.8,1.8,0,0,1-1.81-1.77A1.78,1.78,0,0,1,5.35,17.94Zm.47,1.73a.46.46,0,0,0-.49-.43.42.42,0,0,0-.44.48.41.41,0,0,0,.47.44C5.65,20.15,5.78,20,5.82,19.67Z"/></g></g></svg>