<svg xmlns="http://www.w3.org/2000/svg" viewBox="0 0 23.52 24"><g id="Layer_2" data-name="Layer 2"><g id="Layer_1-2" data-name="Layer 1"><path d="M22,8.83v4.24a1,1,0,0,0,.22.72A6.36,6.36,0,0,1,12.54,22a1.2,1.2,0,0,0-1-.4c-2.87,0-5.75-.05-8.62,0A2.74,2.74,0,0,1,0,18.72C.07,14,0,9.36,0,4.68A2.54,2.54,0,0,1,2.74,1.93h.15a2.32,2.32,0,0,0,.92-.05c.28-.14.06-.55.15-.82C4,1,4,.87,4.05.78A1.61,1.61,0,0,1,6,.06,1.18,1.18,0,0,1,7,1.32c0,.57.21.63.68.62,2.22,0,4.43,0,6.65,0,.44,0,.65-.05.63-.57A1.2,1.2,0,0,1,15.87.1a1.85,1.85,0,0,1,2,.47,1.23,1.23,0,0,1,.23.88c-.06.41.12.53.5.49a5.27,5.27,0,0,1,.69,0A2.57,2.57,0,0,1,22,4.65C22,6,22,7.44,22,8.83Zm-.75,3.87c0-1.93,0-3.78,0-5.64,0-.42-.13-.5-.53-.5q-9.71,0-19.42,0c-.47,0-.56.16-.56.59,0,3.88,0,7.75,0,11.63a1.86,1.86,0,0,0,2.12,2.11q4.14,0,8.28,0c.14,0,.29.06.42-.05-1.32-3.61-.82-6.18,1.53-8.12A6.49,6.49,0,0,1,21.25,12.7ZM17.14,23.26a5.62,5.62,0,1,0-5.63-5.62A5.65,5.65,0,0,0,17.14,23.26ZM11,5.81h9c1.31,0,1.31,0,1.26-1.32a1.82,1.82,0,0,0-1.77-1.82c-.33,0-.66,0-1,0s-.41.07-.39.39,0,.78,0,1.18a1.24,1.24,0,0,1-1.31,1.29h-.45A1.25,1.25,0,0,1,15,4.22c0-.41,0-.82,0-1.23,0-.23-.07-.33-.31-.32H7.37c-.28,0-.33.13-.32.36,0,.43,0,.86,0,1.28A1.24,1.24,0,0,1,5.8,5.52a5.15,5.15,0,0,1-.68,0A1.2,1.2,0,0,1,4,4.39a7.75,7.75,0,0,1,0-1.18c0-.43-.11-.53-.54-.56C1.58,2.55.61,3.22.75,5.3c0,.4.1.52.52.52C4.5,5.8,7.73,5.81,11,5.81Zm4.75-3c0,.46,0,.92,0,1.38s.19.62.79.62.83-.12.84-.61c0-.92,0-1.84,0-2.75,0-.48-.2-.63-.79-.63s-.82.13-.84.62S15.72,2.32,15.72,2.77Zm-11,0V4.17c0,.44.26.6.67.61.7,0,.94-.09,1-.55,0-1,0-1.93,0-2.9,0-.45-.26-.56-1-.55-.4,0-.66.16-.67.6Z"/><path d="M3.64,16.46c1.55,0,1.62.07,1.62,1.64s-.1,1.6-1.57,1.6S2,19.62,2,18.05,2.1,16.46,3.64,16.46ZM2.77,18c0,.9,0,.9.9.9s.84,0,.84-.82,0-.91-.91-.91S2.77,17.21,2.77,18Z"/><path d="M8.78,16.46c1.57,0,1.64.06,1.64,1.62s-.08,1.62-1.6,1.62-1.65-.09-1.65-1.63S7.26,16.46,8.78,16.46Zm0,2.48c.92,0,.92,0,.92-.85s0-.88-.88-.88-.89,0-.89.87S7.92,18.94,8.77,18.94Z"/><path d="M5.26,13.84c0,1.52-.09,1.61-1.61,1.61S2,15.36,2,13.8s.08-1.6,1.62-1.6S5.26,12.27,5.26,13.84Zm-.75,0c0-1,.13-.85-.85-.87H3.61c-1,0-.83-.14-.84.87s0,.88.87.88S4.51,14.69,4.51,13.81Z"/><path d="M13.67,7.67c1.52,0,1.61.1,1.62,1.62s-.1,1.63-1.66,1.63S12,10.82,12,9.35v0C12,7.75,12.11,7.67,13.67,7.67Zm.86,1.6c0-.86,0-.86-.85-.86s-.91,0-.91.9,0,.85.85.85S14.53,10.16,14.53,9.27Z"/><path d="M18.42,7.67c1.52,0,1.61.09,1.61,1.61s-.09,1.64-1.65,1.64-1.6-.09-1.6-1.57v0C16.78,7.73,16.85,7.67,18.42,7.67Zm.85,1.62c0-.88,0-.89-.86-.88-1,0-.88-.14-.89.87s0,.88.88.88S19.27,10.16,19.27,9.29Z"/><path d="M5.28,9.31c0,1.54-.08,1.61-1.6,1.61S2,10.84,2,9.27s.09-1.6,1.62-1.6S5.28,7.73,5.28,9.31Zm-1.6-.9c-.88,0-.88,0-.88.87s0,.88.87.88.9,0,.89-.87S4.71,8.42,3.68,8.41Z"/><path d="M8.87,7.67c1.49,0,1.6.1,1.6,1.58s-.09,1.67-1.67,1.67-1.58-.09-1.58-1.59S7.28,7.67,8.87,7.67Zm.84,1.6c0-.86,0-.87-.84-.86C7.8,8.42,8,8.27,8,9.3c0,.86,0,.86.85.86S9.71,10.16,9.71,9.27Z"/><path d="M8.8,12.2c1.57,0,1.62.06,1.62,1.65s-.08,1.6-1.62,1.6-1.63-.09-1.63-1.66S7.25,12.2,8.8,12.2Zm.89,1.61c0-.87,0-.87-.89-.87H8.75c-.83,0-.83,0-.83.84s0,.91.89.91S9.69,14.69,9.69,13.81Z"/><path d="M14.52,14.39a.93.93,0,0,1,1-.75c1.29,0,2.57,0,3.86,0,.16,0,.5-.1.47.12s-.16.59-.53.61-.57,0-.85,0-.25,0-.18.26a.69.69,0,0,0,.89.57h.17c.19,0,.45-.13.55.11s-.43.66-.64.67h-.47a.27.27,0,0,0-.3.23A2.51,2.51,0,0,1,16.33,18l-.38.06L19,21.9H17.79c-.15,0-.22-.11-.3-.21-.88-1.1-1.75-2.21-2.64-3.3a1.06,1.06,0,0,1-.14-.77c0-.19.16-.16.28-.16a4.65,4.65,0,0,0,1.34-.12,1.49,1.49,0,0,0,1.05-.9c.11-.28.09-.45-.29-.44-.76,0-1.52,0-2.28,0-.25,0-.35,0-.19-.3a.78.78,0,0,1,.86-.49c.5,0,1,0,1.52,0,.09,0,.22,0,.26-.08s-.07-.18-.13-.25a1.66,1.66,0,0,0-1-.44C15.61,14.37,15.08,14.44,14.52,14.39Z"/></g></g></svg>