<svg xmlns="http://www.w3.org/2000/svg" viewBox="0 0 22.45 24.5"><defs><style>.cls-1{stroke:#000;stroke-miterlimit:10;stroke-width:0.5px;}</style></defs><g id="Layer_2" data-name="Layer 2"><g id="Layer_1-2" data-name="Layer 1"><path class="cls-1" d="M11.26,24.23c-2.19,0-4.38-.06-6.56,0-1.06,0-1.31-.38-1.39-1.35C3,18.09,2.52,13.29,2.16,8.48,2.1,7.72,2,7.22,1.05,7.37c-.51.08-.76-.22-.72-.74V6.51C.11,3.23.11,3.23,3.42,3.23H4.66a5,5,0,0,0,2-.1c.62-.29.17-1.12.31-1.69A1.3,1.3,0,0,1,8.27.26c2,0,4,0,6,0,1.15,0,1.46.82,1.39,1.78s.27,1.26,1.23,1.21c1.44-.08,2.89,0,4.33,0,.86,0,1.09.29,1,1.06a9.09,9.09,0,0,0,0,1.73c.08.93-.09,1.56-1.23,1.38-.57-.08-.53.35-.56.72q-.49,5.73-1,11.46c-.11,1.23-.21,2.46-.27,3.7,0,.73-.36,1-1.09,1C15.8,24.21,13.53,24.23,11.26,24.23Zm.05-16.86c-2.48,0-4.95,0-7.43,0-.88,0-1.13.24-1.06,1.12.44,4.79.85,9.6,1.23,14.4,0,.58.29.66.77.66q6.43,0,12.87,0c.49,0,.72-.11.77-.67Q19,15.65,19.68,8.45c.08-.89-.2-1.12-1.07-1.1C16.18,7.41,13.74,7.38,11.31,7.37Zm-.12-.69c3.1,0,6.2,0,9.29,0,1.14,0,1.06-.6,1-1.31s.38-1.5-.95-1.49Q11.26,4,2,3.91C.62,3.9,1.08,4.76,1,5.4S.88,6.74,2,6.71C5.08,6.63,8.14,6.68,11.19,6.68ZM11.28,1c-.91,0-1.81,0-2.71,0s-1,.58-1,1.28.19,1,1,1c1.8-.05,3.61,0,5.42,0,.7,0,1.06-.11,1-.93S14.92.9,13.87,1C13,1,12.14,1,11.28,1Z"/><path class="cls-1" d="M8,18.1c.1-.63-.15-1-.84-1.06a.83.83,0,0,1-.9-.8c-.1-.53-.24-1,.42-1.34a.76.76,0,0,0,.2-1.32.82.82,0,0,1-.11-1.19c.31-.47.55-.9,1.25-.69s1-.21,1.15-.79c.35-1.15,1.26-1.36,2.06-.46.43.49.89.65,1.36.16a.76.76,0,0,1,1.16-.12c.47.3.88.54.7,1.24a.84.84,0,0,0,.89,1.15.7.7,0,0,1,.81.71c0,.49.37,1-.37,1.35a.81.81,0,0,0-.2,1.42c.52.5.23.86,0,1.28s-.42.77-1,.53a.82.82,0,0,0-1.21.8c0,.75-.48.79-1,1s-.81,0-1.08-.45-.81-.56-1.37-.24C8.85,19.84,8,19.32,8,18.1Zm7.5-4.05c-.08-.21-.09-.39-.3-.43a1.74,1.74,0,0,1-1.52-2c0-.54-.38-.55-.77-.3a1.55,1.55,0,0,1-2.2-.34c-.46-.51-.78-.38-.92.26a1.43,1.43,0,0,1-1.71,1.22c-.68-.06-.86.23-.55.79a1.64,1.64,0,0,1-.39,2.3c-.4.33-.28.73.16.81a1.58,1.58,0,0,1,1.44,1.81c0,.62.24.83.84.46a1.47,1.47,0,0,1,2.09.33c.44.53.78.43.94-.17a1.63,1.63,0,0,1,1.89-1.36c.46,0,.71-.2.42-.69a1.61,1.61,0,0,1,.34-2.3A1.29,1.29,0,0,0,15.54,14.05Z"/><path class="cls-1" d="M9.36,14.92a1.9,1.9,0,0,1,3.79.05,2,2,0,0,1-1.93,1.87A2,2,0,0,1,9.36,14.92Zm3.11.09c-.08-.73-.44-1.2-1.17-1.23a1.09,1.09,0,0,0-1.23,1.1A1.11,1.11,0,0,0,11.2,16.1C12,16.15,12.27,15.62,12.47,15Z"/></g></g></svg>