<svg xmlns="http://www.w3.org/2000/svg" viewBox="0 0 24.71 24.5"><defs><style>.cls-1{stroke:#000;stroke-miterlimit:10;stroke-width:0.5px;}</style></defs><g id="Layer_2" data-name="Layer 2"><g id="Layer_1-2" data-name="Layer 1"><path class="cls-1" d="M19.19,21.18c-1.27-.05-1.27-.05-1.75,1.13-.1.23-.21.47-.33.7a2.06,2.06,0,0,1-3.07.88,12.45,12.45,0,0,1-1.14-.75.83.83,0,0,0-1.08,0c-.34.25-.69.49-1.06.71a2.1,2.1,0,0,1-3.24-1c-.2-.41-.36-.84-.55-1.25a.69.69,0,0,0-.71-.45c-.47,0-.94,0-1.41,0a2.1,2.1,0,0,1-2.18-2.59c.06-.44.14-.87.21-1.3a.72.72,0,0,0-.36-.81c-.39-.24-.79-.46-1.16-.72a2.1,2.1,0,0,1-.51-3.32,8.16,8.16,0,0,1,.79-.87.92.92,0,0,0,.19-1.23,9.29,9.29,0,0,1-.54-1.15A2.06,2.06,0,0,1,2.66,6.23a10.82,10.82,0,0,1,1.27-.35.84.84,0,0,0,.71-.82c0-.42.09-.85.16-1.26A2.08,2.08,0,0,1,7.54,2c.36.08.72.22,1.08.33.74.24.88.2,1.37-.39.24-.29.47-.6.73-.87A2.08,2.08,0,0,1,14,1a13.19,13.19,0,0,1,.91,1.07.77.77,0,0,0,.93.27c.49-.15,1-.32,1.48-.43a2,2,0,0,1,2.59,1.7,14.8,14.8,0,0,1,.19,1.49.77.77,0,0,0,.61.71c.39.1.79.2,1.18.32a2.12,2.12,0,0,1,1.49,3.17c-.16.38-.35.74-.53,1.11a.81.81,0,0,0,.14,1c.27.28.55.57.8.87a2.14,2.14,0,0,1-.52,3.51,10.11,10.11,0,0,1-.9.53.92.92,0,0,0-.5,1.13c.08.34.13.69.18,1a2.12,2.12,0,0,1-2.29,2.66Zm-.1-1v0c.26,0,.52,0,.77,0A1.1,1.1,0,0,0,21,18.8a10.45,10.45,0,0,0-.18-1.12,1.79,1.79,0,0,1,1-2.18c.32-.2.66-.38,1-.6a1.11,1.11,0,0,0,.27-1.85c-.28-.34-.59-.65-.89-1a1.71,1.71,0,0,1-.29-2c.19-.4.41-.79.57-1.19a1.11,1.11,0,0,0-.77-1.7c-.42-.14-.85-.23-1.27-.35a1.68,1.68,0,0,1-1.34-1.54c-.06-.48-.09-1-.19-1.44a1,1,0,0,0-1.4-.9,10.54,10.54,0,0,0-1.13.34,1.83,1.83,0,0,1-2.4-.7c-.23-.27-.43-.55-.67-.8a1.11,1.11,0,0,0-1.86,0c-.29.31-.55.65-.82,1a1.72,1.72,0,0,1-2,.6c-.43-.14-.86-.3-1.31-.4a1.08,1.08,0,0,0-1.47,1c-.08.46-.11.93-.18,1.39A1.63,1.63,0,0,1,4.38,6.79C4,6.9,3.65,7,3.29,7.08c-1.2.34-1.47.92-.94,2l.43.86a1.75,1.75,0,0,1-.31,2.17c-.27.3-.56.6-.82.91a1.11,1.11,0,0,0,.26,1.85c.31.22.64.39,1,.59a1.79,1.79,0,0,1,1,2.18c-.06.35-.13.69-.17,1-.12,1,.28,1.44,1.25,1.47.41,0,.82,0,1.23,0a1.71,1.71,0,0,1,1.78,1.14c.17.39.32.79.51,1.17a1.12,1.12,0,0,0,1.79.53c.4-.24.78-.53,1.17-.78a1.66,1.66,0,0,1,1.89,0c.4.27.79.56,1.21.81a1.09,1.09,0,0,0,1.73-.51c.21-.42.38-.86.57-1.29a1.64,1.64,0,0,1,1.6-1.06Z"/><path class="cls-1" d="M11.76,10a2.07,2.07,0,1,1-4.13,0A2.1,2.1,0,0,1,9.71,7.76,2.08,2.08,0,0,1,11.76,10Zm-1.11,0a1.48,1.48,0,0,0-.11-.62.94.94,0,0,0-.88-.67.9.9,0,0,0-.84.71,1.68,1.68,0,0,0,.08,1.32.86.86,0,0,0,.87.54.89.89,0,0,0,.77-.62A1.48,1.48,0,0,0,10.65,10Z"/><path class="cls-1" d="M17.08,14.5a2.07,2.07,0,1,1-4.13,0,2.07,2.07,0,1,1,4.13,0Zm-3,0a1.78,1.78,0,0,0,.09.53.94.94,0,0,0,.93.73.92.92,0,0,0,.83-.78,1.61,1.61,0,0,0-.12-1.27.86.86,0,0,0-1.59,0A1.62,1.62,0,0,0,14.06,14.53Z"/><path class="cls-1" d="M9,16.21a.84.84,0,0,1,.2-.45Q12,12,14.76,8.13c.22-.3.47-.47.8-.23s.21.53,0,.8c-1.88,2.57-3.77,5.14-5.64,7.71a.55.55,0,0,1-.67.26A.44.44,0,0,1,9,16.21Z"/></g></g></svg>