<svg xmlns="http://www.w3.org/2000/svg" viewBox="0 0 23.99 24"><g id="Layer_2" data-name="Layer 2"><g id="Layer_1-2" data-name="Layer 1"><path d="M19.22,3.17A1.45,1.45,0,0,1,19,4a.2.2,0,0,0,0,.3c.24.21.46.44.68.67A.2.2,0,0,0,20,5a1.49,1.49,0,0,1,2.19.61c.16.27.32.55.47.83a1.46,1.46,0,0,1-.55,2.07c-.18.11-.2.19-.14.37a8.79,8.79,0,0,1,.24.88c0,.12.06.17.19.16A1.52,1.52,0,0,1,24,11.61c0,.31,0,.62,0,.93a1.49,1.49,0,0,1-1.51,1.52c-.21,0-.28.06-.32.25a8.37,8.37,0,0,1-.23.86.18.18,0,0,0,.1.26,1.49,1.49,0,0,1,.57,2.2c-.17.29-.33.58-.51.87a1.47,1.47,0,0,1-2,.53c-.19-.11-.29-.1-.43.07a5.48,5.48,0,0,1-.59.59c-.13.11-.13.18-.05.33a1.44,1.44,0,0,1-.26,1.89,4.89,4.89,0,0,1-1.55.89,1.42,1.42,0,0,1-1.72-.69.26.26,0,0,0-.38-.14,6.38,6.38,0,0,1-.86.22c-.13,0-.17.08-.17.22A1.49,1.49,0,0,1,12.43,24h-1a1.49,1.49,0,0,1-1.5-1.5c0-.22-.07-.29-.27-.33s-.57-.14-.86-.23c-.11,0-.17,0-.24.09a1.49,1.49,0,0,1-2.23.56c-.28-.16-.56-.31-.83-.48A1.47,1.47,0,0,1,5,20.06a.26.26,0,0,0-.07-.4,6.67,6.67,0,0,1-.59-.6A.23.23,0,0,0,4,19a1.44,1.44,0,0,1-1.78-.16,4.47,4.47,0,0,1-1-1.72,1.43,1.43,0,0,1,.73-1.67A.23.23,0,0,0,2,15.12a6.84,6.84,0,0,1-.23-.89.19.19,0,0,0-.22-.17A1.49,1.49,0,0,1,0,12.42v-1A1.47,1.47,0,0,1,1.5,10c.22,0,.29-.07.33-.28a6.09,6.09,0,0,1,.22-.81.22.22,0,0,0-.12-.31,1.49,1.49,0,0,1-.59-2.09l.53-.91A1.47,1.47,0,0,1,3.92,5a.28.28,0,0,0,.44-.08,7.8,7.8,0,0,1,.58-.57c.14-.12.13-.2,0-.35A1.44,1.44,0,0,1,5.2,2.15a4.65,4.65,0,0,1,1.67-1,1.41,1.41,0,0,1,1.63.67A.32.32,0,0,0,9,2a6.53,6.53,0,0,1,.79-.21c.12,0,.18-.07.18-.21A1.48,1.48,0,0,1,11.58,0a6.07,6.07,0,0,1,1.28,0A1.45,1.45,0,0,1,14,1.51c0,.21.06.29.27.33s.57.15.86.23c.11,0,.17,0,.24-.08a1.5,1.5,0,0,1,2.26-.56c.27.16.55.31.82.48A1.46,1.46,0,0,1,19.22,3.17Zm4,8.84h0v-.54a.75.75,0,0,0-.77-.77H22a.49.49,0,0,1-.5-.41,11.17,11.17,0,0,0-.42-1.58.47.47,0,0,1,.24-.59c.14-.09.29-.16.42-.25a.73.73,0,0,0,.26-1c-.18-.34-.38-.68-.58-1a.75.75,0,0,0-1-.26L20,5.87a.48.48,0,0,1-.6-.09A13.14,13.14,0,0,0,18.23,4.6.48.48,0,0,1,18.14,4l.22-.38a.73.73,0,0,0-.25-1c-.33-.2-.66-.4-1-.58a.74.74,0,0,0-1,.26c-.08.12-.14.25-.21.37a.52.52,0,0,1-.71.26,9.33,9.33,0,0,0-1.47-.38A.5.5,0,0,1,13.3,2V1.52a.73.73,0,0,0-.76-.75c-.36,0-.73,0-1.1,0a.73.73,0,0,0-.75.73c0,.16,0,.31,0,.47a.47.47,0,0,1-.4.5,14.13,14.13,0,0,0-1.58.42.48.48,0,0,1-.6-.22l-.24-.41a.75.75,0,0,0-1-.28c-.34.19-.68.38-1,.59a.74.74,0,0,0-.26,1L5.85,4a.51.51,0,0,1-.11.66A11.15,11.15,0,0,0,4.6,5.76a.5.5,0,0,1-.64.1l-.41-.23a.75.75,0,0,0-1,.31c-.18.3-.37.61-.54.93a.72.72,0,0,0,.27,1l.38.23a.48.48,0,0,1,.25.63,10.28,10.28,0,0,0-.41,1.54.48.48,0,0,1-.53.42H1.49a.75.75,0,0,0-.74.75c0,.37,0,.74,0,1.1a.75.75,0,0,0,.76.76H2a.49.49,0,0,1,.52.42,11.47,11.47,0,0,0,.4,1.53.48.48,0,0,1-.23.64c-.15.09-.3.17-.44.27A.72.72,0,0,0,2,17.1c.19.35.38.7.6,1a.73.73,0,0,0,1,.24L4,18.14a.48.48,0,0,1,.6.09,13.48,13.48,0,0,0,1.2,1.19.47.47,0,0,1,.09.6c-.08.15-.17.28-.24.43a.73.73,0,0,0,.27,1c.32.19.64.38,1,.55a.74.74,0,0,0,1-.25c.08-.13.15-.28.23-.41a.48.48,0,0,1,.62-.23,12.07,12.07,0,0,0,1.54.41.5.5,0,0,1,.43.53c0,.15,0,.31,0,.47a.75.75,0,0,0,.75.72h1.1a.75.75,0,0,0,.76-.76v-.44a.49.49,0,0,1,.41-.52,11.93,11.93,0,0,0,1.56-.41.47.47,0,0,1,.6.22c.09.14.16.29.25.42a.75.75,0,0,0,1,.27c.34-.18.68-.38,1-.58a.75.75,0,0,0,.26-1c-.07-.14-.16-.27-.23-.41a.48.48,0,0,1,.09-.65,13.75,13.75,0,0,0,1.15-1.14.48.48,0,0,1,.65-.1l.39.22a.75.75,0,0,0,1-.27c.19-.32.38-.65.56-1a.73.73,0,0,0-.26-1l-.41-.23a.48.48,0,0,1-.22-.64,11.55,11.55,0,0,0,.39-1.51.5.5,0,0,1,.53-.44h.47a.73.73,0,0,0,.72-.74C23.24,12.38,23.24,12.2,23.24,12Z"/><path d="M19.47,11.33c.11-.13.19-.24.34-.26a.39.39,0,0,1,.35.14.35.35,0,0,1,0,.4c-.27.4-.53.81-.81,1.2a.35.35,0,0,1-.59-.05c-.23-.32-.45-.66-.67-1s-.18-.43,0-.59.3-.15.57,0a6.68,6.68,0,0,0-5.49-5.82,6.75,6.75,0,0,0-7.76,5.08,1.39,1.39,0,0,0-.7-.13,7.44,7.44,0,0,1,6.42-5.76A7.52,7.52,0,0,1,19.47,11.33Z"/><path d="M4.53,12.72c-.07,0-.08,0-.1.07a.39.39,0,0,1-.54.07.36.36,0,0,1-.06-.52c.23-.37.48-.73.72-1.09a.37.37,0,0,1,.63,0c.26.37.51.74.76,1.12a.35.35,0,0,1,0,.46.36.36,0,0,1-.45.08l-.15-.08a5.5,5.5,0,0,0,.31,1.36,6.57,6.57,0,0,0,5.52,4.5,6.68,6.68,0,0,0,7.37-4.9c.05-.18.1-.24.28-.15a1,1,0,0,0,.48.06,7.38,7.38,0,0,1-6.34,5.75,7.23,7.23,0,0,1-5.63-1.61A7.36,7.36,0,0,1,4.53,12.72Z"/><path d="M8.8,8A1.1,1.1,0,0,1,10,7.14c1.51.05,3,0,4.54,0,.19,0,.59-.12.55.14s-.18.7-.62.73-.67,0-1,0-.3,0-.21.31A.82.82,0,0,0,14.34,9a.45.45,0,0,1,.2,0c.21.05.52-.15.64.13s-.5.78-.75.78h-.55a.3.3,0,0,0-.36.26,3,3,0,0,1-2.58,2.11l-.45.07,3.6,4.51H12.65c-.17,0-.26-.14-.35-.25-1-1.3-2.07-2.61-3.11-3.9a1.2,1.2,0,0,1-.16-.9c0-.22.18-.19.33-.19a5.6,5.6,0,0,0,1.58-.13,1.77,1.77,0,0,0,1.23-1.07c.13-.33.11-.52-.34-.51-.9,0-1.79,0-2.69,0-.29,0-.41,0-.22-.35a.94.94,0,0,1,1-.59,15.27,15.27,0,0,0,1.79,0c.11,0,.26.07.31-.08s-.08-.21-.16-.3a2,2,0,0,0-1.15-.52C10.09,8,9.46,8.08,8.8,8Z"/></g></g></svg>