<svg xmlns="http://www.w3.org/2000/svg" viewBox="0 0 25.35 24.46"><defs><style>.cls-1{stroke:#000;stroke-miterlimit:10;stroke-width:0.46px;}</style></defs><g id="Layer_2" data-name="Layer 2"><g id="Layer_1-2" data-name="Layer 1"><path class="cls-1" d="M16.87,13.66a6.36,6.36,0,0,1,2.05-1.22c.21-.06.16-.22.16-.36,0-1.13,0-2.25,0-3.37,0-.66.3-.91.93-.74l1.83.48c.48.12.62.32.56.8a.31.31,0,0,0,.1.32c.14.12.27.26.4.38.48.47.47.78,0,1.23s-1,.93-1.59,1.39c-.17.15-.22.22,0,.39a9.81,9.81,0,0,1,3.82,6.46,3.7,3.7,0,0,1-2.9,4.45,12.49,12.49,0,0,1-4.6.26c-.15,0-.32,0-.29-.25s.23-.17.39-.15a12.67,12.67,0,0,0,4.12-.18,5.31,5.31,0,0,0,1-.34,3.06,3.06,0,0,0,1.88-2.71A7.68,7.68,0,0,0,23.41,16a9.13,9.13,0,0,0-2.21-2.58,2.43,2.43,0,0,0-3.07-.19,2.41,2.41,0,0,0-1.39,2.23c0,2.55-.21,5.1-.35,7.66a1,1,0,0,1-1.16,1.09H7.08A.18.18,0,0,1,6.91,24a.18.18,0,0,1,.17-.21,1.83,1.83,0,0,1,.33,0h7.71c.67,0,.85-.18.88-.85l.66-13.17c0-.61,0-.61-.59-.61a1.56,1.56,0,0,1-1.83-1.24c-.23-.59-.46-1.18-.7-1.76a.8.8,0,0,0-.89-.62H3.23c-.3,0-.37.09-.35.38.21,3.44.4,6.88.59,10.32,0,.37.24.26.43.25a3.74,3.74,0,0,1,3.63,2.16A3.79,3.79,0,0,1,7,22.88a3.85,3.85,0,1,1-4.26-6.13c.31-.11.38-.23.36-.55C2.87,13,2.7,9.72,2.51,6.48a5.24,5.24,0,0,1,0-.56c0-.24-.07-.36-.36-.37a1,1,0,0,1-1-1c0-.3,0-.6,0-.89a1,1,0,0,1,1.11-1.1.75.75,0,0,0,.79-.45c.23-.44.51-.84.77-1.26A1.2,1.2,0,0,1,4.93.23h9.82a1.23,1.23,0,0,1,1.13.64c.25.43.54.83.77,1.27a.64.64,0,0,0,.72.41A1.07,1.07,0,0,1,18.56,3.7c-.09,1.49-.17,3-.26,4.47a1,1,0,0,1-.95,1c-.13,0-.25,0-.26.18C17,10.76,16.94,12.16,16.87,13.66ZM9.87,3h-7C1.59,3,1.55,3,1.55,4.25c0,.73.19.91.92.91H12.62a1.2,1.2,0,0,1,1.32.91c.26.66.52,1.33.79,2a1,1,0,0,0,1,.72h1.3c.62,0,.81-.17.85-.8.09-1.37.16-2.74.24-4.11,0-.7-.17-.92-.86-.92ZM7.52,20.3a3.44,3.44,0,1,0-3.36,3.48A3.45,3.45,0,0,0,7.52,20.3ZM9.85,2.55H16c.11,0,.25.06.31,0s-.06-.18-.11-.26l-.7-1.14A.87.87,0,0,0,14.7.64H5a.89.89,0,0,0-.82.46c-.22.37-.45.73-.67,1.11-.06.09-.18.18-.12.29s.21,0,.31,0Zm9.88,5.77c-.27,0-.28.17-.28.38,0,.93,0,1.85,0,2.78,0,.27-.07.59.05.79s.5.12.74.22a.5.5,0,0,0,.62-.15c.44-.41.91-.79,1.36-1.2.75-.66.75-.47,0-1.23-.13-.13-.2-.14-.31,0s-.39.56-.6.84c-.09.12-.17.33-.37.2s-.06-.3,0-.44l.9-1.26c.15-.2.1-.35-.14-.41Z"/><path class="cls-1" d="M12.81,11.09a3.68,3.68,0,0,0,.08-.8c0-.15,0-.3.22-.29s.2.17.19.33c0,.49-.08,1-.11,1.47,0,.31-.15.37-.41.24l-1.33-.65c-.14-.07-.28-.16-.18-.34s.23-.09.36,0l.69.33s0-.07,0-.08c-.53-.93-1-1.88-1.61-2.79a1.07,1.07,0,0,0-1.83,0c-.22.32-.4.68-.6,1-.08.13-.17.27-.34.16s-.09-.24,0-.36c.2-.34.38-.67.58-1a1.51,1.51,0,0,1,2.61,0c.48.8.94,1.62,1.41,2.43C12.63,10.87,12.66,11,12.81,11.09Z"/><path class="cls-1" d="M6.83,11.1l-.72.35c-.12.06-.27.12-.36,0s0-.26.19-.33l1.33-.65c.25-.12.4-.07.42.23l.09,1.44c0,.16,0,.36-.19.37s-.19-.18-.21-.32,0-.51-.08-.88c-.29.51-.53.92-.77,1.32l-.46.8a1.11,1.11,0,0,0,1,1.72H8.2c.15,0,.32,0,.32.22s-.17.19-.3.19c-.44,0-.87,0-1.3,0a1.5,1.5,0,0,1-1.23-2.27c.39-.7.8-1.39,1.2-2.08Z"/><path class="cls-1" d="M10.21,15.11c.85,0,1.7,0,2.55,0a1.08,1.08,0,0,0,.92-1.56,5.29,5.29,0,0,0-.29-.52.2.2,0,1,1,.35-.21,1.75,1.75,0,0,1,.31,1.84,1.56,1.56,0,0,1-1.54.88,23.07,23.07,0,0,0-2.34.06l.68.47c.12.08.24.17.13.33s-.23.09-.35,0l-1.29-.87c-.21-.14-.2-.29,0-.43l1.29-.87c.12-.08.25-.13.35,0s0,.25-.14.33l-.67.45Z"/><path class="cls-1" d="M23.64,19.79a2.83,2.83,0,0,1-2.52,2.94c-.15,0-.32.06-.36-.14s.12-.22.25-.26l.54-.15a2.34,2.34,0,0,0,1.68-2.56,5.26,5.26,0,0,0-.26-1.3c0-.14-.11-.31.09-.37s.25.1.3.24A4.85,4.85,0,0,1,23.64,19.79Z"/><path class="cls-1" d="M5.41,20.36a1.34,1.34,0,0,1-2.67,0A1.35,1.35,0,0,1,4.09,19,1.33,1.33,0,0,1,5.41,20.36Zm-1.33.91a.93.93,0,1,0,0-1.86.93.93,0,0,0,0,1.86Z"/></g></g></svg>