<svg xmlns="http://www.w3.org/2000/svg" viewBox="0 0 24.42 25.5"><defs><style>.cls-1{fill:none;stroke:#000;stroke-linecap:round;stroke-linejoin:round;stroke-width:1.5px;}</style></defs><g id="Layer_2" data-name="Layer 2"><g id="Layer_1-2" data-name="Layer 1"><path class="cls-1" d="M9,2A1.5,1.5,0,0,1,10.48.75h3.46A1.5,1.5,0,0,1,15.42,2l.28,1.71a1.68,1.68,0,0,0,.86,1.16l.29.17a1.7,1.7,0,0,0,1.44.17l1.62-.61a1.51,1.51,0,0,1,1.83.65l1.73,3a1.51,1.51,0,0,1-.35,1.91l-1.34,1.1a1.65,1.65,0,0,0-.57,1.32v.34a1.65,1.65,0,0,0,.57,1.32l1.34,1.1a1.51,1.51,0,0,1,.35,1.91l-1.73,3a1.51,1.51,0,0,1-1.83.65l-1.62-.61a1.7,1.7,0,0,0-1.44.17l-.29.17a1.68,1.68,0,0,0-.86,1.16l-.28,1.71a1.5,1.5,0,0,1-1.48,1.25H10.48A1.5,1.5,0,0,1,9,23.5l-.29-1.71a1.64,1.64,0,0,0-.85-1.16l-.3-.17a1.68,1.68,0,0,0-1.43-.17l-1.62.61a1.51,1.51,0,0,1-1.83-.65L1,17.25a1.5,1.5,0,0,1,.35-1.91l1.34-1.1a1.65,1.65,0,0,0,.57-1.32v-.34a1.64,1.64,0,0,0-.57-1.32L1.3,10.16A1.51,1.51,0,0,1,1,8.25l1.73-3A1.51,1.51,0,0,1,4.51,4.6l1.62.61A1.68,1.68,0,0,0,7.56,5l.3-.17a1.64,1.64,0,0,0,.85-1.16L9,2Z"/><path class="cls-1" d="M15.21,12.75a3,3,0,1,1-3-3A3,3,0,0,1,15.21,12.75Z"/></g></g></svg>