<svg xmlns="http://www.w3.org/2000/svg" viewBox="0 0 31.57 24.25"><defs><style>.cls-1{stroke:#000;stroke-miterlimit:10;stroke-width:0.25px;}</style></defs><g id="Layer_2" data-name="Layer 2"><g id="Layer_1-2" data-name="Layer 1"><path class="cls-1" d="M10.8,19.1a5,5,0,1,1,10,0,5.06,5.06,0,0,1-5,5A5,5,0,0,1,10.8,19.1Zm5,3.83A3.83,3.83,0,1,0,12,19.11,3.81,3.81,0,0,0,15.79,22.93Z"/><path class="cls-1" d="M15.78.13a4.68,4.68,0,0,1,4.75,4.69A4.74,4.74,0,1,1,15.78.13ZM12.26,4.82a3.55,3.55,0,0,0,7.1.07,3.6,3.6,0,0,0-3.46-3.6A3.55,3.55,0,0,0,12.26,4.82Z"/><path class="cls-1" d="M15.85,12.14a12.11,12.11,0,0,0-3.73.53A4.75,4.75,0,0,0,8.81,17c-.05.43.07.6.52.58.17,0,.61-.21.5.26s.19.93-.54.89c-.25,0-.49,0-.74,0-1.06,0-1,.19-1-.95,0-3.64,1.93-5.9,5.52-6.55a13.57,13.57,0,0,1,6.52.26c3.61,1.1,4.52,4,4.38,6.94,0,.25-.15.3-.37.3-.45,0-.91,0-1.36,0-.28,0-.39-.08-.44-.37-.12-.73-.15-.75.61-.79.42,0,.38-.24.35-.54a4.89,4.89,0,0,0-4.46-4.66A15.86,15.86,0,0,0,15.85,12.14Z"/><path class="cls-1" d="M10.69,10.75a3.55,3.55,0,0,1-2.64.87,8.41,8.41,0,0,0-4.14.6,4.22,4.22,0,0,0-2.55,3.67c-.05.4.14.44.46.44H6.1c.21,0,.59-.14.48.31s.26.89-.49.89c-1.83,0-3.65,0-5.47,0-.39,0-.48-.16-.49-.52-.13-3.75,2-6.13,5.75-6.51A13.28,13.28,0,0,1,10.69,10.75Z"/><path class="cls-1" d="M21,10.75a7.77,7.77,0,0,1,2.08-.32,12.13,12.13,0,0,1,4.07.34,5.48,5.48,0,0,1,4.31,5.52c0,1.23,0,1.23-1.17,1.23-1.56,0-3.11,0-4.66,0-.76,0-.53-.53-.59-.89s.34-.31.55-.31c1.39,0,2.77,0,4.16,0,.42,0,.52-.11.49-.53C30,13.6,28.49,12.11,26,11.73a8.8,8.8,0,0,0-2.23-.13A3.23,3.23,0,0,1,21,10.75Z"/><path class="cls-1" d="M10.2,6.57l.05,0c.54,1.18.47,1.36-.71,1.95A4.19,4.19,0,0,1,4.72,1.82a4.25,4.25,0,0,1,5.36-.45c.51.36.78.71.35,1.3a2.34,2.34,0,0,0-.19.45c-1.8-1.6-3.41-1.74-4.7-.43a3,3,0,0,0-.12,4.1C6.64,8.17,8.27,8.09,10.2,6.57Z"/><path class="cls-1" d="M21.38,3.14A7.31,7.31,0,0,0,21,2.36c-.19-.31-.1-.51.16-.72A4,4,0,0,1,25.31.87a4,4,0,0,1,2.74,3.25,4.07,4.07,0,0,1-1.89,4.21,4.08,4.08,0,0,1-4.62-.08c-.5-.32-.77-.66-.37-1.23a2.76,2.76,0,0,0,.23-.53,3.13,3.13,0,0,0,3,1.27,2.82,2.82,0,0,0,1.88-1.1,3,3,0,0,0-.44-4.17C24.48,1.37,22.76,1.6,21.38,3.14Z"/><path class="cls-1" d="M15.23,21.27l-.12-.09c-.58-.59-1.2-1.14-1.74-1.77-.25-.31.22-.45.37-.65s.25-.38.49-.12.46.42.66.66.42.3.69,0c.54-.57,1.14-1.09,1.65-1.68.37-.42.54-.11.76.11s.51.36.12.72c-.88.82-1.71,1.69-2.56,2.54A4.15,4.15,0,0,1,15.23,21.27Z"/></g></g></svg>