<svg xmlns="http://www.w3.org/2000/svg" viewBox="0 0 19.29 24"><g id="Layer_2" data-name="Layer 2"><g id="Layer_1-2" data-name="Layer 1"><path d="M8.78,10.09H2.45c-1.2,0-1.65.47-1.66,1.67q0,4.28,0,8.55C.8,21.49,1.28,22,2.47,22c1.69,0,3.38,0,5.07,0,.31,0,.82-.16.8.39s-.5.38-.83.38c-1.76,0-3.52,0-5.27,0A2.1,2.1,0,0,1,0,20.49c0-3,0-5.91,0-8.87A2.09,2.09,0,0,1,1.54,9.38c.51-.14.56-.41.57-.82A19.61,19.61,0,0,1,2.23,5.4,6.63,6.63,0,0,1,15.37,6.52q0,.53,0,1.05c0,.91-.17,1.78,1.14,2,.66.14,1,.88,1,1.59a9,9,0,0,1,0,1.16A5.67,5.67,0,0,0,18.48,16a5.14,5.14,0,0,1-1.15,6.76,5.36,5.36,0,1,1-1.79-9.21c1.25.4,1.25.4,1.25-1,0-.28,0-.56,0-.84,0-1.22-.46-1.64-1.67-1.66H8.78ZM9.9,9.3h2c2.73,0,2.73,0,2.67-2.79A5.84,5.84,0,0,0,3.09,5.17a16.81,16.81,0,0,0-.2,3.47c0,.61.33.66.8.67s.79-.14.76-.72a16.7,16.7,0,0,1,0-2,4.26,4.26,0,0,1,4.31-4,4.2,4.2,0,0,1,4.22,4c0,.47.4,1.36-.37,1.39s-.34-.85-.38-1.31A3.55,3.55,0,0,0,9.19,3.37,3.48,3.48,0,0,0,5.4,5.87a10.74,10.74,0,0,0-.14,2.94c0,.52.39.49.74.49Zm4,4.79a4.57,4.57,0,1,0,4.58,4.53A4.58,4.58,0,0,0,13.87,14.09Z"/><path d="M16.59,17.52a14.61,14.61,0,0,1-3.17,3.25.78.78,0,0,1-.45-.21c-.54-.51-1.06-1-1.57-1.56-.2-.2-.42-.46-.13-.72s.52,0,.72.18l.08.07c1.39,1.24,1.39,1.24,2.71-.06.37-.37.74-.75,1.12-1.11.13-.12.3-.22.48-.08A1.31,1.31,0,0,1,16.59,17.52Z"/></g></g></svg>