<svg xmlns="http://www.w3.org/2000/svg" viewBox="0 0 29.69 24"><g id="Layer_2" data-name="Layer 2"><g id="Layer_1-2" data-name="Layer 1"><path d="M13.89,8.19c-4.07,0-8.14,0-12.21,0-.37,0-.45.11-.45.46q0,4.45,0,8.89A1.26,1.26,0,0,0,2.66,19h11.9a.62.62,0,0,1,.58.63.6.6,0,0,1-.57.6,2.17,2.17,0,0,1-.36,0H2.75A2.52,2.52,0,0,1,0,17.46V2.73A2.51,2.51,0,0,1,2.73,0H25.05a2.51,2.51,0,0,1,2.74,2.72c0,2.37,0,4.74,0,7.11a.86.86,0,0,1,0,.16c0,.44-.24.72-.61.73s-.62-.29-.62-.75,0-.9,0-1.35-.07-.44-.43-.44C22.05,8.2,18,8.19,13.89,8.19Zm0-3.76H26.1c.34,0,.5-.06.46-.44s0-.87,0-1.3A1.27,1.27,0,0,0,25.1,1.24H2.74c-1.06,0-1.5.44-1.5,1.52,0,.4,0,.82,0,1.22s.09.46.45.45ZM13.9,7H25.75c.81,0,.81,0,.81-.8,0-.57.06-.49-.52-.49H2.1c-.86,0-.84,0-.87.86,0,.38.12.44.46.44Z"/><path d="M15.81,17a6.94,6.94,0,1,1,6.91,7A6.95,6.95,0,0,1,15.81,17Zm7-5.68a5.7,5.7,0,1,0,5.69,5.7A5.68,5.68,0,0,0,22.76,11.36Z"/><path d="M6.63,13.88H4.54c-.46,0-.75-.26-.74-.63s.29-.6.73-.6H8.71c.46,0,.76.26.74.63s-.29.6-.73.6Z"/><path d="M12.36,12.65h1.45a.64.64,0,0,1,.7.6.62.62,0,0,1-.7.63h-3a.62.62,0,1,1,0-1.23Z"/><path d="M25.58,14.84a.74.74,0,0,1-.27.53c-.47.47-.94,1-1.43,1.42-.21.2-.23.32,0,.53.49.46,1,.94,1.43,1.42s.37.69.09,1-.62.23-1-.11-1-.94-1.42-1.43c-.2-.21-.32-.19-.5,0-.47.49-.95,1-1.43,1.43s-.69.38-1,.1-.25-.62.09-1,.93-.95,1.4-1.4c.22-.2.26-.34,0-.56-.49-.44-.94-.92-1.41-1.39s-.38-.68-.11-1,.62-.25,1,.11,1,1,1.45,1.46c.16.16.26.15.42,0,.5-.52,1-1,1.53-1.53a.6.6,0,0,1,.72-.16A.63.63,0,0,1,25.58,14.84Z"/></g></g></svg>