<svg xmlns="http://www.w3.org/2000/svg" viewBox="0 0 21.82 24"><g id="Layer_2" data-name="Layer 2"><g id="Layer_1-2" data-name="Layer 1"><path d="M8.45,21.54a10.91,10.91,0,1,1,4.92,0L10.91,24Zm-3-3.81a8.58,8.58,0,0,0,3.47,1.68l.61.14,1.36,1.36,1.36-1.36.61-.14a8.73,8.73,0,0,0,3.67-1.84,7.64,7.64,0,0,0-11.08.16ZM3.94,16.17A9.82,9.82,0,0,1,18,16a8.72,8.72,0,1,0-14.08.21Zm7-4.17a4.37,4.37,0,1,1,4.36-4.36A4.36,4.36,0,0,1,10.91,12Zm0-2.18A2.19,2.19,0,1,0,8.73,7.64,2.19,2.19,0,0,0,10.91,9.82Z"/></g></g></svg>