<svg xmlns="http://www.w3.org/2000/svg" viewBox="0 0 22.71 24"><g id="Layer_2" data-name="Layer 2"><g id="Layer_1-2" data-name="Layer 1"><path d="M11.37,21.84H5.08c-.8,0-1.61,0-2.41,0A2.74,2.74,0,0,1,0,19.28c0-.11,0-.22,0-.32V2.82A2.77,2.77,0,0,1,1.85.15,2.8,2.8,0,0,1,2.76,0h13.1a2.74,2.74,0,0,1,2.79,2.8c0,2.75,0,5.51,0,8.26,0,.2,0,.4,0,.59s0,.08-.08.06a6.36,6.36,0,0,0-1.36-.24c-.09,0-.07-.06-.07-.11V2.77a1.25,1.25,0,0,0-1.28-1.26c-2.29,0-4.58,0-6.87,0H2.8A1.24,1.24,0,0,0,1.51,2.8V19.07a1.25,1.25,0,0,0,1.25,1.26c.3,0,.6,0,.9,0H10.5a.09.09,0,0,1,.1.06,6.85,6.85,0,0,0,.76,1.41Z"/><path d="M16.74,12a6,6,0,1,1-6,6A6,6,0,0,1,16.74,12Zm0,.75A5.24,5.24,0,1,0,22,18,5.26,5.26,0,0,0,16.72,12.78Z"/><path d="M9.32,10.17h4.74a.75.75,0,1,1,0,1.5H4.62a.75.75,0,0,1-.76-.49.75.75,0,0,1,.71-1Z"/><path d="M9.32,5.27h4.75a.75.75,0,1,1,0,1.5H4.6a.75.75,0,0,1-.17-1.49,1.93,1.93,0,0,1,.34,0H9.32Z"/><path d="M7.64,15.07h3.09c.12,0,.12,0,.07.12a6.18,6.18,0,0,0-.46,1.31c0,.06,0,.08-.1.08H4.61a.76.76,0,0,1-.79-.66.74.74,0,0,1,.72-.84h3.1Z"/><path d="M13.88,17a.73.73,0,0,1,.58.25l1.64,1.77c.07.07.09.06.14,0L19,15.29a.75.75,0,1,1,1.22.88c-1.09,1.52-2.19,3-3.28,4.54a.76.76,0,0,1-1.22.08l-2.33-2.5A.75.75,0,0,1,13.72,17Z"/></g></g></svg>