<svg xmlns="http://www.w3.org/2000/svg" viewBox="0 0 26.46 24"><g id="Layer_2" data-name="Layer 2"><g id="Layer_1-2" data-name="Layer 1"><path d="M19.51,15.31l2.6,2.61,2.61-2.61,1.74,1.74-2.61,2.61,2.61,2.6L24.72,24l-2.61-2.61L19.51,24l-1.74-1.74,2.61-2.6-2.61-2.61ZM23.35,0a1.22,1.22,0,0,1,1.22,1.22V12.29H22.11V2.46H2.46v17.2L14.74,7.37l3.69,3.69v3.47l-3.69-3.68L5.93,19.66h8.81v2.45H1.22A1.22,1.22,0,0,1,0,20.89V1.22A1.23,1.23,0,0,1,1.22,0Zm-16,4.91A2.46,2.46,0,1,1,4.91,7.37,2.46,2.46,0,0,1,7.37,4.91Z"/></g></g></svg>