<svg xmlns="http://www.w3.org/2000/svg" viewBox="0 0 26 26"><defs><style>.cls-1{fill:none;stroke:#000;stroke-miterlimit:10;stroke-width:2px;}</style></defs><g id="Layer_2" data-name="Layer 2"><g id="Layer_1-2" data-name="Layer 1"><path d="M17.05,18H7.18a.73.73,0,1,1,0-1.46H17l.1,0-.92-.89-1.43-1.43a.73.73,0,1,1,1-1l3.59,3.59a.73.73,0,0,1,0,1.1l-3.59,3.58a.73.73,0,1,1-1-1l2.3-2.3Z"/><path d="M8.93,9.52l1.28,1.28,1,1a.74.74,0,1,1-1,1L6.71,9.36a.77.77,0,0,1,0-1.28l3.46-3.46A.78.78,0,0,1,11,4.38a.7.7,0,0,1,.49.58.77.77,0,0,1-.26.69c-.7.69-1.4,1.4-2.1,2.1A.45.45,0,0,0,8.94,8h9.9a.72.72,0,0,1,.78.73.73.73,0,0,1-.79.73H9Z"/><circle class="cls-1" cx="13" cy="13" r="12"/></g></g></svg>