<svg xmlns="http://www.w3.org/2000/svg" viewBox="0 0 26.67 24"><g id="Layer_2" data-name="Layer 2"><g id="Layer_1-2" data-name="Layer 1"><path d="M3.43,16.24v4.4c0,.6.14.73.74.74.26,0,.52,0,.78,0a.41.41,0,0,1,.42.43.4.4,0,0,1-.41.43,9.84,9.84,0,0,1-1.33,0,1.35,1.35,0,0,1-1.12-1.4c0-1,0-2,0-3,0-1.71,0-3.43,0-5.15,0-.32,0-.45-.41-.29a1.49,1.49,0,0,1-1.91-.71,1.53,1.53,0,0,1,.45-2L11.16,1.29,12.23.43a1.61,1.61,0,0,1,2.16,0C16.71,2.23,19,4.08,21.31,5.91L26,9.62a1.56,1.56,0,0,1,.52,2.05,1.51,1.51,0,0,1-2,.65c-.4-.16-.31.11-.32.3v7.89a4.21,4.21,0,0,1,0,.5,1.35,1.35,0,0,1-1.23,1.24c-.38,0-.75,0-1.12,0s-.5-.14-.49-.45.22-.42.5-.43h.75c.53,0,.72-.19.72-.74v-8.8A.7.7,0,0,0,23,11.2q-4.66-3.7-9.31-7.44a.44.44,0,0,0-.65,0Q8.4,7.46,3.77,11.13a.83.83,0,0,0-.34.75C3.44,13.33,3.43,14.79,3.43,16.24ZM25.76,11a.73.73,0,0,0-.34-.61L14,1.21c-.51-.41-.72-.4-1.25,0l-.36.28-6,4.76C4.67,7.61,3,9,1.26,10.35c-.42.33-.47.68-.19,1a.67.67,0,0,0,1,0L9,5.8c1.27-1,2.56-2,3.82-3.06a.66.66,0,0,1,1,0,2,2,0,0,0,.23.18l9.28,7.41c.45.36.9.73,1.36,1.08a.59.59,0,0,0,.7.08A.64.64,0,0,0,25.76,11Z"/><path d="M13.47,24a19.68,19.68,0,0,1-4.33-.41,4.11,4.11,0,0,1-3.27-4.52,9.87,9.87,0,0,1,2.55-5.53,26.2,26.2,0,0,1,1.9-1.9.55.55,0,0,0,.17-.66c-.2-.59-.37-1.19-.56-1.78a.79.79,0,0,1,.5-1.13,4.38,4.38,0,0,1,1.62-.36,13.16,13.16,0,0,1,3.43.13l.33.07c1,.26,1.22.59.9,1.6-.16.48-.29,1-.46,1.46a.59.59,0,0,0,.17.7A21.29,21.29,0,0,1,19,14.51a8.72,8.72,0,0,1,1.78,5.12,4,4,0,0,1-3.1,4A16.77,16.77,0,0,1,13.47,24Zm0-.93a15.52,15.52,0,0,0,4.05-.36,3,3,0,0,0,2.39-3.05,7.33,7.33,0,0,0-1-3.71,16.94,16.94,0,0,0-3.23-3.78.36.36,0,0,0-.38-.09,7.68,7.68,0,0,1-3.69,0,.58.58,0,0,0-.6.16c-.6.58-1.21,1.14-1.76,1.77A9,9,0,0,0,6.8,18.92a3.18,3.18,0,0,0,2.66,3.81A16.91,16.91,0,0,0,13.45,23.07Zm-.27-11.66c1.88,0,2.05-.1,2.41-1.33a.24.24,0,0,1,0-.08c.08-.21,0-.3-.22-.26a13,13,0,0,1-4,0c-.27,0-.29.06-.22.27s.17.53.24.79a.51.51,0,0,0,.45.42A7.94,7.94,0,0,0,13.18,11.41Zm2.23-2.62a8.75,8.75,0,0,0-4,0A9.88,9.88,0,0,0,15.41,8.79Z"/><path d="M10,15.78c.13.75.26,1.48.39,2.2,0,.07,0,.1.11.07l2-.84,0,0-.3-.17c-.26-.15-.29-.31-.14-.57a2.28,2.28,0,0,1,2.05-1.18,2.22,2.22,0,0,1,1.77.81c.16.19.17.39,0,.52a.35.35,0,0,1-.5-.09,1.7,1.7,0,0,0-2.53-.06c-.09.1-.09.15,0,.21l.53.29a.33.33,0,0,1,.19.31.32.32,0,0,1-.23.3l-3.13,1.28a.33.33,0,0,1-.49-.29c-.2-1.1-.39-2.2-.59-3.3a.33.33,0,0,1,.12-.35.3.3,0,0,1,.36,0c.19.09.38.2.56.3s.14.05.21,0a4,4,0,0,1,6.9.48.38.38,0,0,1,0,.42.3.3,0,0,1-.31.12.33.33,0,0,1-.26-.21,3.23,3.23,0,0,0-2.17-1.77,3.44,3.44,0,0,0-3.78,1.57.39.39,0,0,1-.61.17A.7.7,0,0,0,10,15.78Z"/><path d="M16.67,19.41c-.07-.38-.13-.75-.2-1.12s-.13-.71-.19-1.06c0-.08,0-.11-.12-.08L14.1,18a.8.8,0,0,0,.29.19c.28.16.32.31.15.59a2.26,2.26,0,0,1-1.61,1.14,2.3,2.3,0,0,1-2.21-.79.33.33,0,0,1,0-.5.34.34,0,0,1,.5.08,1.68,1.68,0,0,0,2.44.14l.1-.09c.08-.08.09-.13,0-.18s-.36-.2-.54-.3a.34.34,0,0,1-.21-.33.34.34,0,0,1,.24-.3l3.14-1.27a.32.32,0,0,1,.47.26l.6,3.36a.33.33,0,0,1-.13.33.32.32,0,0,1-.35,0c-.19-.1-.38-.2-.56-.31s-.15-.05-.22,0a4,4,0,0,1-2.72,1.66,4,4,0,0,1-4.18-2.17c-.11-.22-.06-.41.12-.49s.35,0,.46.2a3.17,3.17,0,0,0,2.88,1.84,3.3,3.3,0,0,0,3.07-1.66c.17-.27.32-.32.6-.17A.69.69,0,0,0,16.67,19.41Z"/></g></g></svg>