<svg xmlns="http://www.w3.org/2000/svg" viewBox="0 0 24.06 24"><g id="Layer_2" data-name="Layer 2"><g id="Layer_1-2" data-name="Layer 1"><path d="M4.21,5.39A5.07,5.07,0,0,1,7.66,4.14c1-.09,1.34-.5,1.26-1.46-.06-.79,0-1.59,0-2.68,1.78,1.44,3.33,2.67,4.86,3.92,3.26,2.67,6.5,5.38,9.78,8,.73.58.64.84,0,1.35C19,16.72,14.53,20.17,10,23.62c-.23.17-.45.5-.76.34s-.15-.54-.15-.82c-.05-1.93-.06-1.89-2-2.27-2.37-.46-4.41-1.45-5.58-3.73l0,0a12.4,12.4,0,0,0,3.92,3,8.35,8.35,0,0,0,8.92-1.87,8.1,8.1,0,0,0,1.81-8.71A8.36,8.36,0,0,0,8.79,4.38a13.34,13.34,0,0,0-4.61,1Z"/><path d="M1.54,17.14c-2-1.91-1.94-7.07-.45-8.41l0,0a11.4,11.4,0,0,0-.72,5.05,22.12,22.12,0,0,0,1.17,3.41Z"/><path d="M1.09,8.73A5.38,5.38,0,0,1,4.21,5.39l0,0A19.75,19.75,0,0,0,1.06,8.7Z"/><path d="M8.92,14.12h4.84a5.62,5.62,0,0,1,.58,0,.5.5,0,0,1,.49.49.47.47,0,0,1-.44.47,4.46,4.46,0,0,1-.63.05H3.94c-.42,0-1,.12-1-.52s.63-.49,1.05-.49C5.6,14.11,7.26,14.12,8.92,14.12Z"/><path d="M7.65,12h4c.34,0,.75,0,.75.46S12,13,11.68,13h-8c-.34,0-.75,0-.75-.47s.38-.48.74-.48Z"/><path d="M6.94,10.84H3.56c-.34,0-.67-.06-.67-.49s.32-.46.64-.46h6.81c.32,0,.64.09.64.47s-.32.48-.67.48Z"/><path d="M13.81,13h-.38c-.31,0-.57-.12-.57-.47s.25-.47.56-.47h.83c.31,0,.58.1.57.46s-.26.46-.56.48Z"/></g></g></svg>