<svg xmlns="http://www.w3.org/2000/svg" viewBox="0 0 25.79 24.25"><defs><style>.cls-1{stroke:#000;stroke-miterlimit:10;stroke-width:0.25px;}</style></defs><g id="Layer_2" data-name="Layer 2"><g id="Layer_1-2" data-name="Layer 1"><path class="cls-1" d="M12.88,24.12H4A3.65,3.65,0,0,1,.13,20.34q0-6.1,0-12.19A3.65,3.65,0,0,1,3.82,4.46c1.11,0,2.23,0,3.34,0,.32,0,.4-.1.41-.39,0-.81.1-1.62.15-2.43A1.46,1.46,0,0,1,9.34.13c2.38,0,4.77,0,7.15,0a1.45,1.45,0,0,1,1.58,1.48c.06.83.12,1.66.16,2.49,0,.27.08.36.37.36,1.07,0,2.15,0,3.23,0a3.69,3.69,0,0,1,3.84,3.84v12a3.69,3.69,0,0,1-2.46,3.62,3.88,3.88,0,0,1-1.35.2Zm0-.86h8.91a2.81,2.81,0,0,0,3-3v-12a2.82,2.82,0,0,0-3-3H18c-.45,0-.58-.13-.61-.58L17.2,1.66A.63.63,0,0,0,16.5,1H9.29a.62.62,0,0,0-.7.67c-.07,1-.14,2-.2,3.05,0,.5-.16.62-.65.62H3.94A2.82,2.82,0,0,0,1,8.27V20.2A2.83,2.83,0,0,0,4,23.25Z"/><path class="cls-1" d="M6.89,18.32A.66.66,0,0,1,7,17.9c.07-.09.15-.18.22-.28.53-.71.52-.7.15-1.5a.31.31,0,0,0-.3-.19l-1-.15a.41.41,0,0,1-.39-.45V13.14a.43.43,0,0,1,.43-.46,1.67,1.67,0,0,1,.31,0,1,1,0,0,0,1.17-.87c0-.19.08-.31-.05-.47s-.37-.49-.55-.73a.47.47,0,0,1,.06-.69L8.51,8.43a.5.5,0,0,1,.75-.06c.23.18.47.35.7.54A.46.46,0,0,0,10.4,9c.68-.15.88-.58.9-1.23s.14-.69.79-.69h1.8c.33,0,.54.12.57.47,0,.1,0,.19,0,.28a1,1,0,0,0,.83,1.16c.21.05.36.09.54-.06s.45-.34.67-.51a.48.48,0,0,1,.72,0l1.47,1.46a.48.48,0,0,1,0,.7c-.19.25-.37.51-.57.76s-.08.22,0,.38a1.13,1.13,0,0,0,1.23.94c.67,0,.71.13.71.82v1.68c0,.49-.1.59-.58.67h-.14c-.9.12-.9.12-1.24,1a.27.27,0,0,0,.05.31l.57.76a.47.47,0,0,1,0,.69c-.49.51-1,1-1.48,1.51a.47.47,0,0,1-.67.05,2.35,2.35,0,0,1-.25-.19,1,1,0,0,0-1.47-.22.47.47,0,0,0-.28.39c0,.3-.09.6-.13.9a.43.43,0,0,1-.48.41H11.82a.42.42,0,0,1-.48-.4c0-.22-.07-.44-.11-.66s0-.43-.12-.53a6,6,0,0,0-.9-.39c-.09,0-.15,0-.22.1-.25.19-.5.39-.76.57a.48.48,0,0,1-.69,0L7.07,18.6A.63.63,0,0,1,6.89,18.32ZM8.68,17a1.6,1.6,0,0,1-.44.73c-.34.48-.35.48.06.88.63.64.63.64,1.36.11l.17-.13a.48.48,0,0,1,.58,0,3.58,3.58,0,0,0,1.07.45.62.62,0,0,1,.54.59c0,.32,0,.75.2.93s.63,0,1,.06.53-.05.52-.44a5,5,0,0,1,.1-.66.47.47,0,0,1,.38-.44,4.81,4.81,0,0,0,1.2-.49.48.48,0,0,1,.59,0l.7.53c.09.06.17.14.28,0,.29-.31.74-.56.86-.95s-.34-.52-.52-.79a.47.47,0,0,0-.06-.09.47.47,0,0,1,0-.58,4.69,4.69,0,0,0,.5-1.2.47.47,0,0,1,.44-.38L19,15c.18,0,.26-.09.26-.29a7.53,7.53,0,0,1,0-1c0-.22-.07-.32-.29-.34s-.53-.07-.8-.11a.49.49,0,0,1-.46-.41,3.27,3.27,0,0,0-.43-1,.64.64,0,0,1,0-.83c.19-.25.53-.48.51-.77s-.39-.47-.62-.69c-.4-.39-.28-.45-.74-.06s-1,.63-1.54.17a.18.18,0,0,0-.1,0c-.89-.1-1.15-.69-1.14-1.49,0-.2-.09-.29-.31-.28s-.63,0-.95,0-.29.06-.31.27S12,8.72,12,9a.48.48,0,0,1-.39.44,4.37,4.37,0,0,0-1.16.48.53.53,0,0,1-.65-.05l-.68-.51c-.08-.07-.17-.13-.27,0-.3.31-.72.57-.87.94s.35.53.53.82l.05.05a.5.5,0,0,1,0,.62,4.44,4.44,0,0,0-.48,1.17.48.48,0,0,1-.43.39l-.84.12c-.21,0-.28.11-.27.31s0,.66,0,1c0,.18.06.25.24.26s.58.09.87.13a.46.46,0,0,1,.42.36,5.15,5.15,0,0,0,.51,1.24A1.35,1.35,0,0,1,8.68,17Z"/><path d="M12.9,5.33H9.76c-.54,0-.67-.13-.65-.66l.12-1.83a.61.61,0,0,1,.68-.64c2,0,4,0,6,0a.61.61,0,0,1,.67.64q.07.92.12,1.83c0,.52-.11.66-.62.66Zm0-.88h1.83c.33,0,.75.14,1,0s0-.65,0-1-.12-.36-.39-.35c-1.41,0-2.81,0-4.22,0-.33,0-.77-.15-1,.07s-.08.67-.13,1,.06.3.29.3Z"/><path class="cls-1" d="M12.9,16.61a2.39,2.39,0,1,1,2.38-2.37A2.38,2.38,0,0,1,12.9,16.61Zm0-.87a1.51,1.51,0,1,0-1.52-1.51A1.52,1.52,0,0,0,12.9,15.74Z"/></g></g></svg>