<svg xmlns="http://www.w3.org/2000/svg" viewBox="0 0 23.7 24"><g id="Layer_2" data-name="Layer 2"><g id="Layer_1-2" data-name="Layer 1"><path d="M11.83,17.29H4.93c-.6,0-.83-.21-.88-.81,0-.13,0-.27,0-.4V7.53a.76.76,0,0,1,.86-.82H18.81c.56,0,.8.23.84.8s0,1,0,1.45v7c0,.21,0,.42,0,.62a.68.68,0,0,1-.72.68H11.83Zm0-1c2.15,0,4.31,0,6.47,0,.23,0,.31-.06.31-.31q0-1.89,0-3.78c0-.25-.07-.31-.31-.31H5.41c-.24,0-.32.06-.32.31,0,1.25,0,2.5,0,3.76,0,.33,0,.33.33.33Zm0-6.28h6.52c.19,0,.27-.06.27-.26,0-.57,0-1.15,0-1.73,0-.19-.07-.24-.25-.24h-13c-.2,0-.26.07-.26.26,0,.54,0,1.07,0,1.61,0,.35,0,.35.36.35Z"/><path d="M4.68,24H.9a.81.81,0,0,1-.9-.88V15.47a.79.79,0,0,1,1.16-.77.84.84,0,0,1,.42.8c0,1.62,0,3.24,0,4.86,0,.59,0,1.17,0,1.76,0,.24.08.31.32.31H8.6a.81.81,0,0,1,.8.77.8.8,0,0,1-.81.79H4.68Z"/><path d="M23.7,19.3v3.76a.82.82,0,0,1-.93.94H15.22a.83.83,0,0,1-.92-.78c0-.47.38-.79.94-.79h6.52c.37,0,.37,0,.37-.37V15.51a.83.83,0,0,1,.52-.86.78.78,0,0,1,1.05.79c0,1.12,0,2.25,0,3.38v.48Z"/><path d="M23.7,4.7V8.59a.79.79,0,0,1-.58.78A.8.8,0,0,1,22.26,9a1.06,1.06,0,0,1-.13-.58V2c0-.4,0-.4-.4-.4H15.29c-.6,0-1-.31-1-.79s.39-.78,1-.78h7.42c.7,0,1,.29,1,1Z"/><path d="M0,4.7V.91A.82.82,0,0,1,.9,0H8.52a.81.81,0,0,1,.84.55.78.78,0,0,1-.29.87,1,1,0,0,1-.62.15H1.93c-.35,0-.35,0-.35.35q0,3.21,0,6.44a1.82,1.82,0,0,1,0,.33.8.8,0,0,1-.83.71A.81.81,0,0,1,0,8.61V4.7Z"/></g></g></svg>