<svg xmlns="http://www.w3.org/2000/svg" viewBox="0 0 21.83 24"><defs><style>.cls-1{fill:#fff;}</style></defs><g id="Layer_2" data-name="Layer 2"><g id="Layer_1-2" data-name="Layer 1"><path class="cls-1" d="M10.94,24c-2.33,0-4.66,0-7,0C1.17,23.92.05,22.81,0,20.05c0-3.52,0-7,0-10.56A2.6,2.6,0,0,1,1.11,7.21C4,5.05,6.79,2.85,9.57.6a1.82,1.82,0,0,1,2.67,0c2.83,2.29,5.7,4.52,8.59,6.73a2.42,2.42,0,0,1,1,2.15c0,3.58,0,7.16,0,10.74,0,2.56-1.14,3.7-3.71,3.77C15.71,24,13.32,24,10.94,24Zm9.21-8.91c0-1.55,0-3.1,0-4.65a2.51,2.51,0,0,0-1-2.32C16.7,6.28,14.3,4.41,11.92,2.52a1.39,1.39,0,0,0-2,0c-2.38,1.9-4.8,3.74-7.2,5.61-.43.32-.94.63-.94,1.23,0,3.82-.19,7.65.06,11.45.14,2.05,2.13,1.39,3.47,1.47s1.31-.85,1.31-1.8c0-2.56,0-5.13,0-7.69,0-1.16.47-1.64,1.59-1.63,1.85,0,3.7,0,5.54,0,1.14,0,1.59.52,1.57,1.65,0,2.45.05,4.9,0,7.34-.05,1.41.16,2.24,1.89,2.19,2.37-.08,3-.39,3-2.27C20.18,18.41,20.14,16.74,20.15,15.07Zm-6.78,2.59v-2c0-3.16,0-3.16-3.13-3l-.71,0a1,1,0,0,0-1.06,1.15c0,2.43-.15,4.88.06,7.29.17,2,1.93,1,3,1.14,1.3.23,2-.33,1.87-1.79C13.3,19.56,13.37,18.61,13.37,17.66Z"/></g></g></svg>