<svg xmlns="http://www.w3.org/2000/svg" viewBox="0 0 29.06 24"><g id="Layer_2" data-name="Layer 2"><g id="Layer_1-2" data-name="Layer 1"><path d="M15.17,8.1H2.72c-.42,0-.42,0-.43.44s0,.91,0,1.36a.47.47,0,0,1-.51.52c-.3,0-.48-.19-.48-.54,0-2.5,0-5,0-7.49A2.46,2.46,0,0,1,3.77,0H26.23a2.82,2.82,0,0,1,1.84.51,2.37,2.37,0,0,1,1,1.93q0,6.53,0,13a2.45,2.45,0,0,1-2.5,2.4c-3.43,0-6.87,0-10.3,0-.4,0-.63-.2-.63-.52s.22-.5.64-.5H26.42a1.51,1.51,0,0,0,1.64-1.65V8.56c0-.46,0-.46-.44-.46H15.17Zm0-4H2.69c-.32,0-.41.09-.4.41,0,.72,0,1.45,0,2.18,0,.31.07.42.4.42H20.3c2.45,0,4.9,0,7.35,0,.33,0,.43-.09.42-.43,0-.72,0-1.44,0-2.15,0-.32-.06-.43-.41-.43Zm0-1H27.85c.16,0,.2-.07.22-.22A1.57,1.57,0,0,0,26.39,1H4A1.52,1.52,0,0,0,2.29,2.65c0,.43,0,.43.43.43Z"/><path d="M14.41,16.78A7.21,7.21,0,1,1,7.06,9.59,7.16,7.16,0,0,1,14.41,16.78ZM7.22,10.6a6.2,6.2,0,1,0,6.2,6.24A6.17,6.17,0,0,0,7.22,10.6Z"/><path d="M20.8,11.48H16.2c-.35,0-.56-.17-.58-.45s.18-.54.56-.54h9.23c.48,0,.7.25.59.64s-.29.35-.56.35Z"/><path d="M18.68,13.15h2.38c.38,0,.61.19.62.49s-.2.51-.59.52H16.2c-.39,0-.59-.21-.58-.52s.22-.48.62-.49Z"/><path d="M6.58,20.43a1.7,1.7,0,0,1-1.29-.53c-.66-.65-1.32-1.3-2-2a1.72,1.72,0,0,1,2.39-2.47c.23.21.44.43.65.65s.21.13.34,0c.65-.66,1.31-1.32,2-2a1.76,1.76,0,0,1,1.9-.36,1.74,1.74,0,0,1,1,1.67,1.79,1.79,0,0,1-.55,1.2L7.9,19.8A1.7,1.7,0,0,1,6.58,20.43Zm4-5a.67.67,0,0,0-.43-.68.68.68,0,0,0-.79.17c-.79.8-1.59,1.59-2.39,2.38-.33.33-.56.32-.9,0l-1-1a.69.69,0,0,0-1-.05.7.7,0,0,0,0,1.05c.62.62,1.23,1.24,1.85,1.85a.73.73,0,0,0,1.2,0l3.19-3.18A.7.7,0,0,0,10.59,15.39Z"/></g></g></svg>