<svg xmlns="http://www.w3.org/2000/svg" viewBox="0 0 24.4 24.5"><defs><style>.cls-1{stroke:#000;stroke-miterlimit:10;stroke-width:0.5px;}</style></defs><g id="Layer_2" data-name="Layer 2"><g id="Layer_1-2" data-name="Layer 1"><path class="cls-1" d="M24.15,14.27a1,1,0,0,1-.74.19A2.33,2.33,0,0,0,21,15.63a.39.39,0,0,1-.59.16.42.42,0,0,1-.12-.64,3,3,0,0,1,2.53-1.53c.38,0,.48-.14.46-.52,0-.64,0-1.29,0-1.93,0-.24-.07-.31-.31-.32a3,3,0,0,1-2.84-1.92,2.94,2.94,0,0,1,.67-3.4c.19-.2.1-.29,0-.43-.46-.45-.93-.9-1.37-1.37-.24-.27-.38-.3-.67,0a3.11,3.11,0,0,1-5-1.15,2.73,2.73,0,0,1-.22-1.12c0-.27-.1-.34-.36-.34-.67,0-1.35,0-2,0-.24,0-.34.06-.35.33A3,3,0,0,1,8.89,4.24,2.92,2.92,0,0,1,5.5,3.58c-.17-.17-.26-.13-.4,0-.51.52-1,1-1.54,1.53-.15.15-.16.24,0,.4a3,3,0,0,1,.66,3.4,2.94,2.94,0,0,1-2.83,1.92c-.24,0-.32.07-.31.31,0,.68,0,1.36,0,2,0,.33.1.42.42.42a3,3,0,0,1,2.34,1.18,1.36,1.36,0,0,1,.3.52.39.39,0,0,1-.22.5.38.38,0,0,1-.52-.14A2.43,2.43,0,0,0,.85,14.46a.92.92,0,0,1-.6-.19V10.21C.57,9.85,1,10,1.38,10A2.14,2.14,0,0,0,3.44,8.58a2.1,2.1,0,0,0-.5-2.45L2.52,5.7a.45.45,0,0,1,0-.72L5,2.54a.46.46,0,0,1,.72,0c.19.19.37.38.56.55a2.24,2.24,0,0,0,3.63-1A3.41,3.41,0,0,0,10,.9a.82.82,0,0,1,.26-.65h4c.39.32.25.76.26,1.16a2.23,2.23,0,0,0,3.12,2.06,2.68,2.68,0,0,0,.91-.69c.55-.57.66-.56,1.22,0l2,2c.51.52.51.61,0,1.12-.11.12-.24.23-.35.36a2.28,2.28,0,0,0,1,3.66,4,4,0,0,0,1.14.08.77.77,0,0,1,.63.22Z"/><path class="cls-1" d="M12.69,9.61a6.81,6.81,0,0,1,5.91,3.88,7,7,0,0,1-.28,7.44l-.24.34c-.18.25-.39.43-.69.21s-.2-.47,0-.72a6,6,0,0,0,1-2,6.56,6.56,0,0,0-4.77-8.19A6.54,6.54,0,0,0,5.8,16a6.36,6.36,0,0,0,3,6.45A6.31,6.31,0,0,0,16,22.15c.18-.14.36-.31.62-.17s.31.53-.05.81a7,7,0,0,1-3.65,1.43,7.44,7.44,0,0,1-7.92-6C4.16,13.79,7.66,9.61,12.69,9.61Z"/><path class="cls-1" d="M18.36,10.47a.43.43,0,0,1-.29.47.38.38,0,0,1-.5-.21c-.06-.14-.11-.29-.16-.43A5.56,5.56,0,0,0,7,10.27c0,.15-.09.29-.15.43a.39.39,0,0,1-.49.25A.41.41,0,0,1,6,10.46a2.47,2.47,0,0,1,.11-.36,6.4,6.4,0,0,1,12.1,0C18.3,10.25,18.33,10.38,18.36,10.47Z"/><path d="M13.73,16.92a5.18,5.18,0,0,1-.05,1,1.45,1.45,0,0,1-1.5,1.16A1.42,1.42,0,0,1,10.72,18a6.53,6.53,0,0,1,0-2.07,1.52,1.52,0,0,1,3,0A5.93,5.93,0,0,1,13.73,16.92Zm-.76,0h0c0-.24,0-.48,0-.72a.75.75,0,0,0-.77-.75.74.74,0,0,0-.77.74c0,.49,0,1,0,1.48a.75.75,0,0,0,.78.73.76.76,0,0,0,.76-.73C13,17.42,13,17.17,13,16.92Z"/><path d="M9.09,14.71H9.8a.37.37,0,1,1,0,.73H8.57c-.44,0-.67.21-.66.57s.22.53.64.54a2.66,2.66,0,0,1,.75.07A1.29,1.29,0,0,1,10.19,18,1.21,1.21,0,0,1,9.1,19.11c-.52.05-1,0-1.56,0a.34.34,0,0,1-.38-.37.36.36,0,0,1,.39-.37H8.79c.43,0,.64-.18.66-.52s-.22-.57-.65-.59H8.36A1.27,1.27,0,0,1,7.15,16a1.29,1.29,0,0,1,1.22-1.29c.24,0,.48,0,.72,0Z"/><path d="M14.19,16.9c0-.56,0-1.12,0-1.68,0-.37.15-.53.53-.52s.85,0,1.27,0a1.29,1.29,0,0,1,0,2.58h-.15c-.9,0-.9,0-.9.92v.52a.36.36,0,0,1-.36.4c-.26,0-.38-.15-.38-.4,0-.61,0-1.22,0-1.83Zm1.34-.35h0a3.85,3.85,0,0,0,.48,0,.51.51,0,0,0,.48-.57.47.47,0,0,0-.35-.48,1.75,1.75,0,0,0-1.13,0c-.19.08,0,.46-.07.71s.07.39.35.35A1,1,0,0,1,15.53,16.55Z"/></g></g></svg>