<svg xmlns="http://www.w3.org/2000/svg" viewBox="0 0 21.12 24.5"><defs><style>.cls-1{stroke:#000;stroke-miterlimit:10;stroke-width:0.5px;}</style></defs><g id="Layer_2" data-name="Layer 2"><g id="Layer_1-2" data-name="Layer 1"><path class="cls-1" d="M10.54,24.25h-5A2.19,2.19,0,0,1,3.16,22c-.36-4.91-.74-9.82-1.1-14.74a.75.75,0,0,0-.52-.72A2,2,0,0,1,.27,4.45,2,2,0,0,1,2.08,2.72a29.31,29.31,0,0,1,3.75-.05c.47,0,.74-.1.9-.62A2.46,2.46,0,0,1,9.18.26c.91,0,1.81,0,2.71,0A2.48,2.48,0,0,1,14.4,2.08a.72.72,0,0,0,.85.58c1,0,2,0,3,0a6.12,6.12,0,0,1,1,.09,2,2,0,0,1,1.65,1.73,1.93,1.93,0,0,1-1.18,2,.92.92,0,0,0-.62.94c-.29,4-.61,7.93-.92,11.9-.07.88-.12,1.75-.18,2.63a2.18,2.18,0,0,1-2.4,2.29Zm.08-17.53c-2.37,0-4.73,0-7.09,0-.55,0-.69.14-.64.72.24,2.77.4,5.54.61,8.31.17,2.14.34,4.29.54,6.43A1.25,1.25,0,0,0,5.4,23.46q5.17,0,10.36,0a1.25,1.25,0,0,0,1.32-1.25c.1-.92.18-1.84.25-2.76.3-4,.57-8,.9-12,.06-.68-.15-.77-.73-.77C15.21,6.73,12.91,6.71,10.62,6.72Zm-.06-.87h8.13c.91,0,1.36-.44,1.31-1.22s-.48-1.1-1.39-1.1H5.69c-1.13,0-2.26,0-3.4,0A1.08,1.08,0,0,0,1.11,4.69c0,.75.43,1.15,1.33,1.15Zm0-3.21c.88,0,1.75,0,2.63,0,.56,0,.59-.26.35-.65a1.86,1.86,0,0,0-1.65-1C11,1,10.14,1,9.29,1a1.85,1.85,0,0,0-1.62.91c-.33.53-.25.69.36.7Z"/><path d="M10,9.35h1.1v8.87l2.16-2.17.78.78-3.49,3.49L7.07,16.83l.77-.78L10,18.22Z"/></g></g></svg>