<svg xmlns="http://www.w3.org/2000/svg" viewBox="0 0 26.5 26.5"><defs><style>.cls-1{fill:none;stroke:#000;stroke-linecap:round;stroke-linejoin:round;stroke-width:2.5px;}</style></defs><g id="Layer_2" data-name="Layer 2"><g id="Layer_1-2" data-name="Layer 1"><path class="cls-1" d="M13.25,1.25A65,65,0,0,1,24,2.15a1.48,1.48,0,0,1,1.22,1.47V5a3,3,0,0,1-.88,2.12l-7.24,7.24a3,3,0,0,0-.88,2.12V20.4a3,3,0,0,1-1.66,2.68l-4.34,2.17V16.49a3,3,0,0,0-.88-2.12L2.13,7.13A3,3,0,0,1,1.25,5V3.62A1.48,1.48,0,0,1,2.47,2.15,64.9,64.9,0,0,1,13.25,1.25Z"/></g></g></svg>