<svg xmlns="http://www.w3.org/2000/svg" viewBox="0 0 32.66 24.24"><g id="Layer_2" data-name="Layer 2"><g id="Layer_1-2" data-name="Layer 1"><path d="M10.55,10.93l9.53.12a.89.89,0,0,0,.61-.19,7.2,7.2,0,0,1,5.64-1.41,7.16,7.16,0,0,1,5.86,4.87A7.08,7.08,0,0,1,31.3,21a7.08,7.08,0,0,1-5,3.12,7.27,7.27,0,0,1-6-1.73,7.49,7.49,0,0,1-1-1,.35.35,0,0,0-.3-.14l-9.32-.1c-1.55,0-3.11,0-4.66-.06A9.19,9.19,0,0,1,3.17,21,4.07,4.07,0,0,1,.06,17.66a16.34,16.34,0,0,1,0-2.32c0-1.24,0-2.48.05-3.71a.71.71,0,0,1,.83-.81Zm-.32,1.4L6,12.27c-1.43,0-2.87,0-4.3-.06-.19,0-.23.07-.23.24,0,1.53-.05,3.06-.05,4.59a2.7,2.7,0,0,0,2.73,2.69c1,0,2,0,3,0L18,19.89c.46,0,.46.06.28-.39a7.27,7.27,0,0,1-.43-3.72A7,7,0,0,1,19,12.71c.15-.23.13-.26-.11-.28h-.26Zm8.87,5.08a5.77,5.77,0,0,0,1.76,3.66,6,6,0,0,0,4.38,1.8,6.07,6.07,0,0,0,.06-12.14C21.87,10.69,19.15,13.34,19.1,17.41Z"/><path d="M15.28,7.92,1,7.74c-.67,0-.89-.23-.89-.9,0-1,0-1.89,0-2.83A4.05,4.05,0,0,1,3.7,0a3.54,3.54,0,0,1,.56,0L9,0,25,.25c.63,0,1.27,0,1.89,0a3.34,3.34,0,0,1,1.54.5,4,4,0,0,1,2,3,5.72,5.72,0,0,1,0,.59l0,2.94c0,.59-.24.82-.83.81Zm0-1.37h0l6.62.08,6.87.08c.2,0,.29,0,.29-.26,0-.76,0-1.51,0-2.27a2.23,2.23,0,0,0-.18-.88,2.66,2.66,0,0,0-2.54-1.67c-1.29,0-2.58,0-3.87,0C17.74,1.53,13,1.49,8.29,1.42c-1.32,0-2.65,0-4-.06A2.73,2.73,0,0,0,1.53,4.09c0,.61,0,1.23,0,1.84,0,.45,0,.45.44.46Z"/><path d="M9.77,16.38l-5.66-.07a.77.77,0,0,1-.79-.37.66.66,0,0,1,.38-1,1.57,1.57,0,0,1,.48-.05l8.44.1,2.72,0,.45,0a.66.66,0,0,1,.56.66.65.65,0,0,1-.54.66,1.8,1.8,0,0,1-.4,0Z"/><path d="M23.13,17.44c-.44,0-.87,0-1.31,0a.66.66,0,0,1-.62-.5.68.68,0,0,1,.23-.75A.94.94,0,0,1,22,16l2.24,0c.26,0,.34-.09.34-.34,0-.69,0-1.39,0-2.08,0-.47.2-.7.56-.75a.57.57,0,0,1,.66.38,1.1,1.1,0,0,1,.07.44c0,.69,0,1.37,0,2.06,0,.23.07.31.31.31l2.05,0a.79.79,0,0,1,.63.24.68.68,0,0,1,.16.69.67.67,0,0,1-.58.49c-.2,0-.41,0-.61,0l-1.74,0c-.19,0-.24.07-.24.24,0,.73,0,1.46,0,2.19a1.34,1.34,0,0,1-.1.49.55.55,0,0,1-.56.34.57.57,0,0,1-.57-.35,1.12,1.12,0,0,1-.07-.48c0-.72,0-1.44,0-2.16,0-.23-.07-.31-.31-.3s-.77,0-1.15,0Z"/></g></g></svg>