<svg xmlns="http://www.w3.org/2000/svg" viewBox="0 0 22.21 24"><g id="Layer_2" data-name="Layer 2"><g id="Layer_1-2" data-name="Layer 1"><path d="M0,11.84V1.7A1.66,1.66,0,0,1,1.44,0a1.32,1.32,0,0,1,.28,0H15.87a1.68,1.68,0,0,1,1.7,1.76V12.39c0,.35,0,.7,0,1,0,.14,0,.2.19.22a5.2,5.2,0,1,1-2.35,10.09,1.47,1.47,0,0,0-.41-.07H1.78a1.72,1.72,0,0,1-1.34-.55A1.69,1.69,0,0,1,0,22ZM13.42,22.58l-.2-.22a5,5,0,0,1-1.09-5.3,5,5,0,0,1,4.14-3.4c.16,0,.2-.08.2-.23q0-3.87,0-7.74c0-.18-.06-.21-.22-.21H6c-.18,0-.22,0-.22.22V22.35c0,.2.06.23.24.23h7.45ZM4.62,14c0-2.77,0-5.53,0-8.3,0-.18,0-.24-.23-.23H1.32c-.17,0-.21,0-.21.22V21.93a.58.58,0,0,0,.66.65H4.36c.26,0,.26,0,.26-.27ZM21.1,18.82A4.09,4.09,0,1,0,17,22.89,4.1,4.1,0,0,0,21.1,18.82Zm-10-14.45h5.17c.16,0,.21,0,.21-.21,0-.8,0-1.6,0-2.4a.58.58,0,0,0-.64-.65H5.94c-.16,0-.21,0-.21.2q0,1.41,0,2.82c0,.19,0,.24.24.24Zm-8.23,0H4.43c.14,0,.2,0,.2-.18,0-1,0-1.94,0-2.9,0-.13,0-.19-.18-.18H1.71a.56.56,0,0,0-.6.61V4.18c0,.15,0,.19.19.19Z"/><path d="M14.76,17.81a.63.63,0,0,1,.41.21l1.34,1.36c.11.12.16.11.25,0l1.6-2a.58.58,0,0,1,.85-.12.57.57,0,0,1,0,.79l-1.4,1.78-.68.85a.56.56,0,0,1-.91.06c-.64-.64-1.27-1.29-1.91-1.94a.53.53,0,0,1-.12-.61A.55.55,0,0,1,14.76,17.81Z"/></g></g></svg>