<svg xmlns="http://www.w3.org/2000/svg" viewBox="0 0 26.63 25.5"><defs><style>.cls-1{fill:none;stroke:#000;stroke-miterlimit:10;stroke-width:1.5px;}</style></defs><g id="Layer_2" data-name="Layer 2"><g id="Layer_1-2" data-name="Layer 1"><path class="cls-1" d="M25.88,12.71A3.32,3.32,0,1,1,22.53,9.4,3.33,3.33,0,0,1,25.88,12.71Z"/><path class="cls-1" d="M5.81,3.62A2.23,2.23,0,0,1,8,5.85,2.23,2.23,0,0,1,5.81,8a2.2,2.2,0,1,1,0-4.4Z"/><path class="cls-1" d="M19.68,8a2.19,2.19,0,1,1,0-4.38,2.21,2.21,0,0,1,2.21,2.23A2.18,2.18,0,0,1,19.68,8Z"/><path class="cls-1" d="M12.8,20.36A2.18,2.18,0,0,1,15,22.54a2.2,2.2,0,1,1-2.17-2.18Z"/><path class="cls-1" d="M3,15a2.19,2.19,0,1,1-.06-4.38A2.19,2.19,0,0,1,3,15Z"/><path class="cls-1" d="M3.65,19.7a2.19,2.19,0,0,1,2.21-2.22,2.21,2.21,0,0,1-.05,4.41A2.18,2.18,0,0,1,3.65,19.7Z"/><path class="cls-1" d="M19.73,21.85a2.19,2.19,0,1,1-.06-4.38,2.19,2.19,0,1,1,.06,4.38Z"/><path class="cls-1" d="M12.72.75a2.16,2.16,0,0,1,2.2,2.14,2.19,2.19,0,1,1-4.37,0A2.17,2.17,0,0,1,12.72.75Z"/></g></g></svg>