<svg xmlns="http://www.w3.org/2000/svg" viewBox="0 0 29.34 24"><g id="Layer_2" data-name="Layer 2"><g id="Layer_1-2" data-name="Layer 1"><path d="M14.24,6.67H3.59a1.9,1.9,0,0,1-.34,0A.66.66,0,0,1,2.68,6a.65.65,0,0,1,.61-.64H24.94c.41,0,.39,0,.41-.4a3.35,3.35,0,0,0-2.47-3.48,3.42,3.42,0,0,0-1-.12H4.77A3.29,3.29,0,0,0,1.35,4.77q0,5.91,0,11.82A3.3,3.3,0,0,0,4.75,20c2.82,0,5.63,0,8.44,0,.48,0,.77.22.81.6a.65.65,0,0,1-.52.72,1.56,1.56,0,0,1-.31,0c-2.8,0-5.6,0-8.4,0A4.65,4.65,0,0,1,.08,17.47,5,5,0,0,1,0,16.6c0-4,0-7.91,0-11.87A4.64,4.64,0,0,1,3.85.08a5.18,5.18,0,0,1,1-.08H21.87a4.66,4.66,0,0,1,4.8,4.79c0,1.07,0,2.13,0,3.19a.66.66,0,0,1-1.26.32.93.93,0,0,1-.06-.4c0-.34,0-.69,0-1,0-.15-.05-.21-.2-.2H14.24Z"/><path d="M22,9.35a7.33,7.33,0,1,1-7.35,7.31A7.31,7.31,0,0,1,22,9.35Zm6,7.33a6,6,0,1,0-6,6A6,6,0,0,0,28,16.68Z"/><path d="M24,19.23a.82.82,0,0,1-.54-.26c-.37-.38-.76-.74-1.12-1.13-.19-.22-.3-.18-.47,0-.35.37-.72.73-1.08,1.08s-.75.39-1,.09-.25-.68.11-1,.72-.74,1.1-1.1c.17-.15.19-.24,0-.41-.4-.37-.77-.76-1.15-1.14a.67.67,0,1,1,.94-.95l1.19,1.19c.12.13.19.14.32,0,.38-.41.78-.8,1.19-1.2a.66.66,0,0,1,1-.07.68.68,0,0,1-.06,1c-.38.38-.75.77-1.15,1.14-.15.15-.17.24,0,.39.42.4.82.81,1.22,1.22a.63.63,0,0,1,.15.74A.67.67,0,0,1,24,19.23Z"/></g></g></svg>