<svg xmlns="http://www.w3.org/2000/svg" viewBox="0 0 20.34 24.5"><defs><style>.cls-1{stroke:#000;stroke-miterlimit:10;stroke-width:0.5px;}</style></defs><g id="Layer_2" data-name="Layer 2"><g id="Layer_1-2" data-name="Layer 1"><path class="cls-1" d="M20.09,12.27v8.44a3.41,3.41,0,0,1-3.53,3.54H3.66a3.4,3.4,0,0,1-3.4-3.4q0-8.6,0-17.21A3.41,3.41,0,0,1,3.65.25h13a3.42,3.42,0,0,1,3.43,3.41Zm-19,0v8.47a2.63,2.63,0,0,0,2.72,2.73H16.59a2.62,2.62,0,0,0,2.69-2.67v-17a2.63,2.63,0,0,0-2.7-2.69H3.76A3.2,3.2,0,0,0,3,1.15,2.64,2.64,0,0,0,1.06,3.81Z"/><path class="cls-1" d="M10.22,6A6.29,6.29,0,1,1,3.87,12.2,6.28,6.28,0,0,1,10.22,6ZM4.89,12.27A5.28,5.28,0,1,0,10.12,7,5.28,5.28,0,0,0,4.89,12.27Z"/><path class="cls-1" d="M10.17,12.86a2.43,2.43,0,0,1,2.4,1.61c.08.23.18.48-.11.62S12,15,11.9,14.8a2,2,0,0,0-3.48,0c-.12.21-.25.41-.51.3s-.25-.36-.16-.61A2.43,2.43,0,0,1,10.17,12.86Z"/><path class="cls-1" d="M8.89,11c0,.46-.27.82-.62.82s-.62-.38-.62-.83.31-.82.65-.8S8.89,10.54,8.89,11Z"/><path class="cls-1" d="M11.45,11c0-.46.27-.83.62-.82s.59.35.6.79a.77.77,0,0,1-.6.85C11.73,11.81,11.45,11.45,11.45,11Z"/></g></g></svg>