<svg xmlns="http://www.w3.org/2000/svg" viewBox="0 0 23.09 24.25"><defs><style>.cls-1{stroke:#000;stroke-miterlimit:10;stroke-width:0.25px;}</style></defs><g id="Layer_2" data-name="Layer 2"><g id="Layer_1-2" data-name="Layer 1"><path class="cls-1" d="M17.44,15.59c0,1.12,0,2.24,0,3.36a2.9,2.9,0,0,1-.66,1.95,10.11,10.11,0,0,1-4.73,3.15A1.75,1.75,0,0,1,10.89,24a10.46,10.46,0,0,1-4.25-2.77,3.37,3.37,0,0,1-.92-2.44c0-2.18,0-4.37,0-6.55a2.78,2.78,0,0,1,2.86-3c2,0,4,0,5.92,0a2.83,2.83,0,0,1,2.93,3C17.38,13.38,17.44,14.48,17.44,15.59Zm-.79,0c0-1.12,0-2.24,0-3.36A2.1,2.1,0,0,0,14.46,10c-1.92,0-3.84,0-5.76,0a2,2,0,0,0-2.19,2.21c0,2.17,0,4.34,0,6.5a2.69,2.69,0,0,0,.75,2A10,10,0,0,0,11,23.23a1.55,1.55,0,0,0,1.16,0A10,10,0,0,0,16,20.63a2.34,2.34,0,0,0,.65-1.77C16.63,17.78,16.65,16.69,16.65,15.61Z"/><path class="cls-1" d="M15.53,4.06a4,4,0,1,1-4-3.93A4,4,0,0,1,15.53,4.06Zm-7.14,0A3.18,3.18,0,1,0,11.59.91,3.16,3.16,0,0,0,8.39,4.07Z"/><path class="cls-1" d="M5.57,9.57a1,1,0,0,1-1.18.79,16.84,16.84,0,0,0-1.88,0A1.44,1.44,0,0,0,.91,12c0,1.42,0,2.85,0,4.28a1.86,1.86,0,0,0,.73,1.58,9.21,9.21,0,0,0,2.7,1.55c.14.05.34.09.39.19s.24.45.13.64-.35,0-.51,0A8.77,8.77,0,0,1,1,18.31a2.4,2.4,0,0,1-.86-2c0-1.48,0-3,0-4.44A2.17,2.17,0,0,1,2.28,9.59c.89-.05,1.78,0,2.68,0Z"/><path class="cls-1" d="M17.61,9.58c1.12,0,2.21,0,3.28,0A2.12,2.12,0,0,1,23,11.81v4.78a1.77,1.77,0,0,1-.3,1.08,8.11,8.11,0,0,1-4.35,2.67.87.87,0,0,1,.69-1,7.92,7.92,0,0,0,2.49-1.46,1.82,1.82,0,0,0,.7-1.54c0-1.44,0-2.89,0-4.33a1.43,1.43,0,0,0-1.56-1.61,16.84,16.84,0,0,0-1.88,0A1,1,0,0,1,17.61,9.58Z"/><path class="cls-1" d="M3.93,7.58A2.89,2.89,0,1,1,6.8,4.78,2.89,2.89,0,0,1,3.93,7.58Zm0-5A2.1,2.1,0,1,0,6,4.72,2.1,2.1,0,0,0,3.93,2.6Z"/><path class="cls-1" d="M19.21,1.81a2.9,2.9,0,0,1,2.87,2.92,2.93,2.93,0,0,1-2.89,2.86,2.89,2.89,0,1,1,0-5.78Zm0,.79a2.09,2.09,0,0,0-2.13,2.07,2.13,2.13,0,0,0,2.13,2.14A2.15,2.15,0,0,0,21.3,4.72,2.1,2.1,0,0,0,19.21,2.6Z"/></g></g></svg>