<svg xmlns="http://www.w3.org/2000/svg" viewBox="0 0 33.42 24.25"><defs><style>.cls-1{stroke:#000;stroke-miterlimit:10;stroke-width:0.25px;}</style></defs><g id="Layer_2" data-name="Layer 2"><g id="Layer_1-2" data-name="Layer 1"><path class="cls-1" d="M12.17,24.12H1.8c-1.24,0-1.67-.43-1.67-1.66q0-6,0-12c0-1.14.46-1.61,1.6-1.62H5.61a.83.83,0,0,0,.81-.32,1.42,1.42,0,0,1,.68-.4L26.36.37c1.23-.5,1.79-.26,2.29,1l4.44,11a1.41,1.41,0,0,1-.9,2.15c-2.46,1-4.91,2-7.38,3a.77.77,0,0,0-.59.84c0,1.42,0,2.84,0,4.26,0,1.11-.47,1.57-1.58,1.57Zm0-.75H22.6c.72,0,.87-.15.87-.86q0-6,0-12c0-.72-.16-.86-.88-.86H1.76c-.73,0-.87.14-.87.86v12c0,.8.12.92.93.92ZM7.72,8.72l0,.15H22.54c1.25,0,1.69.45,1.69,1.71,0,1.9,0,3.79,0,5.68,0,.48.07.61.57.4,2.35-1,4.72-1.92,7.08-2.87.74-.31.8-.46.49-1.23Q30.17,7.11,28,1.65c-.35-.86-.48-.92-1.33-.57L13.31,6.46Z"/><path class="cls-1" d="M17.26,14.56c-1,0-2,0-3,0-.47,0-.67-.17-.66-.65,0-.7,0-1.4,0-2.1,0-.44.16-.64.61-.64h6.11c.4,0,.6.16.59.59q0,1.11,0,2.22c0,.43-.2.58-.61.58C19.32,14.55,18.29,14.56,17.26,14.56Zm.1-2.61H15.7c-1.33,0-1.31,0-1.32,1.32,0,.46.17.55.58.54h3.93c1.34,0,1.32,0,1.32-1.33,0-.45-.17-.55-.57-.53C18.88,12,18.12,12,17.36,12Z"/><path class="cls-1" d="M12.3,17.31H3.48c-.26,0-.46-.1-.44-.39s.18-.35.42-.35H21.22a.36.36,0,0,1,.38.39.34.34,0,0,1-.36.34H12.3Z"/><path class="cls-1" d="M9.89,18.77h6.54c.23,0,.41.11.42.36s-.19.38-.45.39H3.7a2.3,2.3,0,0,1-.37,0,.34.34,0,0,1-.3-.34.33.33,0,0,1,.33-.37,4,4,0,0,1,.49,0Z"/><path class="cls-1" d="M9.89,22H3.48c-.26,0-.45-.1-.44-.39s.18-.35.41-.35H16.34c.27,0,.52.06.51.39s-.28.36-.54.36H9.89Z"/><path class="cls-1" d="M7.24,12.57H3.67c-.29,0-.64,0-.63-.39s.36-.38.65-.38H10.9c.29,0,.64,0,.65.37s-.38.4-.67.4Z"/><path class="cls-1" d="M6.26,13.81H8.84c.27,0,.59,0,.58.37s-.29.38-.58.38H3.62c-.27,0-.58,0-.58-.38s.31-.37.58-.37Z"/></g></g></svg>