<svg xmlns="http://www.w3.org/2000/svg" viewBox="0 0 20.39 24.75"><defs><style>.cls-1{stroke:#000;stroke-miterlimit:10;stroke-width:0.75px;}</style></defs><g id="Layer_2" data-name="Layer 2"><g id="Layer_1-2" data-name="Layer 1"><path class="cls-1" d="M10.19,24.37H1.9a2.5,2.5,0,0,1-.9-.11.9.9,0,0,1-.58-1.15,4.45,4.45,0,0,1,.79-1.41.81.81,0,0,0,.06-1,5.15,5.15,0,0,1,.66-5.3c.14-.16.16-.25,0-.39a2.08,2.08,0,0,1-.67-1.7c0-1.33,0-2.67,0-4a2,2,0,0,1,1.3-2L6.27,5.61c.22-.1.33-.15.12-.41A.91.91,0,0,1,6.5,3.91,3,3,0,0,1,7,3.57c.51-.29.52-.28.19-.77a2.8,2.8,0,0,0-.66-.67A.69.69,0,0,1,6.65.86a5.24,5.24,0,0,1,5.25.46.56.56,0,0,0,.35.11,4.15,4.15,0,0,1,.61,0c.71.09.94.62.53,1.22l-.09.13c-.33.5-.33.51.18.8a1.05,1.05,0,0,1,.44,1.71c-.17.27.09.24.18.28,1.19.56,2.37,1.12,3.58,1.63a2.2,2.2,0,0,1,1.47,2.3c0,1.3,0,2.6,0,3.9A2,2,0,0,1,18.48,15c-.16.14-.17.24,0,.42a5.16,5.16,0,0,1,.58,5.44.52.52,0,0,0,0,.65c.24.36.5.73.71,1.11.53,1,.15,1.66-1,1.73-.22,0-.43,0-.65,0Zm0-1h8.37c.13,0,.3.07.38-.08s-.07-.23-.13-.34A12.59,12.59,0,0,1,18,21.63a.93.93,0,0,1,0-1,2.89,2.89,0,0,0,.53-1.75,3.86,3.86,0,0,0-.81-2.76c-.59-.69-.63-1.16,0-1.79a1.22,1.22,0,0,0,.39-1c0-1.31,0-2.62,0-3.94a1.22,1.22,0,0,0-.82-1.25C16,7.58,14.71,7,13.41,6.37a2.08,2.08,0,0,0-1.58-.22c-.31.09-.3.16-.13.38a2.9,2.9,0,0,1,.59,1.37c.13.85.19.67-.57.7-.27,0-.36-.06-.39-.35a2.56,2.56,0,0,0-.95-1.71c-.12-.1-.21-.15-.35,0a2.6,2.6,0,0,0-1,1.7c0,.32-.15.42-.44.38H8.39c-.29,0-.4-.06-.35-.38a4,4,0,0,1,.68-1.74c0-.07.22-.23,0-.26-.41-.06-.8-.3-1.25-.09-1.52.71-3,1.4-4.57,2.09a1.06,1.06,0,0,0-.7,1.09c0,1.24,0,2.48,0,3.71a1.78,1.78,0,0,0,.53,1.47,1,1,0,0,1,0,1.47,4.09,4.09,0,0,0-.5,4.55,1.1,1.1,0,0,1,0,1.24c-.23.4-.5.78-.75,1.18-.06.11-.21.23-.13.37s.26.07.39.07ZM12.32,2.44a2,2,0,0,0-1.3.43c-.18.14-.29.17-.46,0-.49-.55-.67-.42.09-1,0,0,.06-.06.11-.11l-.14-.09a4.23,4.23,0,0,0-2.74-.18c-.4.09-.38.08-.14.41A4.26,4.26,0,0,1,8.77,5c0,.16.06.17.17.19a9.66,9.66,0,0,0,2.52,0c.15,0,.21-.08.16-.22a1.78,1.78,0,0,1,.09-1.07A9.09,9.09,0,0,1,12.32,2.44ZM7.63,4.89c.19,0,.21-.17.21-.3s0-.27-.17-.24-.4.1-.41.27S7.49,4.82,7.63,4.89Zm5.12-.54c-.17,0-.18.13-.17.23s0,.32.18.29.38-.08.37-.26S12.89,4.43,12.75,4.35Z"/><path class="cls-1" d="M11.48,14.25c-.39-.68-.77-1.34-1.16-2-.12-.21-.19-.05-.25.05-.28.47-.56.94-.81,1.41-.11.2-.19.24-.4.12-.62-.35-.63-.34-.27-1l.68-1.17a1,1,0,0,1,1.89,0c.4.67.78,1.35,1.18,2,.05,0,.08,0,.1-.07s0-.46.21-.48a2.46,2.46,0,0,1,.77.18c.14,0,.1.15.08.25L13,15.54c0,.17-.14.19-.28.15l-1.93-.52c-.16,0-.21-.12-.15-.27a.74.74,0,0,0,0-.14c.14-.55.14-.55.67-.48C11.36,14.29,11.4,14.27,11.48,14.25Z"/><path class="cls-1" d="M11.38,18.59h2.36c.25,0,.14-.14.08-.24-.26-.46-.52-.93-.79-1.38-.12-.19-.14-.31.1-.44.72-.38.52-.45.94.26.25.41.49.83.72,1.25a1,1,0,0,1-.88,1.54l-2.42,0,0,0c0,.05,0,.09,0,.13s.4.28.33.41a2.44,2.44,0,0,1-.56.6c-.09.09-.16,0-.22-.06L9.55,19.23c-.1-.09-.11-.17,0-.27q.75-.74,1.47-1.47c.11-.11.19-.13.32,0C11.88,17.94,11.88,17.94,11.38,18.59Z"/><path class="cls-1" d="M7.78,16.27c-.47.8-.87,1.47-1.24,2.15-.13.22.09.17.19.18.52,0,1,0,1.55,0,.31,0,.4.09.38.39,0,.68.11.6-.63.61-.5,0-1,0-1.48,0A1,1,0,0,1,5.63,18c.32-.59.67-1.16,1-1.74.06-.12.17-.22.16-.37-.54,0-.59,0-.7-.69,0-.16,0-.22.17-.26.6-.15,1.19-.31,1.79-.48.19-.05.24,0,.28.18.16.59.31,1.17.48,1.76,0,.19,0,.29-.2.31a.42.42,0,0,0-.15,0C8.12,16.88,7.79,17,7.78,16.27Z"/></g></g></svg>