<svg xmlns="http://www.w3.org/2000/svg" viewBox="0 0 24.69 24"><g id="Layer_2" data-name="Layer 2"><g id="Layer_1-2" data-name="Layer 1"><path d="M17.47,15.65H13.9c-1.18,0-1.25-.09-1.26-1.3,0-3.15.12-6.28-.68-9.4A3.79,3.79,0,0,1,14,.68a4.07,4.07,0,0,1,4.61.08A4.28,4.28,0,0,1,20.5,5.12a1.63,1.63,0,0,1-.11.59c-.72,1.36-.22,2.63.21,3.93.54,1.63,1,3.27,1.49,4.92.24.83.08,1.06-.79,1.08-1.28,0-2.55,0-3.83,0ZM19.62,5c0-2.59-1.5-4.18-3.49-4.13a3.47,3.47,0,0,0-3.37,3.77,13.14,13.14,0,0,0,3.11,6.87c.2.25.39.33.62,0A13.91,13.91,0,0,0,19.62,5Zm-.16,3.86c-.41.13-.44.46-.58.69a18.3,18.3,0,0,1-2,2.92c-.49.56-.9.56-1.34,0L13.57,9.9c0,1.51,0,2.87,0,4.22,0,.45.25.61.67.61h6.34c.43,0,.59-.16.46-.59C20.51,12.4,20,10.65,19.46,8.89Z"/><path d="M18.7,24c-1.65,0-3.3,0-4.95,0-.8,0-1.14-.29-1.12-1.13,0-1.91,0-3.82,0-5.74,0-.7.28-1,1-1h8.08a1,1,0,0,1,1.14.82c.57,2,1.18,3.94,1.75,5.91.26.87.09,1.1-.84,1.11C22.06,24,20.38,24,18.7,24Zm0-.91c1.42,0,2.84,0,4.26,0,.6,0,.76-.15.57-.76-.49-1.48-.94-3-1.36-4.48a.92.92,0,0,0-1-.79q-3.35,0-6.69,0c-.7,0-.91.28-.89.93,0,1.39,0,2.78,0,4.17,0,.75.3.95,1,.93C15.92,23.05,17.31,23.08,18.7,23.08Z"/><path d="M6,24c-1.66,0-3.31,0-5,0-1,0-1.19-.23-.9-1.2C.69,20.87,1.29,19,1.84,17A1.06,1.06,0,0,1,3,16.14c2.67,0,5.33,0,8,0,.72,0,1.06.23,1.05,1q0,2.91,0,5.82c0,.76-.3,1-1,1C9.35,24,7.67,24,6,24Zm.14-.91c1.42,0,2.84,0,4.26,0,.65,0,.86-.23.85-.87,0-1.44,0-2.9,0-4.34,0-.61-.22-.82-.82-.82-2.29,0-4.58,0-6.87,0a.89.89,0,0,0-1,.74c-.43,1.5-.88,3-1.36,4.49-.19.59,0,.8.59.79C3.23,23.06,4.68,23.08,6.13,23.08Z"/><path d="M7.24,15.65H3.5c-1,0-1.15-.24-.87-1.16.56-1.88,1.15-3.76,1.69-5.66a1.19,1.19,0,0,1,1.34-1c1.77,0,3.54,0,5.31,0,.75,0,1.11.24,1.09,1.06,0,1.91,0,3.83,0,5.74,0,.8-.31,1.09-1.08,1.07C9.73,15.63,8.49,15.65,7.24,15.65Zm.12-.92h3.22c.44,0,.65-.14.64-.6,0-1.59,0-3.19,0-4.78,0-.45-.2-.63-.64-.63H5.81a.66.66,0,0,0-.69.54q-.72,2.41-1.45,4.83c-.18.56.1.64.56.64Z"/><path d="M14.2,3.84a2,2,0,0,1,2.05-2,2,2,0,0,1,2,2.08,2.15,2.15,0,0,1-2,2A2,2,0,0,1,14.2,3.84Zm2.1-1.08c-.76,0-1.33.54-1.25,1.15A1.1,1.1,0,0,0,16.21,5a1.05,1.05,0,0,0,1.12-1.15A1,1,0,0,0,16.3,2.76Z"/></g></g></svg>