<svg xmlns="http://www.w3.org/2000/svg" viewBox="0 0 21.61 24"><g id="Layer_2" data-name="Layer 2"><g id="Layer_1-2" data-name="Layer 1"><path d="M10.78,24H2.86c-.58,0-.74-.15-.74-.73,0-.81,0-1.62,0-2.44,0-.22,0-.3-.29-.29-.47,0-.94,0-1.4,0S0,20.42,0,20.1V10.91c0-.34.11-.44.45-.45s.9,0,1.35,0c.27,0,.33-.09.33-.34q0-4.7,0-9.39A.89.89,0,0,1,2.2.26.56.56,0,0,1,2.71,0H15.32a.93.93,0,0,1,.73.31c1,1,2.06,2.08,3.11,3.1a1.09,1.09,0,0,1,.34.81c0,2,0,3.94,0,5.91,0,.27.08.35.34.33.42,0,.84,0,1.26,0s.53.08.53.52v9c0,.49-.08.57-.56.57s-.86,0-1.29,0c-.23,0-.28.07-.27.28,0,.82,0,1.64,0,2.47,0,.54-.17.71-.73.71Zm0-13.54c2.44,0,4.87,0,7.31,0,.26,0,.32-.07.32-.32,0-1.84,0-3.69,0-5.53,0-.21-.05-.3-.27-.28s-.61,0-.92,0a2.06,2.06,0,0,1-2.06-1.91,7.22,7.22,0,0,1,0-1c0-.25-.06-.32-.32-.32q-5.67,0-11.33,0c-.26,0-.32.07-.32.32q0,4.37,0,8.73c0,.29.08.36.36.36C6,10.45,8.38,10.46,10.79,10.46Zm0,10.08c-2.43,0-4.86,0-7.29,0-.25,0-.33.05-.32.31,0,.57,0,1.13,0,1.7,0,.42-.08.39.37.39h7.58c2.33,0,4.65,0,7,0,.22,0,.3-.05.29-.28,0-.56,0-1.11,0-1.67s0-.45-.46-.45Zm7.38-4.39-.06,0-.18-.29c-.43-.71-.89-1.4-1.29-2.13a.82.82,0,0,0-.9-.5c-.24,0-.28.09-.28.31,0,1.2,0,2.41,0,3.61,0,.57,0,.56.59.56.19,0,.24-.06.24-.24,0-.8,0-1.59,0-2.38,0-.07-.05-.15.05-.21l.16.24c.43.69.88,1.36,1.27,2.08a.85.85,0,0,0,.95.52c.21,0,.29-.06.29-.29,0-1.22,0-2.45,0-3.67,0-.52,0-.5-.51-.53-.28,0-.33.1-.32.35C18.19,14.45,18.18,15.3,18.18,16.15Zm-7.76-.6A2.15,2.15,0,0,0,11,17.17a2.22,2.22,0,0,0,2.39.51,1.92,1.92,0,0,0,1.35-1.76,3.66,3.66,0,0,0,0-.74,2.18,2.18,0,0,0-3.41-1.65A2.2,2.2,0,0,0,10.42,15.55Zm-1.25-1H9.4c.3,0,.33-.05.25-.34A1.17,1.17,0,0,0,9,13.39a2.33,2.33,0,0,0-1.9,0,1.1,1.1,0,0,0-.73,1A1.14,1.14,0,0,0,7,15.48a3.19,3.19,0,0,0,.78.29,4.15,4.15,0,0,1,.85.25.46.46,0,0,1,.15.79,1,1,0,0,1-1.6-.29c-.1-.32-.28-.32-.52-.28l-.28,0c-.16,0-.17.07-.14.2a1.48,1.48,0,0,0,1,1.24,2.87,2.87,0,0,0,1.59,0,1.32,1.32,0,0,0,1-1.21A1.25,1.25,0,0,0,9,15.2a6.63,6.63,0,0,0-1-.29,1.88,1.88,0,0,1-.61-.23.34.34,0,0,1-.12-.53c.29-.35,1.22-.29,1.4.11S8.93,14.62,9.17,14.55ZM5.43,15h0V13.9c0-.66,0-.65-.65-.64-.19,0-.24.06-.24.25,0,.86,0,1.72,0,2.58a2.92,2.92,0,0,1,0,.51A.44.44,0,0,1,4,17c-.3,0-.52-.13-.53-.41s-.21-.39-.49-.32a1.07,1.07,0,0,1-.25,0c-.11,0-.16.05-.15.16a1.24,1.24,0,0,0,.44,1,1.6,1.6,0,0,0,1.63.15,1.2,1.2,0,0,0,.75-1.16C5.45,16,5.43,15.52,5.43,15Z"/><path d="M10.79,7H6c-.25,0-.31-.07-.31-.31,0-.59,0-.6.61-.6h9.3c.37,0,.37,0,.37.37s0,.52-.53.52Z"/><path d="M10.83,8.18h4.82c.23,0,.3.07.29.29,0,.61,0,.61-.6.61H6c-.37,0-.37,0-.37-.38s0-.51.51-.51Z"/><path d="M9.28,4.89H6c-.23,0-.32,0-.32-.3,0-.6,0-.6.6-.6h6.35c.23,0,.34,0,.33.31,0,.59,0,.6-.59.6Z"/><path d="M13.82,15.49a1.85,1.85,0,0,1-.07.62,1.2,1.2,0,0,1-2.33,0,2.51,2.51,0,0,1,0-1.36A1.16,1.16,0,0,1,12.59,14a1.11,1.11,0,0,1,1.14.86A1.93,1.93,0,0,1,13.82,15.49Z"/></g></g></svg>