<svg xmlns="http://www.w3.org/2000/svg" viewBox="0 0 33 24"><g id="Layer_2" data-name="Layer 2"><g id="Layer_1-2" data-name="Layer 1"><path d="M3,21H30V3H3ZM0,1.5A1.5,1.5,0,0,1,1.5,0h30A1.5,1.5,0,0,1,33,1.5v21A1.5,1.5,0,0,1,31.5,24H1.5A1.5,1.5,0,0,1,0,22.5ZM12,9a1.5,1.5,0,1,0-1.5,1.5A1.5,1.5,0,0,0,12,9Zm3,0a4.5,4.5,0,1,1-4.5-4.5A4.49,4.49,0,0,1,15,9Zm-4.5,9a5.23,5.23,0,0,0-3.71,1.54L4.67,17.42a8.24,8.24,0,0,1,11.67,0l-2.12,2.12A5.27,5.27,0,0,0,10.5,18Zm12.31-1.94,6-6L26.69,7.94l-4.94,4.94-2.69-2.69-2.12,2.12,3.75,3.75,1.06,1.06Z"/></g></g></svg>