<svg xmlns="http://www.w3.org/2000/svg" viewBox="0 0 21.98 24"><g id="Layer_2" data-name="Layer 2"><g id="Layer_1-2" data-name="Layer 1"><path d="M11.19,24a30.2,30.2,0,0,1-6.36-.6A6,6,0,0,1,0,16.75,14.5,14.5,0,0,1,3.77,8.64a33.63,33.63,0,0,1,2.8-2.8.81.81,0,0,0,.25-1C6.52,4,6.27,3.13,6,2.25A1.16,1.16,0,0,1,6.73.59,6.68,6.68,0,0,1,9.1.07a19.78,19.78,0,0,1,5,.19l.48.11c1.53.38,1.8.87,1.33,2.34-.23.71-.43,1.44-.68,2.15a.84.84,0,0,0,.26,1,32.22,32.22,0,0,1,3.83,4.17A12.87,12.87,0,0,1,22,17.59a5.87,5.87,0,0,1-4.56,5.81A25,25,0,0,1,11.19,24Zm0-1.37a23,23,0,0,0,6-.52,4.47,4.47,0,0,0,3.5-4.48,10.72,10.72,0,0,0-1.49-5.46A25.39,25.39,0,0,0,14.4,6.62a.55.55,0,0,0-.56-.13,11.09,11.09,0,0,1-5.43,0,.87.87,0,0,0-.88.25C6.65,7.57,5.76,8.4,5,9.32a13.36,13.36,0,0,0-3.56,7.22A4.67,4.67,0,0,0,5.3,22.13,24.88,24.88,0,0,0,11.17,22.63ZM10.76,5.51c2.77,0,3-.15,3.54-2a.56.56,0,0,1,0-.12c.1-.31,0-.44-.33-.38A19.4,19.4,0,0,1,8.07,3c-.38-.06-.42.09-.32.4S8,4.21,8.1,4.6a.78.78,0,0,0,.66.62A13.26,13.26,0,0,0,10.76,5.51ZM14,1.66a12.81,12.81,0,0,0-5.89,0A14.58,14.58,0,0,0,14,1.66Z"/><polygon points="8.22 10.72 10.83 13.33 13.44 10.72 15.17 12.46 12.57 15.07 15.17 17.67 13.44 19.41 10.83 16.8 8.22 19.41 6.49 17.67 9.09 15.07 6.49 12.46 8.22 10.72"/></g></g></svg>