<svg xmlns="http://www.w3.org/2000/svg" viewBox="0 0 24.1 24"><g id="Layer_2" data-name="Layer 2"><g id="Layer_1-2" data-name="Layer 1"><path d="M22.8,6.77A11.39,11.39,0,0,0,12.85,0C4.94,0-.74,6.28.08,13.16a12.58,12.58,0,0,0,2.4,6.12l.06.07a11.81,11.81,0,0,0,10.75,4.57h0a12.6,12.6,0,0,0,5.51-2l.3-.18h0a12.05,12.05,0,0,0,2.05-1.86,2.39,2.39,0,0,1,.28-.44A11.51,11.51,0,0,0,22.8,6.77Zm-10.73,16A10.76,10.76,0,1,1,22.78,12,10.76,10.76,0,0,1,12.07,22.75Z"/><path d="M14.9,8.87,10.24,18c-1-1.65-2-3.13-2.85-4.65-.34-.59-.59-.66-1-.11-.73.88-1.53,1.72-2.29,2.58-.29.34-.52.58-1,.18s-.29-.65,0-1c1.16-1.28,2.32-2.55,3.44-3.87.46-.53.69-.51,1,.1.78,1.35,1.62,2.66,2.56,4.19l5-9.76c.77,2.16,1.53,4,2.11,6,.38,1.28.95,2,2.38,1.7a4.22,4.22,0,0,1,.87,0c.46,0,.5.31.51.67s-.09.56-.48.56H17.41c-.57,0-.6-.47-.73-.84Z"/></g></g></svg>