<svg xmlns="http://www.w3.org/2000/svg" viewBox="0 0 22.53 24"><g id="Layer_2" data-name="Layer 2"><g id="Layer_1-2" data-name="Layer 1"><path d="M22.53,10.4v8c0,1.74-.62,2.37-2.33,2.36-2,0-3.8.86-5.7,1.26-2.6.55-5.16,1.25-7.74,1.88-1.61.39-2.38-.09-2.78-1.7L.14,6.51c-.4-1.63,0-2.38,1.65-2.79,1.38-.35,2.76-.7,4.15-1,.52-.12.8-.27.84-.9a1.73,1.73,0,0,1,2-1.8H20.45c1.41,0,2.06.67,2.07,2.13C22.54,4.89,22.53,7.64,22.53,10.4Zm-7.09,0c0-2.91,0-5.82,0-8.73,0-.63-.13-.9-.83-.88-1.86,0-3.73,0-5.6,0-1.13,0-1.44.33-1.44,1.5q0,8.07,0,16.14c0,1.17.3,1.47,1.45,1.48,1.8,0,3.61,0,5.41,0,.78,0,1-.18,1-1C15.41,16.1,15.44,13.25,15.44,10.4Zm-.18,10.52,0-.19H9.35c-2.08,0-2.6-.52-2.6-2.56,0-4.63,0-9.25,0-13.88,0-.68-.08-1-.89-.73-1.17.36-2.39.59-3.59.89C.77,4.84.62,5.08,1,6.57L4.53,21c.6,2.45.6,2.46,3,1.87C10.11,22.2,12.68,21.56,15.26,20.92Zm3.58-10.5V2.36c0-1.57,0-1.51-1.54-1.58-.88,0-1,.28-1,1.07,0,5.47,0,10.94,0,16.41,0,1.68,0,1.63,1.64,1.68.79,0,.93-.27.92-1C18.82,16.11,18.84,13.27,18.84,10.42Zm.84-.08c0,2.88,0,5.76,0,8.64,0,.38-.22.95.54.95s1.22-.09,1.42-.82a2.9,2.9,0,0,0,0-.66c0-5.38,0-10.76,0-16.14a3.62,3.62,0,0,0,0-.57C21.53.94,21,.8,20.26.79s-.56.61-.57,1C19.67,4.65,19.68,7.49,19.68,10.34Z"/><path d="M13.61,15.48c0,2.57,0,2.57-2.6,2.57-1.6,0-1.7-.11-1.7-1.74,0-.73,0-1.46,0-2.18S9.69,13,10.47,13h1.8c1.07,0,1.32.28,1.34,1.36Zm-.85.08a2.62,2.62,0,0,1,0-.56c.17-1-.23-1.24-1.18-1.19-1.68.1-1.45-.17-1.48,1.47a7.37,7.37,0,0,1,0,.94c-.11.81.23,1,1,1C12.76,17.17,12.76,17.21,12.76,15.56Z"/></g></g></svg>