<svg xmlns="http://www.w3.org/2000/svg" viewBox="0 0 30.52 24"><g id="Layer_2" data-name="Layer 2"><g id="Layer_1-2" data-name="Layer 1"><path d="M12.29,6.25a10.12,10.12,0,0,1-1.24,4.43,32.8,32.8,0,0,1-3.13,4.87c-.34.46-.67.93-1,1.38a.9.9,0,0,1-1.47,0,44.31,44.31,0,0,1-4.08-6.09A10.27,10.27,0,0,1,0,6a6.14,6.14,0,0,1,12.22-.74A6.55,6.55,0,0,1,12.29,6.25Zm-6-4.68A4.6,4.6,0,0,0,1.61,5.48a6.88,6.88,0,0,0,.68,3.76A30.82,30.82,0,0,0,6,15.15c.17.23.22,0,.3-.07.72-.95,1.43-1.91,2.07-2.91a15,15,0,0,0,2.17-4.56A4.66,4.66,0,0,0,6.33,1.57Z"/><path d="M18.22,13a6.14,6.14,0,0,1,12.19-1.23,7.91,7.91,0,0,1-.65,4.52,25.56,25.56,0,0,1-3.1,5.23c-.5.69-1,1.38-1.51,2.06a.9.9,0,0,1-1.54,0A55,55,0,0,1,20,18.4a13.77,13.77,0,0,1-1.67-4.18A5.77,5.77,0,0,1,18.22,13Zm1.55-.1a8.1,8.1,0,0,0,.91,3.42,30.17,30.17,0,0,0,3.18,5c.16.21.32.57.5.58s.34-.36.49-.57a27.21,27.21,0,0,0,3.41-5.51,6.47,6.47,0,0,0,.6-3.87,4.59,4.59,0,0,0-9.09.93Z"/><path d="M7.45,20.28H6.25a.78.78,0,1,1,0-1.56,25.64,25.64,0,0,1,2.63,0,.77.77,0,0,1,.66,1.09.79.79,0,0,1-.8.46H7.45Z"/><path d="M13.88,21.11,13.34,21a20.93,20.93,0,0,0-2.06-.43.77.77,0,0,1-.65-.87.75.75,0,0,1,.86-.66,15,15,0,0,1,2.73.6.77.77,0,0,1,.52.89A.81.81,0,0,1,13.88,21.11Z"/><path d="M16.43,20.53a.87.87,0,0,1,.45.13A12,12,0,0,1,19,22.1a.78.78,0,1,1-1,1.2,11.83,11.83,0,0,0-2-1.31.76.76,0,0,1-.4-.89A.78.78,0,0,1,16.43,20.53Z"/><path d="M6.14,9.43A3.41,3.41,0,1,1,9.56,6.05,3.41,3.41,0,0,1,6.14,9.43ZM8,6A1.85,1.85,0,1,0,6.18,7.88,1.85,1.85,0,0,0,8,6Z"/><path d="M27.76,12.71A3.41,3.41,0,1,1,24.4,9.29,3.41,3.41,0,0,1,27.76,12.71Zm-5.24-.05a1.85,1.85,0,0,0,3.69.06,1.85,1.85,0,1,0-3.69-.06Z"/></g></g></svg>