<svg xmlns="http://www.w3.org/2000/svg" viewBox="0 0 28.63 25.5"><defs><style>.cls-1{fill:none;stroke:#000;stroke-linecap:round;stroke-linejoin:round;stroke-width:1.5px;}</style></defs><g id="Layer_2" data-name="Layer 2"><g id="Layer_1-2" data-name="Layer 1"><path class="cls-1" d="M22.66,21.58a12.81,12.81,0,0,0,5.21-.67,4.17,4.17,0,0,0-6.52-3.78m1.31,4.45v0c0,.31,0,.62-.05.93a16.75,16.75,0,0,1-8.3,2.2A16.6,16.6,0,0,1,6,22.55a6.37,6.37,0,0,1,0-1m16.69,0a8.26,8.26,0,0,0-1.31-4.45m0,0a8.34,8.34,0,0,0-14.07,0m0,0a4.17,4.17,0,0,0-5.8,1.09,4.22,4.22,0,0,0-.72,2.69A12.48,12.48,0,0,0,6,21.58m1.3-4.45A8.34,8.34,0,0,0,6,21.58M18.49,4.92A4.18,4.18,0,1,1,14.31.75,4.18,4.18,0,0,1,18.49,4.92ZM26.84,9.1A3.14,3.14,0,1,1,23.7,6,3.14,3.14,0,0,1,26.84,9.1ZM8.05,9.1A3.13,3.13,0,1,1,4.92,6,3.13,3.13,0,0,1,8.05,9.1Z"/></g></g></svg>