<svg xmlns="http://www.w3.org/2000/svg" viewBox="0 0 25.96 24"><g id="Layer_2" data-name="Layer 2"><g id="Layer_1-2" data-name="Layer 1"><path d="M12,24c-3.05,0-6.11,0-9.16,0-.85,0-1.16-.31-1.15-1.15,0-3.74,0-7.47,0-11.21,0-.51.08-1.05-.73-.94A.76.76,0,0,1,0,10.18c-.15-.45.17-.71.48-1l9.68-8c2.06-1.69,1.51-1.65,3.63,0,.93.69,1.84,1.4,2.75,2.11.38.3.68.65.32,1.12s-.78.32-1.17,0C14.67,3.65,13.6,2.85,12.56,2c-.38-.3-.63-.37-1.05,0q-3.94,3.31-8,6.56a1.17,1.17,0,0,0-.45,1c0,4.09,0,8.19,0,12.28,0,.55.11.79.73.77,1.24-.05,2.49,0,3.74,0,.55,0,.7-.17.69-.71,0-2,0-4.09,0-6.14,0-1.34.35-1.68,1.69-1.69s2.85,0,4.27,0c1.1,0,1.49.41,1.5,1.52,0,2.05,0,4.09,0,6.14,0,.62.12.91.83.88,1.21-.06,2.43,0,3.65,0,.55,0,.71-.18.7-.72,0-1.87,0-3.74,0-5.6a1.36,1.36,0,0,1,.17-.86.65.65,0,0,1,.72-.22c.47.12.52.51.52.91v5.78c0,2.31.12,2.11-2.13,2.11Zm2.32-5c0-.94,0-1.89,0-2.84,0-.51-.12-.75-.69-.73-1.09,0-2.18,0-3.28,0-.48,0-.69.13-.68.65q0,2.92,0,5.85c0,.45.15.64.62.63,1.15,0,2.3,0,3.45,0,.5,0,.59-.21.58-.64C14.29,21,14.3,20,14.31,19Z"/><path d="M17.26,6.18a4.35,4.35,0,0,1,7.65-2.83,4.15,4.15,0,0,1,.47,4.88c-1,1.79-2,3.58-3,5.36-.56,1-1.07,1-1.64,0L17.7,8A3.6,3.6,0,0,1,17.26,6.18Zm4.34,6c1-1.84,1.93-3.48,2.77-5.18a2.7,2.7,0,0,0-.93-3.1A2.9,2.9,0,0,0,20,3.78a2.71,2.71,0,0,0-1.16,3.1C19.63,8.63,20.6,10.32,21.6,12.19Z"/><path d="M23.11,5.88a1.49,1.49,0,0,1-1.5,1.52A1.47,1.47,0,0,1,20.09,6a1.51,1.51,0,1,1,3-.1Z"/></g></g></svg>