<svg xmlns="http://www.w3.org/2000/svg" viewBox="0 0 22.01 24"><g id="Layer_2" data-name="Layer 2"><g id="Layer_1-2" data-name="Layer 1"><path d="M0,12.47c0-3,0-6,0-9.07A3.18,3.18,0,0,1,3.19,0Q11.11,0,19,0c2.07,0,3,1,3,3.07,0,1.6,0,3.19,0,4.78,0,1-.13,1.1-1.09,1.09L18.31,9c-1.07,0-.95-.12-.95.92,0,3.21,0,6.42,0,9.63,0,.5,0,1,0,1.48a3.08,3.08,0,0,1-1.29,2.65.83.83,0,0,1-1.29,0c-.35-.34-.69-.89-1.08-.94s-.69.61-1.05.93a.89.89,0,0,1-1.36-.05c-.33-.29-.58-.85-1-.82s-.61.53-.92.81c-.58.54-.79.53-1.44,0-.36-.29-.64-.88-1.06-.83s-.67.55-1,.87c-.47.51-.87.48-1.36,0-1-1-1-1-2-.05-.68.65-.72.58-1.42,0A3.13,3.13,0,0,1,0,20.77c.08-2.76,0-5.53,0-8.3ZM17.23.92A2,2,0,0,0,17,.86C13.1.83,9.23.8,5.37.79a14.25,14.25,0,0,0-2,.15A2.66,2.66,0,0,0,.76,3.68,13.81,13.81,0,0,0,.68,6c.26,5.19.43,10.39.21,15.6,0,.67.45,1,.86,1.25s.47-.33.73-.49a1.13,1.13,0,0,0,.25-.24c.74-.67,1-.66,1.71,0s.82.78,1.65,0,1-.7,1.71,0a2.81,2.81,0,0,1,.35.34c.37.54.67.42,1.08,0,1.08-1.12,1.26-1.1,2.33.05l.1.11c.23.35.43.28.71,0,1.35-1.23,1.35-1.22,2.79,0,.13.11.25.35.46.16.46-.42,1-.79,1-1.55,0-5.85,0-11.71,0-17.57A4,4,0,0,1,17.23.92Zm3.91,4.34h0c0-.93,0-1.87,0-2.8a1.6,1.6,0,0,0-1-1.4,1.81,1.81,0,0,0-2.67,1.67c-.08,1.66,0,3.32,0,5,0,.37.18.41.48.41.94,0,1.87,0,2.81,0,.43,0,.49-.18.49-.54C21.13,6.81,21.14,6,21.14,5.26Z"/><path d="M8.74,16.39h5c.3,0,.68,0,.67.41s-.36.43-.68.43H3.89a1.27,1.27,0,0,1-.28,0c-.26-.05-.65,0-.65-.37s.38-.45.72-.45Z"/><path d="M10.46,10.65h3.37c.3,0,.6,0,.62.38s-.3.46-.62.46H6.94c-.29,0-.63,0-.64-.38s.3-.47.64-.47h3.52Z"/><path d="M10.36,14.31H7c-.31,0-.67,0-.69-.41s.35-.43.66-.43h6.81c.29,0,.68-.05.67.4s-.37.45-.72.44Z"/><path d="M6.76,4.86H3.6c-.28,0-.63,0-.64-.37S3.26,4,3.6,4H9.85c.27,0,.63,0,.64.36s-.36.47-.71.46Z"/><path d="M8.09,8.52H6.76c-.26,0-.48-.11-.47-.41a.43.43,0,0,1,.47-.42H9.49c.26,0,.48.1.46.41a.43.43,0,0,1-.46.43H8.09Z"/><path d="M13,7.69c.35,0,.7,0,1,0s.44.07.45.34a.41.41,0,0,1-.38.49c-.77,0-1.55,0-2.32,0a.37.37,0,0,1-.4-.4.43.43,0,0,1,.47-.42H13Z"/><path d="M3.9,8.55c-.37-.05-.95.08-1-.43s.6-.45,1-.44,1-.18,1,.42S4.3,8.49,3.9,8.55Z"/><path d="M4,11.52c-.4-.07-1,.11-1-.44s.65-.42,1-.43.93-.13.92.43S4.34,11.45,4,11.52Z"/><path d="M4,14.33c-.37-.08-1,.14-1-.46s.63-.4,1-.41.94-.1.95.41S4.33,14.25,4,14.33Z"/></g></g></svg>