<svg xmlns="http://www.w3.org/2000/svg" viewBox="0 0 23.52 24"><g id="Layer_2" data-name="Layer 2"><g id="Layer_1-2" data-name="Layer 1"><path d="M11.78,0A7.53,7.53,0,0,1,17,2a7.62,7.62,0,0,1,2.44,4.9,6.7,6.7,0,0,1-.49,3.16,23.65,23.65,0,0,1-1.73,3.54,59.78,59.78,0,0,1-3.3,5,5.17,5.17,0,0,1-.63.77,2.27,2.27,0,0,1-3.34-.35C9,17.82,8.09,16.52,7.24,15.18a28.78,28.78,0,0,1-2.5-4.72,7.2,7.2,0,0,1-.67-3A7.49,7.49,0,0,1,5.3,3.51,7.62,7.62,0,0,1,10.87,0l.46,0Zm.71,1.09A6.67,6.67,0,0,0,5.43,5.75a5.26,5.26,0,0,0-.16,2.94,12.83,12.83,0,0,0,1,2.68,39.41,39.41,0,0,0,2.5,4.25c.61.92,1.27,1.8,1.88,2.72a1.25,1.25,0,0,0,2.14,0c.47-.71,1-1.39,1.46-2.09.77-1.13,1.5-2.28,2.17-3.47a20.86,20.86,0,0,0,1.48-3.09,5.59,5.59,0,0,0,.44-2,6.21,6.21,0,0,0-.75-3A6.41,6.41,0,0,0,12.49,1.09Z"/><path d="M11.54,22.93a22.27,22.27,0,0,0,6.38-.82,10.62,10.62,0,0,0,3-1.35,3.94,3.94,0,0,0,1.19-1.18,1.72,1.72,0,0,0,0-1.94,4.22,4.22,0,0,0-1.47-1.35A12.24,12.24,0,0,0,17.28,15c-.29-.08-.29-.07-.13-.32s.24-.39.35-.59a.16.16,0,0,1,.2-.09,11.89,11.89,0,0,1,4.17,1.87,4.29,4.29,0,0,1,1.42,1.71A2.74,2.74,0,0,1,23,20.17,5.59,5.59,0,0,1,21,22a14.62,14.62,0,0,1-4.49,1.56,24.44,24.44,0,0,1-5.33.43A22.38,22.38,0,0,1,5,23.06a10.63,10.63,0,0,1-3.47-1.72A4,4,0,0,1,.12,19.4,2.75,2.75,0,0,1,.54,17a5.78,5.78,0,0,1,2.12-1.81A13.58,13.58,0,0,1,5.74,14c.15,0,.24,0,.32.13a4.41,4.41,0,0,0,.37.62c.08.13.05.17-.09.21a13.73,13.73,0,0,0-2.42.8,6.7,6.7,0,0,0-2.25,1.51,2.26,2.26,0,0,0-.55,1,1.71,1.71,0,0,0,.24,1.34A4.2,4.2,0,0,0,2.89,21a12.39,12.39,0,0,0,3.19,1.28,20.17,20.17,0,0,0,3.53.59A17.63,17.63,0,0,0,11.54,22.93Z"/><path d="M11.75,11a3.51,3.51,0,1,1,3.52-3.49A3.48,3.48,0,0,1,11.75,11ZM9.31,7.55A2.45,2.45,0,1,0,11.64,5.1,2.47,2.47,0,0,0,9.31,7.55Z"/></g></g></svg>