<svg xmlns="http://www.w3.org/2000/svg" viewBox="0 0 29.81 24"><g id="Layer_2" data-name="Layer 2"><g id="Layer_1-2" data-name="Layer 1"><path d="M3.68,17.29C3,18.08,2.49,18.77,2,19.46c-.14.17-.22.1-.32,0L0,17.4c.06,0,.08-.09.11-.1.39-.07.91.17,1.14-.11s.13-.76.19-1.15a6.73,6.73,0,1,1,2.3,6.41c-.34-.29-.41-.47,0-.81s.41-.11.62.06a5.81,5.81,0,1,0,2.13-10,5.88,5.88,0,0,0-4.19,5.09c0,.4.08.55.48.51S3.27,17.29,3.68,17.29Z"/><path d="M8.53,14.75v.12a3.56,3.56,0,0,0,1.63,3.55c.46.3.28.52,0,.81s-.31.18-.49,0-.52-.43-.77-.65A1.35,1.35,0,0,0,8,18.18a.89.89,0,0,1-.67-1.47,1.24,1.24,0,0,0,.28-.86c0-.79,0-1.58,0-2.37,0-.36.06-.54.48-.54s.46.23.45.56S8.53,14.33,8.53,14.75Z"/><path d="M15.87,8.13H3.38c-.43,0-.43,0-.44.44s0,.91,0,1.36a.48.48,0,0,1-.51.53.47.47,0,0,1-.49-.54c0-2.51,0-5,0-7.52A2.46,2.46,0,0,1,4.43,0H27a2.85,2.85,0,0,1,1.85.51,2.39,2.39,0,0,1,1,1.94q0,6.54,0,13.09A2.47,2.47,0,0,1,27.29,18C23.85,18,20.4,18,17,18c-.4,0-.63-.2-.63-.52s.22-.5.64-.5h10.2a1.52,1.52,0,0,0,1.65-1.66V8.59c0-.46,0-.46-.44-.46H15.87Zm0-4H3.35c-.32,0-.42.09-.41.41,0,.73,0,1.47,0,2.2,0,.31.07.41.4.41H28.39c.33,0,.44-.08.43-.43,0-.71,0-1.44,0-2.16,0-.32-.06-.43-.42-.43C24.23,4.13,20.05,4.12,15.88,4.12Zm0-1H28.6c.15,0,.2-.08.21-.22A1.57,1.57,0,0,0,27.13,1H4.6A1.5,1.5,0,0,0,3,2.66c0,.43,0,.43.42.43Z"/><path d="M21.52,11.52H16.9c-.35,0-.56-.16-.58-.45s.18-.54.56-.54h9.27c.47,0,.7.25.59.64s-.29.35-.56.35Z"/><path d="M19.4,13.2h2.38c.39,0,.62.19.63.49s-.21.52-.6.52h-4.9c-.4,0-.6-.2-.59-.52s.22-.48.62-.49Z"/></g></g></svg>