<svg xmlns="http://www.w3.org/2000/svg" viewBox="0 0 23.48 24"><g id="Layer_2" data-name="Layer 2"><g id="Layer_1-2" data-name="Layer 1"><path d="M20.59,22.62a.7.7,0,0,0-.93.58,1,1,0,0,1-.84.7,6.56,6.56,0,0,1-1.08.09c-4,0-8,0-12.06,0-.95,0-1.76-.12-2-1.2-.05-.22-.26-.27-.44-.33a1.38,1.38,0,0,1-.94-1.25Q1.36,14,.45,6.74C.31,5.62.17,4.5,0,3.38A1.33,1.33,0,0,1,1.23,1.7C3,1.43,4.85,1.21,6.66,1l7.72-1A1.32,1.32,0,0,1,15.9.8a.79.79,0,0,0,.83.53c1.66.1,3.31.2,5,.27,1.39.06,1.88.68,1.76,2-.15,1.67-.22,3.35-.32,5q-.32,5.05-.62,10.11c0,.77,0,1.53-.13,2.3C22.26,22.26,21.88,22.63,20.59,22.62Zm-16-9.21v8.68c0,.75.11.87.84.87H18c.6,0,.82-.25.82-.85,0-5.76,0-11.53,0-17.3,0-.75-.11-.86-.84-.87H5.49c-.77,0-.87.1-.87.9Zm-1-.69c0-2.68,0-5.37,0-8,0-1.28.48-1.76,1.78-1.77h9.19c.2,0,.46.09.57-.17A1.19,1.19,0,0,0,14,1.05L1.74,2.58c-.57.07-.81.29-.73.92C1.76,9.32,2.48,15.14,3.21,21c0,.19,0,.46.26.45s.17-.29.17-.45Q3.66,16.84,3.65,12.72Zm16.17-.06c0,2.72,0,5.45,0,8.17,0,.54.11.84.74.83s.85-.15.88-.78c.11-2.25.26-4.5.4-6.75.2-3.28.42-6.57.59-9.86.09-1.65,0-1.64-1.59-1.73-1.31-.06-2.63-.16-3.94-.23-.23,0-.6-.13-.61.26s.38.31.62.32c.43,0,.86,0,1.28,0,1.19.05,1.64.52,1.64,1.72Z"/><path d="M11.8,20.15h4.85a3.63,3.63,0,0,1,.57,0c.29,0,.49.18.49.48a.45.45,0,0,1-.44.47,3.28,3.28,0,0,1-.63.05c-3.27,0-6.54,0-9.81,0-.43,0-1,.12-1-.52s.63-.5,1-.5Z"/><path d="M10.54,18.07h4c.34,0,.75,0,.76.46s-.4.49-.74.49h-8c-.35,0-.75,0-.76-.48s.39-.48.74-.48Z"/><path d="M9.82,16.88H6.45c-.35,0-.68-.06-.67-.49s.32-.46.64-.46h6.81c.32,0,.63.08.64.46s-.33.49-.67.49Z"/><path d="M7.64,6.1c-.42,0-.85,0-1.27,0S5.76,6,5.76,5.6s.26-.48.55-.49c.91,0,1.82,0,2.73,0,.29,0,.55.14.55.5s-.26.48-.55.49c-.47,0-.93,0-1.4,0Z"/><path d="M6.83,7.8H6.39c-.33,0-.63-.1-.62-.48s.31-.47.64-.48h1c.33,0,.61.12.61.5s-.31.46-.63.46Z"/><path d="M16.69,19c-.12,0-.25,0-.38,0-.3,0-.56-.13-.56-.48s.25-.46.56-.46h.83c.3,0,.58.09.57.45s-.26.47-.57.49C17,19,16.84,19,16.69,19Z"/></g></g></svg>