<svg xmlns="http://www.w3.org/2000/svg" viewBox="0 0 29.97 24.5"><defs><style>.cls-1{stroke:#000;stroke-miterlimit:10;stroke-width:0.5px;}</style></defs><g id="Layer_2" data-name="Layer 2"><g id="Layer_1-2" data-name="Layer 1"><path class="cls-1" d="M20.5,15.35a.46.46,0,0,1-.21-.08L8.47,8.44,7.61,8a.35.35,0,0,1-.14-.54l4-6.92c.15-.27.31-.3.58-.15l3,1.74a.24.24,0,0,0,.29,0,6.39,6.39,0,0,1,1.73-.82,6.73,6.73,0,0,1,4,.28,11.22,11.22,0,0,1,3.51,2.15.23.23,0,0,0,.33,0c.63-.38,1.28-.75,1.92-1.12.28-.16.44-.12.59.16.75,1.28,1.49,2.57,2.23,3.85.16.28.11.43-.17.59l-5.34,3.09a1.68,1.68,0,0,1-.3.15,1,1,0,0,0-.57.51c-.78,1.39-1.59,2.77-2.38,4.15A.4.4,0,0,1,20.5,15.35ZM15.89,2.56l1.28.74A5.8,5.8,0,0,0,18.62,4c.73.2,1.46.45,2.19.67a.33.33,0,0,1,.28.29c0,.26-.19.43-.47.35l-2.37-.73a7.7,7.7,0,0,0-1.07-.3A1.29,1.29,0,0,0,15.82,5a1.14,1.14,0,0,0,.5,1.36,2.9,2.9,0,0,0,1.05.46,9.27,9.27,0,0,1,1.53.54,4.77,4.77,0,0,1,2,1.54,4.92,4.92,0,0,0,.69.82,1.35,1.35,0,0,0,1.27.35,3.21,3.21,0,0,0,.89-.34l2.68-1.54c.12-.07.12-.12.06-.23-.67-1.15-1.33-2.3-2-3.45a.93.93,0,0,0-.13-.15,12.25,12.25,0,0,0-2.19-1.59,7,7,0,0,0-4-1A4.15,4.15,0,0,0,15.89,2.56Zm6.67,8.23a2,2,0,0,1-1.11-.29c-.11-.08-.15-.05-.21.05-.33.59-.67,1.17-1,1.76-.14.25-.26.29-.53.18a.4.4,0,0,0-.47.13c-.19.23-.3.25-.57.1l-2.78-1.61a.94.94,0,0,0-.28-.1,3.24,3.24,0,0,1-1.94-1.12.55.55,0,0,0-.22-.18L10.65,8.09c-.26-.15-.3-.26-.19-.53a.4.4,0,0,0-.14-.48c-.21-.17-.24-.3-.1-.53.62-1.09,1.25-2.17,1.88-3.26.14-.25.26-.29.54-.18A.39.39,0,0,0,13.09,3c.21-.25.31-.26.6-.1L15.58,4c.05,0,.1.08.15,0a2.49,2.49,0,0,1,.7-.38l-.14-.09C14.9,2.76,13.5,2,12.11,1.14c-.15-.08-.21-.07-.3.08L8.3,7.32c-.11.19-.11.19.08.3l4.78,2.75,7.08,4.1c.12.07.18.07.26-.07l1.9-3.29A1.37,1.37,0,0,0,22.56,10.79Zm-6.41-.4a2.59,2.59,0,0,0,2.58-2.18A.19.19,0,0,0,18.59,8a9.92,9.92,0,0,0-1.42-.49,3.58,3.58,0,0,1-1.35-.64,1.89,1.89,0,0,1-.72-1.18c0-.21,0-.21-.23-.11a2.59,2.59,0,0,0,1.28,4.84ZM13,8.69a3.4,3.4,0,0,1-.12-1.12,3.24,3.24,0,0,1,2.21-2.86c.05,0,.13,0,.14-.1s-.08-.08-.12-.1l-1.55-.9a.15.15,0,0,0-.19,0,1,1,0,0,1-.71.19.15.15,0,0,0-.17.1c-.52.9-1,1.8-1.57,2.7a.15.15,0,0,0,0,.18,1,1,0,0,1,.19.71.18.18,0,0,0,.11.19l.59.34ZM26.92,3.32l-.05,0L25.2,4.3c-.08,0-.05.09,0,.15l1.87,3.24c0,.08.08.09.16,0,.53-.32,1.07-.63,1.62-.94.08,0,.08-.09,0-.17s-.23-.39-.35-.59L27,3.43S27,3.33,26.92,3.32ZM17,11l.08.07,1.68,1a.14.14,0,0,0,.18,0,1,1,0,0,1,.69-.19.2.2,0,0,0,.21-.12c.26-.47.53-.93.8-1.39s.19-.33,0-.62c-.1-.11-.19-.23-.28-.35a3.46,3.46,0,0,0-.8-.82c-.11-.08-.14-.08-.18.06a3.18,3.18,0,0,1-1.72,2.16A5,5,0,0,1,17,11Z"/><path class="cls-1" d="M13,24.25a9.09,9.09,0,0,1-4.24-1.14,14.33,14.33,0,0,1-2.69-1.89.21.21,0,0,0-.29,0L3.48,22.52c-.27.16-.43.12-.59-.15L.33,17.93a.34.34,0,0,1,.15-.55L5.82,14.3a9.77,9.77,0,0,1,1.31-.71,4,4,0,0,1,1-.29,2.11,2.11,0,0,1,1.76.54,4.57,4.57,0,0,1,.83.93,5.16,5.16,0,0,0,2.59,1.92c.5.19,1,.3,1.5.47a3,3,0,0,1,1.6,1.07c.08.1.14,0,.2,0l3-1.76,1-.56a2.09,2.09,0,0,1,3.13,1.74,2,2,0,0,1-1,1.89c-.92.55-1.84,1.07-2.76,1.6l-4.23,2.45A5.83,5.83,0,0,1,13,24.25Zm0-.66a4.89,4.89,0,0,0,2.34-.54L22.38,19A1.43,1.43,0,1,0,21,16.49l-.75.44-3.31,1.9a.18.18,0,0,0-.11.22,1.76,1.76,0,0,1-.05.88,2.17,2.17,0,0,1-2.28,1.46,4.92,4.92,0,0,1-1.07-.26l-3-.93a.52.52,0,0,1-.23-.1.35.35,0,0,1-.06-.4.32.32,0,0,1,.41-.16l1.34.41,2.35.72a1.52,1.52,0,0,0,1.07-.06,1.32,1.32,0,0,0,.3-2.33,3.36,3.36,0,0,0-1.27-.59,11.93,11.93,0,0,1-1.53-.51,5.62,5.62,0,0,1-2.54-2,4.14,4.14,0,0,0-.73-.83A1.55,1.55,0,0,0,8.06,14a3.45,3.45,0,0,0-1,.4L3.93,16.16c-.13.07-.14.13-.07.25q1.15,2,2.28,3.94a1.16,1.16,0,0,0,.2.24,13.93,13.93,0,0,0,2.59,1.86A8.49,8.49,0,0,0,13,23.59Zm-9.81-7-.05,0-2,1.13c-.1.06-.07.11,0,.17l2.17,3.77c.06.1.1.1.19.05l1.91-1.11c.11-.06.11-.1,0-.2L4.59,19c-.44-.76-.88-1.53-1.33-2.29C3.24,16.66,3.23,16.61,3.16,16.6Z"/></g></g></svg>