<svg xmlns="http://www.w3.org/2000/svg" viewBox="0 0 24.06 24"><g id="Layer_2" data-name="Layer 2"><g id="Layer_1-2" data-name="Layer 1"><path d="M4.21,5.39A5.07,5.07,0,0,1,7.66,4.14c1-.09,1.34-.5,1.26-1.46-.06-.79,0-1.59,0-2.68,1.78,1.44,3.33,2.67,4.86,3.92,3.26,2.67,6.5,5.38,9.78,8,.73.58.64.84,0,1.35C19,16.72,14.53,20.17,10,23.62c-.23.17-.45.5-.76.34s-.15-.54-.15-.82c-.05-1.93-.06-1.89-2-2.27-2.37-.46-4.41-1.45-5.58-3.73l0,0a12.4,12.4,0,0,0,3.92,3,8.35,8.35,0,0,0,8.92-1.87,8.1,8.1,0,0,0,1.81-8.71A8.36,8.36,0,0,0,8.79,4.38a13.34,13.34,0,0,0-4.61,1Z"/><path d="M1.54,17.14c-2-1.91-1.94-7.07-.45-8.41l0,0a11.4,11.4,0,0,0-.72,5.05,22.12,22.12,0,0,0,1.17,3.41Z"/><path d="M1.09,8.73A5.38,5.38,0,0,1,4.21,5.39l0,0A19.75,19.75,0,0,0,1.06,8.7Z"/><path d="M8.37,9.87c-1-1.46-2.45-.95-3.72-1.15.07-.7.43-.93,1.08-.92,1.78,0,3.55,0,5.33,0,.25,0,.69-.2.72.24a.68.68,0,0,1-.7.71,5,5,0,0,0-.55,0c-.27.07-.79-.23-.75.33a.83.83,0,0,0,.83.86c.39,0,1.07-.29,1.12.26s-.61.7-1.15.67a.53.53,0,0,0-.57.43,3.35,3.35,0,0,1-2.79,2.24c-.83.15-.53.45-.2.83.89,1.08,1.79,2.16,2.66,3.27.23.28.84.65.49.94a1.13,1.13,0,0,1-1.51-.16c-.21-.22-.4-.45-.59-.67-1-1.16-1.95-2.32-2.93-3.47a1.07,1.07,0,0,1-.35-1.1c.18-.5.64-.24,1-.26a3.1,3.1,0,0,0,2.47-1,.91.91,0,0,0,.27-.81c-.14-.38-.51-.22-.78-.23-.77,0-1.55,0-2.33,0-.23,0-.69.21-.67-.28A.68.68,0,0,1,5.39,10c.7,0,1.41,0,2.11,0C7.74,10,8,9.91,8.37,9.87Z"/></g></g></svg>