<svg xmlns="http://www.w3.org/2000/svg" viewBox="0 0 29.78 25"><defs><style>.cls-1{stroke:#000;stroke-miterlimit:10;}</style></defs><g id="Layer_2" data-name="Layer 2"><g id="Layer_1-2" data-name="Layer 1"><path class="cls-1" d="M14.25,24.5a11.65,11.65,0,0,1-9-4.94A11.71,11.71,0,0,1,2.9,13c0-.16-.06-.2-.22-.2H1a.43.43,0,0,1-.45-.25A.41.41,0,0,1,.67,12L4.51,8.2a.44.44,0,0,1,.73,0l3.15,3.15.69.67a.41.41,0,0,1,.14.49.42.42,0,0,1-.45.26H7.12c-.22,0-.26.06-.24.26a8,8,0,0,0,5.67,7.15,7.78,7.78,0,0,0,4.33.1.6.6,0,0,1,.64.18l2.25,2.26c.34.33.28.63-.14.81A12.84,12.84,0,0,1,14.25,24.5ZM4.88,12.77H3.64c-.15,0-.19.06-.18.21a11,11,0,0,0,1.39,5,11.25,11.25,0,0,0,7.72,5.72,11.26,11.26,0,0,0,6.54-.56c.19-.07.19-.13.05-.27L17.24,21a.35.35,0,0,0-.38-.11,8.09,8.09,0,0,1-2.94.18,8.48,8.48,0,0,1-6.24-3.89A8.11,8.11,0,0,1,6.33,13c0-.21-.08-.26-.28-.25C5.66,12.78,5.27,12.77,4.88,12.77Zm3.54-.57c-.27-.28-.51-.55-.77-.8L5,8.78c-.12-.12-.19-.14-.32,0L1.84,11.64a3.56,3.56,0,0,0-.53.56Z"/><path class="cls-1" d="M15.38.5a11.76,11.76,0,0,1,10,6.21,11.06,11.06,0,0,1,1.45,4.77,4.93,4.93,0,0,1,0,.55c0,.15.07.19.21.19h1.68a.43.43,0,0,1,.33.78c-1.28,1.28-2.56,2.55-3.83,3.83a.43.43,0,0,1-.71,0l-3.76-3.75-.14-.16a.38.38,0,0,1-.08-.44.4.4,0,0,1,.4-.26h1.67c.2,0,.28,0,.26-.26a7.82,7.82,0,0,0-.71-2.77A1.38,1.38,0,0,1,22,8.45a.27.27,0,0,0-.26-.32A.28.28,0,0,1,21.5,8a7.94,7.94,0,0,0-4.8-3.28,7.57,7.57,0,0,0-3.81,0,.59.59,0,0,1-.62-.17C11.52,3.8,10.75,3.05,10,2.29c-.32-.32-.27-.62.14-.8A12.76,12.76,0,0,1,15.38.5ZM10.49,2s0,.05,0,.06l2.1,2.12c.07.08.15.06.23,0a7.91,7.91,0,0,1,1.2-.2,8.38,8.38,0,0,1,6.27,1.9A8.42,8.42,0,0,1,23.45,12c0,.18.06.24.25.24.79,0,1.58,0,2.37,0,.22,0,.27-.06.26-.27a11.88,11.88,0,0,0-.77-3.58,11.47,11.47,0,0,0-13.45-7A9.37,9.37,0,0,0,10.49,2ZM21.36,12.78c0,.08.05.11.09.14l3.28,3.3c.13.13.21.14.34,0l3.27-3.29c.05,0,.13-.07.1-.16Z"/></g></g></svg>