<svg xmlns="http://www.w3.org/2000/svg" viewBox="0 0 23.89 24"><g id="Layer_2" data-name="Layer 2"><g id="Layer_1-2" data-name="Layer 1"><path d="M12,0A12,12,0,1,1,0,11.94,12,12,0,0,1,12,0ZM1.43,12A10.58,10.58,0,0,0,11.94,22.57,10.57,10.57,0,1,0,1.43,12Z"/><path d="M3.84,8.49H6.08v7H3.84Z"/><path d="M7.39,8.49h5v1.7H9.61v1H11.8v1.56H9.61v1h2.92v1.7H7.39Z"/><path d="M13,12V12a3.44,3.44,0,0,1,3.62-3.58c1.89,0,3.16.86,3.33,2.76H17.67a1,1,0,0,0-1-1c-.8,0-1.29.63-1.29,1.82V12c0,1.17.47,1.82,1.33,1.82a1.06,1.06,0,0,0,1.15-1h2.22c-.12,1.84-1.47,2.81-3.32,2.81C14.2,15.62,13,14.18,13,12Z"/></g></g></svg>