<svg xmlns="http://www.w3.org/2000/svg" viewBox="0 0 15.19 24.5"><defs><style>.cls-1{stroke:#000;stroke-miterlimit:10;stroke-width:0.5px;}</style></defs><g id="Layer_2" data-name="Layer 2"><g id="Layer_1-2" data-name="Layer 1"><path class="cls-1" d="M3,4.2V2.65A1.78,1.78,0,0,1,4.9.86a1.67,1.67,0,0,1,.93.33c.1.08.15.09.22,0a1.76,1.76,0,0,1,3.3.93c0,.28,0,.57,0,.89A4.89,4.89,0,0,1,10,2.71a1.78,1.78,0,0,1,2.14,1.78c0,1.41,0,2.82,0,4.23v.11c0,.16,0,.21.19.12a1.7,1.7,0,0,1,1.88.14,1.65,1.65,0,0,1,.71,1.36c0,2.28.07,4.56,0,6.83a6.94,6.94,0,0,1-4,6.14A7.31,7.31,0,0,1,.38,18.27a7.15,7.15,0,0,1-.13-1.46V5.8A1.78,1.78,0,0,1,1.89,3.89,1.86,1.86,0,0,1,3,4.2ZM1,11.59v5.18a7.15,7.15,0,0,0,.14,1.46,6.59,6.59,0,0,0,13-.88c0-.27,0-.54,0-.8v-6a1,1,0,0,0-.89-1.07,1,1,0,0,0-1.15,1v4.12c0,.35-.09.46-.44.51a5.68,5.68,0,0,0-1,.23,3.3,3.3,0,0,0-2.27,2.24,4.82,4.82,0,0,0-.16,1.2.37.37,0,1,1-.74,0,4.15,4.15,0,0,1,1.23-3.17,4.75,4.75,0,0,1,2.45-1.19c.15,0,.18-.09.18-.22V4.47a1.08,1.08,0,0,0-.27-.71A1,1,0,0,0,10,3.49a1,1,0,0,0-.65,1q0,3.56,0,7.11a1.61,1.61,0,0,1,0,.22.37.37,0,0,1-.74,0,1.77,1.77,0,0,1,0-.23V2a1,1,0,0,0-2,.12v9.49a1.34,1.34,0,0,1,0,.2.37.37,0,0,1-.34.34.38.38,0,0,1-.39-.32.81.81,0,0,1,0-.22v-9a1,1,0,1,0-2,.15v9.07a.37.37,0,0,1-.33.34.36.36,0,0,1-.39-.26.77.77,0,0,1,0-.26v-6a1,1,0,0,0-1.17-.93A1,1,0,0,0,1,5.78Z"/></g></g></svg>