<svg xmlns="http://www.w3.org/2000/svg" viewBox="0 0 29.55 24.81"><defs><style>.cls-1{stroke:#000;stroke-miterlimit:10;stroke-width:0.81px;}</style></defs><g id="Layer_2" data-name="Layer 2"><g id="Layer_1-2" data-name="Layer 1"><path class="cls-1" d="M4.1,17.91v4.75c0,.64.15.78.8.79.28,0,.56,0,.85,0a.44.44,0,0,1,.44.47.42.42,0,0,1-.44.46,11.35,11.35,0,0,1-1.43,0,1.47,1.47,0,0,1-1.21-1.51c0-1.09,0-2.18,0-3.27,0-1.85,0-3.7,0-5.55,0-.35,0-.48-.44-.32A1.61,1.61,0,0,1,.6,13a1.66,1.66,0,0,1,.49-2.12l11.34-9L13.58.87a1.75,1.75,0,0,1,2.34,0c2.49,2,5,4,7.46,5.94l5,4A1.7,1.7,0,0,1,28.94,13a1.63,1.63,0,0,1-2.16.69c-.43-.17-.34.12-.34.32v8.51a4.87,4.87,0,0,1,0,.54,1.46,1.46,0,0,1-1.33,1.34c-.4,0-.81,0-1.21,0s-.53-.14-.53-.47.24-.46.54-.47h.81c.58,0,.78-.21.78-.79V13.17a.74.74,0,0,0-.31-.69q-5-4-10-8a.48.48,0,0,0-.7,0q-5,4-10,8a.9.9,0,0,0-.36.8C4.11,14.78,4.1,16.34,4.1,17.91ZM28.17,12.2a.79.79,0,0,0-.36-.65L15.45,1.71c-.55-.44-.78-.44-1.34,0L13.72,2,7.28,7.14c-1.84,1.47-3.69,2.94-5.52,4.42-.45.36-.5.73-.2,1.07a.71.71,0,0,0,1.07,0l7.49-6c1.38-1.09,2.76-2.18,4.13-3.29a.7.7,0,0,1,1.06,0l.25.19,10,8L27,12.71a.68.68,0,0,0,.76.09A.73.73,0,0,0,28.17,12.2Z"/><polygon points="13.59 18.77 19.5 12.86 21.87 15.22 13.59 23.49 7.68 17.58 10.05 15.22 13.59 18.77"/></g></g></svg>