<svg xmlns="http://www.w3.org/2000/svg" viewBox="0 0 18.16 24.5"><defs><style>.cls-1{stroke:#000;stroke-miterlimit:10;stroke-width:0.5px;}</style></defs><g id="Layer_2" data-name="Layer 2"><g id="Layer_1-2" data-name="Layer 1"><path class="cls-1" d="M17.9,12.26V22.57a1.51,1.51,0,0,1-1.66,1.67c-4.76,0-9.53,0-14.3,0a1.62,1.62,0,0,1-1.69-1.7c0-6.87,0-13.74,0-20.62A1.55,1.55,0,0,1,1.14.4a1.52,1.52,0,0,1,.7-.15H16.35A1.5,1.5,0,0,1,17.9,1.89q0,5.18,0,10.37Zm-.66,0V1.89a.87.87,0,0,0-1-1H2c-.71,0-1,.33-1,1V22.58a.87.87,0,0,0,1,1H16.25a.87.87,0,0,0,1-1Z"/><path class="cls-1" d="M12,12.25c0-1.39,0-2.79,0-4.19,0-.51.19-.7.71-.7.67,0,1.35,0,2,0,.46,0,.68.21.68.67q0,4.22,0,8.42c0,.48-.23.69-.71.69H12.61a.58.58,0,0,1-.66-.66C11.94,15.07,12,13.66,12,12.25Zm2.75,0c0-1.33,0-2.66,0-4,0-.21-.05-.27-.27-.27-.53,0-1.06,0-1.59,0-.16,0-.24,0-.24.23q0,4,0,8c0,.2.08.23.25.23.53,0,1.06,0,1.58,0,.22,0,.27-.07.27-.27C14.7,14.9,14.7,13.59,14.7,12.28Z"/><path class="cls-1" d="M10.81,13.51c0,1,0,1.94,0,2.91,0,.51-.21.72-.73.72H8a.6.6,0,0,1-.68-.66V10.54c0-.44.24-.65.68-.66h2c.53,0,.73.21.73.72C10.81,11.57,10.8,12.54,10.81,13.51Zm-.68,0c0-.9,0-1.81,0-2.72,0-.21-.05-.28-.27-.27H8.31c-.18,0-.27,0-.27.24,0,1.82,0,3.63,0,5.45,0,.21.09.24.27.24q.78,0,1.56,0c.21,0,.26-.07.26-.27C10.12,15.32,10.13,14.43,10.13,13.54Z"/><path class="cls-1" d="M6.23,14.41v2c0,.53-.2.72-.73.72h-2a.6.6,0,0,1-.68-.66c0-1.38,0-2.75,0-4.13a.61.61,0,0,1,.67-.67h2.1a.59.59,0,0,1,.67.66c0,.69,0,1.38,0,2.06Zm-2.76,0c0,.61,0,1.22,0,1.83,0,.17,0,.25.23.24.54,0,1.09,0,1.64,0,.15,0,.22,0,.21-.2,0-1.24,0-2.47,0-3.71,0-.17-.06-.22-.23-.22H3.74c-.2,0-.28.06-.27.27C3.48,13.21,3.47,13.81,3.47,14.41Z"/></g></g></svg>