<svg xmlns="http://www.w3.org/2000/svg" viewBox="0 0 27.16 24"><g id="Layer_2" data-name="Layer 2"><g id="Layer_1-2" data-name="Layer 1"><path d="M26.22,11.06V7.22a3.82,3.82,0,0,0-2.94-3.71A3.81,3.81,0,0,0,19.48,0H5.74A5.73,5.73,0,0,0,.07,4.87H0V18.26A5.74,5.74,0,0,0,5.74,24H22.4a3.82,3.82,0,0,0,3.82-3.83V17.75a1.28,1.28,0,0,0,.94-1.23V12.29A1.29,1.29,0,0,0,26.22,11.06Zm-1.28,9.11a2.49,2.49,0,0,1-.75,1.8,2.52,2.52,0,0,1-1.79.75H5.74a4.47,4.47,0,0,1-4.46-4.46V5.79l0-.25A4.44,4.44,0,0,1,5.74,1.28H19.48A2.55,2.55,0,0,1,22,3.4H3.5a.64.64,0,1,0,0,1.28H22.61a2.55,2.55,0,0,1,2.33,2.53V11H19a3.39,3.39,0,0,0-2.41,1h0a3.42,3.42,0,0,0,0,4.81h0a3.44,3.44,0,0,0,2.41,1h5.93v2.36Zm.93-3.65H19a2.12,2.12,0,0,1-2.12-2.12,2.07,2.07,0,0,1,.62-1.49h0a2.09,2.09,0,0,1,1.5-.62h6.86Z"/><path d="M18.14,14.4a.92.92,0,0,0,1.84,0,.92.92,0,0,0-1.84,0Z"/></g></g></svg>