<svg xmlns="http://www.w3.org/2000/svg" viewBox="0 0 20.35 24.25"><defs><style>.cls-1{stroke:#000;stroke-miterlimit:10;stroke-width:0.25px;}</style></defs><g id="Layer_2" data-name="Layer 2"><g id="Layer_1-2" data-name="Layer 1"><path class="cls-1" d="M6.63,16.78a.57.57,0,0,0-.12-.19C5.65,15.43,4.79,14.26,4,13.06c-.46-.69-.91-1.39-1.33-2.1A5.24,5.24,0,0,1,2,8.53,7.91,7.91,0,0,1,8.11.35a7.77,7.77,0,0,1,6.07,1,7.73,7.73,0,0,1,3.63,5.39,7.64,7.64,0,0,1-.09,3.05,3.09,3.09,0,0,1-.25.66,15,15,0,0,1-.9,1.56c-1,1.55-2.07,3-3.16,4.49a.76.76,0,0,0-.12.19c0,.06.08,0,.13,0a19,19,0,0,1,3.57.78,9.05,9.05,0,0,1,1.79.82,3.93,3.93,0,0,1,.82.64,2.06,2.06,0,0,1,.4.53,1.64,1.64,0,0,1,0,1.66,2.74,2.74,0,0,1-.57.7,5.7,5.7,0,0,1-1.18.77,12.21,12.21,0,0,1-2.69.92c-.72.16-1.44.28-2.16.37a26.26,26.26,0,0,1-4,.19,22.92,22.92,0,0,1-4.95-.64A11.36,11.36,0,0,1,2,22.6a4.78,4.78,0,0,1-1.23-.86,2.2,2.2,0,0,1-.4-.51,1.65,1.65,0,0,1,0-1.76A2.77,2.77,0,0,1,1,18.76a5.47,5.47,0,0,1,1-.68,11.65,11.65,0,0,1,2.62-.92c.6-.15,1.2-.26,1.81-.35ZM10,19.87l.1-.12c1-1.26,2-2.53,2.92-3.81s2.09-2.85,3-4.34a15.05,15.05,0,0,0,.78-1.34,3.28,3.28,0,0,0,.3-.83,7.17,7.17,0,0,0-.34-3.92A7.29,7.29,0,0,0,2.65,8.13a4.37,4.37,0,0,0,.61,2.47l.06.12c.4.7.84,1.37,1.3,2,1.65,2.4,3.42,4.72,5.22,7A.16.16,0,0,0,10,19.87ZM7.8,18.35c0-.07,0-.09-.06-.13l-.51-.68a.21.21,0,0,0-.23-.1A19.4,19.4,0,0,0,4.17,18a10.62,10.62,0,0,0-1.87.72,4.86,4.86,0,0,0-.93.62,2,2,0,0,0-.43.54.94.94,0,0,0,0,.92,1.76,1.76,0,0,0,.37.49,4.37,4.37,0,0,0,.59.45,8.45,8.45,0,0,0,2,.85,20.24,20.24,0,0,0,5.24.82,25.44,25.44,0,0,0,4-.15,18.25,18.25,0,0,0,3.26-.64,9.64,9.64,0,0,0,1.85-.77,3.46,3.46,0,0,0,.91-.7,1.07,1.07,0,0,0,0-1.62,3.33,3.33,0,0,0-.72-.58,7.21,7.21,0,0,0-1.34-.65,18.38,18.38,0,0,0-4.22-.92.18.18,0,0,0-.19.09l-.53.7s-.06,0-.05.11.05,0,.08,0a10.45,10.45,0,0,1,1.12.18,6.44,6.44,0,0,1,1.44.49,2,2,0,0,1,.59.42.88.88,0,0,1,0,1.28,1.89,1.89,0,0,1-.51.38,4.89,4.89,0,0,1-.82.34,12.53,12.53,0,0,1-3.16.48,16.32,16.32,0,0,1-2.42-.08A9.6,9.6,0,0,1,6,21.28a2.78,2.78,0,0,1-.92-.52,1.09,1.09,0,0,1-.34-.55.88.88,0,0,1,.25-.8,2.27,2.27,0,0,1,.75-.51,6.82,6.82,0,0,1,1.48-.44Zm2.37,2.83c.17,0,.35,0,.52,0a12.41,12.41,0,0,0,2.71-.34,5.47,5.47,0,0,0,1-.36,1.26,1.26,0,0,0,.38-.27c.14-.13.14-.21,0-.34a1.24,1.24,0,0,0-.35-.25,4.27,4.27,0,0,0-.67-.27,10.87,10.87,0,0,0-2.12-.4.2.2,0,0,0-.2.1l-1,1.23c-.1.13-.2.27-.31.39a.34.34,0,0,1-.55,0,.52.52,0,0,1-.1-.11c-.36-.46-.73-.92-1.08-1.4A.37.37,0,0,0,8.11,19a12.55,12.55,0,0,0-1.48.31,4.34,4.34,0,0,0-.8.33,1.28,1.28,0,0,0-.32.24c-.1.11-.1.18,0,.3a1.55,1.55,0,0,0,.39.28,4.23,4.23,0,0,0,1,.37A13,13,0,0,0,10.17,21.18Z"/><path class="cls-1" d="M13.4,7.72A3.47,3.47,0,1,1,9.94,4.27,3.44,3.44,0,0,1,13.4,7.72ZM9.92,10.46A2.75,2.75,0,1,0,7.16,7.69,2.76,2.76,0,0,0,9.92,10.46Z"/></g></g></svg>