<svg xmlns="http://www.w3.org/2000/svg" viewBox="0 0 18.96 24"><g id="Layer_2" data-name="Layer 2"><g id="Layer_1-2" data-name="Layer 1"><path d="M9.47,24H.73C.16,24,0,23.85,0,23.27c0-1.88,0-3.76,0-5.65a3.22,3.22,0,0,1,2.37-3.26c1-.3,2-.62,3-1a.75.75,0,0,0,.36-.27l.61-.78a.51.51,0,0,1,.89,0c.74,1,1.47,2,2.19,3,.14.19.18.14.29,0l2.05-2.9c.3-.43.67-.47,1,0a3.45,3.45,0,0,0,2,1.37c.73.22,1.44.51,2.16.76A3,3,0,0,1,19,17.32c0,2,0,4.07,0,6.11,0,.4-.2.57-.64.57Zm-.86-5.88h0L8,18.77c-.39.41-.81.32-1-.21l-1.35-4c0-.14-.08-.2-.24-.14-.86.35-1.75.62-2.62.91A2.09,2.09,0,0,0,1,17.39C1,19.18,1,21,1,22.78c0,.15.06.2.21.2.4,0,.8,0,1.2,0s.45,0,.45-.46c0-1.52,0-3.05,0-4.57a.52.52,0,0,1,.55-.59c.29,0,.47.23.47.59,0,1.59,0,3.18,0,4.77,0,.21.06.26.26.26H8.11a.17.17,0,0,0,.2-.09l-.61-.55a.55.55,0,0,1-.16-.63c.2-.64.39-1.3.58-1.95S8.45,18.67,8.61,18.12Zm2.2,4.79.13.06h3.94c.16,0,.17-.09.17-.21V17.91a.51.51,0,0,1,.58-.55.54.54,0,0,1,.44.6v4.77c0,.19,0,.26.23.25q.72,0,1.44,0c.13,0,.19,0,.19-.19,0-1.83,0-3.66,0-5.49a2,2,0,0,0-1.37-1.87c-.94-.34-1.89-.67-2.83-1-.18-.07-.24,0-.3.15-.4,1.32-.81,2.63-1.22,4-.19.59-.59.68-1,.23l-.62-.6c0,.08,0,.11,0,.14l1,3.4a.56.56,0,0,1-.17.67C11.23,22.52,11,22.71,10.81,22.91ZM9.6,18.57h0c-.31,1-.61,2-.92,3a.26.26,0,0,0,.07.28c.25.24.5.49.74.74.09.09.15.12.26,0,.24-.27.5-.51.76-.76a.22.22,0,0,0,0-.27c-.2-.67-.4-1.35-.61-2Zm1.85-1.11c.07-.2.13-.42.2-.64.3-.94.59-1.88.89-2.81a.61.61,0,0,0-.24-.59c-.09,0-.11,0-.14.08l-.27.4-1.57,2.22c-.05.07-.16.13-.05.24C10.67,16.72,11.06,17.09,11.45,17.46Zm-3.75.07,1.07-1.12a.16.16,0,0,0,0-.24c-.22-.28-.43-.57-.64-.86L6.86,13.57c0-.05-.08-.19-.16-.11s-.3.23-.21.47.23.66.34,1C7.11,15.78,7.4,16.64,7.7,17.53Z"/><path d="M7.78,0h3a1.66,1.66,0,0,1,1.5.72,9,9,0,0,0,1.52,1.57c.83.79.69.44.69,1.61a10.65,10.65,0,0,1,0,2.11,9.4,9.4,0,0,1-2.11,4.81A3.67,3.67,0,0,1,10,12.15a3.43,3.43,0,0,1-2.87-1,7.32,7.32,0,0,1-1.9-3.05,8.87,8.87,0,0,1-.63-3.56,1.14,1.14,0,0,0-.25-.87,2.24,2.24,0,0,1-.46-1.44V.62c0-.43.19-.61.63-.61ZM5.66,4.65a6.33,6.33,0,0,0,.2,1.85,8.07,8.07,0,0,0,1.73,3.65,2.49,2.49,0,0,0,3.92.11,6.17,6.17,0,0,0,1.2-1.83A9.51,9.51,0,0,0,13.56,5a.3.3,0,0,0-.22-.37c-.28-.12-.55-.26-.82-.4-.09,0-.16-.08-.25,0A1.77,1.77,0,0,1,11,4.72H6.54A3.78,3.78,0,0,1,5.66,4.65ZM5,1.77H5a5.61,5.61,0,0,0,0,.71A1.36,1.36,0,0,0,6.35,3.69h4.7a.72.72,0,0,0,.68-.36.52.52,0,0,1,.76-.22l.87.42s.1.07.13,0a.17.17,0,0,0,0-.14.85.85,0,0,0-.16-.17c-.38-.35-.77-.71-1.17-1.06a2.51,2.51,0,0,1-.53-.64A.88.88,0,0,0,10.77,1C10.05,1,9.33,1,8.6,1H5.21C5,1,4.94,1.09,5,1.28A4,4,0,0,1,5,1.77Z"/><path d="M9.62,9.67a2.82,2.82,0,0,1-1.74-.62.51.51,0,0,1-.13-.74.53.53,0,0,1,.75-.08,1.66,1.66,0,0,0,2.2,0,.52.52,0,1,1,.62.82A2.65,2.65,0,0,1,9.62,9.67Z"/><path d="M11.2,6.8h-.33a.5.5,0,0,1,0-1,4,4,0,0,1,.69,0,.5.5,0,0,1,.47.51.51.51,0,0,1-.48.5c-.11,0-.22,0-.34,0Z"/><path d="M7.74,6.8H7.38A.49.49,0,0,1,7,6.31a.48.48,0,0,1,.41-.5,3.67,3.67,0,0,1,.74,0,.5.5,0,0,1,.45.5.51.51,0,0,1-.48.51c-.11,0-.22,0-.33,0Z"/></g></g></svg>