<svg xmlns="http://www.w3.org/2000/svg" viewBox="0 0 22.74 24"><g id="Layer_2" data-name="Layer 2"><g id="Layer_1-2" data-name="Layer 1"><path d="M2.53,12c0,.4.58,1.08,1.93,1.76a16.07,16.07,0,0,0,6.91,1.4,16.07,16.07,0,0,0,6.91-1.4c1.35-.68,1.93-1.36,1.93-1.76V9.26a17.35,17.35,0,0,1-8.84,2.11A17.35,17.35,0,0,1,2.53,9.26Zm17.68,3.57a17.35,17.35,0,0,1-8.84,2.11,17.35,17.35,0,0,1-8.84-2.11v2.75c0,.39.58,1.08,1.93,1.76a16.08,16.08,0,0,0,6.91,1.39,16.08,16.08,0,0,0,6.91-1.39c1.35-.68,1.93-1.37,1.93-1.76ZM0,18.32V5.68C0,2.54,5.09,0,11.37,0S22.74,2.54,22.74,5.68V18.32c0,3.14-5.09,5.68-11.37,5.68S0,21.46,0,18.32ZM11.37,8.84a15.92,15.92,0,0,0,6.91-1.4c1.35-.67,1.93-1.36,1.93-1.76s-.58-1.08-1.93-1.76a16.08,16.08,0,0,0-6.91-1.39A16.08,16.08,0,0,0,4.46,3.92C3.11,4.6,2.53,5.29,2.53,5.68s.58,1.09,1.93,1.76A15.92,15.92,0,0,0,11.37,8.84Z"/></g></g></svg>