<svg xmlns="http://www.w3.org/2000/svg" viewBox="0 0 22.82 24.15"><defs><style>.cls-1{stroke:#000;stroke-miterlimit:10;stroke-width:0.15px;}</style></defs><g id="Layer_2" data-name="Layer 2"><g id="Layer_1-2" data-name="Layer 1"><path class="cls-1" d="M.08,13.53c0-3.32,0-6.63,0-9.95,0-.47.13-.61.6-.61h9.41a.32.32,0,0,0,.3-.15A6.22,6.22,0,0,1,14.84.15,7,7,0,0,1,19,.8,6.34,6.34,0,0,1,22,4a9.06,9.06,0,0,1,.73,4.3,7.81,7.81,0,0,1-.94,3,18.38,18.38,0,0,1-3.35,4.4c-.4.41-.83.81-1.27,1.19a.42.42,0,0,0-.14.35v6.16c0,.47-.13.6-.59.6H.61c-.38,0-.53-.16-.53-.54C.07,20.2.08,16.87.08,13.53ZM9.77,3.86H1.13c-.17,0-.17.07-.17.2q0,9.48,0,19c0,.16,0,.2.2.2H5.23c.17,0,.2-.05.2-.21V16.56c0-.36.16-.52.53-.52H11.1c.41,0,.56.15.56.56,0,2.13,0,4.26,0,6.39,0,.15,0,.21.2.21H16c.15,0,.19,0,.19-.2,0-1.67,0-3.33,0-5,0,0,0-.09,0-.14a.52.52,0,0,1-.67-.11,2.65,2.65,0,0,0-.26-.21,23.76,23.76,0,0,1-4.68-5.13s0-.06-.07,0v1.25a.45.45,0,0,1-.49.48H7.14a.44.44,0,0,1-.48-.48V10.86a.46.46,0,0,1,.53-.53H9.27c.15,0,.16,0,.11-.16a6.65,6.65,0,0,1-.23-.76c0-.16-.11-.2-.26-.19H7.16a.45.45,0,0,1-.5-.49V6a.45.45,0,0,1,.51-.51H8.9c.31,0,.31,0,.39-.3A8.54,8.54,0,0,1,9.77,3.86ZM21.86,7.73a8.57,8.57,0,0,0-.47-2.8,5.89,5.89,0,0,0-2.27-3A5.64,5.64,0,0,0,16.21,1a5.93,5.93,0,0,0-3.62.92,5.67,5.67,0,0,0-2.25,2.94A7.53,7.53,0,0,0,10,9.08,8.79,8.79,0,0,0,11.28,12a23,23,0,0,0,4.46,4.88c.1.08.15,0,.22,0a25.67,25.67,0,0,0,2.45-2.33A16.66,16.66,0,0,0,21,10.89,6.71,6.71,0,0,0,21.86,7.73ZM10.78,20.07v-3c0-.14,0-.18-.17-.17H6.49c-.14,0-.18,0-.18.17V23c0,.15,0,.18.18.18h4.12c.13,0,.18,0,.17-.18ZM9.55,12.23h0c0-.29,0-.58,0-.87,0-.11,0-.15-.15-.15H7.68c-.1,0-.14,0-.14.13q0,.87,0,1.74c0,.1,0,.14.13.14H9.42c.11,0,.13-.05.13-.15C9.54,12.79,9.55,12.51,9.55,12.23Zm-2-4.89c0,.28,0,.57,0,.86,0,.09,0,.14.13.14H8.85c.08,0,.11,0,.1-.12A9.33,9.33,0,0,1,9,6.47c0-.1,0-.13-.11-.13H7.68c-.12,0-.14,0-.14.15C7.55,6.77,7.55,7.06,7.55,7.34Z"/><path class="cls-1" d="M1.79,7.33V6c0-.34.16-.5.51-.5H5.05c.34,0,.5.16.5.51V8.71A.45.45,0,0,1,5,9.22H2.33c-.39,0-.54-.16-.54-.55Zm2.88,0c0-.29,0-.58,0-.86,0-.12,0-.15-.15-.15H2.83c-.12,0-.16,0-.16.15,0,.56,0,1.13,0,1.69,0,.12,0,.16.15.16h1.7c.13,0,.15-.05.15-.16C4.66,7.9,4.67,7.62,4.67,7.35Z"/><path class="cls-1" d="M1.79,12.2V10.83a.44.44,0,0,1,.5-.5H5.07a.43.43,0,0,1,.48.45c0,1,0,1.91,0,2.87a.42.42,0,0,1-.47.44H2.27a.43.43,0,0,1-.48-.48Zm1.88,1h.86c.09,0,.14,0,.14-.13,0-.58,0-1.17,0-1.76,0-.09,0-.12-.13-.12H2.8c-.1,0-.13,0-.13.14q0,.87,0,1.74c0,.1,0,.13.13.13Z"/><path class="cls-1" d="M15.84,10.49a3.32,3.32,0,1,1,3.32-3.28A3.32,3.32,0,0,1,15.84,10.49Zm0-.88A2.44,2.44,0,1,0,13.4,7.12,2.46,2.46,0,0,0,15.83,9.61Z"/></g></g></svg>