<svg xmlns="http://www.w3.org/2000/svg" viewBox="0 0 17.61 24"><g id="Layer_2" data-name="Layer 2"><g id="Layer_1-2" data-name="Layer 1"><path d="M17.61,12.79c0,2.85,0,5.69,0,8.54A2.37,2.37,0,0,1,15,24Q8.82,24,2.6,24A2.39,2.39,0,0,1,0,21.28V4.21A2.33,2.33,0,0,1,2.5,1.57c.29,0,.5-.07.58-.41A1.49,1.49,0,0,1,4.59,0c.62,0,1.24,0,1.86,0h6.18c.92,0,1.68.24,1.93,1.26.07.28.3.29.54.31a2.34,2.34,0,0,1,2.51,2.68C17.62,7.1,17.61,9.94,17.61,12.79Zm-.8,0c0-2.89,0-5.77,0-8.66a1.52,1.52,0,0,0-1.64-1.73.55.55,0,0,0-.61.47,1.44,1.44,0,0,1-1.67,1.29H4.73A1.45,1.45,0,0,1,3.05,2.84a.54.54,0,0,0-.59-.48C1.41,2.34.8,3,.8,4.15V21.34c0,1.27.53,1.8,1.82,1.8H15c1.31,0,1.82-.53,1.82-1.85Zm-8-9.42h3.77c1.12,0,1.18-.07,1.18-1.21V2c0-1-.1-1.14-1.12-1.15H5.41c-1.57,0-1.6,0-1.56,1.58,0,.75.17.89.94.89Z"/><path d="M3.14,13.24a5.67,5.67,0,1,1,11.33.13,5.62,5.62,0,0,1-5.73,5.57A5.62,5.62,0,0,1,3.14,13.24Zm1.1,0a4.48,4.48,0,0,0,4.5,4.62,4.5,4.5,0,0,0,4.64-4.58A4.46,4.46,0,0,0,8.83,8.7,4.45,4.45,0,0,0,4.24,13.23Z"/><path d="M6.75,10.69a.7.7,0,0,1,.79-.57c1,0,2,0,2.92,0,.13,0,.39-.07.36.09s-.12.45-.4.47H9.78c-.16,0-.2,0-.14.2a.52.52,0,0,0,.67.43h.13c.14,0,.34-.09.42.09s-.33.5-.49.5H10c-.13,0-.2,0-.23.17a1.9,1.9,0,0,1-1.66,1.35l-.29.05,2.31,2.9H9.23c-.11,0-.17-.08-.23-.16l-2-2.5a.83.83,0,0,1-.11-.59C6.9,13,7,13,7.11,13a3.52,3.52,0,0,0,1-.08,1.14,1.14,0,0,0,.79-.69C9,12,9,11.9,8.7,11.91H7c-.19,0-.26,0-.15-.22a.61.61,0,0,1,.66-.38,11,11,0,0,0,1.15,0c.07,0,.17,0,.2-.05s-.05-.14-.1-.19A1.18,1.18,0,0,0,8,10.74C7.58,10.68,7.17,10.73,6.75,10.69Z"/></g></g></svg>