<svg xmlns="http://www.w3.org/2000/svg" viewBox="0 0 15.2 24"><g id="Layer_2" data-name="Layer 2"><g id="Layer_1-2" data-name="Layer 1"><path d="M0,15V6.54C0,6.05.09,6,.58,6H2.11a.43.43,0,0,0,.38-.16L6.34,2a.36.36,0,0,0,.1-.41A1.17,1.17,0,0,1,6.88.24,1.19,1.19,0,0,1,8.26.2a1.16,1.16,0,0,1,.5,1.28A.45.45,0,0,0,8.92,2l3.74,3.74a.6.6,0,0,0,.49.21c.5,0,1,0,1.5,0s.55.12.55.6V23.44c0,.45-.11.56-.55.56H.54C.09,24,0,23.9,0,23.43Zm.74,0q0,4,0,8c0,.26.06.35.34.35H14.12c.27,0,.35-.06.35-.34q0-8,0-15.89c0-.27-.06-.36-.34-.35q-6.53,0-13,0c-.31,0-.35.11-.35.38C.74,9.7.74,12.33.74,15Zm11-9-.13-.14L8.31,2.44A.29.29,0,0,0,8,2.36a.91.91,0,0,1-.67,0,.37.37,0,0,0-.46.12C5.77,3.57,4.7,4.63,3.63,5.7c-.06.07-.15.11-.16.23ZM7.59,1.68a.51.51,0,0,0,.48-.48A.49.49,0,0,0,7.6.74a.47.47,0,0,0-.47.45A.48.48,0,0,0,7.59,1.68Z"/><path d="M7.58,21.84H4.64a.8.8,0,0,1-.74-1.29l3-5.08a.8.8,0,0,1,1.47,0q1.49,2.54,3,5.08a.8.8,0,0,1-.74,1.28Zm0-.74h2.78c.36,0,.36,0,.19-.3Q9.17,18.39,7.77,16c-.12-.21-.19-.28-.34,0C6.5,17.58,5.55,19.2,4.6,20.81c-.14.23-.11.3.16.29C5.71,21.09,6.66,21.1,7.61,21.1Z"/><path d="M7.61,10.82h4.28a.49.49,0,0,1,.43.14.37.37,0,0,1-.18.56,1.09,1.09,0,0,1-.4,0H3.17c-.22,0-.37-.14-.36-.38s.16-.35.39-.35H7.61Z"/><path d="M7.61,13.82H3.39a1.31,1.31,0,0,1-.28,0,.37.37,0,0,1,0-.72,1.31,1.31,0,0,1,.28,0H11.8a1.29,1.29,0,0,1,.28,0,.36.36,0,0,1,.31.35.35.35,0,0,1-.31.37,1.31,1.31,0,0,1-.28,0Z"/><path d="M7.58,9.27H3.14a.33.33,0,0,1-.33-.35.33.33,0,0,1,.31-.37h8.65c.43,0,.61.1.62.36s-.17.37-.63.37Z"/><path d="M8,18.35v.75a.36.36,0,0,1-.34.41.35.35,0,0,1-.39-.36c0-.53,0-1.07,0-1.6a.37.37,0,0,1,.73,0Z"/><path d="M8,20.22c0,.27-.14.44-.37.43s-.36-.18-.37-.41a.4.4,0,0,1,.38-.44C7.82,19.81,8,20,8,20.22Z"/></g></g></svg>