<svg xmlns="http://www.w3.org/2000/svg" viewBox="0 0 14.16 24.25"><defs><style>.cls-1{stroke:#000;stroke-miterlimit:10;stroke-width:0.25px;}</style></defs><g id="Layer_2" data-name="Layer 2"><g id="Layer_1-2" data-name="Layer 1"><path class="cls-1" d="M14,12.15q0,4.44,0,8.88a3.12,3.12,0,0,1-2.74,3.07,4.26,4.26,0,0,1-.5,0H3.25A3.12,3.12,0,0,1,.14,21.25c0-.14,0-.29,0-.43q0-8.76,0-17.51A3.12,3.12,0,0,1,2.45.24,2.65,2.65,0,0,1,3.19.13q3.89,0,7.75,0A3.13,3.13,0,0,1,14,3c0,.19,0,.39,0,.58v8.61Zm-.85,0V5.28c0-.17,0-.23-.21-.23H1.17c-.16,0-.2,0-.2.2V19c0,.17.05.2.2.2H13c.17,0,.21,0,.21-.21ZM7.08,4.22H13c.14,0,.19,0,.18-.18s0-.53,0-.79A2.27,2.27,0,0,0,10.94,1C8.38,1,5.81,1,3.24,1A2.29,2.29,0,0,0,1,2.72,6.4,6.4,0,0,0,1,4c0,.15,0,.2.19.2ZM7.08,20h-6c-.06,0-.1,0-.1.09A7,7,0,0,0,1,21.49a2.28,2.28,0,0,0,2.29,1.79h7.76a2.29,2.29,0,0,0,2.08-1.93c.05-.36,0-.73,0-1.1,0-.17,0-.22-.21-.22Z"/><path d="M7.08,2.23H8.84c.29,0,.48.16.48.41s-.18.43-.49.43H5.32a.43.43,0,0,1-.48-.43c0-.25.18-.41.48-.41Z"/><path d="M7.07,23a1.27,1.27,0,1,1,1.28-1.26A1.27,1.27,0,0,1,7.07,23Zm0-2.12a.85.85,0,0,0-.84.85.86.86,0,0,0,.85.85.85.85,0,1,0,0-1.7Z"/></g></g></svg>