<svg xmlns="http://www.w3.org/2000/svg" viewBox="0 0 24.91 24"><g id="Layer_2" data-name="Layer 2"><g id="Layer_1-2" data-name="Layer 1"><path d="M3.88,16a.56.56,0,0,1-.38-.21L1.61,13.92a.49.49,0,0,1-.05-.75c.34-.41.67-.85,1-1.26a.32.32,0,0,0,0-.46c-.17-.23-.08-.64-.53-.67s-1-.12-1.57-.16A.51.51,0,0,1,0,10c0-.89,0-1.78,0-2.67a.49.49,0,0,1,.5-.56c.53,0,1.05-.12,1.58-.16.21,0,.36-.09.4-.31s.39-.51.09-.85-.65-.82-1-1.23a.5.5,0,0,1,0-.77c.63-.62,1.25-1.24,1.86-1.87a.51.51,0,0,1,.81,0c.4.34.82.66,1.23,1a.87.87,0,0,0,1.11-.45L6.81.52A.5.5,0,0,1,7.39,0H10c.36,0,.55.14.58.51,0,.53.11,1.05.17,1.57a.84.84,0,0,0,1.15.48c.41-.32.81-.64,1.2-1a.52.52,0,0,1,.81,0c.61.63,1.24,1.25,1.86,1.86a.5.5,0,0,1,0,.78c-.34.4-.65.83-1,1.23a.39.39,0,0,0,0,.54c.14.23.1.6.53.62s1,.11,1.53.15.54.19.54.56c0,.91,0,1.81,0,2.72a.47.47,0,0,1-.48.53l-1.61.18a.84.84,0,0,0-.48,1.12c.32.41.63.81,1,1.2a.53.53,0,0,1,0,.84c-.63.61-1.25,1.24-1.86,1.86a.49.49,0,0,1-.75,0l-1.23-1a.81.81,0,0,0-1.17.48c-.06.52-.13,1-.17,1.57a.49.49,0,0,1-.56.49c-.89,0-1.79,0-2.68,0a.49.49,0,0,1-.56-.5c-.06-.53-.11-1.07-.18-1.61a.84.84,0,0,0-1.12-.46l-1.24,1A.64.64,0,0,1,3.88,16ZM3.67,5.71c0,.08-.07.21-.12.33-.13.31-.29.61-.39.93a.6.6,0,0,1-.58.47c-.48,0-1,.11-1.45.16-.19,0-.29.07-.28.29,0,.55,0,1.1,0,1.66,0,.18.06.26.25.28.47,0,.94.11,1.41.14a.68.68,0,0,1,.68.53,5.85,5.85,0,0,0,.38.93.58.58,0,0,1-.09.71c-.31.37-.6.76-.91,1.13-.14.16-.16.27,0,.43.39.37.78.75,1.14,1.15.17.18.28.14.44,0,.36-.3.74-.58,1.1-.89A.64.64,0,0,1,6,13.87a8.24,8.24,0,0,0,1,.4.59.59,0,0,1,.43.56c0,.46.11.92.14,1.37,0,.27.1.38.39.37.49,0,1,0,1.49,0,.26,0,.36-.08.38-.33,0-.49.12-1,.16-1.45a.54.54,0,0,1,.39-.51,7.76,7.76,0,0,0,1.12-.46.51.51,0,0,1,.6.1c.38.32.78.62,1.16.94.17.14.28.15.44,0,.37-.39.75-.77,1.14-1.15.15-.14.16-.24,0-.4-.31-.37-.6-.76-.92-1.13a.64.64,0,0,1-.09-.78,8.15,8.15,0,0,0,.41-1,.57.57,0,0,1,.56-.44c.48,0,1-.11,1.45-.15.22,0,.3-.1.29-.32,0-.53,0-1.06,0-1.58,0-.26-.09-.32-.32-.34l-1.41-.15A.62.62,0,0,1,14.26,7a8.38,8.38,0,0,0-.4-1A.59.59,0,0,1,14,5.27c.31-.36.59-.74.9-1.1.15-.18.17-.29,0-.46-.38-.36-.76-.74-1.11-1.12-.18-.19-.3-.16-.47,0-.36.3-.75.58-1.1.89a.61.61,0,0,1-.74.09c-.33-.15-.67-.29-1-.42a.53.53,0,0,1-.4-.49c0-.5-.12-1-.16-1.49,0-.24-.11-.33-.35-.32-.52,0-1,0-1.54,0-.27,0-.35.1-.37.35,0,.46-.12.91-.14,1.37A.62.62,0,0,1,7,3.17c-.33.12-.65.25-1,.4a.54.54,0,0,1-.67-.07c-.38-.32-.78-.62-1.16-.94-.18-.15-.29-.13-.44,0q-.56.59-1.14,1.14c-.16.14-.15.25,0,.4L3.49,5.3A.68.68,0,0,1,3.67,5.71Z"/><path d="M19.81,24c-1.31,0-1.21.13-1.35-1.15,0-.33-.22-.41-.49-.23l-.07.05c-1,.82-.86.66-1.67-.13l-.49-.49c-.33-.33-.34-.48,0-.86l.3-.38c.29-.37.22-.53-.25-.59l-.61-.07a.45.45,0,0,1-.45-.51q0-.75,0-1.5a.44.44,0,0,1,.43-.49c.25,0,.51,0,.76-.09s.37-.25.19-.49-.3-.38-.46-.57a.44.44,0,0,1,0-.65c.37-.38.74-.75,1.12-1.12a.43.43,0,0,1,.62,0c.2.16.39.33.6.48s.43.09.48-.2l.06-.44c.08-.71.12-.75.81-.75h1.22a.45.45,0,0,1,.5.46c0,.24.05.48.09.72s.23.39.47.22l.58-.46a.45.45,0,0,1,.68,0c.36.37.72.73,1.09,1.09a.44.44,0,0,1,0,.65c-.16.2-.33.39-.48.6s-.08.41.2.46.5.07.76.1a.44.44,0,0,1,.44.48q0,.77,0,1.53a.44.44,0,0,1-.43.49,6,6,0,0,0-.61.07c-.15,0-.32,0-.41.19s.06.29.15.42.25.32.38.47a.45.45,0,0,1-.05.68l-1,1a.48.48,0,0,1-.74,0l-.51-.41c-.28-.2-.47-.12-.52.24,0,.21-.06.42-.07.64a.48.48,0,0,1-.56.49C20.27,24,20,24,19.81,24Zm2.72-1.76c.18-.2.36-.38.51-.58s-.05-.26-.13-.34A.91.91,0,0,1,22.7,20a1.23,1.23,0,0,0,.08-.23.46.46,0,0,1,.41-.33,3.19,3.19,0,0,1,.52-.06c.47,0,.31-.33.35-.57s-.06-.43-.37-.41c-.55,0-.94-.17-1-.76a.76.76,0,0,0-.09-.18.51.51,0,0,1,.06-.64,4.94,4.94,0,0,0,.36-.44c.05-.07.16-.15.07-.24a2.05,2.05,0,0,0-.52-.5c-.17-.1-.28.15-.42.23s-.24.18-.36.27a.37.37,0,0,1-.38.05c-.59-.22-1.21-.41-1.08-1.25,0,0,0,0,0,0,0-.41-.34-.24-.55-.26s-.43-.05-.41.28a1,1,0,0,1-.88,1.17l-.1.06a.47.47,0,0,1-.57-.06,4.23,4.23,0,0,1-.41-.33c-.32-.34-.44,0-.62.18s-.3.3-.06.51a1,1,0,0,1,.24,1.35c-.19.36-.36.57-.77.58l-.4,0c-.15,0-.2.09-.21.24-.07.62,0,.65.58.75.22,0,.47,0,.62.22a1.17,1.17,0,0,1,0,1.68,1.83,1.83,0,0,0-.13.16c0,.05-.08.12,0,.18a2.27,2.27,0,0,0,.53.5c.18.09.3-.17.45-.26s.35-.36.63-.32c.74.12,1.1.45,1.14,1.18,0,.48.32.38.6.42s.39-.18.41-.44,0-.54.18-.73a1.27,1.27,0,0,1,1.65-.07C22.24,22,22.36,22.11,22.53,22.24Z"/><path d="M4.31,8.68a4.4,4.4,0,1,1,4.34,4.44A4.41,4.41,0,0,1,4.31,8.68Zm4.42,3.58A3.55,3.55,0,1,0,5.16,8.73,3.56,3.56,0,0,0,8.73,12.26Z"/><path d="M21.94,18.93a2.15,2.15,0,1,1-2.14-2.17A2.14,2.14,0,0,1,21.94,18.93Zm-2.15,1.26a1.3,1.3,0,1,0-1.28-1.32A1.27,1.27,0,0,0,19.79,20.19Z"/></g></g></svg>