<svg xmlns="http://www.w3.org/2000/svg" viewBox="0 0 19.65 24.25"><defs><style>.cls-1{stroke:#000;stroke-miterlimit:10;stroke-width:0.25px;}</style></defs><g id="Layer_2" data-name="Layer 2"><g id="Layer_1-2" data-name="Layer 1"><path class="cls-1" d="M9.82,24.1c-2.7,0-5.4-.05-8.09,0-1.24,0-1.67-.45-1.6-1.63.11-1.67-.17-3.36.27-5,.76-2.8,2.72-4.33,5.37-5.17A1.66,1.66,0,0,1,7,12.55a6.52,6.52,0,0,0,5.87-.07,1.45,1.45,0,0,1,1.25-.08,7.26,7.26,0,0,1,5.37,6.8c.06,1.19,0,2.38,0,3.57,0,.95-.4,1.35-1.36,1.34C15.38,24.08,12.6,24.1,9.82,24.1Zm8.7-3.8a6.25,6.25,0,0,0-3.81-6.63,2.12,2.12,0,0,0-2,0A6.36,6.36,0,0,1,9,14.1a9,9,0,0,1-2.41-.68,1.62,1.62,0,0,0-1.91.47c-.46.5.39.81.67,1.18.57.72,1.27,1.35,1.86,2.06a1.53,1.53,0,0,0,1.59.6,7,7,0,0,1,5.57,1.55,6.62,6.62,0,0,1,2.29,3.17c.24.76.77.71,1.35.68.74,0,.49-.6.52-1S18.52,21.09,18.52,20.3ZM15.7,23.14a5.86,5.86,0,0,0-5.65-4.44c-2.63-.08-5.3,1.62-6,3.78-.15.45-.14.66.39.66ZM1.12,20.32c0,.72,0,1.25,0,1.78s-.15,1,.62,1.06,1.12,0,1.31-.75A9,9,0,0,1,4.54,20c.54-.85,2.24-.87,2-2-.23-.89-1.34-1.57-2-2.35a2.64,2.64,0,0,1-.36-.39c-.49-.79-.92-.51-1.41,0A6.69,6.69,0,0,0,1.12,20.32Z"/><path class="cls-1" d="M4.79,6C4.68,4.9,4.6,3.79,4.45,2.7A1.39,1.39,0,0,1,5.39,1a11.24,11.24,0,0,1,8.76,0,1.5,1.5,0,0,1,1,1.85,23,23,0,0,0-.29,4.47A5,5,0,0,1,10,12.64,5.13,5.13,0,0,1,4.73,7.45V6Zm5,1.11c-1,0-2,.07-3,0s-1.15.44-1,1.25A4.13,4.13,0,0,0,13.91,8c.07-.61,0-1-.8-.94C12,7.15,10.91,7.1,9.81,7.1ZM9.76,3.37h3.7c.37,0,.69,0,.74-.53s0-.82-.43-1a10.72,10.72,0,0,0-7.86,0c-.47.18-.47.56-.45,1,0,.61.49.52.87.53Zm.12,1c-1.19,0-2.38,0-3.57,0-.56,0-.68.3-.6.76s-.19,1,.54,1c2.34,0,4.67,0,7,0,.7,0,.66-.53.72-1,.08-.68-.32-.7-.8-.7Z"/></g></g></svg>