<svg xmlns="http://www.w3.org/2000/svg" viewBox="0 0 22.71 24.73"><defs><style>.cls-1,.cls-2{stroke:#000;stroke-miterlimit:10;}.cls-1{stroke-width:0.73px;}.cls-2{stroke-width:0.25px;}</style></defs><g id="Layer_2" data-name="Layer 2"><g id="Layer_1-2" data-name="Layer 1"><path class="cls-1" d="M11.55,24.36a29.54,29.54,0,0,1-6.36-.59A6,6,0,0,1,.4,17.12,14.41,14.41,0,0,1,4.14,9,33.75,33.75,0,0,1,6.94,6.2a.79.79,0,0,0,.24-1c-.29-.87-.55-1.75-.82-2.62A1.15,1.15,0,0,1,7.1,1,6.68,6.68,0,0,1,9.47.44a19.8,19.8,0,0,1,5,.19L15,.74c1.52.38,1.8.86,1.33,2.34-.23.71-.43,1.44-.69,2.15a.87.87,0,0,0,.26,1,30.85,30.85,0,0,1,3.83,4.17A12.77,12.77,0,0,1,22.34,18a5.86,5.86,0,0,1-4.55,5.82A25.17,25.17,0,0,1,11.55,24.36Zm0-1.36a23.48,23.48,0,0,0,6-.52A4.48,4.48,0,0,0,21,18a10.77,10.77,0,0,0-1.49-5.46A25.16,25.16,0,0,0,14.77,7a.53.53,0,0,0-.56-.13,11.25,11.25,0,0,1-5.44,0,.84.84,0,0,0-.87.25C7,7.94,6.13,8.77,5.32,9.69A13.34,13.34,0,0,0,1.76,16.9a4.67,4.67,0,0,0,3.9,5.6A25,25,0,0,0,11.53,23Zm-.4-17.12c2.77,0,3-.15,3.54-2l0-.12c.11-.31.05-.44-.33-.39a19,19,0,0,1-5.93,0c-.39-.06-.42.09-.32.39s.25.77.35,1.17a.75.75,0,0,0,.66.61A13.32,13.32,0,0,0,11.13,5.88ZM14.4,2A12.93,12.93,0,0,0,8.51,2,14.41,14.41,0,0,0,14.4,2Z"/><path class="cls-2" d="M8.1,10.28a1.3,1.3,0,0,1,1.44-1c1.76.07,3.53,0,5.29,0,.23,0,.69-.13.65.16s-.21.82-.73.85a11.22,11.22,0,0,1-1.16,0c-.28,0-.35,0-.25.36a1,1,0,0,0,1.22.78.45.45,0,0,1,.23,0c.26.06.62-.18.76.16s-.59.9-.88.91H14a.36.36,0,0,0-.42.3,3.45,3.45,0,0,1-3,2.46l-.53.08,4.2,5.26H12.59c-.2,0-.3-.16-.4-.29-1.21-1.52-2.41-3-3.63-4.54a1.44,1.44,0,0,1-.19-1.06c0-.26.21-.22.38-.22a6.78,6.78,0,0,0,1.85-.15A2.07,2.07,0,0,0,12,13.09c.16-.39.13-.61-.39-.6-1.05,0-2.1,0-3.14,0-.34,0-.48,0-.26-.41a1.1,1.1,0,0,1,1.18-.68,18.22,18.22,0,0,0,2.09,0c.13,0,.3.08.36-.1s-.09-.24-.18-.34a2.3,2.3,0,0,0-1.35-.61C9.61,10.26,8.87,10.35,8.1,10.28Z"/></g></g></svg>