<svg xmlns="http://www.w3.org/2000/svg" viewBox="0 0 23.89 24"><g id="Layer_2" data-name="Layer 2"><g id="Layer_1-2" data-name="Layer 1"><path d="M12,0A12,12,0,1,1,0,11.94,12,12,0,0,1,12,0ZM1.43,12A10.58,10.58,0,0,0,11.94,22.57,10.57,10.57,0,1,0,1.43,12Z"/><path d="M9.14,12c0-2.33,0-4.65,0-7,0-.25.06-.32.32-.32,1.16,0,2.32,0,3.48,0a4.56,4.56,0,0,1,.9.08,2.61,2.61,0,0,1,2.06,1.94,8.55,8.55,0,0,1,.3,3.14A6,6,0,0,1,15.77,12a2.37,2.37,0,0,1-2.17,1.5c-.44,0-.89,0-1.33,0-.21,0-.27.05-.27.26,0,1.74,0,3.48,0,5.21,0,.26-.07.32-.32.32-.76,0-1.51,0-2.27,0-.24,0-.28-.08-.28-.3V12ZM12,9.13v1.56c0,.08,0,.18.12.21a1,1,0,0,0,1.12-.73,5.22,5.22,0,0,0,0-2c-.12-.66-.39-.85-1.06-.84-.16,0-.2.06-.2.21C12,8.09,12,8.61,12,9.13Z"/></g></g></svg>