<svg xmlns="http://www.w3.org/2000/svg" viewBox="0 0 33.42 24.25"><defs><style>.cls-1{stroke:#000;stroke-miterlimit:10;stroke-width:0.25px;}</style></defs><g id="Layer_2" data-name="Layer 2"><g id="Layer_1-2" data-name="Layer 1"><path class="cls-1" d="M12.17,24.12H1.8c-1.24,0-1.67-.43-1.67-1.66q0-6,0-12c0-1.14.46-1.61,1.6-1.62H5.61a.83.83,0,0,0,.81-.32,1.42,1.42,0,0,1,.68-.4L26.36.37c1.23-.5,1.79-.26,2.29,1l4.44,11a1.41,1.41,0,0,1-.9,2.15c-2.46,1-4.91,2-7.38,3a.77.77,0,0,0-.59.84c0,1.42,0,2.84,0,4.26,0,1.11-.47,1.57-1.58,1.57Zm0-.75H22.6c.72,0,.87-.15.87-.86q0-6,0-12c0-.72-.16-.86-.88-.86H1.76c-.73,0-.87.14-.87.86v12c0,.8.12.92.93.92ZM7.72,8.72l0,.15H22.54c1.25,0,1.69.45,1.69,1.71,0,1.9,0,3.79,0,5.68,0,.48.07.61.57.4,2.35-1,4.72-1.92,7.08-2.87.74-.31.8-.46.49-1.23Q30.17,7.11,28,1.65c-.35-.86-.48-.92-1.33-.57L13.31,6.46Z"/><path d="M8.31,12.21a1.11,1.11,0,0,1,1.24-.89c1.51.06,3,0,4.53,0,.2,0,.59-.12.56.13s-.19.71-.63.73-.66,0-1,0-.31,0-.22.3a.81.81,0,0,0,1,.67h.2c.22.06.53-.15.65.14s-.51.77-.76.78h-.55a.31.31,0,0,0-.36.26,2.94,2.94,0,0,1-2.58,2.1l-.45.07,3.6,4.51H12.16c-.17,0-.25-.13-.35-.25-1-1.3-2.06-2.6-3.11-3.89a1.25,1.25,0,0,1-.16-.9c0-.23.19-.19.33-.19a5.61,5.61,0,0,0,1.58-.14,1.71,1.71,0,0,0,1.23-1.06c.13-.34.11-.53-.34-.52-.89,0-1.79,0-2.69,0-.28,0-.4,0-.22-.35a.94.94,0,0,1,1-.58c.6.06,1.2,0,1.8,0,.1,0,.25.06.3-.09s-.07-.21-.15-.29a2,2,0,0,0-1.16-.52C9.61,12.19,9,12.27,8.31,12.21Z"/></g></g></svg>