<svg xmlns="http://www.w3.org/2000/svg" viewBox="0 0 25.79 24.25"><defs><style>.cls-1{stroke:#000;stroke-miterlimit:10;stroke-width:0.25px;}</style></defs><g id="Layer_2" data-name="Layer 2"><g id="Layer_1-2" data-name="Layer 1"><path class="cls-1" d="M19.83,12.41A5.86,5.86,0,1,1,14,18.24,5.85,5.85,0,0,1,19.83,12.41ZM15,18.25a4.8,4.8,0,1,0,4.87-4.8A4.81,4.81,0,0,0,15,18.25Z"/><path class="cls-1" d="M17.23,5.93A5.76,5.76,0,1,1,11.5.13,5.76,5.76,0,0,1,17.23,5.93Zm-10.48,0A4.72,4.72,0,1,0,11.5,1.18,4.75,4.75,0,0,0,6.75,5.91Z"/><path class="cls-1" d="M.13,22.18A10.51,10.51,0,0,1,8,12.41a11,11,0,0,1,6.26.34,9,9,0,0,1,1.21.49c.15.07.17.14.08.28a4.74,4.74,0,0,0-.31.54c-.08.16-.15.17-.31.09a10.61,10.61,0,0,0-3.75-1,8.69,8.69,0,0,0-5.87,1.6,9.25,9.25,0,0,0-4.11,7.54c0,.2-.06.27-.26.25s-.29,0-.43,0C.09,22.56.12,22.63.13,22.18Z"/><path class="cls-1" d="M19,17.71c0-.55,0-1.1,0-1.65,0-.19,0-.28.25-.26h.6c.18,0,.22.06.22.23,0,.76,0,1.52,0,2.28,0,.22.05.29.28.29.69,0,1.37,0,2.06,0,.19,0,.24.06.24.24,0,.8,0,.8-.8.8H19.22c-.21,0-.28-.05-.28-.27C19,18.82,19,18.26,19,17.71Z"/></g></g></svg>