<svg xmlns="http://www.w3.org/2000/svg" viewBox="0 0 18.04 24.25"><defs><style>.cls-1{stroke:#000;stroke-miterlimit:10;stroke-width:0.25px;}</style></defs><g id="Layer_2" data-name="Layer 2"><g id="Layer_1-2" data-name="Layer 1"><path class="cls-1" d="M4.32,3.74A5.39,5.39,0,0,0,4.4,5c0,.16-.07.16-.16.19a8.54,8.54,0,0,0-1.55.67,3.31,3.31,0,0,0-.94.77A1,1,0,0,0,1.75,8a3.28,3.28,0,0,0,1,.83A10.71,10.71,0,0,0,6.42,10a16.72,16.72,0,0,0,7.34-.49,6.24,6.24,0,0,0,2.12-1,2.61,2.61,0,0,0,.24-.22,1.1,1.1,0,0,0,0-1.76,5.41,5.41,0,0,0-2-1.12c-.49-.17-.49-.17-.42-.68,0-.14,0-.29,0-.43s0-.29,0-.45a.92.92,0,0,1,.37.09,7.41,7.41,0,0,1,2.84,1.5,2.86,2.86,0,0,1,1,2.22c0,4,0,8,0,12a3,3,0,0,1-1.24,2.5,8.45,8.45,0,0,1-3.38,1.5,18,18,0,0,1-9.71-.34,6.77,6.77,0,0,1-2.46-1.36,2.82,2.82,0,0,1-1-2.25q0-6,0-12A2.89,2.89,0,0,1,1.19,5.29,8.29,8.29,0,0,1,4.32,3.74ZM1.55,18.07a.19.19,0,0,0-.06.16v1.71a1,1,0,0,0,.23.61,2.47,2.47,0,0,0,.64.61,7,7,0,0,0,2.13.95,16.93,16.93,0,0,0,7.88.29,8.81,8.81,0,0,0,3.25-1.2,1.74,1.74,0,0,0,.94-1.73,13.56,13.56,0,0,1,0-1.43l-.14.09a8.38,8.38,0,0,1-2.33,1.08,17.74,17.74,0,0,1-6.68.64,14.4,14.4,0,0,1-4.29-.94A8.07,8.07,0,0,1,1.55,18.07Zm15-8.4-.12.06A9,9,0,0,1,13.66,11a18.63,18.63,0,0,1-7.76.33A10.5,10.5,0,0,1,1.55,9.69H1.49c0,.56,0,1.13,0,1.7a1.26,1.26,0,0,0,.36.92,3.87,3.87,0,0,0,1.34.92,12,12,0,0,0,4,1,16.43,16.43,0,0,0,6.65-.58,6,6,0,0,0,2.13-1.07,1.34,1.34,0,0,0,.6-.92C16.56,11,16.54,10.36,16.54,9.67Zm0,4.19-.12.06a9.39,9.39,0,0,1-3.13,1.31,18.49,18.49,0,0,1-6.71.34A12.11,12.11,0,0,1,2.23,14.3c-.24-.13-.47-.29-.72-.44,0,.69,0,1.36,0,2a1,1,0,0,0,.28.56A2.42,2.42,0,0,0,2.4,17a6.89,6.89,0,0,0,1.87.86,16.87,16.87,0,0,0,8.32.31,8.74,8.74,0,0,0,3-1.12,1.74,1.74,0,0,0,1-1.79,3.38,3.38,0,0,1,0-.45Z"/><path class="cls-1" d="M9,8.13a4,4,0,0,1-3.92-4,3.92,3.92,0,1,1,7.84,0A3.94,3.94,0,0,1,9,8.13ZM7.18,1.74a.53.53,0,0,0-.49.31.52.52,0,0,0,.12.63L8.11,4c.12.11.13.17,0,.29-.43.4-.84.82-1.25,1.24a.55.55,0,0,0-.08.83.56.56,0,0,0,.85-.06L8.86,5.05c.12-.13.19-.14.32,0,.4.42.81.82,1.22,1.23s.62.32.85.07a.55.55,0,0,0-.07-.83L9.93,4.27c-.12-.11-.12-.18,0-.29l1.26-1.26a.55.55,0,0,0,.06-.82.56.56,0,0,0-.83.06c-.41.41-.83.82-1.24,1.24-.12.13-.19.14-.32,0C8.45,2.78,8,2.36,7.6,1.94A.58.58,0,0,0,7.18,1.74Z"/></g></g></svg>