<svg xmlns="http://www.w3.org/2000/svg" viewBox="0 0 23.58 24"><g id="Layer_2" data-name="Layer 2"><g id="Layer_1-2" data-name="Layer 1"><path d="M18.09,6.32a9.39,9.39,0,0,1-.8,3.64c-.11.24-.21.49-.33.72s0,.2.13.24c1,.19,1.91.4,2.87.6a.53.53,0,0,1,.45.4Q22,17.11,23.54,22.3a.49.49,0,0,1-.11.57.5.5,0,0,1-.58,0L18.49,20.7a.34.34,0,0,0-.36,0l-6,3.2a.61.61,0,0,1-.64,0l-6-3.2a.34.34,0,0,0-.36,0L.85,22.83l-.14.06a.44.44,0,0,1-.55,0A.46.46,0,0,1,0,22.32q1.59-5.2,3.15-10.43a.53.53,0,0,1,.42-.37l2.85-.59c.21,0,.25-.09.15-.29a12.32,12.32,0,0,1-1-3.09A6.32,6.32,0,1,1,18,5.44C18.07,5.76,18.08,6.07,18.09,6.32ZM22.4,21.65l-.07-.26-1.08-3.56-1.59-5.28c0-.11-.08-.2-.21-.22l-2.85-.6c-.11,0-.17,0-.22.1l-.34.6c-1.11,1.9-2.47,3.63-3.76,5.41a.61.61,0,0,1-1,0L11,17.45a51.3,51.3,0,0,1-3.83-5.64c-.06-.11-.12-.09-.21-.07l-2.83.58a.29.29,0,0,0-.23.23C3.2,15,2.47,17.38,1.74,19.8c-.18.6-.36,1.2-.55,1.81a.31.31,0,0,0,.22-.08c1.17-.58,2.35-1.16,3.51-1.75a.69.69,0,0,1,.73,0l5.45,2.9c.23.12.46.33.68.33s.48-.21.71-.33L18,19.75a.61.61,0,0,1,.61,0c.23.13.47.24.71.36ZM6.4,6.38a6,6,0,0,0,.12,1.27,12.69,12.69,0,0,0,1.32,3.47,48.18,48.18,0,0,0,3.87,5.75c.09.13.13.05.18,0,.77-1.05,1.56-2.08,2.29-3.16a21.39,21.39,0,0,0,2.49-4.61,7.12,7.12,0,0,0,.42-3.79A5.39,5.39,0,0,0,6.4,6.38Z"/><path d="M11.8,4A2.15,2.15,0,0,1,14,6.18a2.17,2.17,0,0,1-4.33,0A2.15,2.15,0,0,1,11.8,4Zm0,3.42a1.26,1.26,0,0,0,1.27-1.25,1.27,1.27,0,1,0-2.54,0A1.27,1.27,0,0,0,11.79,7.43Z"/></g></g></svg>