<svg xmlns="http://www.w3.org/2000/svg" viewBox="0 0 26.67 24"><g id="Layer_2" data-name="Layer 2"><g id="Layer_1-2" data-name="Layer 1"><path d="M3.43,16.24v4.4c0,.6.14.73.74.74.26,0,.52,0,.78,0a.41.41,0,0,1,.42.43.4.4,0,0,1-.41.43,9.84,9.84,0,0,1-1.33,0,1.35,1.35,0,0,1-1.12-1.4c0-1,0-2,0-3,0-1.71,0-3.43,0-5.15,0-.32,0-.45-.41-.29a1.49,1.49,0,0,1-1.91-.71,1.53,1.53,0,0,1,.45-2L11.16,1.29,12.23.43a1.61,1.61,0,0,1,2.16,0C16.71,2.23,19,4.08,21.31,5.91L26,9.62a1.56,1.56,0,0,1,.52,2.05,1.51,1.51,0,0,1-2,.65c-.4-.16-.31.11-.32.3v7.89a4.21,4.21,0,0,1,0,.5,1.35,1.35,0,0,1-1.23,1.24c-.38,0-.75,0-1.12,0s-.5-.14-.49-.45.22-.42.5-.43h.75c.53,0,.72-.19.72-.74v-8.8A.7.7,0,0,0,23,11.2q-4.66-3.7-9.31-7.44a.44.44,0,0,0-.65,0Q8.4,7.46,3.77,11.13a.83.83,0,0,0-.34.75C3.44,13.33,3.43,14.79,3.43,16.24ZM25.76,11a.73.73,0,0,0-.34-.61L14,1.21c-.51-.41-.72-.4-1.25,0l-.36.28-6,4.76C4.67,7.61,3,9,1.26,10.35c-.42.33-.47.68-.19,1a.67.67,0,0,0,1,0L9,5.8c1.27-1,2.56-2,3.82-3.06a.66.66,0,0,1,1,0,2,2,0,0,0,.23.18l9.28,7.41c.45.36.9.73,1.36,1.08a.59.59,0,0,0,.7.08A.64.64,0,0,0,25.76,11Z"/><path d="M13.47,24a19.68,19.68,0,0,1-4.33-.41,4.1,4.1,0,0,1-3.27-4.52,9.87,9.87,0,0,1,2.55-5.53,22.71,22.71,0,0,1,1.9-1.9.55.55,0,0,0,.17-.66c-.2-.59-.37-1.19-.56-1.78a.79.79,0,0,1,.5-1.13,4.34,4.34,0,0,1,1.62-.36,13.16,13.16,0,0,1,3.43.13l.32.07c1,.26,1.23.59.91,1.6-.16.48-.29,1-.47,1.46a.59.59,0,0,0,.18.7A21.29,21.29,0,0,1,19,14.51a8.72,8.72,0,0,1,1.78,5.12,4,4,0,0,1-3.1,4A16.77,16.77,0,0,1,13.47,24Zm0-.93a15.52,15.52,0,0,0,4.05-.36,3.05,3.05,0,0,0,2.39-3.05,7.34,7.34,0,0,0-1-3.71,16.64,16.64,0,0,0-3.22-3.78.36.36,0,0,0-.38-.09,7.72,7.72,0,0,1-3.7,0,.57.57,0,0,0-.59.16c-.6.58-1.21,1.14-1.76,1.77A9,9,0,0,0,6.8,18.92a3.18,3.18,0,0,0,2.66,3.81A16.91,16.91,0,0,0,13.45,23.07Zm-.27-11.66c1.88,0,2.05-.1,2.4-1.33l0-.08c.07-.21,0-.3-.22-.26a13,13,0,0,1-4,0c-.27,0-.29.06-.23.27s.18.53.25.79a.51.51,0,0,0,.44.42A8.17,8.17,0,0,0,13.18,11.41ZM15.4,8.79a8.71,8.71,0,0,0-4,0A9.84,9.84,0,0,0,15.4,8.79Z"/><path d="M10.94,14.19A.94.94,0,0,1,12,13.44c1.28,0,2.56,0,3.85,0,.16,0,.5-.1.47.11s-.15.6-.53.62-.56,0-.85,0-.25,0-.18.26a.7.7,0,0,0,.89.57.33.33,0,0,1,.17,0c.19,0,.45-.13.55.11s-.43.66-.64.66h-.47A.26.26,0,0,0,15,16a2.5,2.5,0,0,1-2.19,1.79l-.39.06,3.06,3.83H14.21c-.15,0-.22-.11-.3-.21-.88-1.1-1.75-2.21-2.64-3.31a1,1,0,0,1-.14-.76c0-.19.16-.16.28-.16a5.11,5.11,0,0,0,1.35-.12,1.49,1.49,0,0,0,1-.9c.11-.29.09-.45-.29-.44-.76,0-1.52,0-2.28,0-.25,0-.35,0-.19-.3a.81.81,0,0,1,.86-.5,12.83,12.83,0,0,0,1.52,0c.09,0,.22.06.26-.07s-.06-.18-.13-.25a1.64,1.64,0,0,0-1-.44C12,14.17,11.5,14.24,10.94,14.19Z"/></g></g></svg>