<svg xmlns="http://www.w3.org/2000/svg" viewBox="0 0 30.75 24"><g id="Layer_2" data-name="Layer 2"><g id="Layer_1-2" data-name="Layer 1"><path d="M15.36,8.94H1.46c-.38,0-.38,0-.38.37v1.82c0,.38-.2.62-.53.62S0,11.53,0,11.15C0,8.46,0,5.77,0,3.08A3.08,3.08,0,0,1,3.22,0H27.54A3.07,3.07,0,0,1,30.7,2.58a3.18,3.18,0,0,1,.05.62V16.59a3.08,3.08,0,0,1-2.67,3.14,2.55,2.55,0,0,1-.39,0H16.53c-.41,0-.62-.17-.64-.5a.49.49,0,0,1,.46-.55,4.35,4.35,0,0,1,.51,0H27.53a2,2,0,0,0,2.12-1.75,2.27,2.27,0,0,0,0-.45V9.3c0-.36,0-.36-.36-.36Zm0-1.08h14c.23,0,.32,0,.31-.31,0-.93,0-1.87,0-2.8,0-.21-.06-.27-.27-.27h-28c-.24,0-.29.08-.29.31,0,.89,0,1.79,0,2.69,0,.37,0,.37.38.37Zm0-4.45h14c.27,0,.33-.08.32-.33a2,2,0,0,0-2.09-2H3.13a2,2,0,0,0-2.06,2c0,.29.08.36.36.36Z"/><path d="M1.31,14.05c.22,1.24.44,2.44.65,3.65,0,.11,0,.17.18.11l3.39-1.39s0,0,0-.06l-.5-.28c-.43-.24-.49-.51-.23-.94a3.78,3.78,0,0,1,3.4-2,3.74,3.74,0,0,1,2.93,1.34.57.57,0,0,1,0,.87c-.24.2-.56.14-.82-.16a2.82,2.82,0,0,0-4.2-.08c-.15.16-.14.24.06.33s.59.32.89.49a.51.51,0,0,1,.31.51A.52.52,0,0,1,7,17L1.85,19.09A.54.54,0,0,1,1,18.63q-.48-2.74-1-5.49a.55.55,0,0,1,.19-.57.53.53,0,0,1,.61,0c.31.16.63.33.93.51.15.09.23.07.34-.07a6.76,6.76,0,0,1,4.42-2.76,6.64,6.64,0,0,1,7,3.56.62.62,0,0,1,0,.69.5.5,0,0,1-.51.2.56.56,0,0,1-.44-.36A5.36,5.36,0,0,0,9,11.38,5.68,5.68,0,0,0,2.75,14a.63.63,0,0,1-1,.28A1.39,1.39,0,0,0,1.31,14.05Z"/><path d="M14.25,20.07c-.11-.64-.22-1.25-.32-1.86s-.22-1.18-.32-1.77c0-.13-.06-.18-.2-.12L10,17.72a1.63,1.63,0,0,0,.48.31c.47.26.54.51.26,1a3.77,3.77,0,0,1-2.68,1.89,3.78,3.78,0,0,1-3.65-1.3.55.55,0,0,1,0-.84.57.57,0,0,1,.83.14,2.79,2.79,0,0,0,4.05.23c.05-.05.1-.11.16-.16s.15-.2,0-.3-.59-.32-.89-.48a.55.55,0,0,1-.34-.55.53.53,0,0,1,.39-.49L13.76,15a.53.53,0,0,1,.77.43l1,5.57a.53.53,0,0,1-.78.59c-.32-.17-.63-.33-.94-.51-.15-.1-.24-.09-.35.07a6.7,6.7,0,0,1-4.51,2.76A6.58,6.58,0,0,1,2,20.32a.56.56,0,0,1,.2-.81c.31-.14.59,0,.77.35a5.29,5.29,0,0,0,4.78,3,5.46,5.46,0,0,0,5.07-2.76c.29-.45.54-.53,1-.27A1.32,1.32,0,0,0,14.25,20.07Z"/><path d="M22.22,13H17.74a.6.6,0,0,1-.56-.26.54.54,0,0,1,.36-.81.62.62,0,0,1,.19,0h9c.36,0,.58.16.63.43s-.18.65-.6.66H22.22Z"/><path d="M19.81,15.6H17.74c-.41,0-.63-.19-.63-.54s.22-.52.62-.52h4.2c.4,0,.62.2.62.53s-.23.53-.61.53Z"/></g></g></svg>