<svg xmlns="http://www.w3.org/2000/svg" viewBox="0 0 33 24"><g id="Layer_2" data-name="Layer 2"><g id="Layer_1-2" data-name="Layer 1"><path d="M12,19.5a5.25,5.25,0,0,1-10.4,0H0V1.5A1.5,1.5,0,0,1,1.5,0h21A1.5,1.5,0,0,1,24,1.5v3h4.5L33,10.58V19.5H30a5.25,5.25,0,0,1-10.4,0ZM21,3H3V15.08a5.24,5.24,0,0,1,8.49,1.42H20a5,5,0,0,1,1-1.42Zm3,9h6v-.43L27,7.5H24Zm.75,9a2.25,2.25,0,0,0,2.12-1.5,2.32,2.32,0,0,0,.13-.75,2.25,2.25,0,0,0-4.5,0,2.32,2.32,0,0,0,.13.75A2.25,2.25,0,0,0,24.75,21ZM9,18.75a2.25,2.25,0,0,0-4.5,0,2.32,2.32,0,0,0,.13.75,2.25,2.25,0,0,0,4.24,0A2.32,2.32,0,0,0,9,18.75Z"/></g></g></svg>