<svg xmlns="http://www.w3.org/2000/svg" viewBox="0 0 28.19 24"><g id="Layer_2" data-name="Layer 2"><g id="Layer_1-2" data-name="Layer 1"><path d="M14.1,24H2.18c-.66,0-.79-.13-.79-.8V6.9c0-.17-.07-.21-.21-.14l-.42.18a.51.51,0,0,1-.71-.22A.5.5,0,0,1,.35,6L2.77,5,13.68.1a.91.91,0,0,1,.82,0L27.64,5.94a2.44,2.44,0,0,1,.28.14.48.48,0,0,1,.22.63.5.5,0,0,1-.62.27c-.18-.06-.34-.15-.51-.22s-.22,0-.21.13V23.13c0,.76-.11.87-.86.87ZM2.4,14.58v8c0,.43,0,.43.44.43H5.59C6,23,6,23,6,22.54V7.29c0-.66.12-.78.78-.78H21.66a.48.48,0,0,1,.49.46c0,.13,0,.25,0,.37v15.2c0,.44,0,.44.44.44h2.72c.46,0,.46,0,.46-.46q0-8,0-15.91A.54.54,0,0,0,25.42,6Q19.88,3.61,14.37,1.13a.65.65,0,0,0-.56,0l-11,4.91a.5.5,0,0,0-.36.55C2.41,9.26,2.4,11.92,2.4,14.58ZM7,15.23v7.43c0,.2,0,.33.28.33h2.91c.16,0,.25-.06.25-.23v-3.1c0-.17-.07-.24-.24-.24H9.37c-.53,0-.72-.17-.72-.69V14.21c0-.51.2-.69.7-.69h2.23c.4,0,.41,0,.41-.42,0-.86,0-1.73,0-2.6,0-.44.19-.63.61-.63h4.77a.5.5,0,0,1,.57.57c0,1.17,0,2.35,0,3.53a.51.51,0,0,1-.55.56,1.29,1.29,0,0,1-.34,0c-.27,0-.37.09-.36.36q0,1.59,0,3.18c0,.28.1.36.36.36.54,0,1.08,0,1.61,0,.73,0,.88.14.88.86,0,1.13,0,2.25,0,3.38,0,.25.08.36.34.34s.56,0,.84,0,.44,0,.44-.43V8c0-.43,0-.44-.43-.44H7.47C7,7.53,7,7.53,7,8ZM15,23h3.22c.23,0,.33-.07.32-.32,0-1,0-2,0-2.93,0-.25-.08-.32-.32-.32H11.84c-.28,0-.36.1-.36.36q0,1.44,0,2.88c0,.25.06.34.32.33Zm-2.34-4.58h2.69c.25,0,.35-.07.35-.34,0-1.08,0-2.16,0-3.24,0-.25-.1-.32-.33-.32H10c-.23,0-.33.07-.33.32q0,1.62,0,3.24c0,.27.1.34.35.34Zm2.28-4.9c.56,0,1.12,0,1.67,0,.27,0,.34-.1.34-.35q0-1,0-2c0-.23-.08-.33-.32-.33H13.31c-.25,0-.32.1-.32.34,0,.66,0,1.32,0,2,0,.25.07.35.33.34C13.86,13.5,14.4,13.51,14.93,13.51Z"/><path d="M16.82,20.89h-.9a.53.53,0,0,1-.57-.53c0-.29.23-.47.6-.48h1.76c.35,0,.57.19.59.46a.53.53,0,0,1-.56.54c-.3,0-.61,0-.92,0Z"/><path d="M11.31,14.75h.8a.5.5,0,0,1,.52.47.48.48,0,0,1-.48.53c-.57,0-1.14,0-1.7,0a.5.5,0,0,1-.51-.51.52.52,0,0,1,.54-.49Z"/><path d="M15.59,11.16h.61a.45.45,0,0,1,.45.43.43.43,0,0,1-.36.52,3.72,3.72,0,0,1-1.41,0,.45.45,0,0,1-.4-.5.48.48,0,0,1,.49-.46Z"/></g></g></svg>