<?xml version="1.0" standalone="no"?>
<!DOCTYPE svg PUBLIC "-//W3C//DTD SVG 20010904//EN"
 "http://www.w3.org/TR/2001/REC-SVG-20010904/DTD/svg10.dtd">
<svg version="1.0" xmlns="http://www.w3.org/2000/svg"
 width="512.000000pt" height="512.000000pt" viewBox="0 0 512.000000 512.000000"
 preserveAspectRatio="xMidYMid meet">

<g transform="translate(0.000000,512.000000) scale(0.100000,-0.100000)"
fill="#000000" stroke="none">
<path d="M2370 4844 c-14 -2 -59 -9 -100 -15 -115 -16 -293 -66 -414 -115
-505 -207 -894 -623 -1065 -1139 -77 -232 -113 -502 -91 -689 55 -470 410
-1089 1062 -1846 249 -289 651 -709 718 -749 46 -27 114 -28 160 0 19 11 107
93 194 182 846 861 1407 1664 1550 2217 69 268 50 567 -55 885 -223 674 -817
1167 -1519 1261 -94 12 -375 17 -440 8z m397 -325 c341 -47 648 -202 893 -449
164 -166 292 -373 364 -592 92 -275 105 -521 40 -745 -115 -398 -492 -971
-1056 -1606 -142 -160 -438 -472 -448 -472 -11 0 -336 343 -475 502 -651 741
-1014 1337 -1065 1750 -19 152 11 375 76 571 183 551 669 956 1251 1041 86 13
330 13 420 0z"/>
<path d="M2452 3780 c-288 -40 -543 -246 -642 -517 -133 -368 13 -770 353
-969 34 -20 102 -50 152 -67 86 -30 97 -32 245 -32 149 0 158 2 250 33 215 75
377 218 471 417 50 107 68 180 75 300 13 236 -66 437 -240 610 -79 79 -105 98
-196 142 -58 28 -134 58 -170 66 -85 20 -219 28 -298 17z m262 -342 c233 -77
372 -328 311 -562 -58 -222 -241 -366 -465 -366 -372 0 -601 406 -410 724 46
77 119 141 205 182 119 57 234 64 359 22z"/>
</g>
</svg>
