<svg xmlns="http://www.w3.org/2000/svg" viewBox="0 0 640 512"><!--!Font Awesome Free 6.7.0 by @fontawesome - https://fontawesome.com License - https://fontawesome.com/license/free Copyright 2024 Fonticons, Inc.--><path d="M633.8 458.1L476.3 336.3C488.7 312.2 496 285 496 256v-48c0-8.8-7.2-16-16-16h-16c-8.8 0-16 7.2-16 16v48c0 17.9-4 34.8-10.7 50.2l-26.6-20.5c3.1-9.4 5.3-19.2 5.3-29.7h-43.7l-41.4-32H416v-32h-85.3c-5.9 0-10.7-3.6-10.7-8v-16c0-4.4 4.8-8 10.7-8H416v-32h-85.3c-5.9 0-10.7-3.6-10.7-8v-16c0-4.4 4.8-8 10.7-8H416c0-53-43-96-96-96s-96 43-96 96v45.4L45.5 3.4C38.5-2.1 28.4-.8 23 6.2L3.4 31.5C-2.1 38.4-.8 48.5 6.2 53.9l588.4 454.7c7 5.4 17 4.2 22.5-2.8l19.6-25.3c5.4-7 4.2-17-2.8-22.5zM400 464h-56v-33.8c11.7-1.6 23.1-4.3 34-8.1l-50.4-39c-6.7 .4-13.4 .9-20.4 .2-55.9-5.5-98.7-48.6-111.2-101.9L144 241.3v6.9c0 89.6 64 169.6 152 181.7V464h-56c-8.8 0-16 7.2-16 16v16c0 8.8 7.2 16 16 16h160c8.8 0 16-7.2 16-16v-16c0-8.8-7.2-16-16-16z"/></svg>