<?xml version="1.0" standalone="no"?>
<!DOCTYPE svg PUBLIC "-//W3C//DTD SVG 20010904//EN"
 "http://www.w3.org/TR/2001/REC-SVG-20010904/DTD/svg10.dtd">
<svg version="1.0" xmlns="http://www.w3.org/2000/svg"
 width="512.000000pt" height="512.000000pt" viewBox="0 0 512.000000 512.000000"
 preserveAspectRatio="xMidYMid meet">

<g transform="translate(0.000000,512.000000) scale(0.100000,-0.100000)"
fill="#000000" stroke="none">
<path d="M1205 4791 c-119 -30 -222 -143 -240 -264 l-7 -47 -107 0 c-177 0
-282 -39 -387 -144 -67 -67 -106 -134 -129 -223 -23 -86 -23 -3020 0 -3106 47
-179 198 -323 374 -357 33 -6 285 -10 645 -10 l591 0 30 -58 c37 -72 135 -171
203 -206 113 -57 93 -56 1013 -56 534 0 866 4 900 10 183 35 344 196 379 379
14 74 14 2348 0 2422 -25 129 -125 267 -238 327 -109 58 -141 62 -524 62
l-348 0 0 259 c0 142 -5 282 -10 312 -25 129 -125 267 -238 327 -85 46 -160
62 -283 62 l-107 0 -7 47 c-15 98 -83 190 -178 241 l-52 27 -625 2 c-344 1
-638 -2 -655 -6z m1195 -471 l0 -160 -560 0 -560 0 0 160 0 160 560 0 560 0 0
-160z m-1435 -207 c14 -98 84 -190 180 -241 l50 -27 640 0 640 0 56 26 c97 46
169 142 185 247 l7 44 108 -4 c116 -3 139 -12 183 -72 20 -26 21 -43 24 -297
l3 -269 -348 0 c-378 0 -412 -4 -515 -56 -67 -34 -168 -135 -202 -202 -58
-114 -56 -72 -56 -1234 l0 -1068 -589 2 c-578 3 -590 3 -617 24 -15 11 -37 33
-48 48 -21 27 -21 31 -24 1499 -1 810 0 1486 3 1504 7 40 49 91 90 109 18 8
69 13 126 14 l97 0 7 -47z m3121 -939 c15 -11 37 -33 48 -48 21 -27 21 -31 21
-1206 0 -1175 0 -1179 -21 -1206 -11 -15 -33 -37 -48 -48 -27 -21 -34 -21
-886 -21 -852 0 -859 0 -886 21 -15 11 -37 33 -48 48 -21 27 -21 34 -24 1179
-1 634 0 1166 3 1184 7 40 49 91 90 109 24 11 188 13 877 11 838 -2 847 -2
874 -23z"/>
<path d="M2655 2866 c-67 -29 -105 -106 -91 -181 9 -47 59 -102 104 -115 25
-8 209 -10 554 -8 504 3 517 4 544 24 53 39 69 71 69 134 0 63 -16 95 -69 134
-27 21 -40 21 -554 23 -423 2 -533 0 -557 -11z"/>
<path d="M2655 2386 c-67 -29 -105 -106 -91 -181 9 -47 59 -102 104 -115 25
-8 209 -10 554 -8 504 3 517 4 544 24 53 39 69 71 69 134 0 63 -16 95 -69 134
-27 21 -40 21 -554 23 -423 2 -533 0 -557 -11z"/>
<path d="M2655 1906 c-67 -29 -105 -106 -91 -181 9 -47 59 -102 104 -115 25
-8 209 -10 554 -8 504 3 517 4 544 24 53 39 69 71 69 134 0 63 -16 95 -69 134
-27 21 -40 21 -554 23 -423 2 -533 0 -557 -11z"/>
<path d="M2655 1426 c-67 -29 -105 -106 -91 -181 9 -47 59 -102 104 -115 25
-8 209 -10 554 -8 504 3 517 4 544 24 53 39 69 71 69 134 0 63 -16 95 -69 134
-27 21 -40 21 -554 23 -423 2 -533 0 -557 -11z"/>
</g>
</svg>
