<svg xmlns="http://www.w3.org/2000/svg" xmlns:xlink="http://www.w3.org/1999/xlink" width="1366" height="768" viewBox="0 0 1366 768">
  <defs>
    <clipPath id="clip-path">
      <rect id="Rectangle_127" data-name="Rectangle 127" width="1366" height="768" fill="#fff" stroke="#707070" stroke-width="1"/>
    </clipPath>
    <clipPath id="clip-path-2">
      <rect id="Rectangle_126" data-name="Rectangle 126" width="1366" height="766.638" transform="translate(0 0.681)" fill="none"/>
    </clipPath>
    <linearGradient id="linear-gradient" y1="0.5" x2="1" y2="0.5" gradientUnits="objectBoundingBox">
      <stop offset="0" stop-color="#d7ff95"/>
      <stop offset="1" stop-color="#51fcb7"/>
    </linearGradient>
    <linearGradient id="linear-gradient-2" x1="0.284" y1="0.032" x2="0.706" y2="0.913" xlink:href="#linear-gradient"/>
    <linearGradient id="linear-gradient-3" x1="0.5" y1="-0.302" x2="0.5" y2="0.915" xlink:href="#linear-gradient"/>
    <linearGradient id="linear-gradient-7" x1="0.808" y1="9.442" x2="0.495" y2="10.562" gradientUnits="objectBoundingBox">
      <stop offset="0" stop-opacity="0"/>
      <stop offset="1"/>
    </linearGradient>
    <linearGradient id="linear-gradient-8" x1="-3.783" y1="26.611" x2="-4.014" y2="28.086" xlink:href="#linear-gradient-7"/>
    <linearGradient id="linear-gradient-9" x1="-2.272" y1="-8.421" x2="-2.702" y2="-7.432" xlink:href="#linear-gradient-7"/>
    <linearGradient id="linear-gradient-10" x1="-14.467" y1="-30.734" x2="-14.768" y2="-29.584" xlink:href="#linear-gradient-7"/>
    <linearGradient id="linear-gradient-11" x1="0" y1="0.5" x2="1" y2="0.5" xlink:href="#linear-gradient-7"/>
    <linearGradient id="linear-gradient-12" x1="-3.699" y1="47.668" x2="-3.171" y2="47.668" xlink:href="#linear-gradient-7"/>
    <linearGradient id="linear-gradient-13" x1="-36.781" y1="-22.176" x2="-35.527" y2="-22.176" xlink:href="#linear-gradient-7"/>
    <linearGradient id="linear-gradient-14" x1="0.5" y1="-0.069" x2="0.5" y2="1.082" xlink:href="#linear-gradient-7"/>
    <linearGradient id="linear-gradient-16" x1="0.11" y1="0.062" x2="0.984" y2="0.79" gradientUnits="objectBoundingBox">
      <stop offset="0"/>
      <stop offset="1" stop-opacity="0"/>
    </linearGradient>
    <linearGradient id="linear-gradient-17" x1="0.53" y1="1.426" x2="0.484" y2="-0.091" xlink:href="#linear-gradient-16"/>
    <linearGradient id="linear-gradient-18" x1="0.882" y1="0.935" x2="0.535" y2="0.426" gradientUnits="objectBoundingBox">
      <stop offset="0" stop-color="#06d288"/>
      <stop offset="1" stop-color="#005c57"/>
    </linearGradient>
    <linearGradient id="linear-gradient-19" x1="0.5" y1="1" x2="0.5" y2="-0.065" xlink:href="#linear-gradient-18"/>
    <linearGradient id="linear-gradient-20" x1="1.084" y1="0.448" x2="0.845" y2="0.469" xlink:href="#linear-gradient-18"/>
    <linearGradient id="linear-gradient-21" x1="0.041" y1="0.397" x2="1.389" y2="0.699" xlink:href="#linear-gradient-18"/>
    <linearGradient id="linear-gradient-22" y1="0.5" x2="1" y2="0.5" gradientUnits="objectBoundingBox">
      <stop offset="0" stop-color="#fff"/>
      <stop offset="1" stop-color="#b0b0b0"/>
    </linearGradient>
    <linearGradient id="linear-gradient-23" x1="0.278" y1="-0.02" x2="1.097" y2="1.47" xlink:href="#linear-gradient-22"/>
    <linearGradient id="linear-gradient-24" x1="0.011" y1="-0.727" x2="0.812" y2="1.047" xlink:href="#linear-gradient-22"/>
    <linearGradient id="linear-gradient-25" x1="-208.622" y1="-55.159" x2="-207.638" y2="-55.159" xlink:href="#linear-gradient-22"/>
    <linearGradient id="linear-gradient-26" x1="-164.406" y1="-135.999" x2="-163.729" y2="-132.667" xlink:href="#linear-gradient-22"/>
    <linearGradient id="linear-gradient-27" x1="-286.743" y1="-52.646" x2="-285.558" y2="-51.349" xlink:href="#linear-gradient-22"/>
    <linearGradient id="linear-gradient-28" x1="-127.174" y1="274.503" x2="-126.375" y2="274.503" xlink:href="#linear-gradient-22"/>
    <linearGradient id="linear-gradient-29" x1="-172.83" y1="114.408" x2="-171.879" y2="115.636" xlink:href="#linear-gradient-22"/>
    <linearGradient id="linear-gradient-30" x1="-142.655" y1="161.934" x2="-141.871" y2="163.667" xlink:href="#linear-gradient-22"/>
    <linearGradient id="linear-gradient-31" x1="0.186" y1="0.739" x2="0.768" y2="0.251" xlink:href="#linear-gradient-16"/>
    <linearGradient id="linear-gradient-32" x1="0.194" y1="0.706" x2="1.035" y2="0.08" xlink:href="#linear-gradient-16"/>
    <linearGradient id="linear-gradient-33" x1="1.493" y1="35.459" x2="2.543" y2="35.459" xlink:href="#linear-gradient-16"/>
    <linearGradient id="linear-gradient-34" x1="1.975" y1="13.68" x2="1.55" y2="12.424" xlink:href="#linear-gradient-16"/>
    <linearGradient id="linear-gradient-35" x1="1" y1="15.808" x2="1.988" y2="15.165" xlink:href="#linear-gradient-16"/>
    <linearGradient id="linear-gradient-36" x1="2.881" y1="85.237" x2="3.895" y2="85.237" xlink:href="#linear-gradient-16"/>
    <linearGradient id="linear-gradient-37" x1="3.549" y1="36.31" x2="1.829" y2="37.298" xlink:href="#linear-gradient-16"/>
    <linearGradient id="linear-gradient-38" x1="0.556" y1="0.102" x2="0.432" y2="0.859" xlink:href="#linear-gradient-16"/>
    <linearGradient id="linear-gradient-39" x1="0.438" y1="0.085" x2="0.493" y2="0.461" xlink:href="#linear-gradient-16"/>
    <linearGradient id="linear-gradient-40" x1="0.392" y1="1.429" x2="0.563" y2="0.092" xlink:href="#linear-gradient-16"/>
    <linearGradient id="linear-gradient-41" x1="0.516" y1="1.247" x2="0.489" y2="-0.178" xlink:href="#linear-gradient-16"/>
    <linearGradient id="linear-gradient-42" x1="0.845" y1="-0.022" x2="0.381" y2="0.741" xlink:href="#linear-gradient"/>
    <linearGradient id="linear-gradient-43" x1="0.876" y1="-0.013" x2="-0.997" y2="2.543" xlink:href="#linear-gradient"/>
    <linearGradient id="linear-gradient-44" x1="0.445" y1="0.576" x2="-5.766" y2="9.049" xlink:href="#linear-gradient"/>
    <linearGradient id="linear-gradient-45" x1="0.114" y1="0.32" x2="0.868" y2="0.5" gradientUnits="objectBoundingBox">
      <stop offset="0" stop-color="#09b461"/>
      <stop offset="1" stop-color="#049b2c"/>
    </linearGradient>
  </defs>
  <g id="login-3" clip-path="url(#clip-path)">
    <g id="login-3-2" data-name="login-3" transform="translate(0 0.319)">
      <g id="Group_717" data-name="Group 717" clip-path="url(#clip-path-2)">
        <rect id="Rectangle_123" data-name="Rectangle 123" width="1366" height="766.638" transform="translate(0 0.681)" fill="#fff"/>
        <path id="Path_2854" data-name="Path 2854" d="M1403.316,247.123s9.255-129.571-143.21-125.674c-95.843,2.449-174.384,139.313-331.233,206.534-82.4,35.314-427.681,92.55-228.941,452.036h694.291Z" fill="url(#linear-gradient)"/>
        <path id="Path_2855" data-name="Path 2855" d="M1531.913,330.256s9.255-129.571-143.21-125.674c-95.844,2.45-174.385,139.313-331.234,206.534-82.4,35.314-427.68,92.55-228.94,452.036H1522.82Z" fill="url(#linear-gradient-2)"/>
        <circle id="Ellipse_20" data-name="Ellipse 20" cx="26.71" cy="26.71" r="26.71" transform="translate(1015.578 134.925)" fill="url(#linear-gradient-3)"/>
        <circle id="Ellipse_21" data-name="Ellipse 21" cx="16.562" cy="16.562" r="16.562" transform="translate(913.773 175.843)" fill="url(#linear-gradient-3)"/>
        <path id="Path_2856" data-name="Path 2856" d="M946.409,118.851a8.605,8.605,0,1,0,8.6-8.606A8.6,8.6,0,0,0,946.409,118.851Z" fill="url(#linear-gradient-3)"/>
        <circle id="Ellipse_22" data-name="Ellipse 22" cx="7.794" cy="7.794" r="7.794" transform="translate(581.565 627.554)" fill="url(#linear-gradient-3)"/>
        <g id="Group_693" data-name="Group 693">
          <path id="Path_2857" data-name="Path 2857" d="M820.344,697.007a11.414,11.414,0,0,1,2.821-15.892c.246-.171.5-.322.755-.472a174.948,174.948,0,0,0-7.97-19.772l-29.262-3.278,24.4-6.168A197.651,197.651,0,0,0,787.1,617.278l-23.849,28.287,14.368-38.548a269.427,269.427,0,0,0-49.668-39.306l-3.738,35.518s-.938-21.523-1.389-38.63c-5.605-3.333-10.925-6.258-15.814-8.788l-3.027,8.093L702.3,553.422a226.86,226.86,0,0,0-24.1-10.487c.239,9.17.9,17.962,1.9,26.43l8.915,4.995-8.292.053c.853,6.246,1.92,12.282,3.149,18.148,15.785,6.275,35.1,14.327,35.1,14.327l-33.814-8.508A229.788,229.788,0,0,0,708.2,658.313l37.09-.2L714.72,669.24A222.817,222.817,0,0,0,738,699.656l10.513-15.4-5.155,21.082a235.1,235.1,0,0,0,21.194,19.211,11.363,11.363,0,0,1,11,8.319c30.253,21.547,55.826,29.371,55.826,29.371a188.985,188.985,0,0,0-1.834-60.367A11.385,11.385,0,0,1,820.344,697.007Z" fill="#10ac7a"/>
          <path id="Path_2858" data-name="Path 2858" d="M820.344,697.007a11.414,11.414,0,0,1,2.821-15.892c.246-.171.5-.322.755-.472a174.948,174.948,0,0,0-7.97-19.772l-29.262-3.278,24.4-6.168A197.651,197.651,0,0,0,787.1,617.278l-23.849,28.287,14.368-38.548a269.427,269.427,0,0,0-49.668-39.306l-3.738,35.518s-.938-21.523-1.389-38.63c-5.605-3.333-10.925-6.258-15.814-8.788l-3.027,8.093L702.3,553.422a226.86,226.86,0,0,0-24.1-10.487c.239,9.17.9,17.962,1.9,26.43l8.915,4.995-8.292.053c.853,6.246,1.92,12.282,3.149,18.148,15.785,6.275,35.1,14.327,35.1,14.327l-33.814-8.508A229.788,229.788,0,0,0,708.2,658.313l37.09-.2L714.72,669.24A222.817,222.817,0,0,0,738,699.656l10.513-15.4-5.155,21.082a235.1,235.1,0,0,0,21.194,19.211,11.363,11.363,0,0,1,11,8.319c30.253,21.547,55.826,29.371,55.826,29.371a188.985,188.985,0,0,0-1.834-60.367A11.385,11.385,0,0,1,820.344,697.007Z" opacity="0.62" fill="url(#linear-gradient-7)" style="mix-blend-mode: overlay;isolation: isolate"/>
        </g>
        <g id="Group_694" data-name="Group 694">
          <path id="Path_2859" data-name="Path 2859" d="M743.639,693.906a7.958,7.958,0,0,1-1.277-11.181c.13-.164.27-.315.41-.466a121.975,121.975,0,0,0-9.261-11.627L713.3,674.265l15.078-8.978a137.95,137.95,0,0,0-22.825-18.046l-10.308,23.65,1.93-28.62a187.9,187.9,0,0,0-41.015-16.383l4.571,24.48s-4.91-14.2-8.616-25.539c-4.409-1.111-8.546-2.007-12.317-2.725l-.412,6.01-3.212-6.67a158.194,158.194,0,0,0-18.191-2.212c1.985,6.081,4.177,11.825,6.529,17.285l6.951,1.564-5.531,1.686c1.814,4,3.728,7.825,5.716,11.5,11.8,1.052,26.31,2.588,26.31,2.588l-24.29,1.043a160.259,160.259,0,0,0,27.323,35.468l24.746-7.516-18.214,13.52a155.333,155.333,0,0,0,21.613,15.693L693.1,699.68l.751,15.114a163.76,163.76,0,0,0,17.986,8.621,7.925,7.925,0,0,1,9.01,3.369C745.353,735.163,764,735.3,764,735.3a131.761,131.761,0,0,0-13.24-39.976A7.939,7.939,0,0,1,743.639,693.906Z" fill="#10ac7a"/>
          <path id="Path_2860" data-name="Path 2860" d="M743.639,693.906a7.958,7.958,0,0,1-1.277-11.181c.13-.164.27-.315.41-.466a121.975,121.975,0,0,0-9.261-11.627L713.3,674.265l15.078-8.978a137.95,137.95,0,0,0-22.825-18.046l-10.308,23.65,1.93-28.62a187.9,187.9,0,0,0-41.015-16.383l4.571,24.48s-4.91-14.2-8.616-25.539c-4.409-1.111-8.546-2.007-12.317-2.725l-.412,6.01-3.212-6.67a158.194,158.194,0,0,0-18.191-2.212c1.985,6.081,4.177,11.825,6.529,17.285l6.951,1.564-5.531,1.686c1.814,4,3.728,7.825,5.716,11.5,11.8,1.052,26.31,2.588,26.31,2.588l-24.29,1.043a160.259,160.259,0,0,0,27.323,35.468l24.746-7.516-18.214,13.52a155.333,155.333,0,0,0,21.613,15.693L693.1,699.68l.751,15.114a163.76,163.76,0,0,0,17.986,8.621,7.925,7.925,0,0,1,9.01,3.369C745.353,735.163,764,735.3,764,735.3a131.761,131.761,0,0,0-13.24-39.976A7.939,7.939,0,0,1,743.639,693.906Z" opacity="0.62" fill="url(#linear-gradient-8)" style="mix-blend-mode: overlay;isolation: isolate"/>
        </g>
        <g id="Group_695" data-name="Group 695">
          <path id="Path_2861" data-name="Path 2861" d="M1271.486,731.863a11.411,11.411,0,0,1,14.844-6.335c.279.112.544.242.809.373a174.886,174.886,0,0,0,12.187-17.491l-13.27-26.285,18.515,17.046a197.738,197.738,0,0,0,15.453-38.763l-36.727-4.48,40.127-9.071a269.4,269.4,0,0,0,5.716-63.081l-31.772,16.31s17.5-12.564,31.571-22.3c-.278-6.515-.741-12.568-1.3-18.045l-8.429,1.9,7.851-7.146a226.989,226.989,0,0,0-4.411-25.909c-7.544,5.219-14.541,10.585-21.082,16.054l.7,10.194-4.583-6.911c-4.76,4.133-9.228,8.329-13.466,12.567,3.387,16.646,7.219,37.221,7.219,37.221l-11.383-32.957a229.77,229.77,0,0,0-37.554,52.081l20.465,30.932-26.043-19.495a222.907,222.907,0,0,0-12.715,36.133l18.642.371-20.465,7.223a235.062,235.062,0,0,0-4.481,28.252,11.36,11.36,0,0,1-.94,13.762c-1.479,37.112,5.968,62.8,5.968,62.8a188.968,188.968,0,0,0,49.521-34.571A11.388,11.388,0,0,1,1271.486,731.863Z" fill="#10ac7a"/>
          <path id="Path_2862" data-name="Path 2862" d="M1271.486,731.863a11.411,11.411,0,0,1,14.844-6.335c.279.112.544.242.809.373a174.886,174.886,0,0,0,12.187-17.491l-13.27-26.285,18.515,17.046a197.738,197.738,0,0,0,15.453-38.763l-36.727-4.48,40.127-9.071a269.4,269.4,0,0,0,5.716-63.081l-31.772,16.31s17.5-12.564,31.571-22.3c-.278-6.515-.741-12.568-1.3-18.045l-8.429,1.9,7.851-7.146a226.989,226.989,0,0,0-4.411-25.909c-7.544,5.219-14.541,10.585-21.082,16.054l.7,10.194-4.583-6.911c-4.76,4.133-9.228,8.329-13.466,12.567,3.387,16.646,7.219,37.221,7.219,37.221l-11.383-32.957a229.77,229.77,0,0,0-37.554,52.081l20.465,30.932-26.043-19.495a222.907,222.907,0,0,0-12.715,36.133l18.642.371-20.465,7.223a235.062,235.062,0,0,0-4.481,28.252,11.36,11.36,0,0,1-.94,13.762c-1.479,37.112,5.968,62.8,5.968,62.8a188.968,188.968,0,0,0,49.521-34.571A11.388,11.388,0,0,1,1271.486,731.863Z" opacity="0.62" fill="url(#linear-gradient-9)" style="mix-blend-mode: overlay;isolation: isolate"/>
        </g>
        <g id="Group_696" data-name="Group 696">
          <path id="Path_2863" data-name="Path 2863" d="M1331.565,700.177a5.3,5.3,0,0,1,7.427-1.043c.111.084.215.174.318.265a81.113,81.113,0,0,0,7.587-6.37l-2.768-13.4,6.24,9.891A91.879,91.879,0,0,0,1362,674l-15.934-6.461,19.1.794a125.205,125.205,0,0,0,10.209-27.608l-16.231,3.467s9.374-3.516,16.867-6.18c.665-2.957,1.191-5.729,1.6-8.254l-4.011-.17,4.388-2.255a105.3,105.3,0,0,0,1.161-12.158c-4.017,1.427-7.806,2.986-11.4,4.647l-.922,4.658-1.218-3.656c-2.637,1.278-5.15,2.619-7.564,4.007-.5,7.878-1.272,17.573-1.272,17.573l-1.113-16.165a106.772,106.772,0,0,0-23.16,18.814l5.433,16.358-9.321-11.9a103.537,103.537,0,0,0-10.083,14.67l8.318,2.426-10.057.76a109.468,109.468,0,0,0-5.434,12.132,5.281,5.281,0,0,1-2.089,6.06c-5.161,16.471-4.933,28.9-4.933,28.9a87.822,87.822,0,0,0,26.407-9.509A5.29,5.29,0,0,1,1331.565,700.177Z" fill="#10ac7a"/>
          <path id="Path_2864" data-name="Path 2864" d="M1331.565,700.177a5.3,5.3,0,0,1,7.427-1.043c.111.084.215.174.318.265a81.113,81.113,0,0,0,7.587-6.37l-2.768-13.4,6.24,9.891A91.879,91.879,0,0,0,1362,674l-15.934-6.461,19.1.794a125.205,125.205,0,0,0,10.209-27.608l-16.231,3.467s9.374-3.516,16.867-6.18c.665-2.957,1.191-5.729,1.6-8.254l-4.011-.17,4.388-2.255a105.3,105.3,0,0,0,1.161-12.158c-4.017,1.427-7.806,2.986-11.4,4.647l-.922,4.658-1.218-3.656c-2.637,1.278-5.15,2.619-7.564,4.007-.5,7.878-1.272,17.573-1.272,17.573l-1.113-16.165a106.772,106.772,0,0,0-23.16,18.814l5.433,16.358-9.321-11.9a103.537,103.537,0,0,0-10.083,14.67l8.318,2.426-10.057.76a109.468,109.468,0,0,0-5.434,12.132,5.281,5.281,0,0,1-2.089,6.06c-5.161,16.471-4.933,28.9-4.933,28.9a87.822,87.822,0,0,0,26.407-9.509A5.29,5.29,0,0,1,1331.565,700.177Z" opacity="0.62" fill="url(#linear-gradient-10)" style="mix-blend-mode: overlay;isolation: isolate"/>
        </g>
        <g id="Group_701" data-name="Group 701">
          <g id="Group_697" data-name="Group 697">
            <path id="Path_2865" data-name="Path 2865" d="M834.079,762.645s26.483-97.784-84.543-146.677C749.536,615.968,762.778,734.634,834.079,762.645Z" fill="#f4a94e"/>
            <path id="Path_2866" data-name="Path 2866" d="M834.079,762.645s26.483-97.784-84.543-146.677C749.536,615.968,762.778,734.634,834.079,762.645Z" fill="url(#linear-gradient-11)" style="mix-blend-mode: overlay;isolation: isolate"/>
          </g>
          <g id="Group_698" data-name="Group 698">
            <path id="Path_2867" data-name="Path 2867" d="M751.74,767.442S688.04,666.46,557.055,723.77C557.055,723.77,670.56,806.95,751.74,767.442Z" fill="#f4a94e"/>
            <path id="Path_2868" data-name="Path 2868" d="M751.74,767.442S688.04,666.46,557.055,723.77C557.055,723.77,670.56,806.95,751.74,767.442Z" fill="url(#linear-gradient-12)" style="mix-blend-mode: overlay;isolation: isolate"/>
          </g>
          <g id="Group_699" data-name="Group 699">
            <path id="Path_2869" data-name="Path 2869" d="M1256.51,760.678s80.545-37.776,50.264-139.914C1306.774,620.764,1234.794,697.008,1256.51,760.678Z" fill="#f4a94e"/>
            <path id="Path_2870" data-name="Path 2870" d="M1256.51,760.678s80.545-37.776,50.264-139.914C1306.774,620.764,1234.794,697.008,1256.51,760.678Z" fill="url(#linear-gradient-13)" style="mix-blend-mode: overlay;isolation: isolate"/>
          </g>
          <path id="Path_2871" data-name="Path 2871" d="M789.722,780.831s-220.173,0-228.616-12.99,101.319-12.99,101.319-12.99-48.062-17.535-33.124-24.68,65.6-2.6,65.6-2.6-46.763-35.071-32.474-48.061,67.545,22.082,67.545,22.082-35.071-40.267-18.834-47.411,59.752,1.948,78.586,34.422c0,0,14.289-40.268,25.33-37.67s12.34,43.515,12.34,43.515,37.02-18.185,45.463-13.639-3.247,30.526-3.247,30.526,41.567-7.145,52.608,1.3-22.732,34.422-22.732,34.422,116.906,0,116.906,18.185S789.722,780.831,789.722,780.831Z" fill="#0cc380"/>
          <path id="Path_2872" data-name="Path 2872" d="M1296.315,780.831s-220.173,0-228.616-12.99,101.318-12.99,101.318-12.99-48.061-17.535-33.123-24.68,65.6-2.6,65.6-2.6-46.762-35.071-32.474-48.061,67.546,22.082,67.546,22.082-35.072-40.267-18.835-47.411,59.752,1.948,78.587,34.422c0,0,14.288-40.268,25.329-37.67s12.34,43.515,12.34,43.515,37.021-18.185,45.464-13.639-3.248,30.526-3.248,30.526,41.567-7.145,52.608,1.3-22.732,34.422-22.732,34.422,116.906,0,116.906,18.185S1296.315,780.831,1296.315,780.831Z" fill="#0cc380"/>
          <g id="Group_700" data-name="Group 700" style="mix-blend-mode: overlay;isolation: isolate">
            <path id="Path_2873" data-name="Path 2873" d="M789.722,780.831s-220.173,0-228.616-12.99,101.319-12.99,101.319-12.99-48.062-17.535-33.124-24.68,65.6-2.6,65.6-2.6-46.763-35.071-32.474-48.061,67.545,22.082,67.545,22.082-35.071-40.267-18.834-47.411,59.752,1.948,78.586,34.422c0,0,14.289-40.268,25.33-37.67s12.34,43.515,12.34,43.515,37.02-18.185,45.463-13.639-3.247,30.526-3.247,30.526,41.567-7.145,52.608,1.3-22.732,34.422-22.732,34.422,116.906,0,116.906,18.185S789.722,780.831,789.722,780.831Z" fill="url(#linear-gradient-14)"/>
            <path id="Path_2874" data-name="Path 2874" d="M1296.315,780.831s-220.173,0-228.616-12.99,101.318-12.99,101.318-12.99-48.061-17.535-33.123-24.68,65.6-2.6,65.6-2.6-46.762-35.071-32.474-48.061,67.546,22.082,67.546,22.082-35.072-40.267-18.835-47.411,59.752,1.948,78.587,34.422c0,0,14.288-40.268,25.329-37.67s12.34,43.515,12.34,43.515,37.021-18.185,45.464-13.639-3.248,30.526-3.248,30.526,41.567-7.145,52.608,1.3-22.732,34.422-22.732,34.422,116.906,0,116.906,18.185S1296.315,780.831,1296.315,780.831Z" fill="url(#linear-gradient-14)"/>
          </g>
        </g>
        <g id="Group_716" data-name="Group 716" transform="translate(63.765 3.331)">
          <g id="Group_702" data-name="Group 702" transform="translate(1072.997 234.42)">
            <path id="Path_2875" data-name="Path 2875" d="M1282.042,613.5c.325.108,2.706,9.089,1.786,10.28s-18.4,2.431-18.287,1.083c.325-3.842,10.118-4.275,10.118-4.275l-1.948-4.166Z" transform="translate(-1186.621 -328.813)" fill="#542b4d"/>
            <path id="Path_2876" data-name="Path 2876" d="M1258.746,613.639c.325.109,2.706,9.09,1.786,10.28s-18.4,2.431-18.288,1.083c.325-3.841,10.117-4.274,10.117-4.274l-1.948-4.166Z" transform="translate(-1181.288 -328.845)" fill="#542b4d"/>
            <path id="Path_2877" data-name="Path 2877" d="M1283.553,437.937s25.755,6.53-5.194,139.953c0,0-9.306,2.507-14.5.722l-1.948-92.2-2.6.255,1.3,91.588s-7.359,2.218-13.2.433c0,0-17.963-128.5-15.149-131.818S1283.553,437.937,1283.553,437.937Z" transform="translate(-1178.934 -288.623)" fill="#005f91"/>
            <path id="Path_2878" data-name="Path 2878" d="M1286.844,265.224,1285,255.956a4.834,4.834,0,0,1,.31-2.877c1.258-2.882,4.238-9.093,6.436-8.773,2.857.415-2.287,11.205-2.287,11.205l5.013,9.1Z" transform="translate(-1191.055 -244.294)" fill="#f59e80"/>
            <path id="Path_2879" data-name="Path 2879" d="M1178.936,300.823l-3.463-8.792a4.826,4.826,0,0,0-1.818-2.252c-2.616-1.743-8.483-5.356-10.159-3.9-2.178,1.894,7.985,8.188,7.985,8.188l.706,10.366Z" transform="translate(-1163.191 -253.736)" fill="#f59e80"/>
            <path id="Path_2880" data-name="Path 2880" d="M1225.566,307.574s-8.008-13.743-1.19-17.746,29,11.362,26.62,21.317-9.523,11.254-9.523,11.254Z" transform="translate(-1176.568 -254.568)" fill="#542b4d"/>
            <path id="Path_2881" data-name="Path 2881" d="M1240.526,296.119a21.426,21.426,0,0,1-3.491,4.663c-3.3,2.477-8.873,3.58-13.722,2.585a38.479,38.479,0,0,0,2.639,5.8l15.907,14.825s7.142-1.3,9.523-11.254C1252.637,307.489,1247.071,300.744,1240.526,296.119Z" transform="translate(-1176.954 -256.158)" fill="url(#linear-gradient-16)" style="mix-blend-mode: overlay;isolation: isolate"/>
            <path id="Path_2882" data-name="Path 2882" d="M1231.608,330.048l3.865,16.717s8.31,2.609,19.133-2.9l-8.117-17.877Z" transform="translate(-1178.853 -262.996)" fill="#f59e80"/>
            <path id="Path_2883" data-name="Path 2883" d="M1246.457,326l-14.849,4.05,2.935,12.692C1239.955,339.235,1244.176,332.095,1246.457,326Z" transform="translate(-1178.853 -262.998)" fill="#e88d75"/>
            <path id="Path_2884" data-name="Path 2884" d="M1234.409,300.206a9.207,9.207,0,0,0-9.135,7.652c-1.378,7.485-3.122,20.47,1.347,20.538,6.281.1,13.141-2.8,15.847-6.28,0,0,5.894-1.16,6.667-6.957s-4.638-1.74-4.638-1.74S1243.374,300.441,1234.409,300.206Z" transform="translate(-1177.055 -257.093)" fill="#f59e80"/>
            <path id="Path_2885" data-name="Path 2885" d="M1181.521,292.831s12.985,42.635,47.4,38.523,29.65-65.576,29.65-65.576l9.523-1.3s33.112,56.27-4.112,84.188l13.634,53.456s-33.112,19.261-62.762,9.089l-3.463-53.023s-40.471,7.791-39.389-63.628Z" transform="translate(-1165.202 -248.915)" fill="#053f99"/>
            <line id="Line_48" data-name="Line 48" x2="53.096" y2="241.816" transform="translate(72.661 177.016)" fill="none" stroke="#ffb02a" stroke-miterlimit="10" stroke-width="2.245"/>
            <line id="Line_49" data-name="Line 49" x2="53.096" y2="241.816" transform="translate(13.794 177.016)" fill="none" stroke="#ffb02a" stroke-miterlimit="10" stroke-width="2.245"/>
            <line id="Line_50" data-name="Line 50" x1="58.867" transform="translate(40.558 297.346)" fill="none" stroke="#ffb02a" stroke-miterlimit="10" stroke-width="2.245"/>
            <line id="Line_51" data-name="Line 51" x1="58.867" transform="translate(26.274 231.121)" fill="none" stroke="#ffb02a" stroke-miterlimit="10" stroke-width="2.245"/>
            <line id="Line_52" data-name="Line 52" x1="58.867" transform="translate(51.19 347.304)" fill="none" stroke="#ffb02a" stroke-miterlimit="10" stroke-width="2.245"/>
            <path id="Path_2886" data-name="Path 2886" d="M1268.825,403.428c-13.766,4.236-30.514,5.476-44.464.059l2.481,37.989c29.649,10.172,62.762-9.089,62.762-9.089l-9.109-35.713A33.021,33.021,0,0,1,1268.825,403.428Z" transform="translate(-1177.194 -279.177)" fill="url(#linear-gradient-17)" style="mix-blend-mode: overlay;isolation: isolate"/>
          </g>
          <g id="Group_708" data-name="Group 708" transform="translate(841.835 400.759)">
            <g id="Group_703" data-name="Group 703" transform="translate(0 0)">
              <path id="Path_2887" data-name="Path 2887" d="M933.943,492.388l29.313,215.134a25.508,25.508,0,0,0,25.274,22.064h123.637a25.508,25.508,0,0,0,25.237-21.805l31.429-214.239Z" transform="translate(-879.549 -467.427)" fill="url(#linear-gradient-18)"/>
              <path id="Path_2888" data-name="Path 2888" d="M878.37,492.388l29.312,215.134a25.508,25.508,0,0,0,25.274,22.064h123.637a25.509,25.509,0,0,0,25.238-21.805l31.428-214.239Z" transform="translate(-866.827 -467.427)" fill="url(#linear-gradient-19)"/>
              <rect id="Rectangle_124" data-name="Rectangle 124" width="253.07" height="26.836" rx="13.418" transform="translate(49.344)" fill="url(#linear-gradient-20)"/>
              <rect id="Rectangle_125" data-name="Rectangle 125" width="256.893" height="26.836" rx="13.418" fill="url(#linear-gradient-21)"/>
            </g>
            <g id="Group_707" data-name="Group 707" transform="translate(72.628 90.327)">
              <g id="Group_704" data-name="Group 704" transform="translate(27.657)">
                <path id="Path_2889" data-name="Path 2889" d="M1022.591,589.459,1005.67,615.19l-12.211-7.065,18.928-30.965Z" transform="translate(-993.458 -577.16)" fill="url(#linear-gradient-22)"/>
                <path id="Path_2890" data-name="Path 2890" d="M1018.005,577.16h15.962l14.916,24.772-11.939,7.425Z" transform="translate(-999.078 -577.16)" fill="url(#linear-gradient-23)"/>
                <path id="Path_2891" data-name="Path 2891" d="M1061.119,601.368l-31.575,19.277,27.389,7.763Z" transform="translate(-1001.719 -582.702)" fill="url(#linear-gradient-24)"/>
              </g>
              <g id="Group_705" data-name="Group 705" transform="translate(52.907 48.891)">
                <path id="Path_2892" data-name="Path 2892" d="M1076.516,675.127l-13.854-27.5,12.216-7.056,17.388,31.855Z" transform="translate(-1034.551 -640.566)" fill="url(#linear-gradient-25)"/>
                <path id="Path_2893" data-name="Path 2893" d="M1089.966,681.878,1082,695.711l-28.91.564-.477-14.051Z" transform="translate(-1032.251 -650.023)" fill="url(#linear-gradient-26)"/>
                <path id="Path_2894" data-name="Path 2894" d="M1047.548,704.3l-.948-36.982-20.4,19.86Z" transform="translate(-1026.205 -646.691)" fill="url(#linear-gradient-27)"/>
              </g>
              <g id="Group_706" data-name="Group 706" transform="translate(0 42.101)">
                <path id="Path_2895" data-name="Path 2895" d="M973.454,682.466l30.721,2.153-.18,14.107-36.267-1.339Z" transform="translate(-959.911 -643.368)" fill="url(#linear-gradient-28)"/>
                <path id="Path_2896" data-name="Path 2896" d="M965.407,690.222l-7.817-13.917,14.294-25.135,12.32,6.773Z" transform="translate(-957.591 -636.203)" fill="url(#linear-gradient-29)"/>
                <path id="Path_2897" data-name="Path 2897" d="M963.132,641.351l32.269,18.09-6.644-27.681Z" transform="translate(-958.859 -631.76)" fill="url(#linear-gradient-30)"/>
              </g>
            </g>
          </g>
          <g id="Group_711" data-name="Group 711" transform="translate(825.857 270.931)">
            <path id="Path_2898" data-name="Path 2898" d="M892.655,296.617l34.286-4.973-51.168,68.965Z" transform="translate(-850.255 -291.644)" fill="#ff9f67"/>
            <g id="Group_709" data-name="Group 709" transform="translate(34.286 0)">
              <path id="Path_2899" data-name="Path 2899" d="M929.544,291.644l-42.4,56.533,46.326,58.1,47.9-55.487Zm22.044,48.783-18.534-20.29a4.318,4.318,0,0,1,6.377-5.825l18.534,20.29a4.318,4.318,0,0,1-6.377,5.825Z" transform="translate(-887.144 -291.644)" fill="#ff9f67"/>
              <path id="Path_2900" data-name="Path 2900" d="M929.544,291.644l-42.4,56.533,46.326,58.1,47.9-55.487Zm22.044,48.783-18.534-20.29a4.318,4.318,0,0,1,6.377-5.825l18.534,20.29a4.318,4.318,0,0,1-6.377,5.825Z" transform="translate(-887.144 -291.644)" fill="url(#linear-gradient-31)" style="mix-blend-mode: overlay;isolation: isolate"/>
            </g>
            <g id="Group_710" data-name="Group 710" transform="translate(0 4.973)">
              <path id="Path_2901" data-name="Path 2901" d="M885.079,298.093l-42.4,56.533L889,412.73l47.9-55.487Zm22.044,48.784-18.535-20.291a4.319,4.319,0,0,1,6.378-5.825l18.534,20.29a4.319,4.319,0,0,1-6.377,5.826Z" transform="translate(-842.679 -298.093)" fill="#ff9f67"/>
              <path id="Path_2902" data-name="Path 2902" d="M885.079,298.093l-42.4,56.533L889,412.73l47.9-55.487Zm22.044,48.784-18.535-20.291a4.319,4.319,0,0,1,6.378-5.825l18.534,20.29a4.319,4.319,0,0,1-6.377,5.826Z" transform="translate(-842.679 -298.093)" fill="url(#linear-gradient-32)" style="mix-blend-mode: overlay;isolation: isolate"/>
            </g>
            <path id="Path_2903" data-name="Path 2903" d="M950.654,373.328l34.286-4.973-47.9,55.486-34.286,4.973Z" transform="translate(-856.433 -309.205)" fill="#ff9f67"/>
          </g>
          <g id="Group_712" data-name="Group 712" transform="translate(991.039 281.64)">
            <path id="Path_2904" data-name="Path 2904" d="M1102.052,352.188l34.223-21.769,19.306,60.023-32.51,28.038Z" transform="translate(-1067.237 -311.229)" fill="#ff7db6"/>
            <path id="Path_2905" data-name="Path 2905" d="M1101.96,311.21l29.326,14.812-51.026,16.412Z" transform="translate(-1062.248 -306.832)" fill="#ff7db6"/>
            <path id="Path_2906" data-name="Path 2906" d="M1101.96,311.21l29.326,14.812-51.026,16.412Z" transform="translate(-1062.248 -306.832)" fill="url(#linear-gradient-33)" style="mix-blend-mode: overlay;isolation: isolate"/>
            <path id="Path_2907" data-name="Path 2907" d="M1056.9,354.288l11.384-34.58,28.334-8.507-4.9,36.588Z" transform="translate(-1056.901 -306.829)" fill="#ff7db6"/>
            <path id="Path_2908" data-name="Path 2908" d="M1102.052,352.188l34.223-21.769,19.306,60.023-32.51,28.038Z" transform="translate(-1067.237 -311.229)" fill="url(#linear-gradient-34)" style="mix-blend-mode: overlay;isolation: isolate"/>
            <path id="Path_2909" data-name="Path 2909" d="M1091.716,358.651l-34.815,6.5,21.4,66.547,34.429-6.755Z" transform="translate(-1056.901 -317.692)" fill="#ff7db6"/>
            <path id="Path_2910" data-name="Path 2910" d="M1091.716,358.651l-34.815,6.5,21.4,66.547,34.429-6.755Z" transform="translate(-1056.901 -317.692)" fill="url(#linear-gradient-35)" style="mix-blend-mode: overlay;isolation: isolate"/>
            <path id="Path_2911" data-name="Path 2911" d="M1136.274,327.947l-34.223,21.769,4.036-30.1Z" transform="translate(-1067.237 -308.757)" fill="#ff7db6"/>
            <path id="Path_2912" data-name="Path 2912" d="M1099.71,309.9l-28.334,8.507-.973-3.969,28.053-8.909Z" transform="translate(-1059.992 -305.532)" fill="#ff7db6"/>
            <path id="Path_2913" data-name="Path 2913" d="M1099.71,309.9l-28.334,8.507-.973-3.969,28.053-8.909Z" transform="translate(-1059.992 -305.532)" fill="url(#linear-gradient-36)" style="mix-blend-mode: overlay;isolation: isolate"/>
            <path id="Path_2914" data-name="Path 2914" d="M1136.274,327.947l-34.223,21.769,4.036-30.1Z" transform="translate(-1067.237 -308.757)" fill="url(#linear-gradient-37)" style="mix-blend-mode: overlay;isolation: isolate"/>
          </g>
          <g id="Group_713" data-name="Group 713" transform="translate(935.77 201.165)">
            <path id="Path_2915" data-name="Path 2915" d="M1075.595,220.442s-12.387,10.781-11.937,18.527c.4,6.957,1.431,31.348-33.126,56.454,0,0-5.533,6.21-6.143,13.287a6,6,0,0,1-7.882,5.112c-3.508-1.182-8.421-3.552-15.268-8.006-10.6-6.893-14.48-12.973-15.756-17.245a6.051,6.051,0,0,1,3.7-7.452c3.983-1.419,9.974-4.616,12.31-11.409,3.634-10.565,14.125-33.228,42.248-47.424,0,0,7.714-1.868,9.824-17.347Z" transform="translate(-985.224 -202.029)" fill="#63d9ed"/>
            <path id="Path_2916" data-name="Path 2916" d="M1075.595,220.442s-12.387,10.781-11.937,18.527c.4,6.957,1.431,31.348-33.126,56.454,0,0-5.533,6.21-6.143,13.287a6,6,0,0,1-7.882,5.112c-3.508-1.182-8.421-3.552-15.268-8.006-10.6-6.893-14.48-12.973-15.756-17.245a6.051,6.051,0,0,1,3.7-7.452c3.983-1.419,9.974-4.616,12.31-11.409,3.634-10.565,14.125-33.228,42.248-47.424,0,0,7.714-1.868,9.824-17.347Z" transform="translate(-985.224 -202.029)" fill="url(#linear-gradient-38)" style="mix-blend-mode: overlay;isolation: isolate"/>
            <path id="Path_2917" data-name="Path 2917" d="M1095.986,220.786l-23.048-16.53a1.192,1.192,0,0,1-.35-1.542l.509-.927a1.193,1.193,0,0,1,1.746-.391l23.145,16.81a1.192,1.192,0,0,1,.168,1.78l-.606.646A1.192,1.192,0,0,1,1095.986,220.786Z" transform="translate(-1005.19 -201.166)" fill="#77ddef"/>
            <path id="Path_2918" data-name="Path 2918" d="M1095.979,220.782l-23.048-16.53a1.191,1.191,0,0,1-.35-1.542l.509-.927a1.192,1.192,0,0,1,1.746-.391l23.146,16.81a1.193,1.193,0,0,1,.168,1.781l-.606.645A1.192,1.192,0,0,1,1095.979,220.782Z" transform="translate(-1005.188 -201.165)" fill="url(#linear-gradient-39)" style="mix-blend-mode: overlay;isolation: isolate"/>
          </g>
          <g id="Group_715" data-name="Group 715" transform="translate(769.198 428.509)">
            <path id="Path_2919" data-name="Path 2919" d="M844.534,795.845c-.325.108-2.706,9.089-1.786,10.279s18.4,2.431,18.288,1.083c-.325-3.841-12.167-3.9-12.167-3.9l.217-7.214Z" transform="translate(-785.987 -564.646)" fill="#542b4d"/>
            <path id="Path_2920" data-name="Path 2920" d="M830.875,797.341c-.325.109-2.7,9.09-1.785,10.28s18.4,2.431,18.288,1.083c-.325-3.842-12.167-3.9-12.167-3.9l.216-7.214Z" transform="translate(-782.861 -564.988)" fill="#542b4d"/>
            <g id="Group_714" data-name="Group 714">
              <path id="Path_2921" data-name="Path 2921" d="M849.8,640.023H815.138C789.162,664.6,823.823,764.1,823.823,764.1l7.357-.189-.512-89.82a5.6,5.6,0,0,0,2.986.086l.1,89.733,7.357.189S875.772,664.6,849.8,640.023Z" transform="translate(-777.504 -528.974)" fill="#005f91"/>
              <path id="Path_2922" data-name="Path 2922" d="M800.266,525.787s-3.679-3.679-2.6-5.3,4.977.865,4.977.865,3.787-29.325,26.945-24.888,17.422,26.62,22.183,32.246,36.143,28.135.433,47.721-83.864-3.679-83-12.011,17.746-4,15.149-13.094-12.336-13.2-4.869-20.344S800.266,525.787,800.266,525.787Z" transform="translate(-769.198 -496.005)" fill="#053f99"/>
              <path id="Path_2923" data-name="Path 2923" d="M824.149,560.375a66.225,66.225,0,0,1-40.324-22.831,16.763,16.763,0,0,0-4.335,2.946c-7.466,7.142,2.272,11.254,4.869,20.344s-14.283,4.761-15.149,13.094,47.289,31.6,83,12.011c20.97-11.5,18.8-24.009,12.477-33.516A59.173,59.173,0,0,1,824.149,560.375Z" transform="translate(-769.198 -505.514)" fill="url(#linear-gradient-40)" style="mix-blend-mode: overlay;isolation: isolate"/>
              <path id="Path_2924" data-name="Path 2924" d="M865.2,610.58s-24.768-29.884-16.067-36.562,20.649,23.195,20.649,23.195l32.12-2.069s15.191-3.023,16.469-.53-6.074,9.006-15.714,6.046C902.661,600.66,870.909,614.872,865.2,610.58Z" transform="translate(-787.074 -513.641)" fill="#f59e80"/>
              <path id="Path_2925" data-name="Path 2925" d="M827.172,566.038l.318-22.778,14.691,9.631,1.224,12.715S835.288,572.855,827.172,566.038Z" transform="translate(-782.47 -506.823)" fill="#f59e80"/>
              <path id="Path_2926" data-name="Path 2926" d="M843.1,561.757l-.854-8.867-14.691-9.631-.089,6.379a22.344,22.344,0,0,0,5.182,7.634C835.049,560.271,839.108,562.433,843.1,561.757Z" transform="translate(-782.538 -506.823)" fill="#e88d75"/>
              <path id="Path_2927" data-name="Path 2927" d="M821.816,531.992s.433,3.03,2.272,2.814,1.082-12.174,1.082-12.174a13.6,13.6,0,0,1,8.765-5.194s-1.19,12.931,13.2,13.851c0,0,1.785,12.12-3.03,16.34-4,3.508-14.284,3.571-19.154-8.332C824.954,539.3,817.7,537.781,821.816,531.992Z" transform="translate(-780.955 -500.912)" fill="#f59e80"/>
              <path id="Path_2928" data-name="Path 2928" d="M810.192,582.233s6.6-8.44,13.093-9.631,16.232-.433,16.232-.433,16.015,5.086,11.578,25c0,0-3.679,10.28,0,15.149s1.3,16.34-10.5,15.258a235.682,235.682,0,0,0-24.348-.6,2.309,2.309,0,0,1-2.353-2.114Z" transform="translate(-778.583 -513.387)" fill="#542b4d"/>
              <path id="Path_2929" data-name="Path 2929" d="M851.851,602.488a15.146,15.146,0,0,1-2.866,1.3c-12.12,4.848-25.215,5.778-36.924,2.016l2.265,26.05a2.31,2.31,0,0,0,2.353,2.114,235.849,235.849,0,0,1,24.348.6c11.8,1.083,14.176-10.388,10.5-15.257s0-15.149,0-15.149C851.65,603.59,851.757,603.035,851.851,602.488Z" transform="translate(-779.01 -520.382)" fill="url(#linear-gradient-41)" style="mix-blend-mode: overlay;isolation: isolate"/>
              <path id="Path_2930" data-name="Path 2930" d="M802.191,620.165s-.433-38.812,10.533-38.524,1.443,31.021,1.443,31.021l26.259,18.612s13.707,7.214,13.13,9.955-10.388,3.174-16.015-5.195C837.541,636.036,803.923,627.09,802.191,620.165Z" transform="translate(-776.75 -515.609)" fill="#f59e80"/>
            </g>
          </g>
        </g>
        <path id="Path_2931" data-name="Path 2931" d="M-9.212,623.088c3.229,0,70.221-67.8,117.035,20.985s154.971,45.2,125.107,159.814H-10.019Z" fill="url(#linear-gradient-42)"/>
        <circle id="Ellipse_23" data-name="Ellipse 23" cx="30.688" cy="30.688" r="30.688" transform="translate(178.735 618.786)" fill="url(#linear-gradient-43)"/>
        <circle id="Ellipse_24" data-name="Ellipse 24" cx="9.255" cy="9.255" r="9.255" transform="translate(164.122 563.256)" fill="url(#linear-gradient-44)"/>
      </g>
    </g>
    <circle id="Ellipse_25" data-name="Ellipse 25" cx="229" cy="229" r="229" transform="translate(832 579)" fill="url(#linear-gradient-45)"/>
  </g>
</svg>
