<svg xmlns="http://www.w3.org/2000/svg" width="60" height="71.911" viewBox="0 0 60 71.911">
  <g id="logo" transform="translate(5.574 -835.342)">
    <path id="Path_1833" data-name="Path 1833" d="M1.515,897.326l2.98,6.836,2.8-6.464H8.6l-4.1,9.535-2.979-6.851-2.98,6.851-4.11-9.535h1.306l2.817,6.536Z" fill="#414042"/>
    <path id="Path_1834" data-name="Path 1834" d="M17.288,904.186H12.172a2.011,2.011,0,0,0,.759,1.349,2.169,2.169,0,0,0,1.29.425,2.234,2.234,0,0,0,1.8-.893l.923.7a3.338,3.338,0,0,1-2.783,1.344,3.011,3.011,0,0,1-2.238-.916,3.107,3.107,0,0,1-.9-2.273,3.049,3.049,0,0,1,.913-2.207,3.094,3.094,0,0,1,4.443.015A3.333,3.333,0,0,1,17.288,904.186ZM12.3,903.177h3.663a1.935,1.935,0,0,0-1.8-1.235A1.912,1.912,0,0,0,12.3,903.177Z" fill="#414042"/>
    <path id="Path_1835" data-name="Path 1835" d="M20.471,897.7h1.335l2.907,6.557,2.929-6.557h1.346L24.7,907.253Z" fill="#414042"/>
    <path id="Path_1836" data-name="Path 1836" d="M30.447,902.257a4.559,4.559,0,0,1,1.512-3.434,5.1,5.1,0,0,1,3.634-1.431,4.964,4.964,0,0,1,3.567,1.441,4.593,4.593,0,0,1,1.5,3.424,4.772,4.772,0,0,1-1.479,3.548,5.237,5.237,0,0,1-7.242-.011A4.766,4.766,0,0,1,30.447,902.257Zm8.866.059a3.419,3.419,0,0,0-1.1-2.581,3.8,3.8,0,0,0-2.718-1.049,3.627,3.627,0,0,0-2.628,1.067,3.449,3.449,0,0,0-1.093,2.563,3.38,3.38,0,0,0,1.122,2.566,3.876,3.876,0,0,0,2.75,1.049,3.555,3.555,0,0,0,2.584-1.071A3.451,3.451,0,0,0,39.313,902.316Z" fill="#414042"/>
    <path id="Path_1837" data-name="Path 1837" d="M43.774,897.683h1.25v9.259h-1.25Z" fill="#414042"/>
    <path id="Path_1838" data-name="Path 1838" d="M54.2,898.715l-1.025.82a4.069,4.069,0,0,0-.736-.628,1.8,1.8,0,0,0-.954-.206,1.832,1.832,0,0,0-1.1.307.939.939,0,0,0-.424.793.963.963,0,0,0,.37.743,5.065,5.065,0,0,0,1.262.706,8.785,8.785,0,0,1,1.389.714,3.493,3.493,0,0,1,.816.73,2.842,2.842,0,0,1,.476.842,2.8,2.8,0,0,1,.156.937,2.64,2.64,0,0,1-.839,1.967,2.81,2.81,0,0,1-2.031.813,3.443,3.443,0,0,1-2.054-.635,4,4,0,0,1-1.37-1.908l1.264-.355a2.248,2.248,0,0,0,2.116,1.561,1.651,1.651,0,0,0,1.149-.413,1.341,1.341,0,0,0,.456-1.042,1.418,1.418,0,0,0-.238-.758,2.141,2.141,0,0,0-.6-.626,6.232,6.232,0,0,0-1.134-.566,7.92,7.92,0,0,1-1.2-.584,3.116,3.116,0,0,1-.727-.631,2.7,2.7,0,0,1-.448-.731,2.1,2.1,0,0,1-.142-.776,2.175,2.175,0,0,1,.8-1.7,2.838,2.838,0,0,1,1.939-.7,3.939,3.939,0,0,1,1.535.326A3.151,3.151,0,0,1,54.2,898.715Z" fill="#414042"/>
    <g id="Group_433" data-name="Group 433">
      <g id="Group_432" data-name="Group 432">
        <g id="Group_430" data-name="Group 430">
          <path id="Path_1839" data-name="Path 1839" d="M-1.133,842.881c0,1.321,4.273,18.721,5.66,20.2s7.855,2.63,9,3.453,11.2,19.372,11.2,19.372v-3.594s-7.909-14.542-8.036-15.2c-.561-.829,5.484-6.666,5.951-7.859a57.839,57.839,0,0,0,1.337-6.215c0-1.794-1.252.646-2.83,5.379-.793,2.37-5.137,6.18-6.013,6.158s-8.559-2.533-9.014-3.026a5.186,5.186,0,0,1-1.115-3.128c.156-.945,5.085-5.731,4.51-6.312s-4.7,4.191-5.156,3.922C3.776,856.024-.043,842.881-1.133,842.881Z" fill="#47b549"/>
          <path id="Path_1840" data-name="Path 1840" d="M24.731,893.134v-2.8A26.132,26.132,0,0,1,.051,855.68l-1.275-4.828A28.906,28.906,0,0,0,24.39,893.134h.341" fill="#47b549"/>
          <path id="Path_1841" data-name="Path 1841" d="M24.731,838.119v-2.773c-.114,0-.227,0-.341,0a28.835,28.835,0,0,0-21.943,10.1l1.133,3.476A26.085,26.085,0,0,1,24.731,838.119Z" fill="#47b549"/>
        </g>
        <g id="Group_431" data-name="Group 431">
          <path id="Path_1842" data-name="Path 1842" d="M50.592,842.881c0,1.321-4.275,18.721-5.66,20.2s-7.855,2.63-9,3.453-11.2,19.372-11.2,19.372v-3.594s7.9-14.542,8.035-15.2c.561-.829-5.485-6.666-5.951-7.859a57.358,57.358,0,0,1-1.337-6.215c0-1.794,1.25.646,2.83,5.379.791,2.37,5.135,6.18,6.012,6.158s8.561-2.533,9.013-3.026a5.186,5.186,0,0,0,1.115-3.128c-.158-.945-5.087-5.731-4.51-6.312s4.708,4.191,5.156,3.922C45.684,856.024,49.5,842.881,50.592,842.881Z" fill="#47b549"/>
          <path id="Path_1843" data-name="Path 1843" d="M24.729,893.134v-2.8A26.122,26.122,0,0,0,49.4,855.68l1.279-4.828a28.906,28.906,0,0,1-25.617,42.282h-.338" fill="#47b549"/>
          <path id="Path_1844" data-name="Path 1844" d="M24.729,838.119v-2.773c.112,0,.226,0,.338,0a28.826,28.826,0,0,1,21.942,10.1l-1.134,3.476A26.07,26.07,0,0,0,24.729,838.119Z" fill="#47b549"/>
        </g>
      </g>
    </g>
  </g>
</svg>
