<svg xmlns="http://www.w3.org/2000/svg" viewBox="0 0 1920.47 951.41"><defs><style>.cls-1{isolation:isolate;}.cls-2{fill:#e6ffe6;}.cls-2,.cls-3,.cls-5{mix-blend-mode:multiply;}.cls-3{fill:#3ac340;}.cls-4,.cls-5{fill:#3abe3f;}.cls-4{opacity:0.31;}.cls-5{opacity:0.25;}.cls-6{fill:#ebf2f9;}.cls-7{fill:#e48f89;}.cls-25,.cls-8{fill:#fff;}.cls-9{fill:#dd7169;}.cls-10{fill:#0e0e34;}.cls-11{fill:#ca5856;}.cls-12{fill:#924141;}.cls-13{fill:#d37473;}.cls-14{fill:#dfe7fc;}.cls-15{fill:#df7871;}.cls-16{fill:#e07b74;}.cls-17{fill:#e28780;}.cls-18{fill:#d16966;}.cls-19{fill:#272563;}.cls-20{fill:#414ac8;}.cls-21{fill:#7588cb;}.cls-22{fill:#c3d1f8;}.cls-23{fill:#4862bd;}.cls-24,.cls-32{fill:#9cb1f1;}.cls-24{opacity:0.5;}.cls-25{opacity:0.3;}.cls-26{fill:#d38888;}.cls-27{fill:#d57674;}.cls-28{fill:#893632;}.cls-29{fill:#131338;}.cls-30{fill:#201e5d;}.cls-31{fill:#121053;}</style></defs><title>slider-1</title><g class="cls-1"><g id="Layer_2" data-name="Layer 2"><g id="_Layer_" data-name="&lt;Layer&gt;"><g id="Слой_2" data-name="Слой 2"><rect class="cls-2" y="1.41" width="1920" height="950"/><path class="cls-3" d="M1586.52,846.42c213.91-6.79,303.1-226.52,282.51-475C1856.51,220.22,1788.77,80.4,1665.49,0H1149.3c-53.49,34-94,75.45-125.69,113.39C896.21,266,880.07,523.81,995.2,655.89S1340,854.24,1586.52,846.42Z"/><path class="cls-4" d="M1381.45,893.58C1562.41,970.63,1812,912,1905,765q8.22-13,15.43-26.88V154c-.45-1.37-.89-2.74-1.34-4.1C1895.18,78,1849.79,29,1790.8,0h-352q-25.44,8.16-51,18.2c-207.08,81.56-356.63,270.34-300.67,522.93C1136.13,761.94,1275.13,848.31,1381.45,893.58Z"/><path class="cls-5" d="M1916.16,565.08q2.19-6.09,4.31-12.28V251.45c-23.76-38.69-61.83-72.46-119.4-97.75-195.22-85.76-666.5-25.49-803.19,242C887.1,612.44,1048.05,864.92,1245.67,950h289C1718.78,880.32,1867,702,1916.16,565.08Z"/><path class="cls-6" d="M1846.37,599.27c0-2.24-.07-4.52-.18-6.84-.25-5.73-.64-11.64-1.28-17.74-.47-4.45-1-9-1.75-13.57-11.93-78.51-58.81-171.78-186.2-158.77-204.45,20.84-395.07-294.08-500.73-64.52-16.81,36.52-48.24,43.32-102.78,68.08-50.9,23.08-87.63,82.15-81.5,155.21q.52,6.74,1.6,13.57c.86,5.85,2,11.72,3.46,17.74,1.39,5.7,3,11.48,5,17.25a261.46,261.46,0,0,0,24.08,52c.21.32.39.64.57,1h826.65c6.66-1.81,12.5-26.54,13.11-61.16C1846.37,600.77,1846.4,600,1846.37,599.27Z"/><polygon class="cls-7" points="1615.07 570.51 1614.56 581.74 1610.93 660.07 1554.96 660.07 1550.15 580.99 1549.51 570.51 1615.07 570.51"/><polygon class="cls-8" points="1572.91 603.02 1578.79 606.31 1585.2 596.52 1577.27 596.52 1572.91 603.02"/><path class="cls-8" d="M1584.37,605.83l-2.33,1.32,7.48.32,2.86-5.75-2.18,1.15-3.7-6.08s-4,5.88-4,6,1.86,3,2,3.14Z"/><polygon class="cls-8" points="1593.92 608.77 1588.1 612.16 1593.26 622.66 1597.3 615.83 1593.92 608.77"/><path class="cls-8" d="M1585.68,616.43l0-1.9-4.08,6.28,3.5,5.38-.05-2.53,7.28,0s-3.56-7.11-3.64-7.21Z"/><polygon class="cls-8" points="1578.45 623.66 1578.39 616.69 1567.52 616.43 1571.08 623.66 1578.45 623.66"/><path class="cls-8" d="M1575.6,611.83l2.18,1.56-2.87-6.92-6.41-.16,2,1.49-3.17,7.39s6.69.11,6.82.1,1.49-3.46,1.52-3.62Z"/><path class="cls-9" d="M1615.07,570.51l-.52,11.23c-5.56-1.88-20.35-7.24-31.27-7.24-11.39,0-28,4.89-33.13,6.49l-.64-10.48Z"/><rect class="cls-7" x="1545.36" y="563.62" width="73.85" height="10.88" rx="4.3"/><path class="cls-8" d="M1571,630h1.88a1.61,1.61,0,0,1,1.82,1.61c0,1.07-.86,1.63-1.91,1.63h-1v1.54H1571Zm1.82,2.48c.63,0,1-.35,1-.86s-.41-.86-1-.86h-1v1.72Z"/><path class="cls-8" d="M1576.74,630h.77l2.1,4.81h-.88l-.49-1.16H1576l-.49,1.16h-.86Zm1.2,2.91-.83-1.91-.82,1.91Z"/><path class="cls-8" d="M1580.44,630h1.88a1.6,1.6,0,0,1,1.81,1.61c0,1.07-.86,1.63-1.91,1.63h-.94v1.54h-.84Zm1.81,2.48c.63,0,1-.35,1-.86s-.4-.86-1-.86h-1v1.72Z"/><path class="cls-8" d="M1585,630h3.54v.75h-2.71V632h2.4v.75h-2.4v1.28h2.74v.76H1585Z"/><path class="cls-8" d="M1589.57,630h2.13c1.12,0,1.77.6,1.77,1.52a1.43,1.43,0,0,1-1.14,1.45l1.29,1.81h-1l-1.18-1.67h-1v1.67h-.84Zm2.07,2.37c.6,0,1-.32,1-.81s-.37-.8-1-.8h-1.22v1.61Z"/><rect class="cls-10" x="1007.3" y="659.96" width="826.92" height="2.19" rx="1.02"/><rect class="cls-11" x="1038.93" y="592.71" width="68.56" height="30.41" rx="3.85"/><circle class="cls-12" cx="1296.01" cy="633.17" r="27.48"/><circle class="cls-12" cx="1401.18" cy="633.17" r="27.48"/><circle class="cls-12" cx="1075.77" cy="633.17" r="27.48"/><circle class="cls-12" cx="1153.86" cy="633.17" r="27.48"/><path class="cls-13" d="M1075.47,484.77s14.91-22.5,32.15-22.68l-1.53,24.34Z"/><path class="cls-9" d="M1163.32,587.54H1044l9.94-80.63a26.14,26.14,0,0,1,25.95-23h83.47Z"/><path class="cls-13" d="M1093.94,538.25h-33.47l4.43-31.83A13.27,13.27,0,0,1,1078,495H1095Z"/><path class="cls-14" d="M1091.47,535.86h-22a5.5,5.5,0,0,1-5.45-6.23l2.92-22A11.41,11.41,0,0,1,1078,497.46h14.33Z"/><polygon class="cls-15" points="1414.1 449.73 1222.68 449.73 1222.68 611.81 1437.15 611.81 1414.1 449.73"/><polygon class="cls-13" points="1380.19 449.73 1188.78 449.73 1188.78 611.81 1403.24 611.81 1380.19 449.73"/><polygon class="cls-16" points="1325.67 611.81 1096.09 611.81 1106.33 449.73 1312.1 449.73 1325.67 611.81"/><polygon class="cls-7" points="1316.96 605.66 1104.8 605.66 1114.26 455.88 1304.42 455.88 1314.59 577.29 1316.96 605.66"/><path class="cls-13" d="M1116.79,587.54H1044c-6.41.42-7,3.59-7,3.59l-6.23,30.12a2,2,0,0,0,2.11,1.88h18.31a2.86,2.86,0,0,0,2.48-1.92,30.11,30.11,0,0,1,4.71-4.73,29.62,29.62,0,0,1,17.47-5.17c9.33,0,17.58,3,22.54,7.51h18.47c2.23,0,4.06-1.16,4.06-2.59V590.12C1120.85,588.7,1119,587.54,1116.79,587.54Z"/><polygon class="cls-7" points="1319 544.65 1316.96 514.63 1340.91 457.37 1346.18 459.57 1319 544.65"/><path class="cls-13" d="M1333,646.67H1310a21.37,21.37,0,0,0-2.89-7.44c-7-11.18-23.3-14.6-32.59-15.64a67.21,67.21,0,0,0-6.8-.46h39.67a29.1,29.1,0,0,1,20.55,12.48A34,34,0,0,1,1333,646.67Z"/><path class="cls-13" d="M1437.15,646.67h-23.08a21.52,21.52,0,0,0-3.47-8.32c-10.55-15.2-38.82-15.22-38.82-15.22h39.68a28.89,28.89,0,0,1,18.47,9.82A34.29,34.29,0,0,1,1437.15,646.67Z"/><polygon class="cls-15" points="1424.58 544.65 1422.54 514.63 1446.49 457.37 1451.76 459.57 1424.58 544.65"/><path class="cls-9" d="M1469.2,497.86l-57.69-17.81-98.18-30.32,12.34-27.49,90.91-31.77,52.62,17.87C1496,438.62,1469.2,497.86,1469.2,497.86Z"/><path class="cls-11" d="M1327.9,635.61s-15.19-3.2-20.83,3.62c-7-11.18-23.3-14.6-32.59-15.64l-.56-.46h33.43A29.1,29.1,0,0,1,1327.9,635.61Z"/><path class="cls-11" d="M1429.93,633h0s-12.7-.28-19.33,5.4c-10.55-15.2-38.82-15.22-38.82-15.22h39.68A28.89,28.89,0,0,1,1429.93,633Z"/><path class="cls-7" d="M1411.51,480.05l-98.18-30.32,12.34-27.49,90.91-31.77S1430.87,431,1411.51,480.05Z"/><rect class="cls-11" x="1098.2" y="611.81" width="344.65" height="15.72" rx="4.27"/><rect class="cls-11" x="1112.79" y="615.76" width="68.56" height="34.82" rx="4.11"/><path class="cls-17" d="M1317,605.67H1104.8l9.46-149.79h37.06c11.6,34.22,50.84,115.34,163.26,121.41Z"/><polygon class="cls-8" points="1195.42 507.3 1208.82 514.79 1223.43 492.5 1205.35 492.5 1195.42 507.3"/><path class="cls-8" d="M1221.53,513.72l-5.31,3,17,.73,6.51-13.09-5,2.62-8.43-13.86s-9,13.39-9.09,13.68c0,0,4.24,6.93,4.55,7.14Z"/><polygon class="cls-8" points="1243.28 520.4 1230.02 528.13 1241.79 552.04 1250.98 536.47 1243.28 520.4"/><path class="cls-8" d="M1224.52,537.85l.09-4.33-9.29,14.31,8,12.26-.12-5.77,16.61-.05s-8.12-16.19-8.31-16.42Z"/><polygon class="cls-8" points="1208.05 554.32 1207.91 538.44 1183.14 537.85 1191.27 554.32 1208.05 554.32"/><path class="cls-8" d="M1201.56,527.37l5,3.55L1200,515.17l-14.61-.38,4.48,3.4L1182.61,535s15.25.26,15.54.23c0,0,3.41-7.88,3.48-8.24Z"/><path class="cls-11" d="M1046.14,522.65s-3,16-2.84,18.65,2.62,3.89,4.49,3.89Z"/><rect class="cls-13" x="1046.01" y="521.31" width="11.11" height="23.88" rx="2.66"/><rect class="cls-14" x="1047.25" y="522.65" width="9.03" height="21.38" rx="2.27"/><path class="cls-11" d="M1051.57,521.75a.41.41,0,0,1-.37-.44v-6.79a4.27,4.27,0,0,1,4.5-3.76c3.69.12,5.28,0,5.3,0a.39.39,0,0,1,.39.4.43.43,0,0,1-.34.47c-.07,0-1.64.11-5.37,0a3.4,3.4,0,0,0-3.74,3v6.71A.41.41,0,0,1,1051.57,521.75Z"/><path class="cls-13" d="M1090.84,548.63h-6.76a1.72,1.72,0,0,1-1.71-1.72h0a1.72,1.72,0,0,1,1.71-1.72h6.76a1.73,1.73,0,0,1,1.72,1.72h0A1.73,1.73,0,0,1,1090.84,548.63Z"/><g id="P297LW"><path class="cls-10" d="M1508.61,507.62s-2.65-5.59-.57-9,10.32-3.66,10.32-3.66-.71.39-.75.75,2.37-.93,4,2,1.57,5.63-.19,9.64S1508.61,507.62,1508.61,507.62Z"/><path class="cls-7" d="M1550.06,563.48a46.76,46.76,0,0,1-13.85-.68,16.07,16.07,0,0,1-2.81-.88,4.4,4.4,0,0,1-2-1.54,57.38,57.38,0,0,1-2.84-8.48c-3.39-11.77-8.15-31.23-8.15-31.23s9.57,2,11.59,3.62,3.81,28.11,5.72,28.83a14.81,14.81,0,0,1,1.38.63l.09,0,1.24.63c3.95,2,10.49,5.68,11.16,6.5C1552.45,562,1552.39,562.94,1550.06,563.48Z"/><path class="cls-7" d="M1531.71,535.73a7.71,7.71,0,0,0-.13-1.35c-1.23-6.77-11-13.57-11.21-13.57h0c0,1-1.63,2.94-4.15,3.1-3,.2-6.63-1.28-6.63-3,0,0-1.7,0-2.26.07-2.39.27-7.15,1.56-9.2,3.1s.81,10.72,2.5,17.27a26.22,26.22,0,0,1,1.17,6.07c0,.49-.49,7.22-.89,13.3-.33,5-.62,9.59-.63,9.88,0,.57,2.81,2.57,7.57,4.07a33.79,33.79,0,0,0,3.77,1,39.62,39.62,0,0,0,8.21.82c1,0,1.91-.06,2.79-.14C1529.42,575.67,1531.75,567.93,1531.71,535.73Z"/><path class="cls-18" d="M1550.08,563.46c-.23.06-.55.09-.95.15a50.76,50.76,0,0,1-5.69,0c-3.52-.17-7.56-.65-10-1.74a12.72,12.72,0,0,1,5.75-8.13c1.75.86,4.53,2.32,7,3.75h0a34.24,34.24,0,0,1,5.38,3.38C1552.45,562,1552.39,563,1550.08,563.46Z"/><path class="cls-18" d="M1509.57,520.62a56.59,56.59,0,0,1,.34-8.42l10.49,1.72s0,3.2,0,6.75h0s.28,3.3-3.78,3.78S1509.46,523.17,1509.57,520.62Z"/><path class="cls-10" d="M1518.35,660c-1.32-.81-.55-6.83-.55-6.83s6.18-4.91,7-1.13,5.83,5.49,8.68,6a3.08,3.08,0,0,1,2.76,2.07Z"/><path class="cls-9" d="M1508.73,556.09c0,10.07-4.87,7.36-7.82,4.64.4-6.08.84-12.81.89-13.3a26.22,26.22,0,0,0-1.17-6.07l1-8.25S1508.73,541.68,1508.73,556.09Z"/><path class="cls-9" d="M1540.39,554.42c-.2,1.41-2.43,5.52-4.18,8.38a16.07,16.07,0,0,1-2.81-.88,4.4,4.4,0,0,1-2-1.54,57.38,57.38,0,0,1-2.84-8.48c.91-5.26,1.77-10.46,1.77-10.46l.27-3.48c0,.27,4.08,15.57,5.93,15.93a6.4,6.4,0,0,0,2.57-.14l.09,0Z"/><path class="cls-10" d="M1499.41,660c-1.32-.81-.54-6.83-.54-6.83s6.18-4.91,7-1.13,5.83,5.49,8.68,6a3.06,3.06,0,0,1,2.76,2.07Z"/><path class="cls-18" d="M1520.09,514.94a14.4,14.4,0,0,1-4.87,1.69,39.55,39.55,0,0,1-5.24-1.47c-1.25-.76-1.17-2.29-1.23-4.42a33.08,33.08,0,0,1,0-5.95c.33-1.74,1.43-2.73,4.52-3,5.66-.49,8,.93,8.12,2.83,0,.51.05,1,.07,1.46C1521.63,512,1521.16,514.1,1520.09,514.94Z"/><path class="cls-10" d="M1521.46,508c-.06,3.43-1,5.46-1.65,5.71a13.61,13.61,0,0,1-2.63.7c-.32,0-.62,0-.62-.15,0-.54.73-1.21.2-1.69s-3.59-.67-3.84.43c-.12.53.86,1.48.19,1.5l-.59-.12a8.85,8.85,0,0,1-2.33-1c-1.25-.76-1.17-1.92-1.44-4-.18-1.37-.18-.63,0,1.4s-.18,3.48,1.23,4.42c.78.52,5.3,2.55,5.3,2.55-.06-1.08,3.79-2,4.81-2.77S1521.51,512.47,1521.46,508Z"/><path class="cls-19" d="M1500.28,570.61c0,.57,2.81,2.57,7.57,4.07.38.13.78.24,1.19.36h0c.44,5.21,1.64,12.56,2.73,19.66h0c.28,1.84.55,3.67.8,5.43a110,110,0,0,1,1.21,12v0c0,1.4-1.16,4.91-1.25,5.72-.06.49-.1,1-.13,1.56a62.67,62.67,0,0,0,.1,7.55c.77,12.07,4,27.51,5.1,28.17,2.26,1.31,6.38,0,8.47-.31a1.71,1.71,0,0,0,1.51-1.74c-1-20,1.92-47.92,4.11-65.07.06-.45.12-.89.17-1.32.26-2,.44-3.91.55-5.61.1-1.49.14-2.85.17-4,0-.36,0-.71,0-1,0-1.08-.85-8.1-.89-40.3h0a1.35,1.35,0,0,0-1.36-1.35h-19.69a3.41,3.41,0,0,0-3.41,3.46,53.11,53.11,0,0,1-.59,9.15c-.72,4.47-2.28,8.65-5.49,9.66h0l-.24.56h0c0,.81-.07,1.63-.11,2.47,0,.17,0,.34,0,.51s0,.2,0,.3l0,.51c0,.28,0,.57,0,.85s0,.45,0,.68c0,.44-.05.88-.08,1.32,0,.15,0,.29,0,.43,0,.58-.08,1.16-.13,1.75,0,.18,0,.36,0,.54a2.11,2.11,0,0,1,0,.26c0,.24,0,.47-.05.7l-.06.74C1500.19,569.17,1500.3,570,1500.28,570.61Z"/><path class="cls-10" d="M1512.51,627c.77,12.07,4,27.51,5.1,28.17,2.26,1.31,6.38,0,8.47-.31a1.71,1.71,0,0,0,1.51-1.74c-1-20,1.92-47.92,4.11-65.07.06-.45.12-.89.17-1.32.26-2,.44-3.91.55-5.61-1.05-6.8-6.94-7.16-12.28,6.9.67,4.67-6.35,21-6.35,24.12v0c0,1.4-1.16,4.91-1.25,5.72-.06.49-.1,1-.13,1.56A62.67,62.67,0,0,0,1512.51,627Z"/><path class="cls-19" d="M1500.06,611.55c-.16,1.39-1.8,4.71-2,5.5-2.7,10.86-1.21,36.6.13,37.63,2.07,1.59,6.32.84,8.44.81a1.73,1.73,0,0,0,1.73-1.53c1.66-20.51,8.53-48.68,13-65.25a78.39,78.39,0,0,0,2.54-14.49s-20.67-12.66-22.91-5.74C1499,574.6,1501.31,600.84,1500.06,611.55Z"/><path class="cls-19" d="M1506.62,521.08s6.1,7.1,6.45,13.3H1510a29.63,29.63,0,0,0-5.38-12.87Z"/><path class="cls-19" d="M1521.77,521.07a31.15,31.15,0,0,1,4.88,13.31h3.1c-.26-4.87-3.29-10.06-5-12.59h0C1523.62,521.47,1522.56,521.23,1521.77,521.07Z"/><path class="cls-7" d="M1501.75,559.19c.15,7.26-.76,21.74-.76,21.74h-4.28c-2-10.19-2.74-16.74-2.74-20.31,0-.7,0-1.36,0-2,0-3,.11-4.82.11-4.82-.81-18.49,2.88-28.37,4-29.74s6.47-2.58,6.47-2.58a73.8,73.8,0,0,1,2.47,9.22c.71,4.1-5.62,21.37-5.36,27.27C1501.72,558.37,1501.74,558.77,1501.75,559.19Z"/><path class="cls-18" d="M1501.49,571.22c-.2,5.24-.49,9.7-.49,9.7h-4.29c-.75-3.63-1.29-6.81-1.72-9.53a77.84,77.84,0,0,1-1-10.76c0-.71,0-1.37,0-2a14.78,14.78,0,0,1,7.75.54C1501.8,562.43,1501.66,567.07,1501.49,571.22Z"/><path class="cls-18" d="M1504,586.3c.06,1.17-5.06,3.86-6.61,3.15s-1.6-4.78-.71-8.53,4.29,0,4.29,0S1504,585.1,1504,586.3Z"/><path class="cls-10" d="M1508.61,507.62s-.46-5.05,2.51-5.05,7,3.8,8.79,1.36,1.53,3.36,1.53,3.36l.19-7.77-11.48-.43-2.4,1.79Z"/><path class="cls-18" d="M1560,563.61h-10.9l2.43-2.69a11.62,11.62,0,0,0,4.64,0C1558,560.34,1560,563.61,1560,563.61Z"/><path class="cls-20" d="M1560.45,563.61h-11.32a50.76,50.76,0,0,1-5.69,0c2.4-2.06,2.72-6.12,2.72-6.12h0c2.67,1.49,6.18,4.28,10,3.38C1558.31,560.42,1560.45,563.61,1560.45,563.61Z"/><path class="cls-20" d="M1504,586.3c.06,1.17-5.06,3.86-6.61,3.15s-1.6-4.78-.71-8.53c-.75-3.63-1.29-6.81-1.72-9.53a17.45,17.45,0,0,0,6.5-.17c-.2,5.24-.49,9.7-.49,9.7S1504,585.1,1504,586.3Z"/></g><path class="cls-21" d="M1465.56,660.07h-18.88c-1-.86.7-2.81,2.49-2.94a10.9,10.9,0,0,1,2.88.34c.26-3.45,1.74-19,7.34-18.35,6.28.7,0,6.84-1.78,10.47a84.41,84.41,0,0,0-3.34,8.37l1.58.32c.83-2.56,3.93-11.17,7.88-10.67,4.63.59,2.76,4-.52,6.09-2.41,1.51-5.36,3.65-6.77,4.68a19.53,19.53,0,0,0,3.7.3C1463.37,658.6,1465,659.55,1465.56,660.07Z"/><path class="cls-21" d="M1223.47,659c-1.21-1.91-4.87-6.87-9.75-6.21-5.3.71,5.87,4.21,9.29,6.22a5.7,5.7,0,0,1-1.89-.22c-2.29-.81-6.21.75-7.46,1.3h21.77a3.45,3.45,0,0,0-1.55-2,3.9,3.9,0,0,0-2-.18c1.3-1.53,2.2-6.4-1.41-5.15-2.63.92-2.62,3.9-2.37,5.66l-1.68.26c-1.09-5.53-4.92-21.72-12.69-22.15s6.68,16.79,11.52,22.3C1224.62,658.9,1224,659,1223.47,659Z"/><polygon class="cls-21" points="1699.84 570.51 1699.32 581.74 1695.7 660.07 1639.73 660.07 1634.91 580.99 1634.28 570.51 1699.84 570.51"/><polygon class="cls-22" points="1657.67 603.02 1663.55 606.31 1669.97 596.52 1662.03 596.52 1657.67 603.02"/><path class="cls-22" d="M1669.13,605.83l-2.33,1.32,7.48.32,2.86-5.75-2.18,1.15-3.7-6.08s-4,5.88-4,6,1.86,3,2,3.14Z"/><polygon class="cls-22" points="1678.68 608.77 1672.86 612.16 1678.03 622.66 1682.06 615.83 1678.68 608.77"/><path class="cls-22" d="M1670.45,616.43l0-1.9-4.07,6.28,3.49,5.38-.05-2.53,7.29,0s-3.56-7.11-3.65-7.21Z"/><polygon class="cls-22" points="1663.22 623.66 1663.15 616.69 1652.28 616.43 1655.85 623.66 1663.22 623.66"/><path class="cls-22" d="M1660.37,611.83l2.18,1.56-2.87-6.92-6.42-.16,2,1.49-3.17,7.39s6.69.11,6.82.1,1.5-3.46,1.53-3.62Z"/><path class="cls-23" d="M1699.84,570.51l-.52,11.23c-5.57-1.88-20.35-7.24-31.27-7.24-11.4,0-28,4.89-33.14,6.49l-.63-10.48Z"/><rect class="cls-21" x="1630.13" y="563.62" width="73.85" height="10.88" rx="4.3"/><path class="cls-22" d="M1652.5,630.49h1.88a1.61,1.61,0,0,1,1.82,1.61c0,1.07-.86,1.63-1.91,1.63h-1v1.53h-.84Zm1.81,2.48c.64,0,1-.35,1-.87s-.4-.85-1-.85h-1V633Z"/><path class="cls-22" d="M1657.06,630.49h.84v4h2.51v.76h-3.35Z"/><path class="cls-22" d="M1663,630.45h.77l2.11,4.81H1665l-.49-1.15h-2.25l-.49,1.15h-.86Zm1.2,2.92-.83-1.91-.82,1.91Z"/><path class="cls-22" d="M1666.28,634.57l.51-.6a2.2,2.2,0,0,0,1.5.62c.52,0,.85-.24.85-.62s-.19-.52-1.08-.73-1.59-.54-1.59-1.44a1.45,1.45,0,0,1,1.63-1.38,2.66,2.66,0,0,1,1.74.6l-.45.63a2.17,2.17,0,0,0-1.3-.49c-.49,0-.78.25-.78.58s.22.53,1.13.75,1.54.61,1.54,1.41-.7,1.43-1.71,1.43A2.93,2.93,0,0,1,1666.28,634.57Z"/><path class="cls-22" d="M1672,631.26h-1.51v-.77h3.87v.77h-1.51v4H1672Z"/><path class="cls-22" d="M1675.34,630.49h.84v4.77h-.84Z"/><path class="cls-22" d="M1677.24,632.87a2.42,2.42,0,0,1,2.47-2.46,2.48,2.48,0,0,1,1.87.74l-.54.62a1.89,1.89,0,0,0-1.34-.59,1.7,1.7,0,0,0,0,3.39,1.87,1.87,0,0,0,1.37-.62l.54.55a2.45,2.45,0,0,1-1.94.84A2.4,2.4,0,0,1,1677.24,632.87Z"/><path class="cls-24" d="M1700.09,550.38l-8.75,10.71a3,3,0,0,1-4.19.43l-4.39-3.59a3.16,3.16,0,0,1-.45-4.43l8.64-10.58a5.72,5.72,0,0,1,6-1.89.65.65,0,0,0,.73-.28l.15-.2.46-.57,3.27,2.66-.47.57a1.8,1.8,0,0,1-.19.2.59.59,0,0,0-.14.69A5.72,5.72,0,0,1,1700.09,550.38Z"/><path class="cls-25" d="M1700.09,550.38l-8.75,10.71a3,3,0,0,1-4.19.43l-2.76-2.26a3.16,3.16,0,0,1-.45-4.43l8.64-10.58a5.74,5.74,0,0,1,6-1.89.65.65,0,0,0,.31,0,.64.64,0,0,0,.43-.29,1.43,1.43,0,0,1,.14-.2l.46-.57,1.64,1.33-.47.57a1.8,1.8,0,0,1-.19.2.59.59,0,0,0-.14.69A5.72,5.72,0,0,1,1700.09,550.38Z"/><path class="cls-8" d="M1698.28,548.9l-8.75,10.72a3,3,0,0,1-4.19.42l-.95-.78a3.16,3.16,0,0,1-.45-4.43l8.64-10.58a5.74,5.74,0,0,1,6-1.89.65.65,0,0,0,.31,0,.58.58,0,0,0,.06.26A5.72,5.72,0,0,1,1698.28,548.9Z"/><rect class="cls-9" x="1697.92" y="540.28" width="4.68" height="1.11" transform="translate(721.9 -951.2) rotate(39.1)"/><path class="cls-26" d="M1698.9,552.48c-.8-.57-2.61-1.81-2.71-1.53a1.25,1.25,0,0,0,.25.89c-1.09-.41-2.21-.68-4.84-.17a2,2,0,0,0-1.29.85.86.86,0,0,0,.3,1.35c1.35.84,1,.34,2.82,1.55s4.15,1.53,5.51.68l1.83-.31.23-3S1700,552.65,1698.9,552.48Z"/><path class="cls-26" d="M1746.87,527.22s-4.32,5.12-9.81,3a16.43,16.43,0,0,1-1.2-5c0-.26,0-.51,0-.75,0-2.37-.11-3.7-.11-3.7h0c.25-.11,8.4-3.45,8.4-3.18C1744,524,1746.87,527.22,1746.87,527.22Z"/><path class="cls-27" d="M1743.32,519.14a12.77,12.77,0,0,1-7.47,5.34c0-2.37-.11-3.7-.11-3.7h0C1736,520.72,1743.55,518.71,1743.32,519.14Z"/><path class="cls-26" d="M1734,520.53s9.17,2.16,10.42-3.57,3.28-9.31-2.52-10.93-7.42.32-8.3,2.13S1731.68,519.82,1734,520.53Z"/><path class="cls-28" d="M1744.14,518.52c.12.08,2.1.68,5.83-6.76a6.44,6.44,0,0,0-.38-5.92c-1.37-2.24-6.21-4-10.24-4.76s-5,1.5-5.94,3.78a12.36,12.36,0,0,1-3.87,4.36c3.47,1.94,7.65-.83,9.1-.38s2,2.74,2.07,3.47.28,1.34,2.1.69.82,2.58.53,3.2C1743.34,516.2,1743.09,517.85,1744.14,518.52Z"/><path class="cls-29" d="M1767.75,661.4h5.55c1.17,0,2.46-1.17,2.78-3.3s2.72-3.3,3.24-5.05-2.14-4.2-2.14-4.2l-.44-.57-.46-.59-4.4,1s-.11,1-.18,2.38c0,1-.07,2.08,0,3,.13,2.33-.66,4.84-2.72,5.29S1767.75,661.4,1767.75,661.4Z"/><path class="cls-29" d="M1729.11,661.4h14.71a1.65,1.65,0,0,0,.32-.09c1-.5.67-4.26.55-5.42,0-.21,0-.34,0-.34s-5.17-4.14-5.88-1a2.45,2.45,0,0,1-.08.29h0c-.9,3-4.91,4.31-7.23,4.69A2.53,2.53,0,0,0,1729.11,661.4Z"/><path class="cls-30" d="M1732.08,576.55s.78,9.8,1.71,21.59c1.25,16,2.76,35.67,2.91,39.39.26,6.47,1.29,16.82,1.29,16.82s2.46,2.45,7.38,1.42a169.23,169.23,0,0,0,5.63-30.4l.06-.77c1.16-15.91,3-49.41,3-49.41Z"/><path class="cls-10" d="M1732.08,576.55s.78,9.8,1.71,21.59L1751,625.37l.06-.77c1.16-15.91,3-49.41,3-49.41Z"/><path class="cls-30" d="M1735.66,577.71s14.17,35.51,23.48,52.19,12.22,21.34,12.22,21.34,5.34-2.13,5.82-3.59c0,0-3.56-32.21-9.79-40.06-3.53-4.44-7.67-17.75-7.86-22.41s-1.26-13.87-1.26-13.87Z"/><path class="cls-26" d="M1768,571.26l.15,2.29a4.92,4.92,0,0,0,2.72,6.13s1.8.73,1.88-.68-.16-.87,0-2.85-.63-3.85-1.94-4.48l-1.07-1.24Z"/><path class="cls-31" d="M1769.61,572.92c-1.57.51-1.82.39-1.82.39s-7.63-13.89-8.4-15.16-16.2-15.58-16.2-15.58l4-14.78s17.55,22.72,19.45,26c3.13,5.39,5,17.9,5,17.9A4.55,4.55,0,0,1,1769.61,572.92Z"/><path class="cls-19" d="M1729.09,548.38c.05,3,.23,6.45.47,9.91l0,.62c.15,2.15.32,4.3.51,6.4q.11,1.26.24,2.49v.11c0,.3,0,.64.08.94.77,7.86,1.58,14.07,1.73,14.17a.86.86,0,0,0,.61.15c2.06-.26,8.21.21,13.25-.89a38,38,0,0,0,11.78-4.88c.52-.31,1.69-1.11,1.59-1.72s-.26-1.61-.48-2.82a151.19,151.19,0,0,1-2.54-19.79c-.08-1.57-.21-3.12-.38-4.64a70.26,70.26,0,0,0-2-11.08c-1.73-6.22-4.26-11-7.45-12.84-.41-.23-2.65,1.19-4.71,2.51a9,9,0,0,1-5.84,1.38l-1.71,1.9a19.13,19.13,0,0,0-4.88,10.17c0,.33-.08.69-.11,1.07A65.16,65.16,0,0,0,1729.09,548.38Z"/><path class="cls-31" d="M1729.09,548.38c.05,3,.23,6.45.47,9.91l0,.62c11.78-7.37,13.59-20.86,13.59-20.86a32.19,32.19,0,0,0-13.94,3.49A65.16,65.16,0,0,0,1729.09,548.38Z"/><path class="cls-19" d="M1699.33,554.18c-.12-1.74.78-2,.78-2s17.76-3.22,19.27-3.7,14.42-13.9,14.42-13.9,4.94-5.58,9-4.34a7.61,7.61,0,0,1,5.37,6.43,7.7,7.7,0,0,1-3.58,7.91c-6.06,3.71-18.19,11-21,11.87-6.36,1.87-23.44.15-23.44.15A5.53,5.53,0,0,1,1699.33,554.18Z"/><polygon class="cls-32" points="1416.22 570.51 1415.7 581.74 1412.08 660.07 1356.11 660.07 1351.29 580.99 1350.65 570.51 1416.22 570.51"/><polygon class="cls-8" points="1374.05 603.02 1379.93 606.31 1386.35 596.52 1378.41 596.52 1374.05 603.02"/><path class="cls-8" d="M1385.51,605.83l-2.33,1.32,7.48.32,2.86-5.75-2.18,1.15-3.7-6.08s-4,5.88-4,6,1.86,3,2,3.14Z"/><polygon class="cls-8" points="1395.06 608.77 1389.24 612.16 1394.41 622.66 1398.44 615.83 1395.06 608.77"/><path class="cls-8" d="M1386.82,616.43l0-1.9-4.08,6.28,3.5,5.38,0-2.53,7.29,0s-3.57-7.11-3.65-7.21Z"/><polygon class="cls-8" points="1379.6 623.66 1379.53 616.69 1368.66 616.43 1372.23 623.66 1379.6 623.66"/><path class="cls-8" d="M1376.75,611.83l2.18,1.56-2.88-6.92-6.41-.16,2,1.49-3.17,7.39s6.69.11,6.82.1,1.5-3.46,1.52-3.62Z"/><path class="cls-21" d="M1416.22,570.51l-.52,11.23c-5.57-1.88-20.36-7.24-31.27-7.24-11.4,0-28,4.89-33.14,6.49l-.64-10.48Z"/><rect class="cls-32" x="1346.51" y="563.62" width="73.85" height="10.88" rx="4.3"/><path class="cls-8" d="M1371.93,632.29a2.45,2.45,0,0,1,2.49-2.49,2.59,2.59,0,0,1,1.85.65l-.54.64a1.9,1.9,0,0,0-1.35-.51,1.63,1.63,0,0,0-1.56,1.71,1.61,1.61,0,0,0,1.64,1.73,2,2,0,0,0,1.16-.37v-.9h-1.23V632h2v2a3.08,3.08,0,0,1-2,.75A2.4,2.4,0,0,1,1371.93,632.29Z"/><path class="cls-8" d="M1377.55,629.88h.85v4h2.53v.78h-3.38Z"/><path class="cls-8" d="M1383.52,629.85h.79l2.12,4.86h-.89l-.49-1.17h-2.28l-.5,1.17h-.87Zm1.22,2.94-.84-1.93-.82,1.93Z"/><path class="cls-8" d="M1386.86,634l.51-.6a2.2,2.2,0,0,0,1.52.62c.53,0,.86-.24.86-.62s-.2-.53-1.09-.74-1.61-.55-1.61-1.45a1.48,1.48,0,0,1,1.65-1.4,2.7,2.7,0,0,1,1.75.61l-.45.64a2.24,2.24,0,0,0-1.31-.5c-.5,0-.79.26-.79.59s.22.54,1.14.76,1.56.61,1.56,1.42-.71,1.44-1.73,1.44A3,3,0,0,1,1386.86,634Z"/><path class="cls-8" d="M1391.2,634l.51-.6a2.23,2.23,0,0,0,1.53.62c.52,0,.85-.24.85-.62s-.19-.53-1.09-.74-1.61-.55-1.61-1.45a1.48,1.48,0,0,1,1.65-1.4,2.68,2.68,0,0,1,1.75.61l-.45.64a2.24,2.24,0,0,0-1.31-.5c-.5,0-.79.26-.79.59s.22.54,1.15.76,1.55.61,1.55,1.42-.71,1.44-1.73,1.44A3,3,0,0,1,1391.2,634Z"/></g></g></g></g></svg>