<svg xmlns="http://www.w3.org/2000/svg" viewBox="0 0 35.46 40.48"><defs><style>.cls-1{fill:#0ba118;}.cls-2,.cls-3{fill:#fff;}.cls-2{stroke:#0ba118;stroke-miterlimit:10;stroke-width:0.97px;}</style></defs><g id="Layer_2" data-name="Layer 2"><g id="Layer_1-2" data-name="Layer 1"><path class="cls-1" d="M13.37,0A13.62,13.62,0,0,1,27,12.13a12.6,12.6,0,0,1-1,6.12A64.32,64.32,0,0,1,20.23,29c-1.81,2.88-3.8,5.64-5.78,8.41-.18.26-.42.5-.58.77s-.42.31-.66,0c-2-2.69-3.93-5.41-5.75-8.22a78.28,78.28,0,0,1-5.3-9.24A19.3,19.3,0,0,1,.07,14.49a12.38,12.38,0,0,1,2-8.09A13.31,13.31,0,0,1,11.74.13C12.32.05,12.91,0,13.37,0Zm.15,20a6.43,6.43,0,1,0-6.44-6.42A6.45,6.45,0,0,0,13.52,20Z"/><circle class="cls-2" cx="23.87" cy="28.9" r="11.1"/><path class="cls-1" d="M22.82,36a1.59,1.59,0,0,1-.89-.53l-1.36-1.41-2-2c-.76-.78-1.55-1.58-2.34-2.34a1.4,1.4,0,0,1-.48-1,1.32,1.32,0,0,1,.48-1c.55-.53,1.12-1.1,1.75-1.73a1.32,1.32,0,0,1,1-.45,1.3,1.3,0,0,1,.95.44c.7.74,1.41,1.46,2.12,2.19l1,1L28.21,24l.12-.13a1.56,1.56,0,0,1,1.12-.57,1.58,1.58,0,0,1,1.12.59l.56.57c.33.34.65.67,1,1a1.51,1.51,0,0,1,.49,1.05,1.44,1.44,0,0,1-.48,1q-2.73,2.67-5.46,5.37L24,35.56A1.38,1.38,0,0,1,23,36h-.1Z"/><path class="cls-3" d="M31.46,26.84c-2.73,2.68-5.44,5.36-8.17,8-.08.09-.17.19-.29.19a.66.66,0,0,1-.39-.27l-3.34-3.44c-.79-.8-1.57-1.59-2.37-2.36-.24-.24-.25-.38,0-.61.61-.58,1.2-1.16,1.78-1.76.2-.2.33-.22.54,0,1.05,1.1,2.12,2.18,3.18,3.28a1.59,1.59,0,0,0,.13.13c.51.48.56.48,1.05,0L29,24.6c.4-.4.47-.4.87,0s1,1.07,1.56,1.58C31.68,26.42,31.73,26.59,31.46,26.84Z"/></g></g></svg>