<svg xmlns="http://www.w3.org/2000/svg" viewBox="0 0 35.53 40"><defs><style>.cls-1{fill:#0ba118;}</style></defs><g id="Layer_2" data-name="Layer 2"><g id="Layer_1-2" data-name="Layer 1"><path class="cls-1" d="M16.66,16.92c.35-.81.65-1.39.85-2A2.14,2.14,0,0,1,19,13.48c1.69-.6,3.34-1.28,5-1.91a1.1,1.1,0,0,0,.76-.76c.09-.32.06-.52-.3-.63a3,3,0,0,1-2.24-3A8.38,8.38,0,0,1,23.69,1.6,4.65,4.65,0,0,1,28.64.21a4.42,4.42,0,0,1,3.24,3.94c0,.66.29.89.91.88a10.88,10.88,0,0,1,1.28.13c.65.08.84.49.48,1a1.3,1.3,0,0,1-.79.54,4.87,4.87,0,0,1-1.42.15c-1,.06-1.3.39-1.36,1.3-.12,2-1.33,3.05-3.71,3.17,1.79,1.14,1.84,3,1.82,4.75,0,1-.07,1,.9,1.14.53.07,1.05.11,1.58.16a1.75,1.75,0,0,0,1.56-.54c.55-.56.86-.47,1.14.25a.47.47,0,0,0,.35.32c.78.28,1,.8.86,1.74a1.17,1.17,0,0,1-1.3,1c-1.54.06-3.07-.07-4.6-.14-.58,0-.81.17-.91.79a4.09,4.09,0,0,0,.49,2.91A16.89,16.89,0,0,1,30.81,30c.2,1.47.31,2.95.45,4.43,0,.34,0,.66.47.74.23.05.31.23.34.45a9.35,9.35,0,0,1,.11,1c0,.86,0,1.63,1.07,1.91a.83.83,0,0,1,.55,1c-.12.47-.56.36-.89.37h-3.4c-.51,0-.76-.2-.71-.72a7,7,0,0,0-.41-2.67c-.38-1.3-.19-2.69-.6-4a38.42,38.42,0,0,0-1.34-4.19c-.29.15-.26.39-.3.59a18.76,18.76,0,0,1-1.95,5.38,1.54,1.54,0,0,0-.2,1,3.7,3.7,0,0,1-.16,1.26c-.18.73-.39,1.39.67,1.65a.85.85,0,0,1,.57,1c-.1.54-.58.37-.93.38-1.11,0-2.22,0-3.32,0-.55,0-.79-.2-.77-.75a15.94,15.94,0,0,0-.13-2.18c-.07-.7-.17-1.52.87-1.72.23,0,.3-.32.41-.52a15.87,15.87,0,0,0,1.88-6.63,3.48,3.48,0,0,0-.42-2.66,2.3,2.3,0,0,1-.33-1.46c.05-2.22-.18-4.42-.29-6.63,0-.63-.24-.71-.84-.64a2.35,2.35,0,0,0-2.1,1.73,18.13,18.13,0,0,1-1.7,3.45c-.65,1-1.14,2.23-2.54,2.52-.31.06-.37.39-.44.66-.76,2.77-1.51,5.54-2.27,8.31a.85.85,0,0,0,.32,1,3.22,3.22,0,0,1,1,3.94,3.27,3.27,0,0,1-6.22-1,.81.81,0,0,0-.72-.73c-1.71-.46-3.41-.91-5.11-1.38C0,34.59-.21,34.16.16,32.79Q1.9,26.42,3.62,20c.53-1.94,1-3.89,1.59-5.83C5.56,13,6,12.71,7.26,13.06c2.7.73,5.39,1.48,8.1,2.2A1.46,1.46,0,0,1,16.66,16.92Z"/></g></g></svg>