<svg xmlns="http://www.w3.org/2000/svg" viewBox="0 0 46.57 40"><defs><style>.cls-1{fill:#0ba118;}</style></defs><g id="Layer_2" data-name="Layer 2"><g id="Layer_1-2" data-name="Layer 1"><path class="cls-1" d="M46.57,15.34V17a1.83,1.83,0,0,1-1.57.85c-.61,0-.85.34-.84.93s0,1.1,0,1.65a6.91,6.91,0,0,1-1.77,5.23C41,27.36,39.64,29.18,38.28,31c-.51.67-.38,1,.44,1.07a4.24,4.24,0,0,0,.62,0,1.49,1.49,0,0,1,1.6,1.05,1.67,1.67,0,0,1-.6,2,1.51,1.51,0,0,0-.65,1C39.06,38.56,37.32,40,35.12,40a4.66,4.66,0,0,1-4.49-3.86c-.14-.56-.36-.84-.95-.84q-6.78,0-13.55,0c-.56,0-.9.19-1,.81a3.93,3.93,0,0,1-.71,1.82,4.42,4.42,0,0,1-4.36,2,4.31,4.31,0,0,1-3.9-3.48,1.29,1.29,0,0,0-1.57-1.17c-1,.05-2,0-3,0A1.78,1.78,0,0,1,0,34.59V32.72c.37-.37,1-.55,1-1.24a5.31,5.31,0,0,1,.77-2.54c1.6-3.21,3.51-6.25,5.39-9.3a2.59,2.59,0,0,1,2.33-1.28c2,0,4,0,6,0,1.69,0,2.19.51,2.19,2.25,0,3.44,0,6.89,0,10.33,0,.48-.07,1,.65,1.07s.73-.5.73-1c0-4.38,0-8.75,0-13.13,0-.86-.4-1.25-1.27-1.24-1.76,0-3.52-.06-5.27,0A3.85,3.85,0,0,1,8.42,14c-.57-1.37-.09-2.33,1.38-2.37,2.82-.07,5.65-.05,8.47,0a2,2,0,0,1,2.1,1.65c.18,1,.76,1.29,1.68,1.21.41,0,.82,0,1.24,0H44.38C45.22,14.5,46.05,14.49,46.57,15.34ZM10.34,26.68h3.19c.7,0,1.14-.32,1.15-1,0-1.23,0-2.47,0-3.7,0-.39-.1-.85-.55-.89a14.12,14.12,0,0,0-4.4.07,1.3,1.3,0,0,0-.75.67c-.78,1.34-1.54,2.68-2.33,4-.37.63-.17.89.51.89Zm22.82,8.65a2,2,0,0,0,2,2.07,2,2,0,0,0,2-2,2,2,0,0,0-1.94-2A1.92,1.92,0,0,0,33.16,35.33Zm-20.57,0a1.89,1.89,0,0,0-2-2,2,2,0,0,0-2,2,2.07,2.07,0,0,0,2,2A2,2,0,0,0,12.59,35.37Z"/><path class="cls-1" d="M33,13.34H22.53c-.52,0-1.08.07-1.39-.47s0-1,.31-1.43Q23.63,8,25.79,4.52A2.79,2.79,0,0,1,28,3.07a1.76,1.76,0,0,0,1.24-.64c.29-.34.61-.66.93-1,1.95-1.9,3-2,5-.09C37.67,3.63,39.76,6.21,42,8.6c.81.85,1.6,1.72,2.39,2.59.38.42,1,.81.68,1.49s-1,.66-1.59.66Z"/></g></g></svg>