<svg xmlns="http://www.w3.org/2000/svg" viewBox="0 0 18 21.73"><defs><style>.cls-1{opacity:0.5;}.cls-2{fill:#fff;}</style></defs><g id="Layer_2" data-name="Layer 2"><g id="Layer_1-2" data-name="Layer 1"><g class="cls-1"><path class="cls-2" d="M9,18.9,14,14a7,7,0,1,0-9.9,0Zm0,2.83L2.64,15.36a9,9,0,1,1,12.72,0Z"/><path class="cls-2" d="M5.75,5a17.29,17.29,0,0,1,2.68-.18A5.64,5.64,0,0,1,12,5.79,3.89,3.89,0,0,1,13.5,9.1,4.45,4.45,0,0,1,12,12.65a6.27,6.27,0,0,1-4,1.13,18,18,0,0,1-2.25-.13Zm2,7.15a3.56,3.56,0,0,0,.69,0c1.79,0,3-1,3-3.07A2.51,2.51,0,0,0,8.63,6.38a4,4,0,0,0-.89.08Z"/></g></g></g></svg>