<svg xmlns="http://www.w3.org/2000/svg" viewBox="0 0 20.6 24.5"><defs><style>.cls-1{stroke:#000;stroke-miterlimit:10;stroke-width:0.5px;}</style></defs><g id="Layer_2" data-name="Layer 2"><g id="Layer_1-2" data-name="Layer 1"><path class="cls-1" d="M6.75,16.9c0-.09-.08-.13-.12-.19-.86-1.16-1.72-2.32-2.52-3.52-.47-.69-.91-1.39-1.34-2.11a5.16,5.16,0,0,1-.68-2.42A7.92,7.92,0,0,1,8.23.47a7.8,7.8,0,0,1,6.08,1,7.77,7.77,0,0,1,3.62,5.4,7.64,7.64,0,0,1-.09,3.05,2.79,2.79,0,0,1-.25.66,14.31,14.31,0,0,1-.9,1.56c-1,1.54-2.06,3-3.16,4.49a1.13,1.13,0,0,0-.12.18c0,.06.09,0,.13.05a18.3,18.3,0,0,1,3.58.78,8.71,8.71,0,0,1,1.79.81,5,5,0,0,1,.82.64,2.7,2.7,0,0,1,.4.54,1.67,1.67,0,0,1,0,1.65,2.61,2.61,0,0,1-.58.7,5.1,5.1,0,0,1-1.18.77,11.72,11.72,0,0,1-2.69.92c-.71.16-1.43.29-2.16.38a27.43,27.43,0,0,1-3.95.18,22.39,22.39,0,0,1-5-.63,11.3,11.3,0,0,1-2.46-.89,5.25,5.25,0,0,1-1.24-.85,2.81,2.81,0,0,1-.4-.51,1.66,1.66,0,0,1,0-1.77,2.69,2.69,0,0,1,.6-.7,5.47,5.47,0,0,1,1-.68,11.76,11.76,0,0,1,2.63-.93c.6-.14,1.2-.26,1.81-.34ZM10.07,20l.1-.11c1-1.26,2-2.53,2.92-3.82s2.1-2.84,3.05-4.34c.27-.43.54-.87.77-1.33a2.81,2.81,0,0,0,.3-.84,7.14,7.14,0,0,0-.33-3.91A7.3,7.3,0,0,0,2.77,8.25a4.59,4.59,0,0,0,.61,2.48l.07.11q.6,1,1.29,2c1.65,2.41,3.43,4.72,5.22,7C10,19.93,10,20,10.07,20ZM7.93,18.47a.2.2,0,0,0-.06-.12c-.17-.23-.35-.45-.52-.69a.22.22,0,0,0-.23-.1,19.3,19.3,0,0,0-2.82.57,9.73,9.73,0,0,0-1.88.72,4.37,4.37,0,0,0-.92.62,1.86,1.86,0,0,0-.43.53,1,1,0,0,0,0,.93,2,2,0,0,0,.38.48,3.68,3.68,0,0,0,.59.45,8.41,8.41,0,0,0,2,.86,20.74,20.74,0,0,0,5.25.81,25.36,25.36,0,0,0,4-.14,18.82,18.82,0,0,0,3.26-.65A9.09,9.09,0,0,0,18.37,22a3.63,3.63,0,0,0,.91-.7,1.08,1.08,0,0,0,0-1.62,3.38,3.38,0,0,0-.72-.59,7.83,7.83,0,0,0-1.34-.64A17.57,17.57,0,0,0,13,17.51a.18.18,0,0,0-.18.08l-.53.7s-.07.06-.06.11a.11.11,0,0,0,.09,0,10.91,10.91,0,0,1,1.12.19,6.25,6.25,0,0,1,1.44.48,2.26,2.26,0,0,1,.59.42.88.88,0,0,1,0,1.29,1.91,1.91,0,0,1-.51.37,3.94,3.94,0,0,1-.82.34A12,12,0,0,1,11,22a16.27,16.27,0,0,1-2.42-.07,9.59,9.59,0,0,1-2.43-.53,2.64,2.64,0,0,1-.92-.52,1,1,0,0,1-.33-.54.9.9,0,0,1,.24-.81,2.28,2.28,0,0,1,.76-.5,6.76,6.76,0,0,1,1.47-.45Zm2.36,2.84h.52A13,13,0,0,0,13.52,21a4.51,4.51,0,0,0,1-.37,1.48,1.48,0,0,0,.39-.26c.13-.14.13-.21,0-.35a1.21,1.21,0,0,0-.35-.24,4,4,0,0,0-.67-.28,11.72,11.72,0,0,0-2.11-.4.19.19,0,0,0-.2.1l-1,1.24-.32.39a.35.35,0,0,1-.55,0l-.09-.12c-.36-.46-.73-.92-1.09-1.39a.32.32,0,0,0-.37-.15,10.37,10.37,0,0,0-1.47.31,3.54,3.54,0,0,0-.81.33,1.14,1.14,0,0,0-.31.23c-.11.12-.11.19,0,.31A1.55,1.55,0,0,0,6,20.6a4.74,4.74,0,0,0,1,.36A13,13,0,0,0,10.29,21.31Z"/><path class="cls-1" d="M13.53,7.84a3.47,3.47,0,1,1-3.46-3.45A3.47,3.47,0,0,1,13.53,7.84Zm-3.48,2.75a2.75,2.75,0,1,0,0-5.5,2.75,2.75,0,1,0,0,5.5Z"/></g></g></svg>