<svg xmlns="http://www.w3.org/2000/svg" viewBox="0 0 18 21.73"><defs><style>.cls-1{fill:#fff;}</style></defs><title>reengus</title><g id="Layer_2" data-name="Layer 2"><g id="Layer_1-2" data-name="Layer 1"><path class="cls-1" d="M9,18.9,14,14a7,7,0,1,0-9.9,0Zm0,2.83L2.64,15.36a9,9,0,1,1,12.72,0Z"/><path class="cls-1" d="M6.6,11.49a4.73,4.73,0,0,0,.59.21,1.78,1.78,0,0,0,.47.07,1,1,0,0,0,.86-.39A2.5,2.5,0,0,0,8.78,10V4.77h2v5.75a3.05,3.05,0,0,1-.76,2.24,2.89,2.89,0,0,1-2.18.78,3.27,3.27,0,0,1-.54,0c-.17,0-.36-.06-.55-.1Z"/></g></g></svg>