<?xml version="1.0" encoding="utf-8"?>
<!-- Generator: Adobe Illustrator 23.0.5, SVG Export Plug-In . SVG Version: 6.00 Build 0)  -->
<svg version="1.1" id="Layer_1" xmlns="http://www.w3.org/2000/svg" xmlns:xlink="http://www.w3.org/1999/xlink" x="0px" y="0px"
	 viewBox="0 0 18 21.7" style="enable-background:new 0 0 18 21.7;" xml:space="preserve">
<style type="text/css">
	.st0{opacity:0.5;}
	.st1{fill:#FFFFFF;}
</style>
<title>reengus</title>
<g class="st0">
	<g id="Layer_1-2">
		<path class="st1" d="M9,18.9l5-4.9c2.7-2.7,2.7-7.2,0-9.9s-7.2-2.7-9.9,0c-2.7,2.7-2.7,7.2,0,9.9L9,18.9z M9,21.7l-6.4-6.4
			c-3.5-3.5-3.5-9.2,0-12.7s9.2-3.5,12.7,0s3.5,9.2,0,12.7c0,0,0,0,0,0L9,21.7z"/>
		<path class="st1" d="M6.6,11.5c0.2,0.1,0.4,0.2,0.6,0.2c0.2,0,0.3,0.1,0.5,0.1c0.3,0,0.7-0.1,0.9-0.4C8.7,11,8.8,10.5,8.8,10V4.8
			h2v5.8c0.1,0.8-0.2,1.6-0.8,2.2c-0.6,0.6-1.4,0.8-2.2,0.8c-0.2,0-0.4,0-0.5,0c-0.2,0-0.4-0.1-0.6-0.1L6.6,11.5z"/>
	</g>
</g>
</svg>
