<svg xmlns="http://www.w3.org/2000/svg" viewBox="0 0 17.95 21.72"><defs><style>.cls-1{opacity:0.5;}.cls-2{fill:#fff;}</style></defs><g id="Layer_2" data-name="Layer 2"><g id="Layer_1-2" data-name="Layer 1"><g class="cls-1"><path class="cls-2" d="M9,18.92,14,14a7,7,0,0,0-9.9-9.9,7.06,7.06,0,0,0,0,9.9Zm0,2.8-6.41-6.4a9,9,0,1,1,12.7,0h0Z"/><path class="cls-2" d="M4.34,7.39V6.21h3.2v4A2.16,2.16,0,0,1,7,11.86a2,2,0,0,1-1.45.54,2.61,2.61,0,0,1-1.94-.85l.71-1a1.59,1.59,0,0,0,1.17.59A.64.64,0,0,0,6,10.94a.94.94,0,0,0,.21-.67V7.39Z"/><path class="cls-2" d="M13,9.22h1.38V11.4a3.23,3.23,0,0,1-2.53,1,3.17,3.17,0,0,1-2.28-.89,3.05,3.05,0,0,1-.91-2.27A3.07,3.07,0,0,1,9.58,7a3.12,3.12,0,0,1,2.26-.91,3.35,3.35,0,0,1,2.3.87l-.71,1a2.59,2.59,0,0,0-.76-.5,2.14,2.14,0,0,0-.76-.14,1.79,1.79,0,0,0-1.31.53,1.91,1.91,0,0,0-.54,1.41,1.9,1.9,0,0,0,.51,1.39,1.68,1.68,0,0,0,1.23.52A2.38,2.38,0,0,0,13,10.91Z"/></g></g></g></svg>