<svg id="Layer_1" data-name="Layer 1" xmlns="http://www.w3.org/2000/svg" viewBox="0 0 17.95 21.72"><defs><style>.cls-1{opacity:0.5;}.cls-2{fill:#fff;}</style></defs><g class="cls-1"><g id="Layer_1-2" data-name="Layer 1-2"><path class="cls-2" d="M9.05,18.91l5-4.9a7,7,0,0,0-9.9-9.9,7.06,7.06,0,0,0,0,9.9Zm0,2.8-6.4-6.4a9,9,0,1,1,12.7,0h0Z" transform="translate(-0.03 0.01)"/></g></g><g class="cls-1"><path class="cls-2" d="M9.25,5.17h1.83v5.11c0,2.3-1.1,3.11-2.87,3.11a4.43,4.43,0,0,1-1.34-.2l.2-1.47a3.14,3.14,0,0,0,.93.14c.77,0,1.25-.34,1.25-1.6Z" transform="translate(-0.03 0.01)"/></g></svg>