<svg xmlns="http://www.w3.org/2000/svg" viewBox="0 0 38.82 32"><defs><style>.cls-1{fill:#fff;}.cls-2{fill:#ae00ff;}</style></defs><title>updated-warehouse</title><g id="Layer_2" data-name="Layer 2"><g id="Layer_1-2" data-name="Layer 1"><rect class="cls-1" x="4.51" y="8.82" width="31.66" height="23.17"/><path class="cls-2" d="M19.41,10.19H6.06c-.39,0-.39,0-.39.39v21c0,.4,0,.4-.39.4H2.08c-.44,0-.44,0-.44-.43q0-6.3,0-12.61c0-1.65,0-3.3,0-4.95l0-3.25c0-.31,0-.32-.33-.21-.46.19-.46.19-.66-.26S.23,9.4,0,9c-.08-.19,0-.3.15-.38,3-1.4,6.05-2.76,9.08-4.12,2.14-.95,4.27-1.92,6.42-2.87,1.18-.53,2.37-1,3.55-1.55a.55.55,0,0,1,.47,0l5.38,2.42,6,2.7,5.43,2.47,2,.94c.27.12.29.16.18.42-.21.49-.43,1-.64,1.46-.09.21-.21.25-.42.16-.47-.22-.47-.21-.48.3-.09,6.88,0,13.75,0,20.62,0,.45,0,.45-.45.45-1,0-2.11,0-3.17,0-.42,0-.42,0-.42-.43V10.68a2.43,2.43,0,0,1,0-.27.19.19,0,0,0-.22-.22H19.41Z"/><path class="cls-2" d="M10.43,32H6.75c-.25,0-.32-.08-.32-.32q0-2.71,0-5.43c0-.23.07-.31.3-.31h7.4c.23,0,.29.08.29.3v5.45c0,.23-.07.31-.3.31Z"/><path class="cls-2" d="M19.41,25.94h3.68c.23,0,.31.06.31.3q0,2.73,0,5.46c0,.23-.08.3-.31.3q-3.68,0-7.37,0c-.23,0-.31-.06-.31-.3q0-2.73,0-5.46c0-.23.08-.3.31-.3Z"/><path class="cls-2" d="M28.39,32H24.71c-.25,0-.32-.08-.32-.32q0-2.71,0-5.43c0-.23.07-.31.3-.31h7.38c.25,0,.31.08.31.32q0,2.72,0,5.43c0,.23-.07.31-.3.31Z"/><path class="cls-2" d="M23.39,19.1h3.66c.24,0,.32.06.32.31q0,2.72,0,5.43c0,.25-.08.32-.32.32-2.43,0-4.87,0-7.3,0-.33,0-.35,0-.35-.34,0-1.8,0-3.6,0-5.4,0-.23.07-.29.3-.29Z"/><path class="cls-2" d="M14.38,19.1H18c.25,0,.33.06.32.31q0,2.72,0,5.43c0,.25-.07.32-.31.32l-7.28,0c-.33,0-.35,0-.35-.33,0-1.78,0-3.56,0-5.34,0-.36,0-.36.36-.36Z"/><path class="cls-2" d="M19.42,12.87H6.88c-.14,0-.21-.06-.21-.2s0-.53,0-.8a.22.22,0,0,1,.23-.25l.37,0H31.72c.39,0,.4,0,.41.39,0,.22,0,.44,0,.66s-.07.23-.23.22H19.42Z"/><path class="cls-2" d="M19.39,16.16H7.11c-.42,0-.42,0-.43-.43v-.07c0-.8,0-.67.67-.71.92,0,1.83,0,2.74,0,2.33-.06,4.66,0,7,0,4.87,0,9.75,0,14.63,0,.41,0,.41,0,.41.41,0,.18,0,.36,0,.53s-.08.3-.29.28H19.39Z"/></g></g></svg>