<svg xmlns="http://www.w3.org/2000/svg" viewBox="0 0 41.41 32"><defs><style>.cls-1{fill:#fff;}.cls-2{fill:#f15a24;}</style></defs><title>updated-shop</title><g id="Layer_2" data-name="Layer 2"><g id="Layer_1-2" data-name="Layer 1"><polygon class="cls-1" points="2.79 31.06 2.79 3.23 35.6 3.23 35.6 10.59 38.34 13.34 38.34 31.06 2.79 31.06"/><g id="Layer_1-2-2" data-name="Layer 1-2"><path class="cls-2" d="M4.36,0H37a1.82,1.82,0,0,1,.91,1.22C39,4.94,40.07,8.69,41.34,12.36a1,1,0,0,1-.54,1.29,2.63,2.63,0,0,1-1,.25c-.54.06-.54,0-.54.6V31.2c0,.54-.26.78-.8.8H3.15c-.9,0-1.08-.17-1.08-1.09V14.57c0-.61,0-.6-.58-.68A1.67,1.67,0,0,1,0,13.08v-.73a6,6,0,0,0,.38-1.1l3-9.93A2,2,0,0,1,4.36,0ZM20.7,13.91H4c-.56,0-.56,0-.56.57V30.06c0,.59,0,.6.58.6H15.14c.59,0,.59,0,.59-.59V19.7a2.78,2.78,0,0,1,2.54-3h4.38a2.78,2.78,0,0,1,3,2.54,3.53,3.53,0,0,1,0,.46V30.07c0,.58,0,.59.58.59H37.36c.58,0,.58,0,.58-.59V14.52c0-.61,0-.61-.6-.61Zm3.59,11V19.58A1.4,1.4,0,0,0,23.07,18a1,1,0,0,0-.3,0H18.61a1.42,1.42,0,0,0-1.53,1.3,1,1,0,0,0,0,.24V30.15c0,.38.13.48.5.48h6.21c.39,0,.52-.12.51-.51,0-1.73,0-3.49,0-5.25ZM20.17,7.33V4.83c0-.34-.12-.46-.45-.44a6.61,6.61,0,0,1-.89,0c-.33,0-.47.11-.46.44s0,.86,0,1.29c0,.25-.09.38-.35.37H16.65c-.28,0-.37-.12-.37-.39V4.77c0-.27-.12-.39-.39-.38s-.7,0-1.05,0-.36.09-.36.33V10c0,.24.11.34.35.34h1.05c.3,0,.4-.12.4-.41V8.29c0-.3.12-.41.41-.41H18c.43,0,.41.13.4.41V9.91c0,.29.12.42.41.4s.62,0,.93,0,.47-.13.46-.47C20.16,9,20.17,8.17,20.17,7.33Zm7,0a2.76,2.76,0,0,0-2.46-3H24.2a2.82,2.82,0,0,0-3.15,2.44,2.63,2.63,0,0,0,0,.56,2.79,2.79,0,0,0,2.46,3.08,3.25,3.25,0,0,0,.54,0,2.71,2.71,0,0,0,3.11-2.24,2.91,2.91,0,0,0,0-.78ZM11,10.4a3,3,0,0,0,1.67-.33,1.82,1.82,0,0,0,1-1.72,1.62,1.62,0,0,0-1.14-1.52c-.34-.13-.69-.23-1-.33s-.63-.15-.94-.25a.42.42,0,0,1-.35-.43.48.48,0,0,1,.4-.45.91.91,0,0,1,1.12.46c.1.17.19.29.4.27l1-.07c.24,0,.29-.14.22-.36a1.46,1.46,0,0,0-.81-1,3.67,3.67,0,0,0-3.17,0,1.51,1.51,0,0,0-.72,2,1.53,1.53,0,0,0,.65.68,4.22,4.22,0,0,0,1.28.48,3.46,3.46,0,0,1,1,.33.59.59,0,0,1,.29.78.58.58,0,0,1-.29.29,1,1,0,0,1-1.38-.32l-.05-.09c-.19-.47-.49-.49-.89-.45q-.3,0-.6.06c-.27,0-.36.11-.28.38a1.91,1.91,0,0,0,1.35,1.47A4,4,0,0,0,11,10.4ZM28,7.35V9.88c0,.31.11.45.43.43h.92c.27,0,.4-.11.39-.38V8.52c0-.31.12-.44.43-.44h1.2A1.65,1.65,0,0,0,33,6.41v-.1a1.59,1.59,0,0,0-1.27-1.84l-.24,0c-1-.13-2,0-3-.06-.39,0-.49.14-.49.5.06.82.05,1.64.05,2.46Z"/><path class="cls-2" d="M13.35,22.73v3c0,.69-.23.91-.93.92H8.47c-.66,0-.9-.25-.9-.91V19.63c0-.65.25-.9.91-.9h4c.68,0,.91.25.91.93C13.36,20.69,13.35,21.71,13.35,22.73Zm-4.43,0v2.14c0,.35.13.47.47.46h2.22c.29,0,.42-.11.41-.4v-4.4c0-.31-.12-.44-.43-.43H9.36c-.32,0-.46.13-.45.46C8.93,21.28,8.92,22,8.92,22.73Z"/><path class="cls-2" d="M33.79,22.69v3.1c0,.63-.25.87-.89.88h-4c-.61,0-.86-.25-.86-.87V19.6c0-.61.26-.86.87-.87h4c.63,0,.88.26.88.89C33.8,20.64,33.79,21.66,33.79,22.69Zm-1.34,0V20.51c0-.33-.11-.47-.44-.47H29.79c-.3,0-.44.1-.44.42v4.4c0,.29.11.41.4.41h2.3c.3,0,.41-.13.4-.42,0-.66,0-1.39,0-2.11Z"/><path class="cls-2" d="M18.89,25.63a.53.53,0,0,1-.52.51.52.52,0,1,1,.52-.51Z"/><path class="cls-2" d="M25.4,7.36a3.06,3.06,0,0,1-.08.8,1.24,1.24,0,0,1-2.41.09,3.25,3.25,0,0,1,0-1.64,1.15,1.15,0,0,1,1.18-1,1.2,1.2,0,0,1,1.25.94A2.77,2.77,0,0,1,25.4,7.36Z"/><path class="cls-2" d="M30.36,5.55a1.14,1.14,0,0,1,.55.08.69.69,0,0,1,.34.9.7.7,0,0,1-.34.34,1.34,1.34,0,0,1-.86.08c-.5-.14-.21-.58-.26-.89s-.08-.48.28-.51Z"/></g></g></g></svg>