<svg xmlns="http://www.w3.org/2000/svg" viewBox="0 0 54.85 32.28"><defs><style>.cls-1{fill:#c5e6ff;}.cls-2{fill:#109b20;}.cls-3{opacity:0.27;}.cls-4,.cls-7{fill:#0d3b48;}.cls-4{opacity:0.1;}.cls-5{fill:#f2beb1;}.cls-6{fill:#d7a095;}.cls-8{fill:#002938;}.cls-9{fill:#fff;}.cls-10,.cls-20{fill:#c5f4ff;}.cls-10,.cls-12,.cls-20,.cls-21{stroke:#f1ab65;stroke-miterlimit:10;}.cls-10{stroke-width:0.07px;}.cls-11{fill:#f1ab65;}.cls-12,.cls-21{fill:none;}.cls-12{stroke-width:0.08px;}.cls-13{fill:#ffa666;}.cls-14{fill:#967876;}.cls-15{fill:#5f4645;}.cls-16{fill:#00b8a6;}.cls-17{fill:#f2efef;}.cls-18{fill:#fbb040;}.cls-19{fill:#231f20;}.cls-20{stroke-width:0.06px;}.cls-21{stroke-width:0.07px;}.cls-22{fill:#3c2415;}.cls-23{fill:#2496ea;}.cls-24{fill:#1790cc;}</style></defs><title>updated-garden</title><g id="Layer_2" data-name="Layer 2"><g id="Layer_1-2" data-name="Layer 1"><rect class="cls-1" x="0.27" width="54.44" height="31.89"/><path class="cls-2" d="M.29,29.1a10.23,10.23,0,0,1,2.2-2.21c-.2.65-.15,1.29.36,1.55.85.43,1.3-.49,1.91-.83.42.26,0,.64.22,1A3.66,3.66,0,0,1,6.62,27c.13.51-.79.84-.17,1.34a.8.8,0,0,0,.94.14,1.37,1.37,0,0,0,.55-1.42A3.22,3.22,0,0,1,9.7,28.75c.27-.14,0-.36.23-.5.4.27.52.77.84,1.24.27-.7-.32-1.2-.21-1.84.36.24.47.71.93.83.67.17.41-.64.91-.7A17.52,17.52,0,0,1,11.85,30c.71-.63.76-1.54,1.43-2.06.14.64-.95,1.68.62,1.81.62.05.19-.37.38-.57.49.68.7,1.63,1.74,1.76a12.56,12.56,0,0,1-1.93-3,3.44,3.44,0,0,0,2.27.77c.14-.28-.25-.56-.13-.9.44.1.33.64.73.79.2-.29,0-.49-.16-.7s-.34-.36-.34-.65a2.87,2.87,0,0,0,2.73-.13A5.24,5.24,0,0,0,19,28c0,.29-.37.61,0,.83s.48-.09.69-.21c.46-.26-.16-.5,0-.85a1.2,1.2,0,0,0,1.81,0c.44-.37.35.52.71.66.77-.36-.07-.78-.06-1.23.47.1.66.45.91.72s.45.79,1,.25c.34-.32,0,.31.28.34.31-.19.25-.64.54-.9.33-.08.56.84,1,.15a1.21,1.21,0,0,1,.2.26,1.28,1.28,0,0,0,1.12.74c.25,0,.49.14.66-.14a.62.62,0,0,0,0-.71c-.14-.2-.27-.4-.49-.75a2.93,2.93,0,0,1,1.43,1.13c.18.21.38.69.66.49s-.15-.53-.24-.81a2.88,2.88,0,0,1-.08-.3c.8.82,1.26.23,1.72-.27s.81-.62,1.25,0,1,1.05,1.76.17c0,.62-.82.94-.26,1.53.16.18.21.47.53.42s.4-.35.43-.63,0-.82.36-1.18c.33.63.93,1.06,1.1,1.83,0-.64.72-1,.7-1.6a.29.29,0,0,1,.35-.29c.28,0,.42.36.42.51a1.77,1.77,0,0,0,.23.85c.13.25.09.76.5.57a1,1,0,0,0,.4-1c0-.22-.35-.36-.26-.67.34-.05.59.51,1,.15a.09.09,0,0,1,.17.06c-.08.49.23.64.59.54s0-.57.11-.86c.45.12.66.61,1.14.68,0-.5-.6-.72-.65-1.3a3,3,0,0,1,1,.88c.33.34.53.21.82-.07s-.15-.75.29-.7.53-.25.91-.19c-.55.65-.12,1,.35,1.37a.88.88,0,0,0,1.25-.29c.47-.59.73-.59.94.17a4.58,4.58,0,0,0,.65,1l-.22-1.1c.5,0,.48.84,1,.59s0-.61.07-1c.22.37,1.06-.06.75.81l.2,0c.39-.15.26-1,.71-.77a3.21,3.21,0,0,1,1,.6,1.49,1.49,0,0,0,1.13.38c.06-.43-.39-.58-.39-1,.43.09.63.55,1.07.61,0-.47-.56-.68-.52-1.23a4.14,4.14,0,0,1,1.18,1,3.74,3.74,0,0,0,.51.54c.28.17.69.4.92.2s-.1-.58-.23-.86-.42-.45-.46-.78a1.58,1.58,0,0,1,1.23,1.6,19.63,19.63,0,0,1-.12,3c0,.1.09.25.14.38Q28,32.27,1,32.28c-.64,0-.81-.15-.76-.77C.34,30.71.29,29.9.29,29.1Z"/><g class="cls-3"><path d="M31.41,4.28c0-1.43-.9-1.14-1.6-1.14-1.94,0-3.87,0-5.81,0-.63,0-1.55-.36-1.19,1-1.35-1.84-3.13-.62-4.59-1-.81-.19-.32.7-.78,1-.1-1.34-1.08-1-1.86-1-1.78,0-3.56,0-5.34,0-.7,0-1.58-.3-1.57,1.12-.21-1.72-1.36-1-2.12-1.12-1.14-.23-1.45.2-1.44,1.38.06,8.33,0,16.66,0,25,0,.7,0,1.1-.94,1.1s-.95-.36-.95-1.08c0-8.45,0-16.9,0-25.34,0-.86-.19-1.22-1.07-1.06a3.74,3.74,0,0,1-.58,0C0,3.13.1,3.13,0,1.51,0,.54.23.32,1.19.32c12.52,0,25,0,37.55,0,.42,0,1.11-.28,1.22.23A5,5,0,0,1,39.9,3c-.11.37-.93.18-1.4.12-1.07-.13-1.3.27-1.3,1.31,0,8.37,0,16.74,0,25.11,0,.72,0,1.07-1,1.08s-.94-.4-.94-1.1c0-8.41,0-16.81,0-25.22,0-1-.24-1.31-1.2-1.17a5.39,5.39,0,0,1-1.27,0C32.2,3.09,31.46,3,31.41,4.28Z"/><path d="M32.46,21.72c-.83-.36-.81-1.17-1-2-.5.58-.16,1.12-.37,1.55a4.74,4.74,0,0,0-8.25,0c-.23-.42.22-1-.59-1.54.22.94.08,1.56-.69,1.94a.41.41,0,0,0,0,.7,2.94,2.94,0,0,1,.9,1.82,2.29,2.29,0,0,0,2.31,1.75c1.47,0,2.94,0,4.41,0a2.22,2.22,0,0,0,2.25-1.65c.23-.68.28-1.45,1-1.92C32.63,22.18,32.64,21.79,32.46,21.72Zm-7.11,2.41c-.9-.05-1.63-.4-1.58-1.29s1-.83,1.69-.91c1-.11.46.73.61,1.08C26.06,23.58,26.26,24.18,25.35,24.13Zm3.29,0c-1,0-.63-.69-.72-1.18.1-.41-.27-1.16.62-1,.65.11,1.64,0,1.68.92S29.53,24.09,28.64,24.12Z"/><path d="M12.72,23.59c-1.65,0-3.31,0-5,0-.48,0-.77,0-.77-.65s.18-.77.78-.77c3.39,0,6.79,0,10.18,0,.58,0,.71.17.71.72s-.17.71-.72.7C16.2,23.57,14.46,23.59,12.72,23.59Z"/><path d="M8.57,17.57a2.45,2.45,0,0,1,.12,2.06A2.73,2.73,0,0,1,8.57,17.57Z"/><path d="M17.48,19.39a2.67,2.67,0,0,1,0-2.11A2.59,2.59,0,0,1,17.48,19.39Z"/><path d="M22.6,17.57a2.93,2.93,0,0,1,.06,2A2,2,0,0,1,22.6,17.57Z"/><path d="M31.43,19.39a2.63,2.63,0,0,1,0-2.11A2.59,2.59,0,0,1,31.43,19.39Z"/><path d="M8.6,21.72a2.07,2.07,0,0,1,.06-1.83A2,2,0,0,1,8.6,21.72Z"/><path d="M17.48,21.71a2.64,2.64,0,0,1,0-2.1A2.56,2.56,0,0,1,17.48,21.71Z"/><path d="M8.63,8.27c.35.44.18.9.27,1.63A1.18,1.18,0,0,1,8.63,8.27Z"/><path d="M17.44,8.27a1.49,1.49,0,0,1,.09,1.53A1.33,1.33,0,0,1,17.44,8.27Z"/><path d="M22.55,8.27a1.54,1.54,0,0,1,0,1.62A1.75,1.75,0,0,1,22.55,8.27Z"/><path d="M31.41,8.27a1.61,1.61,0,0,1,0,1.64A1.64,1.64,0,0,1,31.41,8.27Z"/><path d="M8.64,11.48c-.35-.44-.18-.9-.27-1.62A1.17,1.17,0,0,1,8.64,11.48Z"/><path d="M17.48,11.48a1.56,1.56,0,0,1,0-1.59A1.49,1.49,0,0,1,17.48,11.48Z"/><path d="M22.59,11.48a1.55,1.55,0,0,1,0-1.57A1.44,1.44,0,0,1,22.59,11.48Z"/><path d="M31.4,11.48A1.58,1.58,0,0,1,31.34,10,1.13,1.13,0,0,1,31.4,11.48Z"/><path d="M22.62,13.34a1.52,1.52,0,0,1-.05-1.62A1.75,1.75,0,0,1,22.62,13.34Z"/><path d="M31.52,11.85a1.53,1.53,0,0,1-.13,1.49A1.22,1.22,0,0,1,31.52,11.85Z"/><path d="M8.69,13.73c.3.56.13,1,.16,1.78C8.33,14.58,8.33,14.58,8.69,13.73Z"/><path d="M17.47,13.85a1.6,1.6,0,0,1,.1,1.47C17,14.8,17.25,14.32,17.47,13.85Z"/><path d="M22.58,13.85a1.6,1.6,0,0,1,.11,1.47C22.14,14.8,22.36,14.32,22.58,13.85Z"/><path d="M31.39,13.85a1.49,1.49,0,0,1,.09,1.53A1.32,1.32,0,0,1,31.39,13.85Z"/><path d="M8.62,15.71a1.52,1.52,0,0,1,0,1.57A1.46,1.46,0,0,1,8.62,15.71Z"/><path d="M17.48,17.06a1.52,1.52,0,0,1,0-1.57A1.46,1.46,0,0,1,17.48,17.06Z"/><path d="M22.55,15.71a1.54,1.54,0,0,1,0,1.62A1.75,1.75,0,0,1,22.55,15.71Z"/><path d="M31.42,17.06a1.61,1.61,0,0,1,0-1.64A1.64,1.64,0,0,1,31.42,17.06Z"/><path d="M8.66,5.91a1.51,1.51,0,0,1-.09-1.54A1.37,1.37,0,0,1,8.66,5.91Z"/><path d="M17.49,5.91c-.37-.45-.24-.9-.17-1.67A1.45,1.45,0,0,1,17.49,5.91Z"/><path d="M22.47,6a1.58,1.58,0,0,1,.13-1.49A1.19,1.19,0,0,1,22.47,6Z"/><path d="M31.39,4.25a1.69,1.69,0,0,1,.05,1.66C31.12,5.47,31.13,5,31.39,4.25Z"/><path d="M8.63,7.76A1.63,1.63,0,0,1,8.52,6.4C9,6.83,8.88,7.3,8.63,7.76Z"/><path d="M17.57,6.27a1.55,1.55,0,0,1-.12,1.49A1.2,1.2,0,0,1,17.57,6.27Z"/><path d="M8.63,13.34A1.63,1.63,0,0,1,8.52,12C9,12.41,8.88,12.87,8.63,13.34Z"/><path d="M22.69,6.27a1.58,1.58,0,0,1-.13,1.49A1.19,1.19,0,0,1,22.69,6.27Z"/><path d="M31.47,6.29c.3.56.14,1,.17,1.78C31.12,7.15,31.12,7.15,31.47,6.29Z"/><path d="M17.5,13.34a1.52,1.52,0,0,1-.05-1.62A1.72,1.72,0,0,1,17.5,13.34Z"/></g><path class="cls-4" d="M27.82,29.9c0,.2-1.89.37-4.22.37s-4.22-.17-4.22-.37,1.89-.37,4.22-.37S27.82,29.7,27.82,29.9Z"/><path class="cls-5" d="M26.93,14.24l.15-.23s-.2-.8,0-.65a1.89,1.89,0,0,1,.23.32s.52-.78.62-.77-.21.59-.21.59.38-.69.52-.66-.35.76-.35.76.54-.61.58-.58-.41.74-.41.74.37-.36.47-.31a9,9,0,0,1-1.05,1.19Z"/><polygon class="cls-6" points="21.63 10.57 21.52 12.26 21.38 13.11 22.01 13.32 22.73 13.58 22.71 12.33 22.74 11.05 21.63 10.57"/><path class="cls-5" d="M22.09,7.74c-.86.16-.86.75-.86.75a4.81,4.81,0,0,0-.07.88.28.28,0,0,0-.35-.11c-.29.11-.11,1,.33,1a2.29,2.29,0,0,0,.14.64,1.72,1.72,0,0,0,1.12.76,1,1,0,0,0,1.17-.73,24.08,24.08,0,0,0,.06-2.49S23.51,7.47,22.09,7.74Z"/><path class="cls-7" d="M21.76,8.2c-.23,0-.59-.1-.82-.11,0,0,0,.16,0,.17s0,1,0,1c.23,0,.21.2.21.2l0,.42.23,0L21.44,9a.5.5,0,0,0,.21-.22A5.71,5.71,0,0,1,21.76,8.2Z"/><path class="cls-8" d="M21.76,8.79a.56.56,0,0,1,.43-.21.48.48,0,0,1,.41.25c-.16-.05-.27-.12-.41-.09A1.1,1.1,0,0,0,21.76,8.79Z"/><path class="cls-8" d="M23,9a.4.4,0,0,1,.34-.22.37.37,0,0,1,.31.27c-.12-.06-.21-.14-.32-.12S23.08,9,23,9Z"/><path class="cls-7" d="M22.69,10.27s-.68-.17-.8,0-.16.44-.35.35-.09-1.81-.09-1.81l-.28.56s-.54,2.25.84,2.37,1.68-.28,1.58-1c0,0-.16.07-.23-.14S23.45,10.2,22.69,10.27Z"/><path class="cls-9" d="M22.05,10.54l1.11.08S22.8,11.2,22.05,10.54Z"/><path class="cls-7" d="M20.93,8.26s-.1-.75.53-.66A1.72,1.72,0,0,1,22.86,7l-.39.19a1.64,1.64,0,0,1,1.4,0,.5.5,0,0,1-.43.34,1.84,1.84,0,0,0,.5-.12s0,.57-.36.69-1.44-.45-1.88.1-.69-.1-.69-.1"/><path class="cls-10" d="M21.73,9l.94.13s0,.79-.62.7S21.73,9,21.73,9Z"/><path class="cls-7" d="M22.21,9.35c0,.12-.06.21-.12.21S22,9.46,22,9.34s.06-.21.13-.21S22.22,9.24,22.21,9.35Z"/><polygon class="cls-11" points="22.71 9.06 21.62 8.9 21.59 9.02 22.68 9.16 22.71 9.06"/><path class="cls-10" d="M23.8,9.19l-.9-.08s-.15.86.47.85S23.8,9.19,23.8,9.19Z"/><polygon class="cls-11" points="22.87 9.07 23.92 9.14 23.93 9.27 22.88 9.18 22.87 9.07"/><path class="cls-7" d="M23.26,9.43c0,.12-.06.21-.13.21s-.11-.1-.1-.22.06-.21.12-.21S23.27,9.31,23.26,9.43Z"/><polygon class="cls-6" points="22.68 10.27 22.85 9.3 23.16 10.18 22.68 10.27"/><polygon class="cls-11" points="21.59 9.02 20.83 9.27 20.84 9.16 21.62 8.9 21.59 9.02"/><path class="cls-12" d="M22.64,9.26a.19.19,0,0,1,.24,0"/><polygon class="cls-13" points="22.15 27.33 22.55 29.23 22.05 29.52 21.31 27.17 22.15 27.33"/><path class="cls-14" d="M21.66,28.71a1.76,1.76,0,0,1-.79.52c-.48.14-.9.31-.87.58a2.69,2.69,0,0,0,1.85,0v.12l.76,0v-.95L22,29l.05-.09Z"/><path class="cls-15" d="M21.35,29.79c-1,.25-1.28,0-1.34-.05a.17.17,0,0,0,0,.07,2.69,2.69,0,0,0,1.85,0v.12l.76,0v-.19A3.69,3.69,0,0,0,21.35,29.79Z"/><polygon class="cls-13" points="23.75 25.03 25.11 29.71 25.62 29.39 24.67 25.28 23.75 25.03"/><path class="cls-14" d="M25.54,28.55a1.75,1.75,0,0,0,.94.14c.49-.08.95-.11,1,.15a2.68,2.68,0,0,1-1.69.76l.05.1-.69.3-.41-.86.58-.23-.08-.07Z"/><path class="cls-15" d="M26.28,29.4c1-.22,1.15-.58,1.2-.62l0,.06a2.68,2.68,0,0,1-1.69.76l.05.1-.69.3-.08-.17A3.53,3.53,0,0,1,26.28,29.4Z"/><path class="cls-16" d="M19.75,17.47A23.48,23.48,0,0,0,21.28,28a.93.93,0,0,0,1.07-.08A55.73,55.73,0,0,1,21.58,20l.41,0a35.29,35.29,0,0,1,1.3,3.44c.15.74.86,4.26,1,4.59,0,0,.83.17,1-.28,0,0-.21-2.62-.36-3.94-.11-1-1.46-5.55-1.46-5.55Z"/><path class="cls-9" d="M19.75,17.83a6.19,6.19,0,0,0,3.8.51s.52-3.35.81-5.38a9,9,0,0,0-2.16-.62l-.17.43L22,12.31a22.18,22.18,0,0,0-2.39.1S19.66,16.26,19.75,17.83Z"/><polygon class="cls-17" points="21.04 12.31 21.57 12.92 21.96 12.31 21.36 11.92 21.04 12.31"/><polygon class="cls-17" points="23.11 12.52 22.59 12.99 22.2 12.33 22.88 12.11 23.11 12.52"/><path class="cls-9" d="M24.36,13a17.17,17.17,0,0,1,1.36,2.92,1.6,1.6,0,0,1-1,.4l-.94-1.62Z"/><path class="cls-9" d="M19.58,12.42a16.71,16.71,0,0,0-1.6,2.8,1.59,1.59,0,0,0,1,.48L20,14.16Z"/><path class="cls-9" d="M19.74,18.09a3.1,3.1,0,0,0,1.45,1.16l.4-.87.57.94a3,3,0,0,0,1.39-1l-1.65-1Z"/><path class="cls-9" d="M25.34,15.35A9.61,9.61,0,0,0,27,14.11s.47.1.61.39a7.72,7.72,0,0,1-1.8,1.91s-.63.49-.84.24C24.19,15.75,25.34,15.35,25.34,15.35Z"/><path class="cls-5" d="M20.17,17.34c-.3-.1-.69.42-.77.62.11.14.19.23.23.24.32.1.31-.27.31-.27.68.75.06-.21.06-.21.71.89.13-.12.13-.12.85.75.14-.07.14-.07C21.27,17.89,20.17,17.34,20.17,17.34Z"/><path class="cls-17" d="M22.12,13.13a.09.09,0,0,1-.09.09.09.09,0,0,1-.1-.09A.1.1,0,0,1,22,13,.1.1,0,0,1,22.12,13.13Z"/><path class="cls-17" d="M22.05,14a.09.09,0,1,1-.09-.09A.09.09,0,0,1,22.05,14Z"/><path class="cls-17" d="M22,15a.09.09,0,1,1-.09-.09A.09.09,0,0,1,22,15Z"/><circle class="cls-17" cx="21.86" cy="15.99" r="0.09"/><path class="cls-17" d="M21.86,17a.09.09,0,0,1-.09.09.09.09,0,1,1,0-.18A.09.09,0,0,1,21.86,17Z"/><path class="cls-17" d="M21.71,18a.09.09,0,1,1-.09-.09A.09.09,0,0,1,21.71,18Z"/><rect class="cls-17" x="23.13" y="14.13" width="0.16" height="1.15" transform="translate(4.76 35.07) rotate(-80.18)"/><polygon class="cls-5" points="19.46 18.04 19.14 17.53 19.52 17.25 19.77 17.63 19.46 18.04"/><path class="cls-9" d="M19,15.45a7.25,7.25,0,0,0,.73,1.87s-.16.43-.47.5a7.35,7.35,0,0,1-1.4-2.15,5.88,5.88,0,0,1,.41-1.07C18.44,14.33,19,15.45,19,15.45Z"/><ellipse class="cls-4" cx="35.59" cy="29.97" rx="4.22" ry="0.37"/><polygon class="cls-13" points="34.25 28.06 34.43 29.41 33.91 29.59 33.64 28.15 34.25 28.06"/><path class="cls-18" d="M33.6,28.8a1.75,1.75,0,0,1-.78.54c-.47.15-.89.33-.85.6a2.72,2.72,0,0,0,1.85-.08V30l.75-.05,0-.95-.62.06,0-.1Z"/><path class="cls-15" d="M33.32,29.89c-1,.27-1.29,0-1.35,0a.16.16,0,0,0,0,.07,2.72,2.72,0,0,0,1.85-.08V30l.75-.05v-.19A3.69,3.69,0,0,0,33.32,29.89Z"/><polygon class="cls-13" points="36.77 28.1 36.74 29.46 37.28 29.58 37.38 28.11 36.77 28.1"/><path class="cls-18" d="M37.49,28.76a1.75,1.75,0,0,0,.84.45c.48.09.92.22.91.5a2.69,2.69,0,0,1-1.84.13V30l-.76,0-.08-.94.62,0,0-.09Z"/><path class="cls-15" d="M37.89,29.81c1,.15,1.28-.15,1.34-.17a.15.15,0,0,1,0,.07,2.69,2.69,0,0,1-1.84.13V30l-.76,0V29.8A3.79,3.79,0,0,1,37.89,29.81Z"/><path class="cls-19" d="M33.53,17.31a27.55,27.55,0,0,0,0,11.29.91.91,0,0,0,1.07.06A60.49,60.49,0,0,1,35,20.12l.39.1a35.74,35.74,0,0,1,.79,3.58c0,.76.33,4.54.46,4.89,0,0,.8.29,1.07-.13,0,0,.08-2.8.12-4.13,0-1-.7-5.93-.7-5.93Z"/><polygon class="cls-6" points="35.96 10.8 35.91 12.5 35.98 13.36 35.33 13.51 34.59 13.71 34.72 12.46 34.81 11.18 35.96 10.8"/><path class="cls-5" d="M35.76,7.94c.84.24.78.82.78.82a4.78,4.78,0,0,1,0,.89.29.29,0,0,1,.36-.08c.28.14,0,1-.42.94a2.07,2.07,0,0,1-.19.62,1.72,1.72,0,0,1-1.19.66A1,1,0,0,1,34,11c0-.79.17-2.48.17-2.48S34.36,7.54,35.76,7.94Z"/><path class="cls-7" d="M36,8.43c.23,0,.6,0,.83,0,0,0,0,.17,0,.17s-.08,1-.08,1c-.24,0-.24.18-.24.18l0,.42-.23,0,0-.88A.44.44,0,0,1,36.1,9S36.07,8.59,36,8.43Z"/><path class="cls-8" d="M36,9a1.3,1.3,0,0,0-.42-.08.87.87,0,0,0-.41.05.49.49,0,0,1,.43-.21A.51.51,0,0,1,36,9Z"/><path class="cls-8" d="M34.79,9.12c-.13,0-.23-.12-.33-.1s-.2,0-.33.09a.37.37,0,0,1,.33-.24A.4.4,0,0,1,34.79,9.12Z"/><path class="cls-7" d="M34.93,10.41s.69-.11.79.11.12.45.32.38.25-1.8.25-1.8l.23.59S36.85,12,35.47,12s-1.64-.43-1.48-1.19c0,0,.15.09.24-.12S34.17,10.27,34.93,10.41Z"/><path class="cls-9" d="M35.54,10.73l-1.11,0S34.73,11.33,35.54,10.73Z"/><path class="cls-7" d="M36.86,8.56s.17-.73-.47-.7a1.69,1.69,0,0,0-1.34-.7l.37.22A1.64,1.64,0,0,0,34,7.3a.5.5,0,0,0,.4.38,1.9,1.9,0,0,1-.49-.17s0,.58.3.73,1.48-.32,1.86.27.7,0,.7,0"/><path class="cls-7" d="M35.49,9.54c0,.11,0,.21.1.21s.12-.09.13-.2,0-.22-.11-.22S35.49,9.42,35.49,9.54Z"/><path class="cls-7" d="M34.44,9.52c0,.12,0,.22.1.22s.12-.09.13-.21,0-.21-.11-.21S34.44,9.41,34.44,9.52Z"/><polygon class="cls-6" points="34.93 10.41 34.86 9.43 34.47 10.28 34.93 10.41"/><path class="cls-9" d="M37.17,18.2a6.1,6.1,0,0,1-3.83.16S33.12,15,33,12.94a9,9,0,0,1,2.21-.43l.13.45.11-.46a22.39,22.39,0,0,1,2.37.32S37.4,16.64,37.17,18.2Z"/><polygon class="cls-17" points="36.38 12.59 35.8 13.15 35.47 12.51 36.1 12.18 36.38 12.59"/><polygon class="cls-17" points="34.31 12.61 34.78 13.13 35.23 12.51 34.57 12.23 34.31 12.61"/><path class="cls-9" d="M33,12.94a16.81,16.81,0,0,0-1.62,2.79,1.67,1.67,0,0,0,1,.49l1.08-1.54Z"/><path class="cls-9" d="M37.83,12.83A20.14,20.14,0,0,1,39.27,16a1.55,1.55,0,0,1-1,.39l-1-1.86Z"/><path class="cls-9" d="M37.16,18.47a3.12,3.12,0,0,1-1.55,1l-.32-.9-.65.88a2.94,2.94,0,0,1-1.3-1.11l1.74-.84Z"/><path class="cls-5" d="M36.8,17.68c.3-.08.65.48.71.68a.9.9,0,0,1-.25.22c-.33.07-.29-.3-.29-.3-.74.69,0-.21,0-.21-.79.82-.12-.13-.12-.13-.91.67-.13-.08-.13-.08C35.65,18.12,36.8,17.68,36.8,17.68Z"/><path class="cls-17" d="M35.24,13.31a.08.08,0,0,0,.08.09.08.08,0,0,0,.1-.08.09.09,0,0,0-.08-.1A.1.1,0,0,0,35.24,13.31Z"/><path class="cls-17" d="M35.23,14.14a.1.1,0,0,0,.08.1.09.09,0,0,0,.1-.08.08.08,0,0,0-.08-.1A.09.09,0,0,0,35.23,14.14Z"/><path class="cls-17" d="M35.18,15.18a.09.09,0,0,0,.08.1.1.1,0,0,0,.1-.08.1.1,0,0,0-.09-.1A.08.08,0,0,0,35.18,15.18Z"/><path class="cls-17" d="M35.15,16.17a.1.1,0,0,0,.08.1.09.09,0,0,0,.1-.08.08.08,0,0,0-.08-.1A.09.09,0,0,0,35.15,16.17Z"/><path class="cls-17" d="M35.15,17.23a.09.09,0,0,0,.08.1.11.11,0,0,0,.1-.09.1.1,0,0,0-.08-.1A.1.1,0,0,0,35.15,17.23Z"/><path class="cls-17" d="M35.2,18.18a.1.1,0,0,0,.09.1.09.09,0,0,0,.1-.08.11.11,0,0,0-.09-.1A.1.1,0,0,0,35.2,18.18Z"/><rect class="cls-17" x="36.5" y="14.24" width="0.16" height="1.15" transform="translate(18.27 49.79) rotate(-84.43)"/><polygon class="cls-5" points="37.45 18.44 37.81 17.96 37.45 17.65 37.17 18 37.45 18.44"/><path class="cls-9" d="M38.25,16.13a9.79,9.79,0,0,1-1,1.57s.15.58.45.68a6.65,6.65,0,0,0,1.66-1.93,5.77,5.77,0,0,0-.32-1.1C38.89,15.06,38.25,16.13,38.25,16.13Z"/><path class="cls-5" d="M33.78,17.68c-.31-.08-.65.48-.72.68.13.13.21.21.26.22.32.07.28-.3.28-.3.74.69,0-.21,0-.21.79.82.12-.13.12-.13.91.67.13-.08.13-.08C34.92,18.12,33.78,17.68,33.78,17.68Z"/><polygon class="cls-5" points="33.13 18.44 32.77 17.96 33.12 17.65 33.4 18 33.13 18.44"/><path class="cls-9" d="M32.32,16.13a10.64,10.64,0,0,0,1,1.57s-.15.58-.45.68a8.18,8.18,0,0,1-1.7-2.13s.34-.8.5-1.09S32.32,16.13,32.32,16.13Z"/><path class="cls-4" d="M45.19,29.41c0,.18,1.52.33,3.39.33S52,29.59,52,29.41s-1.52-.33-3.39-.33S45.19,29.23,45.19,29.41Z"/><polygon class="cls-6" points="49.25 12.21 49.34 13.71 49.47 14.47 48.91 14.66 48.27 14.89 48.28 13.78 48.26 12.64 49.25 12.21"/><path class="cls-5" d="M48.84,9.69c.77.14.76.67.76.67a4.91,4.91,0,0,1,.07.78A.25.25,0,0,1,50,11c.27.1.11.93-.29.87a2,2,0,0,1-.12.57,1.61,1.61,0,0,1-1,.68.87.87,0,0,1-1-.65,20.92,20.92,0,0,1-.05-2.22S47.57,9.45,48.84,9.69Z"/><path class="cls-7" d="M49.13,10.1c.21,0,.53-.09.73-.1,0,0,0,.15,0,.15a8.76,8.76,0,0,0,0,.89.19.19,0,0,0-.19.19v.36h-.21l0-.78a.42.42,0,0,1-.19-.19S49.17,10.24,49.13,10.1Z"/><path class="cls-8" d="M49.13,10.62a1,1,0,0,0-.38,0,.88.88,0,0,0-.37.08.44.44,0,0,1,.37-.22A.53.53,0,0,1,49.13,10.62Z"/><path class="cls-8" d="M48.08,10.82a.62.62,0,0,0-.3-.07.53.53,0,0,0-.29.11.32.32,0,0,1,.28-.24A.36.36,0,0,1,48.08,10.82Z"/><path class="cls-7" d="M48.31,11.94s.6-.15.71,0,.14.39.31.31.08-1.61.08-1.61l.25.49s.48,2-.75,2.11-1.49-.25-1.41-.93a.16.16,0,0,0,.21-.12C47.77,12,47.63,11.88,48.31,11.94Z"/><path class="cls-9" d="M48.87,12.18l-1,.07S48.21,12.77,48.87,12.18Z"/><path class="cls-7" d="M49.87,10.15s.09-.66-.48-.58a1.5,1.5,0,0,0-1.24-.52l.35.17a1.45,1.45,0,0,0-1.25,0,.47.47,0,0,0,.39.3,1.79,1.79,0,0,1-.45-.11s0,.51.32.62,1.29-.41,1.67.09.62-.09.62-.09"/><path class="cls-20" d="M49.16,10.78l-.84.11s0,.71.56.62S49.16,10.78,49.16,10.78Z"/><polygon class="cls-11" points="48.29 10.87 49.25 10.72 49.29 10.83 48.31 10.96 48.29 10.87"/><path class="cls-20" d="M47.32,11l.8-.07s.13.76-.42.76S47.32,11,47.32,11Z"/><polygon class="cls-11" points="48.15 10.88 47.21 10.94 47.2 11.05 48.13 10.97 48.15 10.88"/><polygon class="cls-6" points="48.31 11.94 48.16 11.08 47.89 11.86 48.31 11.94"/><polygon class="cls-11" points="49.28 10.83 49.96 11.05 49.95 10.95 49.25 10.72 49.28 10.83"/><path class="cls-21" d="M48.35,11a.18.18,0,0,0-.22,0"/><polygon class="cls-13" points="49.16 27.6 48.95 28.8 49.41 28.98 49.69 27.7 49.16 27.6"/><path class="cls-9" d="M49.71,28.29a1.54,1.54,0,0,0,.67.5c.41.15.79.32.74.56a2.44,2.44,0,0,1-1.64-.13v.1l-.67-.07.05-.84.56.07,0-.08Z"/><path class="cls-15" d="M49.92,29.26c.9.27,1.14,0,1.2,0v.06a2.44,2.44,0,0,1-1.64-.13v.1l-.67-.07v-.16A3.11,3.11,0,0,1,49.92,29.26Z"/><polygon class="cls-13" points="47.89 27.47 47.9 28.68 47.42 28.78 47.35 27.47 47.89 27.47"/><path class="cls-9" d="M47.23,28.29a1.47,1.47,0,0,1-.67.5c-.41.15-.78.32-.74.56a2.47,2.47,0,0,0,1.65-.13v.1l.67-.07,0-.84-.55.07,0-.08Z"/><path class="cls-15" d="M47,29.26c-.9.27-1.14,0-1.2,0v.06a2.47,2.47,0,0,0,1.65-.13v.1l.67-.07v-.16A3.14,3.14,0,0,0,47,29.26Z"/><path class="cls-22" d="M49.39,20.61l-.35.05,0,.08a2.26,2.26,0,0,0-1.53-1.14l.11-.45,3.36-.89A23.56,23.56,0,0,1,49.79,28a.83.83,0,0,1-1,0A47.74,47.74,0,0,0,49.39,20.61Z"/><path class="cls-22" d="M49.65,20.8s0-.42,0-.45c0-.3-.41-.17-.32-.42a2.29,2.29,0,0,1,.48-.79l-2-1a23.62,23.62,0,0,0-.69,9.74.83.83,0,0,0,.95.14,47.32,47.32,0,0,1,.82-7.29Z"/><path class="cls-23" d="M46.8,14.35a30.93,30.93,0,0,0-.53,3.31,1.4,1.4,0,0,0,.95.15l.41-2.1Z"/><path class="cls-23" d="M46.81,14.34a8.42,8.42,0,0,1,1.93-.56l.15.39.06-.41s1.77,0,2.35.09c0,0-.23,3.65-.31,5a3.16,3.16,0,0,1-1.35,1l-.44-.6-.4.54a5.11,5.11,0,0,1-1.41-.64h0S47.07,16.14,46.81,14.34Z"/><path class="cls-24" d="M47.47,18.51a6.51,6.51,0,0,0,3.6-2.89c0,1.14,0,2.53-.08,3.28a3.16,3.16,0,0,1-1.35,1l-.44-.6-.4.54a5.11,5.11,0,0,1-1.41-.64h0s0-.26-.06-.67Z"/><path class="cls-17" d="M48.81,14.48a.09.09,0,0,0,.09.09.09.09,0,0,0,.08-.09.09.09,0,0,0-.08-.08A.09.09,0,0,0,48.81,14.48Z"/><path class="cls-17" d="M48.87,15.22a.09.09,0,0,0,.08.09.08.08,0,0,0,.08-.09.08.08,0,0,0-.08-.08A.09.09,0,0,0,48.87,15.22Z"/><path class="cls-17" d="M48.91,16.15a.07.07,0,0,0,.08.08.08.08,0,0,0,.08-.08.09.09,0,0,0-.08-.08A.08.08,0,0,0,48.91,16.15Z"/><path class="cls-17" d="M49,17a.09.09,0,0,0,.09.08.09.09,0,0,0,.08-.08.08.08,0,0,0-.08-.08A.08.08,0,0,0,49,17Z"/><path class="cls-17" d="M49.05,18a.08.08,0,0,0,.08.08.09.09,0,0,0,.08-.08.08.08,0,0,0-.08-.08A.07.07,0,0,0,49.05,18Z"/><path class="cls-17" d="M49.17,18.81a.08.08,0,0,0,.08.08.08.08,0,0,0,.09-.08.09.09,0,0,0-.09-.08A.09.09,0,0,0,49.17,18.81Z"/><rect class="cls-17" x="47.33" y="15.82" width="1.03" height="0.14" transform="translate(-2.01 8.39) rotate(-9.82)"/><path class="cls-8" d="M47.94,11.22c0,.1,0,.21-.17.27s-.2-.12-.24-.2c.06.07.15.16.22.13S47.9,11.31,47.94,11.22Z"/><path class="cls-8" d="M49,11.15a.4.4,0,0,1-.17.26c-.15,0-.2-.12-.24-.2.06.08.15.17.22.13S48.94,11.23,49,11.15Z"/><path class="cls-23" d="M51.74,17.62a4.42,4.42,0,0,1-3,.3l0-.81,2.44-.28Z"/><path class="cls-7" d="M47.49,18.11a.13.13,0,0,0,.13.13l.75,0a.13.13,0,0,0,.12-.14l-.06-1.54a.13.13,0,0,0-.13-.13l-.75,0a.12.12,0,0,0-.12.14Z"/><path class="cls-5" d="M48.62,17.09c.26.1.22.68.17.86a1,1,0,0,1-.3,0c-.27-.12-.05-.36-.05-.36-.89.12.07-.18.07-.18-1,.2,0-.15,0-.15-1,0-.06-.13-.06-.13C47.55,16.82,48.62,17.09,48.62,17.09Z"/><path class="cls-5" d="M47.38,17.06c-.27.08-.29.66-.25.84a.77.77,0,0,0,.29.06c.28-.09.09-.35.09-.35.88.2-.06-.19-.06-.19,1,.29,0-.15,0-.15,1,.12.07-.12.07-.12C48.46,16.9,47.38,17.06,47.38,17.06Z"/><polygon class="cls-17" points="49.77 13.76 49.3 14.3 48.95 13.76 49.49 13.41 49.77 13.76"/><polygon class="cls-17" points="47.94 13.94 48.39 14.37 48.74 13.78 48.13 13.58 47.94 13.94"/><path class="cls-23" d="M51.3,13.87a10.76,10.76,0,0,1,.42,3.84,2.07,2.07,0,0,1-.87.27l-.16-2.58Z"/></g></g></svg>