<svg xmlns="http://www.w3.org/2000/svg" viewBox="0 0 31.37 32"><defs><style>.cls-1{fill:#fff;}.cls-2{fill:#0c43ef;}</style></defs><title>updated-institute</title><g id="Layer_2" data-name="Layer 2"><g id="Layer_1-2" data-name="Layer 1"><rect class="cls-1" x="0.99" y="6.23" width="29.43" height="25.59"/><path class="cls-2" d="M.41,6.12,7.62,3.19c2.48-1,5-2,7.43-3a1.4,1.4,0,0,1,1.17,0c4.83,2,9.68,4,14.52,5.93.07,0,.21,0,.17.19H.44Z"/><path class="cls-2" d="M15.68,30c4.81,0,9.61,0,14.42,0,.75,0,1,.2.91.93S31.14,32,30.15,32q-14.47-.06-28.93,0c-1,0-.81-.51-.86-1.1S.51,30,1.27,30C6.07,30,10.88,30,15.68,30Z"/><path class="cls-2" d="M20.85,18c0,2,0,4.1,0,6.15,0,.53-.12.73-.68.7-1-.05-2.25.33-2.84-.16s-.18-1.83-.19-2.8c0-3.28,0-6.56,0-9.85,0-.63.12-.91.82-.85a14.29,14.29,0,0,0,2.17,0c.6,0,.75.17.75.75C20.83,14,20.85,16,20.85,18Z"/><path class="cls-2" d="M7.6,18.08c0,2,0,4,0,6,0,.74-.21.92-.9.87a17.46,17.46,0,0,0-2.17,0c-.47,0-.67-.09-.67-.62,0-4.13,0-8.26,0-12.39,0-.42.08-.66.57-.64,1,.05,2.25-.3,2.94.18s.17,1.75.2,2.68C7.63,15.43,7.6,16.76,7.6,18.08Z"/><path class="cls-2" d="M10.52,18c0-2,0-4,0-6,0-.63.17-.84.8-.8a21.49,21.49,0,0,0,2.27,0c.47,0,.67.11.67.63q0,6.21,0,12.43c0,.46-.15.64-.6.58h-.19c-.94,0-2.18.31-2.75-.17s-.16-1.78-.18-2.71C10.49,20.68,10.52,19.35,10.52,18Z"/><path class="cls-2" d="M23.77,18c0-2,0-4,0-6.05,0-.52.11-.75.67-.71,1,.07,2.2-.38,2.84.17s.19,1.78.2,2.71c0,3.31,0,6.62,0,9.94,0,.65-.16.89-.83.84a17.2,17.2,0,0,0-2.27,0c-.51,0-.64-.15-.63-.64C23.78,22.18,23.77,20.09,23.77,18Z"/><path class="cls-2" d="M15.59,28.65c-4.21,0-8.41,0-12.62,0-.88,0-.84-.39-.84-1s0-1,.85-1q12.7.06,25.41,0c1,0,.79.54.85,1.12s-.1.91-.85.9C24.12,28.63,19.85,28.65,15.59,28.65Z"/><path class="cls-2" d="M15.68,9.32c-4.93,0-9.86,0-14.78,0-.57,0-.9,0-.9-.77s.25-.85.91-.85q14.79,0,29.56,0c.7,0,.88.15.9.87s-.37.75-.92.74Z"/></g></g></svg>