<svg xmlns="http://www.w3.org/2000/svg" viewBox="0 0 31.49 26"><defs><style>.cls-1{fill:#fff;}.cls-2{fill:#7100ad;}</style></defs><title>warehouse-test</title><g id="Layer_2" data-name="Layer 2"><g id="Layer_1-2" data-name="Layer 1"><g id="Layer_1-2-2" data-name="Layer 1-2"><rect class="cls-1" x="3.69" y="7.15" width="25.73" height="18.83"/><path class="cls-2" d="M15.8,8.26H5c-.32,0-.32,0-.32.32V25.64c0,.33,0,.33-.31.33H1.72c-.36,0-.36,0-.36-.35V8.71c0-.26,0-.26-.27-.17s-.37.15-.54-.22-.34-.7-.52-1C0,7.14,0,7.05.15,7,2.59,5.85,5.06,4.74,7.53,3.63L12.74,1.3C13.7.87,14.67.49,15.63,0A.5.5,0,0,1,16,0l4.37,2L25.26,4.2l4.41,2L31.3,7c.22.09.23.13.14.34-.17.39-.35.81-.52,1.18-.07.17-.17.21-.34.13-.38-.18-.38-.17-.39.25-.07,5.59,0,11.17,0,16.75,0,.37,0,.37-.36.37H27.25c-.34,0-.34,0-.34-.35V8.44a.15.15,0,0,0-.13-.18h-11Z"/><path class="cls-2" d="M8.5,26h-3c-.2,0-.26-.06-.26-.26V21.31c0-.19.06-.25.25-.25h6c.19,0,.23.06.23.24v4.43c0,.19-.05.25-.24.25Z"/><path class="cls-2" d="M15.8,21.06h3c.19,0,.25.05.25.24v4.44c0,.19-.06.24-.25.24h-6c-.19,0-.25-.05-.25-.24V21.3c0-.18.06-.24.25-.24Z"/><path class="cls-2" d="M23.1,26h-3c-.21,0-.26-.06-.26-.26V21.31c0-.19,0-.25.24-.25h6c.2,0,.25.06.25.26v4.41c0,.19-.06.25-.24.25Z"/><path class="cls-2" d="M19,15.5h3c.19,0,.26.05.26.25v4.41c0,.21-.07.26-.26.26H16.08c-.27,0-.29,0-.29-.27V15.76c0-.19.06-.24.25-.24Z"/><path class="cls-2" d="M11.71,15.5h2.94c.21,0,.27.05.26.25v4.41c0,.21-.05.26-.25.26H8.75c-.27,0-.29,0-.29-.26V15.82c0-.3,0-.3.29-.3Z"/><path class="cls-2" d="M15.78,12.6H5.8c-.34,0-.34,0-.35-.35V12.2c0-.65,0-.55.55-.58H8.23c1.89,0,3.78,0,5.68,0H25.8c.34,0,.34,0,.34.33v.43c0,.14-.07.25-.24.23H15.78Z"/></g></g></g></svg>