<svg xmlns="http://www.w3.org/2000/svg" viewBox="0 0 46.8 32.03"><defs><style>.cls-1{fill:#fff;}.cls-2{fill:#36c0d7;}</style></defs><title>updated-hospital</title><g id="Layer_2" data-name="Layer 2"><g id="Layer_1-2" data-name="Layer 1"><rect class="cls-1" x="17.61" y="17.88" width="11.8" height="11.8"/><rect class="cls-1" x="34.95" y="9.84" width="9.09" height="13.56"/><rect class="cls-1" x="3.67" y="9.84" width="9.09" height="13.56"/><circle class="cls-1" cx="23.78" cy="7.14" r="6.9"/><g id="Layer_1-2-2" data-name="Layer 1-2"><path class="cls-2" d="M23.35,32H.91C0,32,0,32,0,31.09V29.65c0-.44.18-.62.62-.6s1,0,1.56,0c.34,0,.5-.14.49-.48V9.88A2.68,2.68,0,0,1,5.09,7a3,3,0,0,1,.52,0h7.46c.59,0,.75.19.75.76v20.6c0,.44,0,.83.62.75.26,0,.38-.15.38-.41V3a3,3,0,0,1,3-3c3.78,0,7.56,0,11.34,0A2.64,2.64,0,0,1,32,2.43a3.09,3.09,0,0,1,0,.43V28.19c0,.86,0,.87.86.86,1.48,0,1.3.18,1.3-1.29v-20c0-.85,0-.85.88-.85h7.4a2.54,2.54,0,0,1,2.73,2.35,3.09,3.09,0,0,1,0,.43V28.08c0,1,0,1,.93,1,.53,0,.73.17.7.7a13.53,13.53,0,0,0,0,1.56c0,.49-.14.74-.66.68a4.51,4.51,0,0,0-.52,0ZM17.61,6.59a5.84,5.84,0,0,0,5.75,5.93h.05a6,6,0,0,0,6-5.86A5.92,5.92,0,0,0,23.49.72h0a5.82,5.82,0,0,0-5.88,5.76ZM27.2,24.28V20.17c0-.41-.14-.58-.56-.58H20.51c-.44,0-.57.17-.57.59v8.26c0,.45.14.62.6.62h6.07c.46,0,.6-.18.6-.62C27.19,27.05,27.2,25.67,27.2,24.28ZM7.53,12.83c0-1.35.15-1.21-1.19-1.21s-1.2-.15-1.2,1.2S5,14,6.35,14,7.52,14.14,7.53,12.83Zm4.05,0c0-1.36.14-1.2-1.2-1.22h-.06c-1.26,0-1.14-.11-1.13,1.16S9,14,10.41,14,11.57,14.14,11.58,12.83Zm25.89-1.22c-1.35,0-1.2-.14-1.21,1.2v.06c0,1.26-.11,1.14,1.16,1.13s1.23.16,1.23-1.22S38.79,11.62,37.47,11.61Zm4.07,0c-1.36,0-1.23-.15-1.22,1.18S40.17,14,41.51,14s1.19.15,1.19-1.2S42.84,11.62,41.54,11.61Zm-34,5.27c0-1.36.14-1.2-1.2-1.22H6.27c-1.26,0-1.14-.11-1.13,1.16S5,18.05,6.36,18.05s1.16.14,1.17-1.17Zm2.88-1.22c-1.36,0-1.22-.15-1.22,1.18s-.2,1.21,1.18,1.21,1.19.15,1.2-1.2.13-1.18-1.17-1.19Zm28.24,1.23c0-1.36.15-1.22-1.19-1.22s-1.2-.15-1.21,1.19-.14,1.19,1.21,1.19S38.65,18.19,38.66,16.89Zm2.88-1.23c-1.36,0-1.23-.15-1.22,1.19s-.16,1.2,1.19,1.2,1.19.15,1.19-1.21S42.84,15.67,41.54,15.66ZM6.37,20c-1.37,0-1.22-.2-1.24,1.18v.06c0,1.22-.1,1.11,1.13,1.11,1.43,0,1.26.17,1.27-1.26C7.53,19.82,7.65,20,6.37,20Zm4,0C9,20,9.15,19.83,9.15,21.16S9,22.34,10.38,22.34s1.19.14,1.2-1.21S11.71,20,10.41,20ZM38.62,21.2c0-1.36.14-1.2-1.2-1.21h0c-1.26,0-1.14-.12-1.14,1.15s-.15,1.23,1.23,1.24,1.15.09,1.17-1.22Zm4.05,0c0-1.37.15-1.23-1.18-1.23s-1.22-.16-1.22,1.19-.14,1.2,1.21,1.2,1.22.12,1.23-1.18Z"/><path class="cls-2" d="M23.37,10.57c-1.57,0-1.36.19-1.38-1.39,0-1,0-1-1-1-1.45,0-1.28.16-1.29-1.31s0-1.5,1.49-1.5c.82,0,.82,0,.82-.84V3.2c0-.44.14-.5.49-.49h1.85c.34,0,.48.16.48.49V4.82c0,.39.14.57.54.55s1,0,1.5,0,.65.19.63.65,0,1.08,0,1.62c0,.39-.14.57-.54.55s-1,0-1.56,0-.59.16-.57.58,0,.85,0,1.27-.15.61-.57.58Z"/></g></g></g></svg>