<svg xmlns="http://www.w3.org/2000/svg" viewBox="0 0 27.2 32"><defs><style>.cls-1{fill:#fff;}.cls-2{fill:#4aad43;}.cls-3{fill:#262626;}.cls-4{fill:#6d6d6d;}</style></defs><title>thela-color</title><g id="Layer_2" data-name="Layer 2"><g id="Layer_1-2" data-name="Layer 1"><polygon class="cls-1" points="3.57 24.6 6.47 23.57 20.73 23.57 22.97 24.95 23.74 22.48 23.74 21.39 2.89 21.37 3.57 24.6"/><polygon class="cls-1" points="5.53 0.05 21.24 0 23.74 3.61 3.57 3.61 5.53 0.05"/><polygon class="cls-1" points="2.89 17.82 2.89 4.12 24.67 4.12 24.25 17.82 2.89 17.82"/><path class="cls-2" d="M.57,7.8c0-1.13,0-2.26,0-3.39,0-.23.06-.29.29-.29H5.07c.22,0,.3,0,.3.28,0,1.14,0,2.28,0,3.43a2.35,2.35,0,0,1-2,2.35l-.18.05H2.48a.4.4,0,0,0-.16-.09A2.35,2.35,0,0,1,.57,7.8Z"/><path class="cls-2" d="M21.84,7.84c0-1.15,0-2.29,0-3.43,0-.22.06-.29.29-.29h4.22c.2,0,.3,0,.3.28,0,1.16,0,2.33,0,3.49a2.32,2.32,0,0,1-1.71,2.23.38.38,0,0,0-.19.11H24l-.15,0A2.37,2.37,0,0,1,21.84,7.84Z"/><path class="cls-2" d="M25.37,20.21c-3.92,0-7.84,0-11.76,0H1.43A1.3,1.3,0,0,1,0,18.76a1.61,1.61,0,0,1,.49-1.47c.05,0,.06-.08.05-.11l.1-.09a1.9,1.9,0,0,0,.42-.15.42.42,0,0,0,.26.08c.32,0,.65,0,1,0,.17,0,.25,0,.25-.22q0-3.07,0-6.14h.52c0,2,0,4,0,6,0,.29.09.36.37.36H23.82c.26,0,.34-.06.34-.33,0-2,0-4,0-6h.51c0,2,0,4,0,6,0,.24.06.33.3.32s.63,0,.94,0a1.3,1.3,0,0,1,1.29,1.27C27.29,19.62,26.82,20.23,25.37,20.21Z"/><path class="cls-2" d="M13.59,20.72H24.28c.33,0,.4.1.39.4,0,2.26,0,4.52,0,6.78a.85.85,0,0,1-.89.93c-.25,0-.3-.07-.3-.31a3.94,3.94,0,0,0-1.11-2.89,4.07,4.07,0,0,0-4.44-1,4,4,0,0,0-2.61,3.8c0,.38-.11.43-.44.42-.9,0-1.8,0-2.7,0-.2,0-.3,0-.29-.27a4.08,4.08,0,1,0-8.16,0c0,.28-.09.32-.34.31A.82.82,0,0,1,2.54,28c0-2.36,0-4.71,0-7.06,0-.29.18-.23.34-.23H13.59Zm-.1,1.21H4.43c-.2,0-.42,0-.44.27,0,.44,0,.88,0,1.31a.24.24,0,0,0,.27.26.23.23,0,0,0,.23-.25,4.85,4.85,0,0,0,0-.66c0-.35.09-.41.42-.41H22.1c.28,0,.4.06.37.36s0,.41,0,.62.06.33.26.34.26-.16.26-.34v-1c0-.45,0-.49-.5-.49Z"/><path class="cls-3" d="M4.23,28.39A3.58,3.58,0,1,1,7.78,32,3.59,3.59,0,0,1,4.23,28.39Zm5.43,0a1.85,1.85,0,0,0-3.7,0,1.85,1.85,0,1,0,3.7,0Z"/><path class="cls-3" d="M15.81,28.39A3.58,3.58,0,1,1,19.37,32,3.59,3.59,0,0,1,15.81,28.39Zm5.43.06a1.85,1.85,0,1,0-1.87,1.82A1.84,1.84,0,0,0,21.24,28.45Z"/><path class="cls-2" d="M16,6.19V7.78a2.41,2.41,0,1,1-4.81,0c0-1.09,0-2.18,0-3.28,0-.25,0-.36.33-.36,1.4,0,2.79,0,4.18,0,.25,0,.32.07.31.32C16,5,16,5.6,16,6.19Z"/><path class="cls-2" d="M18.92,4.12c.7,0,1.4,0,2.1,0,.25,0,.31.08.31.32,0,1.12,0,2.23,0,3.35a2.41,2.41,0,1,1-4.81,0c0-1.08,0-2.16,0-3.25,0-.33.11-.4.41-.39.67,0,1.34,0,2,0Z"/><path class="cls-2" d="M10.69,6.18c0,.56,0,1.11,0,1.66a2.39,2.39,0,0,1-2.3,2.38A2.34,2.34,0,0,1,5.9,8c-.06-1.22,0-2.44,0-3.66,0-.23.13-.22.28-.22,1.42,0,2.84,0,4.26,0,.24,0,.28.1.27.31,0,.59,0,1.18,0,1.76Z"/><path class="cls-4" d="M18.86,16.5c-1,0-2,0-3,0-.3,0-.37-.08-.33-.37a3.43,3.43,0,0,1,2.86-3c.23,0,.32-.11.3-.34a3,3,0,0,1,0-.52A.23.23,0,0,1,18.9,12c.14,0,.22.1.24.25v0c-.16.67.21.82.78,1A3.34,3.34,0,0,1,22.3,16.2c0,.25-.06.31-.29.31Z"/><path class="cls-4" d="M8.15,16.5c-1,0-2,0-3,0-.22,0-.3-.05-.3-.28,0-.57,0-1.13,0-1.7,0-.3.13-.41.42-.41H7.62c.24,0,.32-.07.31-.31a5.93,5.93,0,0,1,0-.73c0-.19-.06-.23-.24-.23h-1c-.18,0-.34,0-.34-.25s.16-.26.34-.26h3c.18,0,.33.05.32.26s-.17.24-.34.24h-1c-.18,0-.24.07-.23.24s0,.51,0,.76.09.27.28.27h2.18c.56,0,.57,0,.57.55s0,1,0,1.52c0,.24-.06.32-.31.32-1,0-2,0-3,0Z"/><path class="cls-4" d="M13.6,3.61H11.53c-.23,0-.27-.06-.22-.28.21-1,.41-2,.6-3C12,.11,12,0,12.2,0c.94,0,1.87,0,2.8,0,.16,0,.25,0,.28.21.2,1,.4,2.08.62,3.12,0,.24-.06.24-.23.24Z"/><path class="cls-4" d="M6.12,3.54c.49-.82,1-1.65,1.48-2.47.2-.34.34-.78.63-1s.79,0,1.19,0h1.76c.2,0,.26,0,.21.25-.21,1-.42,2.08-.62,3.12,0,.14-.08.2-.22.2H6.2S6.16,3.57,6.12,3.54Z"/><path class="cls-4" d="M18.75,3.61h-2c-.21,0-.3,0-.34-.27-.18-1-.39-2-.59-3-.05-.23,0-.33.24-.32.9,0,1.8,0,2.7,0a.34.34,0,0,1,.35.2c.62,1,1.24,2.08,1.87,3.11.12.21.09.26-.15.26Z"/><path class="cls-4" d="M7.61.05c-.71,1.18-1.38,2.29-2,3.41a.28.28,0,0,1-.25.15H1c0-.14.08-.19.13-.24L4.29.23C4.38.15,4.45,0,4.6,0Z"/><path class="cls-4" d="M26.17,3.61H22c-.15,0-.28,0-.38-.17C21,2.35,20.32,1.27,19.68.18a.5.5,0,0,1,0-.13h3a.28.28,0,0,1,.21.1l3.38,3.36Z"/><path class="cls-3" d="M7.82,27.09a1.33,1.33,0,1,1-1.35,1.29A1.34,1.34,0,0,1,7.82,27.09Z"/><path class="cls-3" d="M19.38,29.75a1.33,1.33,0,1,1,0-2.66,1.33,1.33,0,0,1,0,2.66Z"/></g></g></svg>