<svg xmlns="http://www.w3.org/2000/svg" viewBox="0 0 33.65 26"><defs><style>.cls-1{fill:#fff;}.cls-2{fill:#ba3309;}</style></defs><title>marking-shop</title><g id="Layer_2" data-name="Layer 2"><g id="Layer_1-2" data-name="Layer 1"><polygon class="cls-1" points="2.11 25.57 2.79 7.09 5.17 1.94 29.77 2.37 31.21 10.27 31.9 25.35 28.66 25.57 2.11 25.57"/><g id="Layer_1-2-2" data-name="Layer 1-2-2"><path class="cls-2" d="M3.54,0H30.06a1.49,1.49,0,0,1,.74,1c.89,3,1.76,6.07,2.79,9a.81.81,0,0,1-.44,1.05,2.06,2.06,0,0,1-.81.2c-.44.05-.44,0-.44.49V25.35c0,.44-.21.63-.65.65H2.56c-.73,0-.88-.14-.88-.89V11.84c0-.5,0-.49-.47-.55A1.38,1.38,0,0,1,0,10.63V10a4.46,4.46,0,0,0,.31-.89L2.75,1.07A1.65,1.65,0,0,1,3.54,0ZM16.82,11.3H3.25c-.45,0-.45,0-.45.46V24.42c0,.48,0,.49.47.49h9c.48,0,.48,0,.48-.48V16a2.26,2.26,0,0,1,2.06-2.44H18.4a2.26,2.26,0,0,1,2.44,2.06,2.41,2.41,0,0,1,0,.38v8.42c0,.47,0,.48.47.48h9.05c.47,0,.47,0,.47-.48V11.8c0-.5,0-.5-.49-.5Zm2.92,8.94V15.91a1.14,1.14,0,0,0-1-1.28h0a.49.49,0,0,0-.24,0H15.12a1.15,1.15,0,0,0-1.24,1,.67.67,0,0,0,0,.2V24.5c0,.31.1.39.4.39h5c.32,0,.42-.1.41-.42V20.24ZM16.39,6v-2c0-.27-.1-.37-.37-.35s-.48,0-.72,0-.38.09-.37.35V5c0,.21-.08.31-.29.3H13.53c-.23,0-.3-.09-.3-.31V3.88c0-.22-.1-.32-.32-.31h-.85c-.29,0-.3.07-.3.26v4.3c0,.19.09.27.29.27h.85c.25,0,.33-.1.33-.33V6.74c0-.25.09-.34.33-.34h1.07c.34,0,.33.11.32.34V8.05c0,.24.1.34.33.33s.51,0,.76,0,.38-.11.37-.39C16.38,7.31,16.39,6.64,16.39,6Zm5.69,0a2.25,2.25,0,0,0-2-2.44h-.42a2.29,2.29,0,0,0-2.56,2,3.53,3.53,0,0,0,0,.46,2.27,2.27,0,0,0,2,2.5h.44a2.21,2.21,0,0,0,2.53-1.82h0a2.29,2.29,0,0,0,0-.64ZM8.94,8.45a2.42,2.42,0,0,0,1.35-.27,1.47,1.47,0,0,0,.82-1.4,1.33,1.33,0,0,0-.93-1.23c-.28-.11-.56-.19-.81-.27s-.51-.12-.77-.2a.35.35,0,0,1-.28-.35.39.39,0,0,1,.32-.37.74.74,0,0,1,.91.38c.09.14.16.23.33.22l.81-.06c.2,0,.24-.11.18-.29a1.19,1.19,0,0,0-.66-.82,3,3,0,0,0-2.57,0,1.24,1.24,0,0,0-.59,1.63A1.28,1.28,0,0,0,7.58,6a3.28,3.28,0,0,0,1,.39,2.86,2.86,0,0,1,.81.27.48.48,0,0,1,.24.63.47.47,0,0,1-.24.24.81.81,0,0,1-1.12-.26h0l0-.07c-.15-.39-.4-.4-.72-.37a2.72,2.72,0,0,0-.49,0c-.22,0-.29.09-.23.31a1.57,1.57,0,0,0,1.1,1.19A3.13,3.13,0,0,0,8.94,8.45ZM22.75,6V8c0,.25.09.36.35.35h.75c.22,0,.32-.09.31-.31V6.92c0-.25.1-.35.35-.35h1a1.34,1.34,0,0,0,1.32-1.36h0V5.13a1.28,1.28,0,0,0-1-1.5h-.19c-.82-.1-1.63,0-2.44,0-.32,0-.4.12-.4.41.05.67,0,1.33,0,2Z"/><path class="cls-2" d="M10.85,18.47v2.44c0,.56-.19.73-.76.74H6.88c-.53,0-.73-.2-.73-.74V16c0-.53.2-.73.74-.73h3.25c.55,0,.74.2.74.75C10.85,16.81,10.85,17.64,10.85,18.47Zm-3.6,0v1.74c0,.28.1.38.38.37h1.8c.24,0,.34-.09.34-.32V16.68c0-.25-.1-.36-.35-.35H7.6c-.26,0-.37.11-.36.37C7.26,17.29,7.25,17.88,7.25,18.47Z"/><path class="cls-2" d="M27.45,18.44V21c0,.52-.2.71-.72.72H23.48c-.49,0-.7-.2-.7-.71v-5c0-.5.21-.7.71-.71h3.25c.51,0,.71.21.71.72C27.46,16.77,27.45,17.6,27.45,18.44Zm-1.08,0V16.66c0-.26-.09-.38-.36-.38H24.2c-.24,0-.35.08-.35.34V20.2c0,.23.09.33.32.33H26c.24,0,.33-.1.33-.34V18.44Z"/><path class="cls-2" d="M15.35,20.82a.44.44,0,0,1-.42.42.43.43,0,1,1,.42-.42Z"/><path class="cls-2" d="M20.64,6a2.81,2.81,0,0,1-.07.65,1,1,0,0,1-2,.07,2.72,2.72,0,0,1,0-1.33.93.93,0,0,1,1-.81,1,1,0,0,1,1,.76A2.45,2.45,0,0,1,20.64,6Z"/><path class="cls-2" d="M24.67,4.51a.94.94,0,0,1,.44.06.57.57,0,0,1,.28.74.53.53,0,0,1-.28.27,1.09,1.09,0,0,1-.69.07c-.41-.12-.17-.47-.22-.73s-.06-.39.23-.41Z"/></g></g></g></svg>