<svg xmlns="http://www.w3.org/2000/svg" viewBox="0 0 33.85 32"><defs><style>.cls-1{fill:#fff;}.cls-2{fill:#3d88e2;}</style></defs><title>updated-hotel</title><g id="Layer_2" data-name="Layer 2"><g id="Layer_1-2" data-name="Layer 1"><polygon class="cls-1" points="2.45 24.74 8.62 23.76 8.62 31.02 3 31.24 2.45 24.74"/><polygon class="cls-1" points="3.34 6.28 8.54 4.08 8.33 21.59 3 22.18 3.34 6.28"/><polygon class="cls-1" points="10.11 4.08 31.68 7.71 31.68 29.03 15.98 31.24 10.89 31.02 10.11 4.08"/><g id="Layer_1-2-2" data-name="Layer 1-2"><path class="cls-2" d="M33.85,30.53v1.32c0,.12,0,.17-.15.14H.73V30.84c0-.38.1-.32.32-.32h.6c.24,0,.33-.09.33-.34C2,28.8,2,27.4,2,26c0-.24-.1-.34-.34-.33H0v-.5a3.12,3.12,0,0,1,3.42-2.55c1.12.05,2.24,0,3.36,0h.48a.21.21,0,0,0,.22-.2v0c0-.16-.1-.21-.24-.21H3a5.7,5.7,0,0,0-.58.06C2,22.3,2,22.3,2,21.9v-11C2,9.35,2,7.76,2,6.17a.42.42,0,0,1,.25-.45l7-3.15a.82.82,0,0,1,.49-.06l1.47.28,11,2.09,10,1.89c.43.08.43.08.43.51v23c0,.2.08.26.26.25ZM7.77,27.9V25.67c0-.44,0-.47-.47-.42-1.1.12-2.2.25-3.3.36-.24,0-.32.13-.32.36V30.2c0,.25.1.33.34.33H7.43c.25,0,.34-.1.34-.35C7.76,29.42,7.77,28.66,7.77,27.9ZM20.7,14.24V12.6c0-.18,0-.31-.25-.34L18,11.93c-.18,0-.29,0-.29.23v3.47a.24.24,0,0,0,.21.27h0l2.43.28c.27,0,.35-.08.35-.34C20.69,15.31,20.7,14.77,20.7,14.24Zm-3,5.69v1.72c0,.15,0,.27.23.29l2.5.17c.2,0,.3-.06.3-.27V18.48a.24.24,0,0,0-.18-.29h-.08L18,18c-.27,0-.36.08-.35.33,0,.51,0,1.05,0,1.6Zm3,6.17V24.44a.28.28,0,0,0-.24-.32H20.4L18,24c-.22,0-.31.07-.31.29v3.39c0,.21.07.3.3.31l2.36.06c.27,0,.38-.08.37-.36,0-.53,0-1.06,0-1.59Zm-3-18.23V9.53c0,.23.08.32.3.35l2.4.37c.23,0,.33-.05.33-.29V6.67a.3.3,0,0,0-.26-.34h0L18,5.91c-.3,0-.34,0-.35.3Zm8.12,1.29V7.61a.32.32,0,0,0-.25-.37h-.05L23.1,6.8c-.2,0-.3,0-.3.25v3.29a.27.27,0,0,0,.22.3h0c.81.12,1.62.23,2.43.36.23,0,.3,0,.3-.26Zm-3,5.34v1.6c0,.25.1.35.35.37.76.07,1.51.16,2.27.24.34,0,.38,0,.38-.32v-3c0-.28-.1-.4-.38-.43-.77-.1-1.53-.2-2.29-.32-.26,0-.34.06-.34.3,0,.51,0,1.06,0,1.56Zm0,11.66V27.8c0,.17.05.28.25.3h2.48a.22.22,0,0,0,.26-.17V24.65c0-.17-.08-.26-.25-.26l-2.42-.12c-.23,0-.33.08-.33.31,0,.53,0,1.05,0,1.58Zm0-5.81V22c0,.18.05.29.25.3l2.44.17c.2,0,.3-.08.3-.28V19a.25.25,0,0,0-.2-.28h0l-2.47-.23c-.21,0-.29.06-.29.26,0,.51,0,1.05,0,1.6Zm5.09.39v1.57c0,.17,0,.3.24.31l2.47.17c.24,0,.32-.09.32-.32v-3a.32.32,0,0,0-.27-.37h-.05c-.8-.06-1.59-.14-2.39-.22-.23,0-.33,0-.32.29,0,.55,0,1.06,0,1.57Zm0,5.61v1.44c0,.41,0,.44.45.45.76,0,1.52,0,2.28.06.22,0,.3-.08.3-.29V25c0-.24-.1-.32-.34-.33-.8,0-1.61-.07-2.41-.12-.22,0-.29.06-.28.26Zm0-11.23v1.52c0,.25.09.36.34.39.8.07,1.61.16,2.41.25.22,0,.29-.06.28-.26V14c0-.19-.07-.28-.26-.3l-2.48-.34c-.22,0-.29,0-.28.26Zm3-5.12V8.48a.3.3,0,0,0-.26-.34h0l-2.41-.43c-.24,0-.34,0-.33.27v3.1a.28.28,0,0,0,.23.33h.06c.81.11,1.62.23,2.42.36.23,0,.32,0,.31-.27Zm-16,2.65A2.33,2.33,0,0,0,13.2,10.2a1.65,1.65,0,0,0-1.88.72,2.46,2.46,0,0,0,.87,3.23,1.84,1.84,0,0,0,2.37-.37,2,2,0,0,0,.38-1.13ZM11.36,6.81V8.25c0,.74-.07.62.65.75.23,0,.34,0,.34-.28V7.65c0-.36.1-.31.32-.27l.75.12a.22.22,0,0,1,.21.23v.86c0,.67-.09.64.61.73.34,0,.38,0,.38-.32V6c0-.77.08-.65-.7-.8-.22,0-.3,0-.29.24s0,.66,0,1c0,.15,0,.23-.21.2l-.81-.14c-.19,0-.26-.14-.26-.33a5.81,5.81,0,0,0,0-.59c0-.72.09-.62-.65-.77-.26,0-.34,0-.34.29ZM6.81,7V5.25c0-.2-.06-.26-.25-.17l-1.67.68a.35.35,0,0,0-.25.38V9.27c0,.23.07.31.3.24l1.6-.44a.3.3,0,0,0,.27-.34v0C6.8,8.14,6.81,7.57,6.81,7Zm0,6.24V11.51c0-.2-.08-.29-.29-.24l-1.6.31a.31.31,0,0,0-.28.34h0V15c0,.25.11.33.34.31l1.54-.1c.22,0,.29-.11.29-.32,0-.53,0-1.1,0-1.66Zm0,6.23v-1.7c0-.22-.09-.32-.32-.32H4.94c-.21,0-.3.09-.3.3v3.14a.28.28,0,0,0,.24.32h0l1.56.23c.24,0,.35-.05.34-.3,0-.57,0-1.14,0-1.68Zm4.88,3.1v1.69c0,.37,0,.38.38.4a12.7,12.7,0,0,1,1.63.07c.54.07.59.07.57-.58a.24.24,0,0,0-.21-.27h0l-1-.06c-.36,0-.38,0-.38-.39v-.2c0-.16.07-.24.24-.22s.56,0,.84,0,.37-.06.35-.32a.81.81,0,0,1,0-.22c0-.23-.1-.32-.32-.33l-.87-.06c-.31,0-.23-.26-.24-.44s.12-.23.28-.22a5.15,5.15,0,0,1,.73,0c.56.08.51,0,.52-.52,0-.22-.08-.32-.31-.34-.63,0-1.27-.09-1.9-.15-.22,0-.31.08-.31.29,0,.63,0,1.25,0,1.81Zm.79-4.69h0V19c0,.46,0,.46.45.52H13c.41,0,.45,0,.45-.41V16.74c0-.4,0-.4.38-.38l.48.06a.2.2,0,0,0,.26-.14.17.17,0,0,0,0-.1V15.9c0-.25-.08-.35-.33-.38-.77-.07-1.55-.16-2.32-.25s-.64-.06-.6.58c0,.19.08.28.27.29s.33.05.5.05a.37.37,0,0,1,.36.4c0,.46,0,.87,0,1.28Zm-.78,9.89V29.4c0,.42,0,.43.42.43h1.66c.49,0,.5,0,.49-.5v-.09c0-.2-.09-.29-.29-.29h-.93c-.31,0-.37-.11-.37-.39V26.34c0-.72.09-.65-.67-.67-.22,0-.32.07-.32.31,0,.6,0,1.19,0,1.78Z"/><path class="cls-2" d="M9.87,0c1,.24,2,.4,3.05.6L29.26,3.69,30.68,4a.32.32,0,0,1,.32.32s0,0,0,.06v1c0,.31-.1.31-.34.27l-4.16-.79L10.2,1.76a2.17,2.17,0,0,0-1.46.18L4,4.1c-.33.14-.35.13-.36-.22s0-.59,0-.88a.4.4,0,0,1,.28-.43L9.09.24A2,2,0,0,0,9.54,0Z"/><path class="cls-2" d="M13.93,12.4a1.9,1.9,0,0,1-.09.53.76.76,0,0,1-.62.59.84.84,0,0,1-.84-.34,1.63,1.63,0,0,1-.17-1.71.82.82,0,0,1,1.11-.34.84.84,0,0,1,.28.25A1.62,1.62,0,0,1,13.93,12.4Z"/></g></g></g></svg>