<svg xmlns="http://www.w3.org/2000/svg" viewBox="0 0 18 21.73"><defs><style>.cls-1{fill:#fff;}</style></defs><title>jaipur</title><g id="Layer_2" data-name="Layer 2"><g id="Layer_1-2" data-name="Layer 1"><path class="cls-1" d="M9,18.9,14,14a7,7,0,1,0-9.9,0Zm0,2.83L2.64,15.36a9,9,0,1,1,12.72,0Z"/><path class="cls-1" d="M5.91,13.51V5H8.1a7.45,7.45,0,0,1,1.62.14,2.64,2.64,0,0,1,1,.46,2.21,2.21,0,0,1,.74.84,2.28,2.28,0,0,1,.26,1.06,2.45,2.45,0,0,1-.41,1.4,2.63,2.63,0,0,1-1.17.94l2.59,3.66H10.43L8.17,10.17H7.88v3.34Zm2.3-6.95H7.88V8.91h.43A1.87,1.87,0,0,0,9.48,8.6a1.05,1.05,0,0,0,.4-.89,1,1,0,0,0-.39-.88A2.32,2.32,0,0,0,8.21,6.56Z"/></g></g></svg>