<?xml version="1.0" encoding="utf-8"?>
<!-- Generator: Adobe Illustrator 23.0.5, SVG Export Plug-In . SVG Version: 6.00 Build 0)  -->
<svg version="1.1" id="Layer_1" xmlns="http://www.w3.org/2000/svg" xmlns:xlink="http://www.w3.org/1999/xlink" x="0px" y="0px"
	 viewBox="0 0 18 21.7" style="enable-background:new 0 0 18 21.7;" xml:space="preserve">
<style type="text/css">
	.st0{opacity:0.5;}
	.st1{fill:#FFFFFF;}
</style>
<title>sikar</title>
<g class="st0">
	<g id="Layer_1-2">
		<path class="st1" d="M9,18.9l5-4.9c2.7-2.7,2.7-7.2,0-9.9s-7.2-2.7-9.9,0c-2.7,2.7-2.7,7.2,0,9.9L9,18.9z M9,21.7l-6.4-6.4
			c-3.5-3.5-3.5-9.2,0-12.7s9.2-3.5,12.7,0s3.5,9.2,0,12.7c0,0,0,0,0,0L9,21.7z"/>
		<path class="st1" d="M6.2,11.6c0.4,0.3,0.9,0.5,1.3,0.7c0.3,0.1,0.7,0.2,1.1,0.2c0.3,0,0.6-0.1,0.9-0.2c0.2-0.1,0.3-0.4,0.3-0.6
			c0-0.3-0.4-0.7-1.1-1.2l-0.3-0.2L7.7,10C7.2,9.8,6.8,9.4,6.5,9C6.2,8.6,6.1,8.1,6.1,7.7C6.1,7,6.3,6.4,6.8,6
			c0.6-0.5,1.3-0.7,2-0.7c0.3,0,0.7,0,1,0.1c0.4,0.1,0.8,0.2,1.1,0.3v2c-0.4-0.2-0.8-0.4-1.2-0.6C9.5,7,9.2,6.9,8.9,6.9
			c-0.2,0-0.5,0-0.7,0.2C8.1,7.2,8,7.4,8,7.6C8,7.7,8,7.9,8.1,8c0.1,0.1,0.3,0.3,0.4,0.4l1,0.6c0.6,0.3,1.2,0.7,1.7,1.3
			c0.3,0.4,0.4,0.9,0.4,1.4c0,0.8-0.3,1.5-0.9,2c-0.6,0.5-1.4,0.8-2.3,0.8c-0.3,0-0.7,0-1-0.1c-0.4-0.1-0.8-0.2-1.2-0.3L6.2,11.6z"
			/>
	</g>
</g>
</svg>
