<svg xmlns="http://www.w3.org/2000/svg" viewBox="0 0 18 21.73"><defs><style>.cls-1{fill:#fff;}</style></defs><title>sikar</title><g id="Layer_2" data-name="Layer 2"><g id="Layer_1-2" data-name="Layer 1"><path class="cls-1" d="M9,18.9,14,14a7,7,0,1,0-9.9,0Zm0,2.83L2.64,15.36a9,9,0,1,1,12.72,0Z"/><path class="cls-1" d="M6.15,11.64a7.49,7.49,0,0,0,1.33.67,3.2,3.2,0,0,0,1.07.2,1.47,1.47,0,0,0,.85-.23.73.73,0,0,0,.32-.6q0-.52-1.14-1.17l-.28-.17L7.72,10A3.59,3.59,0,0,1,6.48,9a2.35,2.35,0,0,1-.4-1.35,2.13,2.13,0,0,1,.77-1.69,3,3,0,0,1,2-.65,5,5,0,0,1,1,.1A8.89,8.89,0,0,1,11,5.69v2a7.13,7.13,0,0,0-1.17-.59,2.69,2.69,0,0,0-.93-.21,1.14,1.14,0,0,0-.68.18.59.59,0,0,0-.24.5A.73.73,0,0,0,8.12,8a1.47,1.47,0,0,0,.44.35l1,.55a5.38,5.38,0,0,1,1.68,1.28,2.32,2.32,0,0,1,.43,1.39,2.56,2.56,0,0,1-.85,2,3.22,3.22,0,0,1-2.25.77,6.62,6.62,0,0,1-1-.1,10.42,10.42,0,0,1-1.22-.31Z"/></g></g></svg>