<svg xmlns="http://www.w3.org/2000/svg" xmlns:xlink="http://www.w3.org/1999/xlink" width="1366" height="767.108" viewBox="0 0 1366 767.108">
  <defs>
    <linearGradient id="linear-gradient" x1="0.5" y1="-0.524" x2="0.5" y2="0.431" gradientUnits="objectBoundingBox">
      <stop offset="0.009" stop-color="#00cf12"/>
      <stop offset="1" stop-color="#00cf12" stop-opacity="0"/>
    </linearGradient>
    <linearGradient id="linear-gradient-2" x1="0.5" y1="-0.018" x2="0.5" y2="1.249" gradientUnits="objectBoundingBox">
      <stop offset="0" stop-color="#00cf12"/>
      <stop offset="0.959" stop-color="#008f10"/>
    </linearGradient>
    <linearGradient id="linear-gradient-3" x1="0.5" y1="-0.228" x2="0.5" y2="1.337" xlink:href="#linear-gradient-2"/>
    <linearGradient id="linear-gradient-4" x1="0.5" y1="0.095" x2="0.5" y2="0.404" gradientUnits="objectBoundingBox">
      <stop offset="0.043" stop-color="#1294ff"/>
      <stop offset="1" stop-color="#4cbbff"/>
    </linearGradient>
    <linearGradient id="linear-gradient-5" x1="0.5" y1="1.307" x2="0.5" y2="0.195" gradientUnits="objectBoundingBox">
      <stop offset="0.041" stop-color="#030942"/>
      <stop offset="1" stop-color="#0018e3"/>
    </linearGradient>
    <linearGradient id="linear-gradient-6" y1="0.5" x2="1" y2="0.5" gradientUnits="objectBoundingBox">
      <stop offset="0" stop-color="#ffaca8"/>
      <stop offset="0.783" stop-color="#ffd6d6"/>
    </linearGradient>
    <linearGradient id="linear-gradient-7" x1="0.5" y1="1.259" x2="0.5" y2="0.198" gradientUnits="objectBoundingBox">
      <stop offset="0.217" stop-color="#ffd6d6"/>
      <stop offset="1" stop-color="#ffaca8"/>
    </linearGradient>
    <linearGradient id="linear-gradient-8" x1="0" y1="0.5" x2="1" y2="0.5" xlink:href="#linear-gradient-7"/>
    <linearGradient id="linear-gradient-9" x1="0.5" y1="0.78" x2="0.5" y2="-0.171" xlink:href="#linear-gradient-7"/>
    <linearGradient id="linear-gradient-10" x1="0.5" y1="-0.202" x2="0.5" y2="1.123" gradientUnits="objectBoundingBox">
      <stop offset="0.071" stop-color="#7a3923"/>
      <stop offset="1" stop-color="#3e190c"/>
    </linearGradient>
    <linearGradient id="linear-gradient-11" x1="0.653" y1="-0.019" x2="0.355" y2="0.996" gradientUnits="objectBoundingBox">
      <stop offset="0.019" stop-color="#fff"/>
      <stop offset="0.779" stop-color="#fff" stop-opacity="0"/>
    </linearGradient>
    <linearGradient id="linear-gradient-12" x1="0.206" y1="1.05" x2="0.92" y2="-0.273" xlink:href="#linear-gradient-4"/>
    <linearGradient id="linear-gradient-13" x1="0.215" y1="0.159" x2="0.775" y2="0.907" gradientUnits="objectBoundingBox">
      <stop offset="0.019" stop-color="#fff"/>
      <stop offset="0.694" stop-color="#fff" stop-opacity="0"/>
    </linearGradient>
    <linearGradient id="linear-gradient-14" x1="0.592" y1="0.842" x2="0.092" y2="-0.98" gradientUnits="objectBoundingBox">
      <stop offset="0.041" stop-color="#088a22"/>
      <stop offset="1" stop-color="#2c4"/>
    </linearGradient>
    <linearGradient id="linear-gradient-15" x1="0.194" y1="0.28" x2="0.912" y2="0.886" xlink:href="#linear-gradient-11"/>
    <linearGradient id="linear-gradient-16" x1="-7.517" y1="-15.787" x2="-6.851" y2="-14.773" gradientUnits="objectBoundingBox">
      <stop offset="0.019" stop-color="#fff"/>
      <stop offset="0.652" stop-color="#fff" stop-opacity="0"/>
    </linearGradient>
    <linearGradient id="linear-gradient-17" x1="0.5" y1="-0.12" x2="0.5" y2="0.728" xlink:href="#linear-gradient-14"/>
    <linearGradient id="linear-gradient-18" x1="0.5" y1="2.65" x2="0.5" y2="-0.077" xlink:href="#linear-gradient-14"/>
    <linearGradient id="linear-gradient-19" x1="1.109" y1="0.425" x2="-1.204" y2="0.655" xlink:href="#linear-gradient-7"/>
    <linearGradient id="linear-gradient-20" x1="0.133" y1="0.335" x2="1.66" y2="0.841" xlink:href="#linear-gradient-7"/>
    <linearGradient id="linear-gradient-21" x1="0.5" y1="1.144" x2="0.5" y2="-0.609" gradientUnits="objectBoundingBox">
      <stop offset="0.043" stop-color="#f8b114"/>
      <stop offset="1" stop-color="#ffd23d"/>
    </linearGradient>
    <linearGradient id="linear-gradient-22" x1="0.5" y1="1.144" x2="0.5" y2="-0.609" gradientUnits="objectBoundingBox">
      <stop offset="0.043" stop-color="#f8a300"/>
      <stop offset="1" stop-color="#ffb800"/>
    </linearGradient>
    <linearGradient id="linear-gradient-23" x1="0.5" y1="-0.008" x2="0.5" y2="0.772" xlink:href="#linear-gradient-21"/>
    <linearGradient id="linear-gradient-24" y1="-0.009" y2="0.931" xlink:href="#linear-gradient-22"/>
    <linearGradient id="linear-gradient-26" x1="0.5" y1="2.138" x2="0.5" y2="-0.172" xlink:href="#linear-gradient-21"/>
    <linearGradient id="linear-gradient-27" x1="0.5" y1="-0.209" x2="0.5" y2="0.888" gradientUnits="objectBoundingBox">
      <stop offset="0" stop-color="#ffd23d"/>
      <stop offset="0.957" stop-color="#f8b114"/>
    </linearGradient>
    <linearGradient id="linear-gradient-28" x1="0.5" y1="-0.209" x2="0.5" y2="0.888" xlink:href="#linear-gradient-21"/>
    <linearGradient id="linear-gradient-30" x1="0" y1="0.5" x2="1" y2="0.5" xlink:href="#linear-gradient-7"/>
    <linearGradient id="linear-gradient-31" y1="0.5" x2="1" y2="0.5" gradientUnits="objectBoundingBox">
      <stop offset="0.152" stop-color="#231e25"/>
      <stop offset="1" stop-color="#49484b"/>
    </linearGradient>
    <linearGradient id="linear-gradient-32" x1="1.009" y1="-0.076" x2="0.097" y2="0.934" gradientUnits="objectBoundingBox">
      <stop offset="0.043" stop-color="#5cc4ff"/>
      <stop offset="0.483" stop-color="#9fddff"/>
      <stop offset="1" stop-color="#edfbff"/>
    </linearGradient>
    <linearGradient id="linear-gradient-33" x1="0.315" y1="0.291" x2="0.802" y2="0.7" xlink:href="#linear-gradient-7"/>
    <linearGradient id="linear-gradient-34" x1="0.425" y1="0.448" x2="1.06" y2="0.966" gradientUnits="objectBoundingBox">
      <stop offset="0.041" stop-color="#eb3300"/>
      <stop offset="1" stop-color="#f80"/>
    </linearGradient>
    <linearGradient id="linear-gradient-35" x1="0" y1="0.5" x2="1" y2="0.5" xlink:href="#linear-gradient-14"/>
    <linearGradient id="linear-gradient-36" x1="1.118" y1="1.032" x2="-0.674" y2="-0.51" xlink:href="#linear-gradient-7"/>
    <linearGradient id="linear-gradient-37" x1="1.293" y1="1.207" x2="-0.364" y2="-0.27" xlink:href="#linear-gradient-7"/>
    <linearGradient id="linear-gradient-38" x1="1.07" y1="0.967" x2="-0.388" y2="-0.228" xlink:href="#linear-gradient-7"/>
    <linearGradient id="linear-gradient-39" x1="1.137" y1="1.022" x2="-0.321" y2="-0.173" xlink:href="#linear-gradient-7"/>
    <linearGradient id="linear-gradient-42" x1="0.004" y1="-0.326" x2="0.806" y2="1.026" gradientUnits="objectBoundingBox">
      <stop offset="0.043" stop-color="#5cc4ff"/>
      <stop offset="1" stop-color="#edfbff"/>
    </linearGradient>
    <linearGradient id="linear-gradient-43" x1="0.35" y1="0.011" x2="0.713" y2="0.872" xlink:href="#linear-gradient-34"/>
    <linearGradient id="linear-gradient-44" x1="0.317" y1="1.289" x2="0.74" y2="-0.096" xlink:href="#linear-gradient-7"/>
    <linearGradient id="linear-gradient-45" x1="0.82" y1="0.138" x2="0.21" y2="0.903" xlink:href="#linear-gradient-34"/>
    <linearGradient id="linear-gradient-46" x1="0.742" y1="1.367" x2="0.397" y2="0.023" xlink:href="#linear-gradient-7"/>
    <linearGradient id="linear-gradient-47" x1="0.629" y1="1.085" x2="0.397" y2="-0.11" xlink:href="#linear-gradient-7"/>
    <linearGradient id="linear-gradient-48" x1="0.746" y1="-0.317" x2="0.404" y2="0.842" xlink:href="#linear-gradient-10"/>
    <linearGradient id="linear-gradient-49" x1="0.448" y1="-0.031" x2="0.513" y2="0.809" xlink:href="#linear-gradient-31"/>
    <linearGradient id="linear-gradient-50" x1="0.781" y1="-0.141" x2="0.378" y2="0.626" xlink:href="#linear-gradient-31"/>
    <linearGradient id="linear-gradient-51" y1="0.5" x2="1" y2="0.5" gradientUnits="objectBoundingBox">
      <stop offset="0.152" stop-color="#231e25"/>
      <stop offset="1" stop-color="#2d2c2e"/>
    </linearGradient>
    <linearGradient id="linear-gradient-52" x1="0.337" y1="0.307" x2="0.935" y2="0.878" xlink:href="#linear-gradient-5"/>
    <linearGradient id="linear-gradient-53" x1="0.914" y1="-0.142" x2="0.385" y2="0.614" xlink:href="#linear-gradient-5"/>
    <linearGradient id="linear-gradient-54" x1="0.263" y1="0.827" x2="0.837" y2="-0.027" xlink:href="#linear-gradient-7"/>
    <linearGradient id="linear-gradient-55" x1="0.711" y1="0.088" x2="0.207" y2="1.523" gradientUnits="objectBoundingBox">
      <stop offset="0.041" stop-color="#eb006d"/>
      <stop offset="1" stop-color="#ff68ab"/>
    </linearGradient>
    <linearGradient id="linear-gradient-56" y1="0.5" x2="1" y2="0.5" gradientUnits="objectBoundingBox">
      <stop offset="0.041" stop-color="#120038"/>
      <stop offset="1" stop-color="#5d30b5"/>
    </linearGradient>
    <linearGradient id="linear-gradient-57" x1="0.355" y1="-0.179" x2="0.568" y2="0.658" xlink:href="#linear-gradient-55"/>
    <linearGradient id="linear-gradient-58" x1="0.5" y1="1.274" x2="0.5" y2="0.014" xlink:href="#linear-gradient-7"/>
    <linearGradient id="linear-gradient-59" x1="0.461" y1="1.093" x2="0.535" y2="-0.108" xlink:href="#linear-gradient-7"/>
    <linearGradient id="linear-gradient-60" x1="0.476" y1="2.358" x2="0.533" y2="-2.002" xlink:href="#linear-gradient-14"/>
    <linearGradient id="linear-gradient-61" x1="0.345" y1="1.408" x2="0.541" y2="-0.102" xlink:href="#linear-gradient-14"/>
    <linearGradient id="linear-gradient-62" x1="0.311" y1="1.036" x2="0.756" y2="-0.529" xlink:href="#linear-gradient-14"/>
    <linearGradient id="linear-gradient-63" x1="0.25" y1="1.09" x2="0.838" y2="-0.102" xlink:href="#linear-gradient-7"/>
    <linearGradient id="linear-gradient-64" x1="0.076" y1="0.071" x2="0.793" y2="1.224" xlink:href="#linear-gradient-55"/>
    <linearGradient id="linear-gradient-65" x1="-0.218" y1="-0.056" x2="1.121" y2="0.981" xlink:href="#linear-gradient-2"/>
  </defs>
  <g id="login-2" transform="translate(0 0.054)">
    <g id="Group_692" data-name="Group 692">
      <path id="Path_2743" data-name="Path 2743" d="M1270.388,368.661c-30.45,1.847-60.993,2.14-91.508,2.192-61.332.1-122.591-1.45-183.861-3.681-62.244-2.266-124.377-5.469-186.689-6.254-62.109-.784-124.237-.075-186.312,1.775-124.68,3.716-248.939,13.148-373.459,19.266-31.027,1.525-62.053,3.069-93.054,4.934q-23.2,1.395-46.375,3.065c-6.281.458-15.482,2.682-21.856,1.877-1.6.232-3.2.466-4.8.722C55.241,396.933,27.691,403.238,0,406.778V767.054H1366V358.063C1334.068,361.251,1302.567,366.709,1270.388,368.661Z" fill="url(#linear-gradient)"/>
      <g id="Group_632" data-name="Group 632">
        <path id="Path_2744" data-name="Path 2744" d="M1237.348,377.469h-25.042c-8.226,0-20.5,2.125-17.411,2.742s-2.742.685-10.831,1.234-14.944.548-14.944,2.467,21.34,2.468,34.114,3.565,34.161,4.25,48.557,4.25,37.158-.151,41-1.248-1.649-1.494,8.5-2.179c5.745-.389,15.538-2.057,14.441-3.154s5.3-1.645.823-2.742-25.775-2.925-32.538-2.925-7.312-.731-16.087-1.279S1242.51,377.469,1237.348,377.469Z" fill="#cdcfd1" opacity="0.4" style="mix-blend-mode: multiply;isolation: isolate"/>
        <path id="Path_2745" data-name="Path 2745" d="M1246.166,245.675c-11.125-6.123-49.7-7-63.265,8.746-11.583,13.446-8.37,33.964-12.1,51.374-.354,1.653-3.06-.432-6.85,7.227-8.514,17.2,1.5,32.5,18.471,33.424,20.646,1.122,43.855-4.478,65.252-.786,20.983,3.62,51.162,16.132,69.949-1.553,6.251-5.884,7.64-16.262,7.79-25.289.095-5.668-1.372-21.169-12.476-17.685,5.15-12.815-15.994-28.136-25-31.96-10.329-4.386-11.686-4.436-25.909-3.909S1257.292,251.8,1246.166,245.675Z" fill="#1e904c"/>
        <path id="Path_2746" data-name="Path 2746" d="M1246.5,348.634a22.441,22.441,0,0,1,.752-4.652,1.7,1.7,0,0,0-.96-2.027,9.9,9.9,0,0,0-6.515-.47,2.271,2.271,0,0,0-1.417,2.776l.072.26a31.57,31.57,0,0,1,.989,8.408c-.236,5.312-1.264,30.258-1.169,30.341,1.087,1.636,7.982,1.811,9.55.243C1247.893,383.424,1246.064,356.015,1246.5,348.634Z" fill="#683d1b"/>
        <path id="Path_2747" data-name="Path 2747" d="M1246.166,245.675c-11.125-6.123-49.7-7-63.265,8.746-11.583,13.446-8.37,33.964-12.1,51.374-.354,1.653-3.06-.432-6.85,7.227-8.514,17.2,1.5,32.5,18.471,33.424,20.646,1.122,43.855-4.478,65.252-.786,20.983,3.62,51.162,16.132,69.949-1.553,6.251-5.884,7.64-16.262,7.79-25.289.095-5.668-1.372-21.169-12.476-17.685,5.15-12.815-15.994-28.136-25-31.96-10.329-4.386-11.686-4.436-25.909-3.909S1257.292,251.8,1246.166,245.675Z" fill="url(#linear-gradient-2)"/>
      </g>
      <g id="Group_633" data-name="Group 633">
        <path id="Path_2748" data-name="Path 2748" d="M523.706,389.089h-27.5c-9.033,0-22.132,3.764-31.014,4.366s-16.411.6-16.411,2.71,23.435,2.71,37.462,3.914,37.514,4.668,53.322,4.668,35.438-.167,39.654-1.371,3.555-1.64,14.7-2.393c6.309-.426,17.063-2.258,15.858-3.463s5.822-1.807.9-3.011-28.3-3.212-35.732-3.212-8.029-.8-17.665-1.4S529.375,389.089,523.706,389.089Z" fill="#cdcfd1" opacity="0.4" style="mix-blend-mode: multiply;isolation: isolate"/>
        <path id="Path_2749" data-name="Path 2749" d="M533.758,357.424c.113-1.906.291-12.009.7-13.48a1.871,1.871,0,0,0-1.054-2.226,10.877,10.877,0,0,0-7.155-.517,2.5,2.5,0,0,0-1.556,3.049c.027.1,1.438,14.6,1.292,17.891-.261,5.833-1.39,33.227-1.285,33.318,1.194,1.8,8.765,1.989,10.487.267C535.286,395.628,533.278,365.53,533.758,357.424Z" fill="#683d1b"/>
        <path id="Path_2750" data-name="Path 2750" d="M487.272,268.743c-11.531.589-21.771.046-32.656,14.044s-8.741,30.27-5.382,32.938c-13.068.991-21.579,40.691,11.814,39.834,22.7-.583,50.5-5.455,74-1.4,23.042,3.976,56.183,17.716,76.814-1.7,6.864-6.461,8.394-15.579,8.559-25.492.1-6.224-1.512-25.525-13.705-21.7,5.655-14.072-9.228-33.885-18.616-39.1-15.785-8.776-21.872-2.426-31.991-7.389C531.205,246.555,487.468,249.647,487.272,268.743Z" fill="url(#linear-gradient-3)"/>
      </g>
      <g id="Group_654" data-name="Group 654">
        <g id="Group_637" data-name="Group 637">
          <g id="Group_636" data-name="Group 636">
            <g id="Group_634" data-name="Group 634">
              <path id="Path_2751" data-name="Path 2751" d="M636.394,579.809c-3.012-3.158,18.163-16.884,19.8-16.884l11.693.73c1.3.768,2.1,5.564,1.706,11.5C669.021,579.12,641.675,585.343,636.394,579.809Z" fill="#242025"/>
            </g>
            <g id="Group_635" data-name="Group 635">
              <path id="Path_2752" data-name="Path 2752" d="M709.62,579.809c3.013-3.158-18.162-16.884-19.8-16.884l-11.693.73c-1.3.768-2.1,5.564-1.706,11.5C676.994,579.12,704.339,585.343,709.62,579.809Z" fill="#242025"/>
            </g>
          </g>
          <path id="Path_2753" data-name="Path 2753" d="M695.509,411.732H646.585l.019.313c-.94,6.7,1.6,146.284,1.6,146.284s-1.458,7.158,7.057,8.38c12.771,1.832,14.8-2.63,14.8-2.63s-.112-78.5,1.386-111.07c1.5,32.568,4.521,111.07,4.521,111.07s2.025,4.462,14.8,2.63c8.514-1.222,7.057-8.38,7.057-8.38S696.564,419.659,695.509,411.732Z" fill="url(#linear-gradient-4)"/>
        </g>
        <g id="Group_653" data-name="Group 653">
          <path id="Path_2754" data-name="Path 2754" d="M700.354,342.514c-3.663-4.131-14.288-9.962-30.134-8.936-7.148.463-19.915,2.881-23.813,6.593-12.556,11.957-19.05,45.519-19.482,57.5-.44,12.419,3.634,15.1,9.194,15.722,2.782.309,3.535-7.613,4.626-12.285l6.077-19.625s-1.6,37.6-1.477,40.915c.061,1.675,12.85,3.99,25.817,3.873,12.707-.115,25.6-2.63,25.517-4.219-.169-3.212-1.454-30.49-1.314-39.78,3.529,8.558,5.52,30.873,9.124,31.2,2.762.251,10.677-2.367,10.293-14.533C714.477,389.283,707.4,350.454,700.354,342.514Z" fill="url(#linear-gradient-5)"/>
          <g id="Group_639" data-name="Group 639">
            <g id="Group_638" data-name="Group 638">
              <path id="Path_2755" data-name="Path 2755" d="M682.726,316.65h-.48v-6.1A1.252,1.252,0,0,1,683.5,309.3h0a1.252,1.252,0,0,1,1.252,1.251v4.074A2.024,2.024,0,0,1,682.726,316.65Z" fill="url(#linear-gradient-6)"/>
              <path id="Path_2756" data-name="Path 2756" d="M678.74,322.617H661.7v12.631c0,1.086,4.1,5.275,8.52,5.232,4.086-.04,8.52-4.229,8.52-5.232Z" fill="url(#linear-gradient-7)"/>
              <path id="Path_2757" data-name="Path 2757" d="M657.513,316.65h.479v-6.1a1.251,1.251,0,0,0-1.251-1.251h0a1.251,1.251,0,0,0-1.252,1.251v4.074A2.024,2.024,0,0,0,657.513,316.65Z" fill="url(#linear-gradient-8)"/>
              <path id="Path_2758" data-name="Path 2758" d="M671.505,296.412h-8.169a5.52,5.52,0,0,0-5.521,5.52v13.093a21,21,0,0,0,3.352,11.382l1.915,2.97a6.929,6.929,0,0,0,5.825,3.175h2.626a6.929,6.929,0,0,0,5.825-3.175l1.915-2.97a21,21,0,0,0,3.352-11.382V302.542a6.13,6.13,0,0,0-6.13-6.13Z" fill="url(#linear-gradient-9)"/>
              <path id="Path_2759" data-name="Path 2759" d="M657.642,297.065c-1.178,4.589.173,13.232.173,13.232s.663-4.057,2.811-5.512a4.82,4.82,0,0,0,1.922-2.556,2.7,2.7,0,0,1,3.619-1.748,17.167,17.167,0,0,0,8.539.98c7.368-.742,7.919,8.836,7.919,8.836s2.576-15.943-3.636-16.768c-4.722-.628-6.564-1.958-10.151-2.635C663.27,289.843,658.749,292.755,657.642,297.065Z" fill="url(#linear-gradient-10)"/>
            </g>
          </g>
          <g id="Group_651" data-name="Group 651">
            <g id="Group_648" data-name="Group 648">
              <g id="Group_641" data-name="Group 641">
                <path id="Path_2760" data-name="Path 2760" d="M706.407,379.213a.76.76,0,0,0,.012-.874l.01.007c.565.218,1.049-.791,1.364-1.278a.759.759,0,0,0,.012-.874s.414.2.76-.369a5.4,5.4,0,0,0,1.125-3.241,38.2,38.2,0,0,0-.425-5.417,1.139,1.139,0,0,1,.153-.573l.952-1.473-4.993-3.226-.925,1.432a.888.888,0,0,1-.488.4,37.022,37.022,0,0,0-5.131,1.838,5.4,5.4,0,0,0-2.493,2.356c-.377.55-.024.844-.024.844a.759.759,0,0,0-.791.37c-.315.488-1.036,1.344-.606,1.77l.011.006a.761.761,0,0,0-.792.37c-.315.487-1.036,1.344-.6,1.769l.01.007a.761.761,0,0,0-.792.37c-.314.487-1.035,1.344-.6,1.769l.01.007a.757.757,0,0,0-.791.37c-.315.487-1.036,1.344-.6,1.769l.01.006a.761.761,0,0,0-.792.37c-.315.488-1.036,1.344-.605,1.769l.01.007a.759.759,0,0,0-.791.37c-.315.487-1.036,1.344-.606,1.769l.011.007a.761.761,0,0,0-.792.37c-.315.487-1.036,1.344-.605,1.769l.01.006a.76.76,0,0,0-.792.371c-.314.487-1.035,1.343-.6,1.769l.011.006a.761.761,0,0,0-.792.37c-.315.487-1.036,1.344-.6,1.769l.01.007a.761.761,0,0,0-.792.37,16.112,16.112,0,0,0-1.08,1.8,4.775,4.775,0,0,0-.269,2.787,2.323,2.323,0,0,0,1.022,1.543l7.142,4.615a2.323,2.323,0,0,0,1.827.3,4.776,4.776,0,0,0,2.43-1.39,16.194,16.194,0,0,0,1.2-1.725.76.76,0,0,0,.012-.874l.01.007c.565.218,1.05-.791,1.365-1.279a.76.76,0,0,0,.012-.873l.01.006c.564.218,1.049-.791,1.364-1.278a.76.76,0,0,0,.012-.874l.011.007c.564.217,1.049-.792,1.364-1.279a.76.76,0,0,0,.012-.874l.01.007c.565.218,1.05-.792,1.364-1.279a.76.76,0,0,0,.012-.874l.011.007c.564.218,1.049-.791,1.364-1.279a.758.758,0,0,0,.012-.873l.01.006c.565.218,1.05-.791,1.364-1.278a.761.761,0,0,0,.013-.874l.01.007c.564.218,1.049-.792,1.364-1.279a.76.76,0,0,0,.012-.874l.011.007C705.607,380.71,706.092,379.7,706.407,379.213Z" opacity="0.45" fill="url(#linear-gradient-11)"/>
                <g id="Group_640" data-name="Group 640">
                  <path id="Path_2761" data-name="Path 2761" d="M710.549,366.035c.276-.38.852-1.272,1.327-2.052s-2.442-2.68-2.442-2.68l-.211-.136s-2.93-1.879-3.446-1.126-1.093,1.646-1.326,2.053c-.1.177,1.434,1.345,2.909,2.3C708.773,365.312,710.391,366.253,710.549,366.035Z" fill="url(#linear-gradient-12)"/>
                </g>
              </g>
              <g id="Group_643" data-name="Group 643">
                <path id="Path_2762" data-name="Path 2762" d="M655.875,369.593a.953.953,0,0,0-.969-.51l.013-.008c.564-.506-.288-1.621-.654-2.249a.953.953,0,0,0-.969-.51s.46-.348.02-1.058a6.766,6.766,0,0,0-2.982-3.1,47.965,47.965,0,0,0-6.291-2.6,1.426,1.426,0,0,1-.554-.5l-1.105-1.9-6.437,3.745,1.074,1.847a1.115,1.115,0,0,1,.174.774,46.524,46.524,0,0,0-.861,6.774,6.764,6.764,0,0,0,1.217,4.123c.4.733.93.506.93.506a.952.952,0,0,0-.037,1.094c.366.628.914,1.92,1.633,1.68l.013-.007a.952.952,0,0,0-.036,1.094c.366.628.913,1.92,1.632,1.68l.014-.007a.95.95,0,0,0-.036,1.094c.365.628.913,1.92,1.632,1.68l.013-.007a.952.952,0,0,0-.036,1.094c.366.628.913,1.92,1.633,1.68l.013-.007a.951.951,0,0,0-.036,1.094c.365.628.913,1.92,1.632,1.68l.014-.007a.952.952,0,0,0-.037,1.094c.366.628.913,1.92,1.633,1.68l.013-.008a.954.954,0,0,0-.036,1.1c.366.628.913,1.92,1.632,1.68l.014-.008a.952.952,0,0,0-.036,1.1c.365.628.913,1.92,1.632,1.68l.013-.008a.954.954,0,0,0-.036,1.1c.366.628.913,1.92,1.633,1.68l.013-.008a.952.952,0,0,0-.036,1.1,20.2,20.2,0,0,0,1.4,2.229,5.986,5.986,0,0,0,2.96,1.882,2.908,2.908,0,0,0,2.3-.265l9.21-5.358a2.911,2.911,0,0,0,1.37-1.871,5.984,5.984,0,0,0-.173-3.5,20.422,20.422,0,0,0-1.247-2.316.953.953,0,0,0-.97-.51l.014-.008c.564-.507-.288-1.621-.654-2.249a.951.951,0,0,0-.969-.51l.013-.008c.564-.507-.288-1.621-.653-2.249a.953.953,0,0,0-.97-.51l.014-.008c.563-.507-.289-1.621-.654-2.249a.951.951,0,0,0-.969-.51l.013-.008c.564-.507-.288-1.621-.654-2.249a.951.951,0,0,0-.969-.51l.013-.008c.564-.507-.288-1.621-.653-2.249a.952.952,0,0,0-.97-.51l.014-.008c.564-.506-.288-1.621-.654-2.249a.951.951,0,0,0-.969-.51l.013-.008c.564-.506-.288-1.621-.653-2.249a.952.952,0,0,0-.97-.51l.014-.008C657.093,371.336,656.24,370.221,655.875,369.593Z" opacity="0.45" fill="url(#linear-gradient-13)"/>
                <g id="Group_642" data-name="Group 642">
                  <path id="Path_2763" data-name="Path 2763" d="M643.507,357.484c-.269-.524-.938-1.673-1.54-2.647s-4.379,1.207-4.379,1.207l-.272.158s-3.762,2.206-3.213,3.21,1.217,2.155,1.539,2.647c.14.214,2.316-.839,4.223-1.943C641.69,359.058,643.661,357.785,643.507,357.484Z" fill="url(#linear-gradient-14)"/>
                </g>
              </g>
              <g id="Group_645" data-name="Group 645">
                <path id="Path_2764" data-name="Path 2764" d="M678.252,395.164a.953.953,0,0,0,1.094-.063l-.008.014c-.222.725,1.082,1.242,1.719,1.592a.952.952,0,0,0,1.093-.062s-.215.535.528.917a6.762,6.762,0,0,0,4.15,1.119,47.78,47.78,0,0,0,6.733-1.01,1.435,1.435,0,0,1,.73.141l1.925,1.059,3.59-6.525-1.871-1.03a1.117,1.117,0,0,1-.548-.574,46.582,46.582,0,0,0-2.75-6.251,6.761,6.761,0,0,0-3.166-2.907c-.72-.423-1.057.045-1.057.045a.952.952,0,0,0-.533-.957c-.637-.351-1.771-1.176-2.264-.6l-.008.013a.953.953,0,0,0-.532-.957c-.637-.35-1.771-1.175-2.265-.6l-.007.014a.952.952,0,0,0-.533-.957c-.636-.35-1.771-1.176-2.264-.6L682,377a.951.951,0,0,0-.532-.957c-.637-.351-1.771-1.176-2.265-.6l-.007.013a.953.953,0,0,0-.533-.957c-.636-.35-1.771-1.175-2.264-.6l-.008.014a.951.951,0,0,0-.532-.957c-.637-.35-1.771-1.176-2.265-.6l-.007.014a.952.952,0,0,0-.533-.957c-.636-.351-1.771-1.176-2.264-.6l-.008.013a.951.951,0,0,0-.532-.957c-.637-.35-1.771-1.175-2.264-.6l-.008.014a.953.953,0,0,0-.532-.957c-.637-.35-1.772-1.176-2.265-.6l-.007.014a.952.952,0,0,0-.533-.957,20.08,20.08,0,0,0-2.345-1.192,5.991,5.991,0,0,0-3.507-.09,2.908,2.908,0,0,0-1.838,1.414l-5.138,9.335a2.91,2.91,0,0,0-.21,2.31,5.98,5.98,0,0,0,1.952,2.914,20.193,20.193,0,0,0,2.262,1.344.952.952,0,0,0,1.093-.062l-.007.013c-.223.725,1.081,1.242,1.718,1.592a.95.95,0,0,0,1.093-.062l-.007.013c-.222.725,1.082,1.242,1.718,1.592a.952.952,0,0,0,1.094-.062l-.007.014c-.223.725,1.081,1.242,1.718,1.592a.952.952,0,0,0,1.093-.062l-.007.013c-.223.725,1.082,1.242,1.718,1.592a.952.952,0,0,0,1.094-.062l-.008.013c-.222.725,1.082,1.242,1.719,1.593a.952.952,0,0,0,1.093-.063l-.007.014c-.223.725,1.082,1.242,1.718,1.592a.954.954,0,0,0,1.094-.062l-.008.013c-.222.725,1.082,1.242,1.719,1.592a.95.95,0,0,0,1.093-.062l-.007.014C676.311,394.3,677.616,394.813,678.252,395.164Z" opacity="0.45" fill="url(#linear-gradient-15)"/>
                <g id="Group_644" data-name="Group 644">
                  <path id="Path_2765" data-name="Path 2765" d="M695.09,399.176c.5.311,1.665.952,2.682,1.477s3.133-3.289,3.133-3.289l.152-.276s2.089-3.828,1.1-4.407-2.153-1.219-2.683-1.476c-.23-.111-1.553,1.911-2.62,3.84C695.836,396.892,694.8,399,695.09,399.176Z" fill="#d90575"/>
                </g>
              </g>
              <g id="Group_647" data-name="Group 647">
                <path id="Path_2766" data-name="Path 2766" d="M693.071,371.65a.865.865,0,0,0-.306-.946l.014,0c.687.029.842-1.234,1-1.874a.865.865,0,0,0-.3-.946s.519.066.684-.674a6.134,6.134,0,0,0,.03-3.9,43.314,43.314,0,0,0-2.431-5.68,1.3,1.3,0,0,1-.045-.673l.489-1.933-6.553-1.656-.475,1.88a1.015,1.015,0,0,1-.378.613,42.049,42.049,0,0,0-4.858,3.849,6.135,6.135,0,0,0-1.826,3.446c-.206.73.282.918.282.918a.865.865,0,0,0-.718.688c-.161.639-.626,1.825-.007,2.125l.014,0a.864.864,0,0,0-.718.687c-.162.64-.626,1.825-.008,2.126l.014,0a.865.865,0,0,0-.718.688c-.161.639-.626,1.825-.007,2.125l.014,0a.864.864,0,0,0-.718.687c-.162.64-.626,1.825-.008,2.126l.014,0a.865.865,0,0,0-.718.688c-.162.639-.626,1.824-.007,2.126l.013,0a.863.863,0,0,0-.718.687c-.161.64-.625,1.825-.007,2.126l.014,0a.864.864,0,0,0-.718.688c-.162.639-.626,1.825-.007,2.126l.013,0a.865.865,0,0,0-.718.687c-.161.64-.625,1.825-.007,2.126l.014,0a.862.862,0,0,0-.718.687c-.162.639-.626,1.825-.007,2.125l.013,0a.865.865,0,0,0-.718.687,18.378,18.378,0,0,0-.508,2.332,5.441,5.441,0,0,0,.726,3.1,2.638,2.638,0,0,0,1.663,1.29l9.375,2.368a2.641,2.641,0,0,0,2.077-.344,5.44,5.44,0,0,0,2.111-2.384,18.4,18.4,0,0,0,.66-2.293.864.864,0,0,0-.3-.946l.014,0c.687.029.841-1.235,1-1.874a.866.866,0,0,0-.306-.946l.014,0c.687.029.842-1.235,1-1.874a.864.864,0,0,0-.305-.946l.014,0c.687.029.841-1.234,1-1.874a.864.864,0,0,0-.306-.946l.014,0c.688.029.842-1.235,1-1.874a.865.865,0,0,0-.306-.946l.014,0c.687.029.841-1.234,1-1.874a.863.863,0,0,0-.3-.946l.013,0c.688.029.842-1.235,1-1.875a.864.864,0,0,0-.306-.945l.014,0c.687.029.842-1.235,1-1.874a.864.864,0,0,0-.3-.946l.013,0C692.755,373.553,692.909,372.289,693.071,371.65Z" opacity="0.45" fill="url(#linear-gradient-16)"/>
                <g id="Group_646" data-name="Group 646">
                  <path id="Path_2767" data-name="Path 2767" d="M692.73,355.945c.158-.51.454-1.68.681-2.694s-3.607-2-3.607-2l-.277-.07s-3.84-.956-4.121.044-.578,2.17-.681,2.694c-.045.227,2.035.926,3.973,1.419C690.553,355.814,692.64,356.238,692.73,355.945Z" fill="#363538"/>
                </g>
              </g>
            </g>
            <g id="Group_650" data-name="Group 650">
              <g id="Group_649" data-name="Group 649">
                <path id="Path_2768" data-name="Path 2768" d="M696.056,434.259H645.3a4.234,4.234,0,0,1-4.224-3.94L638.2,388.98h64.956l-2.875,41.339A4.233,4.233,0,0,1,696.056,434.259Z" fill="url(#linear-gradient-17)"/>
                <path id="Rectangle_122" data-name="Rectangle 122" d="M0,0H72.887a0,0,0,0,1,0,0V5a2.978,2.978,0,0,1-2.978,2.978H2.978A2.978,2.978,0,0,1,0,5V0A0,0,0,0,1,0,0Z" transform="translate(634.232 381.006)" fill="url(#linear-gradient-18)"/>
              </g>
              <path id="Path_2769" data-name="Path 2769" d="M670.676,395.951a13.395,13.395,0,1,0,13.394,13.4A13.395,13.395,0,0,0,670.676,395.951Zm-10.224,15.764,1.7-3.342-.716-.4,3.578-.445,1.39,3.231-.829-.465-1.708,3.382h-1.871a1.616,1.616,0,0,1-1.633-1.346A.972.972,0,0,1,660.452,411.715Zm9.73,6.4H664.76c-1.548.02-2.107-.921-3.229-2.821-.223-.379-.468-.793-.745-1.24a4.156,4.156,0,0,1-.335-.675,2.079,2.079,0,0,0,1.543.68h8.188Zm.344-16.013-.219.377-3.061,5.25-3.5-2.042,2.73-4.685c.762-1.347,1.857-1.356,4.064-1.368.44,0,.92-.005,1.446-.019a4.073,4.073,0,0,1,.752.049,2.078,2.078,0,0,0-1.365.991Zm1.18-1.251a1.617,1.617,0,0,1,1.986-.733.978.978,0,0,1,.484.388l2.032,3.15.708-.416-1.418,3.314-3.492-.426.819-.482-2.061-3.178Zm5.829,17.188a.971.971,0,0,1-.588.2l-3.749.011-.031.82-2.025-2.983,2.243-2.709-.036.95,3.788-.02.852,1.666A1.615,1.615,0,0,1,677.535,418.044Zm2.111-2.4c-.236.372-.493.778-.765,1.228a4.17,4.17,0,0,1-.448.607,2.083,2.083,0,0,0-.1-1.685l-.763-1.491-.2-.388-2.767-5.41,3.61-1.847,2.47,4.827C681.41,412.859,680.826,413.785,679.646,415.649Z" fill="#fff"/>
            </g>
          </g>
          <g id="Group_652" data-name="Group 652">
            <path id="Path_2770" data-name="Path 2770" d="M639.433,412.089l.027-.039a4.194,4.194,0,0,1,3.4-1.82l5.415-.071a2.577,2.577,0,0,0,1.817-.733,1.29,1.29,0,0,0-.738-2.329l-8.464.112.007-.11a1.114,1.114,0,0,1,1.1-1.039l8.255-.11a2.572,2.572,0,0,0,1.819-.732,1.29,1.29,0,0,0-.739-2.328l-9.736.128.035-.518a1.114,1.114,0,0,1,1.1-1.041l8.121-.107a2.565,2.565,0,0,0,1.818-.733,1.29,1.29,0,0,0-.738-2.328l-9.342.124a1.114,1.114,0,0,1,1.1-1.04l5.678-.075a2.575,2.575,0,0,0,1.818-.733,1.29,1.29,0,0,0-.738-2.329l-6.992.093a3.651,3.651,0,0,0-2.776,1.337l-5.451,6.654a6.864,6.864,0,0,0-1.553,4.439l.056,3.689a3.075,3.075,0,0,0,3.114,3.026h0A3.2,3.2,0,0,0,639.433,412.089Z" fill="url(#linear-gradient-19)"/>
            <path id="Path_2771" data-name="Path 2771" d="M701.9,412.089l-.027-.039a4.194,4.194,0,0,0-3.4-1.82l-5.415-.071a2.577,2.577,0,0,1-1.817-.733,1.29,1.29,0,0,1,.738-2.329l8.464.112-.007-.11a1.113,1.113,0,0,0-1.1-1.039l-8.254-.11a2.569,2.569,0,0,1-1.819-.732A1.289,1.289,0,0,1,690,402.89l9.736.128-.034-.518a1.116,1.116,0,0,0-1.1-1.041l-8.121-.107a2.567,2.567,0,0,1-1.818-.733,1.29,1.29,0,0,1,.738-2.328l9.342.124a1.114,1.114,0,0,0-1.1-1.04l-5.677-.075a2.576,2.576,0,0,1-1.819-.733,1.29,1.29,0,0,1,.739-2.329l6.991.093a3.653,3.653,0,0,1,2.777,1.337l5.45,6.654a6.858,6.858,0,0,1,1.553,4.439l-.056,3.689a3.074,3.074,0,0,1-3.114,3.026h0A3.2,3.2,0,0,1,701.9,412.089Z" fill="url(#linear-gradient-20)"/>
          </g>
        </g>
        <path id="Path_2772" data-name="Path 2772" d="M724.689,577.558c0,6.285-25.045,11.381-55.938,11.381s-55.938-5.1-55.938-11.381,25.044-11.382,55.938-11.382S724.689,571.272,724.689,577.558Z" fill="#898b8e" style="mix-blend-mode: multiply;isolation: isolate"/>
      </g>
      <g id="Group_660" data-name="Group 660">
        <path id="Path_2773" data-name="Path 2773" d="M1147.871,558.876c0,4.784-65.642,5.319-146.616,5.319s-146.615-.535-146.615-5.319,65.642-8.662,146.615-8.662S1147.871,554.092,1147.871,558.876Z" fill="#898b8e" style="mix-blend-mode: multiply;isolation: isolate"/>
        <g id="Group_659" data-name="Group 659">
          <g id="Group_657" data-name="Group 657">
            <path id="Path_2774" data-name="Path 2774" d="M881.27,352.11l-8.279,37.737h256.528l-8.279-37.737a7.69,7.69,0,0,0-7.512-6.043H888.783A7.692,7.692,0,0,0,881.27,352.11Z" fill="url(#linear-gradient-21)"/>
            <path id="Path_2775" data-name="Path 2775" d="M885.56,379.737l5.17-23.561h221.052l5.17,23.561Z" fill="url(#linear-gradient-22)"/>
            <path id="Path_2776" data-name="Path 2776" d="M1122.942,547.331l6.577-140.693H872.991l6.578,140.693a9.311,9.311,0,0,0,9.3,8.876h224.771A9.311,9.311,0,0,0,1122.942,547.331Z" fill="url(#linear-gradient-23)"/>
            <g id="Group_655" data-name="Group 655">
              <path id="Path_2777" data-name="Path 2777" d="M874.349,435.686l5.22,111.645a9.311,9.311,0,0,0,9.3,8.876h7.714l-3.34-103.955a17.116,17.116,0,0,0-17.107-16.566Z" fill="url(#linear-gradient-24)"/>
              <path id="Path_2778" data-name="Path 2778" d="M1109.267,452.252l-3.34,103.955h7.714a9.311,9.311,0,0,0,9.3-8.876l5.219-111.645h-1.787A17.116,17.116,0,0,0,1109.267,452.252Z" fill="url(#linear-gradient-24)"/>
            </g>
            <path id="Path_2779" data-name="Path 2779" d="M1069.436,389.847H872.383a7.69,7.69,0,0,0-7.69,7.69v9.1h273.126v-9.1a7.69,7.69,0,0,0-7.69-7.69Z" fill="url(#linear-gradient-26)"/>
            <path id="Path_2780" data-name="Path 2780" d="M1061.412,506.184H941.1a16.6,16.6,0,0,1-16.59-16.2l-2-83.349H1080l-2,83.349A16.6,16.6,0,0,1,1061.412,506.184Z" fill="url(#linear-gradient-27)"/>
            <g id="Group_656" data-name="Group 656">
              <path id="Path_2781" data-name="Path 2781" d="M896.915,429.852H880.56l-2.388-23.214H899.3Z" fill="url(#linear-gradient-28)"/>
              <path id="Path_2782" data-name="Path 2782" d="M1121.95,429.852H1105.6l-2.388-23.214h21.131Z" fill="url(#linear-gradient-28)"/>
            </g>
          </g>
          <g id="Group_658" data-name="Group 658">
            <path id="Path_2783" data-name="Path 2783" d="M1001.255,416.88a36.242,36.242,0,1,0,36.243,36.243A36.242,36.242,0,0,0,1001.255,416.88Zm-27.664,42.654,4.593-9.044-1.936-1.086,9.681-1.2,3.762,8.743-2.244-1.258-4.62,9.15h-5.063a4.373,4.373,0,0,1-4.42-3.643A2.639,2.639,0,0,1,973.591,459.534Zm26.328,17.33H985.247c-4.188.055-5.7-2.492-8.736-7.634-.6-1.025-1.266-2.144-2.016-3.356a11.258,11.258,0,0,1-.909-1.825,5.625,5.625,0,0,0,4.178,1.841h22.155Zm.931-43.328-.594,1.02-8.281,14.2-9.48-5.526,7.388-12.676c2.062-3.646,5.024-3.669,10.995-3.7,1.19-.006,2.49-.013,3.914-.051a11.217,11.217,0,0,1,2.035.134,5.627,5.627,0,0,0-3.7,2.682Zm3.192-3.384a4.375,4.375,0,0,1,5.374-1.985,2.634,2.634,0,0,1,1.309,1.05l5.5,8.523,1.914-1.126-3.837,8.969-9.448-1.153,2.216-1.3-5.577-8.6Zm15.773,46.507a2.638,2.638,0,0,1-1.591.536l-10.143.03-.086,2.218-5.479-8.07,6.07-7.331-.1,2.57,10.25-.054,2.306,4.507A4.372,4.372,0,0,1,1019.815,476.659Zm5.711-6.48c-.637,1.006-1.333,2.1-2.069,3.323a11.2,11.2,0,0,1-1.212,1.641,5.624,5.624,0,0,0-.263-4.558l-2.064-4.034-.538-1.051-7.489-14.638,9.769-5,6.683,13.061C1030.3,462.628,1028.72,465.134,1025.526,470.179Z" fill="#fff"/>
          </g>
        </g>
      </g>
      <g id="Group_672" data-name="Group 672">
        <path id="Path_2784" data-name="Path 2784" d="M907.656,645.7c0,4.209-24.537,7.884-61.019,9.854-18,.971-37.81-4.857-60.119-4.857-19.051,0-38.193,5.979-54.267,5.255-40.885-1.841-69.086-5.74-69.086-10.252,0-4.62,29.564-8.6,72.039-10.38,15.317-.643,31.394,5.5,49.287,5.5,12.944,0,26.337-6.317,38.046-5.97C871.9,636.319,907.656,640.623,907.656,645.7Z" fill="#898b8e" style="mix-blend-mode: multiply;isolation: isolate"/>
        <g id="Group_671" data-name="Group 671">
          <g id="Group_662" data-name="Group 662">
            <path id="Path_2785" data-name="Path 2785" d="M689.224,647.794c-.935,2.3,27.588,2.638,39.248,1.555s-1.307-3.56-12.9-3.808C704.847,645.312,690.177,645.453,689.224,647.794Z" fill="#cdcfd1"/>
            <g id="Group_661" data-name="Group 661">
              <path id="Path_2786" data-name="Path 2786" d="M704.443,603.981a33.428,33.428,0,0,1-5.626,8.68c-4.059,4.737-8.149,9.419-6.951,10.671s18.661,15.119,26.953,17.019-.107-3.891-1.049-5.627-7.257-9.447-5.554-14.434,4.477-8.48,2.98-10.045S706.553,601.969,704.443,603.981Z" fill="url(#linear-gradient-30)"/>
              <path id="Path_2787" data-name="Path 2787" d="M696.988,614.8s-.25,4.611,5.138,5.972c4.57,1.154,10.55-1.205,11.443,2.809.98,4.4,4.424,11.356,9.192,14.511,3.485,2.306,12.569,5.926,11.383,7.886-.854,1.41-12.039,7.013-28.806-1.647-17.634-9.108-20.184-15.9-20-17.492C685.585,624.714,690.344,617.9,696.988,614.8Z" fill="url(#linear-gradient-31)"/>
              <path id="Path_2788" data-name="Path 2788" d="M759.689,470.385s-2.249,39.586-9,55.33-19.78,23.511-30.181,39.79c-9.388,15.013-18.725,41.582-18.725,41.582s6.635,8.8,13.833,8.35c0,0,23.377-40.69,37.772-56.434s36.437-53.531,36.437-53.531S770.935,466.336,759.689,470.385Z" fill="url(#linear-gradient-32)"/>
            </g>
          </g>
          <g id="Group_666" data-name="Group 666">
            <path id="Path_2789" data-name="Path 2789" d="M851.338,439.632a42.139,42.139,0,0,1-4.016-2.4c-3.374.251-6.439,2.655-9.092,6.036,4.43,2.583,7.737,4.341,8.223,4.532,1.674.652,3.4,5.019,4.61,6.177s5.791,4.8,8.18,4.433,8.514-6.608,9.138-7.854-.14-4.2-4.254-6.848S858.183,443.157,851.338,439.632Z" fill="url(#linear-gradient-33)"/>
            <path id="Path_2790" data-name="Path 2790" d="M783.542,380.192c2.206,11.458,9.484,11.851,24.61,34.961a94.282,94.282,0,0,0,36.592,33.2s5.737-5.223,7.6-9.467c0,0-21.769-15.951-29.872-26.789S809.32,391.119,802.4,382.054,781.674,370.489,783.542,380.192Z" fill="url(#linear-gradient-34)"/>
            <g id="Group_664" data-name="Group 664">
              <path id="Path_2791" data-name="Path 2791" d="M871.767,447.49c-.021.126-.044.253-.076.385C871.723,447.743,871.746,447.616,871.767,447.49Z" fill="#d62755"/>
              <path id="Path_2792" data-name="Path 2792" d="M871.677,447.926c-.013.048-.027.1-.044.148C871.65,448.024,871.664,447.974,871.677,447.926Z" fill="#d62755"/>
              <path id="Path_2793" data-name="Path 2793" d="M871.8,447.285l-.012.064Z" fill="#d62755"/>
              <path id="Path_2794" data-name="Path 2794" d="M871.532,448.337c-.031.07-.069.142-.11.216C871.463,448.479,871.5,448.407,871.532,448.337Z" fill="#d62755"/>
              <path id="Path_2795" data-name="Path 2795" d="M862.452,437.275c.056-.007.112-.012.166-.015C862.564,437.263,862.508,437.268,862.452,437.275Z" fill="#d62755"/>
              <path id="Path_2796" data-name="Path 2796" d="M871.615,448.128c-.023.067-.05.136-.082.208C871.565,448.264,871.592,448.2,871.615,448.128Z" fill="#d62755"/>
              <path id="Path_2797" data-name="Path 2797" d="M862.186,437.317c.075-.016.146-.027.216-.037C862.332,437.29,862.261,437.3,862.186,437.317Z" fill="#d62755"/>
              <path id="Path_2798" data-name="Path 2798" d="M861.349,437.644c.1-.054.194-.1.284-.142C861.543,437.541,861.448,437.59,861.349,437.644Z" fill="#d62755"/>
              <path id="Path_2799" data-name="Path 2799" d="M871.384,448.617c-.034.059-.072.119-.114.181C871.312,448.736,871.35,448.676,871.384,448.617Z" fill="#d62755"/>
              <path id="Path_2800" data-name="Path 2800" d="M861.954,437.38c.071-.022.14-.041.206-.056C862.094,437.339,862.025,437.358,861.954,437.38Z" fill="#d62755"/>
              <path id="Path_2801" data-name="Path 2801" d="M861.65,437.495c.085-.037.164-.068.242-.094C861.814,437.427,861.735,437.458,861.65,437.495Z" fill="#d62755"/>
              <path id="Path_2802" data-name="Path 2802" d="M862.66,437.257c.068,0,.134-.007.2-.008C862.794,437.25,862.728,437.253,862.66,437.257Z" fill="#d62755"/>
              <path id="Path_2803" data-name="Path 2803" d="M863.019,437.244l.067,0Z" fill="#d62755"/>
              <path id="Path_2804" data-name="Path 2804" d="M868.718,441.163c-2.19-2.526-4.2-4.52-4.2-4.52a1.869,1.869,0,0,1-1.231.586c-.067.006-.133.009-.2.012l-.067,0-.159.005c-.066,0-.132,0-.2.008l-.042,0c-.054,0-.11.008-.166.015l-.05.005c-.07.01-.141.021-.216.037l-.026.007c-.066.015-.135.034-.206.056l-.062.021c-.078.026-.157.057-.242.094l-.017.007c-.09.039-.185.088-.284.142l-.03.015h0a8.036,8.036,0,0,0-1.331.97c-1.842,1.6-16.191,14-16.191,14s-.758.5-.088,1.822a39.639,39.639,0,0,0,8.311,9.584c1.214.852,1.815.172,1.815.172s14.31-12.447,16.152-14.044a7.372,7.372,0,0,0,1.253-1.323v0c.011-.015.018-.029.028-.044.041-.062.08-.122.114-.181l.038-.064c.041-.074.079-.146.11-.216h0c.032-.072.059-.141.082-.208.007-.018.012-.036.018-.054.016-.05.031-.1.044-.148l.014-.051c.032-.132.055-.259.076-.385.009-.047.017-.094.025-.141l.012-.064c.012-.061.024-.123.039-.185a2.009,2.009,0,0,1,.323-.711,1.623,1.623,0,0,1,.431-.425S870.908,443.689,868.718,441.163Z" fill="url(#linear-gradient-35)"/>
              <g id="Group_663" data-name="Group 663">
                <path id="Path_2805" data-name="Path 2805" d="M851.319,464.009c.2-.189.7.026.7.026a39.639,39.639,0,0,1-8.311-9.584s.142.529-.073.7A39.253,39.253,0,0,0,851.319,464.009Z" fill="#b1b1b1"/>
                <path id="Path_2806" data-name="Path 2806" d="M843.436,455.191c-.13.1-.025.379.035.516.3.69,3.127,4.413,3.127,4.413l.22.253s3.285,3.329,3.925,3.721c.128.079.38.226.5.112s.073-.2.073-.2a39.278,39.278,0,0,1-7.68-8.862S843.566,455.087,843.436,455.191Z" fill="#b1b1b1"/>
              </g>
              <path id="Path_2807" data-name="Path 2807" d="M872.6,445.964a1.241,1.241,0,0,0,.167.139,3.3,3.3,0,0,0,.294-.255c.222-.192-3.793-5.122-3.793-5.122l-.036-.042s-4.312-4.673-4.534-4.481a3.015,3.015,0,0,0-.28.243,1.332,1.332,0,0,0,.107.191s2.01,2,4.2,4.523S872.6,445.964,872.6,445.964Z" fill="#e3e3e2"/>
            </g>
            <g id="Group_665" data-name="Group 665">
              <path id="Path_2808" data-name="Path 2808" d="M865.317,447.385h0a1.715,1.715,0,0,1,2.378.479l2.017,3.035a1.715,1.715,0,0,1-.479,2.377h0a1.716,1.716,0,0,1-2.378-.479l-2.017-3.034A1.716,1.716,0,0,1,865.317,447.385Z" fill="url(#linear-gradient-36)"/>
              <path id="Path_2809" data-name="Path 2809" d="M856.49,453.044h0a1.714,1.714,0,0,1,2.4.355l2.459,3.314a1.715,1.715,0,0,1-.356,2.4h0a1.716,1.716,0,0,1-2.4-.355l-2.459-3.314A1.715,1.715,0,0,1,856.49,453.044Z" fill="url(#linear-gradient-37)"/>
              <path id="Path_2810" data-name="Path 2810" d="M861.838,448.346h0a1.716,1.716,0,0,1,2.378.479l3.262,4.909a1.715,1.715,0,0,1-.479,2.378h0a1.715,1.715,0,0,1-2.377-.479l-3.263-4.91A1.715,1.715,0,0,1,861.838,448.346Z" fill="url(#linear-gradient-38)"/>
              <path id="Path_2811" data-name="Path 2811" d="M858.982,450.245h0a1.714,1.714,0,0,1,2.377.478l3.263,4.91a1.715,1.715,0,0,1-.479,2.377h0a1.714,1.714,0,0,1-2.377-.479l-3.263-4.909A1.714,1.714,0,0,1,858.982,450.245Z" fill="url(#linear-gradient-39)"/>
            </g>
          </g>
          <g id="Group_668" data-name="Group 668">
            <path id="Path_2812" data-name="Path 2812" d="M827.537,645.469c1.007,2.818,39.054,2.922,49.723,1.562s-2.221-3.439-12.828-3.848C845.625,642.459,826.531,642.651,827.537,645.469Z" fill="#cdcfd1"/>
            <g id="Group_667" data-name="Group 667">
              <path id="Path_2813" data-name="Path 2813" d="M831.564,622.319s-.2,11.273.8,14.091,24.358,2.416,29.592-2.013-12.481-5.448-15.9-8.87c-1.54-1.54-3.254-5.825-3.254-5.825Z" fill="url(#linear-gradient-30)"/>
              <path id="Path_2814" data-name="Path 2814" d="M831.628,629.643s1.546,6.767,8.256,5.023,4.028-6.07,6.287-7.8c1.415-1.085,4.763-.412,12.116,1.229,9.351,2.085,24.3,3.054,24.314,8.33.005,2.568-11.406,8.712-25.048,10.188s-26.929-1.342-28.4-2.147S828.795,633.878,831.628,629.643Z" fill="url(#linear-gradient-31)"/>
              <path id="Path_2815" data-name="Path 2815" d="M783.08,436.2s-22.492,13.046-23.391,34.188,40.035,63.427,42.285,75.573,4.5,31.488,10.346,44.084,17.993,35.087,17.993,35.087,11.7-.449,14.4-4.5c0,0-21.142-68.825-25.641-85.919s-14.409-52.181-15.976-63.427,3.831-21.593,3.831-21.593Z" fill="url(#linear-gradient-42)"/>
            </g>
          </g>
          <path id="Path_2816" data-name="Path 2816" d="M775.959,439.18s7.1-9.6,3.085-25.667c-2.982-11.951-13.985-17.176-11-30.99,4.1-19,25.5-14.958,30.325-8.869,9,11.359,16.157,14.539,18.809,18.782,2.952,4.723-.8,13.079-3.289,18.218-7.76,16.026-.521,43.768-.521,43.768S788.78,459.76,775.959,439.18Z" fill="url(#linear-gradient-43)"/>
          <g id="Group_669" data-name="Group 669">
            <path id="Path_2817" data-name="Path 2817" d="M745.161,465.524a44.3,44.3,0,0,1-2.361,6.254c-.9,1.462-2.924,3.036-3.487,5.51s.113,8.323.9,9.784,6.635,4.836,8.322,5.174,3.936-1.35,4.161-1.912a6.542,6.542,0,0,0,2.137,1.237c.787.112,1.326-5.675.764-9.611s-3.688-5.652-4.251-8.2,1.687-10.418,1.687-10.418Z" fill="url(#linear-gradient-44)"/>
            <path id="Path_2818" data-name="Path 2818" d="M771.568,376.369c-7.7,8.765-4.746,24.961-12.636,45.211-9.525,24.446-14.333,35.691-16.132,45.137,0,0,6.747,4.5,11.245,3.374,0,0,11.687-24.65,15.285-37.7s9.38-25.384,12.351-36.392C785.533,381.729,778.091,368.947,771.568,376.369Z" fill="url(#linear-gradient-45)"/>
          </g>
          <g id="Group_670" data-name="Group 670">
            <path id="Path_2819" data-name="Path 2819" d="M779.181,369.7c1.461,4.877,10.02,10.432,16.151,10.508,3.823.047-.169-4.977-.014-15.021.065-4.22.907-15.013.907-15.013l-14.9-1.35S778.384,367.038,779.181,369.7Z" fill="url(#linear-gradient-46)"/>
            <path id="Path_2820" data-name="Path 2820" d="M780.529,325.431s-1.687,16.756,1.462,22.379,11.921,12.944,18.556,12.607,7.872-18.567,8.659-25.54-1.686-15.744-6.747-17.206S782.1,313.173,780.529,325.431Z" fill="url(#linear-gradient-47)"/>
            <path id="Path_2821" data-name="Path 2821" d="M806.282,326.555s-.112,7.76-8.771,8.1-9.717,1.35-11.325,10.684,3.5,23.606-10.975,38.006-18.313-.69-28-1.738c-4.671-.505-21.957-2.417-20.875-11.7,1.131-9.7,27.313-7.041,31.587-15.413s5.7-30.9,17.206-39.412c10.347-7.647,27.665-5.51,33.063,3.487s.563,20.554.563,20.554S809.769,328.017,806.282,326.555Z" fill="url(#linear-gradient-48)"/>
          </g>
        </g>
      </g>
      <g id="Group_691" data-name="Group 691">
        <g id="Group_677" data-name="Group 677">
          <path id="Path_2822" data-name="Path 2822" d="M1302.052,629.981c-10.568,13.234-162.179,13.885-177.473,4.611-13.6-8.249,54.6-10.016,78.835-11.272C1228.163,622.037,1308.033,622.492,1302.052,629.981Z" fill="#898b8e"/>
          <g id="Group_676" data-name="Group 676">
            <g id="Group_673" data-name="Group 673">
              <path id="Path_2823" data-name="Path 2823" d="M1271.481,603.864l.39.6c2.465,3.826,3.329,8.081,4.779,12.395h0c.487,1.449-12.159,16.779-30.856,17.654-9.157.429-15.468-1.594-15.709-4.107-.4-4.2,8.036-7.86,13.705-13.547a62.392,62.392,0,0,0,8.55-10.265Z" fill="url(#linear-gradient-49)"/>
            </g>
            <path id="Path_2824" data-name="Path 2824" d="M1184.058,618.656s-.34,4.306-.731,6.186c-1.084,5.218-3.9,8.411-5.309,10.727,0,0-13.62-7.692-18.272-13.148l-19.215-15.5c2.7-3.023,11.632-.774,16.472-.028a24.48,24.48,0,0,0,11.656-1.076l6.562.911Z" fill="url(#linear-gradient-50)"/>
            <g id="Group_674" data-name="Group 674">
              <path id="Path_2825" data-name="Path 2825" d="M1140.118,607.621c1.162-3.511,8.615.369,15.76,5.173,9.527,6.407,23.532,21.39,22.14,22.775-2.615,2.6-11.916-2.2-24.079-13.791C1148.122,616.237,1138.947,611.161,1140.118,607.621Z" fill="url(#linear-gradient-51)"/>
            </g>
            <g id="Group_675" data-name="Group 675">
              <path id="Path_2826" data-name="Path 2826" d="M1188.817,456.251s18.307,63.659,31.057,86.018c13.888,24.353,29.108,67.909,29.108,67.909s14.563,4.033,23.2-6.006c-.378-2.614-13.883-43.321-24.2-63.809-7.35-14.6-29.94-86.412-29.94-86.412Z" fill="url(#linear-gradient-52)"/>
              <path id="Path_2827" data-name="Path 2827" d="M1244.676,449.038s7.753,15.728-13.756,59.349c0,0-17.852,30.516-21.5,50.677s-25.668,62.81-25.668,62.81-4.306-10.111-19.541-14.978c3.311-5.527,20.408-55.007,26.274-73.376s16.639-78.709,16.639-78.709l10.919-.86Z" fill="url(#linear-gradient-53)"/>
            </g>
          </g>
        </g>
        <g id="Group_690" data-name="Group 690">
          <g id="Group_678" data-name="Group 678">
            <path id="Path_2828" data-name="Path 2828" d="M1173.742,396.612s-.625,10.51-1.873,12.732a55.393,55.393,0,0,0-8.115,19.723c-2.122,10.972-9.114,30.459-10.862,32.105s-2.871,4.562-3.37,6.229-2.195,12.4,4.993,15.6c3.746,1.667,13.734-6.991,12.984-12.546s-2.5-8.153-2.247-9.285,15.356-26.689,18.352-37.244S1189.1,399.9,1189.1,399.9,1176.738,396.659,1173.742,396.612Z" fill="url(#linear-gradient-54)"/>
            <path id="Path_2829" data-name="Path 2829" d="M1181.52,359.3c-2.806,6.31-3.08,9.274-5.441,19.136s-5.963,21.217-7.037,25.2c3.565,3.776,12.562,4.92,21.312,1.7,0,0,4.059-23.236,4.7-37.045C1195.658,355.22,1183.718,354.359,1181.52,359.3Z" fill="url(#linear-gradient-55)"/>
          </g>
          <g id="Group_689" data-name="Group 689">
            <path id="Path_2830" data-name="Path 2830" d="M1190.663,319.15s-6.25-12.5,5.046-21.618c8.631-6.966,24.739-3.222,29.4,2.433,5.257,6.383,2.842,10.009,8.636,15.144,6.086,5.393,9.011,10.388,8.573,17.834s-3.152,11.9-.313,15.394c5.7,7.009,11.014,8.261,12.516,16.959s-6.446,29.286-25.469,27.534-23.717-15.206-23.529-22.152,3.128-15.77.563-21.214-11.89-14.643-9.074-21.527S1190.663,319.15,1190.663,319.15Z" fill="url(#linear-gradient-56)"/>
            <path id="Path_2831" data-name="Path 2831" d="M1187.18,353.974c-8.6,3.857-7.339,13.485-7.084,19.445.474,11.033-6.1,18.719-4.4,23.719,2.256,6.62,6.647,5.2,10.017,16.559,2.02,6.807,4.779,38.35.751,42.239,0,0,27.231,17.686,62.531-4.769,0,0-8.889-22.5-9.733-40.941-1.153-25.191,9.247-52.186,2.149-57.3-4.118-2.966-19.336-5.317-28.942-4.7C1204.074,348.763,1195.024,350.457,1187.18,353.974Z" fill="url(#linear-gradient-57)"/>
            <path id="Path_2832" data-name="Path 2832" d="M1218.481,328.84s.325,13.675,1.055,19c1.064,7.759-9.512,19.587-18.21,18.523-7.845-.96-5.536-11.149-2.941-15.77,1.5-2.674-.313-10.575-.313-10.575S1207.843,328.089,1218.481,328.84Z" fill="url(#linear-gradient-58)"/>
            <path id="Path_2833" data-name="Path 2833" d="M1192.023,310.812c-1.622,5.258-.431,7.1-1.669,12.782-1.5,6.876,5.006,22.428,9.679,23.346s14.871-5.233,16.305-10.108a37.385,37.385,0,0,0,1.467-6.246s1.084,2.253,3.587.084,3.88-7.051,2.021-8.689c-1.892-1.667-4.315-.156-5.149,2.014,0,0-7.045,1.822-10.378-7.3-1.8-4.922-13.612.026-12.68-10.617A8.775,8.775,0,0,0,1192.023,310.812Z" fill="url(#linear-gradient-59)"/>
            <g id="Group_688" data-name="Group 688">
              <g id="Group_680" data-name="Group 680">
                <path id="Path_2834" data-name="Path 2834" d="M1212.188,466.311a1.021,1.021,0,0,0,.016-1.174l.014.009c.759.293,1.411-1.064,1.834-1.719a1.022,1.022,0,0,0,.016-1.175s.556.271,1.022-.5a7.255,7.255,0,0,0,1.511-4.357,51.389,51.389,0,0,0-.57-7.282,1.521,1.521,0,0,1,.2-.77l1.279-1.98-6.711-4.336-1.244,1.925a1.2,1.2,0,0,1-.655.543,49.888,49.888,0,0,0-6.9,2.469,7.253,7.253,0,0,0-3.351,3.168c-.507.739-.032,1.135-.032,1.135a1.022,1.022,0,0,0-1.064.5c-.424.655-1.393,1.807-.814,2.379l.014.008a1.022,1.022,0,0,0-1.064.5c-.424.655-1.393,1.806-.814,2.378l.014.009a1.02,1.02,0,0,0-1.064.5c-.423.655-1.393,1.807-.814,2.378l.014.009a1.022,1.022,0,0,0-1.064.5c-.424.655-1.393,1.806-.814,2.378l.014.009a1.02,1.02,0,0,0-1.064.5c-.423.655-1.393,1.807-.814,2.378l.014.009a1.022,1.022,0,0,0-1.064.5c-.423.655-1.392,1.806-.814,2.378l.014.009a1.02,1.02,0,0,0-1.064.5c-.423.655-1.392,1.807-.814,2.378l.014.009a1.022,1.022,0,0,0-1.064.5c-.423.655-1.392,1.806-.814,2.378l.014.009a1.02,1.02,0,0,0-1.064.5c-.423.655-1.392,1.807-.814,2.378l.014.009a1.02,1.02,0,0,0-1.064.5,21.8,21.8,0,0,0-1.452,2.42,6.41,6.41,0,0,0-.362,3.746,3.126,3.126,0,0,0,1.374,2.075l9.6,6.2a3.12,3.12,0,0,0,2.456.4,6.415,6.415,0,0,0,3.267-1.869,21.733,21.733,0,0,0,1.609-2.318,1.022,1.022,0,0,0,.016-1.175l.014.009c.759.293,1.41-1.064,1.833-1.719a1.02,1.02,0,0,0,.017-1.174l.014.009c.758.293,1.41-1.064,1.833-1.719a1.021,1.021,0,0,0,.017-1.175l.014.009c.758.293,1.41-1.063,1.833-1.718a1.021,1.021,0,0,0,.017-1.175l.014.009c.758.293,1.41-1.064,1.833-1.719a1.02,1.02,0,0,0,.016-1.175l.014.009c.759.293,1.411-1.063,1.834-1.718a1.02,1.02,0,0,0,.016-1.175l.015.009c.758.293,1.41-1.064,1.833-1.719a1.02,1.02,0,0,0,.016-1.174l.014.009c.759.293,1.411-1.064,1.834-1.719a1.02,1.02,0,0,0,.016-1.175l.014.009C1211.113,468.323,1211.765,466.966,1212.188,466.311Z" fill="#fff" opacity="0.45"/>
                <g id="Group_679" data-name="Group 679">
                  <path id="Path_2835" data-name="Path 2835" d="M1217.757,448.6c.37-.511,1.144-1.71,1.783-2.759s-3.283-3.6-3.283-3.6l-.283-.184s-3.938-2.526-4.632-1.513-1.469,2.212-1.783,2.759c-.137.238,1.927,1.808,3.911,3.1C1215.368,447.625,1217.545,448.89,1217.757,448.6Z" fill="#363538"/>
                </g>
              </g>
              <g id="Group_682" data-name="Group 682">
                <path id="Path_2836" data-name="Path 2836" d="M1158.864,453.9a.951.951,0,0,0-.969-.51l.013-.008c.564-.507-.288-1.621-.653-2.249a.952.952,0,0,0-.97-.51s.46-.348.02-1.058a6.761,6.761,0,0,0-2.982-3.1,47.967,47.967,0,0,0-6.291-2.6,1.423,1.423,0,0,1-.553-.5l-1.1-1.9-6.438,3.745,1.074,1.846a1.118,1.118,0,0,1,.174.775,46.515,46.515,0,0,0-.861,6.774,6.757,6.757,0,0,0,1.218,4.122c.4.734.929.506.929.506a.952.952,0,0,0-.036,1.1c.365.628.913,1.92,1.632,1.68l.014-.008a.953.953,0,0,0-.037,1.1c.366.628.914,1.92,1.633,1.68l.013-.008a.954.954,0,0,0-.036,1.1c.366.628.913,1.92,1.632,1.68l.014-.008a.952.952,0,0,0-.036,1.1c.365.628.913,1.92,1.632,1.68l.014-.008a.953.953,0,0,0-.037,1.1c.366.628.913,1.919,1.633,1.68l.013-.008a.952.952,0,0,0-.036,1.1c.365.628.913,1.919,1.632,1.68l.014-.008a.953.953,0,0,0-.037,1.1c.366.628.913,1.919,1.633,1.68l.013-.008a.954.954,0,0,0-.036,1.1c.365.628.913,1.919,1.632,1.68l.014-.008a.952.952,0,0,0-.036,1.1c.365.628.913,1.919,1.632,1.68l.013-.008a.954.954,0,0,0-.036,1.1,20.325,20.325,0,0,0,1.4,2.228,5.989,5.989,0,0,0,2.96,1.883,2.907,2.907,0,0,0,2.3-.266l9.21-5.357a2.909,2.909,0,0,0,1.37-1.872,5.987,5.987,0,0,0-.173-3.5,20.347,20.347,0,0,0-1.247-2.316.951.951,0,0,0-.969-.509l.013-.008c.564-.507-.288-1.621-.653-2.25a.953.953,0,0,0-.97-.509l.014-.008c.563-.507-.289-1.621-.654-2.25a.952.952,0,0,0-.969-.509l.013-.008c.564-.507-.288-1.621-.654-2.25a.951.951,0,0,0-.969-.509l.013-.008c.564-.507-.288-1.621-.653-2.25a.953.953,0,0,0-.97-.509l.014-.008c.564-.507-.289-1.621-.654-2.25a.951.951,0,0,0-.969-.509l.013-.008c.564-.507-.288-1.621-.653-2.25a.953.953,0,0,0-.97-.509l.014-.008c.563-.507-.289-1.621-.654-2.249a.951.951,0,0,0-.969-.51l.013-.008C1160.082,455.644,1159.23,454.53,1158.864,453.9Z" fill="#fff" opacity="0.45"/>
                <g id="Group_681" data-name="Group 681">
                  <path id="Path_2837" data-name="Path 2837" d="M1146.5,441.793c-.269-.524-.937-1.673-1.54-2.647s-4.379,1.207-4.379,1.207l-.272.158s-3.762,2.205-3.213,3.21,1.217,2.154,1.54,2.647c.14.214,2.316-.839,4.223-1.944C1144.68,443.367,1146.65,442.093,1146.5,441.793Z" fill="#d90575"/>
                </g>
              </g>
              <g id="Group_684" data-name="Group 684">
                <path id="Path_2838" data-name="Path 2838" d="M1188.016,479.424a.951.951,0,0,0,1.093-.062l-.008.014c-.222.725,1.082,1.241,1.719,1.592a.952.952,0,0,0,1.093-.062s-.215.534.528.917a6.764,6.764,0,0,0,4.15,1.119,47.76,47.76,0,0,0,6.733-1.01,1.44,1.44,0,0,1,.73.14l1.925,1.06,3.591-6.525-1.872-1.03a1.122,1.122,0,0,1-.548-.574,46.431,46.431,0,0,0-2.75-6.251,6.757,6.757,0,0,0-3.166-2.907c-.72-.423-1.057.045-1.057.045a.952.952,0,0,0-.533-.957c-.636-.351-1.771-1.176-2.264-.6l-.007.013a.953.953,0,0,0-.533-.957c-.637-.35-1.771-1.175-2.265-.6l-.007.014a.952.952,0,0,0-.533-.957c-.636-.35-1.771-1.176-2.264-.6l-.007.014a.952.952,0,0,0-.533-.957c-.637-.351-1.771-1.176-2.264-.6l-.008.013a.953.953,0,0,0-.532-.957c-.637-.35-1.771-1.175-2.265-.6l-.007.014a.952.952,0,0,0-.533-.957c-.636-.35-1.771-1.176-2.264-.6l-.008.014a.951.951,0,0,0-.532-.957c-.637-.351-1.772-1.176-2.265-.6l-.007.013a.953.953,0,0,0-.533-.957c-.637-.35-1.771-1.176-2.264-.6l-.008.014a.951.951,0,0,0-.532-.957c-.637-.35-1.771-1.176-2.265-.6l-.007.013a.953.953,0,0,0-.533-.957,20.167,20.167,0,0,0-2.345-1.191,5.982,5.982,0,0,0-3.507-.09,2.908,2.908,0,0,0-1.838,1.414l-5.137,9.335a2.907,2.907,0,0,0-.211,2.31,5.981,5.981,0,0,0,1.952,2.914,20.362,20.362,0,0,0,2.262,1.344.952.952,0,0,0,1.093-.062l-.007.013c-.223.725,1.082,1.242,1.718,1.592a.954.954,0,0,0,1.094-.062l-.008.013c-.222.725,1.082,1.242,1.719,1.592a.95.95,0,0,0,1.093-.062l-.007.014c-.223.725,1.082,1.241,1.718,1.592a.954.954,0,0,0,1.094-.062l-.008.013c-.222.725,1.082,1.242,1.719,1.592a.951.951,0,0,0,1.093-.062l-.007.013c-.223.725,1.081,1.242,1.718,1.592a.952.952,0,0,0,1.094-.062l-.008.014c-.222.725,1.082,1.241,1.719,1.592a.953.953,0,0,0,1.093-.062l-.007.013c-.223.725,1.081,1.242,1.718,1.592a.95.95,0,0,0,1.093-.062l-.007.013C1186.075,478.557,1187.379,479.074,1188.016,479.424Z" fill="#fff" opacity="0.45"/>
                <g id="Group_683" data-name="Group 683">
                  <path id="Path_2839" data-name="Path 2839" d="M1204.853,483.437c.5.311,1.665.952,2.682,1.476s3.133-3.289,3.133-3.289l.152-.275s2.09-3.828,1.1-4.407-2.153-1.22-2.682-1.476c-.231-.111-1.554,1.911-2.62,3.84C1205.6,481.152,1204.566,483.259,1204.853,483.437Z" fill="#d90575"/>
                </g>
              </g>
              <g id="Group_686" data-name="Group 686">
                <path id="Path_2840" data-name="Path 2840" d="M1151.541,468.816a.952.952,0,0,0-.794-.753l.014,0c.681-.335.163-1.639-.018-2.343a.953.953,0,0,0-.8-.753s.537-.21.306-1.013a6.765,6.765,0,0,0-2.03-3.789,47.931,47.931,0,0,0-5.349-4.21,1.421,1.421,0,0,1-.4-.628l-.549-2.128-7.212,1.858.533,2.069a1.121,1.121,0,0,1-.042.792,46.389,46.389,0,0,0-2.667,6.287,6.759,6.759,0,0,0,.053,4.3c.186.814.757.739.757.739a.953.953,0,0,0-.332,1.044c.182.7.358,2.1,1.115,2.06l.016,0a.953.953,0,0,0-.332,1.044c.181.7.358,2.1,1.115,2.06l.015,0a.952.952,0,0,0-.332,1.043c.182.7.358,2.1,1.115,2.061l.015,0a.951.951,0,0,0-.331,1.043c.181.7.357,2.1,1.115,2.061l.015,0a.951.951,0,0,0-.332,1.043c.181.7.358,2.1,1.115,2.061l.015,0a.95.95,0,0,0-.331,1.043c.181.7.357,2.1,1.115,2.06l.015,0a.953.953,0,0,0-.332,1.044c.181.7.358,2.1,1.115,2.06l.015,0a.953.953,0,0,0-.332,1.044c.182.7.358,2.1,1.116,2.06l.015,0a.953.953,0,0,0-.332,1.044c.181.7.358,2.1,1.115,2.06l.015,0a.953.953,0,0,0-.332,1.044,20.314,20.314,0,0,0,.74,2.524,5.982,5.982,0,0,0,2.338,2.615,2.91,2.91,0,0,0,2.29.37l10.318-2.658a2.907,2.907,0,0,0,1.826-1.43,5.971,5.971,0,0,0,.784-3.419,20.148,20.148,0,0,0-.571-2.567.954.954,0,0,0-.795-.754l.015,0c.68-.335.163-1.638-.019-2.342a.952.952,0,0,0-.794-.754l.014,0c.681-.335.163-1.638-.018-2.342a.953.953,0,0,0-.8-.754l.015,0c.68-.335.163-1.639-.019-2.343a.952.952,0,0,0-.794-.754l.015,0c.68-.335.162-1.639-.019-2.343a.951.951,0,0,0-.8-.753l.015,0c.681-.335.163-1.639-.018-2.343a.952.952,0,0,0-.8-.753l.015,0c.68-.335.162-1.639-.019-2.343a.951.951,0,0,0-.795-.753l.015,0c.681-.335.163-1.639-.018-2.343a.952.952,0,0,0-.795-.753l.015,0C1152.24,470.824,1151.723,469.52,1151.541,468.816Z" fill="#fff" opacity="0.45"/>
                <g id="Group_685" data-name="Group 685">
                  <path id="Path_2841" data-name="Path 2841" d="M1142.923,453.806c-.117-.577-.449-1.865-.764-2.965s-4.542-.027-4.542-.027l-.3.078s-4.219,1.1-3.964,2.218.587,2.4.764,2.965c.077.244,2.456-.178,4.592-.724C1140.747,454.828,1142.989,454.137,1142.923,453.806Z" fill="#5c5c5f"/>
                </g>
              </g>
              <path id="Path_2842" data-name="Path 2842" d="M1119.689,462.553v2.92l116.67,3.958v-2.847Z" fill="url(#linear-gradient-60)"/>
              <path id="Path_2843" data-name="Path 2843" d="M1127.745,465.746v44.778a7.724,7.724,0,0,0,6.695,7.656l50.112,6.739,31.695-1.167a7.726,7.726,0,0,0,7.386-6.8l5.756-47.762Z" fill="url(#linear-gradient-61)"/>
              <path id="Path_2844" data-name="Path 2844" d="M1184.6,524.917l31.643-1.165a7.724,7.724,0,0,0,7.385-6.8l5.757-47.762-40.559-1.376Z" fill="url(#linear-gradient-62)"/>
              <g id="Group_687" data-name="Group 687">
                <path id="Path_2845" data-name="Path 2845" d="M1145.748,496.908l-2.48-.252a3.471,3.471,0,0,1-2.285-1.223,6.7,6.7,0,0,0,.495,1.032c.409.693.769,1.332,1.1,1.917,1.655,2.933,2.479,4.386,4.772,4.589l8.033.817.015-5.9-9-.916Z" fill="#fff"/>
                <path id="Path_2846" data-name="Path 2846" d="M1143.269,496.09l2.772.282,2.543-4.662,1.226.8-2.047-4.909-5.3.107,1.058.692-2.527,4.606a1.327,1.327,0,0,0-.138.878A2.7,2.7,0,0,0,1143.269,496.09Z" fill="#fff"/>
                <path id="Path_2847" data-name="Path 2847" d="M1170.968,495.728l-3.64-7.393-5.355,2.143,4.08,8.286.292.594,1.125,2.284a3.022,3.022,0,0,1,.138,2.464,5.2,5.2,0,0,0,.665-.814c.405-.614.787-1.166,1.138-1.671C1171.167,499.087,1172.035,497.828,1170.968,495.728Z" fill="#fff"/>
                <path id="Path_2848" data-name="Path 2848" d="M1165.7,499.3l-5.612-.541.058-1.376-3.334,3.6,2.989,4.644.05-1.188,5.553.549a1.36,1.36,0,0,0,.872-.2,2.2,2.2,0,0,0,.681-2.938Z" fill="#fff"/>
                <path id="Path_2849" data-name="Path 2849" d="M1159.234,477.336a6.433,6.433,0,0,0-1.114-.185c-.779-.059-1.491-.128-2.143-.191-3.269-.314-4.891-.467-6.024,1.379l-4.064,6.4,5.183,3.5,4.554-7.175.327-.515,1.255-1.977A2.707,2.707,0,0,1,1159.234,477.336Z" fill="#fff"/>
                <path id="Path_2850" data-name="Path 2850" d="M1158.129,486.628l5.171,1.146,2.114-4.607-1.05.5-3-4.887a1.659,1.659,0,0,0-.715-.638,2.253,2.253,0,0,0-2.945.768l-1.4,2.209,3.042,4.934Z" fill="#fff"/>
              </g>
            </g>
            <path id="Path_2851" data-name="Path 2851" d="M1241.468,402.269c-.066.5,2.638,5.019,1.388,8.066s-13.21,34.3-17.238,38.054-5.6,2.825-9.214,6.621-5.833,10.683-5.833,10.683l3.552.123s-1.584,3.372-.87,4.772c.729,1.428,2.376,2.329,6.543,1.866s11.431-3.782,12.778-5.314c1.771-2.014,2.731-7.23,3.127-10.564s-.345-5.277,1.137-7.407,20.278-24.353,22.223-31.945-1.2-21.575-1.2-21.575S1241.838,399.445,1241.468,402.269Z" fill="url(#linear-gradient-63)"/>
            <path id="Path_2852" data-name="Path 2852" d="M1250.248,368.948a309.475,309.475,0,0,0,13.026,31.238s-8.889,4.861-25.418,4.445c0,0-7.539-20.544-8.65-35.683-.5-6.816,2.834-17.109,9.844-16.715C1244.762,352.554,1247.835,361.806,1250.248,368.948Z" fill="url(#linear-gradient-64)"/>
          </g>
        </g>
      </g>
    </g>
    <path id="Path_2853" data-name="Path 2853" d="M78.224.946H0V74.722c7.914-2.307,13.991-5.109,24.633-1.97,11.5,3.393,26.717,1.226,35.057-10.09,7.411-10.056,5.22-20.606,3.436-29.747-1.3-6.655,1.162-13.4,5.808-18.37A54.467,54.467,0,0,0,78.224.946Z" transform="translate(0 -1)" fill="url(#linear-gradient-65)"/>
  </g>
</svg>
