<svg xmlns="http://www.w3.org/2000/svg" xmlns:xlink="http://www.w3.org/1999/xlink" width="1366" height="768" viewBox="0 0 1366 768">
  <defs>
    <clipPath id="clip-path">
      <rect id="Rectangle_140" data-name="Rectangle 140" width="1366" height="768" transform="translate(0 0)" fill="none"/>
    </clipPath>
    <linearGradient id="linear-gradient" x1="0.499" y1="0.987" x2="0.502" y2="-1.068" gradientUnits="objectBoundingBox">
      <stop offset="0" stop-color="#d7ffff"/>
      <stop offset="0.987" stop-color="#2efff9"/>
    </linearGradient>
  </defs>
  <g id="login-4" transform="translate(0 0)">
    <g id="Group_753" data-name="Group 753" clip-path="url(#clip-path)">
      <rect id="Rectangle_128" data-name="Rectangle 128" width="1366.993" height="628.774" transform="translate(0 0.681)" fill="url(#linear-gradient)"/>
      <path id="Path_2932" data-name="Path 2932" d="M1366.961,380.684c-5.247-.751-564.405-80.946-919.781,26.922C235.211,471.942,86.14,522.051,0,552.149V282.731c149.232-25.752,439.079-66.075,667.4-38.939C987.733,281.883,1363.3,379.729,1366.961,380.684Z" fill="#f6f7f5" opacity="0.26"/>
      <path id="Path_2933" data-name="Path 2933" d="M58.038,98.541C35.623,103.927,16.009,108.842,0,112.962v-1.234C16.524,107.415,36.407,102.683,58.038,98.541Z" fill="#f7f9f4" opacity="0.21"/>
      <path id="Path_2934" data-name="Path 2934" d="M1366.993.681v100.26c-84.82,52.48-196.165,74.584-288,90.325-133.888,22.962-272.9,23.295-405.645-7.178-154.9-35.559-298.571-109.8-455.507-138.341-48.982-8.906-109.166-2.275-159.8,7.468C125.486,37,218.4,16.508,315.707.681Z" fill="#fff" opacity="0.35"/>
      <path id="Path_2935" data-name="Path 2935" d="M1366.993,114.1c-43.811,13.627-86.129,37.351-129.36,53.264a1322.6,1322.6,0,0,1-140.391,43.445c-94.294,23.22-192.473,34.325-289.751,25.237C662.155,222.464,525.927,165.37,384.829,129.789c-77.116-19.442-157.516-31.707-237.518-27.447-39.765,2.125-79.4,8.434-117.2,20.451C21.234,125.615,10.719,128.18,0,131.152v21.932c22.211-6.652,44.8-16.17,61.418-19.421A620.24,620.24,0,0,1,188.31,122.311c81.773,1.083,164.007,18.713,239.653,43.9,101.505,33.788,200.339,76.461,305.706,97.17,114.231,22.458,233.516,17.2,346.126-10.762a868.734,868.734,0,0,0,161.786-57.7,856.608,856.608,0,0,0,77.224-41.45c12.264-7.414,25.344-14.732,36.632-23.455,1.212-.934,7.371-7.061,11.556-11.707Z" fill="#fff" opacity="0.49"/>
      <path id="Path_2936" data-name="Path 2936" d="M1406.9,291.883l3.914,67.377-117.138-6.621V230.562L1183,236.982l8.2,188.094h-60.351l2.614-42.082-106.054-1.628v17.051h-36.07v-17.6l-55.632-.854,5.108,70.746h-40.8V414.6H745.812V387.853H723.324V327.8l-84.438-9.657,9.477,96.458H530.037l16.592,36.1H175.4l10.11-71.96H127.433V414.6H109.245v36.1H-127.589l3.848-20.951H-148.9l6.473-129.116-39.338,15.251V236.982h-34.874V371.947h8.3v174.4h1.874v14.574H1506.128V488.05l5.718-200.769Z" fill="#b5d6ea"/>
      <path id="Path_2937" data-name="Path 2937" d="M1040.457,441.527l-74.763,1.229L946.38,261.982l94.077-1.229Z" fill="#b5d6ea"/>
      <path id="Path_2938" data-name="Path 2938" d="M974.029,447.454H904.862L892.73,213.438h94.423Z" fill="#b5d6ea"/>
      <g id="Group_720" data-name="Group 720">
        <path id="Path_2939" data-name="Path 2939" d="M157.671,447.722v.708a21.122,21.122,0,0,1-19.046,21.009q-1.014.1-2.06.1h-19.1A21.111,21.111,0,0,1,96.36,448.43v-.708a21.111,21.111,0,0,1,21.106-21.106h19.1A21.111,21.111,0,0,1,157.671,447.722Z" fill="#b5d6ea"/>
        <path id="Path_2940" data-name="Path 2940" d="M138.625,469.439q-1.014.1-2.06.1h-19.1A21.111,21.111,0,0,1,96.36,448.43v-.708a21.111,21.111,0,0,1,21.106-21.106h.569a32.873,32.873,0,0,1-.1,4.024C116.64,446.4,126.082,463,138.625,469.439Z" fill="#829ba8" opacity="0.43"/>
        <rect id="Rectangle_129" data-name="Rectangle 129" width="38.27" height="19.672" rx="0.519" transform="translate(108.059 434.842)" fill="#45beed"/>
        <g id="Group_718" data-name="Group 718">
          <path id="Path_2941" data-name="Path 2941" d="M125.674,436.988v15.38h-13.9a1.567,1.567,0,0,1-1.565-1.565v-12.25a1.567,1.567,0,0,1,1.565-1.565Zm2.146-2.146H111.77a3.712,3.712,0,0,0-3.711,3.711V450.8a3.712,3.712,0,0,0,3.711,3.711h16.05V434.842Z" fill="#72afce"/>
        </g>
        <g id="Group_719" data-name="Group 719">
          <path id="Path_2942" data-name="Path 2942" d="M142.619,436.988a1.567,1.567,0,0,1,1.565,1.565V450.8a1.567,1.567,0,0,1-1.565,1.565H129.966v-15.38Zm0-2.146h-14.8v19.672h14.8a3.711,3.711,0,0,0,3.71-3.711v-12.25a3.711,3.711,0,0,0-3.71-3.711Z" fill="#72afce"/>
        </g>
      </g>
      <g id="Group_726" data-name="Group 726">
        <g id="Group_724" data-name="Group 724">
          <g id="Group_721" data-name="Group 721">
            <ellipse id="Ellipse_26" data-name="Ellipse 26" cx="33.485" cy="93.391" rx="33.485" ry="93.391" transform="translate(-24.328 292.343) rotate(-4.139)" fill="#b7e897"/>
            <ellipse id="Ellipse_27" data-name="Ellipse 27" cx="36.521" cy="124.899" rx="36.521" ry="124.899" transform="translate(29.657 234.483)" fill="#8cd35e"/>
            <path id="Path_2943" data-name="Path 2943" d="M84.854,330.66l-4.027,4.99L68.3,358.267l-.656-54.3-5.252-18.949v56.153L48.847,318.815l-5.475-4.929L62.388,348.4v63.661L44.373,389.77l3.526,9.114,14.489,19.139v78.535l7.585.342L68.387,365.748Z" fill="#c18b56"/>
            <path id="Path_2944" data-name="Path 2944" d="M2.686,392.166l2.548,3.157,7.929,14.313.415-34.36L16.9,363.285v35.533l8.569-14.147,3.464-3.119L16.9,403.394v40.284L28.3,429.57l-2.231,5.767L16.9,447.449v49.7l-4.8.217,1-82.993Z" fill="#c18b56"/>
          </g>
          <g id="Group_722" data-name="Group 722">
            <ellipse id="Ellipse_28" data-name="Ellipse 28" cx="22.698" cy="69.48" rx="22.698" ry="69.48" transform="translate(96.793 323.345)" fill="#b7e897"/>
            <ellipse id="Ellipse_29" data-name="Ellipse 29" cx="22.698" cy="63.412" rx="22.698" ry="63.412" transform="translate(63.848 345.193)" fill="#95c178"/>
            <path id="Path_2945" data-name="Path 2945" d="M97.058,399.742l-2.172,2.506-6.758,11.359-.354-27.269-2.833-9.516v28.2l-7.3-11.227-2.953-2.475,10.255,17.334v31.97l-9.715-11.2,1.9,4.577,7.814,9.612v39.44l4.09.172-.855-65.865Z" fill="#c18b56"/>
            <path id="Path_2946" data-name="Path 2946" d="M130,383.114l-2.172,2.746-6.758,12.446-.354-29.878L117.887,358v30.9l-7.3-12.3-2.953-2.712,10.255,18.993v35.03l-9.715-12.267,1.9,5.015,7.814,10.532V474.4l4.09.189-.855-72.168Z" fill="#c18b56"/>
          </g>
          <ellipse id="Ellipse_30" data-name="Ellipse 30" cx="31.027" cy="90.133" rx="31.027" ry="90.133" transform="translate(165.003 270.261)" fill="#b7e897"/>
          <ellipse id="Ellipse_31" data-name="Ellipse 31" cx="22.432" cy="60.472" rx="22.432" ry="60.472" transform="translate(260.104 327.131)" fill="#8cd35e"/>
          <path id="Path_2947" data-name="Path 2947" d="M210.4,347.8l-2.969,3.562L198.193,367.5l-.484-38.76-3.872-13.526V355.3l-9.982-15.959-4.036-3.518,14.018,24.638V405.9l-13.28-15.914,2.6,6.506,10.681,13.662v56.06l5.591.245-1.169-93.62Z" fill="#c18b56"/>
          <g id="Group_723" data-name="Group 723">
            <path id="Path_2948" data-name="Path 2948" d="M280.391,479.033l-2.524-108.982,3.427,6.367,3.387,102.473Z" fill="#c18b56"/>
          </g>
        </g>
        <g id="Group_725" data-name="Group 725">
          <ellipse id="Ellipse_32" data-name="Ellipse 32" cx="28.438" cy="79.316" rx="28.438" ry="79.316" transform="translate(1241.941 291.504) rotate(-4.14)" fill="#b7e897"/>
          <ellipse id="Ellipse_33" data-name="Ellipse 33" cx="31.017" cy="106.074" rx="31.017" ry="106.074" transform="translate(1287.791 242.365)" fill="#8cd35e"/>
          <path id="Path_2949" data-name="Path 2949" d="M1334.669,324.046l-3.42,4.237-10.642,19.209-.557-46.115-4.461-16.094v47.69l-11.5-18.987-4.65-4.186,16.15,29.314v54.066l-15.3-18.934,2.995,7.74,12.3,16.255v66.7l6.441.291-1.346-111.386Z" fill="#c18b56"/>
          <path id="Path_2950" data-name="Path 2950" d="M1264.884,376.283l2.164,2.681,6.734,12.156.353-29.181,2.823-10.184v30.178l7.277-12.015,2.942-2.649-10.219,18.55v34.213l9.682-11.981-1.9,4.9-7.786,10.286v42.207l-4.076.184.852-70.485Z" fill="#c18b56"/>
        </g>
        <path id="Path_2951" data-name="Path 2951" d="M1216.457,457.238c6.64-4.776,11.328-16.369,11.328-29.918,0-17.812-26.969-66.721-26.969-66.721s-9.22,48.909-9.22,66.721c0,12.763,4.162,23.792,10.2,29.019q-5.984-.358-12.048-.7a73.027,73.027,0,0,0,1.852-16.581c0-23.036-22.518-66.092-22.518-66.092s-13.7,26.2-19.727,48.656c.038-1.2.055-2.4.055-3.621,0-26.461-19.172-95.548-19.172-95.548s-19.177,69.087-19.177,95.548c0,13.255,2.155,25.252,5.635,33.925q-19.379-.861-39.383-1.634c8.306-12.393,13.9-35.641,13.9-62.277,0-24.882-13.563-63.507-23.666-88.834-5.568-13.952-10.087-23.867-10.714-25.231-.047-.106-.072-.16-.072-.16s-.017.054-.042.157c-1.06,3.8-20.889,75.47-20.889,114.068,0,25.914,5.294,48.622,13.235,61.248-88.585-3.057-185.307-4.735-286.6-4.735-230.851,0-437.969,8.725-579.082,22.547,5.773-9.607,9.493-24.657,9.493-41.576,0-29.012-6.17-81.668-6.17-81.668s-42.677,52.656-42.677,81.668c0,18.735,4.561,35.176,11.421,44.475q-7.221.795-14.165,1.607a51.194,51.194,0,0,0,2.744-16.845c0-19.254-32.386-63.4-32.386-63.4S99.9,435.478,99.9,454.732a48.807,48.807,0,0,0,4.717,21.545c-22.437,3.16-41.87,6.493-57.966,9.973v-5.6c8.875-2.068,15.726-15.6,15.726-31.976,0-17.808-23.587-81.415-23.587-81.415s-12.6,63.607-12.6,81.415,8.1,32.253,18.1,32.253v5.843c-10.445,2.314-19.408,4.694-26.806,7.125v-4.776c4.97-1.775,8.711-9.59,8.711-18.968,0-10.684-16.18-40.024-16.18-40.024s-5.525,29.34-5.525,40.024c0,9.774,4.065,17.85,9.346,19.156v5.835c-13.92,4.978-21.3,10.171-21.3,15.512,0,19.09,94.194,36.294,244.847,48.365,137.541,11.019,322.141,17.764,525.08,17.764,245.146,0,463.533-9.839,604.533-25.176V469.7C1323.641,464.985,1272.972,460.787,1216.457,457.238Zm-73.2-4.071a64.971,64.971,0,0,0,3.4-10.411,73.021,73.021,0,0,0,1.279,10.64C1146.376,453.32,1144.815,453.242,1143.253,453.167Z" fill="#76b24f"/>
        <path id="Path_2952" data-name="Path 2952" d="M1056.756,453.748c20.17,31.925-504.721,79.654-819.376,105.271C86.727,546.948-7.467,529.744-7.467,510.654c0-5.341,7.377-10.534,21.3-15.512v-5.835C8.549,488,4.484,479.925,4.484,470.151c0-10.684,5.525-40.024,5.525-40.024s16.18,29.34,16.18,40.024c0,9.378-3.741,17.193-8.711,18.968v4.776c7.4-2.431,16.361-4.811,26.806-7.125v-5.843c-9.994,0-18.1-14.441-18.1-32.253s12.6-81.415,12.6-81.415,23.587,63.607,23.587,81.415c0,16.38-6.851,29.908-15.726,31.976v5.6c16.1-3.48,35.529-6.813,57.966-9.973A48.807,48.807,0,0,1,99.9,454.732c0-19.254,11.736-63.4,11.736-63.4s32.386,44.144,32.386,63.4a51.194,51.194,0,0,1-2.744,16.845q6.943-.816,14.165-1.607c-6.86-9.3-11.421-25.74-11.421-44.475,0-29.012,42.677-81.668,42.677-81.668s6.17,52.656,6.17,81.668c0,16.919-3.72,31.969-9.493,41.576,141.113-13.822,348.231-22.547,579.082-22.547,101.293,0,198.015,1.678,286.6,4.735-7.941-12.626-13.235-35.334-13.235-61.248,0-38.6,19.829-110.27,20.889-114.068l.114,0c.627,1.364,5.146,11.279,10.714,25.231C1055.448,339.987,1035.737,420.476,1056.756,453.748Z" fill="#658444"/>
      </g>
      <path id="Path_2953" data-name="Path 2953" d="M937.8,448.591v-6.5c4.1.083,6.769,1.282,6.769-6.891,0-8.436-7.836-28.966-7.836-28.966s-7.837,20.53-7.837,28.966c0,8,3.756,7.02,7.837,6.9v6.394q-8.079-.747-16.765-1.418c2.116-1.873,3.609-6.42,3.609-11.732,0-6.985-8.592-26.165-8.592-26.165s-2.937,19.18-2.937,26.165c0,5,1.325,9.329,3.248,11.379q-1.906-.141-3.838-.276a35.024,35.024,0,0,0,.59-6.5c0-9.034-7.174-25.918-7.174-25.918a128.583,128.583,0,0,0-6.285,19.08c.012-.469.017-.941.017-1.42,0-10.376-6.108-37.468-6.108-37.468s-6.109,27.092-6.109,37.468a44.735,44.735,0,0,0,1.795,13.3q-6.174-.338-12.547-.641c2.646-4.86,4.428-13.976,4.428-24.421,0-9.758-4.321-24.9-7.54-34.836-1.773-5.471-3.213-9.359-3.413-9.894l-.023-.063s-.005.022-.013.062c-.338,1.489-6.655,29.595-6.655,44.731,0,10.162,1.686,19.066,4.216,24.018-28.222-1.2-59.037-1.857-91.307-1.857-73.547,0-139.532,3.421-184.49,8.841,1.84-3.767,3.025-9.669,3.025-16.3,0-11.377-6.811-42.857-6.811-42.857s-8.751,31.48-8.751,42.857c0,7.346,1.453,13.793,3.638,17.44q-2.3.312-4.512.63a24.351,24.351,0,0,0,.874-6.605c0-7.551-10.318-24.861-10.318-24.861s-3.739,17.31-3.739,24.861a22.9,22.9,0,0,0,1.5,8.449c-7.149,1.238-13.34,2.545-18.468,3.91v-2.2c2.828-.811,5.01-6.116,5.01-12.539,0-6.983-7.514-31.926-7.514-31.926s-4.015,24.943-4.015,31.926,2.581,12.648,5.765,12.648v2.291a77.7,77.7,0,0,0-8.54,2.794v-1.873c1.583-.7,2.775-3.761,2.775-7.438,0-4.189-5.155-15.7-5.155-15.7s-1.76,11.506-1.76,15.7c0,3.833,1.3,7,2.977,7.512v2.288c-4.435,1.952-6.785,3.989-6.785,6.083,0,7.486,30.009,14.232,78.006,18.966,43.819,4.321,102.63,6.966,167.285,6.966,78.1,0,147.676-3.858,192.6-9.873V451.96C958.846,450.745,948.759,449.617,937.8,448.591Zm-41.154-3.114a29.792,29.792,0,0,0,1.082-4.083,35.028,35.028,0,0,0,.408,4.173C897.639,445.537,897.142,445.506,896.644,445.477Z" fill="#658444"/>
      <path id="Path_2954" data-name="Path 2954" d="M1366.993,526.912V721.993H0V494.08Z" fill="#a8a342"/>
      <path id="Path_2955" data-name="Path 2955" d="M1366,526.888v65.451c-22.115,1.975-59.374,13.706-86.1,15.756-139.843,10.73-490.358-40.774-625.555-55.8C553.417,541.086,179.855,565.647-3.069,578.813l.744-84.652Z" fill="#ddd56f" opacity="0.47"/>
      <g id="Group_727" data-name="Group 727">
        <path id="Path_2956" data-name="Path 2956" d="M568.761,540.64l-.7-15.068-3.99,17.332,3.227-10.452-4.052,9.155-.115-.18,3.116-7.037-3.66,5.755.2-1.741-.431,1.81-.554-.872,1.566-10.85-2.5,9.381-.389-.613-.913-6.331.132,5.1-.915-1.445.1-.7-.163.6-.106-.169.094.216-1.428,5.359-.325-1.218.222-1.475-.33,1.068-1.044-3.921.717,4.98-1.194,3.869v-8.829l-.4,3.36.19-7.271-1.194,8.28-2.607-9.787.207,1.445-1.2,3.786-.273-5.91-.9,8.635-1.767-3.995,1.634,5.289-.015.146-.834,2.629-1.548-14.944-.606,13.071-.9,8.676H541.8l-.059-.568,2.51-15.852-3.128,9.88-.542-5.211,1.4-8.815-1.74,5.494-.1-.928-.136-2.951-.086.817-.076-.751-.128,2.716-.424,4.081-1.245,3.938-.005-.037,1.2-3.882-1.3,2.932-1.366-13.167-.842,18.152-1.836,4.152h-.315l-.286-.928-.034-.886,2.05-14.218-2.274,8.532-.246-6.269-.913,8.248-1.221-3.946.169-1.164-.246.916-1.051-3.4,1.364-3.077-3.542,5.57-.35-1.1.062-2.334-.249,1.733-2.055-6.5,1.55,9.844-.356.559-.69-4.786.128,4.889-5-7.872,1.361,3.077-2.245,7.269-2.488-9.334,1.71,11.855-.881,2.85-2.378-5.371-.763-16.456-1.238,11.936-.376-.854.349,1.132-.143,1.359-.97-9.373-.425,9.152-.461-9.933-1.959,18.885h-2.366l-1.58-15.241-.29,6.289-.594-12.795L503.3,539.054l-.328-3.173.916-2.963-.992,2.237-.625-6.031-.387,8.316-4.081,9.218-.271-.876,2.428-16.825-3.53,13.251-1.283-4.153.864,5.723-1.068,4.007h-.884l-.423-.669,1.839-12.761-2.94,11.031-1.152-1.812.328-12.645-1.546,10.73-1.1-1.728-.77-5.335.448-3.822-1.5,6.3-1.164-1.833,1.041,2.355-1.253,5.27-1.393-5.231.994,6.908-.77,3.246h-.475V533.129l-1.221,10.413-1.723-6.467V526.727l-.842,7.185-.448-1.679.354,2.467-1.033,8.832-1.012-2.284-1.834-11.693.322,8.278-.726-1.639.758,2.452.335,8.559-1.4-13.475,1.743-11.052-2.174,6.892-.027-.256-.02.4L470,546.488l-1.344-12.95L470.2,523.7l-4.123,13.08-.345-3.323,2.194-13.922-7.784,24.7-.8-2.6-.6-15.271-1.672,15.15-6.36-20.231,3.369,21.487-4.674-7.112.079.177,5.06,11.439c2.5,2.226,5.134,4.339,7.5,6.7H561.78C564.327,551.888,568.761,540.64,568.761,540.64Zm-104.092.622-.325,1.032.392-2.491Zm3.121,6.523h-.568l-.323-3.111,1.465-9.3Zm6.657,0h-.9l1.277-8.1Zm6.838,0v-6.6l.952,6.6Zm6.976-12.868.1,3.9-.473-.744Zm-1.076,12.868-.3-1.127.891-7.6.63,1.423.19,7.3Zm14.223,0H499.3l2.484-8.041Zm14.331,0-.143-3.108.96,3.108Zm6.747-2.968-1.56,2.454-.663-2.486,1.517-10.048,2.919,6.6-1.627,2.56L521.5,538Zm2.553,2.968h-.931l-.142-.538,1.538-3.476.017.662Zm2.762-9.2,1.7-3.845.714,4.719-.98,3.67Zm3.242,9.2h-.335l-.97-3.072.62-4.3.958,6.346Zm21.915-2.3L551.2,541.5l-.679-4.31.118,3.045-.025-.057-.14-3.018,1.066-6.729,1.8,12.462Zm3.151-1.171.58-3.843.156,1.081Zm1.336,3.47h-.561l.431-2.983.266,1.846Zm1.364-2.166-.534-2v-2.868l-.234,1.989-.278-1.046,1.012-7.013.95,2.146.125,4.884Z" fill="#4b8446"/>
      </g>
      <g id="Group_731" data-name="Group 731">
        <path id="Path_2957" data-name="Path 2957" d="M961.39,523.174l-.105.045c-4.331,1.576-11.339-.358-17.183-3.522.476,6.94-.821,13.253-6.756,15.407a13.448,13.448,0,0,1-2.866.666c-7.272.9-17.643-2.845-25.472-7.867a53.434,53.434,0,0,1-8.3,9.981c-3.515,4.983-7.846,8.53-12.616,8.971-9.613.879-18.2-11.16-21.944-23.051-10.2,3.454-23.143,4.519-29.376.31-5.154-3.481-4.7-9.893-2.353-16.485-6.507,1.677-13.819,1.9-17.584-.639-3.193-2.153-3.3-5.925-2.12-9.969a49.232,49.232,0,0,1,4.767-10.354,61.066,61.066,0,0,1-.175-23.828c4-22,17.831-37.809,30.908-35.314a16.041,16.041,0,0,1,8.156,4.417c3.626-9.741,8.721-17.813,14.5-23.284,6.206-5.895,13.206-8.779,20.005-7.478,9.43,1.8,16.39,11.26,19.54,24.465,6.6-4.293,14.151-6.146,21.709-4.708,15.723,3,26.438,19.294,26.835,38.661,7.647,3.94,11.994,14.374,9.979,25.467a27.519,27.519,0,0,1-7.523,14.742C965.185,506.488,969.26,520.188,961.39,523.174Z" fill="#95c178"/>
        <g id="Group_728" data-name="Group 728">
          <rect id="Rectangle_130" data-name="Rectangle 130" width="3.219" height="33.044" transform="matrix(0.867, -0.498, 0.498, 0.867, 847.699, 519.045)" fill="#51280c"/>
        </g>
        <g id="Group_729" data-name="Group 729">
          <rect id="Rectangle_131" data-name="Rectangle 131" width="3.219" height="37.781" transform="translate(871.091 509.119)" fill="#51280c"/>
        </g>
        <g id="Group_730" data-name="Group 730">
          <path id="Path_2958" data-name="Path 2958" d="M889.018,551.526l14.39-33.911,2.963,1.257-9.93,23.4L918.263,526.7l1.869,2.62Z" fill="#51280c"/>
        </g>
        <path id="Path_2959" data-name="Path 2959" d="M944.251,481.542c-4.863-15.1-14.865-25.395-22.34-22.988a7.231,7.231,0,0,0-1.345.59c-5.257-12.326-13.865-20.173-20.491-18.04a7.231,7.231,0,0,0-1.367.605,54.9,54.9,0,0,0-2.37-11.06c-4.863-15.1-14.865-25.394-22.34-22.987-2.51.808-4.413,2.949-5.654,6a68.223,68.223,0,0,0-9.972,18.277,16.041,16.041,0,0,0-8.156-4.417c-13.077-2.495-26.909,13.318-30.908,35.314a61.066,61.066,0,0,0,.175,23.828,49.232,49.232,0,0,0-4.767,10.354c-1.176,4.044-1.073,7.816,2.12,9.969,3.765,2.538,11.077,2.316,17.584.638-2.342,6.593-2.8,13.005,2.353,16.486,6.233,4.209,19.18,3.144,29.376-.31,3.749,11.891,12.331,23.93,21.944,23.051,4.77-.441,9.1-3.988,12.616-8.971a53.434,53.434,0,0,0,8.3-9.981,57.725,57.725,0,0,0,11.529,5.668c4.3,3.159,8.981,4.407,13.219,3.043,8.052-2.593,11.9-13.753,9.78-26.394C947.576,504.769,948.081,493.44,944.251,481.542Z" fill="#40512b"/>
      </g>
      <g id="Group_738" data-name="Group 738">
        <path id="Path_2960" data-name="Path 2960" d="M1315.908,505.926l-.091.068c-3.825,2.572-11.093,2.379-17.526.713,2.13,6.622,2.389,13.061-2.853,16.58a13.522,13.522,0,0,1-2.623,1.335c-6.842,2.621-17.809,1.48-26.616-1.513a53.524,53.524,0,0,1-5.655,11.684c-2.215,5.682-5.566,10.166-10.09,11.74-9.12,3.165-20.344-6.458-26.842-17.1-9.067,5.8-21.378,9.95-28.44,7.364-5.84-2.141-6.936-8.475-6.247-15.437-5.913,3.192-12.957,5.166-17.222,3.608-3.617-1.323-4.623-4.959-4.455-9.167a49.175,49.175,0,0,1,2.139-11.2,61.033,61.033,0,0,1-5.9-23.087c-1.407-22.312,8.218-40.987,21.511-41.709a16.058,16.058,0,0,1,8.979,2.327c1.177-10.327,4.183-19.387,8.478-26.087,4.606-7.214,10.707-11.7,17.62-12.069,9.587-.516,18.616,6.99,24.849,19.05,5.372-5.753,12.258-9.367,19.94-9.788,15.983-.869,30.3,12.372,35.342,31.076,8.37,1.985,15.1,11.068,15.809,22.32a27.518,27.518,0,0,1-3.758,16.119C1315.581,488.817,1322.83,501.135,1315.908,505.926Z" fill="#95c178"/>
        <g id="Group_732" data-name="Group 732">
          <path id="Path_2961" data-name="Path 2961" d="M1228.237,547.42l-17.862-32.609,3.031-1.824,17.862,32.609Z" fill="#51280c"/>
        </g>
        <g id="Group_733" data-name="Group 733">
          <rect id="Rectangle_132" data-name="Rectangle 132" width="3.494" height="42.993" transform="translate(1235.77 503.516)" fill="#51280c"/>
        </g>
        <g id="Group_734" data-name="Group 734">
          <path id="Path_2962" data-name="Path 2962" d="M1255.233,551.772l15.622-38.589,3.217,1.431-10.781,26.629,23.69-17.723,4.888.843Z" fill="#51280c"/>
        </g>
        <g id="Group_735" data-name="Group 735">
          <path id="Path_2963" data-name="Path 2963" d="M1243.916,552.826l25.636-31.081-3.018.134-24.979,28.312Z" fill="#51280c"/>
        </g>
        <g id="Group_736" data-name="Group 736">
          <rect id="Rectangle_133" data-name="Rectangle 133" width="42.993" height="3.495" transform="matrix(0.294, -0.956, 0.956, 0.294, 1233.643, 548.715)" fill="#51280c"/>
        </g>
        <g id="Group_737" data-name="Group 737">
          <path id="Path_2964" data-name="Path 2964" d="M1216.832,549.057l-3.6-41.475-3.5.423,2.484,28.621-17.439-23.9-2.816,2.253Z" fill="#51280c"/>
        </g>
        <path id="Path_2965" data-name="Path 2965" d="M1296.245,479.876c-10.753-17.378-28.479-25.891-39.593-19.014a15.575,15.575,0,0,0-3.449,2.92q-.255-.174-.513-.344c1.663-8.9-.769-20.413-7.364-31.071-10.752-17.378-28.479-25.891-39.593-19.014a15.551,15.551,0,0,0-3.266,2.721l-.01-.025c-.023.036-.045.074-.068.11a19.92,19.92,0,0,0-4.505,9.2,71.237,71.237,0,0,0-3.905,16.775,16.058,16.058,0,0,0-8.979-2.327c-13.293.722-22.918,19.4-21.511,41.709a61.033,61.033,0,0,0,5.9,23.087,49.175,49.175,0,0,0-2.139,11.2c-.168,4.208.838,7.844,4.455,9.167,4.265,1.558,11.309-.416,17.222-3.608-.689,6.962.407,13.3,6.247,15.437,7.062,2.587,19.373-1.56,28.44-7.364,6.5,10.641,17.722,20.264,26.842,17.1,4.524-1.574,7.875-6.058,10.09-11.74a53.233,53.233,0,0,0,5.233-10.563,15.52,15.52,0,0,0,1.465-.785,54.17,54.17,0,0,0,17.439,2.611,17.031,17.031,0,0,0,10.91-2.263C1306.7,516.916,1307,497.254,1296.245,479.876Z" fill="#40512b"/>
      </g>
      <path id="Path_2966" data-name="Path 2966" d="M1366.993,544.541v53.65c-64.273,12.253-123.609,26.707-189.469,25.076-27.351-.676-54.723-1.159-82.084-1.749q-121.114-2.575-242.228-5.161-287.728-6.133-575.436-12.275c-12.5-.269-189.8-3.434-253.655-5.076l-.365-.01c-13.917-.354-15.4-.555-23.756-.856v-53.6H1366.993Z" fill="#665365"/>
      <path id="Path_2967" data-name="Path 2967" d="M1366.993,550.4v47.791c-64.273,12.253-123.609,26.707-189.469,25.076-27.351-.676-54.723-1.159-82.084-1.749q-121.114-2.575-242.228-5.161-287.728-6.133-575.436-12.275c-12.5-.269-189.8-3.434-253.655-5.076l-.365-.01L0,598.14l1349.7-42.611Z" fill="#b7a3b7" opacity="0.39"/>
      <g id="Group_744" data-name="Group 744">
        <g id="Group_740" data-name="Group 740">
          <g id="Group_739" data-name="Group 739">
            <path id="Path_2968" data-name="Path 2968" d="M1174.686,165.226c0,11.617-6.7,21.034-14.973,21.034s-14.974-9.417-14.974-21.034l15.252-6.426Z" fill="#fff"/>
          </g>
          <path id="Path_2969" data-name="Path 2969" d="M1172.144,164.115l-12.153-5.315-15.252,6.426c0,8.5,3.593,15.82,8.76,19.137a10.793,10.793,0,0,0,3.118.464C1164.672,184.827,1171.3,175.76,1172.144,164.115Z" fill="#b7ac8f"/>
        </g>
        <g id="Group_742" data-name="Group 742">
          <g id="Group_741" data-name="Group 741">
            <path id="Path_2970" data-name="Path 2970" d="M1273,165.7c0,11.617-6.7,21.034-14.974,21.034s-14.973-9.417-14.973-21.034l15.251-6.426Z" fill="#fff"/>
          </g>
          <path id="Path_2971" data-name="Path 2971" d="M1270.454,164.592l-12.154-5.314-15.251,6.426c0,8.5,3.592,15.82,8.76,19.137a10.79,10.79,0,0,0,3.118.464C1262.981,185.3,1269.609,176.237,1270.454,164.592Z" fill="#b7ac8f"/>
        </g>
        <g id="Group_743" data-name="Group 743">
          <path id="Path_2972" data-name="Path 2972" d="M1258.97,153.349h-.949a44.078,44.078,0,0,0-3.143-10.51,33.526,33.526,0,0,0-6.773-10.06,22.734,22.734,0,0,0-9.083-5.623,18.489,18.489,0,0,0-9.983-.316,22.406,22.406,0,0,0-9.387,5.062c-.7.655-1.378,1.381-2.068,2.072-.651.757-1.279,1.56-1.91,2.354-.585.861-1.148,1.753-1.715,2.637l-1.5,2.876c-.872,1.858-2.177,5.73-2.177,5.73h-2.328s-2.8-7.643-5.057-10.907l-1.861-2.428c-.675-.719-1.347-1.445-2.036-2.137-.727-.614-1.45-1.237-2.192-1.808-.77-.5-1.528-1.032-2.308-1.49a19.124,19.124,0,0,0-19.66.451,27.377,27.377,0,0,0-8.169,7.919,39.534,39.534,0,0,0-5.308,11.668c-.366,1.318-.668,2.667-.917,4.032h-1.307l-16.151,13.276s11.356-3.543,16.665-4.17a13.318,13.318,0,0,1,1.36-.1c4.356,0,16.823,4.266,16.823,4.266l-16.369-13.276h-.513c.276-1.259.6-2.5.975-3.7a37,37,0,0,1,5.463-10.984,25.306,25.306,0,0,1,7.956-7.212,17.554,17.554,0,0,1,18.378.45,27.912,27.912,0,0,1,7.728,7.269,38.364,38.364,0,0,1,5.444,10.7c.432,1.3.8,2.648,1.127,4.022l-1.866,358.753h5.7l-1.545-357.154a43.9,43.9,0,0,1,3.833-11.56,33.8,33.8,0,0,1,6.619-9.178,20.91,20.91,0,0,1,8.583-5.18,17.4,17.4,0,0,1,9.407-.111,21.084,21.084,0,0,1,8.779,4.983,31.17,31.17,0,0,1,6.835,9.347,42.215,42.215,0,0,1,3.368,10.037h-1.093l-16.151,13.276s13.669-4.266,18.025-4.266,16.823,4.266,16.823,4.266Z" fill="#3a2523"/>
          <path id="Path_2973" data-name="Path 2973" d="M1213.843,517.672h-10.035l-1.746-56.858h13.482Z" fill="#222438"/>
          <path id="Path_2974" data-name="Path 2974" d="M1219.113,488.077l-2.6,57.812h-15.355l-2.667-57.812Z" fill="#514168"/>
          <path id="Path_2975" data-name="Path 2975" d="M1215.963,545.89h-14.8l-2.667-57.813h15.722C1212.132,507,1209.588,533.37,1211,538.2,1212.275,542.611,1214.391,544.819,1215.963,545.89Z" fill="#2d2835"/>
        </g>
      </g>
      <g id="Group_750" data-name="Group 750">
        <g id="Group_746" data-name="Group 746">
          <g id="Group_745" data-name="Group 745">
            <path id="Path_2976" data-name="Path 2976" d="M465.577,165.278c0,11.617-6.7,21.034-14.973,21.034S435.63,176.9,435.63,165.278l15.252-6.426Z" fill="#fff"/>
          </g>
          <path id="Path_2977" data-name="Path 2977" d="M463.035,164.167l-12.153-5.315-15.252,6.426c0,8.5,3.593,15.82,8.76,19.137a10.793,10.793,0,0,0,3.118.464C455.562,184.879,462.191,175.812,463.035,164.167Z" fill="#b7ac8f"/>
        </g>
        <g id="Group_748" data-name="Group 748">
          <g id="Group_747" data-name="Group 747">
            <path id="Path_2978" data-name="Path 2978" d="M563.886,165.756c0,11.617-6.7,21.034-14.973,21.034s-14.973-9.417-14.973-21.034l15.251-6.426Z" fill="#fff"/>
          </g>
          <path id="Path_2979" data-name="Path 2979" d="M561.344,164.644l-12.153-5.314-15.251,6.426c0,8.5,3.592,15.82,8.759,19.137a10.8,10.8,0,0,0,3.119.464C553.872,185.357,560.5,176.289,561.344,164.644Z" fill="#b7ac8f"/>
        </g>
        <g id="Group_749" data-name="Group 749">
          <path id="Path_2980" data-name="Path 2980" d="M549.86,153.4h-.949a44.032,44.032,0,0,0-3.142-10.51A33.524,33.524,0,0,0,539,132.831a22.742,22.742,0,0,0-9.083-5.623,18.492,18.492,0,0,0-9.984-.316,22.409,22.409,0,0,0-9.386,5.062c-.7.655-1.378,1.381-2.068,2.072-.651.757-1.279,1.559-1.91,2.354-.585.861-1.148,1.753-1.715,2.637l-1.5,2.875c-.871,1.859-2.176,5.73-2.176,5.73h-2.328s-2.8-7.642-5.057-10.906l-1.861-2.428c-.675-.719-1.348-1.446-2.037-2.137-.726-.614-1.45-1.237-2.191-1.808-.77-.5-1.528-1.033-2.308-1.49a19.124,19.124,0,0,0-19.66.451,27.366,27.366,0,0,0-8.169,7.919,39.531,39.531,0,0,0-5.308,11.668c-.367,1.318-.668,2.666-.917,4.032h-1.307L433.876,166.2s11.356-3.543,16.664-4.17a13.342,13.342,0,0,1,1.361-.1c4.356,0,16.822,4.266,16.822,4.266l-16.368-13.276h-.513c.276-1.259.6-2.5.975-3.7a37.006,37.006,0,0,1,5.463-10.984,25.3,25.3,0,0,1,7.956-7.212,17.554,17.554,0,0,1,18.378.45,27.925,27.925,0,0,1,7.728,7.269,38.391,38.391,0,0,1,5.444,10.7c.432,1.3.8,2.648,1.127,4.022l-1.867,358.753h5.7L501.2,155.063a43.862,43.862,0,0,1,3.833-11.56,33.8,33.8,0,0,1,6.619-9.178,20.912,20.912,0,0,1,8.582-5.18,17.408,17.408,0,0,1,9.408-.111,21.084,21.084,0,0,1,8.779,4.983,31.189,31.189,0,0,1,6.835,9.347,42.215,42.215,0,0,1,3.368,10.037h-1.093l-16.151,13.276s13.669-4.266,18.025-4.266,16.823,4.266,16.823,4.266Z" fill="#3a2523"/>
          <path id="Path_2981" data-name="Path 2981" d="M504.734,517.724H494.7l-1.746-56.858h13.482Z" fill="#222438"/>
          <path id="Path_2982" data-name="Path 2982" d="M510,488.129l-2.6,57.812H492.049l-2.667-57.812Z" fill="#514168"/>
          <path id="Path_2983" data-name="Path 2983" d="M506.854,545.941h-14.8l-2.667-57.812h15.723c-2.082,18.924-4.626,45.292-3.218,50.119C503.166,542.663,505.282,544.871,506.854,545.941Z" fill="#2d2835"/>
        </g>
      </g>
      <path id="Path_2984" data-name="Path 2984" d="M1366.993,693.028v61.426H0V608.9Z" fill="#8cd35e"/>
      <path id="Path_2985" data-name="Path 2985" d="M1124.044,544.541l-10.782,6.314-231.8,1.293L833,544.541Z" fill="#5b395b"/>
      <g id="Group_752" data-name="Group 752">
        <rect id="Rectangle_134" data-name="Rectangle 134" width="219.857" height="15.022" transform="translate(939.942 505.79)" fill="#b77629"/>
        <rect id="Rectangle_135" data-name="Rectangle 135" width="219.857" height="9.451" transform="translate(939.942 511.36)" fill="#7f511f"/>
        <path id="Path_2986" data-name="Path 2986" d="M1173.854,460.59l-10.73,1.738h10.258l-3.069,11.535-1.856,6.942-2.082,7.811H932.463l-4.6-19.711,12.082-1.567H927.495l-2.543-10.912h250.007Z" fill="#b77629"/>
        <rect id="Rectangle_136" data-name="Rectangle 136" width="6.438" height="17.168" transform="translate(954.991 488.622)" fill="#5e3852"/>
        <rect id="Rectangle_137" data-name="Rectangle 137" width="5.365" height="17.168" transform="translate(1132.035 488.622)" fill="#5e3852"/>
        <rect id="Rectangle_138" data-name="Rectangle 138" width="10.782" height="30.044" transform="translate(973.058 520.811)" fill="#351c2e"/>
        <rect id="Rectangle_139" data-name="Rectangle 139" width="10.782" height="30.044" transform="translate(1113.263 520.811)" fill="#351c2e"/>
        <path id="Path_2987" data-name="Path 2987" d="M1168.457,480.8l-2.082,7.812H932.463l-4.6-19.711,12.082-1.567H927.495l-2.543-10.912h61.536C1054.451,467.447,1143.842,481.084,1168.457,480.8Z" fill="#7f511f"/>
        <path id="Path_2988" data-name="Path 2988" d="M1173.854,460.59l-10.73,1.738h10.258l-3.069,11.535-136.8-17.436h141.442Z" fill="#efa459"/>
        <path id="Path_2989" data-name="Path 2989" d="M930.715,481.131a12.812,12.812,0,0,1,5.848-3.921,20.122,20.122,0,0,1,7.064-1,34.785,34.785,0,0,1,13.792,3.453,31.323,31.323,0,0,0,6.429,2.545,8.294,8.294,0,0,0,3.318-.087c1.129-.218,2.253-.546,3.371-.878,4.456-1.423,8.858-3.124,13.183-4.965l.065-.027h.055l4.789.127,4.789.162-4.789.161-4.789.127.12-.026a112.6,112.6,0,0,1-13.135,5.36c-1.136.352-2.274.7-3.457.943a9.339,9.339,0,0,1-3.7.134c-2.473-.446-4.556-1.69-6.675-2.656a36.733,36.733,0,0,0-13.393-3.638,20.765,20.765,0,0,0-6.9.7A13.169,13.169,0,0,0,930.715,481.131Z" fill="#4c3622" opacity="0.58"/>
        <g id="Group_751" data-name="Group 751" opacity="0.32">
          <path id="Path_2990" data-name="Path 2990" d="M939.942,472.522a25.884,25.884,0,0,0,10.912,1.633,21.691,21.691,0,0,0,5.406-.993c1.743-.576,3.42-1.375,5.15-2.1a19.326,19.326,0,0,1,5.469-1.591,17.786,17.786,0,0,1,5.695.532c3.687.859,7.145,2.331,10.714,3.172,1.756.414,3.64.7,5.454,1.031,1.83.313,3.662.6,5.5.774a38.638,38.638,0,0,0,5.512.182c1.835-.056,3.6-.48,5.516-.673a66.068,66.068,0,0,1,11.228.1,86.259,86.259,0,0,1,11.072,1.61,99.263,99.263,0,0,0-11.107-1.085,66.079,66.079,0,0,0-11.1.2c-.93.1-1.778.293-2.734.458a25.409,25.409,0,0,1-2.826.322,39.623,39.623,0,0,1-5.653-.137c-1.873-.165-3.73-.436-5.575-.734-1.853-.324-3.662-.574-5.536-1-3.683-.906-7.116-2.4-10.689-3.266a16.881,16.881,0,0,0-5.379-.558,20.343,20.343,0,0,0-5.253,1.431c-1.724.668-3.441,1.433-5.254,1.98a21.936,21.936,0,0,1-5.584.873A25.168,25.168,0,0,1,939.942,472.522Z" fill="#4c3622"/>
        </g>
        <path id="Path_2991" data-name="Path 2991" d="M976.781,474.816c-2.861-.568-5.365.209-7.511-.953s-3.219-.089-5.544,1.341-3.576.995-3.576.995a3.325,3.325,0,0,1,2.593.682c.872.939,2.347.469,3.42,0s2.749-1.408,3.889-1.207S976.781,474.816,976.781,474.816Z" fill="#4c3622" opacity="0.58"/>
        <path id="Path_2992" data-name="Path 2992" d="M1172.221,458.621a23.357,23.357,0,0,0-9.1-.9,11.524,11.524,0,0,0-4.412,1.182c-1.377.684-2.495,1.831-3.888,2.643a20.656,20.656,0,0,1-9.107,2.7,30.913,30.913,0,0,1-9.426-.787l.017-.106a74.916,74.916,0,0,0,9.314-.247,27.4,27.4,0,0,0,8.924-2.074c1.4-.6,2.6-1.66,4-2.432a19.269,19.269,0,0,1,2.134-1.076,14.589,14.589,0,0,1,2.315-.683,13.23,13.23,0,0,1,4.8.06,13.885,13.885,0,0,1,4.47,1.629Z" fill="#995e2e" opacity="0.33"/>
        <path id="Path_2993" data-name="Path 2993" d="M955.528,511.36l-.537,5.656-.536-5.656Z" fill="#6b3a15"/>
        <path id="Path_2994" data-name="Path 2994" d="M967.3,511.36l-.537,7.568-.536-7.568Z" fill="#6b3a15"/>
        <path id="Path_2995" data-name="Path 2995" d="M975.35,511.36l-.537,3.784-.536-3.784Z" fill="#6b3a15"/>
        <path id="Path_2996" data-name="Path 2996" d="M984.314,511.36l-1.721,5.656.625-5.656Z" fill="#6b3a15"/>
        <path id="Path_2997" data-name="Path 2997" d="M996.81,511.36l-.536,6.648-.536-6.648Z" fill="#6b3a15"/>
        <path id="Path_2998" data-name="Path 2998" d="M1016.929,511.36l-.536,4.726-.537-4.726Z" fill="#6b3a15"/>
        <path id="Path_2999" data-name="Path 2999" d="M1030.341,511.36l-.537,7.568-.536-7.568Z" fill="#6b3a15"/>
        <path id="Path_3000" data-name="Path 3000" d="M1058.514,511.36l.8,3.784-1.981-3.784Z" fill="#6b3a15"/>
        <path id="Path_3001" data-name="Path 3001" d="M1078.884,511.36l-2.94,6.648,1.859-6.648Z" fill="#6b3a15"/>
        <path id="Path_3002" data-name="Path 3002" d="M1087.478,511.36l-.536,5.507-.536-5.507Z" fill="#6b3a15"/>
      </g>
      <path id="Path_3003" data-name="Path 3003" d="M1482.746,748.14l14.567-24.238-12.485,14.46,12.485-58.626-26.178,61.317,2.4-11.707-4.337,10.337-6.568-43.8-3.107,58.567h-2.011l-2.667-42.356-3.871,27.481-3.961-9.254-.732-11.623-1.051,7.459-22.25-51.975,15.486,72.347-9.258-21.626-.739-11.735-1.061,7.531-14.246-33.28,9.655,45.11-11.952,19.877-.879-2.053,6.176-31.545-9.015,24.914-3.834-8.956,1.083-5.528-1.58,4.366-21.164-49.437,10.655,49.78-.6,3.068-12.818,14.846,1.514-28.544-6.637,31.133h-2.223l4.351-21.215-8.9,21.215H1366l-6.387-40.13v39.914L1357.2,715.99l-5.269,37.411-2.242-14.09-1.053-16.716-.755,5.359-.759-4.772v10.165l-2.973,21.107h-7.96l-3.74-11.589-1.625-25.8-2.036,14.457-.2-.613.231-.552-.266.443-1.164-3.6.7,4.38-13.757,22.879h-2.031l6.216-31.749-4.842,13.382,6.239-29.3-14.786,34.634,1.623-8.288-3.839,10.61-4.071-27.142-2.008,37.851h-.235l-.651-1.521.933-26.418-3.841,19.623-5.631-13.152,1.805-3-2.066,2.393-12.4-28.958,7.43,34.711-1.324,1.533-12.071-28.2,7.235,33.8-7.4,8.566-4.707-10.994,1.52-7.409-2.322,5.535-13.475-31.477,9.014,42.11-1.2,2.86h-6.782l1.68-31.684-4.1,19.253-1.5-23.845-3.234,22.959-3.793-23.833V749.19l-1.537-24.408L1234.918,748,1232,729.671v24.783h-2.386l-8.726-27.038-.13-2.064,3.032-14.239-16.683,39.079-1.589-10.593.072-.119-.077.088-.139-.925,2.693-13.751-3.362,9.29-1.988-13.255-1.165,21.97-.784,2.168-4.121,4.772-2.188-5.111,1.842-9.4-2.688,7.427-14.986-35.008,6.219,29.056-1,5.112-11.183-26.125,7.221,33.74-2.068,4.93h-6.9l-7.161-16.728-.633-10.05-.909,6.45-8.7-20.318,6.972,32.572-1.137,8.074h-3.523l-.571-9.069.971-18.291-1.639,7.685-.031-.5-.268,1.9-3.9,18.27h-1.575l-5.225-32.826v32.826h-4.467l-1.263-7.942-1.119-17.762-.8,5.7-.072-.45v.959l-2.746,19.5h-1.035l-1.111-3.441,3.764-8.971-4.333,7.206-5.88-18.219.917-1.526-1.026,1.189-.4-1.244.23,1.443-11.979,13.874,8.838-41.5-16.684,39.079-4.389-29.265-1.565,29.5-2.105,5.017-20.421-47.7,5.756,26.892-.9,6.421-10.818-25.27,4.068,19-3.524,25.016-13.869-32.4-.049-.777-.07.5-5.7-13.316L1055.4,727.3l-3.665,26.028.877-16.529,1.987-4.737-1.9,3.166.848-15.989-4.814,22.586-2.652,4.409-2.715-17.06.933-4.764-1.175,3.245-2.209-13.882v19.989l-4.521,12.495-3.2-20.117v28.311h-1.248l-2.023-6.271,2.612-13.34-3.656,10.1-3.287-10.182,2.735-4.55-3.06,3.543L1021.34,721.6l1.175,7.381-2.017,10.3-2.883,3.338-4.057-20.722.863,24.422-3.024,3.5-7.709-21.3,4.825,24.645-1.117,1.294h-2.315l-2.8-7.741,2.267-11.054-3.364,8.02-9.261-25.594,6.363,32.5-.709,1.691-10.708-17.808-1.011-16.058-1.641,11.648-2.6-4.322,2.4,5.724-.863,6.129-3.541-25.145-1.557,24.717-.765-12.147-4.146,29.439H966.94L961.8,717.975l-1.209,19.187-1.113-17.676-2.55,18.1-.369-2.627.917-2.186-.993,1.651-3.247-23.058-2,31.787L945,753.53l-2.309-5.5,4.483-22.9-6.525,18.034-5.891-14.041,3.572-5.943-13.126,15.2.334-9.441-1.81,9.245-.935-1.083,4.068-19.011-5.389,12.562-.655-3.349.159,4.506-.914,2.13-9.291-10.761,3.572,5.943-2.756,6.571-.641-1.77.44,2.248-3.2,7.622-2.4-15.935-.646,12.113-5.962-16.478,5.377,27.462-.091,1.713-.751,1.79h-.822l-4.822-8.021-2.208-35.063L892.281,736.8l-3.406-5.663,3.147,7.5-.01.072L888.74,731.1l-1.111-7.885-.33-5.245-.2,1.45-.222-1.576-.359,5.7-.252,1.794L881.7,714.731l3.661,17.025-1.417,10.066-8.21-19.086,6.585,30.62-.154,1.1h-8.725l-2.36-16.759-1.59-25.25-4.065,28.867-2.184-5.078-.04-.281,4.287-10.216-4.639,7.714L860.5,716.774l-.719,11.417-3.145-7.313.547-2.793-6.841,18.906L847.208,721l.5,14.046-1.038-6.491V745.6l-3.135-7.472,1.883-9.617-2.74,7.573-.867-2.065.584,2.847-.853,2.356-3.746-10.353.249-.416-.281.327-.423-1.168.265,1.351-2.407,2.786.349-9.857-2.394,12.227-1.022,1.184-6.557-18.12,4.1,20.96-1.452,1.681-1.132-3.493.537,3.361-9.6-11.117,8.17,13.593-.3.348-10.632-17.682,8.469,20.188-4.95,5.732-5.522-39.212-1.833,29.108-5.789,13.8h-4.926l-5-35.477-.147-2.324-.09.643-.031-.22-.05.794L791.666,744.4l-4.778-33.925-1.554,24.687-2.717,19.295h-3.2l-9.3-22.165-.917-14.561-4.026,28.582-2.955-3.423,4.978-11.868-6.25,10.4-6.185-7.163,2.131-10.883-3.4,9.408-2.877-3.332-.443-2.266.064,1.827-5.809-6.729,5.92,9.85.3,8.513-3.935,10.876-3.277-9.057,1.7-8.661-2.415,6.674L740.3,733.8l1.7,8.661-3.277,9.057-3.935-10.876.3-8.513,5.921-9.85-5.81,6.729.064-1.827-.443,2.266-2.877,3.332-3.4-9.408,2.13,10.883-6.185,7.163-6.25-10.4,4.979,11.868-2.956,3.423-4.026-28.582-.916,14.561-9.3,22.165h-3.2l-2.718-19.295-1.554-24.687L693.754,744.4l-3.736-26.527-.05-.794-.031.22-.09-.643-.146,2.324-5,35.477h-4.925l-5.79-13.8-1.833-29.108-5.522,39.212-4.95-5.732,8.47-20.188L659.521,742.52l-.3-.348,8.17-13.593-9.6,11.117.537-3.361-1.132,3.493-1.452-1.681,4.1-20.96-6.556,18.12-1.023-1.184L649.877,721.9l.348,9.857-2.406-2.786.264-1.351-.423,1.168-.281-.327.249.416-3.746,10.353-.853-2.356.584-2.847-.866,2.065-2.741-7.573,1.883,9.617-3.135,7.472V728.552l-1.037,6.491.5-14.046-3.132,15.994-6.841-18.906.547,2.793-3.145,7.313-.719-11.417-2.349,16.677-4.638-7.714,4.286,10.216-.04.281L620,741.312l-4.065-28.867-1.59,25.25-2.36,16.759h-8.725l-.154-1.1,6.585-30.62-8.21,19.086-1.417-10.066,3.661-17.025-4.564,10.612-.253-1.794-.359-5.7-.222,1.576-.2-1.45-.33,5.245L596.68,731.1l-3.272,7.608-.01-.072,3.147-7.5-3.406,5.663-3.581-25.434-2.209,35.063-4.822,8.021h-.821l-.751-1.79-.092-1.713,5.377-27.462-5.962,16.478-.646-12.113-2.4,15.935-3.2-7.622.44-2.248-.641,1.77-2.756-6.571,3.572-5.943-9.291,10.761-.914-2.13.16-4.506-.656,3.349-5.388-12.562,4.067,19.011-.934,1.083-1.81-9.245.333,9.441-13.126-15.2,3.572,5.943-5.891,14.041-6.525-18.034,4.484,22.9-2.31,5.5-6.237-10.373-2-31.787-3.247,23.058-.992-1.651.917,2.186-.37,2.627-2.55-18.1-1.113,17.676-1.208-19.187-5.138,36.479h-6.207l-4.146-29.439-.765,12.147L505.8,712.445l-3.541,25.145-.863-6.129,2.4-5.724-2.6,4.322-1.641-11.648-1.011,16.058-10.707,17.808-.71-1.691,6.363-32.5-9.26,25.594-3.365-8.02,2.267,11.054-2.8,7.741h-2.315l-1.117-1.294,4.825-24.645-7.709,21.3-3.024-3.5.863-24.422L467.8,742.618l-2.882-3.338-2.018-10.3,1.175-7.381-3.925,12.162-3.059-3.543,2.734,4.55-3.286,10.182-3.656-10.1,2.611,13.34-2.023,6.271h-1.248V726.143l-3.2,20.117-4.521-12.495V713.776L442.3,727.658l-1.174-3.245.932,4.764-2.715,17.06-2.651-4.409-4.815-22.586.848,15.989-1.9-3.166L432.8,736.8l.877,16.529L430.016,727.3l4.569-21.347-5.7,13.316-.071-.5-.048.777-13.87,32.4-3.523-25.016,4.067-19L404.622,733.2l-.9-6.421,5.756-26.892-20.421,47.7-2.105-5.017-1.565-29.5-4.389,29.265L364.31,703.261l8.839,41.5-11.98-13.874.23-1.443-.4,1.244-1.027-1.189.918,1.526-5.88,18.219-4.333-7.206,3.763,8.971-1.11,3.441h-1.036l-2.746-19.5v-.959l-.072.45-.8-5.7-1.118,17.762-1.264,7.942h-4.467V721.628L336.6,754.454h-1.576l-3.895-18.27-.268-1.9-.031.5-1.639-7.685.971,18.291-.571,9.069h-3.522l-1.137-8.074,6.972-32.572-8.7,20.318-.908-6.45-.633,10.05L314.5,754.454h-6.9l-2.068-4.93,7.222-33.74-11.184,26.125-1-5.112,6.219-29.056-14.987,35.008-2.687-7.427,1.841,9.4-2.188,5.111-4.121-4.772-.784-2.168-1.165-21.97-1.988,13.255-3.361-9.29,2.692,13.751-.139.925-.076-.088.071.119-1.588,10.593-16.684-39.079,3.032,14.239-.13,2.064L255.8,754.454h-2.386V729.671L250.5,748l-3.27-23.214L245.7,749.19V717.3L241.9,741.137l-3.233-22.959-1.5,23.845-4.1-19.253,1.681,31.684h-6.783l-1.2-2.86,9.013-42.11L222.3,740.961l-2.322-5.535,1.52,7.409-4.707,10.994-7.4-8.566,7.235-33.8-12.072,28.2-1.323-1.533,7.429-34.711-12.4,28.958-2.066-2.393,1.805,3-5.63,13.152-3.842-19.623.933,26.418-.651,1.521h-.235L186.574,716.6,182.5,743.745l-3.839-10.61,1.623,8.288L165.5,706.789l6.24,29.3L166.9,722.705l6.216,31.749h-2.031l-13.756-22.879.7-4.38-1.164,3.6-.266-.443.231.552-.2.613-2.036-14.457-1.624,25.8-3.74,11.589h-7.961l-2.973-21.107V723.182l-.759,4.772-.755-5.359-1.052,16.716-2.243,14.09-5.268-37.411-2.409,38.248V714.324l-6.387,40.13h-.995l-8.9-21.215,4.351,21.215h-2.223l-6.637-31.133,1.514,28.544L93.712,737.019l-.6-3.068,10.655-49.78L82.6,733.608l-1.58-4.366,1.083,5.528-3.834,8.956-9.015-24.914,6.176,31.545-.879,2.053L62.6,732.533l9.656-45.11L58.011,720.7l-1.061-7.531-.739,11.735-9.258,21.626,15.486-72.347-22.25,51.975L39.138,718.7l-.732,11.623-3.961,9.254L30.575,712.1l-2.668,42.356H25.9l-3.108-58.567-6.568,43.8-4.337-10.337,2.4,11.707-26.177-61.317L.592,738.362-11.893,723.9,2.674,748.14l1.345,6.314H-11.893v13.472H742.343L1499.5,768l-2.183-13.546H1481.4Zm-59.555-13.866,1.392,6.5-1.927,13.678h-7.931Zm-27.023,17.709-.894,2.471H1393.4l.467-13.213Zm-5.63-8.991-2.244,11.462h-4.644Zm-62.383-11.034.306,1.924-2.9,20.572h-6.846Zm-45.409,8.793,1.418,6.624-2.246-5.246Zm-5.668,9.431.914,4.272h-3.482Zm-78.526,1.009-.606,1.676-.167-.389Zm-12.591-9.186,2.075,9.694-2.233-5.216Zm-5.574,9.872.552,2.577h-1.08Zm-52.537,1.63-.569.947h-6.769l3.928-20.063-7.259,20.063h-6.393l.161-.826,13.378-22.258Zm-43.525-14.472,1.03,4.812-.852-1.991Zm-5.673,9.409-.847,6.01h-1.488l-1.51-23.972Zm-17.436,6.01h-2.363l-.985-15.644Zm-14.317-4.025-.086.4-.023-.144Zm-5.984-8.733v12.758h-2.5Zm-18.3-12.1.971,6.106-1.238,1.434Zm-.38,10.751,1.653-2.75,2.337,14.681-.787,2.174h-3.7Zm-2.886,4.8-.618,3.16-.315-1.607Zm-4.693,7.809.053,1.495h-.951Zm-20.99,1.495h-5.538l-.979-15.533ZM950.9,748.449l-.378,6.005h-2.141Zm-16.226-19.2,3.981,19.409-1.738,4.8-4.091-4.738,2.578-13.168-4.119,11.383-4.269-4.944Zm-20.255,0,4.463,7.426-3.765,8.779-2.566-7.092Zm-.618,19.272-2.544,5.931h-.877l-.72-1.992,2.513-12.257Zm-57.183-27.587,2.795,13-.367,5.833-.065.107.313-5.88-1.783,8.324-4.627,7.7-.979-5Zm-15.857,31.322.7-3.566,1.127,5.762h-1.474Zm2.336-11.927,1.521,7.418-1.93-5.333Zm-7.96-7.049,2.493-4.148,2.653,13.55-.73,2.017-.614-3.841V746.4l-1.4,3.871-2.734-7.555Zm-4.474,9.933-.882-1.021.515-.856ZM828,745.166l.687,1.143.184,1.153-1.126-1.872Zm-2.476,4.12,2.168,5.168h-5.274Zm-14.734,1.558-.227,3.61h-.513Zm-40.24-11.661,3.131,15.271H772.2l-.748-.866Zm-19.42,15.271H750.8l.275-1.4Zm-8.419-8.324,1.63,8.324h-3.259Zm-8.094,8.324h-.325l.05-1.4Zm-.714-20.369-.525,2.681-.408-1.128Zm-2.47,4.11.833,4.252-1.761,8.994-3.517-5.85Zm-6.005,9.992,2.629,6.267h-6.4Zm-10.556-9-.907,14.405-.747.866H711.74Zm-39.5,15.271h-.513l-.227-3.61Zm-27.585-25.32,2.493,4.148.333,9.433-2.734,7.555-1.4-3.871V740.86l-.614,3.841-.73-2.017Zm-3.482,25.32h-1.475l1.128-5.762.7,3.566Zm-1.984-14.123.408,2.085-1.93,5.333ZM626,733.932l2.795-13,4.714,24.073-.98,5-4.627-7.7-1.783-8.324.313,5.88-.064-.107Zm-50.246,18.53-.721,1.992h-.877l-2.544-5.931,1.628-8.318ZM571,729.251l1.869,9.113-2.567,7.092-3.765-8.779Zm-11.71,25.2H556.85l-.376-1.039,4.036-6.715.045,1.279Zm-8.545-25.2,7.658,12.743-4.269,4.944-4.119-11.383,2.578,13.168-4.091,4.738-1.737-4.8Zm-13.707,25.2h-2.141l-.378-6.005Zm-38.763-15.533-.978,15.533h-5.538ZM462.807,729.6l.266,7.54-1.238-1.434Zm-1.274,8,1.653,2.75.5,14.1h-3.7l-.786-2.174ZM447,754.454h-2.5V741.7Zm-8.373-3.765-.023.144-.086-.4ZM427.553,738.81l-.985,15.644H424.2Zm-16.94-8.328L409.1,754.454h-1.489l-.846-6.01Zm-9.518,8.553-.178,2.821-.852,1.991Zm-40-7.665,13.378,22.258.161.826H368.24l-7.26-20.063,3.928,20.063h-6.769l-.569-.947Zm-55.532,23.084h-1.079l.551-2.577Zm-6.1-12.449.158,4.478-2.233,5.216Zm-31.127.585,2.527,11.864H270Zm-4.046-11.275-1.457,23.139H260.6ZM210.91,754.454h-3.482l.915-4.272ZM203.5,742.129l-2.246,5.246,1.418-6.624Zm-46.236-10.171,9.437,22.5h-6.846l-2.9-20.572Zm-65.715,9.283.467,13.213H90.146l-.894-2.471Zm-29.322-6.967,8.466,20.18H62.764l-1.926-13.678Z" fill="#4b8446"/>
    </g>
  </g>
</svg>
