<svg xmlns="http://www.w3.org/2000/svg" xmlns:xlink="http://www.w3.org/1999/xlink" viewBox="0 0 1920 950"><defs><style>.cls-1{isolation:isolate;}.cls-2{fill:#e6ffe6;}.cls-2,.cls-3,.cls-5{mix-blend-mode:multiply;}.cls-3{fill:#3ac340;}.cls-4,.cls-5{fill:#3abe3f;}.cls-4{opacity:0.31;}.cls-5{opacity:0.25;}.cls-6{fill:#ebf2f9;}.cls-7{fill:#c5cbd1;opacity:0.57;}.cls-8{fill:url(#linear-gradient);}.cls-9{fill:url(#linear-gradient-2);}.cls-10{fill:#6b6b6b;}.cls-11{fill:url(#linear-gradient-3);}.cls-12{fill:#9fa1ad;}.cls-13{fill:#8a8c96;}.cls-14{fill:url(#linear-gradient-4);}.cls-15{fill:#b4b7c4;}.cls-16{fill:#91939e;}.cls-17{fill:url(#linear-gradient-5);}.cls-18{fill:url(#linear-gradient-6);}.cls-19{fill:url(#linear-gradient-7);}.cls-20{fill:url(#linear-gradient-8);}.cls-21{fill:url(#linear-gradient-9);}.cls-22{fill:url(#linear-gradient-10);}.cls-23{fill:url(#linear-gradient-11);}.cls-24{fill:url(#linear-gradient-12);}.cls-25{fill:url(#linear-gradient-13);}.cls-26{fill:url(#linear-gradient-14);}.cls-27{fill:url(#linear-gradient-15);}.cls-28{fill:url(#linear-gradient-16);}.cls-29{fill:#749847;}.cls-30{fill:url(#linear-gradient-17);}.cls-31{fill:url(#linear-gradient-18);}.cls-32{fill:url(#linear-gradient-19);}.cls-33{fill:#fff;}.cls-34{fill:#dba585;}.cls-35{fill:#222f3f;}.cls-36{fill:#363957;}.cls-37{fill:#daddee;}.cls-38{fill:#393d3f;}.cls-39{fill:#c75454;}.cls-40{fill:#edb95d;}.cls-41{fill:#2e4354;}.cls-42{fill:#dae9fa;}.cls-43{fill:#454545;}.cls-44{fill:#a8aab7;}.cls-45{fill:#53739c;}.cls-46{fill:#2c3d54;}.cls-47{fill:#27293d;}.cls-48{fill:#3d4062;}.cls-49{fill:url(#linear-gradient-20);}.cls-50{fill:#aaacba;}.cls-51{fill:#5a554e;}.cls-52{fill:#2e3048;}.cls-53{fill:#3e4148;}.cls-54{fill:#4b4b4b;}.cls-55{fill:#dba686;}.cls-56{fill:#f1cc5e;}.cls-57{fill:#997761;}.cls-58{fill:#394762;}.cls-59{fill:#c99a7d;}.cls-60{fill:#c4a542;}.cls-61{fill:#211c0d;}</style><linearGradient id="linear-gradient" x1="1223.31" y1="338.34" x2="1380.34" y2="402.98" gradientUnits="userSpaceOnUse"><stop offset="0" stop-color="#f8e9e2"/><stop offset="1" stop-color="#bdb2ae"/></linearGradient><linearGradient id="linear-gradient-2" x1="1245.82" y1="315.75" x2="1312.28" y2="328.16" xlink:href="#linear-gradient"/><linearGradient id="linear-gradient-3" x1="6190.65" y1="-7844.32" x2="6372.82" y2="-7844.32" gradientTransform="matrix(0.72, 0.7, -0.7, 0.72, -8606.94, 1597.44)" gradientUnits="userSpaceOnUse"><stop offset="0" stop-color="#f8e9e2"/><stop offset="1" stop-color="#dccfc9"/></linearGradient><linearGradient id="linear-gradient-4" x1="6160.54" y1="-7893.38" x2="6259.39" y2="-7838.11" xlink:href="#linear-gradient-3"/><linearGradient id="linear-gradient-5" x1="6162.53" y1="-7839.32" x2="6333.78" y2="-7839.32" xlink:href="#linear-gradient-3"/><linearGradient id="linear-gradient-6" x1="6233.94" y1="-7852.98" x2="6391.5" y2="-7852.98" xlink:href="#linear-gradient-3"/><linearGradient id="linear-gradient-7" x1="6380.91" y1="-9832.98" x2="6544.58" y2="-9832.98" gradientTransform="matrix(0.58, 0.81, -0.81, 0.58, -10291.57, 870.79)" gradientUnits="userSpaceOnUse"><stop offset="0" stop-color="#f8e9e2"/><stop offset="1" stop-color="#e6d8d2"/></linearGradient><linearGradient id="linear-gradient-8" x1="6579.26" y1="-9798.49" x2="6550.78" y2="-9823.69" gradientTransform="matrix(0.58, 0.81, -0.81, 0.58, -10291.57, 870.79)" xlink:href="#linear-gradient"/><linearGradient id="linear-gradient-9" x1="6347.47" y1="-9856.89" x2="6575.33" y2="-9844.3" gradientTransform="matrix(0.58, 0.81, -0.81, 0.58, -10291.57, 870.79)" xlink:href="#linear-gradient"/><linearGradient id="linear-gradient-10" x1="6335.75" y1="-9809.32" x2="6555.95" y2="-9801.65" gradientTransform="matrix(0.58, 0.81, -0.81, 0.58, -10291.57, 870.79)" xlink:href="#linear-gradient"/><linearGradient id="linear-gradient-11" x1="3800.47" y1="-1966.9" x2="3887.15" y2="-1823.14" gradientTransform="translate(-2666.19 1198.73) rotate(14.89)" xlink:href="#linear-gradient-3"/><linearGradient id="linear-gradient-12" x1="1538.97" y1="300.49" x2="1585.48" y2="300.49" gradientTransform="translate(-24.75 411.59) rotate(-14.89)" xlink:href="#linear-gradient-3"/><linearGradient id="linear-gradient-13" x1="1534.65" y1="544.55" x2="1596.55" y2="544.55" gradientUnits="userSpaceOnUse"><stop offset="0.01" stop-color="#4a612f"/><stop offset="1" stop-color="#769a42"/></linearGradient><linearGradient id="linear-gradient-14" x1="6596.02" y1="-8553.56" x2="6596.02" y2="-8605.46" gradientTransform="translate(-9255.4 1164.29) rotate(49.28)" xlink:href="#linear-gradient-13"/><linearGradient id="linear-gradient-15" x1="1511.41" y1="589.45" x2="1609.54" y2="589.45" xlink:href="#linear-gradient-13"/><linearGradient id="linear-gradient-16" x1="6280.94" y1="-12382.84" x2="6280.94" y2="-12446.8" gradientTransform="translate(-12337.91 -343) rotate(67.01)" xlink:href="#linear-gradient-13"/><linearGradient id="linear-gradient-17" x1="-4687.8" y1="3028.28" x2="-4687.8" y2="2943.41" gradientTransform="matrix(0.86, -0.51, 0.51, 0.86, 3828.74, -4403.56)" xlink:href="#linear-gradient-13"/><linearGradient id="linear-gradient-18" x1="-11657.11" y1="1888.74" x2="-11657.11" y2="1821.6" gradientTransform="translate(4495.72 -10802.29) rotate(-65.29)" xlink:href="#linear-gradient-13"/><linearGradient id="linear-gradient-19" x1="1681.72" y1="512.61" x2="1390.98" y2="512.61" gradientUnits="userSpaceOnUse"><stop offset="0" stop-color="#7784f7"/><stop offset="0.99" stop-color="#a2cedd"/></linearGradient><linearGradient id="linear-gradient-20" x1="1431.02" y1="505.11" x2="1412.03" y2="419.29" gradientUnits="userSpaceOnUse"><stop offset="0" stop-color="#e59249"/><stop offset="1" stop-color="#f4d776"/></linearGradient></defs><title>slider-3</title><g class="cls-1"><g id="Layer_2" data-name="Layer 2"><g id="_Layer_" data-name="&lt;Layer&gt;"><g id="Слой_2" data-name="Слой 2"><rect class="cls-2" width="1920" height="950"/><path class="cls-3" d="M1586.05,846.42c213.9-6.79,303.1-226.52,282.51-475C1856,220.22,1788.3,80.4,1665,0H1148.83c-53.49,34-94,75.45-125.69,113.39C895.74,266,879.6,523.81,994.73,655.89S1339.54,854.24,1586.05,846.42Z"/><path class="cls-4" d="M1381,893.58c181,77,430.58,18.46,523.59-128.54q8.22-13,15.43-26.88V154c-.45-1.37-.89-2.74-1.34-4.1C1894.71,78,1849.32,29,1790.33,0h-352q-25.44,8.16-51,18.2c-207.08,81.56-356.63,270.34-300.67,522.93C1135.66,761.94,1274.66,848.31,1381,893.58Z"/><path class="cls-5" d="M1915.69,565.08q2.18-6.09,4.31-12.28V251.45c-23.76-38.69-61.83-72.46-119.41-97.75-195.21-85.76-666.49-25.49-803.18,242C886.63,612.44,1047.58,864.92,1245.2,950h289C1718.3,880.32,1866.49,702,1915.69,565.08Z"/><path class="cls-6" d="M1830.16,631c0-2.14-.07-4.31-.17-6.52-.24-5.47-.61-11.11-1.22-16.92q-.66-6.37-1.67-12.95c-11.38-74.88-56.09-163.83-177.59-151.43-195,19.88-376.81-280.48-477.58-61.53-16,34.82-46,41.31-98,64.93-48.56,22-83.59,78.35-77.74,148q.51,6.43,1.53,12.95c.81,5.57,1.93,11.18,3.29,16.92,1.33,5.44,2.89,10.94,4.72,16.44a250.17,250.17,0,0,0,23,49.64c.21.31.38.62.55.92h788.43c6.35-1.73,11.92-25.31,12.5-58.34C1830.16,632.39,1830.2,631.68,1830.16,631Z"/><ellipse class="cls-7" cx="1211.26" cy="671.29" rx="58.97" ry="14.15"/><ellipse class="cls-7" cx="1658.17" cy="669.69" rx="48.63" ry="14.84"/><path class="cls-8" d="M1349,366.83l4-8.33-5.63-5.63,2.58-3.08-5.28-6.51-11.18-37-83.17,36.13L1264.12,377l10.86,9.23-.75,14,5,5.9L1297.53,446c1.89,3.35,21.1-3.9,42.92-16.19s38-25,36.09-28.32Z"/><path class="cls-9" d="M1333.47,306.29c1.53,3.52-15.84,14.47-38.81,24.44s-42.83,15.21-44.36,11.69S1266.15,328,1289.12,318,1331.94,302.76,1333.47,306.29Z"/><path class="cls-10" d="M1298.68,321.4c.71,1.62-7.28,6.66-17.84,11.24s-19.7,7-20.4,5.38,7.28-6.66,17.84-11.25S1298,319.78,1298.68,321.4Z"/><path class="cls-11" d="M1366.67,277.11s-14.52-7-31.39,3.69c0,0,34.19,96.27,34.87,195.76a3,3,0,0,0,0,.95v0h0s0,.07,0,.1c.72,3.59,7.91,5.16,16,3.5s16.93-6.6,16.2-10.2c0-.11-.06-.22-.1-.33C1400.29,463.65,1367.5,350.58,1366.67,277.11Z"/><path class="cls-12" d="M1366.67,277.11c.2,2.22-2.73,4.42-6.91,6a36.13,36.13,0,0,1-9.2,2A32.32,32.32,0,0,1,1344,285c-5.11-.64-8.76-2.6-9-5.22-.32-3.65,6.13-7.19,14.41-7.92S1366.36,273.46,1366.67,277.11Z"/><path class="cls-13" d="M1361.66,280.44c.08.91-.66,1.83-1.9,2.64a36.13,36.13,0,0,1-9.2,2A32.32,32.32,0,0,1,1344,285c-1.84-.64-3-1.62-3.14-2.82-.2-2.4,4-4.72,9.47-5.19S1361.45,278,1361.66,280.44Z"/><path class="cls-14" d="M1341.17,284.54s-15.15-5.49-30.86,6.85c0,0,43.78,92.31,54.54,191.22a3.27,3.27,0,0,0,.1.94v0h0s0,.06,0,.09c1.09,3.5,8.4,4.33,16.33,1.86s16.17-8.29,15.08-11.79c0-.11-.08-.22-.13-.33C1393.53,466.71,1349.44,357.54,1341.17,284.54Z"/><path class="cls-15" d="M1341.17,284.54c.42,2.19-2.27,4.68-6.27,6.64a36.17,36.17,0,0,1-9,2.94,31.66,31.66,0,0,1-6.53.57c-5.15-.11-9-1.69-9.48-4.28-.68-3.6,5.38-7.77,13.53-9.33S1340.49,280.94,1341.17,284.54Z"/><path class="cls-16" d="M1336.52,288.35c.17.91-.47,1.9-1.62,2.83a36.17,36.17,0,0,1-9,2.94,31.66,31.66,0,0,1-6.53.57c-1.9-.44-3.18-1.3-3.41-2.48-.45-2.36,3.53-5.11,8.89-6.13S1336.07,286,1336.52,288.35Z"/><path class="cls-17" d="M1393.91,296.84a35.89,35.89,0,0,0-32.33-3.35s20.47,102.78,6.54,201.27a2.8,2.8,0,0,0-.13.95v0h0a.27.27,0,0,0,0,.09c.21,3.72,7.26,6.87,15.74,7.05s18.11-2.76,17.9-6.47a2.25,2.25,0,0,0-.06-.36C1400.54,488.72,1384,369.64,1393.91,296.84Z"/><path class="cls-15" d="M1393.91,296.84c-.13,2.23-3.42,3.76-7.88,4.36a37.33,37.33,0,0,1-9.61-.06,34.28,34.28,0,0,1-6.63-1.55c-5.08-1.77-8.49-4.52-8.34-7.16.22-3.68,7.27-5.74,15.75-4.62S1394.12,293.16,1393.91,296.84Z"/><path class="cls-16" d="M1388.34,299c0,.92-.93,1.66-2.31,2.19a37.33,37.33,0,0,1-9.61-.06,34.28,34.28,0,0,1-6.63-1.55c-1.77-1-2.83-2.28-2.76-3.48.14-2.42,4.77-3.77,10.35-3S1388.48,296.59,1388.34,299Z"/><path class="cls-18" d="M1420.36,295a35.9,35.9,0,0,0-31.79-6.79s9.38,104.38-15,200.83a3.19,3.19,0,0,0-.23.92v0h0a.31.31,0,0,0,0,.1c-.19,3.71,6.48,7.6,14.9,8.68s18.3-.81,18.48-4.52a2.17,2.17,0,0,0,0-.36C1406.46,486.47,1402.68,366.31,1420.36,295Z"/><path class="cls-15" d="M1420.36,295c-.37,2.2-3.8,3.37-8.3,3.49a37,37,0,0,1-9.55-1.08,34.88,34.88,0,0,1-6.43-2.25c-4.86-2.3-8-5.4-7.52-8,.61-3.63,7.84-4.93,16.15-2.9S1421,291.35,1420.36,295Z"/><path class="cls-16" d="M1414.59,296.55c-.15.91-1.1,1.55-2.53,1.93a37,37,0,0,1-9.55-1.08,34.88,34.88,0,0,1-6.43-2.25c-1.65-1.23-2.57-2.57-2.37-3.76.4-2.39,5.15-3.24,10.61-1.9S1415,294.16,1414.59,296.55Z"/><path class="cls-19" d="M1555.08,409,1471.45,286.5s-99.71,37.12-92.94,56.54a4.94,4.94,0,0,0,1.52,2.22l82.12,120.25Z"/><path class="cls-20" d="M1555.08,409s-99.71,37.11-92.93,56.53,95-45.41,95-45.41Z"/><path class="cls-21" d="M1469,297.61s-44.6,17.26-53.34,23.88l73.15,104.93s42.12-21.19,53-22.95Z"/><path class="cls-22" d="M1411.79,324.26l71.88,105.51s-15.72,8.17-18.82,13.55L1392.67,338S1394.3,332.78,1411.79,324.26Z"/><path class="cls-23" d="M1583.65,328.51c-9.1-7.73-2.46-17.95-2.46-17.95L1561,305.19l-20.22-5.38s.69,12.16-11,14.35-21.46-2-36.15,53.2-2.29,56.6,33.31,66.07,47,14.44,61.73-40.8S1592.75,336.24,1583.65,328.51Z"/><rect class="cls-24" x="1539.45" y="295.64" width="45.55" height="9.71" transform="translate(129.7 -391.4) rotate(14.89)"/><path class="cls-25" d="M1561.75,574.53c-10.5,4.65-20.41,7.21-24.77,3.63a5.15,5.15,0,0,1-.71-.69c-2.36-2.74-2.34-8.08,1.33-17,9.78-23.86,26.14-24.79,42.16-29.43,15.82-4.58,13.37-21.32,13.31-21.74C1606.12,548.34,1579.55,566.64,1561.75,574.53Z"/><path class="cls-26" d="M1537,578.16a5.15,5.15,0,0,1-.71-.69c2.77-4.47,8.63-13,15.14-17a94.5,94.5,0,0,1,10.17-5.11c6.9-3.14,14-6.39,19.54-12.16l.69.66c-5.64,5.9-12.85,9.18-19.84,12.36a94.29,94.29,0,0,0-10.06,5.06C1545.56,565.16,1539.67,573.8,1537,578.16Z"/><path class="cls-27" d="M1584,605.15c-13.17-.38-19.44-12.06-37.73,3.66-15.78,13.56-30.28-7.62-34-13.67-.58-1-.89-1.54-.89-1.54l.73.33c3,1.31,14.74,5.61,19.36-3,5.33-10,17.5-22.55,29.16-16.35s16.14-2.61,26.65-7.86,22.23,10.48,22.23,10.48S1597.15,605.53,1584,605.15Z"/><path class="cls-28" d="M1544.69,593.9c-3.24,3.74-6.59,7.61-12.74,8.89-8.39,1.75-15.58-3.6-19.65-7.65-.58-1-.89-1.54-.89-1.54l.73.33c3.81,4,11.11,9.93,19.66,8.15,5.91-1.24,9.18-5,12.34-8.66,3.65-4.22,7.43-8.59,15.2-8.84a28.74,28.74,0,0,1,9.07,1.46c4,1.13,7.77,2.19,12.54.09l.3.67c-5,2.21-8.91,1.11-13,0a28.26,28.26,0,0,0-8.86-1.44C1551.92,585.56,1548.41,589.61,1544.69,593.9Z"/><path class="cls-29" d="M1306.52,521.5c-5.29,16.74,19.19,53.11,22.84,58.4l.45.64s-.93-.16-2.56-.51c-10.7-2.34-51.46-13.1-53.65-41.62-2.52-32.85-17.55-20.74-39.92-44.36s-1-50.89-1-50.89C1273.62,455.84,1312.24,503.42,1306.52,521.5Z"/><path class="cls-30" d="M1329.81,580.54s-.93-.16-2.56-.51l-1.6-1.23c-10.51-8.1-23.86-19.49-27.77-27.77a141,141,0,0,1-6.12-16.84c-3.87-12.21-7.87-24.83-16.3-29.57-12.89-7.21-19.65-24.86-19.93-25.61l1.32-.49c.06.18,6.87,17.91,19.3,24.88,8.92,5,13,17.89,17,30.37a138.9,138.9,0,0,0,6.05,16.66c3.85,8.14,17.84,20.14,30.2,29.47Z"/><path class="cls-29" d="M1320.74,553.39c1.56,15.55,12.38,21.38,15.73,22.82.61.26,1,.38,1,.38a13.45,13.45,0,0,1-2.3.67c-11.34,2.42-43.81-.14-53.71-17.14-10.68-18.36-22.79-1.62-42-13.14-26.15-15.65-9.56-42.14-9.56-42.14-1.54,11.19,21.94,28.71,42.67,26.36S1318.88,535,1320.74,553.39Z"/><path class="cls-31" d="M1301.43,559.06c4.73,6.09,9.19,11.84,16,12.6a103.26,103.26,0,0,1,19.08,4.55c.61.26,1,.38,1,.38a13.45,13.45,0,0,1-2.3.67,98.45,98.45,0,0,0-17.93-4.2c-7.35-.83-12-6.81-16.9-13.14-5.57-7.18-11.33-14.61-21.62-15.12-19.65-1-32-7.62-32.09-7.69l.68-1.24c.11.07,12.17,6.58,31.48,7.53C1289.71,543.94,1295.67,551.62,1301.43,559.06Z"/><path class="cls-32" d="M1621,385.94s-44.71,96-81.12,253.35h-218c-36.41-157.34-81.12-253.35-81.12-253.35Z"/><path class="cls-33" d="M1492,525.69l-12.33,13.5c4.57,4.18,8,11.13,7.38,14.89-.11.62-.33,1.93-3.32,3.2-7.5,3.2-29.47,2-45-.06l1.06-8.77-36.58,13.07,32.22,23.08,1.11-9.21a240.07,240.07,0,0,0,29.81,2.17c9.28,0,18.39-.85,24.5-3.45,7.85-3.35,12.89-9.37,14.18-17C1507.06,545.54,1499.69,532.7,1492,525.69Z"/><path class="cls-33" d="M1396.28,505.62l8,5.7,6.1-38.36-35.72,17.18,6.77,4.83c-7.34,10-23.44,33.47-24.89,48.16-.83,8.49,2,15.8,8.07,20.58,5.36,4.25,12.61,5.93,19.66,5.93a45.17,45.17,0,0,0,14.21-2.29l-5.92-17.3c-5.86,2-13.61,1.68-16.6-.68-.5-.39-1.53-1.21-1.22-4.45C1375.51,536.83,1387.06,518.22,1396.28,505.62Z"/><path class="cls-33" d="M1479.46,489.21c-4.43-11-16.21-38.15-28.25-47.32-6.79-5.18-14.51-6.58-21.75-3.95-11.07,4-18.59,16.76-20.89,26.91l17.83,4c1.37-6,5.72-12.47,9.3-13.77.6-.22,1.84-.67,4.42,1.3,6.6,5,16.63,25.33,22.47,39.85l-8.45,3.55,29.43,25.34,4.14-39.42Z"/><path class="cls-34" d="M1543.37,466.71s-1.84-3.22,1.07-11.82a8.68,8.68,0,0,1,15.66-2.24c3.1,5.33,2.05,8.65-2.51,14.67S1545.26,469.46,1543.37,466.71Z"/><path class="cls-34" d="M1566,614.81s.48,3.54.54,4.07,5.37-.32,5.37-.32l.43-4.21S1566.66,614.31,1566,614.81Z"/><path class="cls-35" d="M1566.49,618.43a14.61,14.61,0,0,1-3.31,3.06c-1.62.92-4.18,1.29-5.14,2.25-.69.7-2.53,3.68,4.22,3.62s10,.42,10.73-.72-1-8.45-1-8.45A18.92,18.92,0,0,1,1566.49,618.43Z"/><path class="cls-34" d="M1529.28,614.81s.48,3.54.54,4.07,5.36-.32,5.36-.32l.43-4.21S1529.94,614.31,1529.28,614.81Z"/><path class="cls-35" d="M1529.76,618.43a14.7,14.7,0,0,1-3.3,3.06c-1.63.92-7.61,1.69-8.57,2.65-.7.69-1.85,3.48,7.65,3.22,6.75-.18,10,.42,10.73-.72s-1-8.45-1-8.45A28.38,28.38,0,0,1,1529.76,618.43Z"/><path class="cls-36" d="M1564.21,526.78s2.72,8.45,2.37,15.74,1.4,15.25,2.12,22.86c.81,8.48,4.1,28.56,4.22,33.09s-.51,19-.51,19l-6.59.16s-5.53-35.11-7-38.69-8.54-29.11-8.78-32S1564.21,526.78,1564.21,526.78Z"/><path class="cls-36" d="M1536.9,525.9s-4,22.35-4.47,26.81-.8,21.57-1,24.35-1.59,36.46-2.86,40.6h7.34s7.54-24.48,7.54-36.06,5-25.18,8.22-32.82,10.6-7.82,12.58-22C1564.21,526.78,1539.59,521.41,1536.9,525.9Z"/><path class="cls-34" d="M1546,469a6.37,6.37,0,0,1,0,4.13c-.83,1.72,10.59.69,10.59.69a12.25,12.25,0,0,1,1-6.48C1559.08,464.39,1546,469,1546,469Z"/><path class="cls-34" d="M1544.3,473.67s-4.21.43-5.42.66-9.31-1.45-11-1.62-8.76-5-9-5.61-4.31-10.91-4.54-13.15-4-1.08-3.66.46c.6,2.88,1.37,9.88,1.8,11.91.46,2.19,1.68,7.15,2.37,7.76s7.07,5.47,13.32,7.53a53.12,53.12,0,0,1,11,5.11H1570s12-17.13,12.24-19.71-8.37-19.74-10.09-21.89-4.21.7-4.21.7,5.16,15.13,5.85,17.28-6,11.6-7.83,11.63-6.55-.57-8.65-.66a14.52,14.52,0,0,1-4.3-1Z"/><path class="cls-37" d="M1531,485.11s3.77,2.51,4.11,6.81a88.4,88.4,0,0,0,2.41,13.42c.69,2.32-.6,19.19-.77,20.39s23.84,4.07,27.52,1.2c0,0,1-15.74,1.47-20.21s2.49-15.32,3.18-16.78,9-13.17,9.38-14.71c0,0-4.32-6.88-7.42-7,0,0-4.92,5.77-6.52,6s-11.43-1.55-11.44-1.56-1.07,1.46-6.77-.26c0,0-6.79.76-7.9.9-1.34.18-10.64-1.16-10.64-1.16s-3.73,6.3-3.08,9.48Z"/><path class="cls-34" d="M1514.6,455.29s-.85-4,.17-5.13c.57-.65,2-2.38,2.09-2.63s1.61-1.11,1.61-1.52-1.45-.92-2.72.25-2.06,1.43-2.57,1.3-1.23-4.34-1.3-5.38-.46-3.81-1.12-3.62-.62,1.4-.62,1.4-.76-2.1-1.27-1.68-.44,1.42-.44,1.42-1-1.17-1.21-.31a3,3,0,0,0,0,1.61s-1-.54-1,.79.28,5.23,1,6.63,3.31,5,3.62,6.46S1514.6,455.29,1514.6,455.29Z"/><path class="cls-34" d="M1568.76,448.29s-2.86-4.82-3.84-5.25a16.36,16.36,0,0,1-3.55-1.53c-1.21-.86-2.8-1.58-2.71-1.87s1.5-.17,3,.49,2.19.34,2.33,0a8.71,8.71,0,0,0-1.27-3.35c-.46-.57-3.73-3.86-3.18-4.35s2.67,1.32,3,1.69c0,0-1.69-3.55-1-3.72s1.89,1.09,1.89,1.09-.14-3,3.13,1.89c0,0-.69-1.64.31-1.09s2,3.61,2.3,5.16,1.74,6.48,3,7.67S1568.76,448.29,1568.76,448.29Z"/><path class="cls-38" d="M1557.59,467.32a13.08,13.08,0,0,1-4.72-1c-3.21-1.11-3.45-6.72-4.15-6.06a2,2,0,0,1-3.29-.38s1.57-2.06.84-3.06a7.68,7.68,0,0,0-1.91-1.72s2.26-10.89,12.54-5.93C1569,455,1557.59,467.32,1557.59,467.32Z"/><path class="cls-37" d="M1546,473.11l.36-1.57a82.81,82.81,0,0,1,10.14.38l.38,1.88S1552.33,475.88,1546,473.11Z"/><path class="cls-34" d="M1547.65,458.91c.59-1,2.8-1.66,3.06,1.14.2,2.18-3.94,4.55-4,2.53A6.07,6.07,0,0,1,1547.65,458.91Z"/><path class="cls-39" d="M1514.44,454.39a6.6,6.6,0,0,0-3.52,1.09,2.38,2.38,0,0,0,.2,1.18,14.57,14.57,0,0,1,3.62-1.14S1514.71,454.66,1514.44,454.39Z"/><path class="cls-38" d="M1511.65,455a1,1,0,1,0,1.33-.54A1,1,0,0,0,1511.65,455Z"/><polygon class="cls-40" points="1578.99 628.38 1514.69 628.38 1534.95 690.62 1533.06 691.23 1511.94 626.38 1580.44 626.38 1601.36 690.62 1599.46 691.23 1578.99 628.38"/><polygon class="cls-40" points="1557.11 690.62 1577.37 628.38 1513.07 628.38 1492.6 691.23 1490.7 690.62 1511.62 626.38 1580.12 626.38 1559 691.23 1557.11 690.62"/><rect class="cls-40" x="1506.27" y="645.98" width="78.71" height="1.99"/><rect class="cls-40" x="1498.91" y="667.62" width="94.17" height="1.99"/><path class="cls-41" d="M1247.76,667.34a11.5,11.5,0,0,0,2.19,1.86c.8.39,10.36,2,11,2.82s.65,3.85-1.82,3.85-10.69,0-12.07,0-7.23,1.21-7.83,0-.55-6.87.52-8.22S1247.76,667.34,1247.76,667.34Z"/><path class="cls-34" d="M1247.47,665.63l.29,1.71s-2.55,1.17-8,.31v-1.78Z"/><path class="cls-41" d="M1166.9,659.82s-1.51,1.77-1.6,2.85-1.94,5.84-1.25,7,6.14,1.34,8.87.91,8.65.47,9.26-.69,1-2.88-.83-3.54-5.84-2.39-6.57-4.21S1166.9,659.82,1166.9,659.82Z"/><path class="cls-34" d="M1175.54,660.21l-.76,1.94s-7.81-.58-7.88-2.33l2.47-3.59Z"/><path class="cls-36" d="M1225,599.35s1.09,1.5,1.9,2.37,14.42,16.15,15.29,18.17,1.09,9.8,1.38,12.63,4.79,32.19,5,32.59-8.32,2.36-11.9.52c0,0-2.46-18.58-3.33-21.63s-2.42-13.5-2.25-14.71-11-14.08-14.07-16-10.73-8.65-11.6-9.52-5.76-3.17-5.3-7.56a15.31,15.31,0,0,1,3.72-7.84Z"/><path class="cls-36" d="M1211.26,608.93l-1.17,3.07c-1.47,3.86-3.84,10.07-4.24,11.06-.57,1.44-3.46,7.67-4.84,8.88s-24.17,28.55-24.23,28.79-8.53-4.16-9-5.83c0,0,12.34-16.1,14.24-18.46s5.89-5.88,7.22-11.48S1200,597.85,1200.06,597c0,0,1.53-6.63,3.75-8.65s10.29.35,11.56,4.56S1211.26,608.93,1211.26,608.93Z"/><ellipse class="cls-42" cx="1292.45" cy="667.97" rx="28.55" ry="4.73"/><path class="cls-42" d="M1326.85,673.68c0,1.83-9,3.32-20,3.32s-20-1.49-20-3.32,9-3.32,20-3.32S1326.85,671.84,1326.85,673.68Z"/><polygon class="cls-43" points="1308.34 652.7 1281.72 664.83 1281.88 657.01 1308.5 644.88 1308.34 652.7"/><path class="cls-37" d="M1231.29,554.9a53.79,53.79,0,0,0-7.67,0c-3.17.32-7.56,2.92-10.21,3.67s-9.05,5-8.88,5.64a47.65,47.65,0,0,0,7.24,13.28C1215.69,582.36,1231.29,554.9,1231.29,554.9Z"/><path class="cls-44" d="M1221.59,557.72s-4.85,3.59-6.53,6.88a26.56,26.56,0,0,0-2.27,7.2Z"/><rect class="cls-45" x="1246.89" y="534.42" width="1.73" height="138.66" transform="translate(-52.79 1083.31) rotate(-46.06)"/><path class="cls-34" d="M1239.62,551.62s-4.32,3.66-5.56,3.36,4.27,7.82,4.27,7.82,5.24-5.16,6.42-5.32S1239.62,551.62,1239.62,551.62Z"/><path class="cls-37" d="M1240.75,582a7.36,7.36,0,0,1-.86,1.06c-.13.12-.29.25-.48.4h0a71.88,71.88,0,0,1-7.54,5.14c-2,1.1-6.92,10.73-6.92,10.73s-18.63-1-22.78-10.3c0,0,4.58-7.23,7.26-11.13S1218,560,1221.11,558s5.8-3.29,11.94-3.11a12.87,12.87,0,0,1,9.55,5s4.67,5,5.13,7.68C1248.13,569.91,1243.06,578.81,1240.75,582Z"/><path class="cls-37" d="M1240,566.18c-1.49.9-1.73,1.19-1.56,5.42s1.93,7.66,2.06,8.83,3.25,14.93,3.89,15.57,8.24,9.81,9,10.56,6.05,7.33,6.05,7.33l3.81-1.33s-10.15-17.65-10.55-18.63-3.32-17.5-3.66-19.28.25-4.6-1.88-8.84C1245.18,562,1240,566.18,1240,566.18Z"/><path class="cls-34" d="M1263.34,612.63a17.18,17.18,0,0,0,1.12,2.78c.47.72,1.1,1,.66,1.63s-1.26,2.38-1.9,3.27-5.92.3-6.68-.33-1-5.3.18-6.6,3-3.15,3-3.15Z"/><path class="cls-34" d="M1252.54,593.61a17.28,17.28,0,0,0-8.2,2.39s5.82,6.94,7.91,9.33,7.13,8.56,7.13,8.56l3.81-1.33s-6.23-10.73-7.32-13.21A45.51,45.51,0,0,0,1252.54,593.61Z"/><path class="cls-34" d="M1257.11,544.51s-.37,5.26-1.56,6-.09,5.07-.9,5.29-2.19.22-2.28.38-4.24,4.54-5.39,3.92-8.24-5.95-7.3-8.66,2.55-8.95,2.76-10.17S1251.76,535.64,1257.11,544.51Z"/><path class="cls-46" d="M1248.54,537.66a9.56,9.56,0,0,0-2.46.42c-.63-.1-4.64.58-5.08,2.5-.59,2.59-.88,9.07-1,9.83,0,.1.09,0,.27-.37,1.51-1.81,5.37-2.37,5.37-2.37l1.66.28a4.52,4.52,0,0,1,1.21-2.66c2.49-.57,8.41,1,8.41,1C1260.85,539,1253.37,537.45,1248.54,537.66Z"/><path class="cls-34" d="M1246.25,545.74a1.37,1.37,0,0,0-2.6-.17c-.77,1.7.6,4.41,1.53,4S1246.24,546.53,1246.25,545.74Z"/><path class="cls-37" d="M1233.66,554.94l1.84-.73a13.83,13.83,0,0,1,7.33,4.79l-.23,1.11S1235.52,558.58,1233.66,554.94Z"/><path class="cls-44" d="M1240.75,582a7.36,7.36,0,0,1-.86,1.06c-.13.12-.29.25-.48.4h0l-.17-7,1,3.09C1240.37,580,1240.75,582,1240.75,582Z"/><path class="cls-47" d="M1211.26,608.93l-1.17,3.07c-1.55-1.78-5.09-8.53-5.09-8.53.23.17,1,.86,1.14,1Z"/><polygon class="cls-45" points="1311.66 647.06 1285.05 659.19 1281.88 657.01 1308.5 644.88 1311.66 647.06"/><polygon class="cls-43" points="1311.51 654.88 1284.89 667.01 1285.05 659.19 1311.66 647.06 1311.51 654.88"/><polygon class="cls-43" points="1284.89 667.01 1281.72 664.83 1285 661.42 1284.89 667.01"/><path class="cls-48" d="M1376.39,562.41a15.44,15.44,0,0,0,3.22,3.52c1.64,1.15,8,2.63,8.92,3.73.66.79,1.6,3.79-8.59,2.42-7.24-1-10.81-.73-11.46-2s2.07-8.56,2.07-8.56S1372.1,562.37,1376.39,562.41Z"/><rect class="cls-45" x="1283.33" y="555.6" width="208.12" height="2.57" transform="matrix(0.1, -1, 1, 0.1, 697.65, 1883.25)"/><polygon class="cls-45" points="1337.06 656.55 1357.39 449.43 1354.83 449.18 1334.5 656.31 1337.06 656.55"/><rect class="cls-45" x="1375.07" y="435.27" width="2.57" height="41.64" transform="translate(789.34 1781.9) rotate(-84.45)"/><rect class="cls-45" x="1373.2" y="454.54" width="2.57" height="41.64" transform="matrix(0.1, -1, 1, 0.1, 768.69, 1797.55)"/><rect class="cls-45" x="1371.33" y="473.81" width="2.57" height="41.64" transform="translate(747.82 1813.1) rotate(-84.46)"/><rect class="cls-45" x="1369.46" y="493.08" width="2.57" height="41.64" transform="translate(726.95 1828.65) rotate(-84.46)"/><rect class="cls-45" x="1367.59" y="512.35" width="2.57" height="41.64" transform="translate(706.08 1844.2) rotate(-84.46)"/><rect class="cls-45" x="1365.72" y="531.62" width="2.57" height="41.64" transform="translate(685.31 1859.8) rotate(-84.47)"/><rect class="cls-45" x="1363.85" y="550.89" width="2.58" height="41.64" transform="matrix(0.1, -1, 1, 0.1, 664.14, 1875.19)"/><rect class="cls-45" x="1361.98" y="570.16" width="2.57" height="41.64" transform="translate(643.07 1890.63) rotate(-84.44)"/><rect class="cls-45" x="1360.11" y="589.44" width="2.57" height="41.64" transform="translate(622.6 1906.4) rotate(-84.46)"/><rect class="cls-45" x="1358.24" y="608.71" width="2.57" height="41.64" transform="translate(601.77 1921.97) rotate(-84.46)"/><rect class="cls-45" x="1356.37" y="627.98" width="2.57" height="41.64" transform="translate(580.9 1937.52) rotate(-84.46)"/><path class="cls-49" d="M1397.86,385l-.72,14.89-3.16,7.74-.29,10-7,7.27L1365,433.44a.89.89,0,0,0-.72.24c-1.57,1.76,7.21,12.61,19.61,24.21s23.73,19.59,25.3,17.82l20.43-31.43,1.91-11.15,9.58-4.57L1458,395.34Z"/><path class="cls-50" d="M1458,395.34c-.4,2.35-14.19,2-30.79-.9s-29.74-7.06-29.34-9.4,14.19-2,30.8.9S1458.4,393,1458,395.34Z"/><path class="cls-10" d="M1451.2,393.9c-.08.5-3,.41-6.6-.2s-6.39-1.51-6.3-2,3-.41,6.61.2S1451.29,393.39,1451.2,393.9Z"/><path class="cls-51" d="M1377.32,558.75s-.92,3.57-1,4.11-5.73-.94-5.73-.94v-4.38S1376.66,558.16,1377.32,558.75Z"/><path class="cls-52" d="M1384.24,483.41s4.08,15.16,5.15,20.58c.94,4.72,2.83,17.3,3.1,20.29s-12,31.92-13.33,37.15l-11.23-1.8s11.84-30.12,8.75-36.81c-4.59-10-5.19-9.66-8.81-17.86s-11.9-8.39-14.13-23.6C1353.74,481.36,1381.22,478.59,1384.24,483.41Z"/><path class="cls-34" d="M1364.28,409.76s7.45-2.78,10.89,2.89,3.1,17-.65,18.43-9.4.66-11.33-2.89-3.66-8.68-3.57-12.11S1362.32,410.75,1364.28,409.76Z"/><path class="cls-34" d="M1373.26,430.73a6.22,6.22,0,0,0,.2,2.91c.5,1-9.37,1-9.37,1a65.1,65.1,0,0,0-2.32-9.66C1360.25,420.55,1373.26,430.73,1373.26,430.73Z"/><path class="cls-53" d="M1361.77,425s.68,1.13,3.46.69,6.17-4.13,7.33-4.54,1.18-1.09,1.18-1.09l.72,1.06,1.24.08s-1.13-3.31.57-4.66-1.76-10.71-10.68-7.59c0,0-6.85,1.89-6.6,5.78S1360.23,423,1361.77,425Z"/><path class="cls-34" d="M1373.55,418.61c-.15-.65-1.82-2.52-2.45-.52s1,4.69,1.85,4.46S1374,420.27,1373.55,418.61Z"/><path class="cls-36" d="M1345.13,459.22a4.38,4.38,0,0,0,2,2.56,3.19,3.19,0,0,0,1.7.56h.44l7.74.27s5.76-18.61-5-25.71C1351.6,437,1344.38,450.25,1345.13,459.22Z"/><path class="cls-48" d="M1368.48,570.09c.65,1.26,4.22,1,11.46,2a32.08,32.08,0,0,0,4.76.35l.42-4.35a32,32,0,0,1-5.51-2.15,15.44,15.44,0,0,1-3.22-3.52c-4.29,0-5.84-.88-5.84-.88S1367.83,568.83,1368.48,570.09Z"/><path class="cls-36" d="M1373.27,433.08s-6.08-1.42-9.5-.26l-.52.48s-1,2,2.88,2.17S1376.21,435.92,1373.27,433.08Z"/><path class="cls-51" d="M1349.52,575.48s-.91,3.58-1,4.11-5.74-.94-5.74-.94v-4.38S1348.86,574.89,1349.52,575.48Z"/><path class="cls-52" d="M1353.74,481.36a118.77,118.77,0,0,0-2.65,16.88c-.56,7.81-1.58,16.37-2.39,24.53-.9,9.11-3.47,23.82-3.61,28.69s-4.23,26.15-4.23,26.15l10.48,1.2s6.81-37.6,8.42-41.45,9.59-31.24,9.85-34.32S1353.74,481.36,1353.74,481.36Z"/><path class="cls-48" d="M1348.6,579.14a15.73,15.73,0,0,0,3.21,3.53c1.65,1.14,8,2.62,8.92,3.72.67.79,1.6,3.8-8.58,2.42-7.24-1-10.81-.72-11.46-2s2.06-8.57,2.06-8.57S1344.3,579.1,1348.6,579.14Z"/><path class="cls-36" d="M1386.36,502.35c.89-.13-2.22-26.74-2-28.41.16-1.12.13-9.77.07-15.16l1-5.46c.54-.39,1.27-.85,2.14-1.35,1.35-.78,3-1.67,4.93-2.61-.22-1.29-.37-2.3-.43-2.9a10.9,10.9,0,0,0-5.52-8.4,10.15,10.15,0,0,0-1.25-.63l-2-.85c-4.4-1.81-10-3.5-10-3.5h-9a75.43,75.43,0,0,0-10.9,3,7.47,7.47,0,0,0-1.47.8l1.22,25.58h0s0,0,0,0c.55,3.59,1.12,7.84,1.32,10.81.08,1.22-1.31,7.74-2,13.73l-2.54,14.33S1351.37,507.35,1386.36,502.35Z"/><path class="cls-34" d="M1432.15,419.41a4,4,0,0,1-.9.83s-.7.26-1.18.48a3.25,3.25,0,0,0-.37.18,6.93,6.93,0,0,1-2,1.05c-1,.28-5.29,1.27-5.29,1.27l-1-2.58-.72-2.07s4-5.2,4.88-5.56l.25-.09a8.6,8.6,0,0,1,1.84-.16c.15,0,1.68-.2,2,.11a1.54,1.54,0,0,1,.52,1.37,3.6,3.6,0,0,1,.92,1.75,2.23,2.23,0,0,1,.6,1.87S1432.45,418.78,1432.15,419.41Z"/><path class="cls-36" d="M1385.71,453.12a59,59,0,0,1,6.78-3.76c8.34-4.17,18.64-11.74,20.6-12.84,3-1.68,12.53-13.3,12.53-13.3-.49-1.76-5-5.27-5-5.27s-14.43,13.66-17.58,15.35c-2.71,1.44-16.1,2.9-19.79,3.28l-.94.1C1378.45,441.93,1383.56,454.5,1385.71,453.12Z"/><rect class="cls-54" x="1674.98" y="576.34" width="23.61" height="17.46" transform="translate(3420.79 1010.27) rotate(174.65)"/><path class="cls-55" d="M1657.43,535s-16.57,1.1-17.18-.29c-.85-1.94.42-13.9.42-13.9l-3.92-.19s-5.37,19,.32,20.43,21,.48,21,.48Z"/><path class="cls-56" d="M1654.08,543.08l-2.41-7.94s12.45-2.74,12.85,3.16C1664.52,538.3,1662,544.88,1654.08,543.08Z"/><path class="cls-36" d="M1670.77,511.07s9.87,1.45,7.23,11.58-4.61,11.28-4.4,18.92-8.49-6.29-8.49-6.29Z"/><path class="cls-54" d="M1635.71,672.1c1.76-1.15,5.93-8.23,5.93-8.23s1.92-4.9,5-3.34c1.91,1,2,3.15,1.58,4.84l-1.08,8.34-.59,0,.17-5.76c-.89,1.66-1.52,5-2.61,6.25-1.27,1.45-7.08,1-8.21,1S1633.31,673.67,1635.71,672.1Z"/><path class="cls-54" d="M1675.21,666.89c1.16-1.76,2.16-9.91,2.16-9.91s-.21-5.26,3.29-5.08c2.13.11,3.14,2.06,3.38,3.8l2.34,8.08-.52.26-2.15-5.35c-.16,1.88.61,5.2.11,6.77-.6,1.84-6.08,3.78-7.12,4.23S1673.65,669.29,1675.21,666.89Z"/><path class="cls-55" d="M1660,595.08c-.2,1-1.53,5.2-3,9.87h0c-1.36,4.26-2.85,8.9-3.75,11.86-.33,1.11-.58,2-.71,2.51-.86,3.51.11,9,.42,13.61s-6.37,30.38-6.37,30.38c-1.17.54-3.36-3.15-3.36-3.15.86-1.63.73-30.7.27-32.5a27.09,27.09,0,0,1-.31-8.73,8,8,0,0,0,.15-1.56c0-2.46-.47-6.53-.78-11-.39-5.61,1.79-19.57,2.11-20.82,0-.11.07-.27.13-.47.57-2,2.42-7.51,2.42-7.51,3.75-1.12,6.58-1.32,8.68-.89a6.47,6.47,0,0,1,5.1,4.37C1662.81,586.13,1660.27,593.77,1660,595.08Z"/><path class="cls-55" d="M1681.11,652.59l-3.79,1.33c-.65-3.11-16.07-24.93-17-27.35a35.21,35.21,0,0,1-1.94-8.81c0-.3,0-.82-.07-1.49-.16-2.6-.64-7.5-1.32-11.32-.13-.71-.26-1.39-.41-2-.75-3.29-.88-14.54-.89-21.15,0-2.94,0-5,0-5l.19-.14c1.42-1.08,10.54-7.64,13.72-1.5a18.19,18.19,0,0,1,1.72,5.17c1,5.55,0,11.81-.8,17.51-.7,4.88-2,11.78-2.44,16.89-.21,2.82-.14,5.09.5,6.2,1.79,3.12,3.55,5.76,7.17,16.76C1676.93,641.3,1681.11,652.59,1681.11,652.59Z"/><path class="cls-56" d="M1644.65,585.56c3.34,1.19,26.74-1.83,27-2.79s-2.67-11.78-3-15.19.77-4.09,1.77-6.57c.39-1,1.44-2.75,2.6-4.77.39-.68.79-1.38,1.18-2.09,1.42-2.55,2.73-5.17,3-6.83,1-7.61-3-9.36-3-9.36-2.11-.84-5.72-2.79-5.72-2.79l-6.26.06a6.66,6.66,0,0,0-1.58.55h0a12.34,12.34,0,0,0-1.59.92,37.44,37.44,0,0,0-4.21,4.08c-.53.57-1.06,1.16-1.57,1.74-1.64,1.88-2.85,3.41-3.2,5.34s1,6.28.83,8.21-.76,9.8-1.34,11.55S1644.65,585.56,1644.65,585.56Z"/><path class="cls-56" d="M1670.52,597.87c-.7,4.88-2.12,12.62-.26,17.09,0,0-6.16.6-12,1.31-1.57.19-3.27.38-5.07.54-3.1.29-6.48.5-9.91.56,0-2.46-.47-6.53-.78-11-.39-5.61,1.79-19.57,2.11-20.82,0-.11.07-.27.13-.47a37,37,0,0,1,10.9-3.29c1.79-.31,3.59-.55,5.3-.74,5.34-.6,9.8-.69,10.34-.7C1672.34,585.91,1671.34,592.17,1670.52,597.87Z"/><path class="cls-34" d="M1662.13,535.23s-5.05,5.69-3.74,6.45,9,.6,13.1-4.91C1671.49,536.77,1667.08,533.6,1662.13,535.23Z"/><path class="cls-34" d="M1671.47,512.33a8.44,8.44,0,0,0-11,4.31,21,21,0,0,0-.48,3.21c-.06,1.46-2.63,4.93-2.39,5.23a9.16,9.16,0,0,0,1.43,1s-.15,4.74,1.36,5.23a13.1,13.1,0,0,0,12.11-3C1677.08,524,1680.8,516.17,1671.47,512.33Z"/><path class="cls-34" d="M1663.42,530.3s0,.66,0,1.62c0,.49-.05,1.06-.1,1.67a11.06,11.06,0,0,1-1.23,4.69s3.07,2.08,7-2c0,0,.24-5.46,2.57-8.18S1663.42,530.3,1663.42,530.3Z"/><path class="cls-36" d="M1660.51,516.64a22.44,22.44,0,0,0,6.48,5.83c3.6,1.88,4.63,6.65,4.63,6.65s8.34-5.18,5.78-12.68S1662.27,509.09,1660.51,516.64Z"/><path class="cls-57" d="M1663.41,531.73c0,.49-.05,1.25-.1,1.86a17.51,17.51,0,0,0,5.91-3.15A17.15,17.15,0,0,1,1663.41,531.73Z"/><path class="cls-34" d="M1640.1,523.14s2.32-1.42,2.66-1.65a6.41,6.41,0,0,0,1.21-2.56,7.68,7.68,0,0,0,.25-3.36,1.2,1.2,0,0,0-.77-.59,2.23,2.23,0,0,0-1.14,0,1.37,1.37,0,0,0-1.29-.28,1.2,1.2,0,0,0-1.32-.05,1,1,0,0,0-1.1-.1,8.73,8.73,0,0,1-.73,1.42,19.17,19.17,0,0,0-1.49,4.95S1635.82,523.46,1640.1,523.14Z"/><rect class="cls-58" x="1629.79" y="516.27" width="24.31" height="1.67" transform="translate(3087.62 1451.66) rotate(-164.6)"/><rect class="cls-58" x="1651.87" y="518.91" width="1.83" height="2.38" transform="translate(3108.22 1460.24) rotate(-164.61)"/><rect class="cls-58" x="1626.71" y="512.71" width="9.4" height="3" transform="translate(3067.78 1443.07) rotate(-164.6)"/><rect class="cls-58" x="1621.54" y="510" width="6.24" height="4.69" transform="translate(3055.18 1437.33) rotate(-164.62)"/><path class="cls-59" d="M1644.12,515.91s-1.11,3.2-1.65,3.08a.83.83,0,0,1-.66-.48l-1.06,1.11s-1.11.33-1.16-1c0,0-1,.43-.9-.85,0,0-.78,0-.84-.61a11.49,11.49,0,0,1,.75-2.63s.36-.39,1.1.06a1.19,1.19,0,0,1,1.33,0,1.29,1.29,0,0,1,1.31.26s1.35-.45,1.88.65A3.39,3.39,0,0,1,1644.12,515.91Z"/><path class="cls-34" d="M1642.81,521.4a11.55,11.55,0,0,0-1-3.49c-.16-.26-.37-.49-.68-.44s-.63.57-.54,1.57a8.32,8.32,0,0,1-.26,2.34S1640.67,522.39,1642.81,521.4Z"/><path class="cls-34" d="M1670,539.1s-3.6,2.33-2.49,5.28,4,5.59,4.89,6.64,7.89,12.48,7.94,13,2.07,9.56,3.42,13.88a62.47,62.47,0,0,1,1.88,10.92l3.45-.65s-.26-21.32-2.57-25.21-7.06-17.49-7.06-17.49S1677,537,1670,539.1Z"/><path class="cls-56" d="M1681.64,548.71l-7.19,5.7s-10.17-9.82-5.47-14.83C1673.92,534.31,1679.36,541.67,1681.64,548.71Z"/><path class="cls-34" d="M1690.9,594.53a2.48,2.48,0,0,0,.17-.85s-.1-.52-.14-.9a1.89,1.89,0,0,1,0-.29,5,5,0,0,0-.1-1.59,32.34,32.34,0,0,0-1.75-3.42l-1.72.43-1.67.17a33.68,33.68,0,0,0-1.07,4.83c0,.06,0,.13,0,.19a7,7,0,0,0,.58,1.17c0,.1.5,1.09.82,1.17a1,1,0,0,0,1-.19,2.52,2.52,0,0,0,1.39-.08,1.62,1.62,0,0,0,1.36-.33S1690.63,595,1690.9,594.53Z"/><path class="cls-55" d="M1643.21,660.16s-4.54,8.89-5.37,10.11,1.56,1.22,3,.64,5.29-6.47,5.7-7.6a6.37,6.37,0,0,0,.12-2.78Z"/><path class="cls-55" d="M1677.25,652.56s-.61,10-.88,11.41,1.91.5,3-.62,2.26-8.05,2.19-9.26a6.34,6.34,0,0,0-1-2.58Z"/><path class="cls-60" d="M1669,547.14c0,3.68,4,9.1,4,9.1.39-.68.79-1.38,1.18-2.09A32.9,32.9,0,0,1,1669,547.14Z"/><path class="cls-36" d="M1668,523.12a13,13,0,0,0,2,6.19c1.88,2.74-10.91,11.4-7.16,16.88s9.46,3.7,10.81,1.9,1-10.39,1-11.06S1676.6,515.48,1668,523.12Z"/><path class="cls-61" d="M1027.47,688.44h793.3a0,0,0,0,1,0,0v3.34a0,0,0,0,1,0,0h-790a3.34,3.34,0,0,1-3.34-3.34v0A0,0,0,0,1,1027.47,688.44Z"/></g></g></g></g></svg>