<svg xmlns="http://www.w3.org/2000/svg" viewBox="0 0 1920 950"><defs><style>.cls-1{isolation:isolate;}.cls-2{fill:#e6ffe6;}.cls-2,.cls-3,.cls-5{mix-blend-mode:multiply;}.cls-3{fill:#3ac340;}.cls-4,.cls-5{fill:#3abe3f;}.cls-4{opacity:0.31;}.cls-5{opacity:0.25;}.cls-6{fill:#ebf2f9;}.cls-7{fill:#f8fcff;}.cls-8{fill:#9ed9f0;}.cls-9{fill:#ffe0b3;}.cls-10{fill:#ffd188;}.cls-11{fill:#d2e4ff;}.cls-12{fill:#c0dbff;}.cls-13{fill:#699ff0;}.cls-14{fill:#4a75cb;}.cls-15,.cls-16{fill:#aed3ff;}.cls-15,.cls-46{opacity:0.5;}.cls-17{fill:#fcc370;}.cls-18{fill:#ee9849;}.cls-19{fill:#233862;}.cls-20{fill:#2b478b;}.cls-21{fill:#ffb27d;}.cls-22{fill:#a8d29f;}.cls-23{fill:#82b378;}.cls-24{fill:#ab7041;}.cls-25{fill:#ed985f;}.cls-26{fill:#942e2a;}.cls-27{fill:#ffb93e;}.cls-28{fill:#e28d05;}.cls-29{fill:#739cf3;}.cls-30{fill:#6488d3;}.cls-31{fill:#d8716b;}.cls-32{fill:#aa3f3a;}.cls-33{fill:#b84c42;}.cls-34{fill:#aa3e39;}.cls-35{fill:#2c3a64;}.cls-36{fill:#415da5;}.cls-37{fill:#ffa412;}.cls-38{fill:#ced4ea;}.cls-38,.cls-40{opacity:0.3;}.cls-39{fill:#f0d170;}.cls-40,.cls-41{fill:#dc8d39;}.cls-42{fill:#ecf2fd;}.cls-43{fill:#e5eaf5;}.cls-44{fill:#d3652c;}.cls-45{fill:#5286d8;}.cls-46{fill:#89bef4;}</style></defs><title>slider-2</title><g class="cls-1"><g id="Layer_2" data-name="Layer 2"><g id="_Layer_" data-name="&lt;Layer&gt;"><g id="Слой_2" data-name="Слой 2"><rect class="cls-2" width="1920" height="950"/><path class="cls-3" d="M1586.05,846.42c213.9-6.79,303.1-226.52,282.51-475C1856,220.22,1788.3,80.4,1665,0H1148.83c-53.49,34-94,75.45-125.69,113.39C895.74,266,879.6,523.81,994.73,655.89S1339.54,854.24,1586.05,846.42Z"/><path class="cls-4" d="M1381,893.58c181,77,430.58,18.46,523.59-128.54q8.22-13,15.43-26.88V154c-.45-1.37-.89-2.74-1.34-4.1C1894.71,78,1849.32,29,1790.33,0h-352q-25.44,8.16-51,18.2c-207.08,81.56-356.63,270.34-300.67,522.93C1135.66,761.94,1274.66,848.31,1381,893.58Z"/><path class="cls-5" d="M1915.69,565.08q2.18-6.09,4.31-12.28V251.45c-23.76-38.69-61.83-72.46-119.41-97.75-195.21-85.76-666.49-25.49-803.18,242C886.63,612.44,1047.58,864.92,1245.2,950h289C1718.3,880.32,1866.49,702,1915.69,565.08Z"/><path class="cls-6" d="M1829.71,596.7c-7.71-3-13.85,8.92-24,5.64-7.59-2.44-13.64-12.12-14.54-20-.21-1.84,0-3.08-.51-8-.42-4-.92-8-1.55-12C1778.52,492.69,1737,410,1624,421.52c-181.31,18.48-350.36-260.8-444.06-57.22-14.91,32.39-42.78,38.42-91.14,60.38-45.15,20.47-77.72,72.85-72.29,137.64q.48,6,1.42,12c.76,5.18,1.8,10.4,3.07,15.73,1.23,5.06,2.68,10.18,4.39,15.3a231.87,231.87,0,0,0,21.36,46.15c.18.29.34.57.5.86h733l40.27.77a36.39,36.39,0,0,0,13.41-12.71C1843.72,624.31,1839.34,600.39,1829.71,596.7Z"/><path class="cls-7" d="M1546.7,526.17c-34.12-10.67-80.18-4.95-80.18-4.95-43.33-23.07-84,3.55-84,3.55-28-1.77-39.7,14.2-39.7,14.2L1577,540.74S1569.44,533.28,1546.7,526.17Z"/><path class="cls-7" d="M1219.54,471c-51.8-23.73-100.37,3.65-100.37,3.65-33.46-1.82-47.45,14.6-47.45,14.6l279.83,1.83s-9-7.68-36.17-15C1274.6,465.15,1219.54,471,1219.54,471Z"/><path class="cls-7" d="M1451.41,414.88c-27.81-7.48-65.37-3.47-65.37-3.47-35.33-16.19-68.47,2.48-68.47,2.48-22.82-1.24-32.36,10-32.36,10l190.87,1.25S1470,419.87,1451.41,414.88Z"/><path class="cls-8" d="M1792,596.16c0-2-.06-4-.16-6.07-.22-5.08-.57-10.33-1.13-15.73-.42-4-.92-8-1.55-12H1016.48q.48,6,1.42,12c.76,5.18,1.8,10.4,3.07,15.73,1.23,5.06,2.68,10.18,4.39,15.3a231.87,231.87,0,0,0,21.36,46.15c.18.29.34.57.5.85h733.1c5.91-1.61,11.09-23.53,11.63-54.24C1792,597.49,1792,596.82,1792,596.16Z"/><path class="cls-9" d="M1791.78,590.11H1021c1.24,5,2.68,10.16,4.38,15.28a232.84,232.84,0,0,0,21.38,46.14H1782c5.17-4.18,9.45-22.06,9.92-46.14C1792.05,600.52,1792,595.4,1791.78,590.11Z"/><path class="cls-10" d="M1582.86,635.55c-65.69,13-113.29-18.06-131.73-24.79s-112,23.08-165.29,11.54-96.14,1.92-131.7,8.66-27-1-65.2-16.35-76.22,37.27-76.22,37.27l789.4.21C1790.31,599,1648.54,622.57,1582.86,635.55Z"/><polygon class="cls-11" points="1614.93 548.71 1602.72 545.56 1583.42 555.8 1568.84 581.8 1574.75 598.74 1562.93 615.68 1562.54 644.44 1573.96 651.53 1635.42 651.53 1648.81 628.29 1650.39 591.65 1641.33 553.83 1625.17 546.34 1614.93 548.71"/><path class="cls-12" d="M1614.12,546.32l-2.91-9.29a1.63,1.63,0,0,0-1.65-1.15c-2.61.13-8.31.48-8.31,1S1614.12,546.32,1614.12,546.32Z"/><path class="cls-12" d="M1615.69,546.72l.42-6.4a1.32,1.32,0,0,1,1.67-1.18l2.62.71a2.23,2.23,0,0,1,.46,4.12Z"/><path class="cls-12" d="M1611.74,546.86l.59-1.06a1.41,1.41,0,0,1,1.24-.73l3.69-.05a1.46,1.46,0,0,1,1.17.58l.57.76a1.42,1.42,0,0,1,.27,1.09l-.09.56a1.45,1.45,0,0,1-1.49,1.21l-4.76-.23A1.44,1.44,0,0,1,1611.74,546.86Z"/><path class="cls-12" d="M1583.42,555.8l7.71,20.27a1.4,1.4,0,0,0,2.58.08l3.13-6.88a2.79,2.79,0,0,0-.79-3.34Z"/><path class="cls-12" d="M1574.19,599.55s9.46,11.52,7.62,13.36-18.88,2.77-18.88,2.77Z"/><path class="cls-12" d="M1648.81,628.29s-35.13,11.67-33.2,15.87,19.81,7.37,19.81,7.37Z"/><path class="cls-12" d="M1605.87,589.12l37.51,4.31a1.18,1.18,0,0,1,.27,2.27l-21.45,7.95a4.06,4.06,0,0,1-4.12-.8L1605,591A1.08,1.08,0,0,1,1605.87,589.12Z"/><path class="cls-12" d="M1611.1,550.53l-8.83,2.25a2.25,2.25,0,0,0-1.33,3.38l1,1.63a1.69,1.69,0,0,0,2.72.19Z"/><path class="cls-12" d="M1615.69,550.26l8.82-1.54a2.12,2.12,0,0,1,1.64.37l3.52,2.54a.76.76,0,0,1-.6,1.35Z"/><polygon class="cls-13" points="1661.3 593.45 1654.78 591.77 1644.46 597.24 1636.68 611.13 1639.83 620.18 1633.52 629.23 1633.31 644.59 1639.41 648.38 1672.24 648.38 1679.4 635.97 1680.24 616.39 1675.4 596.19 1666.77 592.19 1661.3 593.45"/><path class="cls-14" d="M1660.86,592.18l-1.55-5a.87.87,0,0,0-.88-.61c-1.39.07-4.44.26-4.44.53S1660.86,592.18,1660.86,592.18Z"/><path class="cls-14" d="M1661.7,592.39l.23-3.42a.7.7,0,0,1,.89-.63l1.4.38a1.19,1.19,0,0,1,.25,2.2Z"/><path class="cls-14" d="M1659.6,592.47l.31-.57a.75.75,0,0,1,.66-.39l2,0a.78.78,0,0,1,.63.31l.3.41a.77.77,0,0,1,.15.58l0,.3a.78.78,0,0,1-.8.65l-2.54-.12A.76.76,0,0,1,1659.6,592.47Z"/><path class="cls-14" d="M1644.46,597.24l4.12,10.83a.75.75,0,0,0,1.38,0l1.68-3.68a1.5,1.5,0,0,0-.43-1.78Z"/><path class="cls-14" d="M1640.17,620.62s5,6.15,4.07,7.13-10.09,1.48-10.09,1.48Z"/><path class="cls-14" d="M1679.4,636s-18.77,6.24-17.74,8.48,10.58,3.94,10.58,3.94Z"/><path class="cls-14" d="M1657.09,615l20,2.31a.63.63,0,0,1,.14,1.21l-11.46,4.24a2.16,2.16,0,0,1-2.2-.42l-7-6.34A.58.58,0,0,1,1657.09,615Z"/><path class="cls-14" d="M1659.25,594.43l-4.71,1.2a1.2,1.2,0,0,0-.72,1.8l.56.88a.92.92,0,0,0,1.46.1Z"/><path class="cls-14" d="M1661.7,594.29l4.72-.83a1.13,1.13,0,0,1,.87.2l1.88,1.35a.41.41,0,0,1-.32.73Z"/><polygon class="cls-11" points="1251.16 559.59 1233.78 557.94 1222.68 566.71 1218.45 583.04 1223.67 594.2 1212.25 589.4 1185.67 619.18 1180.82 644.51 1189.76 650.85 1266.89 650.85 1278.06 614.34 1277.69 584.53 1251.16 559.59"/><path class="cls-15" d="M1212.25,589.4s10.1,13.25,12.25,13.74,8.78-.49,8.61-1.49-9.44-7.45-9.44-7.45Z"/><path class="cls-15" d="M1185.67,619.18l14.06,10.51a3.82,3.82,0,0,1,1.46,3.83c-.62,3.11-1.77,8.14-2.69,8.37C1197.18,642.22,1185.67,619.18,1185.67,619.18Z"/><path class="cls-15" d="M1275.42,617.05s-20.12,10.44-20.86,12.17,6.21,15.9,8.94,13.91S1275.42,617.05,1275.42,617.05Z"/><path class="cls-11" d="M1227.15,561.41s-14.4-3.8-15.73-3.14-8,9.77-7.29,11.42S1227.15,561.41,1227.15,561.41Z"/><path class="cls-12" d="M1228.15,552.47l-1,8.94,6.13-5.46S1231,551.48,1228.15,552.47Z"/><path class="cls-12" d="M1229.1,562.08c0-.13-.21-2-.54-1.91a9.81,9.81,0,0,0-2.57,1.7c0,.25-.41,2.11.46,2S1229.1,562.08,1229.1,562.08Z"/><path class="cls-15" d="M1228.31,563.06s-2.15,7.78-1.82,8.44,4.8,5.72,5.38,5.47S1228.31,563.06,1228.31,563.06Z"/><path class="cls-15" d="M1229,562.66s2.49,7.78,3.15,7.7,4.14-6.21,3.64-6.71S1229,562.66,1229,562.66Z"/><path class="cls-15" d="M1229.33,562.24l2.12-1.09a.36.36,0,0,1,.32,0l.88.36a.2.2,0,0,1-.06.39Z"/><path class="cls-15" d="M1227.62,563.36l-1.2,1.21a.41.41,0,0,0,0,.62l.41.32a.23.23,0,0,0,.36-.14Z"/><path class="cls-12" d="M1227.36,561.41c-.19-.06-9.32-1-10.06-.62s-4.16,3.54-2.79,3.73S1227.36,561.41,1227.36,561.41Z"/><path class="cls-16" d="M1189.76,650.85s32.09-4.82,35.41-3.66,14.73,3.48,14.73,3.48,14.24-3.64,15.73-2.82a19.18,19.18,0,0,1,3.48,3Z"/><path class="cls-17" d="M1590.74,646.89c-70.07,10-120.85-13.94-140.52-19.13s-119.43,17.81-176.33,8.9-102.57,1.49-140.5,6.69-28.81-.75-69.55-12.62-67.44,23-67.44,23h828.25C1782.5,625.53,1660.81,636.87,1590.74,646.89Z"/><rect class="cls-18" x="988.6" y="651.84" width="849.69" height="1.94" rx="0.86"/><path class="cls-19" d="M1348,641.43c-.65,2.21-3.67,3.68-4.08,6.37-.34,2.24-1.52,3.63-2.76,4h-7.82c-.19-.43-.62-1.86,1.59-2.34,2.61-.57,3.6-3.74,3.43-6.68-.06-1.23,0-2.64,0-3.85.08-1.68.22-3,.22-3l5.55-1.3.59.75.55.72S1348.65,639.23,1348,641.43Z"/><path class="cls-19" d="M1303.6,651.84h-19c.2-.68.84-1.85,2.94-2.19,2.92-.48,8-2.18,9.13-5.92,0-.12.07-.24.09-.37.9-4,7.44,1.23,7.44,1.23s0,.16,0,.43C1304.42,646.48,1304.81,651.17,1303.6,651.84Z"/><path class="cls-20" d="M1288.34,544.82s1,12.38,2.16,27.26c1.59,20.22,3.49,45,3.68,49.75.33,8.17,1.64,21.24,1.64,21.24s3.1,3.1,9.31,1.79a213.8,213.8,0,0,0,7.11-38.38c0-.33,0-.65.07-1,1.47-20.09,3.76-62.39,3.76-62.39Z"/><path class="cls-19" d="M1288.34,544.82s1,12.38,2.16,27.26l21.74,34.4c0-.33,0-.65.07-1,1.47-20.09,3.76-62.39,3.76-62.39Z"/><path class="cls-20" d="M1292.87,546.29s17.89,44.84,29.65,65.91S1338,639.15,1338,639.15s6.73-2.7,7.35-4.54c0,0-4.5-40.67-12.38-50.59-4.45-5.6-9.67-22.42-9.92-28.3s-1.59-17.51-1.59-17.51Z"/><path class="cls-21" d="M1316.41,477.2s-12.1,5.93-19.08,3.73a16.62,16.62,0,0,1,4.72-3.84c-.24-1.42-.43-2.66-.54-3.7a35.47,35.47,0,0,1-.29-3.79l4.67-3.73,4.43-3.57C1310,472.34,1316.41,477.2,1316.41,477.2Z"/><path class="cls-22" d="M1322.78,540.5c0,.75-1.55,1.61-2.25,1.93a48.9,48.9,0,0,1-15.48,4.46c-6.47.67-14.12-.81-16.75-.75a1.08,1.08,0,0,1-.72-.3c-.19-.13-.32-8.05-.19-18,0-.41,0-.81,0-1.21v-.13c0-3.89.19-8,.37-12,.38-9,1.08-17.6,2.26-22.38a24.32,24.32,0,0,1,7.56-12.07l2.42-2.15a11.46,11.46,0,0,0,7.51-.91c2.79-1.37,5.85-2.91,6.33-2.53,3.65,2.71,6.07,8.86,7.38,16.64a86.38,86.38,0,0,1,1.1,14.76c0,1.93,0,3.92-.16,5.87a188,188,0,0,0,.38,25.2C1322.68,538.44,1322.76,539.64,1322.78,540.5Z"/><path class="cls-23" d="M1322.57,536.88c-58.63-.08-10.81-43.71-10.81-43.71l9.49-2.12a86.38,86.38,0,0,1,1.1,14.76c0,1.93,0,3.92-.16,5.87A188,188,0,0,0,1322.57,536.88Z"/><path class="cls-13" d="M1296.49,508.17l-.19,4.45-.19,4.14-.59,14.11-8.32,14.41s-6.22,6.6-22.24,6.6c-20,0-22.91-11-22.91-11l.24-17.82,7.32-10.49L1246,502.08l9-16.13,12-6.33,7.56,2,6.36-1.48,10,4.64Z"/><path class="cls-14" d="M1274,480.09l-1.8-5.76a1,1,0,0,0-1-.71c-1.62.08-5.15.3-5.15.61S1274,480.09,1274,480.09Z"/><path class="cls-14" d="M1275,480.34l.26-4a.81.81,0,0,1,1-.73l1.63.44a1.38,1.38,0,0,1,.28,2.55Z"/><path class="cls-14" d="M1272.54,480.43l.36-.66a.91.91,0,0,1,.77-.46l2.29,0a.9.9,0,0,1,.72.36l.36.47a1,1,0,0,1,.17.68l-.06.35a.89.89,0,0,1-.92.75l-3-.14A.89.89,0,0,1,1272.54,480.43Z"/><path class="cls-14" d="M1255,486l4.78,12.56a.86.86,0,0,0,1.59.06l2-4.27a1.74,1.74,0,0,0-.49-2.07Z"/><path class="cls-14" d="M1250,513.08s5.86,7.13,4.72,8.27-11.7,1.72-11.7,1.72Z"/><path class="cls-14" d="M1295.51,530.88s-21.77,7.23-20.58,9.84,12.28,4.56,12.28,4.56Z"/><path class="cls-14" d="M1296.3,512.62l-.19,4.14-20.23,2a.76.76,0,0,1-.48-1.39l12.5-7.94a2.66,2.66,0,0,1,2.71-.06Z"/><path class="cls-14" d="M1272.14,482.7l-5.47,1.39a1.39,1.39,0,0,0-.82,2.09l.64,1a1.06,1.06,0,0,0,1.69.12Z"/><path class="cls-14" d="M1275,482.53l5.46-1a1.38,1.38,0,0,1,1,.24l2.18,1.57a.47.47,0,0,1-.37.84Z"/><path class="cls-24" d="M1281.42,518.91l-2.17-.7a4.58,4.58,0,0,0-6.65-2.78s-2.09,1.11-1.17,2.42.75.62,2,2.5,3.24,2.78,4.82,2.07l1.8.05Z"/><path class="cls-22" d="M1316.41,477.18a45.68,45.68,0,0,1-.87,45.52c-4.41,7.62-37.76.38-37.76.38s-1.3-2.35,2.18-4.83c0,0,22.2-3.75,24.85-4.38,2.35-.56.78-22.14,3.47-28.4A15.78,15.78,0,0,1,1316.41,477.18Z"/><path class="cls-25" d="M1310.4,466.14s-3.06,5.66-8.89,7.25a35.47,35.47,0,0,1-.29-3.79l4.67-3.73Z"/><path class="cls-21" d="M1299.09,469.44s11.54,1.92,12.63-5.29,3.3-11.82-4-13.34-9.18,1-10.12,3.32S1296.12,468.75,1299.09,469.44Z"/><path class="cls-19" d="M1311.64,464.65a12,12,0,0,0-10.75-11.21c-7.2-1.06-2.84-7.08-2-8,0,0,5.51,1,11.15,2.29C1321.85,450.29,1312.89,463.21,1311.64,464.65Z"/><path class="cls-21" d="M1125.34,613.38c-1.85,16.67-2.8,29.86-2.8,29.86l-4.14,4.53s-4.92-21.27-5.82-34.4C1114.92,614.22,1119.25,615.07,1125.34,613.38Z"/><path class="cls-21" d="M1150.66,643.81l-3.06,4.68s-9.6-22.82-12.37-36a21.81,21.81,0,0,0,13.16-2C1149.11,629.33,1150.66,643.81,1150.66,643.81Z"/><path class="cls-21" d="M1174.57,541.81s-17.57,15-20.78,16.78-17.35,14.5-17.35,14.5c-1.6,0-3,2-3,2a5.16,5.16,0,0,0-1.74,4.36.62.62,0,0,0,1.09.37,48.18,48.18,0,0,1,4.66-4.39s15.49-7.14,19.35-9.79,22-12.75,22-12.75Z"/><path class="cls-26" d="M1211.72,534.21s4.75-2.89.78-10c0,0,1.58,3.48.5,4.91,0,0,.42-3.28-1.24-4.73s-5.46-.6-6.5,0-3.78,3.65-3.37,5a6.29,6.29,0,0,0,2,2.51Z"/><path class="cls-26" d="M1210.64,549.47s8.53-13.16-.42-15.94c0,0-2.75-3.3-9.61-2.66s-10.64,6.58-8.7,8.45c1.24,1.2-1,3.09-1,3.09Z"/><path class="cls-21" d="M1184.45,554.33s-3-2.94-3.06-5.85c-.1-2.73-.25-6.18-.23-6.15.54,1,5,1.64,11.3-.34l0,.51.92,8.6s-2.61.61-5,1.36C1186.4,553.08,1184.53,553.8,1184.45,554.33Z"/><path class="cls-25" d="M1193.43,551.1s-2.61.61-5,1.36c-1.29-4.58,2.1-8.26,4.09-10Z"/><path class="cls-26" d="M1193.13,541.39a25,25,0,0,1,6-5.12c2.17-1.12,11-2.6,12.46,6.32a12.13,12.13,0,0,1-.32,5.38c-.67,2.24-2.54,5.76-10.89,5.08h-2.74Z"/><path class="cls-21" d="M1191.63,553.33s-3.52-10.68,3.16-12.77,10.73-4.87,13.26,1.85.39,8.86-1.67,10.1S1192.72,556.05,1191.63,553.33Z"/><path class="cls-26" d="M1209.73,547.25s-8.75-.49-11.32-4.64-2-6.48-2-6.48a81.77,81.77,0,0,1,8.84,1.82C1207.78,538.61,1212.77,543.87,1209.73,547.25Z"/><path class="cls-21" d="M1206.66,609.25s-4.91-7.51-9.12-14.38a96.16,96.16,0,0,1-5.72-10.17c-1.66-4.38-17.44-29.22-17.44-29.22l14.81-3.36s7.52,24.88,10.17,30.22c.94,1.93,2.61,5.87,4.3,10.14,3,7.51,6.2,16,6.2,16S1206.31,611.26,1206.66,609.25Z"/><path class="cls-27" d="M1189.88,553.59s-3.65-9.43-6.68-10.57l-.06,0a7,7,0,0,0-2.19-1.79c-8.91-5-24.28-7.52-40.52-6.06,0,0-14.87,1.22-24,9.94-4,3.77,14.54,5.86,14.54,5.86.77.23,1.52.48,2.26.76a94.22,94.22,0,0,1,9.29,4.39,48.45,48.45,0,0,0,8.29,3.5,26.24,26.24,0,0,0,3.35.74c3.17.46,5.86.82,8,1.08a17.09,17.09,0,0,0,12.72-3.57c.76.86,1.63,1.89,2.6,3.12C1177.52,561,1184,554.84,1189.88,553.59Z"/><path class="cls-28" d="M1172.2,555.21s-3.37-4.4-12-3.05c-6.84,1.08-20.74,2.41-17.72,3.94l1.31.66.49.23.36.18.74.35.27.12.8.36.22.09c.28.13.56.25.85.36l.17.07.9.35.14,0c.31.12.62.23.94.33l.1,0,1,.3h0a26.24,26.24,0,0,0,3.35.74c3.17.46,5.86.82,8,1.08a17.12,17.12,0,0,0,12.75-3.59Z"/><path class="cls-29" d="M1137.21,552a53,53,0,0,0-2.14,5.67c-.6,1.9-1.18,4-1.74,6.21-.09.34-.18.68-.26,1-1.49,6.09-2.83,13.19-4,20.58-.76,4.8-1.46,9.72-2.09,14.58,0,.08,0,.16,0,.24-.58,4.48-1.1,8.88-1.57,13.07v.08c-6,1.53-10.3.8-12.76,0v-.08c-.39-5.64-.21-10.52,1.11-12.92,2.47-4.49-5-40.06.28-51.67s19.61-5.92,19.61-5.92Z"/><path class="cls-30" d="M1135.08,557.67c-.61,1.9-1.19,4-1.76,6.21-.08.34-.17.68-.25,1-1.49,6.09-2.83,13.19-4,20.58-.76,4.8-1.46,9.72-2.09,14.57,0,.09,0,.17,0,.25-12-44.51-2.62-44.69-2.62-44.69Z"/><path class="cls-29" d="M1148.15,585.46c-.19,8.76-.05,17.31.25,25a1.93,1.93,0,0,0,0,.24,25.68,25.68,0,0,1-13.16,1.85s0-.06,0-.09c-1-4.68-1.35-8.74-.52-11.14,1.08-3.15-2.69-12.48-5.28-26.26l-4.39-6.41c-3.79-7.42-4.14-10.8-2.86-15.09,1.43-4.8,9.46-9.25,11.41-10.73l3.26,1.41a20.52,20.52,0,0,1,12,20C1148.57,570.31,1148.33,577.54,1148.15,585.46Z"/><path class="cls-31" d="M1117.53,651.82h2.36c.8-.13,1.38-.36,2.19-.46a2.19,2.19,0,0,1,1.92.46l0,0h10c.25-.36,0-1.2-.23-1.81a1.42,1.42,0,0,0-.94-.86,10.94,10.94,0,0,1-5.09-2.33c-1.08-1-5.23-3.59-5.23-3.59h0c-.09,0-.52.14-2.41,1.73-1,.82-2.63-1.16-2.63-1.16a2.31,2.31,0,0,0-.55.74,2.46,2.46,0,0,0-.21,1.54,10.17,10.17,0,0,1-.72,3.73c-.24.69-.44,1.17-.44,1.17S1115.49,651.56,1117.53,651.82Z"/><path class="cls-32" d="M1117,644.55a7.65,7.65,0,0,0,2.55,1.28c1.07.14,3.06-2.58,3.06-2.58h0c-.09,0-.52.14-2.41,1.73-1,.82-2.63-1.16-2.63-1.16A2.31,2.31,0,0,0,1117,644.55Z"/><path class="cls-32" d="M1117.53,651.82h2.36c.8-.13,1.38-.36,2.19-.46a2.19,2.19,0,0,1,1.92.46l0,0h10c.25-.36,0-1.2-.23-1.81-.3-.27-.39,1.18-.56,1.41s-8.2.08-8.66-.25a4.83,4.83,0,0,0-3.79-.47c-1.69.4-4.18-.63-4.79-.9-.24.69-.44,1.17-.44,1.17S1115.49,651.56,1117.53,651.82Z"/><path class="cls-31" d="M1145.69,651.82h2.36c.8-.13,1.38-.36,2.19-.46a2.19,2.19,0,0,1,1.92.46l0,0h10c.25-.36,0-1.2-.23-1.81a1.42,1.42,0,0,0-.94-.86,10.94,10.94,0,0,1-5.09-2.33c-1.08-1-5.23-3.59-5.23-3.59h0c-.09,0-.52.14-2.41,1.73-1,.82-2.63-1.16-2.63-1.16a2.49,2.49,0,0,0-.55.74,2.53,2.53,0,0,0-.21,1.54,10.17,10.17,0,0,1-.72,3.73c-.24.69-.44,1.17-.44,1.17S1143.65,651.56,1145.69,651.82Z"/><path class="cls-32" d="M1145.13,644.55a7.65,7.65,0,0,0,2.55,1.28c1.07.14,3.06-2.58,3.06-2.58h0c-.09,0-.52.14-2.41,1.73-1,.82-2.63-1.16-2.63-1.16A2.49,2.49,0,0,0,1145.13,644.55Z"/><path class="cls-32" d="M1145.69,651.82h2.36c.8-.13,1.38-.36,2.19-.46a2.19,2.19,0,0,1,1.92.46l0,0h10c.25-.36,0-1.2-.23-1.81-.3-.27-.39,1.18-.56,1.41s-8.19.08-8.66-.25a4.83,4.83,0,0,0-3.79-.47c-1.69.4-4.18-.63-4.79-.9-.24.69-.44,1.17-.44,1.17S1143.65,651.56,1145.69,651.82Z"/><path class="cls-31" d="M1210.62,617.32c-1.67-.16.5-1.83-.84-4,0,0-3.47-2-3.12-4,0,0-4.91-7.51-9.12-14.38a16.67,16.67,0,0,0,6.12-2.39c3,7.51,6.2,16,6.2,16s1.75,2.49,3.44,5C1213.86,614.3,1211.32,617.37,1210.62,617.32Z"/><path class="cls-25" d="M1541.91,562.72c-.73,1.78-5.53,1.29-9.24-1.23s-9-4.8-12-6.9c-2.26-1.52-4.59-7.32-6.36-10.89a20.85,20.85,0,0,0-1.24-2.2c-2.17-.64-2-2.9-4-3.62-2.39-.83-1.66-2.18-1.66-2.18a8.66,8.66,0,0,1,3.81-.51c.75.11,2.25,2.28,3.14,3.65.83.62,1.82,1.45,2.9,2.42a79.39,79.39,0,0,1,7.48,7.54c1.53,1.9,11.43,4,14.12,6.2C1543.62,558.91,1541.91,562.72,1541.91,562.72Z"/><path class="cls-25" d="M1524.76,590l10.38,57.63,3.6.24s2.83-25.1.4-33.76,4.18-19.63,2.33-27.14S1524.76,590,1524.76,590Z"/><path class="cls-21" d="M1536.71,558.14l-9.07-1.47a21,21,0,0,1-.56-5.29c0-2.22.17-4.08.17-4.08l7.31-.71,3.25-.31C1536,549.68,1536.71,558.14,1536.71,558.14Z"/><path class="cls-25" d="M1537,548.07s-4.84,4.13-9.89,3.31c0-2.22.17-4.08.17-4.08l7.31-.71Z"/><path class="cls-21" d="M1531.67,604.18c-1.83,5.1-3.48,10.3-2.65,14.56a29.07,29.07,0,0,1,.46,3.9c.07,1.22.07,2.46,0,3.7-.4,10-4.23,20.29-4.82,21.82l-.07.19-3.19-.33-1.37-60.48s14.54-5.87,15.35,1.83C1535.82,593.35,1533.64,598.71,1531.67,604.18Z"/><path class="cls-33" d="M1540.36,607.6s-.93.14-2.31.29a42.94,42.94,0,0,1-9.34.22c-1.23-.19-1.92-2.22-2.24-5-.72-6,.35-15.5,1.33-15.92,1.42-.6,14-.09,14-.09S1544.51,593.93,1540.36,607.6Z"/><path class="cls-34" d="M1538.26,607.89a43,43,0,0,1-9.35.22c-1.22-.19,1.7-13.19,4.64-16.21,1-1,5.17-2,5.17-2A40.54,40.54,0,0,1,1538.26,607.89Z"/><path class="cls-33" d="M1520,587.35s-2.7,11.95-2.29,21.4a36.39,36.39,0,0,0,12.42,0s10.4-15.12,9.52-20S1522.64,585.79,1520,587.35Z"/><path class="cls-21" d="M1524.94,545.84s8.45,6.7,12.54,1.38,7.94-8.05,2.72-12.56-7.85-3.28-9.65-1.84S1522.85,544,1524.94,545.84Z"/><path class="cls-35" d="M1547.66,536.67a1.82,1.82,0,0,0-1,0h0a5.28,5.28,0,0,0,.17-3.22,3.77,3.77,0,0,1-.79,2.33c-.06-4-9.89-6.43-10.8-6.69s-.8-1.76-.8-1.76a5.47,5.47,0,0,0-3.8,5.11c0,2.33,2,6.81,3.23,6.87s.69,1.08-.17,2.47.26,5.15,1.79,6.48c1.24,1.07,1.89.17,2.61-.22a2.32,2.32,0,0,1,.57-.22c2.87-.64,5.85-3.47,7.34-7.09a9.7,9.7,0,0,0,.67-3.59A4.49,4.49,0,0,1,1547.66,536.67Z"/><path class="cls-25" d="M1529.5,626.34c-.4,10-4.23,20.29-4.82,21.82l-2.37-.14c.3-.41,5-21.37,7.19-21.68Z"/><path class="cls-29" d="M1539.23,651.82h-2c-.67-.09-1.17-.26-1.86-.34a2,2,0,0,0-1.62.34l0,0h-8.53c-.21-.27,0-.9.2-1.36a1.15,1.15,0,0,1,.79-.64,9.88,9.88,0,0,0,4.32-1.75c.92-.73,4.44-2.7,4.44-2.7h0c.07,0,.44.1,2,1.3.83.61,2.24-.87,2.24-.87a1.84,1.84,0,0,1,.46.55,1.68,1.68,0,0,1,.18,1.16,6.63,6.63,0,0,0,.61,2.79c.2.52.37.89.37.89S1541,651.63,1539.23,651.82Z"/><path class="cls-36" d="M1539.7,646.37a6.53,6.53,0,0,1-2.16,1c-.91.11-2.6-1.94-2.6-1.94h0c.07,0,.44.1,2,1.3.83.61,2.24-.87,2.24-.87A1.84,1.84,0,0,1,1539.7,646.37Z"/><path class="cls-36" d="M1539.23,651.82h-2c-.67-.09-1.17-.26-1.86-.34a2,2,0,0,0-1.62.34l0,0h-8.53c-.21-.27,0-.9.2-1.36.25-.2.33.89.47,1.06a43.64,43.64,0,0,0,7.35-.19,4.57,4.57,0,0,1,3.22-.35,8.58,8.58,0,0,0,4.06-.68c.2.52.37.89.37.89S1541,651.63,1539.23,651.82Z"/><path class="cls-29" d="M1525.51,651.82h-2c-.67-.09-1.17-.26-1.85-.34a2.09,2.09,0,0,0-1.63.34l0,0h-8.52c-.22-.27,0-.9.19-1.36a1.15,1.15,0,0,1,.8-.64,10,10,0,0,0,4.32-1.75c.91-.73,4.43-2.7,4.43-2.7h0c.08,0,.44.1,2,1.3.83.61,2.24-.87,2.24-.87a1.84,1.84,0,0,1,.46.55,1.63,1.63,0,0,1,.18,1.16,7,7,0,0,0,.61,2.79c.2.52.37.89.37.89S1527.24,651.63,1525.51,651.82Z"/><path class="cls-36" d="M1526,646.37a6.53,6.53,0,0,1-2.16,1c-.91.11-2.6-1.94-2.6-1.94h0c.08,0,.44.1,2,1.3.83.61,2.24-.87,2.24-.87A1.84,1.84,0,0,1,1526,646.37Z"/><path class="cls-36" d="M1525.51,651.82h-2c-.67-.09-1.17-.26-1.85-.34a2.09,2.09,0,0,0-1.63.34l0,0h-8.52c-.22-.27,0-.9.19-1.36.26-.2.33.89.47,1.06a43.61,43.61,0,0,0,7.35-.19,4.59,4.59,0,0,1,3.22-.35,8.58,8.58,0,0,0,4.06-.68c.2.52.37.89.37.89S1527.24,651.63,1525.51,651.82Z"/><path class="cls-29" d="M1542,587.82s-6.38,2.61-16.26.92a45.09,45.09,0,0,1-5.76-1.39l1.28-23,.61-11a31.59,31.59,0,0,1,5.07-1.15s6.92.83,9.6.12c0,0,3.24,1.37,4.51,3.14S1544.38,574,1542,587.82Z"/><path class="cls-30" d="M1525.69,588.75a37.32,37.32,0,0,1-5.69-1.4l1.34-26.4,4-.53S1528.86,577.55,1525.69,588.75Z"/><path class="cls-21" d="M1527.5,562.72c-.75,1.78-5.56,1.29-9.23-1.23-.33-.21-.65-.43-1-.64-3.59-2.26-8.26-4.35-11-6.26-2.57-1.77-5.28-9.15-7.11-12.31a5.91,5.91,0,0,0-.48-.78c-2.15-.67-2-2.9-4-3.62-2.38-.83-1.69-2.18-1.69-2.18a8.77,8.77,0,0,1,3.81-.51c.78.11,2.28,2.28,3.14,3.65.59.46,1.32,1,2.07,1.64a83.79,83.79,0,0,1,8.32,8.32c1.1,1.37,6.52,2.84,10.49,4.35a14.88,14.88,0,0,1,3.65,1.85C1529.21,558.91,1527.5,562.72,1527.5,562.72Z"/><path class="cls-29" d="M1527.5,562.72c-.75,1.78-5.56,1.29-9.23-1.23-.33-.21-.65-.43-1-.64a8,8,0,0,0,3.52-7.7,14.88,14.88,0,0,1,3.65,1.85C1529.21,558.91,1527.5,562.72,1527.5,562.72Z"/><path class="cls-37" d="M1517.25,541.26a4.15,4.15,0,0,1-2.9,2.44,20.85,20.85,0,0,0-1.24-2.2c-2.17-.64-2-2.9-4-3.62-2.39-.83-1.66-2.18-1.66-2.18a8.66,8.66,0,0,1,3.81-.51c.75.11,2.25,2.28,3.14,3.65C1515.18,539.46,1516.17,540.29,1517.25,541.26Z"/><path class="cls-33" d="M1511.23,539.71c-1,.79-3.75,3.55-3.75,3.55l-6.3-8.13s3.22-2,4.3-2.86,3.84-3.44,3.84-3.44l6.3,8.14S1512.26,538.92,1511.23,539.71Z"/><path class="cls-34" d="M1511.23,539.71c-1,.79-3.75,3.55-3.75,3.55l-4.44-5.73s3.22-2,4.3-2.86,3.84-3.43,3.84-3.43l4.44,5.73S1512.26,538.92,1511.23,539.71Z"/><rect class="cls-33" x="1507.65" y="532.24" width="10.29" height="0.82" transform="translate(1008.51 -989.84) rotate(52.28)"/><rect class="cls-33" x="1498.86" y="539.04" width="10.29" height="0.82" transform="translate(1010.49 -980.25) rotate(52.28)"/><path class="cls-15" d="M1502.68,536.26l-6.67,8.17a2.28,2.28,0,0,1-3.2.32l-3.35-2.73a2.41,2.41,0,0,1-.34-3.38l6.59-8.07a4.34,4.34,0,0,1,4.54-1.44.48.48,0,0,0,.55-.21,1,1,0,0,1,.12-.16l.35-.43,2.49,2-.36.43a1.07,1.07,0,0,1-.14.16.43.43,0,0,0-.11.52A4.38,4.38,0,0,1,1502.68,536.26Z"/><path class="cls-38" d="M1502.68,536.26l-6.67,8.17a2.28,2.28,0,0,1-3.2.32l-2.1-1.71a2.41,2.41,0,0,1-.35-3.38l6.59-8.08a4.39,4.39,0,0,1,4.54-1.44.39.39,0,0,0,.24,0,.45.45,0,0,0,.32-.22l.11-.15.35-.44,1.25,1-.36.43a1.07,1.07,0,0,1-.14.16.43.43,0,0,0-.11.52A4.38,4.38,0,0,1,1502.68,536.26Z"/><path class="cls-38" d="M1501.3,535.13l-6.67,8.17a2.28,2.28,0,0,1-3.2.33l-.72-.59a2.41,2.41,0,0,1-.35-3.38l6.59-8.08a4.39,4.39,0,0,1,4.54-1.44.39.39,0,0,0,.24,0,.34.34,0,0,0,0,.2A4.36,4.36,0,0,1,1501.3,535.13Z"/><rect class="cls-35" x="1493.57" y="532.01" width="6.19" height="9" transform="translate(134.68 1356.79) rotate(-50.78)"/><rect class="cls-35" x="1502.38" y="527.2" width="0.85" height="3.57" transform="translate(144.55 1361.68) rotate(-50.9)"/><path class="cls-37" d="M1502,540.48a4.81,4.81,0,0,1-2.82,1.8,5.91,5.91,0,0,0-.48-.78c-2.15-.67-2-2.9-4-3.62-2.38-.83-1.69-2.18-1.69-2.18a8.77,8.77,0,0,1,3.81-.51c.78.11,2.28,2.28,3.14,3.65C1500.5,539.3,1501.23,539.86,1502,540.48Z"/><path class="cls-14" d="M1472,533.46c-1,0-20.8-1-20.8-1L1465,547.12l30.19,6.43Z"/><path class="cls-39" d="M1485.68,552.23c-.65,2-1.81,8.24-1.81,8.24l-16-5.22s2.48-5.7,3.18-7.8c.63-1.9,2-8.17,2-8.17l16,5.23S1486.34,550.22,1485.68,552.23Z"/><path class="cls-40" d="M1485.68,552.23c-.65,2-1.81,8.24-1.81,8.24l-11.24-3.68s2.48-5.69,3.18-7.79c.63-1.91,2-8.17,2-8.17l11.25,3.68S1486.34,550.22,1485.68,552.23Z"/><rect class="cls-41" x="1480.65" y="532.86" width="1.34" height="16.8" transform="translate(506.17 1780.76) rotate(-71.88)"/><rect class="cls-41" x="1475.01" y="550.1" width="1.34" height="16.8" transform="translate(486.13 1787.46) rotate(-71.89)"/><path class="cls-42" d="M1488.71,547.75l5.76,8.83a2.29,2.29,0,0,1-.66,3.15l-3.62,2.36a2.42,2.42,0,0,1-3.33-.7l-5.69-8.73a4.35,4.35,0,0,1,0-4.76.48.48,0,0,0,0-.59.91.91,0,0,1-.11-.16l-.31-.46,2.7-1.76.3.47a1.14,1.14,0,0,1,.1.19.44.44,0,0,0,.47.25A4.39,4.39,0,0,1,1488.71,547.75Z"/><path class="cls-43" d="M1488.71,547.75l5.76,8.83a2.29,2.29,0,0,1-.66,3.15l-2.28,1.48a2.4,2.4,0,0,1-3.32-.7l-5.69-8.73a4.37,4.37,0,0,1,0-4.76.42.42,0,0,0,.08-.22.46.46,0,0,0-.11-.37l-.12-.16-.3-.46,1.35-.88.3.47a1.14,1.14,0,0,1,.1.19.44.44,0,0,0,.47.25A4.39,4.39,0,0,1,1488.71,547.75Z"/><path class="cls-38" d="M1487.21,548.72l5.77,8.84a2.28,2.28,0,0,1-.66,3.14l-.79.51a2.4,2.4,0,0,1-3.32-.7l-5.69-8.73a4.37,4.37,0,0,1,0-4.76.42.42,0,0,0,.08-.22.44.44,0,0,0,.2,0A4.34,4.34,0,0,1,1487.21,548.72Z"/><rect class="cls-44" x="1482.63" y="550.46" width="9" height="6.19" transform="translate(-60.86 902.43) rotate(-33.12)"/><rect class="cls-39" x="1480.03" y="544.99" width="3.57" height="0.85" transform="translate(-56.56 901.33) rotate(-33.23)"/><path class="cls-42" d="M1468.84,544l2.14,10.33a2.27,2.27,0,0,1-1.76,2.68l-4.24.88a2.39,2.39,0,0,1-2.83-1.87l-2.12-10.2a4.37,4.37,0,0,1,1.75-4.43.5.5,0,0,0,.19-.56c0-.07,0-.13-.06-.19l-.11-.55,3.15-.65.11.55a1.52,1.52,0,0,1,0,.21.44.44,0,0,0,.34.41A4.37,4.37,0,0,1,1468.84,544Z"/><path class="cls-43" d="M1468.84,544l2.14,10.33a2.27,2.27,0,0,1-1.76,2.68l-2.66.55a2.41,2.41,0,0,1-2.84-1.86l-2.11-10.21a4.38,4.38,0,0,1,1.74-4.43.44.44,0,0,0,.16-.17.53.53,0,0,0,0-.39,1.05,1.05,0,0,1,0-.19l-.12-.54,1.58-.33.11.55a1.52,1.52,0,0,1,0,.21.44.44,0,0,0,.34.41A4.37,4.37,0,0,1,1468.84,544Z"/><path class="cls-38" d="M1467.1,544.37l2.14,10.33a2.27,2.27,0,0,1-1.77,2.68l-.91.19a2.41,2.41,0,0,1-2.84-1.86l-2.11-10.21a4.38,4.38,0,0,1,1.74-4.43.44.44,0,0,0,.16-.17.37.37,0,0,0,.18.08A4.37,4.37,0,0,1,1467.1,544.37Z"/><rect class="cls-39" x="1460.75" y="545.74" width="9" height="6.19" transform="translate(-80.85 308.54) rotate(-11.7)"/><rect class="cls-39" x="1461.49" y="538.9" width="3.57" height="0.85" transform="matrix(0.98, -0.2, 0.2, 0.98, -79.42, 311.02)"/><path class="cls-13" d="M1505.49,612.16l-3.4,21.68-1,6.25-2,12.54h-26.51l-8-5c-7.73-4.86-18.41-11.62-19.48-12.82-.7-.78-1.9-6.63-3.08-13.23-1.67-9.42-3.28-20.42-3.28-20.42l9.72-18.14-8.38-20,11.06-30.56,13.74,14.67,30.21,6.41Z"/><polygon class="cls-45" points="1466.08 608.17 1463.07 625.28 1485.7 609.51 1466.08 608.17"/><path class="cls-45" d="M1502,633.84l-3,18.79h-26.51s-3.49-2.15-8-5l-2.2-6.47,25.49-11.56,3.06-.16Z"/><path class="cls-14" d="M1505.49,612.16l-3.4,21.68-1,6.25c-1.71-.85-13.68-7-13.2-10.46C1488.4,626,1505.49,612.16,1505.49,612.16Z"/><path class="cls-14" d="M1445.12,634.84s16.1,4.86,17.27,6.37,4.53,7.88,4.53,7.88Z"/><polygon class="cls-45" points="1463.07 625.28 1462.39 641.21 1487.89 629.63 1505.49 612.16 1489.39 590.9 1481.68 611.36 1463.07 625.28"/><path class="cls-14" d="M1466.08,608.17s12.75-3.69,13.92-5.37,9.39-11.9,9.39-11.9-2.18,16.6-3.68,18.61S1466.08,608.17,1466.08,608.17Z"/><path class="cls-45" d="M1455.64,596.14,1442,621.61c-1.67-9.42-3.28-20.42-3.28-20.42l7.7-9.07Z"/><path class="cls-14" d="M1455.64,596.14s-7.38-2.89-16.88,5.05l9.72-18.14Z"/><polygon class="cls-14" points="1440.1 563.01 1462.56 568.87 1471.95 583.18 1440.1 563.01"/><path class="cls-35" d="M1426,454.52c0-.49-.39-5.69-8.32-6,0,0,3.9.46,4.57,2.18,0,0-2.65-2.12-4.82-1.44S1414,453.77,1414,455s1.19,5.27,2.56,5.61a4.22,4.22,0,0,0,1.66,0,19.52,19.52,0,0,0-1.06,1.9c-3.17,6.5.1,12.85,2.78,12.15,1.71-.45,2.2,2.48,2.2,2.48l16.69-13.52S1432.72,451,1426,454.52Z"/><path class="cls-25" d="M1472.65,529.57c-.8-.81-5.66-.62-5.66-.62s-2.68-1.07-6-2.52c-4.59-2-10.36-4.78-11.62-6.17-2.93-3.25-6.44-14.14-9.74-21.33-.3-.68-.59-1.32-.89-1.94a.44.44,0,0,0-.11-.18c-.16-.3-.29-.57-.42-.81,0,0,0-.05-.06-.08a12.53,12.53,0,0,0-1.85-2.74v0c-.72-.78-1.42-1.1-2.07-.84a9.39,9.39,0,0,0-2.55,2.18,2,2,0,0,0-.37.45,11.31,11.31,0,0,0-2,4,14.15,14.15,0,0,0-.45,4.4c.11,2.76,1.47,6.22,3.43,9.71a3.87,3.87,0,0,0,.27.48c3.76,6.58,9.53,13.15,13,15.3,2.31,1.42,8.1,2.28,13,2.76,3.24.35,6.12.51,7.3.59.51.56,4.21,4.8,5.6,3.57S1473.46,530.37,1472.65,529.57Z"/><path class="cls-21" d="M1433,510.34a20.78,20.78,0,0,1-1.51,4.8c-.53,1.22-1.14,2.38-1.77,3.59-1.85,3.55-6,5.18-6.34,12.14a31.5,31.5,0,0,0,1.15,9.37c4.85,19.48-33.45,2.88-31.28-2.16,4.3-10,10.12-15.7,10.32-24.09v-.06c0-.41,0-1.5,0-2.94,0-3.52,0-9.14,0-12v-.2c0-1.21,0-2.09,0-2.33,3.14-11.43,9.38-11.24,11.5-11.13.79,0,1.62.13,2.3.21,1.36-.71,3.81-4.17,5.23-10l.47.23,8,3.78s-.86,2.61-1.49,5.12c-.49,2-.84,3.85-.55,4.38l1,.42h0C1430.22,489.87,1434.68,501.22,1433,510.34Z"/><path class="cls-25" d="M1431.52,515.14c-.53,1.22-1.14,2.38-1.77,3.59-1.85,3.55-6,5.18-6.34,12.14l-.38,0c-15,.6-19.43-17-19.43-17,0-.41,0-1.5,0-2.94l27,1.06A26.36,26.36,0,0,1,1431.52,515.14Z"/><path class="cls-21" d="M1431.84,646.39l-2.94,1.53s-16-22.07-17.9-40.86a28.32,28.32,0,0,1,.51-9.61s-.32-1.85-.86-4.92c-.5-2.87-1.19-6.8-2-11.26-1.81-10.29-4.15-23.44-6-33.1l1-.31,20.51-6.62s6.62,19.28,2.91,48.44c-.35,2.76-.79,5.61-1.35,8.54a38.48,38.48,0,0,0-.29,8.43C1426.2,622,1431.84,646.39,1431.84,646.39Z"/><path class="cls-25" d="M1411.09,595.06c11.13-31.68,9.48-40,9.48-40l-13.51,4.23c1.73,14.83,1.12,18.43,3.62,33.36Z"/><path class="cls-22" d="M1427.4,555.09c0,.33,0,.85-.3.84a53.55,53.55,0,0,0-6.53.17c-.89.09-1.83.22-2.8.38-1.28.21-5.64.59-7.22.73l-.58,0,6.15-19.52,7.7-2S1425.86,539,1427.4,555.09Z"/><path class="cls-23" d="M1420.57,556.1c-.89.09-1.83.22-2.8.38-1.28.21-5.64.59-7.22.73l7-9.65C1419.08,550,1420.6,553.1,1420.57,556.1Z"/><path class="cls-21" d="M1418.07,541.45s-.74,6.84-2.07,16.13c-1.49,10.41-3.73,23.89-6.52,34.26-1.47,5.48-3.09,10.09-4.84,12.92a24,24,0,0,0-1.94,4.65c-4,12.16-9,39.68-9,39.68l-2.25.91s-8.7-24.73-1.17-44.81a37.79,37.79,0,0,1,2.84-6,1.19,1.19,0,0,0,.19-.72h0c-.09-.84-.34-2.93-.61-5.88-.77-8.12-1.81-22.69-.88-35.07.06-.77.13-1.54.2-2.29.67-6.82,2-12.76,4.43-16.29Z"/><path class="cls-25" d="M1405.11,555.43s-.06.66-.18,1.81c-.62,5.82-2.93,24.39-8.13,35.6a24.87,24.87,0,0,1-3.47,5.66c-.09-.84-.34-2.93-.61-5.88-.77-8.12-1.81-22.69-.88-35.07.06-.77.13-1.54.2-2.29Z"/><path class="cls-22" d="M1420.07,536.66l.38,3.32-4.13,17.61s-19.31-.88-24.78,0c-1.9.31-.33-.53-.73-7-.82-13.23,5.46-18.75,5.46-18.75S1413.59,538.38,1420.07,536.66Z"/><path class="cls-25" d="M1431.11,479.61s-.86,2.61-1.49,5.12c-4.7-1.31-6.13-6.25-6.55-8.9Z"/><path class="cls-29" d="M1439.68,498.91c-.41-1.21-3.12-5.94-3.12-5.94s-1.7-1.57-6.47-3.44h0c.07.28,2.1,7.63,1.36,9.2s-15-3.56-15.77-4.73c-.63-.95-.65-5.93-.63-7.88,0-.48,0-.78,0-.78s-5.32-.72-8.3.49a23.55,23.55,0,0,1,1.61,5.4c0,.26.08.53.1.8a9.7,9.7,0,0,1,0,1.7c-.08,1.41-1.4,2.51-3.17,3.8l-1.76,1.27v.2c0,4,0,13.52,0,14.92V514a90.11,90.11,0,0,1,14.48,1,46.92,46.92,0,0,1,5.72,1.26,25.06,25.06,0,0,1,6,2.46l.21.13s2.57-5.07,5.39-11.15c.1-.22.19-.44.28-.66a14.24,14.24,0,0,0,.44-7.08A6.59,6.59,0,0,1,1439.68,498.91Z"/><path class="cls-21" d="M1432.1,482.38s-11.25-2.6-9.52-9.58,1.44-12,8.69-10.65,8,4.37,8,6.84S1435.07,482.88,1432.1,482.38Z"/><path class="cls-30" d="M1430,518.86l-.21-.13a25.06,25.06,0,0,0-6-2.46,46.92,46.92,0,0,0-5.72-1.26,90.11,90.11,0,0,0-14.48-1v-.06c-.07-1.4-.07-10.92,0-14.92v-.2l1.76-1.27C1412.55,501.38,1426.07,509.57,1430,518.86Z"/><path class="cls-35" d="M1439.88,465c-1.21-2.53-2.63-2.39-3.52-1.94a8.07,8.07,0,0,0-10.47-.9,13.71,13.71,0,0,1-6.32,6.79s1.73,1.77,6.74,1.73a8.27,8.27,0,0,0,4.46-1.68,26.58,26.58,0,0,1-5.86,4.37c6.27-1.2,10.47-8.46,10.9-9.23a9,9,0,0,1,1.63,3.87c.12,1.91-.54,5.63.56,5.77C1438,473.81,1441.69,468.82,1439.88,465Z"/><path class="cls-33" d="M1389.66,651.82h2.43c.81-.13,1.41-.37,2.24-.48a2.26,2.26,0,0,1,2,.48l0,0h10.33c.26-.37,0-1.23-.24-1.86a1.43,1.43,0,0,0-1-.88,11.12,11.12,0,0,1-5.23-2.39c-1.11-1-5.37-3.7-5.37-3.7h0c-.1,0-.54.14-2.48,1.77-1,.85-2.71-1.19-2.71-1.19a2.41,2.41,0,0,0-.55.76,2.5,2.5,0,0,0-.23,1.58,10.11,10.11,0,0,1-.74,3.83c-.24.71-.44,1.21-.44,1.21S1387.56,651.56,1389.66,651.82Z"/><path class="cls-34" d="M1389.09,644.35a7.74,7.74,0,0,0,2.61,1.32c1.1.14,3.15-2.66,3.15-2.66h0c-.1,0-.54.14-2.48,1.77-1,.85-2.71-1.19-2.71-1.19A2.41,2.41,0,0,0,1389.09,644.35Z"/><path class="cls-34" d="M1389.66,651.82h2.43c.81-.13,1.41-.37,2.24-.48a2.26,2.26,0,0,1,2,.48l0,0h10.33c.26-.37,0-1.23-.24-1.86-.31-.28-.4,1.21-.57,1.45s-8.42.08-8.9-.26a5,5,0,0,0-3.9-.48c-1.73.42-4.28-.65-4.92-.93-.24.71-.44,1.21-.44,1.21S1387.56,651.56,1389.66,651.82Z"/><path class="cls-21" d="M1456.2,535.85s-4.45-3.2-7.11-2.58c-2.36.54-7.4-.54-8.4-.75-1.18-.64-2.6-1.42-4.1-2.28a123.22,123.22,0,0,1-10.63-6.6,13.15,13.15,0,0,1-3.3-3,36.86,36.86,0,0,1-2.25-5.23c-.43-1.18-.89-2.47-1.34-3.84-.81-2.25-1.61-4.7-2.44-7.14-1.51-4.45-3.12-8.93-4.65-12.39a23.91,23.91,0,0,0-2.87-5.07c-.72-.89-6.22-.09-6.28,7.7a12.62,12.62,0,0,0,0,1.36,28.6,28.6,0,0,0,.72,4.86,74.65,74.65,0,0,0,3.06,10.2c.38,1,.75,2,1.16,2.95,2.9,7.19,6.63,13.9,9.76,16.18a3.88,3.88,0,0,0,.38.27,28.5,28.5,0,0,0,5.47,2.44c3.17,1.07,6.93,2,10.28,2.84h0c2,.43,3.75.83,5.26,1.13,0,0,.32.08.88.19a60.58,60.58,0,0,1,7.11,2.17c3.87,1.53,6.28-1,8-1.72S1456.2,535.85,1456.2,535.85Z"/><path class="cls-33" d="M1426,651.82h2.43c.82-.13,1.42-.37,2.25-.48a2.27,2.27,0,0,1,2,.48l0,0H1443c.26-.37,0-1.23-.23-1.86a1.45,1.45,0,0,0-1-.88,11.2,11.2,0,0,1-5.23-2.39c-1.11-1-5.36-3.7-5.36-3.7h0c-.09,0-.54.14-2.47,1.77-1,.85-2.71-1.19-2.71-1.19a2.52,2.52,0,0,0-.56.76,2.57,2.57,0,0,0-.22,1.58,10.31,10.31,0,0,1-.74,3.83c-.24.71-.44,1.21-.44,1.21S1423.9,651.56,1426,651.82Z"/><path class="cls-34" d="M1425.42,644.35a7.79,7.79,0,0,0,2.62,1.32c1.1.14,3.15-2.66,3.15-2.66h0c-.09,0-.54.14-2.47,1.77-1,.85-2.71-1.19-2.71-1.19A2.52,2.52,0,0,0,1425.42,644.35Z"/><path class="cls-34" d="M1426,651.82h2.43c.82-.13,1.42-.37,2.25-.48a2.27,2.27,0,0,1,2,.48l0,0H1443c.26-.37,0-1.23-.23-1.86-.31-.28-.4,1.21-.58,1.45s-8.42.08-8.89-.26a5,5,0,0,0-3.9-.48c-1.73.42-4.29-.65-4.92-.93-.24.71-.44,1.21-.44,1.21S1423.9,651.56,1426,651.82Z"/><path class="cls-29" d="M1412.14,492.07c-5.26-1.43-9.32,2.61-9.32,2.61.07-7.77,3.94-8.84,3.94-8.84C1408.34,485.2,1410.25,487.89,1412.14,492.07Z"/><path class="cls-31" d="M1455.29,537.71c-1.74.74-4.19,3.32-8.11,1.76a58.7,58.7,0,0,0-7.23-2.22c-.57-.11-.89-.19-.89-.19-1.53-.3-3.36-.72-5.34-1.15a18.91,18.91,0,0,0,2.91-5.67c1.53.87,3,1.67,4.17,2.33,1,.22,6.13,1.31,8.53.76,2.69-.63,7.22,2.63,7.22,2.63S1457,537,1455.29,537.71Z"/><path class="cls-31" d="M1471.52,535.74c-1.39,1.23-5.09-3-5.6-3.57-1.18-.08-4.06-.24-7.3-.59a35.58,35.58,0,0,0,2.39-5.15c3.3,1.45,6,2.52,6,2.52s4.86-.19,5.66.62S1473.05,534.42,1471.52,535.74Z"/><path class="cls-46" d="M1229,637.55l-6.12,9.89a2.51,2.51,0,0,1-3.44.81l-4.06-2.51a2.65,2.65,0,0,1-.86-3.64l6-9.77a4.81,4.81,0,0,1,4.75-2.23.53.53,0,0,0,.58-.31l.1-.19.32-.52,3,1.87-.33.52a1.33,1.33,0,0,1-.14.19.48.48,0,0,0,0,.59A4.83,4.83,0,0,1,1229,637.55Z"/><path class="cls-38" d="M1229,637.55l-6.12,9.89a2.51,2.51,0,0,1-3.44.81l-2.55-1.58a2.64,2.64,0,0,1-.86-3.64l6-9.77a4.84,4.84,0,0,1,4.76-2.23.46.46,0,0,0,.26,0,.6.6,0,0,0,.32-.29,1.62,1.62,0,0,1,.1-.18l.32-.53,1.51.94-.33.52a1.33,1.33,0,0,1-.14.19.48.48,0,0,0,0,.59A4.83,4.83,0,0,1,1229,637.55Z"/><path class="cls-38" d="M1227.2,631.22a.37.37,0,0,1-.08-.21.46.46,0,0,1-.26,0,4.84,4.84,0,0,0-4.76,2.23l-6,9.77a2.64,2.64,0,0,0,.86,3.64l.88.55a2.5,2.5,0,0,0,3.44-.82l6.12-9.89A4.81,4.81,0,0,0,1227.2,631.22Z"/><rect class="cls-35" x="1219.08" y="633.73" width="6.83" height="9.92" transform="translate(36.22 1342.37) rotate(-58.26)"/><rect class="cls-35" x="1227.66" y="627.61" width="0.93" height="3.94" transform="translate(47.98 1345.06) rotate(-58.37)"/><path class="cls-19" d="M1695,651.71a1.75,1.75,0,0,1-.46.13H1676c.14-.65.72-2,3-2.33,2.92-.47,8-2.18,9.13-5.92,0-.12.07-.24.1-.37.89-4,7.43,1.23,7.43,1.23s0,.15,0,.42C1695.84,646.32,1696.23,651.09,1695,651.71Z"/><path class="cls-19" d="M1716.45,651.71a1.66,1.66,0,0,1-.45.13h-18.53c.15-.65.72-2,3-2.33,2.7-.44,7.21-1.91,8.79-5.06a5.15,5.15,0,0,0,.44-1.23c.9-4,7.43,1.23,7.43,1.23s0,.26.08.7C1717.34,646.85,1717.62,651.13,1716.45,651.71Z"/><path class="cls-20" d="M1707.47,543s-2.28,42.32-3.76,62.41a1.67,1.67,0,0,1,0,.25,5.78,5.78,0,0,1,0,.72c-.38,4.53-.94,9-1.61,13.2v.05c-.11.62-.21,1.24-.32,1.86a218.18,218.18,0,0,1-5.18,23.26c-6.23,1.31-9.31-1.77-9.31-1.77s-1.32-13.07-1.64-21.25c-.19-4.7-2.09-29.54-3.67-49.75-1.19-14.89-1.64-27.31-1.64-27.31Z"/><path class="cls-19" d="M1707.47,543s-2.28,42.32-3.76,62.41a1.67,1.67,0,0,1,0,.25c-.16,1.5-1.18,10-1.64,13.92v.05c-.11.62-.21,1.24-.32,1.86l-19.8-49.51c-1.19-14.89-1.64-27.31-1.64-27.31Z"/><path class="cls-20" d="M1682.1,542.21s12.63,38.25,19.27,62c6.6,23.59,6.6,40,6.6,40s10.36,2,11.29.22c0,0,3.07-46.12-3.19-57.45-3.53-6.39-6-24.22-5.2-30.18s1.36-17.92,1.36-17.92Z"/><path class="cls-21" d="M1680.71,483.1s-8.51,10.46-15.78,11.4a16.69,16.69,0,0,1,2.69-5.47c-.49-.7-.89-1.34-1.29-1.93-1.77-2.82-2.61-4.51-2.61-4.51l3.22-6.49,2-4C1672.82,481.41,1680.71,483.1,1680.71,483.1Z"/><path class="cls-24" d="M1663.88,560.32l-.08,2.28a4.57,4.57,0,0,0-.88,7.15s1.63,1.71,2.64.47.39-.89,1.87-2.6,1.8-3.87.68-5.2l-.43-1.75Z"/><path class="cls-30" d="M1666.16,562.39a19.81,19.81,0,0,1-4-2.2s5.16-20.27,5.43-22.25-3.74-29.94-3.74-29.94l16.63-12.08s-.89,38.54-1.67,43.54c-1.28,8.27-9.49,23.45-9.49,23.45A8.27,8.27,0,0,1,1666.16,562.39Z"/><path class="cls-29" d="M1711.76,540.6a47.59,47.59,0,0,1-12.18,10.55c-5.58,3.33-12.74,6.5-15.32,6a9.76,9.76,0,0,1-3.47-1.46,113.83,113.83,0,0,0-5.22-14.4,10.28,10.28,0,0,1-.46-1.1L1675,540c-1.58-3.54-3.17-7.32-4.72-11.08-3.41-8.29-6.39-16.42-7.3-21.28a24,24,0,0,1,1.8-14.14l1.28-2.95a11.47,11.47,0,0,0,6.47-4c1.93-2.39,4.08-5.1,4.67-5,6.23,1.34,13.12,9.69,18.76,20.69.75,1.39,1.44,2.84,2.12,4.32.8,1.77,1.55,3.57,2.28,5.42a180.34,180.34,0,0,0,9.58,20.26c.48.88.93,1.71,1.34,2.44.72,1.37,1.31,2.44,1.69,3.19S1712.27,540,1711.76,540.6Z"/><path class="cls-30" d="M1710,532.29c-17-5.08-25-32.44-25-32.44l5.47-2.53s2.31,2,5.59,5c.75,1.39,1.44,2.84,2.12,4.32.8,1.77,1.55,3.57,2.28,5.42A180.34,180.34,0,0,0,1710,532.29Z"/><path class="cls-14" d="M1713.23,515.83a1.55,1.55,0,0,0-2.18.06L1605.55,628l-14-.1a3,3,0,0,0-1.93,1.36c-.46.68-.48,1.24-.09,1.35l-20.84,20.54c-.29.3-.44.64-.31.77a.16.16,0,0,0,.13.06,1.08,1.08,0,0,0,.62-.34l21.31-21,2.76,0-18.77,20.6c-.28.31-.38.64-.22.73a.2.2,0,0,0,.11,0,1.15,1.15,0,0,0,.68-.4l19.08-21,3.34,0-17.9,20.64c-.27.31-.35.63-.18.71l.09,0a1.13,1.13,0,0,0,.71-.44l18.15-20.92,3.23,0-17.13,20.67c-.26.32-.32.63-.13.69h.07a1.14,1.14,0,0,0,.73-.46l17.32-20.9,2.4,0-14.19,20.81c-.22.32-.21.58,0,.58a1.25,1.25,0,0,0,.81-.58l14.19-20.81,2.18,0-11.21,20.94c-.14.28-.1.47.1.47h.09a1.39,1.39,0,0,0,.79-.68l11.09-20.71,3.23,0-10.41,21c-.13.26-.08.44.11.44l.11,0a1.52,1.52,0,0,0,.79-.7l10.27-20.69,3.34,0-9.52,21c-.12.24-.06.4.12.4a.24.24,0,0,0,.14,0,1.53,1.53,0,0,0,.78-.73l9.37-20.66h2.51l.26,0-7.41,21.13c-.07.22,0,.35.16.35a.69.69,0,0,0,.21,0,1.56,1.56,0,0,0,.73-.77L1621,630a3.29,3.29,0,0,0,.48-.57c.52-.75.49-1.37-.06-1.37l-11.64-.09L1713.3,518A1.55,1.55,0,0,0,1713.23,515.83Z"/><path class="cls-24" d="M1699.81,524.94l-.6,2.2a4.57,4.57,0,0,0-2.47,6.77s1.2,2,2.46,1.05.59-.77,2.41-2.11,2.63-3.37,1.85-4.91l0-1.81Z"/><path class="cls-29" d="M1700.85,528.94a4.11,4.11,0,0,1-2.49-2.8s5.39-21.19,3.61-22.09-23-4-23-4-6.39-1.35-6.19-7.13c.28-7.77,4.46-11.17,4.46-11.17s32.48,12.13,35.24,16.37c4.14,6.38-7.88,30.66-7.88,30.66A4.7,4.7,0,0,1,1700.85,528.94Z"/><path class="cls-25" d="M1670.73,476.18s-.7,8-4.4,10.92c-1.77-2.82-2.61-4.51-2.61-4.51l3.22-6.49Z"/><path class="cls-21" d="M1661.73,483.32s11.28-3.09,9.25-10.09-2-12.11-9.24-10.43-7.91,4.75-7.8,7.25S1658.74,484,1661.73,483.32Z"/><path class="cls-20" d="M1671.12,473.71s-4.34-8.94-14.46-5.67c-3.67,1.19-3.84.18-6.44-3,0,0,6.68-4.8,12.32-6C1674.37,456.4,1671.65,471.89,1671.12,473.71Z"/></g></g></g></g></svg>