<svg id="Layer_1" data-name="Layer 1" xmlns="http://www.w3.org/2000/svg" viewBox="0 0 17.95 21.72"><defs><style>.cls-1{opacity:0.5;}.cls-2{fill:#fff;}</style></defs><g class="cls-1"><g id="Layer_1-2" data-name="Layer 1-2"><path class="cls-2" d="M9.05,18.91l5-4.9a7,7,0,0,0-9.9-9.9,7.06,7.06,0,0,0,0,9.9Zm0,2.8-6.4-6.4a9,9,0,1,1,12.7,0h0Z" transform="translate(-0.03 0.01)"/></g></g><g class="cls-1"><path class="cls-2" d="M11.9,13a5.31,5.31,0,0,1-2.07.35c-2.8,0-4.24-1.75-4.24-4A4.12,4.12,0,0,1,10,5a4.74,4.74,0,0,1,2,.35l-.38,1.45a3.79,3.79,0,0,0-1.53-.3A2.43,2.43,0,0,0,7.52,9.21a2.41,2.41,0,0,0,2.58,2.64,4.47,4.47,0,0,0,1.53-.26Z" transform="translate(-0.03 0.01)"/></g></svg>