<svg xmlns="http://www.w3.org/2000/svg" viewBox="0 0 38.96 39.76"><defs><style>.cls-1{fill:#0ba118;}</style></defs><g id="Layer_2" data-name="Layer 2"><g id="Layer_1-2" data-name="Layer 1"><path class="cls-1" d="M31.67,39.76a18.45,18.45,0,0,0-1.59-1.48,1.52,1.52,0,0,1-.52-1.92,11.91,11.91,0,0,1,.79-1.7,2.13,2.13,0,0,1,3.51-.3,6.37,6.37,0,0,1,1.38,2.82c.21,1-.55,1.42-1.27,1.77s-1.4.54-2.11.81Z"/><path class="cls-1" d="M22.78,10.76c-3.65,0-7.29,0-10.93,0s-7.35,0-11,0c-.67,0-.85.18-.78.84.17,1.71.28,3.43.42,5.14C1,23,1.51,29.34,1.93,35.65a2.58,2.58,0,0,0,2,2.51,20.64,20.64,0,0,0,6.32,1.11,25.06,25.06,0,0,0,9.5-1.1,2.57,2.57,0,0,0,2-2.47c.57-8,1.22-16,1.87-24.06C23.64,10.93,23.49,10.75,22.78,10.76Zm-17,25.43C5,36.2,5,35.59,5,35Q4.56,24.93,4.11,14.8c0-.58,0-1.15.71-1.19s.79.52.81,1.1c.14,3.41.3,6.82.45,10.22s.27,6.69.41,10C6.52,35.54,6.59,36.18,5.76,36.19Zm6.79-.6a.7.7,0,0,1-.67.62.69.69,0,0,1-.79-.6,4.29,4.29,0,0,1-.05-.88V15.08a4.35,4.35,0,0,1,.05-.89.75.75,0,0,1,1.47.07,7,7,0,0,1,0,.79V34.8A4.12,4.12,0,0,1,12.55,35.59Zm6.09-.52c0,.53,0,1.15-.79,1.13s-.73-.69-.71-1.25q.21-5,.41-9.93h0L18,14.69c0-.56.11-1.13.84-1.08s.73.55.71,1.11Q19.06,24.89,18.64,35.07Z"/><path class="cls-1" d="M23.17,4.49A4.55,4.55,0,0,0,20.3,2.21a11.58,11.58,0,0,0-5.7-.12c-.59.11-1,.21-1.27-.57A2.46,2.46,0,0,0,10.68,0,2.43,2.43,0,0,0,8.4,2c-.1,1-.6,1.23-1.45,1.36A10.56,10.56,0,0,0,1.76,5.44,4.21,4.21,0,0,0,0,8.44c-.08.84.51.5.85.45q5.88-1,11.74-1.95c3.39-.57,6.78-1.15,10.18-1.7C23.35,5.15,23.42,5,23.17,4.49ZM12,2.24c-.22.76-1.15.21-1.54.56-.34,0-.66.14-.62-.25a1.07,1.07,0,0,1,1.14-1C11.45,1.53,12.08,1.81,12,2.24Z"/><path class="cls-1" d="M15.28,9.47C17.87,7.58,20.4,5.53,24,6.36c1.34.31,2.3,1.36,3.43,2.07.11.07.19.2.3.27a3.65,3.65,0,0,1,1.59,4.73c-.29.83-.37,1.06-1.76,1.71-.2-.78-.3-1.63-1.18-2-.27-.12-.24-.44-.27-.71A2.42,2.42,0,0,0,23.75,10a11.4,11.4,0,0,1-2.6-.58,7.1,7.1,0,0,0-4-.13c-.58.15-1.16.27-1.74.4Z"/><path class="cls-1" d="M31.87,15.39a14.37,14.37,0,0,1,4.22,3.19c.69.82.5,2,.62,3,0,.17-.11.2-.24.25a3,3,0,0,1-4-2.5c-.07-.66-.19-1.31-.29-2S32,16.12,31.87,15.39Z"/><path class="cls-1" d="M38.4,27.73a2,2,0,0,1-2.09,2c-.78,0-1.42-1-1.36-2.3,0-.64-.09-1.57.84-1.65C37.44,25.67,38.4,26.46,38.4,27.73Z"/><path class="cls-1" d="M26,17.13c.88-.14,1.46-.09,1.67.8a3.05,3.05,0,0,1-.27,2.83c-.19.24-.5.12-.75,0A2.56,2.56,0,0,1,25,17.37C25.23,16.73,25.84,17.32,26,17.13Z"/><path class="cls-1" d="M31.61,23.62c.58.05,1.13.27,1.2,1S32,25.84,31,25.82c-.85,0-.39-.66-.47-1C30.32,24,30.79,23.66,31.61,23.62Z"/><path class="cls-1" d="M28.27,33.18c-.43-.24-1.09-.06-1.15-.74s.81-1.68,1.52-1.53.68,1,.75,1.51C29.5,33.16,28.6,32.81,28.27,33.18Z"/><path class="cls-1" d="M37.8,33.85c-.46-.18-1.1-.06-1.12-.75a1.45,1.45,0,0,1,1.5-1.47c.75.14.71,1,.77,1.5C39,33.85,38.17,33.57,37.8,33.85Z"/><path class="cls-1" d="M28,26.71a1.48,1.48,0,0,1-.8-1.11.77.77,0,0,1,.75-.86c.81,0,1.67.63,1.62,1.14C29.52,26.23,28.65,26.74,28,26.71Z"/><path class="cls-1" d="M33.43,28.46c-.17.66-.86.69-1.39.76s-.9-.47-1-1a.78.78,0,0,1,.67-.94C32.35,27.2,33.41,27.91,33.43,28.46Z"/></g></g></svg>