<svg xmlns="http://www.w3.org/2000/svg" viewBox="0 0 49.94 50"><defs><style>.cls-1{fill:#fff;}.cls-2{fill:#18a149;}</style></defs><g id="Layer_2" data-name="Layer 2"><g id="Layer_1-2" data-name="Layer 1"><path class="cls-1" d="M49.11,31.27a28,28,0,0,1-2.66,6.3,24.13,24.13,0,0,1-6.19,7.14,22.89,22.89,0,0,1-4.55,2.71,23.61,23.61,0,0,1-5.91,2,16.38,16.38,0,0,1-2.21.22A14.46,14.46,0,0,1,25,50a45.48,45.48,0,0,1-6.55-1c-1-.3-2.07-.62-3.07-1a21.32,21.32,0,0,1-4.94-2.74A24.38,24.38,0,0,1,6.6,41.85,28.21,28.21,0,0,1,3.71,38a26.17,26.17,0,0,1-2.6-5.67,22.54,22.54,0,0,1-.95-4.4,28.82,28.82,0,0,1,.2-7.54,17.54,17.54,0,0,1,1-3.7,24.61,24.61,0,0,1,1.94-4A26.68,26.68,0,0,1,8.69,6.06,29.53,29.53,0,0,1,12.16,3.5,23.48,23.48,0,0,1,15.26,2,21.61,21.61,0,0,1,20.34.42,24,24,0,0,1,24.9,0a24.94,24.94,0,0,1,5.39.47,23.94,23.94,0,0,1,7.87,3.23,22.62,22.62,0,0,1,3.26,2.4,28.06,28.06,0,0,1,3.46,3.68,23.7,23.7,0,0,1,2.6,4.26,22.5,22.5,0,0,1,2.09,6.6,38.11,38.11,0,0,1,.37,4A23,23,0,0,1,49.11,31.27Z"/><path class="cls-2" d="M49.94,24.61a38.11,38.11,0,0,0-.37-4,22.5,22.5,0,0,0-2.09-6.6,23.7,23.7,0,0,0-2.6-4.26,28.06,28.06,0,0,0-3.46-3.68,22.62,22.62,0,0,0-3.26-2.4A23.94,23.94,0,0,0,30.29.48,24.94,24.94,0,0,0,24.9,0a24,24,0,0,0-4.56.41A21.61,21.61,0,0,0,15.26,2a23.48,23.48,0,0,0-3.1,1.53A29.53,29.53,0,0,0,8.69,6.06a26.68,26.68,0,0,0-5.43,6.55,24.61,24.61,0,0,0-1.94,4,17.54,17.54,0,0,0-1,3.7,28.82,28.82,0,0,0-.2,7.54,22.54,22.54,0,0,0,1,4.4A26.17,26.17,0,0,0,3.71,38,28.21,28.21,0,0,0,6.6,41.85a24.38,24.38,0,0,0,3.88,3.36A21.32,21.32,0,0,0,15.42,48c1,.4,2,.72,3.07,1A45.48,45.48,0,0,0,25,50a14.46,14.46,0,0,0,2.55-.32,16.38,16.38,0,0,0,2.21-.22,23.61,23.61,0,0,0,5.91-2,22.89,22.89,0,0,0,4.55-2.71,24.13,24.13,0,0,0,6.19-7.14,28,28,0,0,0,2.66-6.3A23,23,0,0,0,49.94,24.61Zm-2.89,4.88a7.68,7.68,0,0,1-2,4.39,9,9,0,0,1-3.58,2.49,7.29,7.29,0,0,1-2.7.4c-4.47,0-8.93,0-13.39,0H12.82a10.2,10.2,0,0,1-4.69-.85,10.31,10.31,0,0,1-3.58-2.72,9.81,9.81,0,0,1-2-8.32,8.83,8.83,0,0,1,2.43-4.54A10.2,10.2,0,0,1,9,17.7,8.54,8.54,0,0,1,12,17.36h1c.47,0,.64-.21.72-.65a11.16,11.16,0,0,1,2.53-5.38,15.14,15.14,0,0,1,5.64-4.12,13.78,13.78,0,0,1,7.09-1.07,14,14,0,0,1,5.51,1.73,14.75,14.75,0,0,1,5.24,4.88,11.25,11.25,0,0,1,1.88,6.55.83.83,0,0,0,.72.94A6.18,6.18,0,0,1,45.49,23,9.59,9.59,0,0,1,47.05,29.49Z"/><path class="cls-2" d="M34.52,13.2A38.6,38.6,0,0,1,35.38,19a1.89,1.89,0,0,0,.13.57c.34.79.14,1.07-.72.95l-5.92-.86c-.2,0-.5.09-.54-.24a.54.54,0,0,1,.34-.53c.39-.23.57-.67,1-.92s.28-.47-.13-.7A7.44,7.44,0,0,0,24,16.67a7,7,0,0,0-5.33,7.5c.07.53-.12.69-.62.57l-1.93-.45a.65.65,0,0,1-.58-.72,9.7,9.7,0,0,1,2.91-7.1,11.39,11.39,0,0,1,5.95-3.12,9.8,9.8,0,0,1,5.86.8,4.45,4.45,0,0,1,1.48.8c.34.31.74.24,1.09-.18A7.11,7.11,0,0,1,34.52,13.2Z"/><path class="cls-2" d="M26,34.05a9.76,9.76,0,0,1-5.53-1.55,1,1,0,0,0-1.49.19,10.31,10.31,0,0,1-1.06,1c-.33.29-.63.32-.7-.23s-.09-.89-.16-1.33c-.21-1.38-.45-2.76-.65-4.15-.16-1.09,0-1.19,1-1.07s2.13.13,3.17.34a25.39,25.39,0,0,0,2.75.44c.43,0,.25.28.11.44a14.89,14.89,0,0,1-1.21,1.3c-.31.28-.25.42.07.59a7.27,7.27,0,0,0,6.81.2,7.38,7.38,0,0,0,3.39-3.09,6.16,6.16,0,0,0,.84-3.1c0-1.75.11-1.5,1.86-1.19.09,0,.16.11.26.14,1.12.43,1.22.61,1,1.79a11.4,11.4,0,0,1-3,6.21,10.45,10.45,0,0,1-7.53,3Z"/></g></g></svg>