<svg xmlns="http://www.w3.org/2000/svg" viewBox="0 0 39.66 37.49"><defs><style>.cls-1{fill:#fff;}.cls-2{fill:#1067af;}</style></defs><title>marking-hotel</title><g id="Layer_2" data-name="Layer 2"><g id="Layer_1-2" data-name="Layer 1"><g id="Layer_1-2-2" data-name="Layer 1-2"><polygon class="cls-1" points="2.87 28.98 10.1 27.84 10.1 36.34 3.52 36.6 2.87 28.98"/><polygon class="cls-1" points="3.91 7.36 10.01 4.78 9.76 25.29 3.52 25.98 3.91 7.36"/><polygon class="cls-1" points="11.84 4.78 37.11 9.03 37.11 34.01 18.72 36.6 12.76 36.34 11.84 4.78"/><g id="Layer_1-2-2-2" data-name="Layer 1-2-2"><path class="cls-2" d="M39.66,35.77v1.54c0,.14,0,.2-.18.17H.86V36.13c0-.45.11-.38.37-.38h.7c.28,0,.39-.1.39-.39,0-1.62,0-3.26,0-4.9,0-.28-.11-.4-.4-.39H0v-.58a3.65,3.65,0,0,1,4-3c1.31.06,2.62,0,3.93,0h.57a.24.24,0,0,0,.25-.23h0c0-.19-.11-.25-.28-.25h-5a5.08,5.08,0,0,0-.67.07c-.5,0-.5,0-.5-.43V7.23a.5.5,0,0,1,.3-.53L10.84,3a.94.94,0,0,1,.57-.07l1.72.33L26,5.72,37.73,7.93c.51.09.51.09.51.6V35.47c0,.24.09.31.3.3ZM9.1,32.69V30.07c0-.51,0-.55-.55-.49L4.69,30c-.29,0-.38.15-.38.42v5c0,.29.12.39.4.39h4c.3,0,.4-.12.4-.41C9.09,34.47,9.1,33.58,9.1,32.69Zm15.15-16V14.76c0-.21,0-.36-.29-.4L21.09,14c-.21,0-.34,0-.34.27v4.06a.29.29,0,0,0,.24.32h0l2.85.33c.32,0,.41-.1.41-.4C24.24,17.94,24.25,17.3,24.25,16.68Zm-3.51,6.67v2c0,.18,0,.32.27.34l2.92.2c.24,0,.36-.07.36-.31V21.65a.29.29,0,0,0-.21-.34H24l-2.89-.22c-.32,0-.42.09-.41.38v1.88Zm3.51,7.23V28.63a.33.33,0,0,0-.27-.37H23.9l-2.81-.14c-.26,0-.37.08-.37.34v4c0,.24.09.35.36.36l2.76.07c.32,0,.45-.09.43-.42V30.58ZM20.74,9.22v1.94c0,.27.09.38.35.41L23.9,12c.27,0,.39-.06.39-.34V7.81a.35.35,0,0,0-.3-.39h0l-2.89-.5c-.35,0-.4,0-.41.36Zm9.51,1.51V8.92A.39.39,0,0,0,30,8.48H29.9L27.06,8c-.23,0-.35,0-.35.29v3.85a.31.31,0,0,0,.26.35h0c1,.15,1.9.27,2.85.43.26,0,.35,0,.35-.31ZM26.73,17v1.87c0,.29.12.41.41.43l2.66.29c.4,0,.45,0,.45-.38V15.69c0-.33-.12-.47-.45-.51-.9-.11-1.79-.23-2.68-.37-.3,0-.4.07-.4.35V17Zm0,13.66v1.92c0,.2.06.33.3.35h2.9a.26.26,0,0,0,.31-.2V28.88a.27.27,0,0,0-.3-.31l-2.83-.14c-.27,0-.39.1-.39.37v1.85Zm0-6.81v1.93c0,.21.06.34.3.35l2.86.2c.23,0,.35-.09.35-.32V22.26a.29.29,0,0,0-.24-.33h0l-2.89-.27c-.25,0-.34.07-.34.31v1.87Zm6,.46v1.84c0,.2,0,.35.28.36l2.89.2c.28,0,.38-.11.38-.38V22.81a.38.38,0,0,0-.31-.43h-.07c-.94-.07-1.86-.17-2.8-.26-.27,0-.38,0-.37.34Zm0,6.57v1.69c0,.48,0,.51.52.52.89,0,1.78,0,2.68.07.25,0,.35-.09.35-.34V29.29c0-.28-.12-.38-.4-.39-.94,0-1.89-.08-2.83-.14-.25,0-.33.07-.32.31Zm0-13.16v1.78c0,.3.1.43.4.46.93.08,1.88.19,2.82.29.26,0,.34-.07.33-.3V16.4a.3.3,0,0,0-.31-.35l-2.9-.4c-.26,0-.34,0-.33.31Zm3.51-6V9.93a.34.34,0,0,0-.3-.39h0L33.08,9c-.28,0-.39,0-.38.32V13a.33.33,0,0,0,.26.39H33c1,.13,1.89.27,2.83.42.27,0,.38,0,.36-.32Zm-18.74,3.1a2.73,2.73,0,0,0-2-2.87,1.93,1.93,0,0,0-2.2.84,2.89,2.89,0,0,0,1,3.79,2.16,2.16,0,0,0,2.78-.44,2.3,2.3,0,0,0,.44-1.32ZM13.31,8V9.66c0,.87-.08.73.76.88.27,0,.4,0,.4-.32V9c0-.42.12-.36.37-.31l.88.14a.26.26,0,0,1,.25.27h0v1c0,.79-.11.75.71.86.4,0,.45,0,.45-.38V7c0-.9.09-.76-.82-.94-.26,0-.35,0-.34.28s0,.78,0,1.17c0,.18,0,.27-.25.24l-1-.17c-.22,0-.3-.16-.3-.38s0-.46,0-.69c0-.85.1-.73-.76-.91-.31,0-.4,0-.4.34ZM8,8.2v-2c0-.23-.07-.3-.29-.2l-2,.8a.39.39,0,0,0-.29.44v3.67c0,.27.08.36.35.28l1.87-.51A.35.35,0,0,0,8,10.24H8C8,9.54,8,8.87,8,8.2Zm0,7.31v-2c0-.23-.1-.34-.34-.28l-1.88.37a.35.35,0,0,0-.32.39h0v3.61c0,.3.12.39.39.37l1.81-.12c.26,0,.34-.13.34-.38V15.5Zm0,7.3v-2c0-.26-.11-.38-.38-.38H5.79c-.25,0-.35.11-.35.35v3.68a.33.33,0,0,0,.27.38h0l1.82.27c.29,0,.41-.06.4-.35v-2Zm5.71,3.63v2c0,.43,0,.45.45.47a15.18,15.18,0,0,1,1.91.08c.63.08.69.08.67-.68a.28.28,0,0,0-.24-.31h0l-1.17-.07c-.42,0-.45,0-.45-.46v-.24c0-.18.09-.28.29-.25s.65,0,1,0,.43-.07.41-.38a1.13,1.13,0,0,1,0-.26c0-.27-.12-.37-.37-.38l-1-.07c-.37,0-.27-.31-.29-.52s.15-.27.33-.26a6.17,6.17,0,0,1,.86,0c.65.1.6,0,.61-.61,0-.25-.1-.37-.37-.39-.73,0-1.48-.11-2.22-.18-.26,0-.37.09-.37.34v2.19ZM14.62,21h0v1.31c0,.54,0,.54.53.61h.08c.48,0,.53,0,.53-.48V19.61c0-.47,0-.47.44-.44l.56.07a.24.24,0,0,0,.3-.15v0a.2.2,0,0,0,0-.11v-.33c0-.3-.09-.41-.39-.45-.9-.08-1.81-.19-2.72-.29s-.75-.07-.7.68a.3.3,0,0,0,.32.34c.22,0,.38.06.58.06a.44.44,0,0,1,.43.44v1.52Zm-.91,11.58v1.91c0,.49,0,.51.49.51h1.94c.58,0,.59,0,.58-.59v-.1c0-.24-.11-.34-.34-.34H15.29c-.36,0-.44-.13-.44-.46v-2.6c0-.85.11-.76-.78-.79-.26,0-.38.08-.38.37v2.08Z"/><path class="cls-2" d="M11.56,0c1.17.28,2.35.47,3.58.7L34.28,4.32l1.66.37a.37.37,0,0,1,.38.37V6.3c0,.37-.12.37-.4.32l-4.87-.93L12,2.06a2.59,2.59,0,0,0-1.71.21L4.69,4.8C4.3,5,4.28,5,4.26,4.55s0-.7,0-1A.49.49,0,0,1,4.59,3L10.65.28A2.25,2.25,0,0,0,11.18,0Z"/><path class="cls-2" d="M16.32,14.53a2.18,2.18,0,0,1-.11.62.87.87,0,0,1-.72.69,1,1,0,0,1-1-.4,1.91,1.91,0,0,1-.2-2,1,1,0,0,1,1.3-.4h0a.92.92,0,0,1,.33.29A1.92,1.92,0,0,1,16.32,14.53Z"/></g></g></g></g></svg>