<svg xmlns="http://www.w3.org/2000/svg" xmlns:xlink="http://www.w3.org/1999/xlink" viewBox="0 0 52.54 59.55"><defs><style>.cls-1{isolation:isolate;}.cls-2{fill:#cc8d8c;}.cls-3{fill:#df4e2b;}.cls-4{fill:#f15934;}.cls-5{fill:#ffecbf;}.cls-6{fill:#edb17d;}.cls-7{fill:#0a7e89;}.cls-8{fill:#089dac;}.cls-9{fill:#facf90;}.cls-10{fill:#bd7184;}.cls-10,.cls-13,.cls-14{mix-blend-mode:multiply;}.cls-11{fill:#c78483;}.cls-12{fill:#ce9792;}.cls-14,.cls-19{fill:#e8b5c4;}.cls-15{fill:#ffdc9b;}.cls-16{fill:#463959;}.cls-17{fill:#67547d;}.cls-18{fill:#fee6ad;}.cls-20{fill:#e8bfaa;}.cls-21{fill:#ffb145;}.cls-22{fill:#f09b39;}.cls-23{fill:#879b18;}.cls-24{fill:#a66c78;}.cls-25{fill:url(#Áåçûìÿííûé_ãðàäèåíò_236);}.cls-26{fill:url(#Áåçûìÿííûé_ãðàäèåíò_236-2);}</style><linearGradient id="Áåçûìÿííûé_ãðàäèåíò_236" x1="13.91" y1="49.17" x2="12.94" y2="65.19" gradientUnits="userSpaceOnUse"><stop offset="0" stop-color="#f2f14b"/><stop offset="0.5" stop-color="#a9ae1b"/><stop offset="1" stop-color="#6f9012"/></linearGradient><linearGradient id="Áåçûìÿííûé_ãðàäèåíò_236-2" x1="3.01" y1="47.59" x2="2.01" y2="64.27" xlink:href="#Áåçûìÿííûé_ãðàäèåíò_236"/></defs><title>school-test</title><g class="cls-1"><g id="Layer_2" data-name="Layer 2"><g id="Layer_1-2" data-name="Layer 1"><polygon class="cls-2" points="2.42 54.19 2.02 54.19 2.02 58.01 17.16 58.01 16.95 54.19 2.42 54.19"/><polygon class="cls-3" points="16.52 54.19 2.42 54.19 1.38 19.8 16.52 19.8 16.52 54.19"/><polygon class="cls-4" points="4.56 47.78 3.82 47.78 3.77 47.01 4.6 47.03 4.56 47.78"/><polygon class="cls-4" points="3.73 46.66 3.03 46.66 2.98 45.93 3.76 45.95 3.73 46.66"/><polygon class="cls-4" points="2.91 44 2.14 44 2.09 43.2 2.94 43.23 2.91 44"/><polygon class="cls-4" points="2.83 41.67 2.15 41.67 2.11 40.98 2.86 41 2.83 41.67"/><polygon class="cls-4" points="6.94 37.53 6.17 37.53 6.12 36.73 6.97 36.76 6.94 37.53"/><polygon class="cls-4" points="7.62 35.19 6.94 35.19 6.89 34.49 7.65 34.51 7.62 35.19"/><polygon class="cls-4" points="7.21 32.29 6.46 32.29 6.41 31.52 7.24 31.55 7.21 32.29"/><polygon class="cls-4" points="6.61 31.26 5.92 31.26 5.87 30.54 6.64 30.57 6.61 31.26"/><polygon class="cls-4" points="5.43 30.16 4.7 30.16 4.65 29.4 5.46 29.43 5.43 30.16"/><polygon class="cls-4" points="6.9 33.93 6.22 33.93 6.17 33.23 6.93 33.25 6.9 33.93"/><polygon class="cls-4" points="12.91 45.65 12.18 45.65 12.13 44.89 12.95 44.91 12.91 45.65"/><polygon class="cls-4" points="12.26 44.73 11.49 44.73 11.44 43.94 12.29 43.96 12.26 44.73"/><polygon class="cls-4" points="12.13 42.57 11.4 42.57 11.35 41.81 12.16 41.83 12.13 42.57"/><polygon class="cls-4" points="11.98 40.72 11.26 40.72 11.21 39.98 12.01 40 11.98 40.72"/><polygon class="cls-4" points="11.24 39.94 10.48 39.94 10.43 39.16 11.27 39.19 11.24 39.94"/><polygon class="cls-4" points="9.86 39.9 9.09 39.9 9.04 39.11 9.89 39.13 9.86 39.9"/><polygon class="cls-4" points="12.11 49.09 11.36 49.09 11.31 48.32 12.14 48.34 12.11 49.09"/><polygon class="cls-4" points="10.76 47.8 9.99 47.8 9.94 47.01 10.79 47.04 10.76 47.8"/><polygon class="cls-4" points="3.59 51.54 2.84 51.54 2.79 50.77 3.63 50.79 3.59 51.54"/><polygon class="cls-4" points="4.53 53.21 3.8 53.21 3.75 52.44 4.57 52.47 4.53 53.21"/><polygon class="cls-4" points="4.81 50.37 4.12 50.37 4.07 49.65 4.84 49.67 4.81 50.37"/><polygon class="cls-4" points="14.08 41.57 13.33 41.57 13.28 40.79 14.11 40.82 14.08 41.57"/><polygon class="cls-4" points="14.14 39.81 13.45 39.81 13.4 39.09 14.17 39.12 14.14 39.81"/><polygon class="cls-4" points="13.36 37.91 12.62 37.91 12.57 37.14 13.39 37.17 13.36 37.91"/><polygon class="cls-4" points="13.43 35.07 12.7 35.07 12.65 34.31 13.46 34.33 13.43 35.07"/><polygon class="cls-4" points="12.94 38.07 12.21 38.07 12.16 37.32 12.97 37.34 12.94 38.07"/><polygon class="cls-4" points="12.78 36.67 12.03 36.67 11.98 35.9 12.81 35.92 12.78 36.67"/><polygon class="cls-4" points="11.54 34.38 10.79 34.38 10.74 33.61 11.57 33.63 11.54 34.38"/><polygon class="cls-4" points="10.73 25.2 10 25.2 9.95 24.43 10.77 24.46 10.73 25.2"/><polygon class="cls-4" points="9.38 24.36 8.7 24.36 8.65 23.65 9.4 23.68 9.38 24.36"/><polygon class="cls-4" points="9.51 22.32 8.77 22.32 8.72 21.55 9.55 21.58 9.51 22.32"/><polygon class="cls-4" points="8.33 22.02 7.56 22.02 7.51 21.23 8.36 21.26 8.33 22.02"/><polygon class="cls-4" points="14.02 22.81 13.27 22.81 13.22 22.04 14.05 22.06 14.02 22.81"/><polygon class="cls-4" points="12.88 24.63 12.2 24.63 12.16 23.93 12.91 23.95 12.88 24.63"/><polygon class="cls-4" points="12.12 24.52 11.4 24.52 11.36 23.78 12.15 23.81 12.12 24.52"/><polygon class="cls-4" points="10.73 22.94 10.05 22.94 10 22.23 10.76 22.26 10.73 22.94"/><polygon class="cls-4" points="3.07 27.95 2.35 27.95 2.31 27.2 3.1 27.23 3.07 27.95"/><polygon class="cls-4" points="3.42 25.29 2.71 25.29 2.66 24.56 3.45 24.58 3.42 25.29"/><polygon class="cls-4" points="2.48 23.7 1.76 23.7 1.71 22.95 2.52 22.98 2.48 23.7"/><polygon class="cls-4" points="5.63 24.02 4.9 24.02 4.85 23.25 5.66 23.28 5.63 24.02"/><polygon class="cls-4" points="4.17 22.5 3.4 22.5 3.35 21.7 4.2 21.72 4.17 22.5"/><polygon class="cls-4" points="8.04 40.42 7.34 40.42 7.29 39.69 8.07 39.71 8.04 40.42"/><polygon class="cls-4" points="7.18 39.66 6.45 39.66 6.4 38.91 7.21 38.93 7.18 39.66"/><polygon class="cls-4" points="5.86 38.75 5.17 38.75 5.13 38.04 5.89 38.06 5.86 38.75"/><polygon class="cls-4" points="6.39 36.83 5.63 36.83 5.58 36.05 6.42 36.07 6.39 36.83"/><polygon class="cls-4" points="5.16 35.2 4.44 35.2 4.39 34.45 5.19 34.48 5.16 35.2"/><polygon class="cls-4" points="12.74 53.07 12.07 53.07 12.03 52.38 12.77 52.4 12.74 53.07"/><polygon class="cls-4" points="12.3 53.75 11.53 53.75 11.48 52.95 12.33 52.98 12.3 53.75"/><polygon class="cls-4" points="11.34 51.94 10.65 51.94 10.61 51.23 11.37 51.25 11.34 51.94"/><polygon class="cls-4" points="9.58 53.36 8.91 53.36 8.87 52.67 9.61 52.69 9.58 53.36"/><polygon class="cls-4" points="8.39 53.53 7.63 53.53 7.57 52.73 8.43 52.76 8.39 53.53"/><polygon class="cls-5" points="6.57 50.73 3.67 50.73 3.26 39.8 6.41 39.8 6.57 50.73"/><polygon class="cls-6" points="3.95 50.28 3.58 40.25 6.11 40.25 6.26 50.28 3.95 50.28"/><polygon class="cls-7" points="4.07 50.1 3.71 40.43 5.99 40.43 6.14 50.1 4.07 50.1"/><polygon class="cls-8" points="4.03 41.33 4.45 49.77 5.73 49.77 5.71 41.61 4.03 41.33"/><polygon class="cls-9" points="5.05 50.21 4.79 40.32 4.89 40.32 5.15 50.2 5.05 50.21"/><rect class="cls-9" x="3.8" y="44.06" width="2.33" height="0.16"/><rect class="cls-9" x="3.89" y="47.39" width="2.33" height="0.16"/><polygon class="cls-5" points="10.92 50.73 8.01 50.73 7.6 39.8 10.75 39.8 10.92 50.73"/><polygon class="cls-6" points="8.3 50.28 7.92 40.25 10.45 40.25 10.61 50.28 8.3 50.28"/><polygon class="cls-7" points="8.41 50.1 8.05 40.43 10.34 40.43 10.48 50.1 8.41 50.1"/><polygon class="cls-8" points="8.37 41.33 8.8 49.77 10.08 49.77 10.06 41.61 8.37 41.33"/><polygon class="cls-9" points="9.39 50.21 9.13 40.32 9.23 40.32 9.49 50.2 9.39 50.21"/><rect class="cls-9" x="8.15" y="44.06" width="2.33" height="0.16"/><rect class="cls-9" x="8.24" y="47.39" width="2.33" height="0.16"/><polygon class="cls-5" points="15.26 50.73 12.35 50.73 11.95 39.8 15.1 39.8 15.26 50.73"/><polygon class="cls-6" points="12.64 50.28 12.27 40.25 14.8 40.25 14.95 50.28 12.64 50.28"/><polygon class="cls-7" points="12.76 50.1 12.4 40.43 14.68 40.43 14.82 50.1 12.76 50.1"/><polygon class="cls-8" points="12.71 41.33 13.14 49.77 14.42 49.77 14.4 41.61 12.71 41.33"/><polygon class="cls-9" points="13.73 50.21 13.48 40.32 13.58 40.32 13.84 50.2 13.73 50.21"/><rect class="cls-9" x="12.49" y="44.06" width="2.33" height="0.16"/><rect class="cls-9" x="12.58" y="47.39" width="2.33" height="0.16"/><polygon class="cls-5" points="6.18 36.17 3.14 36.17 2.71 25.24 6.01 25.24 6.18 36.17"/><polygon class="cls-6" points="3.44 35.72 3.05 25.69 5.7 25.69 5.85 35.72 3.44 35.72"/><polygon class="cls-7" points="3.56 35.54 3.18 25.87 5.57 25.87 5.72 35.54 3.56 35.54"/><polygon class="cls-8" points="3.52 26.77 3.96 35.22 5.3 35.22 5.28 27.05 3.52 26.77"/><polygon class="cls-9" points="4.58 35.65 4.31 25.77 4.42 25.76 4.69 35.64 4.58 35.65"/><rect class="cls-9" x="3.29" y="29.5" width="2.44" height="0.16"/><rect class="cls-9" x="3.38" y="32.83" width="2.44" height="0.16"/><polygon class="cls-5" points="10.72 36.17 7.68 36.17 7.25 25.24 10.55 25.24 10.72 36.17"/><polygon class="cls-6" points="7.98 35.72 7.59 25.69 10.24 25.69 10.39 35.72 7.98 35.72"/><polygon class="cls-7" points="8.1 35.54 7.72 25.87 10.11 25.87 10.26 35.54 8.1 35.54"/><polygon class="cls-8" points="8.06 26.77 8.51 35.22 9.84 35.22 9.82 27.05 8.06 26.77"/><polygon class="cls-9" points="9.12 35.65 8.85 25.77 8.96 25.76 9.23 35.64 9.12 35.65"/><rect class="cls-9" x="7.83" y="29.5" width="2.44" height="0.16"/><rect class="cls-9" x="7.92" y="32.83" width="2.44" height="0.16"/><polygon class="cls-5" points="15.26 36.17 12.22 36.17 11.79 25.24 15.09 25.24 15.26 36.17"/><polygon class="cls-6" points="12.52 35.72 12.13 25.69 14.78 25.69 14.94 35.72 12.52 35.72"/><polygon class="cls-7" points="12.64 35.54 12.27 25.87 14.65 25.87 14.8 35.54 12.64 35.54"/><polygon class="cls-8" points="12.6 26.77 13.05 35.22 14.38 35.22 14.36 27.05 12.6 26.77"/><polygon class="cls-9" points="13.67 35.65 13.39 25.77 13.5 25.76 13.78 35.64 13.67 35.65"/><rect class="cls-9" x="12.37" y="29.5" width="2.44" height="0.16"/><rect class="cls-9" x="12.46" y="32.83" width="2.44" height="0.16"/><polygon class="cls-6" points="0.58 20.58 0.82 21.72 16.02 21.72 16.02 20.38 0.58 20.58"/><polygon class="cls-5" points="0 18.91 0.36 20.68 16.02 20.68 16.02 19.2 0 18.91"/><polygon class="cls-5" points="1.31 21.72 1.46 23.45 1.84 23.45 1.87 21.72 1.31 21.72"/><polygon class="cls-5" points="2.51 21.72 2.66 23.45 3.04 23.45 3.07 21.72 2.51 21.72"/><polygon class="cls-5" points="3.71 21.72 3.86 23.45 4.24 23.45 4.27 21.72 3.71 21.72"/><polygon class="cls-5" points="4.92 21.72 5.06 23.45 5.45 23.45 5.48 21.72 4.92 21.72"/><polygon class="cls-5" points="6.12 21.72 6.26 23.45 6.65 23.45 6.68 21.72 6.12 21.72"/><polygon class="cls-5" points="7.32 21.72 7.47 23.45 7.85 23.45 7.88 21.72 7.32 21.72"/><polygon class="cls-5" points="8.52 21.72 8.67 23.45 9.05 23.45 9.08 21.72 8.52 21.72"/><polygon class="cls-5" points="9.72 21.72 9.87 23.45 10.26 23.45 10.29 21.72 9.72 21.72"/><polygon class="cls-5" points="10.93 21.72 11.08 23.45 11.46 23.45 11.49 21.72 10.93 21.72"/><polygon class="cls-5" points="12.13 21.72 12.28 23.45 12.66 23.45 12.69 21.72 12.13 21.72"/><polygon class="cls-5" points="13.33 21.72 13.48 23.45 13.86 23.45 13.89 21.72 13.33 21.72"/><polygon class="cls-5" points="14.54 21.72 14.68 23.45 15.06 23.45 15.1 21.72 14.54 21.72"/><polygon class="cls-10" points="1.31 21.72 14.16 21.72 14.07 20.68 14.54 20.68 14.42 19.17 16.02 19.2 16.76 58.01 14.87 58.01 13.89 22.59 1.35 22.27 1.31 21.72"/><polygon class="cls-11" points="4.32 56.4 3.74 56.4 3.71 55.8 4.34 55.82 4.32 56.4"/><polygon class="cls-11" points="4.95 55.73 4.41 55.73 4.37 55.17 4.98 55.19 4.95 55.73"/><polygon class="cls-11" points="5.16 57.51 4.61 57.51 4.58 56.95 5.18 56.97 5.16 57.51"/><polygon class="cls-11" points="3.97 55.87 3.41 55.87 3.38 55.3 3.99 55.32 3.97 55.87"/><polygon class="cls-11" points="3.07 55.95 2.54 55.95 2.51 55.41 3.09 55.43 3.07 55.95"/><polygon class="cls-11" points="10.43 56.04 9.88 56.04 9.84 55.47 10.46 55.48 10.43 56.04"/><polygon class="cls-11" points="8.99 55.85 8.46 55.85 8.42 55.3 9.01 55.32 8.99 55.85"/><polygon class="cls-11" points="9.29 56.39 8.74 56.39 8.7 55.82 9.32 55.84 9.29 56.39"/><polygon class="cls-11" points="7.62 57.36 7.08 57.36 7.04 56.8 7.64 56.82 7.62 57.36"/><polygon class="cls-11" points="13.79 55.53 13.27 55.53 13.24 54.99 13.81 55.01 13.79 55.53"/><polygon class="cls-11" points="13.03 56.01 12.49 56.01 12.45 55.45 13.05 55.47 13.03 56.01"/><polygon class="cls-11" points="14.19 57.08 13.64 57.08 13.61 56.52 14.21 56.54 14.19 57.08"/><polygon class="cls-11" points="14.61 56.68 14.07 56.68 14.03 56.12 14.63 56.14 14.61 56.68"/><polygon class="cls-11" points="9.82 57.38 9.28 57.38 9.25 56.82 9.85 56.84 9.82 57.38"/><polygon class="cls-11" points="10.05 54.96 9.49 54.96 9.45 54.38 10.07 54.4 10.05 54.96"/><polygon class="cls-2" points="50.12 54.19 50.52 54.19 50.52 58.01 35.38 58.01 35.59 54.19 50.12 54.19"/><polygon class="cls-3" points="36.02 54.19 50.12 54.19 51.16 19.8 36.02 19.8 36.02 54.19"/><polygon class="cls-4" points="47.98 47.78 48.73 47.78 48.78 47.01 47.95 47.03 47.98 47.78"/><polygon class="cls-4" points="48.81 46.66 49.51 46.66 49.56 45.93 48.78 45.95 48.81 46.66"/><polygon class="cls-4" points="49.64 44 50.4 44 50.45 43.2 49.6 43.23 49.64 44"/><polygon class="cls-4" points="49.72 41.67 50.39 41.67 50.44 40.98 49.69 41 49.72 41.67"/><polygon class="cls-4" points="45.6 37.53 46.37 37.53 46.42 36.73 45.57 36.76 45.6 37.53"/><polygon class="cls-4" points="44.93 35.19 45.6 35.19 45.65 34.49 44.9 34.51 44.93 35.19"/><polygon class="cls-4" points="45.33 32.29 46.08 32.29 46.13 31.52 45.3 31.55 45.33 32.29"/><polygon class="cls-4" points="45.94 31.26 46.63 31.26 46.67 30.54 45.91 30.57 45.94 31.26"/><polygon class="cls-4" points="47.12 30.16 47.85 30.16 47.9 29.4 47.08 29.43 47.12 30.16"/><polygon class="cls-4" points="45.65 33.93 46.33 33.93 46.37 33.23 45.62 33.25 45.65 33.93"/><polygon class="cls-4" points="39.63 45.65 40.36 45.65 40.41 44.89 39.6 44.91 39.63 45.65"/><polygon class="cls-4" points="40.28 44.73 41.05 44.73 41.1 43.94 40.25 43.96 40.28 44.73"/><polygon class="cls-4" points="40.41 42.57 41.15 42.57 41.2 41.81 40.38 41.83 40.41 42.57"/><polygon class="cls-4" points="40.56 40.72 41.28 40.72 41.33 39.98 40.53 40 40.56 40.72"/><polygon class="cls-4" points="41.31 39.94 42.06 39.94 42.11 39.16 41.27 39.19 41.31 39.94"/><polygon class="cls-4" points="42.69 39.9 43.45 39.9 43.5 39.11 42.66 39.13 42.69 39.9"/><polygon class="cls-4" points="40.44 49.09 41.18 49.09 41.23 48.32 40.41 48.34 40.44 49.09"/><polygon class="cls-4" points="41.79 47.8 42.55 47.8 42.6 47.01 41.75 47.04 41.79 47.8"/><polygon class="cls-4" points="48.95 51.54 49.7 51.54 49.75 50.77 48.92 50.79 48.95 51.54"/><polygon class="cls-4" points="48.01 53.21 48.75 53.21 48.8 52.44 47.98 52.47 48.01 53.21"/><polygon class="cls-4" points="47.73 50.37 48.43 50.37 48.47 49.65 47.7 49.67 47.73 50.37"/><polygon class="cls-4" points="38.46 41.57 39.22 41.57 39.27 40.79 38.43 40.82 38.46 41.57"/><polygon class="cls-4" points="38.4 39.81 39.1 39.81 39.14 39.09 38.37 39.12 38.4 39.81"/><polygon class="cls-4" points="39.18 37.91 39.92 37.91 39.97 37.14 39.15 37.17 39.18 37.91"/><polygon class="cls-4" points="39.11 35.07 39.85 35.07 39.9 34.31 39.08 34.33 39.11 35.07"/><polygon class="cls-4" points="39.61 38.07 40.34 38.07 40.38 37.32 39.57 37.34 39.61 38.07"/><polygon class="cls-4" points="39.77 36.67 40.51 36.67 40.56 35.9 39.74 35.92 39.77 36.67"/><polygon class="cls-4" points="41 34.38 41.75 34.38 41.8 33.61 40.97 33.63 41 34.38"/><polygon class="cls-4" points="41.81 25.2 42.54 25.2 42.59 24.43 41.78 24.46 41.81 25.2"/><polygon class="cls-4" points="43.17 24.36 43.85 24.36 43.89 23.65 43.14 23.68 43.17 24.36"/><polygon class="cls-4" points="43.03 22.32 43.77 22.32 43.82 21.55 43 21.58 43.03 22.32"/><polygon class="cls-4" points="44.21 22.02 44.98 22.02 45.03 21.23 44.18 21.26 44.21 22.02"/><polygon class="cls-4" points="38.53 22.81 39.27 22.81 39.32 22.04 38.49 22.06 38.53 22.81"/><polygon class="cls-4" points="39.66 24.63 40.34 24.63 40.39 23.93 39.63 23.95 39.66 24.63"/><polygon class="cls-4" points="40.43 24.52 41.14 24.52 41.19 23.78 40.4 23.81 40.43 24.52"/><polygon class="cls-4" points="41.81 22.94 42.5 22.94 42.54 22.23 41.78 22.26 41.81 22.94"/><polygon class="cls-4" points="49.47 27.95 50.19 27.95 50.24 27.2 49.44 27.23 49.47 27.95"/><polygon class="cls-4" points="49.13 25.29 49.84 25.29 49.88 24.56 49.1 24.58 49.13 25.29"/><polygon class="cls-4" points="50.06 23.7 50.78 23.7 50.83 22.95 50.03 22.98 50.06 23.7"/><polygon class="cls-4" points="46.91 24.02 47.65 24.02 47.7 23.25 46.88 23.28 46.91 24.02"/><polygon class="cls-4" points="48.38 22.5 49.15 22.5 49.2 21.7 48.34 21.72 48.38 22.5"/><polygon class="cls-4" points="44.5 40.42 45.2 40.42 45.25 39.69 44.47 39.71 44.5 40.42"/><polygon class="cls-4" points="45.37 39.66 46.09 39.66 46.14 38.91 45.33 38.93 45.37 39.66"/><polygon class="cls-4" points="46.68 38.75 47.37 38.75 47.42 38.04 46.65 38.06 46.68 38.75"/><polygon class="cls-4" points="46.15 36.83 46.91 36.83 46.96 36.05 46.12 36.07 46.15 36.83"/><polygon class="cls-4" points="47.38 35.2 48.1 35.2 48.15 34.45 47.35 34.48 47.38 35.2"/><polygon class="cls-4" points="39.8 53.07 40.47 53.07 40.52 52.38 39.77 52.4 39.8 53.07"/><polygon class="cls-4" points="40.24 53.75 41.02 53.75 41.07 52.95 40.21 52.98 40.24 53.75"/><polygon class="cls-4" points="41.2 51.94 41.89 51.94 41.94 51.23 41.17 51.25 41.2 51.94"/><polygon class="cls-4" points="42.96 53.36 43.63 53.36 43.67 52.67 42.93 52.69 42.96 53.36"/><polygon class="cls-4" points="44.15 53.53 44.92 53.53 44.97 52.73 44.12 52.76 44.15 53.53"/><polygon class="cls-5" points="45.97 50.73 48.88 50.73 49.29 39.8 46.13 39.8 45.97 50.73"/><polygon class="cls-6" points="48.59 50.28 48.97 40.25 46.43 40.25 46.28 50.28 48.59 50.28"/><polygon class="cls-7" points="48.47 50.1 48.84 40.43 46.55 40.43 46.41 50.1 48.47 50.1"/><polygon class="cls-8" points="48.52 41.33 48.09 49.77 46.81 49.77 46.83 41.61 48.52 41.33"/><polygon class="cls-9" points="47.5 50.21 47.76 40.32 47.65 40.32 47.39 50.2 47.5 50.21"/><rect class="cls-9" x="46.41" y="44.06" width="2.33" height="0.16"/><rect class="cls-9" x="46.32" y="47.39" width="2.33" height="0.16"/><polygon class="cls-5" points="41.63 50.73 44.53 50.73 44.94 39.8 41.79 39.8 41.63 50.73"/><polygon class="cls-6" points="44.25 50.28 44.62 40.25 42.09 40.25 41.94 50.28 44.25 50.28"/><polygon class="cls-7" points="44.13 50.1 44.49 40.43 42.21 40.43 42.06 50.1 44.13 50.1"/><polygon class="cls-8" points="44.17 41.33 43.74 49.77 42.47 49.77 42.49 41.61 44.17 41.33"/><polygon class="cls-9" points="43.15 50.21 43.41 40.32 43.31 40.32 43.05 50.2 43.15 50.21"/><rect class="cls-9" x="42.06" y="44.06" width="2.33" height="0.16"/><rect class="cls-9" x="41.97" y="47.39" width="2.33" height="0.16"/><polygon class="cls-5" points="37.28 50.73 40.19 50.73 40.6 39.8 37.45 39.8 37.28 50.73"/><polygon class="cls-6" points="39.9 50.28 40.28 40.25 37.74 40.25 37.59 50.28 39.9 50.28"/><polygon class="cls-7" points="39.78 50.1 40.15 40.43 37.86 40.43 37.72 50.1 39.78 50.1"/><polygon class="cls-8" points="39.83 41.33 39.4 49.77 38.12 49.77 38.14 41.61 39.83 41.33"/><polygon class="cls-9" points="38.81 50.21 39.07 40.32 38.96 40.32 38.7 50.2 38.81 50.21"/><rect class="cls-9" x="37.72" y="44.06" width="2.33" height="0.16"/><rect class="cls-9" x="37.63" y="47.39" width="2.33" height="0.16"/><polygon class="cls-5" points="46.36 36.17 49.41 36.17 49.83 25.24 46.54 25.24 46.36 36.17"/><polygon class="cls-6" points="49.1 35.72 49.49 25.69 46.85 25.69 46.69 35.72 49.1 35.72"/><polygon class="cls-7" points="48.98 35.54 49.36 25.87 46.97 25.87 46.82 35.54 48.98 35.54"/><polygon class="cls-8" points="49.03 26.77 48.58 35.22 47.24 35.22 47.26 27.05 49.03 26.77"/><polygon class="cls-9" points="47.96 35.65 48.23 25.77 48.12 25.76 47.85 35.64 47.96 35.65"/><rect class="cls-9" x="46.82" y="29.5" width="2.44" height="0.16"/><rect class="cls-9" x="46.73" y="32.83" width="2.44" height="0.16"/><polygon class="cls-5" points="41.82 36.17 44.86 36.17 45.29 25.24 41.99 25.24 41.82 36.17"/><polygon class="cls-6" points="44.56 35.72 44.95 25.69 42.31 25.69 42.15 35.72 44.56 35.72"/><polygon class="cls-7" points="44.44 35.54 44.82 25.87 42.43 25.87 42.28 35.54 44.44 35.54"/><polygon class="cls-8" points="44.49 26.77 44.04 35.22 42.7 35.22 42.72 27.05 44.49 26.77"/><polygon class="cls-9" points="43.42 35.65 43.69 25.77 43.58 25.76 43.31 35.64 43.42 35.65"/><rect class="cls-9" x="42.28" y="29.5" width="2.44" height="0.16"/><rect class="cls-9" x="42.19" y="32.83" width="2.44" height="0.16"/><polygon class="cls-5" points="37.28 36.17 40.32 36.17 40.75 25.24 37.45 25.24 37.28 36.17"/><polygon class="cls-6" points="40.02 35.72 40.41 25.69 37.77 25.69 37.61 35.72 40.02 35.72"/><polygon class="cls-7" points="39.9 35.54 40.28 25.87 37.89 25.87 37.74 35.54 39.9 35.54"/><polygon class="cls-8" points="39.95 26.77 39.5 35.22 38.16 35.22 38.18 27.05 39.95 26.77"/><polygon class="cls-9" points="38.88 35.65 39.15 25.77 39.04 25.76 38.77 35.64 38.88 35.65"/><rect class="cls-9" x="37.74" y="29.5" width="2.44" height="0.16"/><rect class="cls-9" x="37.65" y="32.83" width="2.44" height="0.16"/><polygon class="cls-6" points="51.96 20.58 51.73 21.72 36.52 21.72 36.52 20.38 51.96 20.58"/><polygon class="cls-5" points="52.54 18.91 52.18 20.68 36.52 20.68 36.52 19.2 52.54 18.91"/><polygon class="cls-5" points="51.24 21.72 51.09 23.45 50.71 23.45 50.68 21.72 51.24 21.72"/><polygon class="cls-5" points="50.03 21.72 49.89 23.45 49.5 23.45 49.47 21.72 50.03 21.72"/><polygon class="cls-5" points="48.83 21.72 48.68 23.45 48.3 23.45 48.27 21.72 48.83 21.72"/><polygon class="cls-5" points="47.63 21.72 47.48 23.45 47.1 23.45 47.07 21.72 47.63 21.72"/><polygon class="cls-5" points="46.43 21.72 46.28 23.45 45.9 23.45 45.87 21.72 46.43 21.72"/><polygon class="cls-5" points="45.22 21.72 45.08 23.45 44.69 23.45 44.66 21.72 45.22 21.72"/><polygon class="cls-5" points="44.02 21.72 43.87 23.45 43.49 23.45 43.46 21.72 44.02 21.72"/><polygon class="cls-5" points="42.82 21.72 42.67 23.45 42.29 23.45 42.26 21.72 42.82 21.72"/><polygon class="cls-5" points="41.62 21.72 41.47 23.45 41.09 23.45 41.05 21.72 41.62 21.72"/><polygon class="cls-5" points="40.41 21.72 40.27 23.45 39.88 23.45 39.85 21.72 40.41 21.72"/><polygon class="cls-5" points="39.21 21.72 39.06 23.45 38.68 23.45 38.65 21.72 39.21 21.72"/><polygon class="cls-5" points="38.01 21.72 37.86 23.45 37.48 23.45 37.45 21.72 38.01 21.72"/><polygon class="cls-10" points="51.24 21.72 38.39 21.72 38.48 20.68 38.01 20.68 38.13 19.17 36.52 19.2 35.79 58.01 37.68 58.01 38.65 22.59 51.19 22.27 51.24 21.72"/><polygon class="cls-11" points="48.23 56.4 48.8 56.4 48.84 55.8 48.2 55.82 48.23 56.4"/><polygon class="cls-11" points="47.59 55.73 48.13 55.73 48.17 55.17 47.57 55.19 47.59 55.73"/><polygon class="cls-11" points="47.38 57.51 47.93 57.51 47.97 56.95 47.36 56.97 47.38 57.51"/><polygon class="cls-11" points="48.57 55.87 49.13 55.87 49.17 55.3 48.55 55.32 48.57 55.87"/><polygon class="cls-11" points="49.48 55.95 50 55.95 50.04 55.41 49.45 55.43 49.48 55.95"/><polygon class="cls-11" points="42.11 56.04 42.66 56.04 42.7 55.47 42.09 55.48 42.11 56.04"/><polygon class="cls-11" points="43.56 55.85 44.09 55.85 44.12 55.3 43.53 55.32 43.56 55.85"/><polygon class="cls-11" points="43.25 56.39 43.8 56.39 43.84 55.82 43.22 55.84 43.25 56.39"/><polygon class="cls-11" points="44.92 57.36 45.46 57.36 45.5 56.8 44.9 56.82 44.92 57.36"/><polygon class="cls-11" points="38.76 55.53 39.27 55.53 39.31 54.99 38.73 55.01 38.76 55.53"/><polygon class="cls-11" points="39.52 56.01 40.06 56.01 40.09 55.45 39.49 55.47 39.52 56.01"/><polygon class="cls-11" points="38.36 57.08 38.9 57.08 38.94 56.52 38.34 56.54 38.36 57.08"/><polygon class="cls-11" points="37.93 56.68 38.47 56.68 38.51 56.12 37.91 56.14 37.93 56.68"/><polygon class="cls-11" points="42.72 57.38 43.26 57.38 43.3 56.82 42.7 56.84 42.72 57.38"/><polygon class="cls-11" points="42.5 54.96 43.05 54.96 43.09 54.38 42.47 54.4 42.5 54.96"/><polygon class="cls-12" points="36.98 53.19 36.82 58.67 15.86 58.67 15.7 53.19 16.21 53.19 36.47 53.19 36.98 53.19"/><polygon class="cls-4" points="32.88 14.07 19.8 14.07 26.34 4.05 32.88 14.07"/><polygon class="cls-5" points="39.21 10.6 38.94 13.02 38.68 13.02 33.03 13.02 26.34 2.59 19.65 13.02 14 13.02 13.74 13.02 13.47 10.6 19.46 11.05 26.34 0 33.22 11.05 39.21 10.6"/><polygon class="cls-6" points="38.68 13.02 38.53 14.07 38.27 14.07 32.88 14.07 26.34 4.05 19.8 14.07 14.41 14.07 14.14 14.07 14 13.02 19.65 13.02 26.34 2.59 33.03 13.02 38.68 13.02"/><polygon class="cls-5" points="38.27 14.07 38.13 15.27 37.22 15.27 15.46 15.27 14.55 15.27 14.41 14.07 19.8 14.07 32.88 14.07 38.27 14.07"/><polygon class="cls-4" points="37.22 15.27 36.47 53.19 16.21 53.19 15.46 15.27 37.22 15.27"/><polygon class="cls-3" points="17.34 26.85 16.57 26.85 16.52 26.06 17.38 26.08 17.34 26.85"/><polygon class="cls-3" points="16.97 24.34 16.22 24.34 16.17 23.55 17.01 23.58 16.97 24.34"/><polygon class="cls-3" points="17.46 21.95 16.76 21.95 16.71 21.22 17.5 21.24 17.46 21.95"/><polygon class="cls-3" points="17.82 19.58 17.09 19.58 17.04 18.82 17.86 18.85 17.82 19.58"/><polygon class="cls-3" points="18.25 20.15 17.56 20.15 17.52 19.44 18.28 19.46 18.25 20.15"/><polygon class="cls-3" points="18.8 18.94 18.12 18.94 18.07 18.23 18.83 18.25 18.8 18.94"/><polygon class="cls-3" points="18.61 25.13 17.88 25.13 17.83 24.38 18.64 24.4 18.61 25.13"/><polygon class="cls-3" points="35.88 36.15 35.16 36.15 35.11 35.41 35.91 35.43 35.88 36.15"/><polygon class="cls-3" points="34.78 34.22 34.05 34.22 34.01 33.47 34.81 33.5 34.78 34.22"/><polygon class="cls-3" points="35.51 32.49 34.82 32.49 34.78 31.78 35.54 31.8 35.51 32.49"/><polygon class="cls-3" points="34.69 29.43 33.99 29.43 33.95 28.71 34.72 28.73 34.69 29.43"/><polygon class="cls-3" points="34.28 39.96 33.52 39.96 33.47 39.17 34.32 39.2 34.28 39.96"/><polygon class="cls-3" points="34.19 38.39 33.51 38.39 33.46 37.68 34.22 37.7 34.19 38.39"/><polygon class="cls-3" points="34.77 36.26 34.04 36.26 33.99 35.51 34.8 35.53 34.77 36.26"/><polygon class="cls-3" points="36.3 25.24 35.61 25.24 35.56 24.52 36.33 24.54 36.3 25.24"/><polygon class="cls-3" points="21.02 45.26 20.31 45.26 20.27 44.53 21.05 44.55 21.02 45.26"/><polygon class="cls-3" points="20.11 44.19 19.36 44.19 19.31 43.41 20.15 43.44 20.11 44.19"/><polygon class="cls-3" points="20.3 42.58 19.61 42.58 19.57 41.87 20.32 41.9 20.3 42.58"/><polygon class="cls-3" points="19.9 40.95 19.16 40.95 19.12 40.19 19.93 40.22 19.9 40.95"/><polygon class="cls-3" points="20.25 38.23 19.52 38.23 19.47 37.47 20.28 37.5 20.25 38.23"/><polygon class="cls-3" points="22.55 44.21 21.79 44.21 21.74 43.43 22.58 43.45 22.55 44.21"/><polygon class="cls-3" points="21.53 42.22 20.84 42.22 20.8 41.51 21.56 41.53 21.53 42.22"/><polygon class="cls-3" points="21.78 47.22 21.04 47.22 20.99 46.46 21.81 46.48 21.78 47.22"/><polygon class="cls-3" points="21.42 43.3 20.67 43.3 20.62 42.53 21.45 42.55 21.42 43.3"/><polygon class="cls-3" points="17.28 52.9 16.52 52.9 16.46 52.11 17.32 52.13 17.28 52.9"/><polygon class="cls-3" points="18.36 50.92 17.69 50.92 17.65 50.23 18.39 50.25 18.36 50.92"/><polygon class="cls-3" points="18.19 48.57 17.43 48.57 17.38 47.78 18.23 47.8 18.19 48.57"/><polygon class="cls-3" points="17.98 51.45 17.21 51.45 17.16 50.66 18.01 50.69 17.98 51.45"/><polygon class="cls-3" points="17.43 49.64 16.68 49.64 16.63 48.86 17.46 48.89 17.43 49.64"/><polygon class="cls-3" points="35.7 50.73 34.96 50.73 34.91 49.96 35.74 49.99 35.7 50.73"/><polygon class="cls-3" points="34.88 51.48 34.13 51.48 34.08 50.7 34.92 50.72 34.88 51.48"/><polygon class="cls-3" points="36.57 48.13 36.07 48.13 36.02 47.41 36.59 47.42 36.57 48.13"/><polygon class="cls-3" points="35.93 48.82 35.22 48.82 35.17 48.08 35.96 48.1 35.93 48.82"/><polygon class="cls-3" points="23.77 21.02 23.07 21.02 23.02 20.29 23.8 20.31 23.77 21.02"/><polygon class="cls-3" points="23.27 18.91 22.55 18.91 22.51 18.17 23.3 18.2 23.27 18.91"/><polygon class="cls-3" points="25.12 19.28 24.35 19.28 24.3 18.48 25.16 18.51 25.12 19.28"/><polygon class="cls-3" points="30.67 24.17 29.96 24.17 29.92 23.43 30.7 23.46 30.67 24.17"/><polygon class="cls-3" points="30.23 23.53 29.52 23.53 29.47 22.79 30.27 22.81 30.23 23.53"/><polygon class="cls-3" points="30.65 30.12 31.36 30.12 31.41 29.38 30.62 29.41 30.65 30.12"/><polygon class="cls-3" points="31.09 29.48 31.81 29.48 31.86 28.74 31.06 28.76 31.09 29.48"/><polygon class="cls-3" points="31.49 28.09 32.21 28.09 32.26 27.35 31.46 27.37 31.49 28.09"/><polygon class="cls-3" points="31.68 21.42 30.97 21.42 30.93 20.7 31.71 20.72 31.68 21.42"/><polygon class="cls-3" points="32.9 23.55 32.23 23.55 32.19 22.86 32.93 22.88 32.9 23.55"/><polygon class="cls-3" points="32.1 22.09 31.37 22.09 31.32 21.33 32.13 21.36 32.1 22.09"/><polygon class="cls-3" points="25.95 34.1 25.21 34.1 25.16 33.34 25.98 33.36 25.95 34.1"/><polygon class="cls-3" points="26.82 31.03 26.07 31.03 26.02 30.25 26.85 30.27 26.82 31.03"/><polygon class="cls-3" points="27.08 28.78 26.31 28.78 26.26 27.98 27.12 28.01 27.08 28.78"/><polygon class="cls-3" points="27.61 37.81 26.89 37.81 26.84 37.06 27.64 37.09 27.61 37.81"/><polygon class="cls-3" points="27.14 35.21 26.39 35.21 26.34 34.43 27.17 34.46 27.14 35.21"/><polygon class="cls-3" points="28.16 32.34 27.39 32.34 27.34 31.55 28.19 31.57 28.16 32.34"/><polygon class="cls-3" points="28.65 49.44 27.88 49.44 27.83 48.64 28.68 48.67 28.65 49.44"/><polygon class="cls-3" points="28.49 46.86 27.73 46.86 27.68 46.07 28.53 46.1 28.49 46.86"/><polygon class="cls-3" points="27.42 44.91 26.71 44.91 26.66 44.17 27.45 44.19 27.42 44.91"/><polygon class="cls-3" points="29.59 48.18 28.82 48.18 28.77 47.38 29.63 47.41 29.59 48.18"/><polygon class="cls-3" points="18.09 36.2 17.37 36.2 17.32 35.45 18.12 35.48 18.09 36.2"/><polygon class="cls-3" points="18.65 32.98 17.89 32.98 17.84 32.2 18.68 32.22 18.65 32.98"/><polygon class="cls-3" points="25.3 45.82 24.63 45.82 24.58 45.12 25.33 45.14 25.3 45.82"/><polygon class="cls-3" points="25.26 44.24 24.57 44.24 24.52 43.53 25.29 43.55 25.26 44.24"/><polygon class="cls-3" points="30.45 52.42 29.73 52.42 29.68 51.68 30.48 51.7 30.45 52.42"/><polygon class="cls-3" points="30.66 49.81 29.95 49.81 29.9 49.07 30.7 49.09 30.66 49.81"/><polygon class="cls-3" points="31.83 50.47 31.14 50.47 31.1 49.76 31.86 49.78 31.83 50.47"/><polygon class="cls-3" points="22.09 26.4 21.36 26.4 21.31 25.64 22.12 25.67 22.09 26.4"/><polygon class="cls-3" points="21.25 24.18 20.54 24.18 20.5 23.45 21.28 23.47 21.25 24.18"/><polygon class="cls-3" points="32.71 43.42 32.02 43.42 31.97 42.71 32.74 42.73 32.71 43.42"/><polygon class="cls-3" points="30.23 13.91 29.53 13.91 29.48 13.19 30.26 13.21 30.23 13.91"/><polygon class="cls-3" points="29.12 11.6 28.35 11.6 28.3 10.8 29.15 10.82 29.12 11.6"/><polygon class="cls-3" points="29.15 9.43 28.42 9.43 28.37 8.67 29.18 8.69 29.15 9.43"/><polygon class="cls-3" points="25.17 13.76 24.41 13.76 24.36 12.97 25.21 13 25.17 13.76"/><polygon class="cls-3" points="23.75 12.5 23.05 12.5 23.01 11.78 23.78 11.81 23.75 12.5"/><polygon class="cls-3" points="23.28 11.46 22.61 11.46 22.57 10.76 23.31 10.79 23.28 11.46"/><polygon class="cls-3" points="30.54 12.52 29.8 12.52 29.75 11.76 30.57 11.78 30.54 12.52"/><polygon class="cls-5" points="15.81 16.74 15.45 16.74 15.4 15.27 15.86 15.27 15.81 16.74"/><g class="cls-13"><polygon class="cls-10" points="15.45 16.74 15.86 16.91 16.02 15.27 15.86 15.27 15.81 16.74 15.45 16.74"/></g><polygon class="cls-5" points="17 16.74 16.64 16.74 16.59 15.27 17.05 15.27 17 16.74"/><g class="cls-13"><polygon class="cls-10" points="16.64 16.74 17.05 16.91 17.21 15.27 17.05 15.27 17 16.74 16.64 16.74"/></g><polygon class="cls-5" points="18.19 16.74 17.83 16.74 17.78 15.27 18.24 15.27 18.19 16.74"/><g class="cls-13"><polygon class="cls-10" points="17.83 16.74 18.24 16.91 18.4 15.27 18.24 15.27 18.19 16.74 17.83 16.74"/></g><polygon class="cls-5" points="19.38 16.74 19.02 16.74 18.97 15.27 19.43 15.27 19.38 16.74"/><g class="cls-13"><polygon class="cls-10" points="19.02 16.74 19.43 16.91 19.59 15.27 19.43 15.27 19.38 16.74 19.02 16.74"/></g><polygon class="cls-5" points="20.57 16.74 20.21 16.74 20.16 15.27 20.62 15.27 20.57 16.74"/><g class="cls-13"><polygon class="cls-10" points="20.21 16.74 20.62 16.91 20.78 15.27 20.62 15.27 20.57 16.74 20.21 16.74"/></g><polygon class="cls-5" points="21.76 16.74 21.41 16.74 21.35 15.27 21.81 15.27 21.76 16.74"/><g class="cls-13"><polygon class="cls-10" points="21.41 16.74 21.81 16.91 21.97 15.27 21.81 15.27 21.76 16.74 21.41 16.74"/></g><polygon class="cls-5" points="22.95 16.74 22.6 16.74 22.54 15.27 23.01 15.27 22.95 16.74"/><g class="cls-13"><polygon class="cls-10" points="22.6 16.74 23.01 16.91 23.16 15.27 23.01 15.27 22.95 16.74 22.6 16.74"/></g><polygon class="cls-5" points="24.14 16.74 23.79 16.74 23.73 15.27 24.2 15.27 24.14 16.74"/><g class="cls-13"><polygon class="cls-10" points="23.79 16.74 24.2 16.91 24.36 15.27 24.2 15.27 24.14 16.74 23.79 16.74"/></g><polygon class="cls-5" points="25.34 16.74 24.98 16.74 24.93 15.27 25.39 15.27 25.34 16.74"/><g class="cls-13"><polygon class="cls-10" points="24.98 16.74 25.39 16.91 25.55 15.27 25.39 15.27 25.34 16.74 24.98 16.74"/></g><polygon class="cls-5" points="26.53 16.74 26.17 16.74 26.12 15.27 26.58 15.27 26.53 16.74"/><g class="cls-13"><polygon class="cls-10" points="26.17 16.74 26.58 16.91 26.74 15.27 26.58 15.27 26.53 16.74 26.17 16.74"/></g><polygon class="cls-5" points="27.72 16.74 27.36 16.74 27.31 15.27 27.77 15.27 27.72 16.74"/><g class="cls-13"><polygon class="cls-10" points="27.36 16.74 27.77 16.91 27.93 15.27 27.77 15.27 27.72 16.74 27.36 16.74"/></g><polygon class="cls-5" points="28.91 16.74 28.55 16.74 28.5 15.27 28.96 15.27 28.91 16.74"/><g class="cls-13"><polygon class="cls-10" points="28.55 16.74 28.96 16.91 29.12 15.27 28.96 15.27 28.91 16.74 28.55 16.74"/></g><polygon class="cls-5" points="30.1 16.74 29.74 16.74 29.69 15.27 30.15 15.27 30.1 16.74"/><g class="cls-13"><polygon class="cls-10" points="29.74 16.74 30.15 16.91 30.31 15.27 30.15 15.27 30.1 16.74 29.74 16.74"/></g><polygon class="cls-5" points="31.29 16.74 30.93 16.74 30.88 15.27 31.34 15.27 31.29 16.74"/><g class="cls-13"><polygon class="cls-10" points="30.93 16.74 31.34 16.91 31.5 15.27 31.34 15.27 31.29 16.74 30.93 16.74"/></g><polygon class="cls-5" points="32.48 16.74 32.12 16.74 32.07 15.27 32.53 15.27 32.48 16.74"/><g class="cls-13"><polygon class="cls-10" points="32.12 16.74 32.53 16.91 32.69 15.27 32.53 15.27 32.48 16.74 32.12 16.74"/></g><polygon class="cls-5" points="33.67 16.74 33.31 16.74 33.26 15.27 33.73 15.27 33.67 16.74"/><g class="cls-13"><polygon class="cls-10" points="33.31 16.74 33.73 16.91 33.88 15.27 33.73 15.27 33.67 16.74 33.31 16.74"/></g><polygon class="cls-5" points="34.87 16.74 34.51 16.74 34.45 15.27 34.92 15.27 34.87 16.74"/><g class="cls-13"><polygon class="cls-10" points="34.51 16.74 34.92 16.91 35.08 15.27 34.92 15.27 34.87 16.74 34.51 16.74"/></g><polygon class="cls-5" points="36.06 16.74 35.7 16.74 35.65 15.27 36.11 15.27 36.06 16.74"/><g class="cls-13"><polygon class="cls-10" points="35.7 16.74 36.11 16.91 36.27 15.27 36.11 15.27 36.06 16.74 35.7 16.74"/></g><polygon class="cls-5" points="37.2 16.74 36.84 16.74 36.79 15.27 37.25 15.27 37.2 16.74"/><g class="cls-13"><polygon class="cls-10" points="36.84 16.74 37.19 16.9 37.19 16.74 36.84 16.74"/></g><polygon class="cls-10" points="15.4 15.27 37.25 15.27 37.23 16.09 15.42 15.91 15.4 15.27"/><polygon class="cls-14" points="14 13.02 14.05 13.36 19.71 13.49 26.34 3.21 32.99 13.49 38.59 13.66 38.68 13.02 33.03 13.02 26.34 2.59 19.65 13.02 14 13.02"/><polygon class="cls-10" points="19.8 14.07 26.34 4.05 32.88 14.07 32.07 14.07 26.21 5.3 20.39 14.07 19.8 14.07"/><g class="cls-13"><path class="cls-10" d="M28,10c0-1.64-.71-2.78-1.59-2.78s-1.66,1.17-1.66,2.81.78,3.13,1.66,3.13S28,11.66,28,10Z"/></g><path class="cls-5" d="M27.92,9.71c0-1.64-.71-2.78-1.59-2.78S24.66,8.1,24.66,9.74s.79,3.13,1.67,3.13S27.92,11.35,27.92,9.71Z"/><path class="cls-15" d="M26.34,12.44c-.68,0-1.33-1.27-1.33-2.61s.68-2.26,1.33-2.26,1.24.94,1.24,2.23S27,12.44,26.34,12.44Z"/><path class="cls-16" d="M26.33,12.09c-.58,0-1.13-1.08-1.13-2.23s.57-1.94,1.13-1.94,1.06.8,1.06,1.91S26.9,12.09,26.33,12.09Z"/><path class="cls-17" d="M26.31,11.92c-.47,0-.92-.89-.92-1.83s.47-1.58.92-1.58.87.65.87,1.56S26.78,11.92,26.31,11.92Z"/><polygon class="cls-18" points="25.52 10.04 25.71 10.03 25.71 9.92 25.52 9.91 25.52 10.04"/><polygon class="cls-18" points="26.29 11.13 26.28 11.5 26.35 11.5 26.34 11.13 26.29 11.13"/><polygon class="cls-18" points="26.34 9.03 26.35 8.37 26.28 8.37 26.29 9.03 26.34 9.03"/><polygon class="cls-18" points="26.99 9.92 26.99 10.03 27.18 10.04 27.18 9.91 26.99 9.92"/><path class="cls-18" d="M26.38,9.88h0l0,0-.31-.5.17.61-.43,1,.59-.87h0a.17.17,0,0,0,0-.1A.25.25,0,0,0,26.38,9.88Z"/><polygon class="cls-5" points="20.53 32.2 17.22 32.2 16.76 18.1 20.34 18.1 20.53 32.2"/><polygon class="cls-6" points="17.55 31.61 17.12 18.68 20 18.68 20.17 31.61 17.55 31.61"/><polygon class="cls-7" points="17.68 31.38 17.27 18.91 19.86 18.91 20.03 31.38 17.68 31.38"/><polygon class="cls-8" points="17.63 20.08 18.12 30.96 19.57 30.96 19.55 20.44 17.63 20.08"/><polygon class="cls-9" points="18.8 31.52 18.5 18.78 18.61 18.77 18.9 31.51 18.8 31.52"/><rect class="cls-9" x="17.38" y="23.61" width="2.65" height="0.19"/><rect class="cls-9" x="17.48" y="27.9" width="2.65" height="0.19"/><polygon class="cls-5" points="20.72 48.18 17.81 48.18 17.4 34.82 20.55 34.82 20.72 48.18"/><polygon class="cls-6" points="18.1 47.63 17.72 35.37 20.25 35.37 20.4 47.63 18.1 47.63"/><polygon class="cls-7" points="18.21 47.41 17.85 35.59 20.13 35.59 20.28 47.41 18.21 47.41"/><polygon class="cls-8" points="18.17 36.7 18.6 47.01 19.88 47.01 19.86 37.04 18.17 36.7"/><polygon class="cls-9" points="19.19 47.54 18.93 35.46 19.03 35.46 19.29 47.53 19.19 47.54"/><rect class="cls-9" x="17.95" y="40.03" width="2.33" height="0.19"/><rect class="cls-9" x="18.03" y="44.1" width="2.33" height="0.19"/><polygon class="cls-5" points="32.09 48.18 35 48.18 35.4 34.82 32.25 34.82 32.09 48.18"/><polygon class="cls-6" points="34.71 47.63 35.08 35.37 32.55 35.37 32.4 47.63 34.71 47.63"/><polygon class="cls-7" points="34.59 47.41 34.95 35.59 32.67 35.59 32.52 47.41 34.59 47.41"/><polygon class="cls-8" points="34.64 36.7 34.21 47.01 32.93 47.01 32.95 37.04 34.64 36.7"/><polygon class="cls-9" points="33.61 47.54 33.51 47.53 33.77 35.46 33.87 35.46 33.61 47.54"/><rect class="cls-9" x="32.52" y="40.03" width="2.33" height="0.19"/><rect class="cls-9" x="32.44" y="44.1" width="2.33" height="0.19"/><polygon class="cls-5" points="35.45 32.2 32.14 32.2 32.31 18.1 35.9 18.1 35.45 32.2"/><polygon class="cls-6" points="32.5 31.61 32.66 18.68 35.53 18.68 35.12 31.61 32.5 31.61"/><polygon class="cls-7" points="32.64 31.38 32.79 18.91 35.39 18.91 34.99 31.38 32.64 31.38"/><polygon class="cls-8" points="33.1 20.08 33.1 30.96 34.55 30.96 35 20.44 33.1 20.08"/><polygon class="cls-9" points="33.86 31.52 33.75 31.51 34.03 18.77 34.14 18.78 33.86 31.52"/><rect class="cls-9" x="32.69" y="23.61" width="2.65" height="0.19"/><rect class="cls-9" x="32.59" y="27.9" width="2.65" height="0.19"/><polygon class="cls-5" points="29.51 32.2 23.15 32.2 22.99 18.1 29.67 18.1 29.51 32.2"/><polygon class="cls-6" points="23.54 31.61 23.4 18.68 29.27 18.68 29.12 31.61 23.54 31.61"/><polygon class="cls-7" points="23.7 31.38 23.56 18.91 29.11 18.91 28.97 31.38 23.7 31.38"/><polygon class="cls-8" points="23.94 20.08 24.21 30.96 28.46 30.96 28.71 20.44 23.94 20.08"/><rect class="cls-9" x="25.04" y="18.78" width="0.1" height="12.74"/><rect class="cls-9" x="27.5" y="18.78" width="0.1" height="12.74"/><rect class="cls-9" x="23.56" y="23.61" width="5.61" height="0.19"/><rect class="cls-9" x="23.56" y="27.9" width="5.61" height="0.19"/><polygon class="cls-10" points="31.56 34.82 33.28 37.57 32.82 51.15 35.17 58.67 30.48 58.67 30.48 34.82 31.56 34.82"/><polygon class="cls-6" points="20.44 52.73 20.76 52.73 20.68 53.75 20.53 53.75 20.36 59.55 20.05 59.55 20.08 52.73 20.44 52.73"/><polygon class="cls-5" points="20.05 59.55 18.4 59.55 18.31 53.75 20.15 53.75 20.05 59.55"/><polygon class="cls-5" points="20.41 53.75 18.05 53.75 18.02 52.73 20.44 52.73 20.41 53.75"/><ellipse class="cls-5" cx="19.31" cy="51.15" rx="0.85" ry="1.58"/><path class="cls-6" d="M19.84,50.28a2.58,2.58,0,0,1,0,.4c0,.73-.32,1.32-.71,1.32-.21,0-.4-.18-.53-.45.09.53.36.91.67.91s.71-.59.71-1.31A2,2,0,0,0,19.84,50.28Z"/><polygon class="cls-6" points="18.31 53.75 20.15 53.75 20.15 54.49 18.32 54.33 18.31 53.75"/><path class="cls-9" d="M19.76,59h-1l-.06-5h1.1Zm-1-.13h.9v-4.7h-1Z"/><polygon class="cls-6" points="32.46 52.73 32.14 52.73 32.22 53.75 32.37 53.75 32.54 59.55 32.85 59.55 32.82 52.73 32.46 52.73"/><polygon class="cls-5" points="32.85 59.55 34.5 59.55 34.59 53.75 32.75 53.75 32.85 59.55"/><polygon class="cls-5" points="32.49 53.75 34.85 53.75 34.88 52.73 32.46 52.73 32.49 53.75"/><ellipse class="cls-5" cx="33.51" cy="51.15" rx="0.85" ry="1.58"/><path class="cls-6" d="M34,50.28a2.58,2.58,0,0,1,0,.4c0,.73-.32,1.32-.71,1.32-.21,0-.4-.18-.53-.45.09.53.36.91.67.91s.71-.59.71-1.31A2,2,0,0,0,34,50.28Z"/><polygon class="cls-6" points="34.59 53.75 32.75 53.75 32.75 54.49 34.58 54.33 34.59 53.75"/><path class="cls-9" d="M34.18,59h-1v-5h1.1Zm-1-.13h.9l.06-4.7h-1Z"/><polygon class="cls-5" points="31.51 35.78 21.18 35.78 21.13 34.82 31.56 34.82 31.51 35.78"/><polygon class="cls-5" points="31.34 39.41 21.35 39.41 21.3 38.45 31.39 38.45 31.34 39.41"/><polygon class="cls-5" points="31.13 38.45 21.56 38.45 21.45 35.78 31.24 35.78 31.13 38.45"/><path class="cls-6" d="M21.78,36.19l.1,1.75,8.94.1.1-1.85Zm9,1.72-8.82-.1-.08-1.49h9Z"/><g class="cls-13"><polygon class="cls-19" points="21.45 35.78 31.24 35.78 31.2 36.6 21.47 36.4 21.45 35.78"/></g><polygon class="cls-5" points="30.98 49.51 31.05 50.26 29.68 50.24 29.77 49.51 29.84 49.51 30.92 49.51 30.98 49.51"/><polygon class="cls-6" points="31.05 39.41 31.04 39.52 29.71 39.55 29.69 39.41 31.05 39.41"/><polygon class="cls-5" points="31.04 39.52 30.98 40 30.86 40 29.9 40 29.77 40 29.71 39.55 31.04 39.52"/><polygon class="cls-5" points="30.86 40.21 30.92 49.51 29.84 49.51 29.9 40.18 30.86 40.21"/><polygon class="cls-6" points="30.86 40 30.86 40.21 29.9 40.18 29.9 40 30.86 40"/><polygon class="cls-6" points="29.84 49.51 30.65 49.4 30.64 40.15 30.78 40.18 30.82 49.39 30.92 49.46 30.92 49.51 29.84 49.51"/><polygon class="cls-5" points="22.99 49.51 23.06 50.26 21.69 50.24 21.78 49.51 21.85 49.51 22.93 49.51 22.99 49.51"/><polygon class="cls-6" points="23.06 39.41 23.05 39.52 21.72 39.55 21.7 39.41 23.06 39.41"/><polygon class="cls-5" points="23.05 39.52 22.99 40 22.87 40 21.91 40 21.78 40 21.72 39.55 23.05 39.52"/><polygon class="cls-5" points="22.88 40.21 22.93 49.51 21.85 49.51 21.91 40.18 22.88 40.21"/><polygon class="cls-6" points="22.87 40 22.88 40.21 21.91 40.18 21.91 40 22.87 40"/><polygon class="cls-6" points="21.85 49.51 22.66 49.4 22.65 40.15 22.79 40.18 22.83 49.39 22.93 49.46 22.93 49.51 21.85 49.51"/><polygon class="cls-20" points="31.5 51.8 21.5 51.8 21.45 50.26 31.56 50.26 31.5 51.8"/><polygon class="cls-20" points="31.81 53.35 21.19 53.35 21.13 51.81 31.87 51.81 31.81 53.35"/><polygon class="cls-20" points="32.12 54.9 20.88 54.9 20.82 53.36 32.19 53.36 32.12 54.9"/><polygon class="cls-20" points="32.43 56.45 20.57 56.45 20.51 54.91 32.5 54.91 32.43 56.45"/><polygon class="cls-20" points="32.74 58 20.26 58 20.19 56.46 32.81 56.46 32.74 58"/><polygon class="cls-20" points="33.05 59.55 19.95 59.55 19.88 58.01 33.13 58.01 33.05 59.55"/><polygon class="cls-12" points="21.48 51.15 31.51 51.49 31.5 51.8 21.5 51.8 21.48 51.15"/><polygon class="cls-12" points="21.17 52.72 31.82 53.03 31.81 53.35 21.19 53.35 21.17 52.72"/><polygon class="cls-12" points="20.86 54.3 32.14 54.56 32.12 54.9 20.88 54.9 20.86 54.3"/><polygon class="cls-12" points="20.55 55.87 32.45 56.09 32.43 56.45 20.57 56.45 20.55 55.87"/><polygon class="cls-12" points="20.24 57.44 32.76 57.62 32.74 58 20.26 58 20.24 57.44"/><polygon class="cls-12" points="19.93 59.02 33.07 59.15 33.05 59.55 19.95 59.55 19.93 59.02"/><polygon class="cls-21" points="23.46 50.28 23.61 40.21 29.18 40.21 29.33 50.26 23.46 50.28"/><polygon class="cls-22" points="26.26 40.74 26.26 50.28 26.33 50.28 26.36 40.74 26.26 40.74"/><path class="cls-22" d="M23.69,50.28v-.07L24,40.77h4.81v.06L29,50.27H23.69ZM24,40.9l-.25,9.25h5.11l-.19-9.24Z"/><polygon class="cls-5" points="23.46 50.28 23.61 40.21 29.18 40.21 29.33 50.26 28.97 50.26 28.77 40.74 23.94 40.74 23.68 50.28 23.46 50.28"/><path class="cls-22" d="M26,46.37H24.14l.11-5H26Zm-1.8-.13H26V41.47H24.32Z"/><path class="cls-22" d="M26,49.82h-2l.07-2.88H26Zm-1.87-.13H26V47.07H24.19Z"/><path class="cls-22" d="M28.49,46.37H26.61v-5h1.76Zm-1.81-.13h1.73l-.1-4.77H26.68Z"/><path class="cls-22" d="M28.56,49.82H26.61V46.94H28.5Zm-1.88-.13h1.81l-.06-2.62H26.68Z"/><polygon class="cls-10" points="23.06 50.26 22.99 49.51 22.93 49.51 22.87 40 22.99 40 23.06 39.41 29.69 39.41 29.77 40 29.9 40 29.84 49.51 29.77 49.51 29.68 50.24 29.57 50.24 29.5 41.22 24.21 41.2 23.92 50.28 23.06 50.26"/><polygon class="cls-23" points="2.31 58.21 16.12 58.45 17.15 57.33 6.25 56.97 2.31 58.21"/><path class="cls-24" d="M14.14,46A14.14,14.14,0,0,0,8,44.8H8a14.27,14.27,0,0,1,5,1.07Z"/><polygon class="cls-24" points="12.99 45.87 12.56 56.97 12.99 56.97 13.08 58.17 14.28 57.85 14.13 56.81 13.86 56.81 14.14 46.04 12.99 45.87"/><polygon class="cls-20" points="2.41 56.97 2.32 58.17 13.08 58.17 12.99 56.97 12.56 56.97 2.76 56.97 2.41 56.97"/><path class="cls-20" d="M2.32,45.87,2.76,57h9.8L13,45.87A14.27,14.27,0,0,0,8,44.8,14.06,14.06,0,0,0,2.32,45.87Z"/><polygon class="cls-24" points="12.56 56.97 2.76 56.97 2.76 56.65 12.59 56.16 12.56 56.97"/><path class="cls-24" d="M4.05,55.46c0-.42-.2-.75-.42-.75h0L3.4,48V48h0c.22,0,.39-.42.37-.83V47h0a15.27,15.27,0,0,1,7.62.13h0v.06c0,.4.14.77.36.84h0l-.24,6.64h0c-.22,0-.41.33-.42.75v.06H4.06Zm7.52-.87.23-6.4c-.23-.09-.39-.48-.39-.91a15.35,15.35,0,0,0-7.52-.12,1,1,0,0,1-.41.91l.18,6.5c.24,0,.44.38.46.82h7C11.14,55,11.33,54.62,11.57,54.59Z"/><polygon class="cls-24" points="4.46 53.07 10.47 53.01 10.51 52.31 4.42 52.24 4.46 53.07"/><polygon class="cls-24" points="5.68 54.21 9.25 54.17 9.28 53.66 5.65 53.62 5.68 54.21"/><path class="cls-24" d="M10.15,47.93a6.16,6.16,0,0,0,.29-.91,8.83,8.83,0,0,0,.18-1s-.12.42-.25,1S10.15,47.93,10.15,47.93Z"/><path class="cls-24" d="M2.61,51.63,3.5,52.7l.88,1.09a9.62,9.62,0,0,0-.84-1.2A7.4,7.4,0,0,0,2.61,51.63Z"/><path class="cls-24" d="M12.31,53.56a1.57,1.57,0,0,0,.33-.27,2.66,2.66,0,0,0,.29-.4,1.46,1.46,0,0,0-.33.28A2.33,2.33,0,0,0,12.31,53.56Z"/><path class="cls-24" d="M5.05,47c-.17-.32-.58-1.23-.58-1.23s.46.81.63,1.14Z"/><path class="cls-24" d="M9,55.39c0,.2,0,.74,0,.74s-.08-.52-.1-.72Z"/><path class="cls-24" d="M7,44.82c0,.16,0,.58,0,.58s0-.42,0-.58Z"/><path class="cls-24" d="M5.54,49.84a.61.61,0,0,0-.22-.16c-.15-.06-.29-.06-.41-.11a.31.31,0,0,1-.14-.11.19.19,0,0,1,0-.14.47.47,0,0,1,.09-.17A.51.51,0,0,1,5,49.06a.37.37,0,0,1,.35.06l.08-.35A.48.48,0,0,0,5,48.7a.6.6,0,0,0-.23.15.81.81,0,0,0-.18.36.78.78,0,0,0,.09.5.49.49,0,0,0,.23.19c.15.05.29.05.42.1a.4.4,0,0,1,.26.29.35.35,0,0,1-.09.39.42.42,0,0,1-.36.08.84.84,0,0,1-.36-.19l-.08.23a.86.86,0,0,0,.42.24A.52.52,0,0,0,5.53,51a.65.65,0,0,0,.19-.32,1,1,0,0,0,0-.46A.79.79,0,0,0,5.54,49.84Z"/><path class="cls-24" d="M6.22,50.62A.89.89,0,0,1,6,50a1.78,1.78,0,0,1,.09-.75.27.27,0,0,1,.16-.17.11.11,0,0,1,.14.08l.17-.26c-.2-.35-.52-.18-.64.14a2.35,2.35,0,0,0-.11,1,1.26,1.26,0,0,0,.36.83c.2.16.46.06.59-.26l-.13-.15C6.52,50.67,6.34,50.74,6.22,50.62Z"/><path class="cls-24" d="M7.48,49.77a1.67,1.67,0,0,1-.5-.05l0-1-.22,0,.15,2.14.15,0,0-.84a1.6,1.6,0,0,0,.49,0c0,.27,0,.55,0,.82h.16c0-.7,0-1.39.08-2.08l-.22,0C7.49,49.08,7.48,49.42,7.48,49.77Z"/><path class="cls-24" d="M8.37,48.7l-.12-.06a.16.16,0,0,0-.12,0c-.05,0-.1,0-.14.06a.48.48,0,0,0-.1.17,1.8,1.8,0,0,0-.08.39,4.23,4.23,0,0,0,0,.72,4,4,0,0,0,.13.69,1.32,1.32,0,0,0,.15.29c.07.09.18.13.26.06a.76.76,0,0,0,.18-.26,1.85,1.85,0,0,0,.12-.33,2.41,2.41,0,0,0-.12-1.48A.6.6,0,0,0,8.37,48.7Zm.15,1.61a1.07,1.07,0,0,1-.08.27.58.58,0,0,1-.11.21c-.07.07-.18,0-.24-.24A3.8,3.8,0,0,1,8,49.93a4.55,4.55,0,0,1,0-.64A.83.83,0,0,1,8,49s0,0,0-.06h.06a.31.31,0,0,1,.14.07.43.43,0,0,1,.12.17A1.74,1.74,0,0,1,8.52,50.31Z"/><path class="cls-24" d="M9.53,48.85a.42.42,0,0,0-.23-.15.25.25,0,0,0-.26.16,2.35,2.35,0,0,0-.11.35A4.31,4.31,0,0,0,9,50.6a1.42,1.42,0,0,0,.11.35.19.19,0,0,0,.24.12.46.46,0,0,0,.2-.19,1.13,1.13,0,0,0,.15-.29,2.56,2.56,0,0,0,.13-.7,2.15,2.15,0,0,0-.09-.75A1,1,0,0,0,9.53,48.85Zm0,1.59a1,1,0,0,1-.23.4.08.08,0,0,1-.12-.05.67.67,0,0,1-.08-.24,3.49,3.49,0,0,1,0-1.25,1,1,0,0,1,.08-.23s.07-.06.11,0,.17.18.22.32a1.71,1.71,0,0,1,.08.54A2,2,0,0,1,9.5,50.44Z"/><polygon class="cls-24" points="10.1 50.82 10.14 48.89 9.92 48.88 9.92 50.97 9.92 51.13 10.01 51.12 10.57 51.11 10.57 50.84 10.1 50.82"/><path class="cls-5" d="M13,45.87a13.35,13.35,0,0,0-1.32-.41c-.22-.06-.45-.12-.67-.16l-.66-.15a13.54,13.54,0,0,0-2.68-.27A14.32,14.32,0,0,0,2.33,46l0-.09.21,5.55.06,1.39c0,.46,0,.93,0,1.39L2.76,57,2.62,54.2c0-.46-.05-.92-.07-1.39l-.06-1.38-.21-5.56V45.8h0a14.24,14.24,0,0,1,5.35-1.08,13.55,13.55,0,0,1,2.68.28c.23,0,.45.09.67.15s.45.13.67.21A13.21,13.21,0,0,1,13,45.87Z"/><path class="cls-5" d="M12.56,57l-1.27.08c-.42,0-.85,0-1.27,0H3.68c-.21,0-.43,0-.64,0l-.63,0,0,0-.11,1.2L2.39,57v0h0l.63,0h8.25Z"/><path class="cls-25" d="M13.67,58.45l.26-.51a.42.42,0,0,0,.05-.17c0-.14-.07-.26-.15-.24s-.14.1-.2.2l.63-1.51a2.62,2.62,0,0,0-1,1.32,3.93,3.93,0,0,1,.12-1,4.22,4.22,0,0,0-.8,1.94A4,4,0,0,1,13.67,58.45Z"/><path class="cls-26" d="M3.16,58.21l.24-.4c-.16-.27-.45-.24-.6.06l.26-1.93a2.93,2.93,0,0,0-.58,1.37,14.21,14.21,0,0,1-.34-2.12,11.41,11.41,0,0,0,.06,2.34,1.81,1.81,0,0,0-.72-1.15,5.08,5.08,0,0,1,.82,1.83Z"/></g></g></g></svg>