<svg xmlns="http://www.w3.org/2000/svg" viewBox="0 0 20.12 20"><defs><style>.cls-1{fill:#3b342f;}.cls-2{fill:#2c241d;}.cls-3{fill:#38302b;}.cls-4{fill:#292119;}.cls-5{fill:#281f17;}.cls-6{fill:#362c26;}.cls-7{fill:#f4f0df;}.cls-8{fill:#17ed00;}.cls-9{fill:#f3efde;}.cls-10{fill:#32322d;}.cls-11{fill:#2d312c;}.cls-12{fill:#241a16;}.cls-13{fill:#312a25;}.cls-14{fill:#312c2e;}.cls-15{fill:#2b272d;}.cls-16{fill:#342e2e;}.cls-17{fill:#24212c;}.cls-18{fill:#332d2e;}.cls-19{fill:#332e2e;}.cls-20{fill:#362f2a;}.cls-21{fill:#e96e60;}</style></defs><g id="Layer_2" data-name="Layer 2"><g id="Layer_1-2" data-name="Layer 1"><path class="cls-1" d="M17.7,7.92A16.94,16.94,0,0,0,19.64,10c.19.17.22.37.35.53a12.37,12.37,0,0,1,0,1.61,1.28,1.28,0,0,0,0,.58v.1a1.11,1.11,0,0,1-.38.18,12.86,12.86,0,0,1-1.23-1.22c-.13.14-.06.31-.06.45q0,3.51,0,7c0,.17.08.36-.07.52-.09-.1-.06-.22-.06-.33V12.27a.5.5,0,0,0,0-.16c0,2.33,0,4.74,0,7.16,0,.17-.07.36.06.52l-.1.08a1.23,1.23,0,0,1-.54,0H2.55A1.1,1.1,0,0,0,2,20c-.07,0-.09,0-.1-.08a1.23,1.23,0,0,1,0-.54c0-2.46,0-4.92,0-7.31a1.67,1.67,0,0,1,0,.23v7.21c0,.11,0,.23-.06.33-.15-.15-.07-.34-.08-.51V11.78a5.21,5.21,0,0,0-.93,1c-.25.4-.45.42-.74.12a15.49,15.49,0,0,0,0-2.36c.44-.5.88-1,1.33-1.5Q5.43,4.65,9.47.31c.39-.42.52-.38.95-.06a4.4,4.4,0,0,1,1,1c.47.69,1.19,1.12,1.65,1.82a3.59,3.59,0,0,0,1.14,1.08c.19-.4,0-.82.1-1.22a.29.29,0,0,1,.26-.2c1,0,2-.07,3,0l0,0,0,0a1.19,1.19,0,0,1,.08.62c0,1.3,0,2.59,0,3.88A1,1,0,0,0,17.7,7.92Z"/><path class="cls-2" d="M2,20c.13-.15.31-.09.47-.09H18.22c-.09.18-.26.12-.39.12H2.21A1.38,1.38,0,0,1,2,20Z"/><path class="cls-3" d="M17.7,7.92c-.21,0-.18-.2-.18-.35,0-1.58,0-3.16,0-4.73.26.07.17.28.17.45Z"/><path class="cls-3" d="M1.8,19.8V11.88h.11v8Z"/><path class="cls-4" d="M17.53,2.78H14.85c-.2,0-.4,0-.51.2h-.06c0-.21.09-.31.28-.31l2.88,0S17.5,2.75,17.53,2.78Z"/><path class="cls-2" d="M.05,10.49a6.68,6.68,0,0,1,0,2.36A13.29,13.29,0,0,1,.05,10.49Z"/><path class="cls-2" d="M20.08,12.76A4.49,4.49,0,0,1,20,11.21c0-.21,0-.42,0-.64.2.08.12.25.12.38C20.11,11.55,20.09,12.15,20.08,12.76Z"/><path class="cls-5" d="M14.28,3h.06c0,.39.16.81-.12,1.18Z"/><path class="cls-6" d="M19.69,13a.59.59,0,0,1,.38-.18A.27.27,0,0,1,19.69,13Z"/><path class="cls-7" d="M2.41,11C3,10.38,3.55,9.79,4.1,9.16c.75-.85,1.54-1.68,2.32-2.5S8,5,8.78,4.17c.36-.35.65-.77,1-1.12s.33-.19.52,0c1,1.12,2.1,2.23,3.15,3.35l2.77,3L17.71,11c.09,2.07.08,4.15,0,6.22l-4.58,0c-.36,0-.3-.21-.3-.42,0-1.67,0-3.35,0-5a1,1,0,0,0-.05-.54.14.14,0,0,1-.1-.08c0-.25-.24-.19-.39-.19H7.8c-.17,0-.36,0-.45.2,0,0,0,0,0,.06l0,0a14,14,0,0,0,0,2.05c0,1.19,0,2.37,0,3.55,0,.22,0,.38-.3.37l-4.58,0A.32.32,0,0,1,2.36,17V11.16A.29.29,0,0,1,2.41,11Z"/><path class="cls-8" d="M8.93,1.9c.29-.3.6-.59.87-.91s.3-.25.52,0c.87,1,1.77,1.91,2.66,2.86l3.74,4a.5.5,0,0,1,.29.31c.74.8,1.48,1.62,2.23,2.42a1.15,1.15,0,0,1,.16,1.07c0,.25-.22,0-.3-.05a7.58,7.58,0,0,0-.79-.91c-.14,0-.21-.17-.3-.28-.67-.84-1.44-1.58-2.18-2.36a21.69,21.69,0,0,0-1.87-2,5.34,5.34,0,0,1-.59-.66c-1-1.12-2-2.21-3.08-3.31a.28.28,0,0,0-.46,0L6.93,5.21c-.79.84-1.6,1.66-2.39,2.5S2.91,9.48,2.1,10.37a.5.5,0,0,1-.29.3l-1,1.06a1.31,1.31,0,0,1,.39-1.55C2.07,9.25,3,8.35,3.81,7.37c.48-.57,1-1.08,1.52-1.63C6,5,6.66,4.34,7.3,3.62c.43-.48.9-.93,1.33-1.41A.57.57,0,0,1,8.93,1.9Z"/><path class="cls-8" d="M7.24,17.9c.18,1.41.18,1.42-1.19,1.41-1.22,0-2.43.05-3.65,0a3.56,3.56,0,0,1,0-1.38v0c.07-.09.18-.07.27-.07H7C7.06,17.84,7.16,17.82,7.24,17.9Z"/><path class="cls-8" d="M17.71,19.27l-4.57,0c-.2,0-.31-.06-.3-.28,0-.37,0-.75,0-1.13.13-.1.28,0,.42,0q2,0,4,0c.14,0,.3-.06.42.06v0A3.56,3.56,0,0,1,17.71,19.27Z"/><path class="cls-9" d="M16.73,6.94c-.53-.55-1-1.11-1.57-1.65C14.78,4.9,15,4.42,14.92,4s.1-.7.62-.64,1,0,1.48,0a24.71,24.71,0,0,1,0,3.75v0C16.82,7.21,16.82,7,16.73,6.94Z"/><path class="cls-10" d="M12.28,19.27c-.1.23-.31.2-.51.2H8.34c-.19,0-.4,0-.5-.2l.16-.1a35.39,35.39,0,0,1,4.12,0Z"/><path class="cls-3" d="M18.32,19.79c-.14-.11-.11-.26-.11-.41V12.1a.23.23,0,0,1,.11-.22v7.91Z"/><path class="cls-11" d="M12.28,19.27h-.11a.87.87,0,0,1-.14-.61c0-2.13,0-4.25,0-6.38a1.18,1.18,0,0,1,.08-.53l.07-.08c.18.16.1.37.1.56Z"/><path class="cls-11" d="M8,19.27H7.84v-7c0-.19-.08-.4.1-.56l.07.08a1.32,1.32,0,0,1,.08.62c0,2.07,0,4.13,0,6.2A1,1,0,0,1,8,19.27Z"/><path class="cls-12" d="M2.41,11V17.2c-.15-.11-.1-.27-.1-.41v-5.4C2.31,11.25,2.26,11.09,2.41,11Z"/><path class="cls-12" d="M17.71,17.2V11c.14.11.1.27.1.41v5.4C17.81,16.93,17.85,17.09,17.71,17.2Z"/><path class="cls-13" d="M12.68,11.17l.1.08v5.84h-.1Z"/><path class="cls-13" d="M7.33,11.26a.08.08,0,0,1,0-.08c.12.1.09.24.09.37v5.36a.2.2,0,0,1-.11.19Z"/><path class="cls-14" d="M7.34,19.37s-.11.09-.16.09c-1.55,0-3.11,0-4.66-.09Z"/><path class="cls-14" d="M12.78,19.37h4.83c-.11.16-.24.1-.35.1h-4c-.16,0-.34.05-.47-.1Z"/><path class="cls-15" d="M17.71,17.91H12.88c.1-.15.26-.11.4-.11h4C17.45,17.79,17.62,17.75,17.71,17.91Z"/><path class="cls-15" d="M7.24,17.9H2.41c.08-.14.22-.12.35-.12H6.89C7,17.79,7.16,17.77,7.24,17.9Z"/><path class="cls-13" d="M13,17.32h4.47v0H13Z"/><path class="cls-13" d="M7.11,17.38H2.64v0H7.13Z"/><path class="cls-11" d="M7.94,11.67c.08-.11.2-.1.31-.1h3.62c.11,0,.23,0,.31.1v0a.72.72,0,0,1-.51.13H8.46A.72.72,0,0,1,8,11.69Z"/><path class="cls-12" d="M17,7.13l0-3.75c0,.07.09.14.09.21,0,1.09,0,2.19,0,3.29A.26.26,0,0,1,17,7.13Z"/><path class="cls-13" d="M15.05,3.2H16.8v0H15.05Z"/><path class="cls-13" d="M14.78,4.75V3.5h0V4.75Z"/><path class="cls-16" d="M7.34,19.37V18a2.3,2.3,0,0,1,0,1.35Z"/><path class="cls-16" d="M12.77,19.37a2.46,2.46,0,0,1,0-1.37v1.37Z"/><path class="cls-17" d="M2.42,17.89l0,1.38A2,2,0,0,1,2.42,17.89Z"/><path class="cls-17" d="M17.71,19.27c0-.46,0-.92,0-1.38A1.93,1.93,0,0,1,17.71,19.27Z"/><path class="cls-14" d="M19.52,11.76V10.9A1.48,1.48,0,0,1,19.52,11.76Z"/><path class="cls-14" d="M.6,10.89v.86h0v-.86Z"/><path class="cls-18" d="M1.81,10.67l.29-.3C2.07,10.53,2.09,10.75,1.81,10.67Z"/><path class="cls-16" d="M17,8.14l-.29-.31C17,7.75,17,8,17,8.14Z"/><path class="cls-19" d="M18,10.39c.15,0,.22.16.3.28C18.06,10.74,18.05,10.55,18,10.39Z"/><path class="cls-16" d="M8.93,1.9l-.3.31C8.67,2,8.65,1.83,8.93,1.9Z"/><path class="cls-20" d="M16.73,6.94,17,7.1C16.75,7.34,16.78,7.06,16.73,6.94Z"/><path class="cls-21" d="M8,11.69h4.22v7.58c-1.41.06-2.81.06-4.22,0Z"/></g></g></svg>