<svg xmlns="http://www.w3.org/2000/svg" viewBox="0 0 41.25 41.41"><defs><style>.cls-1{fill:red;}</style></defs><title>marking-mela</title><g id="Layer_2" data-name="Layer 2"><g id="Layer_1-2" data-name="Layer 1"><path class="cls-1" d="M19.45,0h1.72c0,.1,0,.2,0,.29V2.73a.46.46,0,0,0,.19.41c.32.25.62.51.92.77q7.26,6.15,14.51,12.3a1.8,1.8,0,0,0,1.07.45,3.69,3.69,0,0,1,2.45,1.2,4.32,4.32,0,0,1,.92,1.76V21a4.57,4.57,0,0,1-.19.63A3.65,3.65,0,0,1,37,24a4,4,0,0,1-1.92-.9c-.41-.31-.3-.31-.69,0a3.55,3.55,0,0,1-2.94.91,3.87,3.87,0,0,1-2.07-1c-.29-.27-.24-.24-.5,0s-.37.31-.57.44a3.77,3.77,0,0,1-4.47-.31c-.46-.35-.45-.35-.85.05-.1.1-.09.17,0,.26a4.08,4.08,0,0,0,3.25,1.4h.26a3.7,3.7,0,0,0,2.23-.68.59.59,0,0,1,.78,0,4.44,4.44,0,0,0,4.25.33,6.9,6.9,0,0,0,.85-.45.29.29,0,0,1,.3,0c.28.17.57.32.86.48a.25.25,0,0,1,.14.24c0,.68,0,1.36.08,2s.08,1.58.14,2.37c.1,1.29.24,2.58.4,3.87.26,2,.58,4,1,5.93.15.72.32,1.43.47,2.15.06.27,0,.29-.23.29-.58,0-1.15,0-1.73,0l-3.22,0H26.46c-.08,0-.2,0-.22-.06s.08-.12.14-.17l1.05-.87a.24.24,0,0,0,0-.39c-.32-.39-.63-.79-.93-1.19A24.74,24.74,0,0,1,22,28.31a22.12,22.12,0,0,1-.45-4.13c0-.19-.08-.23-.25-.2-.72.15-.69,0-.61.79a37.25,37.25,0,0,0,.64,4.45,25.45,25.45,0,0,0,3.44,8.45c.47.73,1,1.43,1.51,2.12.12.16.11.25,0,.36s-.43.37-.65.54c-.47.38-.49.38-.87-.1a26.57,26.57,0,0,1-3.42-5.73,32.68,32.68,0,0,1-1.45-4.21.35.35,0,0,0-.12-.25,5.44,5.44,0,0,0-.26.74,26.72,26.72,0,0,1-3.6,7.91,16.68,16.68,0,0,1-1.34,1.79.25.25,0,0,1-.39,0c-.32-.23-.61-.48-.9-.73s-.22-.18,0-.39a22.63,22.63,0,0,0,2.57-3.92,30,30,0,0,0,3.08-12,.25.25,0,0,0-.08-.23l-.87-.73a.15.15,0,0,0-.22,0l-.39.32a3.73,3.73,0,0,1-4.86-.11c-.34-.3-.34-.29-.69,0A3.69,3.69,0,0,1,6.69,23c-.15-.15-.25-.14-.4,0a3.24,3.24,0,0,1-.35.27A3.41,3.41,0,0,1,4.06,24a3.67,3.67,0,0,1-1.85-.24A3.89,3.89,0,0,1,0,21.05V19.78l0-.1a3.48,3.48,0,0,1,2.23-2.74,5.14,5.14,0,0,0,1.19-.73l.69-.56C9.21,11.47,14.2,7.19,19.23,2.94a.47.47,0,0,0,.18-.4c0-.73,0-1.46,0-2.19A.82.82,0,0,1,19.45,0ZM37.54,22.3a2,2,0,0,0,1.88-2.71c-.09-.22-.17-.27-.32-.14a1.6,1.6,0,0,1-1.1.31l-2,0c-.18,0-.27.06-.3.24a2,2,0,0,0,0,.77A2,2,0,0,0,37.54,22.3Zm-33.89,0a2,2,0,0,0,1.93-2.2c0-.28-.08-.32-.36-.32l-3,0-.27,0a.2.2,0,0,0-.2.21A2,2,0,0,0,3.65,22.3Zm5.69-2.52H7.77c-.35,0-.36,0-.42.35a.76.76,0,0,0,0,.15,2.05,2.05,0,0,0,1.75,2,1.87,1.87,0,0,0,2.09-1.56,5,5,0,0,0,.05-.67c0-.2-.07-.28-.27-.27Zm7.57.55c0-.46-.06-.52-.52-.53-1,0-2,0-2.94,0l-.19,0a.23.23,0,0,0-.25.27,3.18,3.18,0,0,0,.06.62,2,2,0,0,0,2.14,1.58A2,2,0,0,0,16.91,20.33ZM30,20.23v.21a1.91,1.91,0,0,0,2.29,1.81A2,2,0,0,0,33.88,20a.27.27,0,0,0-.32-.26H30.47C30,19.78,30,19.78,30,20.23Zm-1.84.07a1.76,1.76,0,0,1,0-.23c0-.17-.05-.23-.23-.24-1.1,0-2.21,0-3.32,0-.17,0-.26.07-.28.23a1.94,1.94,0,0,0,2.05,2.27A1.84,1.84,0,0,0,28.19,20.3Zm-7.56-.52H19c-.2,0-.28.07-.26.27a3,3,0,0,1,0,.42,1.71,1.71,0,0,0,1,1.6,1.9,1.9,0,0,0,2.74-1.33q0-.34.06-.69c0-.2-.06-.28-.26-.27Z"/><path class="cls-1" d="M7.35,41.39H1.71c-.36,0-.37,0-.26-.34.39-1.24.82-2.46,1.17-3.71a41.64,41.64,0,0,0,1.25-6.13,46.81,46.81,0,0,0,.25-5.8c0-.1,0-.21,0-.31a.19.19,0,0,1,.17-.23,7.25,7.25,0,0,0,2-.81.42.42,0,0,1,.47,0,5.09,5.09,0,0,0,2,.75,4.27,4.27,0,0,0,2.92-.63.69.69,0,0,1,.92,0,3.68,3.68,0,0,0,2.17.63h.06A4.1,4.1,0,0,0,17.62,24c.22-.14.25-.13.29.14a6.31,6.31,0,0,1-.06,1.68A30,30,0,0,1,17.13,30a24.48,24.48,0,0,1-4.72,9.42c-.12.15-.22.31-.35.45s-.1.28,0,.4c.34.27.67.55,1,.84.07,0,.21.09.17.2s-.16.05-.25.05H7.35Z"/></g></g></svg>