<svg xmlns="http://www.w3.org/2000/svg" viewBox="0 0 44.17 33.82"><defs><style>.cls-1{fill:#bfbfbf;}.cls-2{opacity:0.27;}.cls-3{fill:#efefef;}.cls-4{fill:#109b20;}.cls-5{fill:#f2beb1;}.cls-6,.cls-8{fill:#0d3b48;}.cls-6{opacity:0.1;isolation:isolate;}.cls-7{fill:#d7a095;}.cls-9{fill:#002938;}.cls-10{fill:#fff;}.cls-11{fill:#c5f4ff;stroke-width:0.09px;}.cls-11,.cls-13{stroke:#f1ab65;stroke-miterlimit:10;}.cls-12{fill:#f1ab65;}.cls-13{fill:none;stroke-width:0.11px;}.cls-14{fill:#ffa666;}.cls-15{fill:#5f4645;}.cls-16{fill:#111;}.cls-17{fill:red;}.cls-18{fill:#f2efef;}.cls-19{fill:#04093d;}.cls-20{fill:#16ad00;}</style></defs><title>marking-marriage-hall</title><g id="Layer_2" data-name="Layer 2"><g id="Layer_1-2" data-name="Layer 1"><path class="cls-1" d="M.22,0h39A4.78,4.78,0,0,1,44,4.78V33.41H.22Z"/><g class="cls-2"><path class="cls-3" d="M25.27,3.25c0-1.15-.73-.92-1.29-.92H19.31c-.51,0-1.25-.29-1,.8-1.09-1.48-2.52-.49-3.69-.8-.65-.15-.26.56-.63.8-.08-1.07-.87-.8-1.5-.8H8.24c-.57,0-1.27-.24-1.27.9-.16-1.38-1.09-.8-1.7-.9-.92-.18-1.17.16-1.16,1.11,0,6.7,0,13.4,0,20.11,0,.56,0,.89-.76.89s-.76-.29-.76-.87V3.18c0-.69-.15-1-.86-.85H1.26C0,2.32.08,2.32,0,1c0-.78.19-1,1-1h30.2c.34,0,.9-.22,1,.19a4.11,4.11,0,0,1,0,2c-.09.3-.75.14-1.13.09-.86-.1-1,.22-1,1.06v20.2c0,.58,0,.86-.81.87s-.75-.33-.75-.89V3.26c0-.8-.2-1-1-.94a4.35,4.35,0,0,1-1,0C25.9,2.29,25.31,2.22,25.27,3.25Z"/><path class="cls-3" d="M26.11,17.28c-.67-.29-.65-.94-.8-1.61-.4.46-.13.9-.3,1.25a3.81,3.81,0,0,0-5.2-1.44,3.76,3.76,0,0,0-1.44,1.44c-.18-.34.18-.81-.47-1.24.18.75.06,1.25-.56,1.56a.33.33,0,0,0-.11.45l.11.11a2.38,2.38,0,0,1,.73,1.46,1.83,1.83,0,0,0,1.86,1.41h3.54a1.78,1.78,0,0,0,1.81-1.33c.19-.54.23-1.16.81-1.54C26.25,17.65,26.26,17.33,26.11,17.28Zm-5.72,1.94c-.72,0-1.31-.33-1.27-1s.81-.67,1.36-.73c.81-.09.37.58.49.86C21,18.77,21.13,19.26,20.39,19.22Zm2.65,0c-.8,0-.51-.56-.58-.95s-.22-.94.5-.81c.52.09,1.32,0,1.35.74s-.55,1-1.27,1Z"/><path class="cls-3" d="M10.23,18.78h-4c-.39,0-.62,0-.62-.52s.15-.62.63-.62h8.19c.46,0,.57.14.57.58s-.14.57-.58.56C13,18.77,11.63,18.78,10.23,18.78Z"/><path class="cls-3" d="M6.89,13.94A2,2,0,0,1,7,15.6,2.22,2.22,0,0,1,6.89,13.94Z"/><path class="cls-3" d="M14.06,15.4a2.16,2.16,0,0,1,0-1.69A2.07,2.07,0,0,1,14.06,15.4Z"/><path class="cls-3" d="M18.18,13.94a2.34,2.34,0,0,1,.05,1.61A1.62,1.62,0,0,1,18.18,13.94Z"/><path class="cls-3" d="M25.28,15.4a2.16,2.16,0,0,1,0-1.69A2.07,2.07,0,0,1,25.28,15.4Z"/><path class="cls-3" d="M6.92,17.28A1.64,1.64,0,0,1,7,15.8,1.64,1.64,0,0,1,6.92,17.28Z"/><path class="cls-3" d="M14.06,17.27a2.16,2.16,0,0,1,0-1.69A2.07,2.07,0,0,1,14.06,17.27Z"/><path class="cls-3" d="M6.94,6.46c.28.35.15.72.22,1.31A1,1,0,0,1,6.94,6.46Z"/><path class="cls-3" d="M14,6.46a1.18,1.18,0,0,1,.07,1.23A1.07,1.07,0,0,1,14,6.46Z"/><path class="cls-3" d="M18.14,6.46a1.22,1.22,0,0,1,0,1.3A1.42,1.42,0,0,1,18.14,6.46Z"/><path class="cls-3" d="M25.27,6.46a1.3,1.3,0,0,1,0,1.32A1.3,1.3,0,0,1,25.27,6.46Z"/><path class="cls-3" d="M7,9c-.28-.35-.14-.72-.22-1.3A.93.93,0,0,1,7,9Z"/><path class="cls-3" d="M14.06,9a1.27,1.27,0,0,1,0-1.28A1.19,1.19,0,0,1,14.06,9Z"/><path class="cls-3" d="M18.17,9a1.24,1.24,0,0,1,0-1.26A1.15,1.15,0,0,1,18.17,9Z"/><path class="cls-3" d="M25.26,9a1.28,1.28,0,0,1-.05-1.19A.91.91,0,0,1,25.26,9Z"/><path class="cls-3" d="M18.2,10.54a1.22,1.22,0,0,1,0-1.31A1.44,1.44,0,0,1,18.2,10.54Z"/><path class="cls-3" d="M25.36,9.34a1.25,1.25,0,0,1-.11,1.2A1,1,0,0,1,25.36,9.34Z"/><path class="cls-3" d="M7,10.85c.24.45.11.8.13,1.43C6.7,11.53,6.7,11.53,7,10.85Z"/><path class="cls-3" d="M14.05,11a1.26,1.26,0,0,1,.08,1.18C13.68,11.71,13.88,11.32,14.05,11Z"/><path class="cls-3" d="M18.16,11a1.26,1.26,0,0,1,.09,1.18C17.81,11.71,18,11.32,18.16,11Z"/><path class="cls-3" d="M25.25,11a1.18,1.18,0,0,1,.07,1.23A1.07,1.07,0,0,1,25.25,11Z"/><path class="cls-3" d="M6.93,12.44a1.21,1.21,0,0,1,0,1.27A1.21,1.21,0,0,1,6.93,12.44Z"/><path class="cls-3" d="M14.06,13.53a1.24,1.24,0,0,1,0-1.26A1.15,1.15,0,0,1,14.06,13.53Z"/><path class="cls-3" d="M18.14,12.44a1.24,1.24,0,0,1,0,1.31A1.44,1.44,0,0,1,18.14,12.44Z"/><path class="cls-3" d="M25.28,13.53a1.3,1.3,0,0,1,0-1.32A1.35,1.35,0,0,1,25.28,13.53Z"/><path class="cls-3" d="M7,4.56a1.23,1.23,0,0,1-.08-1.24A1.1,1.1,0,0,1,7,4.56Z"/><path class="cls-3" d="M14.07,4.56c-.3-.36-.19-.73-.14-1.34A1.16,1.16,0,0,1,14.07,4.56Z"/><path class="cls-3" d="M18.08,4.63a1.28,1.28,0,0,1,.1-1.2A1,1,0,0,1,18.08,4.63Z"/><path class="cls-3" d="M25.25,3.22a1.36,1.36,0,0,1,0,1.34A1.33,1.33,0,0,1,25.25,3.22Z"/><path class="cls-3" d="M6.94,6.05A1.33,1.33,0,0,1,6.85,5,.8.8,0,0,1,6.94,6.05Z"/><path class="cls-3" d="M14.13,4.85A1.25,1.25,0,0,1,14,6.05,1,1,0,0,1,14.13,4.85Z"/><path class="cls-3" d="M6.94,10.54a1.36,1.36,0,0,1-.09-1.08C7.24,9.79,7.14,10.16,6.94,10.54Z"/><path class="cls-3" d="M18.25,4.85a1.28,1.28,0,0,1-.1,1.2A1,1,0,0,1,18.25,4.85Z"/><path class="cls-3" d="M25.32,4.86c.24.45.11.81.13,1.44C25,5.56,25,5.56,25.32,4.86Z"/><path class="cls-3" d="M14.08,10.54a1.22,1.22,0,0,1,0-1.31A1.41,1.41,0,0,1,14.08,10.54Z"/></g><path class="cls-4" d="M.23,31.23A8.25,8.25,0,0,1,2,29.46c-.16.52-.12,1,.29,1.24.69.35,1-.39,1.54-.67.34.21,0,.52.18.81a3,3,0,0,1,1.32-1.3c.1.41-.64.68-.14,1.08a.62.62,0,0,0,.75.11,1.1,1.1,0,0,0,.45-1.14A2.57,2.57,0,0,1,7.8,31c.22-.11,0-.29.19-.4.32.22.42.62.67,1,.22-.57-.25-1-.16-1.48.28.19.37.57.74.66.54.14.33-.51.74-.56A13.79,13.79,0,0,1,9.53,32c.57-.51.61-1.24,1.15-1.66.12.51-.76,1.35.5,1.46.5,0,.15-.3.31-.46.39.54.56,1.31,1.4,1.41a10.06,10.06,0,0,1-1.56-2.41,2.78,2.78,0,0,0,1.83.62c.11-.23-.2-.45-.1-.72.35.08.26.51.58.63.16-.23,0-.39-.13-.56s-.27-.29-.27-.53a2.32,2.32,0,0,0,2.2-.1,5.62,5.62,0,0,0-.16.71c0,.23-.29.49,0,.67s.39-.08.56-.17c.37-.21-.13-.41,0-.69a1,1,0,0,0,1.36.1l.1-.1c.35-.29.28.42.57.53.62-.29-.06-.62-.05-1,.38.09.53.37.73.58s.36.64.81.2c.27-.25,0,.25.22.28.25-.15.2-.52.43-.73s.46.68.81.13a1,1,0,0,1,.16.2,1,1,0,0,0,.9.6c.2,0,.4.11.53-.11a.5.5,0,0,0,0-.57c-.11-.17-.22-.33-.39-.61a2.4,2.4,0,0,1,1.15.91c.14.17.3.56.53.4s-.12-.43-.19-.66a2.17,2.17,0,0,1-.07-.24c.65.66,1,.19,1.39-.21s.65-.5,1,0,.81.84,1.42.13c0,.5-.66.76-.21,1.23.13.15.17.38.42.34s.33-.28.35-.51a1.41,1.41,0,0,1,.29-.95c.27.51.75.86.88,1.48,0-.52.58-.81.57-1.29a.23.23,0,0,1,.23-.24h0c.22,0,.34.29.34.41a1.36,1.36,0,0,0,.18.68c.11.2.07.61.4.46a.82.82,0,0,0,.33-.81c0-.17-.29-.28-.21-.53.27,0,.47.41.8.12a.08.08,0,0,1,.09,0,.08.08,0,0,1,0,.09c-.07.4.18.52.47.44s0-.46.09-.69c.36.09.53.49.92.54,0-.4-.48-.57-.52-1a2.36,2.36,0,0,1,.8.71c.27.27.43.17.66-.06s-.12-.6.23-.56.43-.2.73-.16c-.44.53-.09.81.29,1.11a.71.71,0,0,0,1-.2s0,0,0,0c.38-.47.59-.47.76.14a3.55,3.55,0,0,0,.52.8l-.18-.88c.41,0,.39.68.81.47s0-.49,0-.8c.18.3.86,0,.61.65h.16c.31-.12.21-.8.57-.62a2.58,2.58,0,0,1,.8.48,1.18,1.18,0,0,0,.91.31c0-.35-.31-.47-.31-.8.35.07.51.44.86.49,0-.38-.45-.55-.42-1a3.19,3.19,0,0,1,1,.8A3.39,3.39,0,0,0,43,31c.23.13.56.32.74.16s-.08-.47-.18-.7-.34-.36-.37-.62a1.27,1.27,0,0,1,1,1.28,16.28,16.28,0,0,1-.1,2.42,1.11,1.11,0,0,0,.11.3q-21.65,0-43.37,0c-.51,0-.65-.12-.61-.62A15.67,15.67,0,0,0,.23,31.23Z"/><path class="cls-5" d="M20.72,11.25l.2-.31s-.27-1.08,0-.88a2.61,2.61,0,0,1,.31.43s.7-1.05.83-1-.28.79-.28.79.51-.93.7-.89-.47,1-.47,1a6.46,6.46,0,0,1,.78-.79,6.89,6.89,0,0,1-.55,1s.5-.48.63-.42a11.29,11.29,0,0,1-1.41,1.6Z"/><path class="cls-6" d="M21.92,32.32c0,.27-2.55.5-5.68.5s-5.68-.23-5.68-.5,2.54-.49,5.68-.49S21.92,32.05,21.92,32.32Z"/><polygon class="cls-7" points="13.58 6.31 13.44 8.58 13.25 9.73 14.1 10.01 15.06 10.36 15.04 8.68 15.08 6.95 13.58 6.31"/><path class="cls-5" d="M14.2,2.5c-1.15.21-1.15,1-1.15,1A6.64,6.64,0,0,0,13,4.69a.38.38,0,0,0-.47-.15c-.39.15-.15,1.35.44,1.35a3.68,3.68,0,0,0,.19.86,2.32,2.32,0,0,0,1.51,1,1.34,1.34,0,0,0,1.58-1c.08-1.11.11-2.23.08-3.35C16.28,3.44,16.11,2.13,14.2,2.5Z"/><path class="cls-8" d="M13.76,3.12c-.31,0-.79-.14-1.1-.15V4.54a.25.25,0,0,1,.28.27v.57h.31l.08-1.19a.65.65,0,0,0,.28-.29Q13.67,3.5,13.76,3.12Z"/><path class="cls-9" d="M13.76,3.91a.72.72,0,0,1,.58-.28.63.63,0,0,1,.55.33c-.22-.06-.36-.16-.55-.12A1.62,1.62,0,0,0,13.76,3.91Z"/><path class="cls-9" d="M15.43,4.19a.54.54,0,0,1,.46-.29.48.48,0,0,1,.41.36c-.16-.08-.28-.19-.43-.16A3.13,3.13,0,0,1,15.43,4.19Z"/><path class="cls-8" d="M15,5.9s-.91-.23-1.08,0-.21.6-.47.47-.12-2.43-.12-2.43L13,4.69s-.73,3,1.13,3.19,2.26-.38,2.12-1.34c0,0-.21.09-.31-.19S16,5.81,15,5.9Z"/><path class="cls-10" d="M14.15,6.27l1.49.1S15.16,7.15,14.15,6.27Z"/><path class="cls-8" d="M12.64,3.2s-.13-1,.72-.89a2.29,2.29,0,0,1,1.88-.81l-.52.26a2.21,2.21,0,0,1,1.88,0,.7.7,0,0,1-.58.46,2.54,2.54,0,0,0,.67-.17s0,.77-.48.93-1.94-.6-2.53.14S12.75,3,12.75,3"/><path class="cls-11" d="M13.72,4.19,15,4.37s0,1.06-.83.94S13.72,4.19,13.72,4.19Z"/><path class="cls-8" d="M14.37,4.66c0,.17-.09.29-.17.29s-.12-.14-.12-.3.08-.28.18-.28S14.38,4.52,14.37,4.66Z"/><polygon class="cls-12" points="15.04 4.27 13.57 4.06 13.53 4.22 15 4.41 15.04 4.27"/><path class="cls-11" d="M16.51,4.45l-1.22-.11s-.2,1.16.64,1.15S16.51,4.45,16.51,4.45Z"/><polygon class="cls-12" points="15.25 4.29 16.67 4.38 16.68 4.56 15.27 4.44 15.25 4.29"/><path class="cls-8" d="M15.78,4.77c0,.16-.08.29-.18.29s-.14-.14-.13-.3.08-.28.16-.28S15.79,4.61,15.78,4.77Z"/><polygon class="cls-7" points="15 5.9 15.23 4.6 15.64 5.78 15 5.9"/><polygon class="cls-12" points="13.53 4.22 12.51 4.56 12.52 4.41 13.57 4.06 13.53 4.22"/><path class="cls-13" d="M14.94,4.54a.29.29,0,0,1,.33,0"/><polygon class="cls-14" points="14.28 28.86 14.82 31.42 14.15 31.81 13.15 28.65 14.28 28.86"/><path class="cls-10" d="M13.62,30.72a2.3,2.3,0,0,1-1.06.7c-.64.19-1.21.42-1.17.78a3.56,3.56,0,0,0,2.49,0v.16h1V31.09l-.82,0,.07-.12Z"/><path class="cls-15" d="M13.21,32.18c-1.35.33-1.73,0-1.81-.07v.09a3.56,3.56,0,0,0,2.49,0v.16h1v-.25A4.68,4.68,0,0,0,13.21,32.18Z"/><polygon class="cls-14" points="16.44 25.77 18.27 32.07 18.95 31.64 17.68 26.11 16.44 25.77"/><path class="cls-10" d="M18.85,30.51a2.36,2.36,0,0,0,1.26.19c.66-.11,1.28-.15,1.35.2a3.61,3.61,0,0,1-2.28,1l.07.13-.93.41-.55-1.16.78-.31-.11-.09Z"/><path class="cls-15" d="M19.84,31.65c1.35-.29,1.55-.78,1.62-.83v.08a3.61,3.61,0,0,1-2.28,1l.07.13-.93.41-.11-.23A4.82,4.82,0,0,1,19.84,31.65Z"/><path class="cls-16" d="M11.05,15.59a31.77,31.77,0,0,0,2.06,14.18,1.25,1.25,0,0,0,1.44-.11,74.7,74.7,0,0,1-1-10.66h.55a47.82,47.82,0,0,1,1.75,4.63c.2,1,1.16,5.73,1.34,6.18,0,0,1.12.23,1.35-.38,0,0-.28-3.53-.48-5.3-.15-1.35-2-7.47-2-7.47Z"/><path class="cls-17" d="M11.05,16.08a8.36,8.36,0,0,0,5.12.68s.7-4.5,1.09-7.24a12.26,12.26,0,0,0-2.91-.83l-.23.58,0-.62a31.21,31.21,0,0,0-3.21.13S10.93,14,11.05,16.08Z"/><polygon class="cls-18" points="12.79 8.65 13.5 9.47 14.03 8.65 13.22 8.12 12.79 8.65"/><polygon class="cls-18" points="15.58 8.93 14.88 9.56 14.35 8.68 15.27 8.38 15.58 8.93"/><path class="cls-17" d="M17.26,9.58a23.41,23.41,0,0,1,1.83,3.93,2.16,2.16,0,0,1-1.35.54l-1.26-2.18Z"/><path class="cls-17" d="M10.83,8.8a22.3,22.3,0,0,0-2.16,3.77,2.17,2.17,0,0,0,1.35.64l1.37-2.07Z"/><path class="cls-17" d="M11,16.43A4.2,4.2,0,0,0,13,18l.54-1.17.77,1.26a4,4,0,0,0,1.87-1.34L14,15.39Z"/><path class="cls-17" d="M18.58,12.74a12.48,12.48,0,0,0,2.23-1.67s.63.14.82.53a10.37,10.37,0,0,1-2.42,2.57s-.85.66-1.13.32C17,13.28,18.58,12.74,18.58,12.74Z"/><path class="cls-5" d="M11.62,15.42c-.4-.14-.93.56-1,.83a1.42,1.42,0,0,0,.31.33c.43.13.42-.37.42-.37.92,1,.08-.28.08-.28,1,1.2.18-.16.18-.16,1.14,1,.18-.1.18-.1C13.1,16.16,11.62,15.42,11.62,15.42Z"/><path class="cls-18" d="M14.24,9.75a.12.12,0,0,1-.12.12h0a.12.12,0,0,1-.13-.1v0a.13.13,0,0,1,.08-.17h0a.14.14,0,0,1,.17.09A.19.19,0,0,1,14.24,9.75Z"/><path class="cls-18" d="M14.15,10.92a.12.12,0,1,1-.24,0,.12.12,0,0,1,.24,0Z"/><path class="cls-18" d="M14.08,12.27a.12.12,0,1,1-.12-.12.12.12,0,0,1,.12.12Z"/><circle class="cls-18" cx="13.89" cy="13.6" r="0.12"/><path class="cls-18" d="M13.89,15a.12.12,0,0,1-.12.12h0a.12.12,0,0,1,0-.24.12.12,0,0,1,.12.12Z"/><path class="cls-18" d="M13.69,16.31a.12.12,0,0,1-.24,0,.12.12,0,0,1,.24,0Z"/><rect class="cls-18" x="15.6" y="11.1" width="0.22" height="1.55" transform="translate(1.33 25.33) rotate(-80.18)"/><polygon class="cls-5" points="10.66 16.36 10.23 15.68 10.74 15.3 11.08 15.81 10.66 16.36"/><path class="cls-17" d="M10,12.88a9.52,9.52,0,0,0,1,2.51s-.22.58-.64.67a9.73,9.73,0,0,1-1.88-2.89,8.07,8.07,0,0,1,.55-1.44C9.29,11.37,10,12.88,10,12.88Z"/><ellipse class="cls-6" cx="31.48" cy="31.73" rx="5.26" ry="0.46"/><polygon class="cls-14" points="29.81 29.35 30.03 31.03 29.39 31.26 29.05 29.46 29.81 29.35"/><path class="cls-19" d="M29,30.27a2.18,2.18,0,0,1-1,.67c-.59.19-1.11.42-1.06.75a3.37,3.37,0,0,0,2.3-.1v.18l.94-.07V30.52l-.77.08v-.13Z"/><path class="cls-10" d="M28.65,31.63c-1.25.34-1.61,0-1.68,0a.14.14,0,0,0,0,.09,3.43,3.43,0,0,0,2.3-.1v.15l.94-.07v-.23A4.56,4.56,0,0,0,28.65,31.63Z"/><polygon class="cls-14" points="32.95 29.4 32.91 31.09 33.59 31.24 33.71 29.41 32.95 29.4"/><path class="cls-19" d="M33.85,30.22a2.12,2.12,0,0,0,1,.56c.6.11,1.15.28,1.14.63a3.35,3.35,0,0,1-2.29.16v.2h-1l-.1-1.17h.77v-.12Z"/><path class="cls-10" d="M34.35,31.53A2.11,2.11,0,0,0,36,31.32v.09a3.37,3.37,0,0,1-2.3.16v.2h-.94v-.25A4.6,4.6,0,0,1,34.35,31.53Z"/><path class="cls-19" d="M28.91,16a34.38,34.38,0,0,0,0,14.07,1.16,1.16,0,0,0,1.34.08,75.74,75.74,0,0,1,.49-10.65l.49.13c.4,1.47.73,3,1,4.46a59.84,59.84,0,0,0,.57,6.09s1,.37,1.33-.16c0,0,.1-3.49.15-5.15,0-1.24-.87-7.39-.87-7.39Z"/><polygon class="cls-7" points="31.94 7.84 31.88 9.96 31.97 11.03 31.16 11.21 30.23 11.46 30.39 9.91 30.51 8.31 31.94 7.84"/><path class="cls-5" d="M31.69,4.27c1.05.3,1,1,1,1a5.15,5.15,0,0,1,0,1.11.39.39,0,0,1,.45-.1c.35.18,0,1.25-.52,1.18a2.75,2.75,0,0,1-.24.77,2.15,2.15,0,0,1-1.48.82,1.25,1.25,0,0,1-1.37-1c0-1,.21-3.1.21-3.1S30,3.77,31.69,4.27Z"/><path class="cls-8" d="M32,4.88h1v.21l-.1,1.25c-.3,0-.3.23-.3.23v.52h-.29V6a.53.53,0,0,1-.22-.4A3.16,3.16,0,0,0,32,4.88Z"/><path class="cls-9" d="M32,5.59a1.84,1.84,0,0,0-.52-.1,1,1,0,0,0-.51.07.6.6,0,0,1,.53-.27A.66.66,0,0,1,32,5.59Z"/><path class="cls-9" d="M30.48,5.74c-.16,0-.28-.15-.41-.12a.79.79,0,0,0-.41.11.47.47,0,0,1,.41-.3A.49.49,0,0,1,30.48,5.74Z"/><path class="cls-8" d="M30.66,7.35s.86-.14,1,.14.15.56.4.47.31-2.24.31-2.24l.29.73s.41,2.88-1.31,2.88-2-.53-1.84-1.48c0,0,.18.11.29-.15S29.71,7.18,30.66,7.35Z"/><path class="cls-10" d="M31.42,7.75H30S30.41,8.5,31.42,7.75Z"/><path class="cls-8" d="M33.06,5s.21-.91-.58-.87a2.1,2.1,0,0,0-1.67-.87l.46.27a2.08,2.08,0,0,0-1.77-.1A.62.62,0,0,0,30,4a2.44,2.44,0,0,1-.61-.21s0,.72.37.91,1.84-.4,2.32.33S33,5,33,5"/><path class="cls-8" d="M31.36,6.27c0,.13,0,.26.12.26s.15-.11.16-.25,0-.28-.14-.28S31.36,6.12,31.36,6.27Z"/><path class="cls-8" d="M30.05,6.24c0,.15,0,.28.12.28s.15-.12.16-.27,0-.26-.13-.26S30.05,6.1,30.05,6.24Z"/><polygon class="cls-7" points="30.66 7.35 30.57 6.13 30.08 7.19 30.66 7.35"/><path class="cls-20" d="M33.45,17.06a7.56,7.56,0,0,1-4.77.2s-.28-4.19-.43-6.76A11.23,11.23,0,0,1,31,10l.16.56.14-.57a29.4,29.4,0,0,1,2.95.39S33.74,15.12,33.45,17.06Z"/><polygon class="cls-18" points="32.46 10.07 31.74 10.77 31.33 9.97 32.12 9.56 32.46 10.07"/><polygon class="cls-18" points="29.88 10.09 30.47 10.74 31.03 9.97 30.21 9.62 29.88 10.09"/><path class="cls-20" d="M28.25,10.5a21.59,21.59,0,0,0-2,3.48,2.09,2.09,0,0,0,1.25.61l1.35-1.92Z"/><path class="cls-20" d="M34.27,10.37a25.6,25.6,0,0,1,1.8,4,1.93,1.93,0,0,1-1.25.48l-1.25-2.31Z"/><path class="cls-20" d="M33.44,17.4a3.9,3.9,0,0,1-1.94,1.24l-.39-1.12-.81,1.1a3.59,3.59,0,0,1-1.62-1.39l2.16-1Z"/><path class="cls-5" d="M33,16.41c.37-.1.81.6.88.85a1,1,0,0,1-.31.27c-.41.09-.36-.37-.36-.37-.92.86,0-.26,0-.26-1,1-.15-.16-.15-.16-1.13.83-.16-.1-.16-.1C31.55,17,33,16.41,33,16.41Z"/><path class="cls-18" d="M31,11a.12.12,0,0,0,.09.12h0a.1.1,0,0,0,.12-.07,0,0,0,0,0,0,0,.12.12,0,0,0-.1-.13h0A.13.13,0,0,0,31,11Z"/><path class="cls-18" d="M31,12a.12.12,0,0,0,.1.12.11.11,0,0,0,.13-.09h0a.11.11,0,0,0-.08-.12h0A.11.11,0,0,0,31,12Z"/><path class="cls-18" d="M31,13.3a.11.11,0,0,0,.1.12h0a.12.12,0,0,0,.12-.1.12.12,0,0,0-.11-.12.1.1,0,0,0-.11.08Z"/><path class="cls-18" d="M30.93,14.53a.12.12,0,0,0,.1.12.11.11,0,0,0,.13-.09h0a.11.11,0,0,0-.08-.12h0a.11.11,0,0,0-.13.1Z"/><path class="cls-18" d="M30.93,15.85A.12.12,0,0,0,31,16h0a.18.18,0,0,0,.13-.12.12.12,0,0,0-.1-.12A.13.13,0,0,0,30.93,15.85Z"/><path class="cls-18" d="M31,17a.13.13,0,0,0,.12.13.11.11,0,0,0,.12-.1h0A.12.12,0,0,0,31,17Z"/><rect class="cls-18" x="32.6" y="12.13" width="0.2" height="1.43" transform="translate(16.74 44.14) rotate(-84.43)"/><polygon class="cls-5" points="33.8 17.36 34.25 16.76 33.8 16.37 33.45 16.81 33.8 17.36"/><path class="cls-20" d="M34.8,14.48a12.52,12.52,0,0,1-1.25,2s.19.72.56.84a8.22,8.22,0,0,0,2.07-2.4,7.18,7.18,0,0,0-.4-1.37C35.59,13.15,34.8,14.48,34.8,14.48Z"/><path class="cls-5" d="M29.22,16.41c-.38-.1-.81.6-.89.85.16.16.26.26.32.27.4.09.35-.37.35-.37.92.86,0-.26,0-.26,1,1,.15-.16.15-.16,1.13.83.16-.1.16-.1C30.64,17,29.22,16.41,29.22,16.41Z"/><polygon class="cls-5" points="28.41 17.36 27.96 16.76 28.4 16.37 28.75 16.81 28.41 17.36"/><path class="cls-20" d="M27.4,14.48a13.84,13.84,0,0,0,1.25,2s-.19.72-.56.84A10.06,10.06,0,0,1,26,14.63s.42-1,.62-1.36S27.4,14.48,27.4,14.48Z"/></g></g></svg>