<svg xmlns="http://www.w3.org/2000/svg" viewBox="0 0 37.98 26"><defs><style>.cls-1{fill:#fff;}.cls-2{fill:#1e9b8f;}.cls-3{fill:#00b535;}</style></defs><title>marking-hospital</title><g id="Layer_2" data-name="Layer 2"><g id="Layer_1-2" data-name="Layer 1"><g id="Layer_1-2-2" data-name="Layer 1-2"><rect class="cls-1" x="14.29" y="14.52" width="9.58" height="9.58"/><rect class="cls-1" x="28.36" y="7.99" width="7.38" height="11"/><rect class="cls-1" x="2.98" y="7.99" width="7.38" height="11"/><circle class="cls-1" cx="19.3" cy="5.8" r="5.6"/><g id="Layer_1-2-2-2" data-name="Layer 1-2-2"><path class="cls-2" d="M19,26H.74C0,26,0,26,0,25.24V24.07c0-.36.15-.5.5-.49s.81,0,1.27,0c.28,0,.4-.11.4-.39V8a2.17,2.17,0,0,1,2-2.33,2.94,2.94,0,0,1,.42,0h6.06c.48,0,.61.15.61.61V23c0,.36,0,.68.5.61.21,0,.31-.12.31-.33V2.44A2.43,2.43,0,0,1,14.46,0h9.21A2.13,2.13,0,0,1,26,2h0a2,2,0,0,1,0,.35V22.88c0,.7,0,.71.7.7,1.2,0,1,.15,1-1V6.3c0-.69,0-.69.72-.69h6a2.08,2.08,0,0,1,2.22,1.9h0a2,2,0,0,1,0,.35V22.8c0,.81,0,.81.75.81.43,0,.6.13.57.56s0,.85,0,1.27-.11.6-.53.55H19ZM14.29,5.35A4.75,4.75,0,0,0,19,10.17h0a4.87,4.87,0,0,0,4.87-4.76A4.81,4.81,0,0,0,19.08.59h0a4.73,4.73,0,0,0-4.77,4.68h0Zm7.78,14.36V16.38c0-.34-.11-.47-.45-.47h-5c-.36,0-.47.13-.47.47v6.71c0,.36.12.5.49.5H21.6c.37,0,.48-.15.48-.5C22.07,22,22.07,20.84,22.07,19.71Zm-16-9.29c0-1.1.12-1-1-1s-1-.12-1,1-.11,1,1,1S6.1,11.48,6.11,10.42Zm3.29,0c0-1.1.11-1-1-1h0c-1,0-.93-.09-.92.94s-.16,1,1,1S9.39,11.48,9.4,10.42Zm21-1c-1.1,0-1-.11-1,1v0c0,1-.09.93.94.92s1,.13,1-1S31.48,9.44,30.41,9.43Zm3.3,0c-1.1,0-1-.12-1,1s-.12,1,1,1,1,.12,1-1S34.77,9.44,33.71,9.43ZM6.12,13.71c0-1.11.11-1-1-1H5.09c-1,0-.93-.09-.92.94s-.11,1,1,1,.94.11,1-.95Zm2.34-1c-1.11,0-1-.13-1,.95s-.17,1,1,1,1,.12,1-1,.1-1-1-1Zm22.91,1c0-1.1.13-1-1-1s-1-.12-1,1-.12,1,1,1S31.37,14.77,31.37,13.71Zm2.34-1c-1.1,0-1-.13-1,1s-.13,1,1,1,1,.12,1-1S34.77,12.72,33.71,12.72ZM5.17,16.24c-1.11,0-1-.16-1,1v0c0,1-.08.91.92.91,1.16,0,1,.13,1-1S6.21,16.24,5.17,16.24Zm3.25,0c-1.12,0-1-.14-1,.94s-.13,1,1,1,1,.11,1-1,.1-.91-1-.91Zm22.92,1c0-1.1.12-1-1-1h0c-1,0-.93-.1-.93.93s-.12,1,1,1,.93.07.95-1Zm3.29,0c0-1.11.12-1-1-1s-1-.13-1,1-.11,1,1,1,1,.1,1-.95Z"/><path class="cls-3" d="M18.92,9.34c-1.57,0-1.36.19-1.38-1.4,0-1,0-1-1-1-1.45,0-1.28.16-1.29-1.32s0-1.5,1.49-1.5c.83,0,.83,0,.83-.85V1.94c0-.45.14-.51.49-.5h1.86c.34,0,.48.17.48.5V3.56c0,.39.14.58.54.56s1,0,1.51,0,.65.19.63.65,0,1.08,0,1.62-.14.58-.54.56-1,0-1.57,0-.59.16-.57.58,0,.85,0,1.27-.15.62-.57.59Z"/></g></g></g></g></svg>