<svg id="Layer_1" data-name="Layer 1" xmlns="http://www.w3.org/2000/svg" viewBox="0 0 17.95 21.72"><defs><style>.cls-1{opacity:0.5;}.cls-2{fill:#fff;}</style></defs><g class="cls-1"><g id="Layer_1-2" data-name="Layer 1-2"><path class="cls-2" d="M9.05,18.91l5-4.9a7,7,0,0,0-9.9-9.9,7.06,7.06,0,0,0,0,9.9Zm0,2.8-6.4-6.4a9,9,0,1,1,12.7,0h0Z" transform="translate(-0.03 0.01)"/></g></g><g class="cls-1"><path class="cls-2" d="M5.65,13.25V5.17H7.78l1.68,3a22.7,22.7,0,0,1,1.32,2.77h0a32.84,32.84,0,0,1-.14-3.38V5.17h1.67v8.08H10.43L8.7,10.14A28,28,0,0,1,7.29,7.29h0c.06,1.07.08,2.21.08,3.54v2.42Z" transform="translate(-0.03 0.01)"/></g></svg>