<svg xmlns="http://www.w3.org/2000/svg" viewBox="0 0 21.34 25"><defs><style>.cls-1{fill:#0ba118;}.cls-2{fill:#e51c1c;}.cls-3{fill:#464544;}.cls-4{fill:#474747;}.cls-5{fill:#fefefe;}</style></defs><g id="Layer_2" data-name="Layer 2"><g id="Layer_1-2" data-name="Layer 1"><path class="cls-1" d="M13,12.92a.36.36,0,0,0-.38-.23.29.29,0,0,1-.33-.23,27.89,27.89,0,0,0-1.52-4c-.29-.6-.59-1.18-.91-1.75-.07-.12-.14-.2-.22-.13l0,0a.21.21,0,0,0,0,.06,7.08,7.08,0,0,1-.31.88c-.08.15-.16.37-.38.27s-.07-.29,0-.44A4.07,4.07,0,0,0,9.18,6.1c0-.19,0-.35-.27-.36a4.57,4.57,0,0,0-1,0l0,.06h0c-.53.61-1,1.25-1.5,1.89-.11.14-.24.26-.34.38.3-.57.55-1.21.81-1.83.06-.14.2-.29.09-.44h0l0-.06A2.54,2.54,0,0,1,6,5.6c0,.12,0,.19-.14.27A16.6,16.6,0,0,0,3.08,9,19.71,19.71,0,0,0,.46,14.84,12.7,12.7,0,0,0,0,17.63a4.46,4.46,0,0,0,.74,2.84A4.27,4.27,0,0,0,3.13,22,14.85,14.85,0,0,0,7,22.46c1.6,0,3.2,0,4.79,0a.1.1,0,0,0-.08-.14h0c-1,0-1.93,0-2.92,0a7.21,7.21,0,0,0,1.5-.42.31.31,0,0,0,.22-.46A5.49,5.49,0,0,1,10.19,19a5,5,0,0,1,1.33-2.88,5.55,5.55,0,0,1,1-.9c.15-.09.3-.22.27-.4s0-.49-.09-.74a3.73,3.73,0,0,1-.23-1c0-.05,0-.1,0-.14a.15.15,0,0,1,.17,0,.28.28,0,0,1,.13.11s.09.1.15,0A.16.16,0,0,0,13,12.92ZM8.3,19.47c-.86.08-.93,0-.93-.83,0-.4,0-.4-.4-.43a5.7,5.7,0,0,1-1.57-.37c-.16-.06-.24-.14-.2-.32a11.38,11.38,0,0,1,.32-1.31c.06-.18.16-.13.27-.08a4.3,4.3,0,0,0,1.69.35A1.8,1.8,0,0,0,8,16.37a.62.62,0,0,0,.46-.56.65.65,0,0,0-.32-.66,7.21,7.21,0,0,0-1.09-.51l-.06,0A3.09,3.09,0,0,1,6,14a2,2,0,0,1-.43-.77h0a2.27,2.27,0,0,1,1.63-3.07c.17,0,.26-.11.23-.3s0-.28,0-.42c0-.38,0-.4.4-.41.24,0,.48,0,.72,0s.2.08.21.23-.12.59.06.75.48.13.73.19.4.13.6.17.24.14.21.31A6.33,6.33,0,0,1,10,11.87c-.07.17-.15.2-.32.13a3.37,3.37,0,0,0-1.57-.31c-.39,0-.62.15-.7.4a.66.66,0,0,0,.34.72,4,4,0,0,1,.43.19l.29.08a.26.26,0,0,1,.14.1l.32.12h0l.12,0,.12.05h0a2.92,2.92,0,0,1,.36.17.83.83,0,0,1,.28.21,2.19,2.19,0,0,1,.8,2.07,2.23,2.23,0,0,1-1.46,2c-.38.15-.48.33-.43.69,0,.16,0,.33,0,.48s-.08.39-.34.4Z"/><path class="cls-2" d="M11.79,22.47l-.07-.1a.44.44,0,0,1-.17-.21,5.47,5.47,0,0,1-.5-2,4.93,4.93,0,0,1,1-3.26,5,5,0,0,1,4.44-2.13.55.55,0,0,1,.25.07,5.12,5.12,0,1,1-4.92,7.67Z"/><path class="cls-1" d="M16.71,14.8a5.11,5.11,0,0,0-3,.64,5,5,0,0,0-2.59,4.27,5.57,5.57,0,0,0,.59,2.66.84.84,0,0,1-.17.05c-1,0-2,0-3,0,.5-.13,1-.31,1.48-.45s.43-.14.32-.52a5.87,5.87,0,0,1-.3-1.85,5.21,5.21,0,0,1,2.32-4.31c.29-.21.51-.39.28-.77.17-.23,0-.47-.07-.63a7,7,0,0,1-.16-.74c0-.1-.16-.21,0-.27a.37.37,0,0,1,.46.08s0,.13.11.14c0-.22-.09-.34-.31-.31s-.38-.09-.45-.35a23.64,23.64,0,0,0-.82-2.32,25.49,25.49,0,0,0-1.08-2.38c-.16-.35-.36-.68-.55-1-.06-.12-.07,0-.11,0a1.51,1.51,0,0,1,0-.79c0-.17.19-.06.26,0a10.29,10.29,0,0,1,.66.82,9.66,9.66,0,0,1,1.09,2.09c.06.16.09.4.34.31s.15-.31.09-.49a10.05,10.05,0,0,0-1.48-2.61c-.06-.08-.17-.15-.09-.26a.22.22,0,0,1,.27,0c.43.32.89.6,1.3.94a12.48,12.48,0,0,1,3.37,4.51,22.81,22.81,0,0,1,1.18,3.34A1.84,1.84,0,0,0,16.71,14.8Z"/><path class="cls-1" d="M6.4,5c-.42-.57-.74-1.2-1.12-1.8C4.81,2.41,4.36,1.65,3.9.89a.31.31,0,0,1,0-.33C3.92.43,4,.47,4.17.47A8.59,8.59,0,0,1,6.31.79,1.4,1.4,0,0,0,7.48.57,3.19,3.19,0,0,1,8.26.08,1.17,1.17,0,0,1,9.68.6c-.08.06-.14,0-.2,0a23.69,23.69,0,0,0-.35,3.76.48.48,0,0,1-.08.31,3.35,3.35,0,0,1-1.22.19c-.24,0-.29-.11-.34-.33-.18-.84-.4-1.67-.64-2.49-.07-.23-.11-.47-.16-.7A.38.38,0,0,0,6.33,1,8.23,8.23,0,0,0,4.62.77c0,.07,0,.12,0,.17C5.33,2,6,3.06,6.72,4.09a1.64,1.64,0,0,1,.14.22.54.54,0,0,0,.4.37c.06,0,.15,0,.09.14A1.73,1.73,0,0,1,6.4,5Z"/><path class="cls-1" d="M9,4.61A22.24,22.24,0,0,1,9.41.46c.12,0,.16.15.27.14A2,2,0,0,0,11.35,1l.7-.11a.5.5,0,0,1,.57.23.51.51,0,0,1,0,.66c-.59.82-1.19,1.64-1.78,2.47a.46.46,0,0,0-.15.25,7.25,7.25,0,0,1-1.53.17A.1.1,0,0,1,9,4.61Z"/><path class="cls-3" d="M9,4.61l1.3-.14a.61.61,0,0,1,.33,0c.22.32.15.5-.23.56-.12,0-.26,0-.35.14.26.11.61-.12.77.22a.28.28,0,0,1-.09.35l-.27.09a9.51,9.51,0,0,1,1.31,2c.13.29.25.59.37.88s.11.41-.15.5-.34,0-.43-.27a8.78,8.78,0,0,0-1.68-2.9c-.07-.08-.12-.17-.25-.2a3.27,3.27,0,0,1,0,.83,3.9,3.9,0,0,1-.36,1.06C9.17,8,9,8.07,8.8,8s-.13-.28-.05-.44a3.38,3.38,0,0,0,.34-1.43c0-.2-.05-.29-.26-.28s-.62,0-.93,0a1.43,1.43,0,0,1-1,0,3.27,3.27,0,0,0-.44,0A.42.42,0,0,1,6,5.6a.29.29,0,0,1,.17-.34c.16,0,.13-.22.24-.3a7.71,7.71,0,0,1,1-.17c.13-.11.29,0,.43,0Z"/><path class="cls-4" d="M5.75,12.83h0l-.12,0Z"/><path class="cls-4" d="M9.14,13.4,9,13.35l-.12,0A.64.64,0,0,1,9.14,13.4Z"/><path class="cls-4" d="M7.32,14.56l-.06,0,.06,0Z"/><path class="cls-4" d="M9.86,13.89l-.09-.11h0A1,1,0,0,1,9.86,13.89Z"/><path class="cls-4" d="M9.93,14l0-.08Z"/><path class="cls-1" d="M6.88,5.83h1a7.46,7.46,0,0,1-.83,1.11c-.38.5-.77,1-1.18,1.46a3.91,3.91,0,0,1,.34-.88c.22-.53.45-1,.67-1.58C6.92,5.91,6.89,5.86,6.88,5.83Z"/><path class="cls-1" d="M3.44,19.32A1.32,1.32,0,0,1,2,19.76a1,1,0,0,1-.53-1.27C1.86,19.42,2.6,19.48,3.44,19.32Z"/><path class="cls-1" d="M5.26,20.71a1.23,1.23,0,0,1-1.32.51,1.11,1.11,0,0,1-.73-1.09A1.41,1.41,0,0,0,5.26,20.71Z"/><path class="cls-5" d="M18.82,18a.73.73,0,0,1-.25.58c-.38.37-.74.75-1.13,1.12-.14.13-.14.22,0,.36.38.36.74.73,1.11,1.1a.76.76,0,1,1-1.08,1.06c-.34-.34-.69-.67-1-1s-.33-.2-.52,0c-.34.37-.7.71-1.06,1.06a.72.72,0,0,1-.9.15.75.75,0,0,1-.39-.78.87.87,0,0,1,.24-.44c.36-.36.71-.73,1.09-1.07.22-.2.17-.32,0-.49-.36-.33-.7-.69-1-1a.76.76,0,1,1,1.06-1.07c.38.37.76.74,1.12,1.13.13.13.21.12.33,0,.39-.4.78-.8,1.19-1.18a.72.72,0,0,1,1.07,0A.67.67,0,0,1,18.82,18Z"/><path class="cls-1" d="M7.79,4.74a.91.91,0,0,1-.43,0c-.43,0-.5-.37-.69-.63C6.08,3.33,5.57,2.46,5,1.63L4.51.88a.27.27,0,0,1,0-.16c0-.09.12,0,.18,0A14.48,14.48,0,0,1,6.51.91c.18,0,.21.18.24.3.24,1.08.55,2.13.84,3.2C7.62,4.53,7.47,4.78,7.79,4.74Z"/></g></g></svg>