<svg id="Layer_1" data-name="Layer 1" xmlns="http://www.w3.org/2000/svg" viewBox="0 0 18 21.49"><defs><style>.cls-1,.cls-3{opacity:0.5;}.cls-2,.cls-3{fill:#fff;}.cls-3{isolation:isolate;font-size:10px;font-family:Roboto-Bold, Roboto;font-weight:700;}</style></defs><g class="cls-1"><g id="Layer_1-2" data-name="Layer 1-2"><path class="cls-2" d="M8.36,18.56a1,1,0,0,0,1.37,0L14,14.34a7.06,7.06,0,0,0-3-11.73,6,6,0,0,0-4,0,7.06,7.06,0,0,0-3,11.73Zm1.37,2.78a1,1,0,0,1-1.38,0L2.64,15.64A9.07,9.07,0,0,1,6,.71,8.07,8.07,0,0,1,12,.71a9.06,9.06,0,0,1,3.42,14.92h0Z" transform="translate(0 -0.15)"/></g></g><text class="cls-3" transform="translate(2.95 12.53)">SB</text></svg>