<svg xmlns="http://www.w3.org/2000/svg" viewBox="0 0 70 56.95"><defs><style>.cls-1{isolation:isolate;}.cls-2{fill:#871500;}.cls-3{fill:#546e7a;}.cls-4{fill:#37474f;}.cls-5{fill:#212121;}.cls-6{fill:#ffd6ad;}.cls-7{fill:#ffc58f;}.cls-8{fill:#ffcb9c;}.cls-9{fill:#90a4ae;}.cls-10{fill:#263238;}.cls-11{fill:#455a64;}.cls-12{fill:#6a828c;}.cls-13{fill:#78909c;}.cls-14{fill:#324047;}.cls-15{fill:#b0bec5;}.cls-16{fill:#b7c5cc;}.cls-17{fill:#c11e00;}.cls-18{fill:#d13619;}.cls-19{fill:#de5431;}.cls-20{fill:#3a2522;}.cls-21{fill:#3e2723;}.cls-22{fill:#eb9711;}.cls-23,.cls-24{fill:#b3e5fc;}.cls-24,.cls-35{mix-blend-mode:soft-light;}.cls-25{fill:#9db2c7;}.cls-26{fill:#abd7fb;}.cls-27{fill:#141312;}.cls-28{fill:#eceff1;}.cls-29{fill:#ffbb7c;}.cls-30{fill:#fff;}.cls-31{fill:#474747;}.cls-32{fill:#aaa;}.cls-33{fill:#442d27;}.cls-34{fill:#898094;opacity:0.35;}.cls-35{fill:#b2a6c2;}.cls-36{fill:#db4123;}</style></defs><g class="cls-1"><g id="Layer_2" data-name="Layer 2"><g id="Layer_1-2" data-name="Layer 1"><polygon class="cls-2" points="25.93 5.8 25.77 8.41 27.09 11.47 29.61 12.15 28.44 3.64 25.93 5.8"/><path class="cls-3" d="M44.2,45.78H42.4a.48.48,0,0,1-.49-.49h0a.48.48,0,0,1,.49-.49h1.8a.49.49,0,0,1,.49.49h0A.49.49,0,0,1,44.2,45.78Z"/><path class="cls-4" d="M44.2,45.88H42.4a.59.59,0,1,1,0-1.17h1.8a.59.59,0,0,1,0,1.17Zm-1.8-1a.4.4,0,1,0,0,.79h1.8a.4.4,0,0,0,0-.79Z"/><path class="cls-4" d="M44.2,45.88a.59.59,0,1,1,.58-.59A.58.58,0,0,1,44.2,45.88Zm0-1a.4.4,0,1,0,.39.39A.4.4,0,0,0,44.2,44.9Z"/><path d="M26.19,19.79A2,2,0,0,0,29,20c1-.89,2.63-2.43,3.45-3.29a2,2,0,0,0-.1-2.83h0a2,2,0,0,0-2.79.08c-.74.78-2.32,2.27-3.24,3.13a2,2,0,0,0-.16,2.73Z"/><path class="cls-5" d="M30,13.63c-.07.08-.83.8-1.62,1.55l-1.65,1.57h0a2.27,2.27,0,0,1,2.51,1.37l2.21-1.91a3.89,3.89,0,0,0,.52,1l.56-.57a2,2,0,0,0-.1-2.83h0a2,2,0,0,0-1.74-.49l-.67.26Z"/><path class="cls-5" d="M27.7,20.58h-.13a2.09,2.09,0,0,1-1.45-.73h0A2.07,2.07,0,0,1,26.28,17c.55-.51,2.4-2.25,3.24-3.13a2.11,2.11,0,0,1,2.93-.08,2.08,2.08,0,0,1,.67,1.46,2.12,2.12,0,0,1-.57,1.5c-.83.88-2.52,2.46-3.45,3.3A2.08,2.08,0,0,1,27.7,20.58ZM31,13.41a1.92,1.92,0,0,0-1.37.58c-.85.89-2.7,2.62-3.25,3.14a1.87,1.87,0,0,0-.14,2.6h0a1.88,1.88,0,0,0,2.7.17c.93-.84,2.61-2.42,3.44-3.29a1.88,1.88,0,0,0-.09-2.69A1.88,1.88,0,0,0,31,13.41Z"/><path class="cls-6" d="M26,17.85c-4.45,3.9-8.61,6-16,7.6a1.37,1.37,0,0,0-1,1.51l0,.21a1.13,1.13,0,0,0,1.39.93c6.79-1.69,10.87-1.64,17.79-7.81A1.63,1.63,0,0,0,28.25,18h0A1.62,1.62,0,0,0,26,17.85Z"/><path class="cls-7" d="M10,28.23A1.27,1.27,0,0,1,9.36,28a1.23,1.23,0,0,1-.54-.84l0-.21a1.45,1.45,0,0,1,1.1-1.61c7.26-1.61,11.45-3.59,16-7.58l.06.07-.06-.07a1.72,1.72,0,0,1,1.25-.42,1.72,1.72,0,0,1,1,3c-5.76,5.14-9.65,6-14.58,7.08-1,.23-2.09.46-3.24.75A1.54,1.54,0,0,1,10,28.23ZM27,17.55a1.53,1.53,0,0,0-1,.37c-4.58,4-8.78,6-16.08,7.62A1.26,1.26,0,0,0,9,26.94l0,.21a1,1,0,0,0,.45.71,1.06,1.06,0,0,0,.83.15c1.15-.29,2.22-.53,3.25-.75,5.09-1.13,8.77-1.94,14.49-7a1.53,1.53,0,0,0-.91-2.67Z"/><path class="cls-8" d="M28.25,18h0a1.62,1.62,0,0,0-2.3-.17l-.17.15h0a1.61,1.61,0,0,1,2,.52A35.57,35.57,0,0,1,8.88,27l0,.21a1.13,1.13,0,0,0,1.39.93c6.79-1.69,10.87-1.64,17.79-7.81A1.63,1.63,0,0,0,28.25,18Z"/><path class="cls-9" d="M55.71,38.48c-3.35,0-6.06,3.21-6.06,7.17s2.71,7.17,6.06,7.17,6-3.21,6-7.17S59.05,38.48,55.71,38.48Zm0,11c-1.78,0-3.22-1.71-3.22-3.82s1.44-3.82,3.22-3.82,3.22,1.71,3.22,3.82S57.48,49.47,55.71,49.47Z"/><path class="cls-10" d="M55.71,52.92c-3.39,0-6.15-3.26-6.15-7.27s2.76-7.26,6.15-7.26,6.14,3.26,6.14,7.26S59.09,52.92,55.71,52.92Zm0-14.34c-3.29,0-6,3.17-6,7.07s2.67,7.08,6,7.08,5.95-3.18,5.95-7.08S59,38.58,55.71,38.58Zm0,11a3.65,3.65,0,0,1-3.32-3.91,3.65,3.65,0,0,1,3.32-3.91c1.82,0,3.31,1.75,3.31,3.91S57.53,49.56,55.71,49.56Zm0-7.63a3.47,3.47,0,0,0-3.13,3.72,3.47,3.47,0,0,0,3.13,3.72c1.72,0,3.12-1.67,3.12-3.72S57.43,41.93,55.71,41.93Z"/><path class="cls-3" d="M59.46,54.63a11,11,0,0,0,4.26-9,11,11,0,0,0-4.26-9v-.83l2.69,0A10.57,10.57,0,0,0,57,34.45a13.3,13.3,0,0,0-5.16,1.32A10.67,10.67,0,0,0,46,45.65a10.91,10.91,0,0,0,5.53,9.74A9.87,9.87,0,0,0,57,56.85a8.55,8.55,0,0,0,5.2-1.46H59.46Zm-7.57-9c0-3.81,2.17-7,5.13-8,3,1,5.13,4.18,5.13,8s-2.17,7-5.13,8C54.06,52.68,51.89,49.46,51.89,45.65Z"/><path class="cls-11" d="M57,34.45c-4.94,0-9.58,4.45-9.58,11.2s4.64,11.2,9.58,11.2c6.35,0,8.95-5,8.95-11.2S62.86,34.45,57,34.45Zm0,19.19c-3-1-5.13-4.18-5.13-8s2.17-7,5.13-8c3,1,5.13,4.18,5.13,8S60,52.68,57,53.64Z"/><path class="cls-10" d="M57,57a9.65,9.65,0,0,1-5.27-1.34l-.26-.13a10.16,10.16,0,0,1-4-3.89,11.94,11.94,0,0,1,.09-12.06,9.57,9.57,0,0,1,4.24-3.85l0,0A12.85,12.85,0,0,1,57,34.35,10.8,10.8,0,0,1,62.2,35.8a.08.08,0,0,1,0,.11.1.1,0,0,1-.09.07h0l-2.59,0v.68a11.09,11.09,0,0,1,4.25,9,11.07,11.07,0,0,1-4.25,9v.63h2.65a.09.09,0,0,1,.09.06.11.11,0,0,1,0,.11A8.58,8.58,0,0,1,57,57Zm0-22.41a12.79,12.79,0,0,0-5.08,1.29l0,0a10.52,10.52,0,0,0-5.81,9.79,10.9,10.9,0,0,0,5.49,9.66l.26.14A9.55,9.55,0,0,0,57,56.76a9.08,9.08,0,0,0,4.9-1.27H59.46a.1.1,0,0,1-.09-.1v-.76a.09.09,0,0,1,0-.08,10.88,10.88,0,0,0,4.21-8.9,10.88,10.88,0,0,0-4.21-8.9.07.07,0,0,1,0-.07v-.83a.11.11,0,0,1,0-.07l.07,0,2.32,0A10.65,10.65,0,0,0,57,34.54Zm0,19.2h0c-3.06-1-5.19-4.32-5.19-8.08s2.13-7.08,5.19-8.08h.06c3.06,1,5.2,4.32,5.2,8.08s-2.14,7.08-5.2,8.08Zm0-16c-3,1-5,4.23-5,7.89s2.07,6.91,5,7.89c3-1,5-4.22,5-7.89S60,38.75,57,37.76Z"/><path class="cls-4" d="M58.89,35.15c-4.9,0-8.87,4.7-8.87,10.5s4,10.51,8.87,10.51,8.86-4.71,8.86-10.51S63.78,35.15,58.89,35.15ZM57,53.64c-3-1-5.13-4.18-5.13-8s2.17-7,5.13-8c3,1,5.13,4.18,5.13,8S60,52.68,57,53.64Z"/><path class="cls-10" d="M58.89,56.25c-4.94,0-9-4.75-9-10.6s4-10.6,9-10.6,9,4.76,9,10.6S63.83,56.25,58.89,56.25Zm0-21c-4.84,0-8.77,4.67-8.77,10.41s3.93,10.41,8.77,10.41,8.77-4.67,8.77-10.41S63.72,35.24,58.89,35.24ZM57,53.74h0c-3.06-1-5.19-4.32-5.19-8.08s2.13-7.08,5.19-8.08h.06c3.06,1,5.2,4.32,5.2,8.08s-2.14,7.08-5.2,8.08Zm0-16c-3,1-5,4.23-5,7.89s2.07,6.91,5,7.89c3-1,5-4.22,5-7.89S60,38.75,57,37.76Z"/><path class="cls-12" d="M58.89,36.72c-4.17,0-7.54,4-7.54,8.93s3.37,8.94,7.54,8.94,7.54-4,7.54-8.94S63.05,36.72,58.89,36.72ZM57,53.64c-3-1-5.13-4.18-5.13-8s2.17-7,5.13-8c3,1,5.13,4.18,5.13,8S60,52.68,57,53.64Z"/><path class="cls-13" d="M58.89,37.36a5.86,5.86,0,0,0-1.87.3c3,1,5.13,4.18,5.13,8s-2.17,7-5.13,8a5.86,5.86,0,0,0,1.87.3c3.86,0,7-3.71,7-8.29S62.75,37.36,58.89,37.36Z"/><path class="cls-10" d="M58.89,54a5.91,5.91,0,0,1-1.9-.31.09.09,0,0,1-.06-.09.1.1,0,0,1,.06-.09c3-1,5.07-4.22,5.07-7.9S60,38.72,57,37.75a.1.1,0,0,1,0-.18,6.18,6.18,0,0,1,1.9-.3C62.8,37.27,66,41,66,45.65S62.8,54,58.89,54Zm-1.56-.4a5.87,5.87,0,0,0,1.56.21c3.8,0,6.9-3.68,6.9-8.2s-3.1-8.2-6.9-8.2a5.88,5.88,0,0,0-1.56.22c2.91,1.1,4.92,4.34,4.92,8S60.24,52.53,57.33,53.64Z"/><path class="cls-10" d="M58.89,54.68c-4.21,0-7.64-4-7.64-9s3.43-9,7.64-9,7.63,4.05,7.63,9S63.1,54.68,58.89,54.68Zm0-17.87c-4.11,0-7.45,4-7.45,8.84s3.34,8.84,7.45,8.84,7.44-4,7.44-8.84S63,36.81,58.89,36.81ZM57,53.74h0c-3.06-1-5.19-4.32-5.19-8.08s2.13-7.08,5.19-8.08h.06c3.06,1,5.2,4.32,5.2,8.08s-2.14,7.08-5.2,8.08Zm0-16c-3,1-5,4.23-5,7.89s2.07,6.91,5,7.89c3-1,5-4.22,5-7.89S60,38.75,57,37.76Z"/><ellipse class="cls-4" cx="55.71" cy="45.69" rx="2.69" ry="3.41"/><path class="cls-10" d="M55.71,49.2c-1.54,0-2.79-1.57-2.79-3.51s1.25-3.5,2.79-3.5,2.78,1.57,2.78,3.5S57.24,49.2,55.71,49.2Zm0-6.82c-1.44,0-2.6,1.49-2.6,3.31S54.27,49,55.71,49s2.59-1.49,2.59-3.32S57.14,42.38,55.71,42.38Z"/><path class="cls-11" d="M60.11,45.4a1.86,1.86,0,0,1-.66-2.31L61,39.26a6.86,6.86,0,0,0-1.22-.88l-2.1,3a1.14,1.14,0,0,1-2,0l-1.42-2a7.92,7.92,0,0,0-1.2,1.58L54,43.09a1.87,1.87,0,0,1-.65,2.31l-1.46.77a9,9,0,0,0,.36,2.17L54.15,48c.73-.14,1.4.51,1.49,1.43l.39,3.8a6.57,6.57,0,0,0,1.13.47l.23,0,.44-4.25c.09-.92.77-1.57,1.49-1.43l3.88.72a10,10,0,0,0,.38-1.48Z"/><path class="cls-10" d="M57.16,53.78h0A7,7,0,0,1,56,53.31a.1.1,0,0,1-.05-.08l-.39-3.8a1.61,1.61,0,0,0-.6-1.15,1,1,0,0,0-.78-.2l-1.89.35a.09.09,0,0,1-.1-.07,9.38,9.38,0,0,1-.37-2.18.09.09,0,0,1,0-.09l1.46-.78a1.78,1.78,0,0,0,.62-2.19L53,41a.1.1,0,0,1,0-.09,8,8,0,0,1,1.21-1.6.11.11,0,0,1,.08,0l.07,0,1.42,2a1.11,1.11,0,0,0,.91.53,1.14,1.14,0,0,0,.91-.53l2.09-3a.09.09,0,0,1,.13,0,6.51,6.51,0,0,1,1.23.89.11.11,0,0,1,0,.11l-1.59,3.82a1.78,1.78,0,0,0,.61,2.19h0l3.47,1.84a.09.09,0,0,1,.05.1,9.3,9.3,0,0,1-.38,1.49.09.09,0,0,1-.11.06l-3.87-.72a1,1,0,0,0-.79.2,1.61,1.61,0,0,0-.6,1.15l-.43,4.25a.11.11,0,0,1-.09.09h-.24Zm-1-.62a6.27,6.27,0,0,0,1.05.43h.14l.42-4.18a1.83,1.83,0,0,1,.68-1.29,1.22,1.22,0,0,1,.93-.23l3.8.71a9.44,9.44,0,0,0,.33-1.32l-3.41-1.8a2,2,0,0,1-.7-2.43l1.57-3.76a6.22,6.22,0,0,0-1.08-.79l-2.05,3a1.3,1.3,0,0,1-1.06.61,1.31,1.31,0,0,1-1.07-.61l-1.35-1.94A7.42,7.42,0,0,0,53.24,41l.87,2.1a2,2,0,0,1-.7,2.43L52,46.23a9.6,9.6,0,0,0,.33,2l1.8-.34a1.24,1.24,0,0,1,.94.23,1.85,1.85,0,0,1,.67,1.29Z"/><path class="cls-4" d="M60.65,45.46A1.76,1.76,0,0,1,60,43.28l1.48-3.56a8,8,0,0,0-1.07-.95l-2,2.92a1.07,1.07,0,0,1-1.85,0L54.69,39a7.34,7.34,0,0,0-1.06,1.16l1.29,3.1a1.76,1.76,0,0,1-.61,2.18L52,46.7a9.59,9.59,0,0,0,.34,1.71L55,47.89c.69-.13,1.32.48,1.41,1.35l.45,4.36.26.09a6.91,6.91,0,0,0,.9-.11l.44-4.34c.09-.87.73-1.48,1.41-1.35l3.35.63a9.11,9.11,0,0,0,.35-1.5Z"/><path class="cls-10" d="M57.16,53.78h0l-.26-.09a.1.1,0,0,1-.07-.08l-.44-4.36a1.53,1.53,0,0,0-.57-1.08.93.93,0,0,0-.73-.19l-2.76.52a.09.09,0,0,1-.1-.07,9.71,9.71,0,0,1-.35-1.72.12.12,0,0,1,0-.09l2.36-1.25a1.67,1.67,0,0,0,.58-2l-1.29-3.11a.08.08,0,0,1,0-.09A7.48,7.48,0,0,1,54.63,39a.09.09,0,0,1,.07,0l.07,0,1.86,2.68a1,1,0,0,0,.85.49,1.06,1.06,0,0,0,.85-.49l2-2.92a.07.07,0,0,1,.06,0,.09.09,0,0,1,.07,0,7.65,7.65,0,0,1,1.09,1,.09.09,0,0,1,0,.1l-1.47,3.56a1.67,1.67,0,0,0,.57,2l3,1.57a.09.09,0,0,1,.05.1,8.7,8.7,0,0,1-.35,1.51.09.09,0,0,1-.1.06L59.89,48a.94.94,0,0,0-.73.19,1.49,1.49,0,0,0-.56,1.08l-.45,4.34a.08.08,0,0,1-.07.08,5.64,5.64,0,0,1-.92.11ZM57,53.53l.19.06a5.29,5.29,0,0,0,.8-.09l.44-4.27A1.69,1.69,0,0,1,59,48a1.12,1.12,0,0,1,.89-.22l3.27.61a9.88,9.88,0,0,0,.31-1.33L60.6,45.54h0a1.83,1.83,0,0,1-.66-2.29l1.46-3.51a8.2,8.2,0,0,0-.94-.84l-2,2.85a1.17,1.17,0,0,1-2,0l-1.8-2.59a8.39,8.39,0,0,0-.93,1L55,43.25a1.83,1.83,0,0,1-.66,2.29l-2.3,1.22a10,10,0,0,0,.3,1.54L55,47.8a1.1,1.1,0,0,1,.88.22,1.69,1.69,0,0,1,.63,1.21Z"/><ellipse class="cls-14" cx="59.25" cy="45.69" rx="2.69" ry="3.41"/><path class="cls-10" d="M59.25,49.2c-1.54,0-2.79-1.57-2.79-3.51s1.25-3.5,2.79-3.5S62,43.76,62,45.69,60.79,49.2,59.25,49.2Zm0-6.82c-1.44,0-2.6,1.49-2.6,3.31S57.81,49,59.25,49s2.6-1.49,2.6-3.32S60.68,42.38,59.25,42.38Z"/><path class="cls-15" d="M59.18,38.48c-3.34,0-6,3.21-6,7.17s2.71,7.17,6,7.17,6.05-3.21,6.05-7.17S62.52,38.48,59.18,38.48Zm0,11c-1.78,0-3.22-1.71-3.22-3.82s1.44-3.82,3.22-3.82,3.22,1.71,3.22,3.82S61,49.47,59.18,49.47Z"/><path class="cls-16" d="M61.9,39.24l-1,3.18a3.06,3.06,0,0,0-.73-.4l1.35-3ZM56.26,44a3.88,3.88,0,0,1,1-1.47L55.45,40a7,7,0,0,0-1.32,1.69Zm5.17,4.35a3.43,3.43,0,0,1-.68.59l2.13,2.35c.13-.12.25-.24.37-.37Zm-4.87-.52a4,4,0,0,1-.39-.87l-2.71,1a4.75,4.75,0,0,0,.18.57Zm2.13,1.55a3,3,0,0,1-1.51-.78l-1.34,3a5.57,5.57,0,0,0,1.85,1ZM65,43.86l-2.71,1a4.84,4.84,0,0,1,0,1.75l2.92-.66v-.26A8.05,8.05,0,0,0,65,43.86Z"/><path class="cls-10" d="M59.18,52.92c-3.39,0-6.14-3.26-6.14-7.27s2.75-7.26,6.14-7.26,6.15,3.26,6.15,7.26S62.57,52.92,59.18,52.92Zm0-14.34c-3.28,0-6,3.17-6,7.07s2.67,7.08,6,7.08,6-3.18,6-7.08S62.47,38.58,59.18,38.58Zm0,11c-1.82,0-3.31-1.75-3.31-3.91s1.49-3.91,3.31-3.91a3.65,3.65,0,0,1,3.32,3.91A3.65,3.65,0,0,1,59.18,49.56Zm0-7.63c-1.72,0-3.12,1.67-3.12,3.72s1.4,3.72,3.12,3.72a3.47,3.47,0,0,0,3.13-3.72A3.47,3.47,0,0,0,59.18,41.93Z"/><path class="cls-17" d="M46,39.2a10.38,10.38,0,0,1,8.87-5.46h2.36a.52.52,0,0,1,.52.52h0a.52.52,0,0,1-.41.51c-1.42.3-6,1.52-7.67,5.31C47.74,44.57,45,41.11,46,39.2Z"/><path class="cls-2" d="M57.61,33.88h0c-3,.64-5.86,1.44-7.56,3.47h0a3.53,3.53,0,0,1-3.23.61,4.59,4.59,0,0,0-1,1.84c-.14.73,1.82.82,2.72.82-.12.58-.17,1-.28,1.42a4.34,4.34,0,0,0,1.43-2c1.64-3.79,6.25-5,7.67-5.31a.52.52,0,0,0,.41-.51h0A.49.49,0,0,0,57.61,33.88Z"/><path class="cls-2" d="M47.49,42.38a1.65,1.65,0,0,1-1.35-.84A2.38,2.38,0,0,1,46,39.16h0a10.5,10.5,0,0,1,8.95-5.52h2.36a.62.62,0,0,1,.62.62.63.63,0,0,1-.49.61c-1.38.28-6,1.5-7.61,5.25-.77,1.77-1.61,2.2-2.17,2.25ZM46,39.2l.08,0a2.21,2.21,0,0,0,.19,2.19,1.43,1.43,0,0,0,1.29.74c.52,0,1.28-.45,2-2.14C51.28,36.21,56,35,57.35,34.68a.43.43,0,0,0-.09-.85H54.9a10.32,10.32,0,0,0-8.79,5.42Z"/><path class="cls-3" d="M16,28l-.05.14L10.12,45.49,8,44.78l5.84-17.31,0-.14a.68.68,0,0,1,.55-.18,2.27,2.27,0,0,1,.65.11,2,2,0,0,1,.58.3A.66.66,0,0,1,16,28Z"/><path class="cls-4" d="M10.12,45.58h0L8,44.87a.1.1,0,0,1-.06,0,.09.09,0,0,1,0-.07l5.84-17.31,0-.14,0,0a.76.76,0,0,1,.62-.22,2.12,2.12,0,0,1,.68.12,2.49,2.49,0,0,1,.61.31.71.71,0,0,1,.36.55v0L10.21,45.52A.1.1,0,0,1,10.12,45.58Zm-2-.86,1.92.65L15.91,28c0-.11-.11-.25-.28-.38a2.09,2.09,0,0,0-.56-.28,2,2,0,0,0-.62-.11.65.65,0,0,0-.46.13l-.05.13ZM16,28Z"/><path class="cls-4" d="M7.38,27.51h3.49a.7.7,0,0,0,.71-.7h0a.71.71,0,0,0-.71-.71H7.38a.71.71,0,0,0-.71.71h0A.7.7,0,0,0,7.38,27.51Z"/><path class="cls-11" d="M6.67,26.81v0h4.9v0a.72.72,0,0,0-.27-.56H6.94A.69.69,0,0,0,6.67,26.81Z"/><path class="cls-10" d="M10.87,27.61H7.38a.8.8,0,1,1,0-1.6h3.49a.8.8,0,0,1,0,1.6ZM7.38,26.2a.61.61,0,1,0,0,1.22h3.49a.61.61,0,1,0,0-1.22Z"/><path class="cls-6" d="M11.07,25.14H9c-.48,0-1.58.4-1.58,1.39a1.64,1.64,0,0,0,1.86,1.71H11a.29.29,0,0,0-.11-.56h0c-1,0-1.07-1.7,0-1.7h.34l.1-.3Z"/><path class="cls-8" d="M9.32,28.24H11a.29.29,0,0,0-.11-.56h0a.79.79,0,0,1-.77-.75H7.49A1.64,1.64,0,0,0,9.32,28.24Z"/><path class="cls-7" d="M10.93,28.34H9.32a1.74,1.74,0,0,1-2-1.81C7.36,25.49,8.48,25,9,25h2.09a.1.1,0,0,1,.1.1.09.09,0,0,1-.1.09H9c-.43,0-1.49.38-1.49,1.3a1.55,1.55,0,0,0,1.77,1.62H11a.18.18,0,0,0,.16-.2.22.22,0,0,0-.24-.18h-.05a.9.9,0,0,1-.87-1,.93.93,0,0,1,.21-.62.82.82,0,0,1,.66-.29h.26a.09.09,0,0,1,.1.09.1.1,0,0,1-.1.1h-.26a.61.61,0,0,0-.51.22.78.78,0,0,0-.17.5.71.71,0,0,0,.68.78h0a.4.4,0,0,1,.43.35.37.37,0,0,1-.3.41Z"/><path class="cls-17" d="M66.58,23.12v.18A2.71,2.71,0,0,1,65,25.8l-6.15,2.88.44-3.1Z"/><path class="cls-2" d="M58.87,28.77h0a.12.12,0,0,1,0-.09l.44-3.11a.09.09,0,0,1,.06-.07L66.55,23a.08.08,0,0,1,.08,0,.09.09,0,0,1,0,.08v.18a2.81,2.81,0,0,1-1.61,2.59l-6.15,2.87Zm.53-3.12L59,28.52l6-2.81a2.6,2.6,0,0,0,1.5-2.41v-.05Z"/><path class="cls-13" d="M59.75,43.47c-3.56-1.59-13-5.58-18-4.12-1.54.45-1.63,5-.77,6.38,1.91,3,13.22,2.67,18,2.11,1.36-.16,2.68-.69,2.89-1.8S60.71,43.9,59.75,43.47Z"/><path class="cls-4" d="M52.09,48.31c-4.83,0-10-.58-11.21-2.53-.67-1.05-.76-3.81-.17-5.36a1.68,1.68,0,0,1,1-1.16C46.16,38,54,40.79,59.78,43.38h0c.86.38,2.4,1.43,2.16,2.68-.19,1-1.27,1.68-3,1.87A61.8,61.8,0,0,1,52.09,48.31Zm-7.8-9.18a9.17,9.17,0,0,0-2.53.31,1.54,1.54,0,0,0-.87,1.05c-.56,1.48-.48,4.19.15,5.18,1.85,2.91,13.07,2.64,17.9,2.08.77-.09,2.57-.44,2.82-1.73.21-1.13-1.25-2.11-2-2.47h0C53.17,40.63,47.92,39.13,44.29,39.13Z"/><path class="cls-9" d="M60.45,43.88C57.57,42.53,45.82,39.16,42,40.31c-1.16.36-1.23,3.95-.59,5,1.43,2.35,14.91,2.5,18.36,2.27.84-.05,2.58-.69,2.74-1.56S61.24,44.25,60.45,43.88Z"/><path class="cls-4" d="M56.64,47.78c-2,0-4.4-.07-6.78-.25-3.43-.26-7.7-.85-8.49-2.15a6.44,6.44,0,0,1-.1-4.29,1.3,1.3,0,0,1,.74-.87c3.85-1.17,15.61,2.22,18.48,3.57h0c.24.12,2.36,1.14,2.16,2.26-.17.92-1.93,1.59-2.84,1.65C59.11,47.74,58,47.78,56.64,47.78ZM44.09,40.17a6.87,6.87,0,0,0-2,.24c-.25.07-.46.33-.62.75a6.26,6.26,0,0,0,.09,4.12c1.38,2.29,14.93,2.45,18.26,2.23.83-.06,2.51-.68,2.66-1.49S61.24,44.35,60.41,44h0a55,55,0,0,0-8.85-2.71A35.89,35.89,0,0,0,44.09,40.17Z"/><path class="cls-3" d="M53.66,43c-2-.94-10.09-3.25-12.69-2.46-.8.24-.85,2.72-.4,3.45,1,1.62,10.26,1.73,12.64,1.57.58,0,1.5-.48,1.61-1.08S54.2,43.26,53.66,43Z"/><path class="cls-4" d="M51.14,45.71c-3.54,0-9.83-.29-10.65-1.66a4.4,4.4,0,0,1-.08-3,.92.92,0,0,1,.53-.62C43.6,39.65,51.71,42,53.7,42.92c.53.25,1.34.91,1.22,1.59s-1.07,1.11-1.7,1.16C52.82,45.69,52.07,45.71,51.14,45.71Zm-8.77-5.23a4.81,4.81,0,0,0-1.37.16c-.21.06-.34.31-.41.5A4.31,4.31,0,0,0,40.65,44c.9,1.49,9.68,1.71,12.55,1.52.55,0,1.43-.46,1.53-1s-.59-1.13-1.12-1.38h0C52,42.32,45.72,40.48,42.37,40.48Z"/><polygon class="cls-2" points="17.57 50.28 23.62 50.28 22.95 44.55 18.29 37.29 14.47 33.74 10.32 33.74 13.22 37.04 17.04 44.55 17.57 50.28"/><path class="cls-2" d="M23.62,50.37H17.57a.1.1,0,0,1-.1-.08l-.53-5.72-3.8-7.47-2.89-3.3a.1.1,0,0,1,0-.1.11.11,0,0,1,.09-.05h4.15a.07.07,0,0,1,.06,0l3.82,3.55h0L23,44.5s0,0,0,0l.67,5.73a.07.07,0,0,1,0,.07A.09.09,0,0,1,23.62,50.37Zm-6-.19h5.86l-.65-5.6-4.65-7.23-3.78-3.52h-3.9L13.29,37s0,0,0,0l3.82,7.5a.06.06,0,0,1,0,0Z"/><path class="cls-18" d="M66.62,22.32h0a1.51,1.51,0,0,0-1.33-1.55c-1.47-.11-3.94-.26-6.29-.26-3.66,0-5.87.5-7.24,2h0a1.26,1.26,0,0,0-1.06.63l-3.14,4-5.82,1.42.37,3.73h7.82s4.72-4.77,4.87-5,1-1.79,1-1.79l10.82-3.2Z"/><path class="cls-19" d="M53.5,21.31l2.63.42s6.09-.28,7.52-.53a5,5,0,0,0,1.27-.45c-1.5-.11-3.76-.24-5.92-.24A14,14,0,0,0,53.5,21.31Z"/><path class="cls-17" d="M57,23.48l-1.24,2,10.82-3.2a1.65,1.65,0,0,0-.39-1.07C65.86,22,57,23.48,57,23.48Z"/><path class="cls-2" d="M49.93,32.39H42.11a.08.08,0,0,1-.09-.08l-.38-3.73a.1.1,0,0,1,.08-.1l5.79-1.42,3.11-3.93a1.36,1.36,0,0,1,1.1-.66c1.33-1.48,3.37-2,7.28-2,2.29,0,4.69.14,6.3.26a1.6,1.6,0,0,1,1.41,1.64.1.1,0,0,1-.07.09L55.86,25.6c-.13.24-.85,1.55-1,1.76s-4.4,4.52-4.88,5ZM42.2,32.2h7.69c1.89-1.9,4.72-4.78,4.83-4.94s1-1.77,1-1.79a.09.09,0,0,1,.06,0l10.75-3.18a1.4,1.4,0,0,0-1.24-1.38c-1.6-.12-4-.26-6.28-.26-3.87,0-5.88.56-7.17,2a.1.1,0,0,1-.07,0,1.18,1.18,0,0,0-1,.59l-3.13,4-.06,0-5.74,1.4Zm24.42-9.88Z"/><path class="cls-18" d="M56.59,22.56h-.05s-.35-1.31-1.28-1.31H53.64a5.09,5.09,0,0,0-1.88,1.31,1.62,1.62,0,0,0-1.06.63l-3.14,4H54.8l1-1.63,1.24-2A.59.59,0,0,0,56.59,22.56Z"/><path class="cls-2" d="M54.8,27.24H47.56a.08.08,0,0,1-.08,0,.08.08,0,0,1,0-.1l3.13-4a1.78,1.78,0,0,1,1.1-.66,5,5,0,0,1,1.89-1.3h1.65c.87,0,1.26,1,1.35,1.31a.63.63,0,0,1,.53.33.73.73,0,0,1,0,.73L54.88,27.2A.12.12,0,0,1,54.8,27.24Zm-7-.19h7L57,23.43a.52.52,0,0,0,0-.54.42.42,0,0,0-.38-.23h-.05a.1.1,0,0,1-.09-.07s-.34-1.24-1.19-1.24h-1.6a4.93,4.93,0,0,0-1.83,1.27.1.1,0,0,1-.07,0,1.54,1.54,0,0,0-1,.59Z"/><path class="cls-4" d="M52.19,23.93a.71.71,0,0,1-.66-.88,1,1,0,0,1,.23-.49,5.93,5.93,0,0,1,1-.83h3c.25,0,.24.44.4.83s-.23.87-.49,1.14a.69.69,0,0,1-.51.23Z"/><path class="cls-11" d="M55.08,22.07a.67.67,0,0,0,.45-.18l.16-.16h-3a5.12,5.12,0,0,0-.45.34Z"/><path class="cls-10" d="M55.09,24h-2.9a.72.72,0,0,1-.58-.28.87.87,0,0,1-.18-.71,1.26,1.26,0,0,1,.26-.53,6.09,6.09,0,0,1,1-.85h3c.25,0,.31.25.38.53a2.47,2.47,0,0,0,.11.36c.16.42-.19.91-.51,1.24A.83.83,0,0,1,55.09,24Zm-2.33-2.2a6.1,6.1,0,0,0-.93.81,1,1,0,0,0-.21.44.67.67,0,0,0,.13.55.58.58,0,0,0,.44.21h2.9a.63.63,0,0,0,.44-.19c.23-.24.6-.69.47-1a3.43,3.43,0,0,1-.12-.39c-.05-.24-.1-.39-.19-.39Z"/><path class="cls-4" d="M48.43,27.15l2.33-2.73a1.34,1.34,0,0,1,1-.49h3.14a.45.45,0,0,1,.37.66l-1.19,2.56Z"/><path class="cls-11" d="M51,24.2a1.19,1.19,0,0,0-.23.22l-2.33,2.73H53l1.33-2.44A.35.35,0,0,0,54,24.2Z"/><path class="cls-10" d="M54.11,27.24H48.43a.09.09,0,0,1-.08,0,.09.09,0,0,1,0-.1l2.33-2.73a1.42,1.42,0,0,1,1.1-.53h3.14a.5.5,0,0,1,.42.24.56.56,0,0,1,0,.56L54.2,27.19A.11.11,0,0,1,54.11,27.24Zm-5.47-.19h5.41l1.16-2.5a.4.4,0,0,0,0-.38.32.32,0,0,0-.26-.15H51.79a1.28,1.28,0,0,0-1,.46Z"/><path class="cls-18" d="M39.71,24.55H31.59a1.81,1.81,0,0,0-.51.08l-8.2,2.65a1.67,1.67,0,0,0-1.07,1l-.45,1.31,13,1.7h5.39Z"/><path class="cls-19" d="M31.59,24.55a1.81,1.81,0,0,0-.51.08l-8.2,2.65a1.7,1.7,0,0,0-.78.53h8.69l8.92-1.55V24.55Z"/><path class="cls-2" d="M39.71,31.43H34.3L21.35,29.74a.12.12,0,0,1-.07,0,.11.11,0,0,1,0-.08l.45-1.31a1.78,1.78,0,0,1,1.13-1.11l8.2-2.65a1.89,1.89,0,0,1,.53-.08h8.13a.1.1,0,0,1,.1.09v6.79A.1.1,0,0,1,39.71,31.43Zm-5.39-.19h5.3V24.65h-8a2,2,0,0,0-.48.07l-8.2,2.65a1.59,1.59,0,0,0-1,1l-.41,1.2Z"/><path class="cls-17" d="M29,28.62H22.21L19.43,29a11,11,0,0,0,1.22,1.8Z"/><path class="cls-2" d="M20.65,30.93c-.09,0-.32-.17-1.3-1.85a.1.1,0,0,1,0-.09s0,0,.07,0l2.78-.41H29a.1.1,0,0,1,.1.08.09.09,0,0,1-.07.1l-8.31,2.21Zm0-.19Zm-1-1.64a11.46,11.46,0,0,0,1.08,1.63l7.58-2h-6Z"/><path class="cls-9" d="M9.81,38.48c-3.34,0-6.05,3.21-6.05,7.17s2.71,7.17,6.05,7.17,6-3.21,6-7.17S13.15,38.48,9.81,38.48Zm0,11c-1.78,0-3.22-1.71-3.22-3.82S8,41.83,9.81,41.83,13,43.54,13,45.65,11.59,49.47,9.81,49.47Z"/><path class="cls-10" d="M9.81,52.92c-3.39,0-6.14-3.26-6.14-7.27s2.75-7.26,6.14-7.26S16,41.65,16,45.65,13.2,52.92,9.81,52.92Zm0-14.34c-3.28,0-6,3.17-6,7.07s2.68,7.08,6,7.08,6-3.18,6-7.08S13.09,38.58,9.81,38.58Zm0,11C8,49.56,6.5,47.81,6.5,45.65S8,41.74,9.81,41.74a3.65,3.65,0,0,1,3.32,3.91A3.65,3.65,0,0,1,9.81,49.56Zm0-7.63a3.47,3.47,0,0,0-3.13,3.72,3.47,3.47,0,0,0,3.13,3.72,3.47,3.47,0,0,0,3.13-3.72A3.47,3.47,0,0,0,9.81,41.93Z"/><path class="cls-3" d="M13.57,54.63a11,11,0,0,0,4.25-9,11,11,0,0,0-4.25-9v-.83l2.69,0a10.57,10.57,0,0,0-5.14-1.43A13.31,13.31,0,0,0,6,35.77,10.67,10.67,0,0,0,.09,45.65a10.9,10.9,0,0,0,5.54,9.74,9.82,9.82,0,0,0,5.49,1.46,8.58,8.58,0,0,0,5.2-1.46H13.57ZM6,45.65c0-3.81,2.17-7,5.13-8,3,1,5.13,4.18,5.13,8s-2.17,7-5.13,8C8.17,52.68,6,49.46,6,45.65Z"/><path class="cls-11" d="M11.12,34.45c-4.94,0-9.59,4.45-9.59,11.2s4.65,11.2,9.59,11.2c6.34,0,8.94-5,8.94-11.2S17,34.45,11.12,34.45Zm0,19.19c-3-1-5.13-4.18-5.13-8s2.17-7,5.13-8c3,1,5.13,4.18,5.13,8S14.09,52.68,11.13,53.64Z"/><path class="cls-10" d="M11.12,57a9.66,9.66,0,0,1-5.28-1.34l-.26-.13a10.22,10.22,0,0,1-4-3.89,12,12,0,0,1,.09-12.06,9.62,9.62,0,0,1,4.24-3.85l0,0a12.81,12.81,0,0,1,5.16-1.31,10.8,10.8,0,0,1,5.19,1.45.11.11,0,0,1,0,.11.1.1,0,0,1-.09.07h0l-2.6,0v.68a11.07,11.07,0,0,1,4.26,9,11,11,0,0,1-4.26,9v.63h2.66a.1.1,0,0,1,.09.06.11.11,0,0,1,0,.11A8.61,8.61,0,0,1,11.12,57Zm0-22.41A12.79,12.79,0,0,0,6,35.83l0,0a10.53,10.53,0,0,0-5.8,9.79,10.89,10.89,0,0,0,5.48,9.66l.26.14a9.6,9.6,0,0,0,5.19,1.31A9.08,9.08,0,0,0,16,55.49H13.57a.11.11,0,0,1-.1-.1v-.76a.12.12,0,0,1,0-.08,10.89,10.89,0,0,0,4.22-8.9,10.89,10.89,0,0,0-4.22-8.9.08.08,0,0,1,0-.07v-.83a.11.11,0,0,1,0-.07l.07,0,2.32,0A10.55,10.55,0,0,0,11.12,34.54Zm0,19.2h0c-3.06-1-5.2-4.32-5.2-8.08S8,38.57,11.1,37.57h.06c3.06,1,5.19,4.32,5.19,8.08s-2.13,7.08-5.19,8.08Zm0-16c-3,1-5,4.23-5,7.89s2.07,6.91,5,7.89c3-1,5-4.22,5-7.89S14.09,38.75,11.13,37.76Z"/><path class="cls-4" d="M13,35.15c-4.89,0-8.86,4.7-8.86,10.5S8.1,56.16,13,56.16s8.87-4.71,8.87-10.51S17.89,35.15,13,35.15ZM11.13,53.64c-3-1-5.13-4.18-5.13-8s2.17-7,5.13-8c3,1,5.13,4.18,5.13,8S14.09,52.68,11.13,53.64Z"/><path class="cls-10" d="M13,56.25c-4.94,0-9-4.75-9-10.6s4-10.6,9-10.6,9,4.76,9,10.6S17.93,56.25,13,56.25Zm0-21c-4.83,0-8.77,4.67-8.77,10.41S8.16,56.06,13,56.06s8.77-4.67,8.77-10.41S17.83,35.24,13,35.24Zm-1.86,18.5h0c-3.06-1-5.2-4.32-5.2-8.08S8,38.57,11.1,37.57h.06c3.06,1,5.19,4.32,5.19,8.08s-2.13,7.08-5.19,8.08Zm0-16c-3,1-5,4.23-5,7.89s2.07,6.91,5,7.89c3-1,5-4.22,5-7.89S14.09,38.75,11.13,37.76Z"/><path class="cls-12" d="M13,36.72c-4.16,0-7.54,4-7.54,8.93S8.83,54.59,13,54.59s7.54-4,7.54-8.94S17.16,36.72,13,36.72ZM11.13,53.64c-3-1-5.13-4.18-5.13-8s2.17-7,5.13-8c3,1,5.13,4.18,5.13,8S14.09,52.68,11.13,53.64Z"/><path class="cls-13" d="M13,37.36a5.8,5.8,0,0,0-1.86.3c3,1,5.13,4.18,5.13,8s-2.17,7-5.13,8a5.8,5.8,0,0,0,1.86.3c3.87,0,7-3.71,7-8.29S16.86,37.36,13,37.36Z"/><path class="cls-10" d="M13,54a5.81,5.81,0,0,1-1.89-.31.1.1,0,0,1-.07-.09.11.11,0,0,1,.07-.09c3-1,5.06-4.22,5.06-7.9s-2.08-6.93-5.06-7.9a.09.09,0,0,1,0-.18,6.07,6.07,0,0,1,1.89-.3c3.91,0,7.09,3.76,7.09,8.38S16.9,54,13,54Zm-1.56-.4a5.92,5.92,0,0,0,1.56.21c3.81,0,6.9-3.68,6.9-8.2s-3.09-8.2-6.9-8.2a5.93,5.93,0,0,0-1.56.22c2.91,1.1,4.92,4.34,4.92,8S14.34,52.53,11.43,53.64Z"/><path class="cls-10" d="M13,54.68c-4.21,0-7.63-4-7.63-9s3.42-9,7.63-9,7.64,4.05,7.64,9S17.2,54.68,13,54.68Zm0-17.87c-4.1,0-7.44,4-7.44,8.84S8.89,54.49,13,54.49s7.45-4,7.45-8.84S17.1,36.81,13,36.81ZM11.13,53.74h0c-3.06-1-5.2-4.32-5.2-8.08S8,38.57,11.1,37.57h.06c3.06,1,5.19,4.32,5.19,8.08s-2.13,7.08-5.19,8.08Zm0-16c-3,1-5,4.23-5,7.89s2.07,6.91,5,7.89c3-1,5-4.22,5-7.89S14.09,38.75,11.13,37.76Z"/><ellipse class="cls-4" cx="9.81" cy="45.69" rx="2.69" ry="3.41"/><path class="cls-10" d="M9.81,49.2C8.27,49.2,7,47.63,7,45.69s1.25-3.5,2.79-3.5,2.79,1.57,2.79,3.5S11.35,49.2,9.81,49.2Zm0-6.82c-1.43,0-2.6,1.49-2.6,3.31S8.38,49,9.81,49s2.6-1.49,2.6-3.32S11.24,42.38,9.81,42.38Z"/><path class="cls-11" d="M14.21,45.4a1.88,1.88,0,0,1-.66-2.31l1.59-3.83a6.45,6.45,0,0,0-1.21-.88l-2.1,3a1.15,1.15,0,0,1-2,0l-1.41-2a7.56,7.56,0,0,0-1.2,1.58l.89,2.15a1.87,1.87,0,0,1-.66,2.31L6,46.17a9.56,9.56,0,0,0,.36,2.17L8.25,48c.73-.14,1.41.51,1.5,1.43l.39,3.8a6.57,6.57,0,0,0,1.13.47l.23,0,.43-4.25c.1-.92.77-1.57,1.5-1.43l3.87.72a8.92,8.92,0,0,0,.38-1.48Z"/><path class="cls-10" d="M11.27,53.78h0a7.12,7.12,0,0,1-1.15-.47.12.12,0,0,1,0-.08l-.39-3.8a1.61,1.61,0,0,0-.6-1.15,1,1,0,0,0-.79-.2l-1.88.35a.09.09,0,0,1-.11-.07,9.37,9.37,0,0,1-.36-2.18.07.07,0,0,1,0-.09l1.46-.78A1.78,1.78,0,0,0,8,43.12L7.15,41a.14.14,0,0,1,0-.09,8.45,8.45,0,0,1,1.22-1.6.11.11,0,0,1,.08,0l.07,0,1.41,2a1.12,1.12,0,0,0,.91.53,1.11,1.11,0,0,0,.91-.53l2.1-3a.08.08,0,0,1,.12,0,6.57,6.57,0,0,1,1.24.89.09.09,0,0,1,0,.11l-1.59,3.82a1.77,1.77,0,0,0,.62,2.19h0l3.47,1.84a.1.1,0,0,1,0,.1,8.35,8.35,0,0,1-.38,1.49.08.08,0,0,1-.1.06l-3.88-.72a1,1,0,0,0-.78.2,1.61,1.61,0,0,0-.6,1.15l-.44,4.25a.1.1,0,0,1-.08.09Zm-1-.62a5.94,5.94,0,0,0,1,.43h.13l.43-4.18a1.82,1.82,0,0,1,.67-1.29,1.23,1.23,0,0,1,.94-.23l3.79.71a9.45,9.45,0,0,0,.34-1.32l-3.41-1.8a2,2,0,0,1-.7-2.43L15,39.29A6.22,6.22,0,0,0,14,38.5l-2,3a1.31,1.31,0,0,1-1.07.61h0a1.28,1.28,0,0,1-1.06-.61L8.43,39.51A7.47,7.47,0,0,0,7.34,41l.88,2.1a2,2,0,0,1-.7,2.43l-1.41.75a9.6,9.6,0,0,0,.33,2l1.8-.34a1.22,1.22,0,0,1,.93.23,1.82,1.82,0,0,1,.67,1.29Z"/><path class="cls-4" d="M14.75,45.46a1.77,1.77,0,0,1-.62-2.18l1.48-3.56a8,8,0,0,0-1.07-.95l-2,2.92a1.08,1.08,0,0,1-1.86,0L8.79,39a7.8,7.8,0,0,0-1,1.16L9,43.28a1.76,1.76,0,0,1-.62,2.18L6.05,46.7a10.56,10.56,0,0,0,.34,1.71l2.76-.52c.68-.13,1.32.48,1.4,1.35L11,53.6l.26.09a6.51,6.51,0,0,0,.9-.11l.45-4.34c.09-.87.72-1.48,1.4-1.35l3.36.63a9.09,9.09,0,0,0,.34-1.5Z"/><path class="cls-10" d="M11.26,53.78h0L11,53.69a.09.09,0,0,1-.06-.08l-.45-4.36a1.52,1.52,0,0,0-.56-1.08A.94.94,0,0,0,9.17,48l-2.76.52a.1.1,0,0,1-.11-.07A9.7,9.7,0,0,1,6,46.71a.08.08,0,0,1,0-.09l2.36-1.25a1.67,1.67,0,0,0,.57-2L7.65,40.21a.1.1,0,0,1,0-.09A7.48,7.48,0,0,1,8.73,39a.11.11,0,0,1,.08,0s0,0,.06,0l1.86,2.68a1.06,1.06,0,0,0,.85.49,1,1,0,0,0,.85-.49l2-2.92a.1.1,0,0,1,.07,0,.09.09,0,0,1,.07,0,7.58,7.58,0,0,1,1.08,1,.1.1,0,0,1,0,.1l-1.48,3.56a1.66,1.66,0,0,0,.58,2l3,1.57a.12.12,0,0,1,0,.1,9.73,9.73,0,0,1-.35,1.51.1.1,0,0,1-.11.06L14,48a1,1,0,0,0-.74.19,1.52,1.52,0,0,0-.56,1.08l-.44,4.34s0,.08-.08.08a5.39,5.39,0,0,1-.91.11Zm-.17-.25.19.06a5.29,5.29,0,0,0,.8-.09l.43-4.27A1.74,1.74,0,0,1,13.15,48,1.1,1.1,0,0,1,14,47.8l3.27.61a8.56,8.56,0,0,0,.31-1.33l-2.9-1.54h0a1.83,1.83,0,0,1-.66-2.29l1.45-3.51a7.43,7.43,0,0,0-.94-.84l-2,2.85a1.26,1.26,0,0,1-1,.57,1.23,1.23,0,0,1-1-.57l-1.8-2.59a7,7,0,0,0-.93,1l1.27,3.06a1.84,1.84,0,0,1-.66,2.29L6.15,46.76a10,10,0,0,0,.31,1.54l2.67-.5A1.09,1.09,0,0,1,10,48a1.67,1.67,0,0,1,.64,1.21Z"/><ellipse class="cls-14" cx="13.35" cy="45.69" rx="2.69" ry="3.41"/><path class="cls-10" d="M13.35,49.2c-1.53,0-2.79-1.57-2.79-3.51s1.26-3.5,2.79-3.5,2.79,1.57,2.79,3.5S14.89,49.2,13.35,49.2Zm0-6.82c-1.43,0-2.6,1.49-2.6,3.31S11.92,49,13.35,49,16,47.52,16,45.69,14.79,42.38,13.35,42.38Z"/><path class="cls-15" d="M13.29,38.48c-3.34,0-6,3.21-6,7.17s2.71,7.17,6,7.17,6.05-3.21,6.05-7.17S16.63,38.48,13.29,38.48Zm0,11c-1.78,0-3.22-1.71-3.22-3.82s1.44-3.82,3.22-3.82,3.22,1.71,3.22,3.82S15.07,49.47,13.29,49.47Z"/><path class="cls-16" d="M16,39.24l-1,3.18a3,3,0,0,0-.72-.4l1.34-3ZM10.37,44a3.78,3.78,0,0,1,1-1.47L9.56,40A6.73,6.73,0,0,0,8.24,41.7Zm5.16,4.35a3.38,3.38,0,0,1-.67.59L17,51.33c.13-.12.26-.24.38-.37Zm-4.86-.52a4,4,0,0,1-.39-.87L7.56,48c.06.2.12.39.19.57Zm2.13,1.55a3,3,0,0,1-1.51-.78l-1.35,3a5.61,5.61,0,0,0,1.86,1Zm6.35-5.56-2.72,1a4.58,4.58,0,0,1,.08.83,3.93,3.93,0,0,1-.1.92l2.92-.66a2.17,2.17,0,0,0,0-.26A8.69,8.69,0,0,0,19.15,43.86Z"/><path class="cls-10" d="M13.29,52.92c-3.39,0-6.15-3.26-6.15-7.27s2.76-7.26,6.15-7.26,6.14,3.26,6.14,7.26S16.68,52.92,13.29,52.92Zm0-14.34c-3.29,0-6,3.17-6,7.07s2.67,7.08,6,7.08,5.95-3.18,5.95-7.08S16.57,38.58,13.29,38.58Zm0,11A3.65,3.65,0,0,1,10,45.65a3.65,3.65,0,0,1,3.32-3.91c1.83,0,3.31,1.75,3.31,3.91S15.12,49.56,13.29,49.56Zm0-7.63a3.47,3.47,0,0,0-3.13,3.72,3.47,3.47,0,0,0,3.13,3.72c1.72,0,3.12-1.67,3.12-3.72S15,41.93,13.29,41.93Z"/><path class="cls-18" d="M13.82,42.73c.48-1.94-1.87-4.08-3-5a2.35,2.35,0,0,0-1.5-.53h-6a.32.32,0,0,1-.24-.54c2.59-2.5,6.53-2.79,9.53-2.79,3.21,0,7.55,2.66,7.55,4.6-.64,1.06-3.2,2.6-3.77,4S13.82,42.73,13.82,42.73Z"/><path class="cls-17" d="M12,38.8c1.06,1.07,2.15,2.55,1.81,3.93,0,0,2,1.15,2.62-.25s3.13-2.94,3.77-4c0-1.27-1.85-2.84-4-3.78l-.52.15S13.64,38.24,12,38.8Z"/><path class="cls-19" d="M9.81,36.55c.82,0,2.25-1.11,3.18-1.4s.86-.7-.54-.7S8,34.36,7,34.53a9.36,9.36,0,0,0-3.74,2Z"/><path class="cls-2" d="M15.34,43.27a3.79,3.79,0,0,1-1.57-.45.11.11,0,0,1,0-.11c.33-1.33-.68-3-2.93-4.9a2.28,2.28,0,0,0-1.44-.51h-6A.44.44,0,0,1,3,37a.4.4,0,0,1,.1-.44c2.59-2.5,6.49-2.82,9.6-2.82a10.22,10.22,0,0,1,5,1.59c1.64,1,2.62,2.16,2.62,3.11a.17.17,0,0,1,0,.05,8.24,8.24,0,0,1-1.6,1.6,8.41,8.41,0,0,0-2.17,2.38,1.12,1.12,0,0,1-.68.68A1.42,1.42,0,0,1,15.34,43.27Zm-1.41-.59a2.71,2.71,0,0,0,1.85.33.94.94,0,0,0,.57-.57A8.18,8.18,0,0,1,18.57,40a9,9,0,0,0,1.55-1.54c0-1.89-4.34-4.48-7.46-4.48s-6.92.31-9.47,2.77a.22.22,0,0,0,0,.23.24.24,0,0,0,.23.15h6a2.4,2.4,0,0,1,1.56.55C13.18,39.56,14.22,41.29,13.93,42.68Z"/><path class="cls-4" d="M15.18,45.49l-2.1-.71,7.4-21.92a1.09,1.09,0,0,1,1.4-.7h0a1.11,1.11,0,0,1,.7,1.4Z"/><path class="cls-10" d="M15.18,45.58h0l-2.1-.71a.1.1,0,0,1-.06,0,.09.09,0,0,1,0-.07l7.4-21.93a1.2,1.2,0,0,1,2.28.77l-7.4,21.93A.09.09,0,0,1,15.18,45.58Zm-2-.86,1.92.65,7.37-21.84a1,1,0,0,0-.64-1.28,1,1,0,0,0-1.28.64Z"/><path class="cls-4" d="M21.78,27l-.35,1c-.12.35-.83.43-1.58.17s-1.26-.74-1.15-1.09l.35-1c.12-.35.83-.43,1.58-.18S21.89,26.61,21.78,27Z"/><path class="cls-10" d="M20.69,28.42a2.64,2.64,0,0,1-.87-.16,2.32,2.32,0,0,1-.93-.53.67.67,0,0,1-.28-.68L19,26c.14-.4.89-.5,1.7-.23a2.58,2.58,0,0,1,.93.53c.25.24.35.48.28.68h0l-.35,1C21.43,28.28,21.11,28.42,20.69,28.42Zm-.89-2.6c-.36,0-.6.1-.66.26l-.35,1c0,.13,0,.31.23.48a2.16,2.16,0,0,0,.86.49c.75.26,1.37.15,1.46-.11l.35-1h0c0-.13,0-.3-.23-.48A2.29,2.29,0,0,0,20.6,26,2.54,2.54,0,0,0,19.8,25.82Z"/><path class="cls-4" d="M21.43,28c-.12.35-.83.43-1.58.17s-1.26-.74-1.15-1.09.37-.33.75-.32a2.61,2.61,0,0,1,.83.15,2.51,2.51,0,0,1,.75.38C21.34,27.52,21.5,27.79,21.43,28Z"/><path class="cls-10" d="M20.69,28.42a2.64,2.64,0,0,1-.87-.16,2.32,2.32,0,0,1-.93-.53.67.67,0,0,1-.28-.68c.09-.25.39-.39.84-.39a2.71,2.71,0,0,1,.86.16,2.78,2.78,0,0,1,.77.39c.36.27.52.57.44.82h0C21.43,28.28,21.11,28.42,20.69,28.42Zm-1.25-1.57c-.34,0-.59.1-.65.26s0,.31.23.48a2.16,2.16,0,0,0,.86.49c.75.26,1.37.15,1.46-.11s-.09-.4-.37-.61a2.85,2.85,0,0,0-.72-.36,2.39,2.39,0,0,0-.8-.15Zm2,1.15Z"/><path class="cls-17" d="M21.07,28l-.05.14L15.18,45.49l-2.1-.71,5.84-17.31,0-.14a.67.67,0,0,1,.55-.18,2.26,2.26,0,0,1,.64.11,2.17,2.17,0,0,1,.59.3A.67.67,0,0,1,21.07,28Z"/><polygon class="cls-18" points="16.7 35.15 13.6 44.33 14.47 44.33 17.4 35.53 16.7 35.15"/><path class="cls-2" d="M15.18,45.58h0l-2.1-.71a.1.1,0,0,1-.06,0,.09.09,0,0,1,0-.07l5.84-17.31.05-.14a0,0,0,0,1,0,0,.78.78,0,0,1,.63-.22,2.06,2.06,0,0,1,.67.12,2.18,2.18,0,0,1,.61.31.76.76,0,0,1,.37.55,0,0,0,0,1,0,0l-.05.14L15.27,45.52A.09.09,0,0,1,15.18,45.58Zm-2-.86,1.92.65L21,28a.66.66,0,0,0-.29-.38,2,2,0,0,0-.56-.28,2,2,0,0,0-.61-.11.66.66,0,0,0-.47.13l0,.13ZM21.07,28Z"/><path class="cls-17" d="M13.37,44.33c-.5,0-.92.6-.92,1.33s.42,1.33.92,1.33h1.37V44.33Z"/><path class="cls-2" d="M14.74,47.09H13.37c-.56,0-1-.64-1-1.43s.45-1.42,1-1.42h1.37a.09.09,0,0,1,.09.09V47A.1.1,0,0,1,14.74,47.09Zm-1.37-2.66c-.45,0-.82.55-.82,1.23s.37,1.24.82,1.24h1.27V44.43Z"/><path class="cls-17" d="M15.66,45.66c0-.73-.41-1.33-.92-1.33s-.92.6-.92,1.33.41,1.33.92,1.33S15.66,46.4,15.66,45.66Z"/><path class="cls-2" d="M14.74,47.09c-.56,0-1-.64-1-1.43s.46-1.42,1-1.42,1,.64,1,1.42S15.3,47.09,14.74,47.09Zm0-2.66c-.46,0-.83.55-.83,1.23s.37,1.24.83,1.24.82-.56.82-1.24S15.19,44.43,14.74,44.43Z"/><path class="cls-17" d="M15.38,45.66c0-.51-.29-.93-.64-.93s-.65.42-.65.93.29.93.65.93S15.38,46.17,15.38,45.66Z"/><path class="cls-2" d="M14.74,46.68c-.41,0-.74-.45-.74-1s.33-1,.74-1,.74.46.74,1S15.14,46.68,14.74,46.68Zm0-1.85c-.3,0-.55.37-.55.83s.25.84.55.84.55-.38.55-.84S15,44.83,14.74,44.83Z"/><path class="cls-4" d="M15.09,45.66c0-.28-.16-.51-.35-.51s-.36.23-.36.51.16.51.36.51S15.09,46,15.09,45.66Z"/><path class="cls-10" d="M14.74,46.27c-.25,0-.45-.27-.45-.61s.2-.6.45-.6.45.26.45.6S15,46.27,14.74,46.27Zm0-1c-.14,0-.26.2-.26.42s.12.42.26.42.26-.19.26-.42S14.88,45.24,14.74,45.24Z"/><path class="cls-18" d="M43.66,31.48h2.22a.91.91,0,0,0,.72-.36l.39-.5a2.27,2.27,0,0,1,.88-.66l6.93-2.81,1-1.63L67,22.21a.33.33,0,0,1,.41.34h0a.34.34,0,0,1-.19.33l-5.31,2.54a3.92,3.92,0,0,0-1.91,2l-.24.57a3.39,3.39,0,0,1-1.94,1.88c-1.65.63-4.37,1.66-5.84,2.24a2.61,2.61,0,0,0-1.48,1.47h0l-6.32,3.75-2.45-3.64Z"/><path class="cls-19" d="M47.87,30a2.27,2.27,0,0,0-.88.66l-.39.5a.91.91,0,0,1-.72.36h-.59l.38.82h.23A2.47,2.47,0,0,0,48,31.12h0a2.35,2.35,0,0,1,1.2-1l6-2.31a.64.64,0,0,0,.29-.25l.7-1.09a.63.63,0,0,0-.35-.93h0l-1,1.63Z"/><path class="cls-17" d="M67.42,22.55a.33.33,0,0,0,0-.17L61.52,25a3.18,3.18,0,0,0-1.34,1.12L59,27.81a3.62,3.62,0,0,1-1.73,1.36l-5.71,2.15a1.39,1.39,0,0,0-.7.54l-.44.62a2.32,2.32,0,0,1-1,.8l-3.05,1.36-.87-1,.19-1.92,0-.25H43.66l-1.92,2.23,2.45,3.64,6.32-3.75h0A2.61,2.61,0,0,1,52,32.13c1.47-.58,4.19-1.61,5.84-2.24A3.39,3.39,0,0,0,59.77,28l.24-.57a3.92,3.92,0,0,1,1.91-2l5.31-2.54A.34.34,0,0,0,67.42,22.55Z"/><path class="cls-2" d="M44.19,37.44a.09.09,0,0,1-.08,0l-2.45-3.64a.09.09,0,0,1,0-.11l1.92-2.23a.09.09,0,0,1,.07,0h2.22a.82.82,0,0,0,.64-.32l.4-.51a2.32,2.32,0,0,1,.91-.68l6.9-2.81,1-1.6a.07.07,0,0,1,.05,0L67,22.12a.39.39,0,0,1,.36.06.49.49,0,0,1,.18.37.46.46,0,0,1-.25.42L62,25.51a3.73,3.73,0,0,0-1.86,2l-.24.56a3.53,3.53,0,0,1-2,1.94c-1.54.59-4.34,1.65-5.84,2.24a2.52,2.52,0,0,0-1.42,1.41.1.1,0,0,1,0,0l-6.32,3.75Zm-2.33-3.72,2.36,3.5,6.22-3.69A2.73,2.73,0,0,1,52,32l5.84-2.23A3.37,3.37,0,0,0,59.69,28l.23-.57a4,4,0,0,1,2-2.06l5.31-2.54a.28.28,0,0,0,.14-.25.27.27,0,0,0-.11-.22.19.19,0,0,0-.18,0L55.86,25.6l-1,1.6a.09.09,0,0,1-.05,0L47.9,30.05a2,2,0,0,0-.83.63l-.4.5a1,1,0,0,1-.79.39H43.7Z"/><path class="cls-4" d="M47.56,27.15h6.7a.1.1,0,0,1,0,.2L47.87,30a2.27,2.27,0,0,0-.88.66l-.39.5a.91.91,0,0,1-.72.36H43.66l-1.17-3.09Z"/><path class="cls-10" d="M45.88,31.57H43.66a.1.1,0,0,1-.09-.06L42.4,28.42a.11.11,0,0,1,0-.08.15.15,0,0,1,.06-.05l5.08-1.23h6.72a.2.2,0,0,1,.2.16.21.21,0,0,1-.12.23L47.9,30.05a2,2,0,0,0-.83.63l-.4.5A1,1,0,0,1,45.88,31.57Zm-2.15-.18h2.15a.82.82,0,0,0,.64-.32l.4-.51a2.32,2.32,0,0,1,.91-.68l6.43-2.62s0,0,0,0a0,0,0,0,0,0,0H47.57l-5,1.21Z"/><path class="cls-20" d="M41.22,24.28c1.68,2,3.25,4.22,4.89,4.22,2,0,2.55,0,3.91,0s4.09.43,2.68-4.05a13.93,13.93,0,0,0-1.32-2.88c-.19,1.73-2.72,2.73-5.92,2.73Z"/><path class="cls-21" d="M46.11,28.59c-1.46,0-2.84-1.68-4.3-3.45l-.66-.8a.09.09,0,0,1,0-.1.1.1,0,0,1,.08-.06h4.24c3.31,0,5.65-1.06,5.83-2.64a.08.08,0,0,1,.07-.08.09.09,0,0,1,.1.05,13.66,13.66,0,0,1,1.29,2.79.09.09,0,0,1-.18.06,13.23,13.23,0,0,0-1.14-2.54c-.39,1.56-2.68,2.55-6,2.55h-4c.17.22.35.43.53.65,1.43,1.74,2.78,3.38,4.15,3.38h4.25a2.87,2.87,0,0,0,2.23-.54A2.28,2.28,0,0,0,53,26a.1.1,0,0,1,.08-.1.09.09,0,0,1,.11.08,2.43,2.43,0,0,1-.42,2,3.06,3.06,0,0,1-2.38.6H46.11Z"/><polygon class="cls-20" points="42.34 25.4 38.86 26.75 39.77 29.72 45.96 29.28 46.04 25.52 42.34 25.4"/><path class="cls-21" d="M44.12,27h0a8.49,8.49,0,0,1-1.93-1.45l-1.45.63a.09.09,0,0,1-.12-.05.1.1,0,0,1,0-.13l1.5-.64a.11.11,0,0,1,.11,0,8.28,8.28,0,0,0,1.88,1.44.09.09,0,0,1,.07.11A.09.09,0,0,1,44.12,27Z"/><path d="M45.41,24.26c3.15,0,5.66-.94,6.05-2.57a24.23,24.23,0,0,0-8.73-8.11c-1.56-.81-3.47-1.21-7.47-1.21a19.83,19.83,0,0,0-5.58,1.09c0,6.54,2.44,7.67,7.06,7.67,1.63,0,3.09,1.49,4.46,3.13Z"/><path class="cls-5" d="M42.48,13.46c.69.37.58,4,.58,4-1.6-.78-3-.19-3.41,1,0-.44,0-1.43,0-1.43s-.42,2.05-5.2,2.05c-4,0-4.56-2.73-4.56-2.73l-.46-2.91a26.7,26.7,0,0,1,5.83-1.1C39.65,12.37,41.67,13,42.48,13.46Z"/><path class="cls-22" d="M32,12.84l.11.77a2.33,2.33,0,0,0,2.63,2h0a2,2,0,0,0,1.83-2.53l-.24-.74h-1A13.12,13.12,0,0,0,32,12.84Z"/><path class="cls-5" d="M45.41,24.35H41.2a.11.11,0,0,1-.07,0c-1.26-1.5-2.74-3.1-4.39-3.1-4,0-6.37-.84-7-5.16a.11.11,0,0,1,.08-.11.09.09,0,0,1,.11.08c.29,2,1,3.32,2.17,4.08,1,.65,2.41.92,4.64.92,1.72,0,3.23,1.61,4.51,3.13h4.16c3.23,0,5.56-1,6-2.46a24.12,24.12,0,0,0-8.68-8C41,12.79,39,12.47,35.26,12.47a17.55,17.55,0,0,0-5,.93l-.51.15a.09.09,0,1,1-.05-.18l.51-.15a17.7,17.7,0,0,1,5.1-.94c3.77,0,5.81.33,7.51,1.21a24.37,24.37,0,0,1,8.77,8.15.09.09,0,0,1,0,.07C51.17,23.32,48.76,24.35,45.41,24.35Z"/><path class="cls-15" d="M69.51,36.09l-2.62,2.59a.93.93,0,0,1-.36.26l-.6.26-2.45-5.72.61-.26a.89.89,0,0,1,.43-.08L68.2,33a2,2,0,0,1,1.31,3.08Z"/><path class="cls-9" d="M65,37.07l.91,2.13.6-.26a.93.93,0,0,0,.36-.26l2.62-2.59a1.73,1.73,0,0,0,.21-1.91l-2.43,1.93Z"/><path class="cls-4" d="M65.93,39.3a.1.1,0,0,1-.09-.06L63.4,33.51a.09.09,0,0,1,0-.07.1.1,0,0,1,.06,0l.6-.26a1.28,1.28,0,0,1,.48-.09l3.66-.12a2,2,0,0,1,1.39,3.24h0L67,38.75a1,1,0,0,1-.38.28l-.61.26Zm-2.32-5.77L66,39.08l.51-.22a1,1,0,0,0,.33-.24L69.45,36a1.87,1.87,0,0,0-1.25-2.92l-3.68.12a1.09,1.09,0,0,0-.4.07Zm5.9,2.56Zm0,0Z"/><path class="cls-15" d="M67,35.34c.68,1.58.26,3.27-.92,3.78L55,43.88c-1.19.5-5.19.71-5.86-.87s2.23-4.35,3.42-4.86l11.16-4.76C64.86,32.89,66.37,33.76,67,35.34Z"/><path class="cls-9" d="M55,43.88l11.17-4.76a2.59,2.59,0,0,0,1.17-3h0L56.12,40.82a18.06,18.06,0,0,1-4.49,1l-2.61,1c0,.06,0,.13.07.2C49.76,44.59,53.76,44.38,55,43.88Z"/><path class="cls-4" d="M52.44,44.33C51,44.33,49.41,44,49,43c-.73-1.69,2.36-4.5,3.47-5l11.17-4.75a2.16,2.16,0,0,1,2,.19,4,4,0,0,1,1.77,4.15,2.16,2.16,0,0,1-1.22,1.56L55,44A7.68,7.68,0,0,1,52.44,44.33Zm12-11a1.72,1.72,0,0,0-.68.14L52.54,38.24c-1.11.48-4,3.2-3.37,4.73s4.62,1.3,5.74.82L66.08,39a2,2,0,0,0,1.11-1.42A3.63,3.63,0,0,0,67,35.38a3.54,3.54,0,0,0-1.46-1.71A2.18,2.18,0,0,0,64.39,33.34Z"/><path class="cls-4" d="M54.91,44a.09.09,0,0,1-.08,0,.1.1,0,0,1,.05-.13l.14-.06a2,2,0,0,0,1.11-1.42,3.59,3.59,0,0,0-.23-2.24c-.64-1.5-2.08-2.36-3.21-1.9a.1.1,0,0,1-.08-.18l11-4.69a2.16,2.16,0,0,1,2,.19,4,4,0,0,1,1.77,4.15,2.16,2.16,0,0,1-1.22,1.56L55,44h-.08Zm-1.5-6.11A3.3,3.3,0,0,1,56.08,40a3.79,3.79,0,0,1,.23,2.35,2.41,2.41,0,0,1-.53,1.06L66.08,39a2,2,0,0,0,1.11-1.42A3.63,3.63,0,0,0,67,35.38a3.54,3.54,0,0,0-1.46-1.71,2,2,0,0,0-1.79-.19Z"/><path class="cls-4" d="M54.91,44a.09.09,0,0,1-.08,0,.1.1,0,0,1,.05-.13l.14-.06a2,2,0,0,0,1.11-1.42,3.59,3.59,0,0,0-.23-2.24c-.64-1.5-2.08-2.36-3.21-1.9a.1.1,0,0,1-.08-.18l11-4.69a2.16,2.16,0,0,1,2,.19,4,4,0,0,1,1.77,4.15,2.16,2.16,0,0,1-1.22,1.56L55,44h-.08Zm-1.5-6.11A3.3,3.3,0,0,1,56.08,40a3.79,3.79,0,0,1,.23,2.35,2.41,2.41,0,0,1-.53,1.06L66.08,39a2,2,0,0,0,1.11-1.42A3.63,3.63,0,0,0,67,35.38a3.54,3.54,0,0,0-1.46-1.71,2,2,0,0,0-1.79-.19Z"/><path class="cls-15" d="M51.63,41.86a1.2,1.2,0,0,0-1.45-.81l-8.44,3.64.37,2.89,9.14-4.09A1.21,1.21,0,0,0,51.63,41.86Z"/><path class="cls-9" d="M46.38,42.69h0l-4.64,2,.37,2.89,9.14-4.09a1.21,1.21,0,0,0,.38-1.63l-4.42,1.9S46.59,42.6,46.38,42.69Z"/><path class="cls-4" d="M42.11,47.67h0a.08.08,0,0,1,0-.07l-.37-2.88a.08.08,0,0,1,.06-.1L50.14,41a1.3,1.3,0,0,1,1.58.87h0a1.29,1.29,0,0,1-.43,1.74l-9.14,4.09Zm-.26-2.92.34,2.69,9-4a1.13,1.13,0,0,0,.33-1.5h0c-.28-.62-.87-1-1.33-.76Z"/><path class="cls-17" d="M43.48,33.74h0a1.2,1.2,0,0,1,1.07.65L46,37.32a1.37,1.37,0,0,1,.08,1.07l-2.26,6.86-8.46-.69-.28-11.12,5.13-.28Z"/><path class="cls-2" d="M43.85,45.34h0l-8.46-.68a.11.11,0,0,1-.09-.1L35,33.44a.09.09,0,0,1,.09-.09l5.12-.29h0l3.24.59a1.27,1.27,0,0,1,1.14.7l1.48,2.93a1.42,1.42,0,0,1,.09,1.14l-2.26,6.86A.09.09,0,0,1,43.85,45.34Zm-8.37-.87,8.31.68L46,38.36a1.33,1.33,0,0,0-.07-1l-1.49-2.92a1.09,1.09,0,0,0-1-.61h0l-3.24-.58-5,.28Z"/><path class="cls-18" d="M37,34.3h5.36a1.34,1.34,0,0,0,1.29-1l.78-2.6A2.26,2.26,0,0,0,44,28.61l-3-3.47a1.71,1.71,0,0,0-1.8-.51L31,27.28a1.69,1.69,0,0,0-1.08,1l-.44,1.31Z"/><path class="cls-19" d="M41.32,25.49l-.3-.35a1.71,1.71,0,0,0-1.8-.51L31,27.28a1.69,1.69,0,0,0-.91.71,3.69,3.69,0,0,0,1.52-.33c.35-.3,7.6-1.53,9.41-2.14Z"/><path class="cls-17" d="M44,28.61c-.85-1-2.17-2.54-3-3.47a1.85,1.85,0,0,0-.37-.32l2.25,4a2.29,2.29,0,0,1,.15,2h0a2.31,2.31,0,0,1-2.15,1.48H37.32L36.26,31l-6.41-2.4-.35,1,6.14,3.8h0L37,34.3h5.36a1.34,1.34,0,0,0,1.29-1l.78-2.6A2.26,2.26,0,0,0,44,28.61Z"/><path class="cls-2" d="M42.39,34.4H37l-.05,0-7.53-4.66a.08.08,0,0,1,0-.11l.44-1.31A1.8,1.8,0,0,1,31,27.19l8.2-2.65a1.78,1.78,0,0,1,1.9.54l3,3.47a2.38,2.38,0,0,1,.47,2.22l-.78,2.6A1.46,1.46,0,0,1,42.39,34.4Zm-5.34-.19h5.34a1.26,1.26,0,0,0,1.2-.9l.78-2.59a2.18,2.18,0,0,0-.44-2c-.76-.88-2.15-2.51-3-3.47a1.59,1.59,0,0,0-1.69-.48L31,27.37a1.59,1.59,0,0,0-1,1l-.42,1.23Z"/><path class="cls-18" d="M9.37,33.74h5.87L18.9,37l4.82,7.51.67,5.73h24l2.23-2.35a.52.52,0,0,0-.07-.79l-1.16-.84c-1.7-1.22-7.31-1.88-9.4-1.88h0a.67.67,0,0,1-.52-.25l.2-7.15-5.42-6.19L29,28.62Z"/><path class="cls-17" d="M15.24,33.74,25,31.66c1.09-.22.77-2-.22-1.93h-.07l-15.35,4Z"/><path class="cls-17" d="M32.18,40.57s-6.27,3.58-8.35,5l.56,4.74h24l2.23-2.35a.52.52,0,0,0-.07-.79l-1.16-.84c-1.7-1.22-7.31-1.88-9.4-1.88h0a.67.67,0,0,1-.52-.25l.2-7.15Z"/><path class="cls-2" d="M48.43,50.37h-24a.1.1,0,0,1-.1-.08l-.66-5.71-4.8-7.48L15.2,33.83H9.37a.09.09,0,0,1,0-.18l19.59-5.12H29l5.32,2.21a.05.05,0,0,1,0,0L39.78,37a.07.07,0,0,1,0,.06l-.21,7.12a.59.59,0,0,0,.43.19c2,0,7.72.64,9.45,1.9l1.16.83a.62.62,0,0,1,.26.45.58.58,0,0,1-.17.48L48.5,50.34A.11.11,0,0,1,48.43,50.37Zm-24-.19H48.39l2.21-2.32a.45.45,0,0,0,.11-.34.42.42,0,0,0-.18-.31l-1.16-.83c-1.7-1.23-7.32-1.86-9.34-1.86a.76.76,0,0,1-.6-.29.11.11,0,0,1,0-.06l.21-7.12-5.39-6.14L29,28.72,10.11,33.65h5.13a.07.07,0,0,1,.06,0L19,37l0,0L23.8,44.5s0,0,0,0Z"/><polygon class="cls-17" points="32.18 40.56 23.72 44.55 24.39 50.28 30.9 46.16 32.18 40.56"/><path class="cls-18" d="M23.46,30.23C21.51,30.71,12,33,9.37,33.74a5.59,5.59,0,0,1-1.47.19H7a.8.8,0,0,1-.89-.76v-.52A3.64,3.64,0,0,1,6.47,31l2.75-5.44A2.43,2.43,0,0,1,9.63,25l3.53-3.56a8.23,8.23,0,0,1,4.27-2.28h6.41a1.93,1.93,0,0,1,1.86,1.4h0l1.35.1a1.46,1.46,0,0,1,1.25,1h0a.38.38,0,0,1-.21.47l-8,4.72a1.18,1.18,0,0,0-.57.94h0a1.16,1.16,0,0,0,1,1.21l2.87.33a.47.47,0,0,1,.43.47h0A.46.46,0,0,1,23.46,30.23Z"/><path class="cls-19" d="M16.33,29.25a.35.35,0,0,0-.52-.25c-2,1.08-5.75,3.25-6.44,3.66s-.51.57.7.21c1-.31,5.73-1.63,7.72-2.23a.16.16,0,0,0,0-.31C16.9,30.16,16.39,29.73,16.33,29.25Z"/><path class="cls-19" d="M27.05,20.67l-1-.07S19.6,25,18.29,25.75s-1.88,2.91-.28,1.49c1.22-1.09,7.26-4.55,10-6.09A1.44,1.44,0,0,0,27.05,20.67Z"/><path class="cls-19" d="M10.11,27H12a4.18,4.18,0,0,0,2.08-.47c2.24-1.22,11.14-6.73,11.18-6.76a1.93,1.93,0,0,0-1.43-.62H17.43a8.19,8.19,0,0,0-1.62.49c-2.17,2-4.3,4-4.87,4.51a4.48,4.48,0,0,0-1.57,2.38C9.3,26.82,9.65,27,10.11,27Z"/><path class="cls-2" d="M7.9,34H7a.91.91,0,0,1-1-.86v-.52A3.69,3.69,0,0,1,6.39,31l2.74-5.45A2.33,2.33,0,0,1,9.57,25l3.53-3.56a8.36,8.36,0,0,1,4.32-2.32h6.42a2,2,0,0,1,1.93,1.41l1.29.09a1.56,1.56,0,0,1,1.33,1,.46.46,0,0,1-.26.58l-8,4.72a1.07,1.07,0,0,0,.42,2l2.87.32a.58.58,0,0,1,.51.57.57.57,0,0,1-.42.55h0c-1.89.46-11.44,2.8-14.08,3.5A5.89,5.89,0,0,1,7.9,34Zm9.54-14.77a8.17,8.17,0,0,0-4.21,2.26L9.7,25.08a2.42,2.42,0,0,0-.4.55L6.55,31.08a3.52,3.52,0,0,0-.37,1.57v.52a.71.71,0,0,0,.8.67H7.9a6,6,0,0,0,1.45-.19c2.64-.7,12.2-3,14.08-3.51a.36.36,0,0,0,.28-.36.38.38,0,0,0-.34-.38l-2.87-.33a1.25,1.25,0,0,1-1.11-1.31,1.22,1.22,0,0,1,.62-1L28,22h0a.28.28,0,0,0,.16-.35A1.38,1.38,0,0,0,27,20.76l-1.35-.1a.08.08,0,0,1-.08-.07,1.84,1.84,0,0,0-1.77-1.33Zm6,11Z"/><path class="cls-23" d="M11.52,25.07h1.79a6.88,6.88,0,0,0,1.94-.46c3.34-1.46,8.1-4.37,9-5.44.68-.8-1.5-1.83-3-1.83a7,7,0,0,0-5.44,1.89,28.92,28.92,0,0,0-4.6,5.22C11.1,24.73,11.2,25.07,11.52,25.07Z"/><path class="cls-24" d="M22.92,17.65a5,5,0,0,0-1.63-.31,8.11,8.11,0,0,0-3.42.54c-2.64,2.4-5.77,5.5-6.35,7.19h1.79C14.09,23.44,18.41,19.2,22.92,17.65Z"/><path class="cls-25" d="M13.31,25.16H11.52a.42.42,0,0,1-.37-.2.57.57,0,0,1,0-.55,26.16,26.16,0,0,1,4.61-5.25,7.1,7.1,0,0,1,5.49-1.92h0c1.13,0,2.8.62,3.13,1.35a.56.56,0,0,1-.09.64c-1,1.13-5.78,4-9,5.46A6.83,6.83,0,0,1,13.31,25.16Zm7.94-7.73a6.92,6.92,0,0,0-5.34,1.87,25.81,25.81,0,0,0-4.57,5.2.41.41,0,0,0,0,.37.24.24,0,0,0,.21.1h1.79a6.45,6.45,0,0,0,1.9-.45c3.44-1.5,8.12-4.42,9-5.42a.38.38,0,0,0,.06-.43c-.28-.6-1.8-1.24-3-1.24h0Z"/><path class="cls-23" d="M9.73,27.81h3.79A.94.94,0,0,1,14,29.56l-5.27,3.1A1.89,1.89,0,0,1,7.67,33H7.23a.71.71,0,0,1-.65-1l1.49-3.1A1.85,1.85,0,0,1,9.73,27.81Z"/><polygon class="cls-26" points="8.43 30.15 7.31 30.58 7.52 30.2 8.37 30.03 8.43 30.15"/><polygon class="cls-26" points="10.23 30.58 10.4 31.62 10.88 31.34 10.42 30.52 10.23 30.58"/><polygon class="cls-26" points="8.46 32.73 9.33 30.6 9.61 30.66 9.03 32.44 8.46 32.73"/><polygon class="cls-26" points="6.59 32.4 8.69 30.4 8.94 30.5 6.76 32.76 6.59 32.4"/><path class="cls-26" d="M14.39,28.38a.92.92,0,0,0-.87-.57H9.73a1.81,1.81,0,0,0-1,.33l.47,1.6a.64.64,0,0,0,.85.4Z"/><path class="cls-24" d="M8.91,28a9.38,9.38,0,0,0-1.94,5,.71.71,0,0,0,.26,0h.44L8,33c.6-1.32,3-3.53,4.89-5.14H9.73A2.66,2.66,0,0,0,8.91,28Z"/><path class="cls-2" d="M7.67,33.08H7.23a.82.82,0,0,1-.74-1.16L8,28.82a2,2,0,0,1,1.75-1.1h3.79a1,1,0,0,1,1,.76,1,1,0,0,1-.47,1.16l-5.27,3.1A2,2,0,0,1,7.67,33.08Zm2.06-5.17a1.76,1.76,0,0,0-1.58,1L6.66,32a.63.63,0,0,0,.57.89h.44a1.82,1.82,0,0,0,1-.31L14,29.48a.84.84,0,0,0-.43-1.57Z"/><path class="cls-2" d="M24.39,50.37h0a.11.11,0,0,1-.06-.07l-.66-5.71-4.81-7.49a.08.08,0,0,1,0-.08.15.15,0,0,1,.05-.06l8.94-3.6a.1.1,0,0,1,.11,0L33,40.19a.08.08,0,0,1,0,.08l-2,5.92a.1.1,0,0,1,0,.05l-6.51,4.12ZM19,37.09,23.8,44.5s0,0,0,0l.66,5.58,6.35-4,2-5.84-5-6.7Z"/><polygon class="cls-17" points="24.39 50.28 23.62 50.28 22.95 44.55 18.29 37.29 14.47 33.74 15.24 33.74 18.9 37.04 23.72 44.55 24.39 50.28"/><path class="cls-2" d="M24.39,50.37h-.77a.1.1,0,0,1-.1-.08l-.66-5.71-4.65-7.23L14.4,33.81a.08.08,0,0,1,0-.1.09.09,0,0,1,.09-.06h.77a.07.07,0,0,1,.06,0L19,37l0,0L23.8,44.5s0,0,0,0l.67,5.73a.07.07,0,0,1,0,.07A.09.09,0,0,1,24.39,50.37Zm-.69-.19h.58l-.65-5.6-4.8-7.48L15.2,33.83h-.49l3.64,3.39h0L23,44.5s0,0,0,0Z"/><polygon class="cls-2" points="27.83 33.44 32.18 40.56 30.9 46.16 32.9 40.24 27.83 33.44"/><path class="cls-2" d="M30.9,46.26h0a.09.09,0,0,1-.07-.11l1.27-5.56-4.33-7.09a.1.1,0,0,1,0-.13.11.11,0,0,1,.13,0L33,40.19a.08.08,0,0,1,0,.08l-2,5.92A.1.1,0,0,1,30.9,46.26ZM29,35.15l3.28,5.37a.08.08,0,0,1,0,.07l-.86,3.76,1.38-4.09Z"/><rect class="cls-4" x="58.37" y="44.82" width="2.99" height="1.62" rx="0.32"/><path class="cls-4" d="M61,46.53H58.69a.41.41,0,0,1-.42-.41v-1a.41.41,0,0,1,.42-.41H61a.41.41,0,0,1,.42.41v1A.41.41,0,0,1,61,46.53Zm-2.35-1.61a.23.23,0,0,0-.23.22v1a.23.23,0,0,0,.23.22H61a.22.22,0,0,0,.23-.22v-1a.22.22,0,0,0-.23-.22Z"/><rect class="cls-11" x="58.83" y="44.82" width="2.07" height="1.62" rx="0.27"/><path class="cls-4" d="M60.63,46.53H59.1a.36.36,0,0,1-.36-.36V45.09a.36.36,0,0,1,.36-.36h1.53a.36.36,0,0,1,.36.36v1.08A.36.36,0,0,1,60.63,46.53ZM59.1,44.92a.16.16,0,0,0-.17.17v1.08a.16.16,0,0,0,.17.17h1.53a.16.16,0,0,0,.17-.17V45.09a.16.16,0,0,0-.17-.17Z"/><path class="cls-4" d="M60.32,45.63a.38.38,0,1,1-.38-.47A.43.43,0,0,1,60.32,45.63Z"/><path class="cls-4" d="M59.94,46.2a.58.58,0,1,1,.47-.57A.53.53,0,0,1,59.94,46.2Zm0-1c-.15,0-.28.17-.28.38s.13.38.28.38a.39.39,0,0,0,0-.76Z"/><path d="M41.46,21.34a2,2,0,0,0,2.15-1.88c.06-1.41.09-3,.06-4.22a2,2,0,0,0-2.05-2h0a2,2,0,0,0-1.93,2c0,1.1,0,2.65,0,4a2,2,0,0,0,1.81,2Z"/><path class="cls-5" d="M42.34,17.27s.72-4-.72-4h0a2,2,0,0,0-1.93,2c0,.73,0,1.66,0,2.59h0c0,.17,0,.34,0,.52A2.2,2.2,0,0,1,42.34,17.27Z"/><path class="cls-27" d="M41.63,21.45h-.18a2.09,2.09,0,0,1-1.9-2.14c0-.78.05-1.66.05-2.55a.1.1,0,0,1,.09-.1h0a.11.11,0,0,1,.1.1c0,.89,0,1.77,0,2.56a1.89,1.89,0,0,0,3.13,1.48,1.86,1.86,0,0,0,.64-1.33c.07-1.4.09-3,.07-4.22a1.9,1.9,0,0,0-1.14-1.69l-.62-.27a.1.1,0,0,1,0-.13.09.09,0,0,1,.12-.05l.62.27a2.11,2.11,0,0,1,1.25,1.87c0,1.2,0,2.82-.07,4.23a2.08,2.08,0,0,1-2.07,2Z"/><path class="cls-6" d="M41.65,17.92h0A1.64,1.64,0,0,0,40,19.55c-.05,3.6-3.42,6.86-11.37,6a1.3,1.3,0,0,0-.91.3,1.52,1.52,0,0,0-.38.6l-.59-.08-.4,1.54,1.93.28.13,0C38,29,43.16,25.9,43.33,19.62A1.65,1.65,0,0,0,41.65,17.92Z"/><path class="cls-8" d="M43.33,19.62a1.65,1.65,0,0,0-1.68-1.7h0A1.64,1.64,0,0,0,40,19.55L40,20h0A1.74,1.74,0,0,1,42,19c-.25,9-11.87,7.74-14.5,7.64l-.81,0-.34,1.31,1.93.28.13,0C38,29,43.16,25.9,43.33,19.62Z"/><path class="cls-7" d="M31.28,28.41c-.9,0-1.85,0-2.84-.12l-1.93-.24a.09.09,0,1,1,0-.18l1.93.23c5.69.47,9.82-.41,12.27-2.6a7.83,7.83,0,0,0,2.51-5.88,1.52,1.52,0,0,0-.46-1.14A1.5,1.5,0,0,0,41.65,18h0a1.54,1.54,0,0,0-1.51,1.53,5.43,5.43,0,0,1-1.88,4.09c-1.39,1.24-4.19,2.58-9.59,2a.09.09,0,1,1,0-.18c5.33.58,8.08-.74,9.44-1.95a5.25,5.25,0,0,0,1.82-3.95,1.72,1.72,0,0,1,1.69-1.72h0a1.73,1.73,0,0,1,1.27.51,1.75,1.75,0,0,1,.51,1.28,8.05,8.05,0,0,1-2.57,6C38.8,27.48,35.58,28.41,31.28,28.41Z"/><path class="cls-4" d="M22.55,26.16H21.44a.65.65,0,0,0,0,1.3h1.11Z"/><path class="cls-10" d="M22.55,27.55H21.44a.75.75,0,0,1-.75-.74.76.76,0,0,1,.75-.75h1.11a.1.1,0,0,1,.1.1v1.3A.09.09,0,0,1,22.55,27.55Zm-1.11-1.3a.56.56,0,1,0,0,1.11h1V26.25Z"/><path class="cls-4" d="M23.38,27.83h-.44a1,1,0,0,1-1-1h0a1,1,0,0,1,1-1h.44a1,1,0,0,1,1,1h0A1,1,0,0,1,23.38,27.83Z"/><path class="cls-10" d="M23.38,27.92h-.44a1.14,1.14,0,1,1,0-2.27h.44a1.14,1.14,0,1,1,0,2.27Zm-.44-2.08a.95.95,0,1,0,0,1.89h.44a.95.95,0,1,0,0-1.89Z"/><path class="cls-4" d="M27.61,27.51H24.12a.7.7,0,0,1-.71-.7h0a.71.71,0,0,1,.71-.71h3.49a.71.71,0,0,1,.71.71h0A.7.7,0,0,1,27.61,27.51Z"/><path class="cls-11" d="M27.54,26.25H24.6a.69.69,0,0,0-.27.56v0h2.89A.83.83,0,0,1,27.54,26.25Z"/><path class="cls-10" d="M27.61,27.61H24.12a.8.8,0,0,1,0-1.6h3.49a.8.8,0,1,1,0,1.6ZM24.12,26.2a.61.61,0,0,0,0,1.22h3.49a.61.61,0,1,0,0-1.22Z"/><path class="cls-6" d="M28.46,25.48a6.37,6.37,0,0,0-1.78-.34H25.15a1.38,1.38,0,0,0-1.31,1.49,1.55,1.55,0,0,0,1.53,1.61h1.68c.31-.08.21-.58-.1-.56H27c-1.05,0-1.31-1.74,0-1.74h.64a9.19,9.19,0,0,0,1.42.27Z"/><path class="cls-8" d="M25.37,28.24h1.68c.31-.08.21-.58-.1-.56H27a.89.89,0,0,1-.87-.76H23.87A1.5,1.5,0,0,0,25.37,28.24Z"/><path class="cls-7" d="M27,28.34H25.37a1.52,1.52,0,0,1-1.14-.47A1.68,1.68,0,0,1,25.15,25h1.53a7.22,7.22,0,0,1,2,.4h0a.09.09,0,1,1-.05.18h0a7.1,7.1,0,0,0-1.92-.39H25.15a1.53,1.53,0,0,0-1.21,1.4,1.56,1.56,0,0,0,.42,1.11,1.36,1.36,0,0,0,1,.41H27c.13,0,.11-.16.11-.19a.2.2,0,0,0-.16-.18h0a.92.92,0,0,1-.85-1,1,1,0,0,1,.22-.65.88.88,0,0,1,.69-.29h.91a.11.11,0,0,1,.1.1.1.1,0,0,1-.1.09H27a.7.7,0,0,0-.55.23.81.81,0,0,0-.17.52.74.74,0,0,0,.67.79h.1a.39.39,0,0,1,.26.32.35.35,0,0,1-.26.41Z"/><path class="cls-4" d="M22.12,28.07c0,.41.13.63.65.63h1.72a2.18,2.18,0,0,1,1.66.76h.55a2.49,2.49,0,0,0-2.25-1.2H22.77c-.16,0-.16-.19-.16-.19Z"/><path class="cls-10" d="M26.7,29.55h-.55a.11.11,0,0,1-.09-.05,2.08,2.08,0,0,0-1.57-.7H22.77c-.52,0-.74-.21-.74-.73a.11.11,0,0,1,0-.07l.06,0h.49a.09.09,0,0,1,.09.09s0,.1.07.1h1.68a2.54,2.54,0,0,1,2.33,1.25.07.07,0,0,1,0,.09A.09.09,0,0,1,26.7,29.55Zm-.5-.19h.33a2.43,2.43,0,0,0-2.08-1H22.77a.24.24,0,0,1-.24-.19h-.31c0,.29.13.44.55.44h1.72A2.36,2.36,0,0,1,26.2,29.36Z"/><path class="cls-4" d="M22.71,28.14h-.49a.45.45,0,0,1-.45-.45h0a.45.45,0,0,1,.45-.45h.49a.45.45,0,0,1,.45.45h0A.45.45,0,0,1,22.71,28.14Z"/><path class="cls-10" d="M22.71,28.23h-.49a.55.55,0,0,1-.55-.54.55.55,0,0,1,.55-.55h.49a.55.55,0,0,1,.55.55A.55.55,0,0,1,22.71,28.23Zm-.49-.9a.36.36,0,1,0,0,.71h.49a.36.36,0,1,0,0-.71Z"/><circle class="cls-4" cx="26.46" cy="29.42" r="0.38"/><path class="cls-10" d="M26.46,29.89a.47.47,0,0,1-.47-.47.47.47,0,1,1,.94,0A.47.47,0,0,1,26.46,29.89Zm0-.76a.29.29,0,0,0,0,.57.29.29,0,1,0,0-.57Z"/><path class="cls-28" d="M51.24,40.4l2.16-1.79a.53.53,0,0,1,.67,0h0a.53.53,0,0,1-.09.86l-2.44,1.36a.26.26,0,0,1-.38-.15h0A.27.27,0,0,1,51.24,40.4Z"/><path class="cls-28" d="M55.4,38.38h0a.61.61,0,0,1,.33-.83l8.66-3.69a.65.65,0,0,1,.85.32h0a.61.61,0,0,1-.33.83L56.25,38.7A.66.66,0,0,1,55.4,38.38Z"/><path class="cls-7" d="M35.25,15.12h0a1.79,1.79,0,0,1-2.41-.69l-1.19-2.16a1.77,1.77,0,0,1,.7-2.41h0a1.78,1.78,0,0,1,2.41.7L36,12.71A1.77,1.77,0,0,1,35.25,15.12Z"/><path class="cls-29" d="M34.4,15.44a1.82,1.82,0,0,1-.52-.08,1.85,1.85,0,0,1-1.12-.89l-1.19-2.15a1.86,1.86,0,0,1-.16-1.42,1.88,1.88,0,0,1,.89-1.12,1.87,1.87,0,0,1,2.54.73L36,12.67a1.86,1.86,0,0,1-.73,2.53h0A1.81,1.81,0,0,1,34.4,15.44ZM33.2,9.73a1.81,1.81,0,0,0-.81.21,1.72,1.72,0,0,0-.8,1,1.66,1.66,0,0,0,.15,1.27l1.19,2.16a1.63,1.63,0,0,0,1,.8,1.67,1.67,0,0,0,1.93-2.42L34.67,10.6a1.63,1.63,0,0,0-1-.8A1.84,1.84,0,0,0,33.2,9.73Zm2,5.39Z"/><path class="cls-6" d="M30.69,1.62h0a4.14,4.14,0,0,0-3.55,4.82l.69,4a4,4,0,0,0,4.43,3.25h0A4,4,0,0,0,35.7,9.38l-.34-4A4.15,4.15,0,0,0,30.69,1.62Z"/><path class="cls-30" d="M30.76,12.06l-.2,0a.86.86,0,0,1-1-.74h0l1.9-.25h0A.86.86,0,0,1,30.76,12.06Z"/><path class="cls-6" d="M35.61,9.29,35,9.37l-.25-1.91.66-.08a1,1,0,0,1,1.07.83h0A1,1,0,0,1,35.61,9.29Z"/><path class="cls-7" d="M30.05,7.38l.38,3-.81.11a.37.37,0,0,1-.4-.48Z"/><path class="cls-31" d="M29.13,7.49l-1.52-.15a.12.12,0,0,1-.1-.13h0a.11.11,0,0,1,.12-.11l1.53,0a.14.14,0,0,1,.12.14v.1A.12.12,0,0,1,29.13,7.49Z"/><path class="cls-31" d="M31,7.2l1.47-.42a.12.12,0,0,0,.08-.15h0a.11.11,0,0,0-.14-.08l-1.5.31a.11.11,0,0,0-.09.15l0,.1A.13.13,0,0,0,31,7.2Z"/><path class="cls-31" d="M32,8.17c0,.28,0,.51-.16.53s-.25-.19-.29-.47,0-.5.16-.52S31.93,7.9,32,8.17Z"/><path class="cls-31" d="M29,8.57c0,.27,0,.51-.17.52s-.25-.19-.29-.46,0-.51.17-.53S28.91,8.3,29,8.57Z"/><polygon class="cls-31" points="26.34 10.03 26.34 10.03 26.34 10.03 26.34 10.03"/><path class="cls-3" d="M53,47.26H50.87a.59.59,0,0,1-.59-.59h0a.58.58,0,0,1,.59-.59H53a.59.59,0,0,1,.59.59h0A.6.6,0,0,1,53,47.26Z"/><path class="cls-4" d="M53,47.35H50.87a.68.68,0,1,1,0-1.36H53a.68.68,0,0,1,0,1.36Zm-2.16-1.18a.5.5,0,0,0-.5.5.49.49,0,0,0,.5.49H53a.49.49,0,0,0,.49-.49.5.5,0,0,0-.49-.5Z"/><path class="cls-4" d="M53,47.35a.68.68,0,1,1,.68-.68A.68.68,0,0,1,53,47.35Zm0-1.18a.51.51,0,0,0-.5.5.5.5,0,0,0,.5.49.49.49,0,0,0,.49-.49A.5.5,0,0,0,53,46.17Z"/><path class="cls-6" d="M48.41,43.54h0a1.42,1.42,0,0,0,.13,2l.16.14,1.87-2.13-.16-.15A1.42,1.42,0,0,0,48.41,43.54Z"/><polygon class="cls-32" points="50.72 43.69 48.84 45.83 46.34 51.48 52.45 44.51 50.72 43.69"/><path class="cls-30" d="M46.34,51.57h-.05a.1.1,0,0,1,0-.12l2.49-5.65,0,0,1.88-2.15a.11.11,0,0,1,.12,0l1.72.82a.13.13,0,0,1,.06.07.11.11,0,0,1,0,.08l-6.11,7A.09.09,0,0,1,46.34,51.57Zm2.58-5.69L46.68,51l5.62-6.41-1.55-.74Z"/><path class="cls-30" d="M52.45,44.51l-6.11,7a.05.05,0,0,0,0,.08l.76.66a.06.06,0,0,0,.08,0l6.11-7a.05.05,0,0,0,0-.08l-.76-.67A.05.05,0,0,0,52.45,44.51Z"/><path class="cls-20" d="M53,25.64a2.48,2.48,0,0,1-1.13,2.91c-10.81,6.17-15.43,6.39-1.24,15l-1.87,2.14c-18.68-10.81-11.65-13.42.52-21.37a2.48,2.48,0,0,1,3.42.7h0a2.53,2.53,0,0,1,.3.62Z"/><path class="cls-21" d="M48.75,45.79h0c-8-4.65-11.46-7.84-11.53-10.69C37.1,32,41.05,29.48,46.52,26l.85-.54a.09.09,0,0,1,.13,0,.1.1,0,0,1,0,.13l-.85.54c-5.41,3.47-9.33,6-9.26,9,0,1.36.91,2.83,2.67,4.48a49.75,49.75,0,0,0,8.7,6l1.74-2c-6.47-3.94-8.87-6.06-8.83-7.82s2.47-3.08,6.49-5.26c1.11-.59,2.36-1.27,3.68-2,.95-.54,1.79-1.3.76-4.1a.1.1,0,0,1,.06-.12.09.09,0,0,1,.12.06c1,2.64.37,3.64-.84,4.33s-2.58,1.43-3.69,2c-3.82,2.07-6.35,3.44-6.39,5.1s2.36,3.78,8.84,7.71a.08.08,0,0,1,0,.07.07.07,0,0,1,0,.07l-1.87,2.15A.09.09,0,0,1,48.75,45.79Z"/><rect class="cls-21" x="47.55" y="43.83" width="3.43" height="1.01" rx="0.29" transform="translate(-16.52 52.35) rotate(-48.93)"/><path class="cls-33" d="M46.19,27a30.94,30.94,0,0,0-5.33,3.76c-1.52,1.6-.34,2.29.12,2,1.47-.79,3.07-2.77,5.87-4S47.79,25.89,46.19,27Z"/><polygon class="cls-34" points="25.84 6.46 26.14 10.32 26.89 11.71 34.27 10.31 35.26 5.82 32.39 3.92 27.86 4.67 25.84 6.46"/><path class="cls-35" d="M28.18,4.62l-.42.14-1.92,1.7.29,3.67c.32.64.62,1.2.84,1.57L30.75,11c.87-.36,1.56-.74,1.59-1a16.6,16.6,0,0,1,1.28-4.1L32,4Z"/><path class="cls-18" d="M31.09.13a6.16,6.16,0,0,0-5.39,6h0L26,10.61a3.85,3.85,0,0,0,1.16,2.52l.36.34a4,4,0,0,0,3.27,1.11l.36,0a8.78,8.78,0,0,0,4.21-1.66l1-.78a4.19,4.19,0,0,0,1.66-3.84L37.77,5.7A6.15,6.15,0,0,0,31.09.13Zm3.69,6.8h0a2.56,2.56,0,0,1-1.14,1.91L32,9.93a3.38,3.38,0,0,1-1.45.52l-1.25.15a2.38,2.38,0,0,1-1.74-.51l-.27-.23A3.16,3.16,0,0,1,26.14,8l-.05-.24a.9.9,0,0,1,.76-1.08l6.86-.8A1,1,0,0,1,34.78,6.93Z"/><path class="cls-36" d="M31.09.13a6.16,6.16,0,0,0-5.39,6h0L26,10.61a3.85,3.85,0,0,0,1.16,2.52l.36.34a4,4,0,0,0,3.27,1.11l.36,0a8.58,8.58,0,0,0,1.49-.31,9.35,9.35,0,0,1-.23-4.58L32,9.93a3.38,3.38,0,0,1-1.45.52l-1.25.15a2.38,2.38,0,0,1-1.74-.51l-.27-.23A3.16,3.16,0,0,1,26.14,8l-.05-.24a.9.9,0,0,1,.76-1.08l6.77-.79a5.34,5.34,0,0,1,.68-1.1c.94-1.09,1.12-3.2-1.15-4.5A5.67,5.67,0,0,0,31.09.13Z"/><path class="cls-17" d="M30.31,14.7a4.14,4.14,0,0,1-2.87-1.16l-.36-.34a3.9,3.9,0,0,1-1.19-2.59L25.6,6.13v0A6.28,6.28,0,0,1,31.08,0h0a6,6,0,0,1,4.41,1.29,6.43,6.43,0,0,1,2.38,4.36l.28,2.56a4.31,4.31,0,0,1-1.7,3.93L35.4,13a8.94,8.94,0,0,1-4.26,1.69l-.36,0A3.7,3.7,0,0,1,30.31,14.7ZM25.79,6.13l.28,4.47a3.75,3.75,0,0,0,1.14,2.46l.36.35a4,4,0,0,0,3.19,1.08l.36,0a8.86,8.86,0,0,0,4.17-1.65L36.34,12A4.13,4.13,0,0,0,38,8.27l-.28-2.56a6.26,6.26,0,0,0-2.31-4.23A5.72,5.72,0,0,0,31.1.23a6.09,6.09,0,0,0-5.31,5.9Zm5.3-6ZM29,10.71a2.41,2.41,0,0,1-1.53-.55l-.27-.22A3.45,3.45,0,0,1,26,8L26,7.76a1,1,0,0,1,.18-.8,1,1,0,0,1,.67-.39l6.86-.8a1,1,0,0,1,.85.29,1.1,1.1,0,0,1,.32.88,2.64,2.64,0,0,1-1.17,2L32,10a3.4,3.4,0,0,1-1.5.54l-1.25.15ZM33.82,6h-.1l-6.86.79a.78.78,0,0,0-.54.32.83.83,0,0,0-.14.65l.05.24a3.15,3.15,0,0,0,1.09,1.83l.27.22a2.21,2.21,0,0,0,1.67.49l1.25-.14a3.38,3.38,0,0,0,1.41-.51l1.67-1.09a2.45,2.45,0,0,0,1.09-1.84.88.88,0,0,0-.86-1Z"/></g></g></g></svg>