<svg xmlns="http://www.w3.org/2000/svg" viewBox="0 0 70 56.62"><defs><style>.cls-1{fill:#4300a3;}</style></defs><g id="Layer_2" data-name="Layer 2"><g id="OBJECTS"><path d="M70,46.55a13.3,13.3,0,0,1-1.73,4.72,11.52,11.52,0,1,1,1.64-8c0,.13.06.26.09.39ZM51.13,45.11a7.42,7.42,0,1,0,7.43-7.41A7.35,7.35,0,0,0,51.13,45.11Z"/><path class="cls-1" d="M41.68,49.27a87.64,87.64,0,0,1-9-.36A16.42,16.42,0,0,1,27,47.46a10.33,10.33,0,0,1-1.1-.66,3.43,3.43,0,0,1-1.54-2.34,17.11,17.11,0,0,0-3.11-7.09A12.27,12.27,0,0,0,13,32.71c-.8-.12-1.62-.16-2.43-.23-.21,0-.39,0-.49-.25a9,9,0,0,1-1.24-5.92,5.8,5.8,0,0,1,2.41-3.53,17.34,17.34,0,0,1,4.23-2.19c1.46-.55,2.92-1.08,4.38-1.62.62-.23.68-.18.73.49,0,.25,0,.51,0,.76s.17.44.47.21l2.61-2c3.18-2.4,6.35-4.81,9.54-7.21a5.49,5.49,0,0,1,7,.53,39.08,39.08,0,0,1,3.31,4.06c1.3,1.72,2.57,3.47,3.89,5.17.35.47.34.71-.14,1.06Q44,24.5,40.74,27c-.43.33-.63.23-.91-.16-2.14-3-4.31-6-6.45-9-.27-.38-.45-.47-.85-.15q-5.1,3.93-10.23,7.83c-.37.29-.42.5-.17.9a10.23,10.23,0,0,0,5.14,3.93c.24.1.37,0,.44-.2s.1-.33.16-.5A2.44,2.44,0,0,1,30,28a17.19,17.19,0,0,1,2.27,0c2.67,0,5.33,0,8,0a1.56,1.56,0,0,0,1-.36q3.18-2.51,6.38-5c.59-.46.59-.46,1,.18.86,1.25,1.88,2.38,2.65,3.69a2,2,0,0,1,.32.62c.11.66.5.77,1.11.77,3.17,0,6.34,0,9.5,0a1.38,1.38,0,0,1,1.43.95,3.24,3.24,0,0,1-.58,3.37,1,1,0,0,1-.85.25,27.82,27.82,0,0,0-6.5.49,11.86,11.86,0,0,0-7.3,4.22,11.9,11.9,0,0,0-2.22,6,22.27,22.27,0,0,0,.11,5.35c.09.77.07.77-.71.77Z"/><path d="M0,45.05A11.52,11.52,0,1,1,11.43,56.62,11.51,11.51,0,0,1,0,45.05ZM11.5,52.5a7.41,7.41,0,1,0,0-14.81,7.41,7.41,0,1,0,0,14.81Z"/><path d="M28.1,10.5c0-.48,0-1,0-1.45s.09-.64.56-.69c1.08-.11,2.15-.31,3.23-.43.49,0,.68-.23.65-.73s0-1.28,0-1.92c0-.33-.11-.44-.46-.38-1.15.21-2.3.39-3.44.58-.59.09-.66,0-.54-.57A5.46,5.46,0,0,1,31,1,7.48,7.48,0,0,1,36.58.25a5,5,0,0,1,2.7,1.61,7.06,7.06,0,0,1,1,8c-.26.46-.47.63-1,.35-2.88-1.43-5.46-.68-7.74,1.31-1,.85-2.12.72-3.22.93-.26,0-.28-.2-.28-.41V10.5Z"/></g></g></svg>